<svg width="109" height="40" viewBox="0 0 109 40" fill="none" xmlns="http://www.w3.org/2000/svg">
<path d="M9.95262 31.6997C8.81262 31.6997 7.67262 31.6597 6.53262 31.5797C5.41262 31.5197 4.24262 31.3597 3.02262 31.0997V10.9397C3.98262 10.7597 5.03262 10.6297 6.17262 10.5497C7.31262 10.4497 8.37262 10.3997 9.35262 10.3997C10.6726 10.3997 11.8826 10.4997 12.9826 10.6997C14.1026 10.8797 15.0626 11.1997 15.8626 11.6597C16.6626 12.1197 17.2826 12.7297 17.7226 13.4897C18.1826 14.2297 18.4126 15.1497 18.4126 16.2497C18.4126 17.9097 17.6126 19.2197 16.0126 20.1797C17.3326 20.6797 18.2326 21.3597 18.7126 22.2197C19.1926 23.0797 19.4326 24.0497 19.4326 25.1297C19.4326 27.3097 18.6326 28.9497 17.0326 30.0497C15.4526 31.1497 13.0926 31.6997 9.95262 31.6997ZM7.58262 22.3697V27.7397C7.92262 27.7797 8.29262 27.8097 8.69262 27.8297C9.09262 27.8497 9.53262 27.8597 10.0126 27.8597C11.4126 27.8597 12.5426 27.6597 13.4026 27.2597C14.2626 26.8597 14.6926 26.1197 14.6926 25.0397C14.6926 24.0797 14.3326 23.3997 13.6126 22.9997C12.8926 22.5797 11.8626 22.3697 10.5226 22.3697H7.58262ZM7.58262 18.7997H9.86262C11.3026 18.7997 12.3326 18.6197 12.9526 18.2597C13.5726 17.8797 13.8826 17.2797 13.8826 16.4597C13.8826 15.6197 13.5626 15.0297 12.9226 14.6897C12.2826 14.3497 11.3426 14.1797 10.1026 14.1797C9.70262 14.1797 9.27262 14.1897 8.81262 14.2097C8.35262 14.2097 7.94262 14.2297 7.58262 14.2697V18.7997ZM27.3489 31.4297H22.8789V15.6497H27.3489V31.4297ZM27.7689 11.0897C27.7689 11.9097 27.4989 12.5597 26.9589 13.0397C26.4389 13.4997 25.8189 13.7297 25.0989 13.7297C24.3789 13.7297 23.7489 13.4997 23.2089 13.0397C22.6889 12.5597 22.4289 11.9097 22.4289 11.0897C22.4289 10.2697 22.6889 9.62969 23.2089 9.16969C23.7489 8.68969 24.3789 8.44969 25.0989 8.44969C25.8189 8.44969 26.4389 8.68969 26.9589 9.16969C27.4989 9.62969 27.7689 10.2697 27.7689 11.0897ZM31.4007 11.7197L35.8707 10.9997V15.6497H41.2407V19.3697H35.8707V24.9197C35.8707 25.8597 36.0307 26.6097 36.3507 27.1697C36.6907 27.7297 37.3607 28.0097 38.3607 28.0097C38.8407 28.0097 39.3307 27.9697 39.8307 27.8897C40.3507 27.7897 40.8207 27.6597 41.2407 27.4997L41.8707 30.9797C41.3307 31.1997 40.7307 31.3897 40.0707 31.5497C39.4107 31.7097 38.6007 31.7897 37.6407 31.7897C36.4207 31.7897 35.4107 31.6297 34.6107 31.3097C33.8107 30.9697 33.1707 30.5097 32.6907 29.9297C32.2107 29.3297 31.8707 28.6097 31.6707 27.7697C31.4907 26.9297 31.4007 25.9997 31.4007 24.9797V11.7197Z" fill="#263238"/>
<path d="M82.7526 28.3097C83.1926 28.3097 83.6126 28.2997 84.0126 28.2797C84.4126 28.2597 84.7326 28.2297 84.9726 28.1897V24.7997C84.7926 24.7597 84.5226 24.7197 84.1626 24.6797C83.8026 24.6397 83.4726 24.6197 83.1726 24.6197C82.7526 24.6197 82.3526 24.6497 81.9726 24.7097C81.6126 24.7497 81.2926 24.8397 81.0126 24.9797C80.7326 25.1197 80.5126 25.3097 80.3526 25.5497C80.1926 25.7897 80.1126 26.0897 80.1126 26.4497C80.1126 27.1497 80.3426 27.6397 80.8026 27.9197C81.2826 28.1797 81.9326 28.3097 82.7526 28.3097ZM82.3926 15.2297C83.7126 15.2297 84.8126 15.3797 85.6926 15.6797C86.5726 15.9797 87.2726 16.4097 87.7926 16.9697C88.3326 17.5297 88.7126 18.2097 88.9326 19.0097C89.1526 19.8097 89.2626 20.6997 89.2626 21.6797V30.9797C88.6226 31.1197 87.7326 31.2797 86.5926 31.4597C85.4526 31.6597 84.0726 31.7597 82.4526 31.7597C81.4326 31.7597 80.5026 31.6697 79.6626 31.4897C78.8426 31.3097 78.1326 31.0197 77.5326 30.6197C76.9326 30.1997 76.4726 29.6597 76.1526 28.9997C75.8326 28.3397 75.6726 27.5297 75.6726 26.5697C75.6726 25.6497 75.8526 24.8697 76.2126 24.2297C76.5926 23.5897 77.0926 23.0797 77.7126 22.6997C78.3326 22.3197 79.0426 22.0497 79.8426 21.8897C80.6426 21.7097 81.4726 21.6197 82.3326 21.6197C82.9126 21.6197 83.4226 21.6497 83.8626 21.7097C84.3226 21.7497 84.6926 21.8097 84.9726 21.8897V21.4697C84.9726 20.7097 84.7426 20.0997 84.2826 19.6397C83.8226 19.1797 83.0226 18.9497 81.8826 18.9497C81.1226 18.9497 80.3726 19.0097 79.6326 19.1297C78.8926 19.2297 78.2526 19.3797 77.7126 19.5797L77.1426 15.9797C77.4026 15.8997 77.7226 15.8197 78.1026 15.7397C78.5026 15.6397 78.9326 15.5597 79.3926 15.4997C79.8526 15.4197 80.3326 15.3597 80.8326 15.3197C81.3526 15.2597 81.8726 15.2297 82.3926 15.2297ZM99.5747 20.4497L102.695 15.6497H107.315L101.915 23.2397C103.115 24.7397 104.205 26.1997 105.185 27.6197C106.165 29.0397 106.945 30.3097 107.525 31.4297H102.725C102.565 31.1297 102.365 30.7597 102.125 30.3197C101.885 29.8597 101.615 29.3897 101.315 28.9097C101.015 28.4097 100.695 27.9197 100.355 27.4397C100.035 26.9397 99.7147 26.4897 99.3947 26.0897C99.0947 26.4697 98.7847 26.8897 98.4647 27.3497C98.1647 27.8097 97.8747 28.2797 97.5947 28.7597C97.3147 29.2197 97.0347 29.6797 96.7547 30.1397C96.4947 30.5997 96.2647 31.0297 96.0647 31.4297H91.5047C91.7447 30.9297 92.0747 30.3397 92.4947 29.6597C92.9147 28.9797 93.3647 28.2797 93.8447 27.5597C94.3447 26.8197 94.8647 26.0897 95.4047 25.3697C95.9447 24.6297 96.4747 23.9397 96.9947 23.2997C96.0947 22.0397 95.1947 20.7697 94.2947 19.4897C93.3947 18.1897 92.5047 16.9097 91.6247 15.6497H96.4547L99.5747 20.4497Z" fill="#263238"/>
<path d="M53.1226 11.4297L61.3499 30.1797H44.8954L53.1226 11.4297Z" fill="#FEBA66"/>
<path d="M63.1226 11.4297L71.3499 30.1797H54.8954L63.1226 11.4297Z" fill="#EDA54C"/>
</svg>
