<svg width="280" height="103" viewBox="0 0 280 103" fill="none" xmlns="http://www.w3.org/2000/svg">
<g filter="url(#filter0_d_96_4331)">
<rect x="9.97833" y="3.81836" width="255" height="78" rx="10" fill="#F2F2F2" fill-opacity="0.9" shape-rendering="crispEdges"/>
<rect x="10.4783" y="4.31836" width="254" height="77" rx="9.5" stroke="#E0E0E0" shape-rendering="crispEdges"/>
</g>
<path d="M34.453 33.9576C34.0354 33.9509 33.6178 33.8714 33.2002 33.7189C32.7826 33.5665 32.4014 33.3096 32.0567 32.9483C31.712 32.5837 31.4353 32.0916 31.2265 31.4718C31.0177 30.8487 30.9133 30.0665 30.9133 29.1252C30.9133 28.2237 30.9978 27.4249 31.1668 26.7289C31.3358 26.0295 31.5811 25.4412 31.9026 24.964C32.2241 24.4834 32.6119 24.1188 33.066 23.8702C33.5233 23.6216 34.0387 23.4973 34.6121 23.4973C35.1822 23.4973 35.6893 23.6117 36.1334 23.8404C36.5809 24.0658 36.9455 24.3806 37.2272 24.785C37.5089 25.1893 37.6912 25.655 37.7741 26.182L36.561 26.182C36.4483 25.7246 36.2295 25.3451 35.9047 25.0435C35.5799 24.7419 35.1491 24.5911 34.6121 24.5911C33.8233 24.5911 33.2018 24.9341 32.7478 25.6202C32.297 26.3063 32.07 27.2691 32.0667 28.5087L32.1462 28.5087C32.3318 28.227 32.5522 27.9867 32.8074 27.7878C33.066 27.5856 33.351 27.4299 33.6625 27.3205C33.9741 27.2111 34.3039 27.1564 34.6519 27.1564C35.2352 27.1564 35.7688 27.3023 36.2527 27.5939C36.7366 27.8823 37.1244 28.2817 37.4161 28.7921C37.7078 29.2992 37.8536 29.8809 37.8536 30.5371C37.8536 31.1668 37.7127 31.7435 37.431 32.2672C37.1493 32.7876 36.7532 33.2019 36.2428 33.5101C35.7357 33.815 35.1391 33.9642 34.453 33.9576ZM34.453 32.8638C34.8706 32.8638 35.2452 32.7594 35.5766 32.5506C35.9114 32.3418 36.1749 32.0617 36.3671 31.7104C36.5626 31.3591 36.6604 30.968 36.6604 30.5371C36.6604 30.1162 36.566 29.7334 36.377 29.3887C36.1914 29.0407 35.9346 28.7639 35.6064 28.5584C35.2816 28.3529 34.9104 28.2502 34.4928 28.2502C34.1779 28.2502 33.8846 28.3132 33.6128 28.4391C33.3411 28.5617 33.1024 28.7308 32.8969 28.9462C32.6947 29.1616 32.5357 29.4086 32.4197 29.687C32.3036 29.9621 32.2456 30.2521 32.2456 30.557C32.2456 30.9614 32.3401 31.3392 32.529 31.6905C32.7213 32.0418 32.9831 32.3252 33.3145 32.5407C33.6493 32.7561 34.0288 32.8638 34.453 32.8638ZM43.428 23.1593L40.1467 35.3496L39.0729 35.3496L42.3541 23.1593L43.428 23.1593ZM48.1796 33.9576C47.762 33.9509 47.3444 33.8714 46.9268 33.7189C46.5091 33.5665 46.128 33.3096 45.7833 32.9483C45.4386 32.5837 45.1618 32.0916 44.953 31.4718C44.7442 30.8487 44.6398 30.0665 44.6398 29.1252C44.6398 28.2237 44.7243 27.4249 44.8934 26.7289C45.0624 26.0295 45.3077 25.4412 45.6292 24.964C45.9507 24.4834 46.3384 24.1188 46.7925 23.8702C47.2499 23.6216 47.7653 23.4973 48.3387 23.4973C48.9088 23.4973 49.4159 23.6117 49.86 23.8404C50.3074 24.0658 50.672 24.3806 50.9537 24.785C51.2355 25.1893 51.4178 25.655 51.5006 26.182L50.2875 26.182C50.1749 25.7246 49.9561 25.3451 49.6313 25.0435C49.3065 24.7419 48.8756 24.5911 48.3387 24.5911C47.5499 24.5911 46.9284 24.9341 46.4743 25.6202C46.0236 26.3063 45.7965 27.2691 45.7932 28.5087L45.8728 28.5087C46.0584 28.227 46.2788 27.9867 46.534 27.7878C46.7925 27.5856 47.0776 27.4299 47.3891 27.3205C47.7007 27.2111 48.0304 27.1564 48.3785 27.1564C48.9618 27.1564 49.4954 27.3023 49.9793 27.5939C50.4632 27.8823 50.851 28.2817 51.1427 28.7921C51.4343 29.2992 51.5802 29.8809 51.5802 30.5371C51.5802 31.1668 51.4393 31.7435 51.1576 32.2672C50.8759 32.7876 50.4798 33.2019 49.9694 33.5101C49.4623 33.815 48.8657 33.9642 48.1796 33.9576ZM48.1796 32.8638C48.5972 32.8638 48.9717 32.7594 49.3032 32.5506C49.6379 32.3418 49.9014 32.0617 50.0937 31.7104C50.2892 31.3591 50.387 30.968 50.387 30.5371C50.387 30.1162 50.2925 29.7334 50.1036 29.3887C49.918 29.0407 49.6611 28.7639 49.333 28.5584C49.0082 28.3529 48.637 28.2502 48.2194 28.2502C47.9045 28.2502 47.6112 28.3132 47.3394 28.4391C47.0676 28.5617 46.829 28.7308 46.6235 28.9462C46.4213 29.1616 46.2622 29.4086 46.1462 29.687C46.0302 29.9621 45.9722 30.2521 45.9722 30.557C45.9722 30.9614 46.0667 31.3392 46.2556 31.6905C46.4478 32.0418 46.7097 32.3252 47.0411 32.5407C47.3759 32.7561 47.7554 32.8638 48.1796 32.8638ZM57.1546 23.1593L53.8733 35.3496L52.7994 35.3496L56.0807 23.1593L57.1546 23.1593ZM58.5255 33.8184L58.5255 32.9235L61.8863 29.2445C62.2807 28.8136 62.6055 28.4391 62.8607 28.1209C63.1159 27.7994 63.3048 27.4978 63.4275 27.2161C63.5534 26.931 63.6164 26.6328 63.6164 26.3212C63.6164 25.9632 63.5302 25.6534 63.3579 25.3915C63.1888 25.1297 62.9568 24.9275 62.6618 24.785C62.3669 24.6425 62.0354 24.5712 61.6675 24.5712C61.2764 24.5712 60.935 24.6524 60.6434 24.8148C60.355 24.9739 60.1313 25.1976 59.9722 25.486C59.8164 25.7743 59.7385 26.1124 59.7385 26.5002L58.5652 26.5002C58.5652 25.9036 58.7028 25.3799 58.9779 24.9292C59.253 24.4784 59.6275 24.1271 60.1015 23.8752C60.5787 23.6233 61.114 23.4973 61.7073 23.4973C62.3039 23.4973 62.8325 23.6233 63.2932 23.8752C63.7539 24.1271 64.1152 24.4668 64.377 24.8944C64.6389 25.3219 64.7698 25.7975 64.7698 26.3212C64.7698 26.6957 64.7018 27.062 64.566 27.4199C64.4334 27.7746 64.2014 28.1706 63.8699 28.6081C63.5418 29.0423 63.0861 29.5726 62.5027 30.199L60.2158 32.6451L60.2158 32.7246L64.9488 32.7246L64.9488 33.8184L58.5255 33.8184ZM70.3231 33.9576C69.574 33.9576 68.936 33.7537 68.409 33.3461C67.882 32.9351 67.4793 32.3401 67.2009 31.5613C66.9225 30.7791 66.7833 29.8345 66.7833 28.7275C66.7833 27.6271 66.9225 26.6874 67.2009 25.9086C67.4826 25.1264 67.887 24.5298 68.414 24.1188C68.9443 23.7045 69.5806 23.4973 70.3231 23.4973C71.0655 23.4973 71.7002 23.7045 72.2272 24.1188C72.7575 24.5298 73.1618 25.1264 73.4402 25.9086C73.722 26.6874 73.8628 27.6271 73.8628 28.7275C73.8628 29.8345 73.7236 30.7791 73.4452 31.5613C73.1668 32.3401 72.7641 32.9351 72.2371 33.3461C71.7101 33.7537 71.0721 33.9576 70.3231 33.9576ZM70.3231 32.8638C71.0655 32.8638 71.6422 32.5059 72.0532 31.79C72.4642 31.074 72.6697 30.0532 72.6697 28.7275C72.6697 27.8458 72.5752 27.0951 72.3863 26.4753C72.2007 25.8555 71.9322 25.3832 71.5809 25.0584C71.2329 24.7336 70.8136 24.5712 70.3231 24.5712C69.5873 24.5712 69.0122 24.9341 68.5979 25.66C68.1836 26.3825 67.9765 27.405 67.9765 28.7275C67.9765 29.6091 68.0693 30.3581 68.2549 30.9746C68.4405 31.5911 68.7073 32.0601 69.0553 32.3816C69.4066 32.7031 69.8292 32.8638 70.3231 32.8638ZM75.752 33.8184L75.752 32.9235L79.1128 29.2445C79.5072 28.8136 79.8321 28.4391 80.0873 28.1209C80.3425 27.7994 80.5314 27.4978 80.654 27.2161C80.78 26.931 80.8429 26.6328 80.8429 26.3212C80.8429 25.9632 80.7568 25.6534 80.5844 25.3915C80.4154 25.1297 80.1834 24.9275 79.8884 24.785C79.5934 24.6425 79.262 24.5712 78.8941 24.5712C78.503 24.5712 78.1616 24.6524 77.8699 24.8148C77.5816 24.9739 77.3579 25.1976 77.1988 25.486C77.043 25.7743 76.9651 26.1124 76.9651 26.5002L75.7918 26.5002C75.7918 25.9036 75.9294 25.3799 76.2045 24.9292C76.4795 24.4784 76.8541 24.1271 77.328 23.8752C77.8053 23.6233 78.3406 23.4973 78.9339 23.4973C79.5304 23.4973 80.0591 23.6233 80.5198 23.8752C80.9805 24.1271 81.3418 24.4668 81.6036 24.8944C81.8654 25.3219 81.9964 25.7975 81.9964 26.3212C81.9964 26.6957 81.9284 27.062 81.7925 27.4199C81.6599 27.7746 81.4279 28.1706 81.0965 28.6081C80.7684 29.0423 80.3126 29.5726 79.7293 30.199L77.4424 32.6451L77.4424 32.7246L82.1753 32.7246L82.1753 33.8184L75.752 33.8184ZM83.7712 31.7303L83.7712 30.7161L88.2456 23.6365L88.9814 23.6365L88.9814 25.2076L88.4843 25.2076L85.1036 30.557L85.1036 30.6365L91.1292 30.6365L91.1292 31.7303L83.7712 31.7303ZM88.5638 33.8184L88.5638 31.4221L88.5638 30.9498L88.5638 23.6365L89.7371 23.6365L89.7371 33.8184L88.5638 33.8184Z" fill="#797979"/>
<path d="M190.391 33.8184L190.391 32.9235L193.752 29.2445C194.146 28.8136 194.471 28.4391 194.726 28.1209C194.981 27.7994 195.17 27.4978 195.293 27.2161C195.419 26.931 195.482 26.6328 195.482 26.3212C195.482 25.9632 195.395 25.6533 195.223 25.3915C195.054 25.1297 194.822 24.9275 194.527 24.785C194.232 24.6425 193.901 24.5712 193.533 24.5712C193.142 24.5712 192.8 24.6524 192.509 24.8148C192.22 24.9739 191.997 25.1976 191.837 25.486C191.682 25.7743 191.604 26.1124 191.604 26.5002L190.43 26.5002C190.43 25.9036 190.568 25.3799 190.843 24.9292C191.118 24.4784 191.493 24.1271 191.967 23.8752C192.444 23.6233 192.979 23.4973 193.573 23.4973C194.169 23.4973 194.698 23.6233 195.158 23.8752C195.619 24.1271 195.98 24.4668 196.242 24.8944C196.504 25.3219 196.635 25.7975 196.635 26.3212C196.635 26.6957 196.567 27.062 196.431 27.4199C196.299 27.7746 196.067 28.1706 195.735 28.6081C195.407 29.0423 194.951 29.5726 194.368 30.199L192.081 32.6451L192.081 32.7246L196.814 32.7246L196.814 33.8184L190.391 33.8184ZM199.742 32.5158C199.497 32.5158 199.287 32.428 199.111 32.2523C198.935 32.0766 198.847 31.8662 198.847 31.6209C198.847 31.3757 198.935 31.1652 199.111 30.9895C199.287 30.8139 199.497 30.726 199.742 30.726C199.988 30.726 200.198 30.8139 200.374 30.9895C200.549 31.1652 200.637 31.3757 200.637 31.6209C200.637 31.7833 200.596 31.9325 200.513 32.0684C200.433 32.2042 200.326 32.3136 200.19 32.3965C200.057 32.476 199.908 32.5158 199.742 32.5158ZM199.742 27.3652C199.497 27.3652 199.287 27.2774 199.111 27.1017C198.935 26.9261 198.847 26.7156 198.847 26.4703C198.847 26.2251 198.935 26.0146 199.111 25.839C199.287 25.6633 199.497 25.5755 199.742 25.5755C199.988 25.5755 200.198 25.6633 200.374 25.839C200.549 26.0146 200.637 26.2251 200.637 26.4703C200.637 26.6328 200.596 26.7819 200.513 26.9178C200.433 27.0537 200.326 27.1631 200.19 27.2459C200.057 27.3255 199.908 27.3652 199.742 27.3652ZM206.163 33.9576C205.507 33.9576 204.922 33.8449 204.408 33.6195C203.898 33.3941 203.492 33.0809 203.19 32.6799C202.892 32.2755 202.729 31.8065 202.703 31.2729L203.956 31.2729C203.982 31.601 204.095 31.8844 204.294 32.123C204.493 32.3584 204.753 32.5407 205.074 32.6699C205.396 32.7992 205.752 32.8638 206.143 32.8638C206.581 32.8638 206.968 32.7876 207.307 32.6351C207.645 32.4827 207.91 32.2705 208.102 31.9988C208.294 31.727 208.39 31.4121 208.39 31.0542C208.39 30.6796 208.298 30.3498 208.112 30.0648C207.926 29.7765 207.655 29.5511 207.297 29.3887C206.939 29.2263 206.501 29.1451 205.984 29.1451L205.169 29.1451L205.169 28.0513L205.984 28.0513C206.388 28.0513 206.743 27.9784 207.048 27.8326C207.356 27.6867 207.597 27.4812 207.769 27.2161C207.945 26.9509 208.032 26.6394 208.032 26.2814C208.032 25.9367 207.956 25.6368 207.804 25.3816C207.651 25.1264 207.436 24.9275 207.157 24.785C206.882 24.6425 206.557 24.5712 206.183 24.5712C205.832 24.5712 205.5 24.6358 205.189 24.7651C204.88 24.891 204.629 25.075 204.433 25.3169C204.237 25.5556 204.131 25.8439 204.115 26.182L202.922 26.182C202.941 25.6484 203.102 25.181 203.404 24.78C203.705 24.3757 204.1 24.0608 204.587 23.8354C205.078 23.61 205.616 23.4973 206.203 23.4973C206.833 23.4973 207.373 23.6249 207.824 23.8801C208.274 24.132 208.621 24.4651 208.863 24.8794C209.105 25.2937 209.226 25.7412 209.226 26.2218C209.226 26.7952 209.075 27.284 208.773 27.6884C208.475 28.0927 208.069 28.3728 207.555 28.5286L207.555 28.6081C208.198 28.7142 208.7 28.9876 209.062 29.4284C209.423 29.8659 209.603 30.4078 209.603 31.0542C209.603 31.6077 209.453 32.1048 209.151 32.5456C208.853 32.9831 208.445 33.3278 207.928 33.5797C207.411 33.8316 206.823 33.9576 206.163 33.9576ZM211.398 31.7303L211.398 30.7161L215.873 23.6365L216.608 23.6365L216.608 25.2076L216.111 25.2076L212.731 30.557L212.731 30.6365L218.756 30.6365L218.756 31.7303L211.398 31.7303ZM216.191 33.8184L216.191 31.4221L216.191 30.9498L216.191 23.6365L217.364 23.6365L217.364 33.8184L216.191 33.8184ZM220.798 33.8184L220.798 23.6365L224.239 23.6365C225.037 23.6365 225.69 23.7807 226.197 24.0691C226.708 24.3541 227.086 24.7402 227.331 25.2275C227.576 25.7147 227.699 26.2582 227.699 26.8581C227.699 27.458 227.576 28.0033 227.331 28.4938C227.089 28.9843 226.714 29.3754 226.207 29.6671C225.7 29.9554 225.051 30.0996 224.258 30.0996L221.793 30.0996L221.793 29.0059L224.219 29.0059C224.766 29.0059 225.205 28.9114 225.536 28.7225C225.868 28.5336 226.108 28.2783 226.257 27.9569C226.409 27.632 226.486 27.2658 226.486 26.8581C226.486 26.4505 226.409 26.0859 226.257 25.7644C226.108 25.4429 225.866 25.191 225.531 25.0087C225.196 24.8231 224.752 24.7303 224.199 24.7303L222.031 24.7303L222.031 33.8184L220.798 33.8184ZM229.526 33.8184L229.526 26.182L230.659 26.182L230.659 27.3752L230.759 27.3752C230.918 26.9675 231.175 26.651 231.529 26.4256C231.884 26.1969 232.31 26.0826 232.807 26.0826C233.311 26.0826 233.73 26.1969 234.065 26.4256C234.403 26.651 234.666 26.9675 234.855 27.3752L234.935 27.3752C235.13 26.9808 235.424 26.6676 235.815 26.4355C236.206 26.2002 236.675 26.0826 237.222 26.0826C237.905 26.0826 238.463 26.2963 238.897 26.7239C239.331 27.1481 239.549 27.8094 239.549 28.7076L239.549 33.8184L238.375 33.8184L238.375 28.7076C238.375 28.1441 238.221 27.7414 237.913 27.4995C237.605 27.2575 237.242 27.1365 236.824 27.1365C236.287 27.1365 235.871 27.2989 235.576 27.6238C235.281 27.9453 235.134 28.3529 235.134 28.8468L235.134 33.8184L233.941 33.8184L233.941 28.5882C233.941 28.1541 233.8 27.8044 233.518 27.5392C233.236 27.2708 232.873 27.1365 232.429 27.1365C232.124 27.1365 231.839 27.2177 231.574 27.3801C231.312 27.5426 231.1 27.7679 230.938 28.0563C230.779 28.3413 230.699 28.6711 230.699 29.0456L230.699 33.8184L229.526 33.8184Z" fill="#797979"/>
<path d="M33.8551 62.6104C33.0871 62.557 32.4631 62.4557 31.9831 62.3064C31.5138 62.1464 31.1618 62.0024 30.9271 61.8744L31.4711 60.3544C31.8125 60.525 32.2231 60.6797 32.7031 60.8184C33.1938 60.957 33.7485 61.0264 34.3671 61.0264C35.1031 61.0264 35.6098 60.9197 35.8871 60.7064C36.1751 60.4824 36.3191 60.189 36.3191 59.8264C36.3191 59.581 36.2605 59.3677 36.1431 59.1864C36.0258 59.005 35.8605 58.845 35.6471 58.7064C35.4338 58.5677 35.1778 58.4397 34.8791 58.3224C34.5911 58.205 34.2711 58.0824 33.9191 57.9544C33.5885 57.837 33.2578 57.7037 32.9271 57.5544C32.6071 57.405 32.3138 57.2237 32.0471 57.0104C31.7911 56.7864 31.5831 56.5197 31.4231 56.2104C31.2631 55.901 31.1831 55.5224 31.1831 55.0744C31.1831 54.3384 31.4018 53.7144 31.8391 53.2024C32.2765 52.6797 32.9485 52.3437 33.8551 52.1944L33.8551 50.4024L35.5191 50.4024L35.5191 52.1304C36.0311 52.173 36.4898 52.2477 36.8951 52.3544C37.3005 52.4504 37.6205 52.5464 37.8551 52.6424L37.4551 54.2264C37.1458 54.109 36.7778 53.997 36.3511 53.8904C35.9351 53.7837 35.4551 53.7304 34.9111 53.7304C34.3351 53.7304 33.9031 53.837 33.6151 54.0504C33.3271 54.253 33.1831 54.5357 33.1831 54.8984C33.1831 55.1117 33.2258 55.293 33.3111 55.4424C33.3965 55.581 33.5245 55.709 33.6951 55.8264C33.8658 55.933 34.0738 56.0397 34.3191 56.1464C34.5645 56.2424 34.8418 56.3437 35.1511 56.4504C35.5885 56.621 35.9991 56.8024 36.3831 56.9944C36.7778 57.1757 37.1191 57.3944 37.4071 57.6504C37.6951 57.8957 37.9191 58.189 38.0791 58.5304C38.2498 58.8717 38.3351 59.277 38.3351 59.7464C38.3351 60.4504 38.1165 61.0584 37.6791 61.5704C37.2418 62.0824 36.5218 62.413 35.5191 62.5624L35.5191 64.5624L33.8551 64.5624L33.8551 62.6104ZM46.7153 63.0584C46.4273 63.0584 46.1286 63.037 45.8193 62.9944C45.5206 62.9624 45.2326 62.9144 44.9553 62.8504C44.6886 62.797 44.4433 62.7384 44.2193 62.6744C43.9953 62.5997 43.8246 62.5304 43.7073 62.4664L44.0913 60.8184C44.3153 60.925 44.6406 61.0477 45.0673 61.1864C45.4939 61.3144 46.0219 61.3784 46.6513 61.3784C47.4939 61.3784 48.1019 61.2184 48.4753 60.8984C48.8486 60.5677 49.0353 60.1304 49.0353 59.5864C49.0353 59.2344 48.9606 58.941 48.8113 58.7064C48.6726 58.4717 48.4753 58.285 48.2193 58.1464C47.9739 57.997 47.6859 57.8957 47.3553 57.8424C47.0353 57.7784 46.6939 57.7464 46.3313 57.7464L45.6753 57.7464L45.6753 56.1784L46.4753 56.1784C46.7206 56.1784 46.9659 56.157 47.2113 56.1144C47.4673 56.061 47.6966 55.9757 47.8993 55.8584C48.1019 55.7304 48.2673 55.565 48.3953 55.3624C48.5233 55.1597 48.5873 54.8984 48.5873 54.5784C48.5873 54.3224 48.5393 54.1037 48.4433 53.9224C48.3473 53.741 48.2193 53.5917 48.0593 53.4744C47.9099 53.357 47.7339 53.2717 47.5313 53.2184C47.3286 53.165 47.1153 53.1384 46.8913 53.1384C46.4113 53.1384 45.9846 53.213 45.6113 53.3624C45.2379 53.501 44.9073 53.661 44.6193 53.8424L43.9153 52.4024C44.0646 52.3064 44.2459 52.205 44.4593 52.0984C44.6726 51.9917 44.9073 51.8904 45.1633 51.7944C45.4299 51.6984 45.7126 51.6237 46.0113 51.5704C46.3099 51.5064 46.6246 51.4744 46.9553 51.4744C47.5739 51.4744 48.1073 51.549 48.5553 51.6984C49.0033 51.8477 49.3713 52.061 49.6593 52.3384C49.9579 52.605 50.1766 52.925 50.3153 53.2984C50.4646 53.661 50.5393 54.061 50.5393 54.4984C50.5393 55.0104 50.3953 55.469 50.1073 55.8744C49.8299 56.2797 49.4673 56.589 49.0193 56.8024C49.5953 57.005 50.0699 57.341 50.4433 57.8104C50.8273 58.2797 51.0193 58.8824 51.0193 59.6184C51.0193 60.109 50.9339 60.5677 50.7633 60.9944C50.5926 61.4104 50.3313 61.773 49.9793 62.0824C49.6273 62.381 49.1793 62.621 48.6353 62.8024C48.1019 62.973 47.4619 63.0584 46.7153 63.0584ZM60.433 57.2664C60.433 59.133 60.0917 60.5677 59.409 61.5704C58.7264 62.5624 57.7824 63.0584 56.577 63.0584C55.3717 63.0584 54.4277 62.5624 53.745 61.5704C53.0624 60.5677 52.721 59.133 52.721 57.2664C52.721 56.3384 52.8064 55.517 52.977 54.8024C53.1584 54.077 53.4144 53.469 53.745 52.9784C54.0864 52.4877 54.4917 52.1144 54.961 51.8584C55.441 51.6024 55.9797 51.4744 56.577 51.4744C57.7824 51.4744 58.7264 51.9757 59.409 52.9784C60.0917 53.9704 60.433 55.3997 60.433 57.2664ZM58.433 57.2664C58.433 56.6904 58.401 56.1517 58.337 55.6504C58.273 55.149 58.1664 54.717 58.017 54.3544C57.8784 53.981 57.6917 53.6877 57.457 53.4744C57.2224 53.261 56.929 53.1544 56.577 53.1544C56.225 53.1544 55.9264 53.261 55.681 53.4744C55.4464 53.6877 55.2544 53.981 55.105 54.3544C54.9664 54.717 54.865 55.149 54.801 55.6504C54.7477 56.1517 54.721 56.6904 54.721 57.2664C54.721 57.8424 54.7477 58.381 54.801 58.8824C54.865 59.3837 54.9664 59.821 55.105 60.1944C55.2544 60.557 55.4464 60.845 55.681 61.0584C55.9264 61.2717 56.225 61.3784 56.577 61.3784C56.929 61.3784 57.2224 61.2717 57.457 61.0584C57.6917 60.845 57.8784 60.557 58.017 60.1944C58.1664 59.821 58.273 59.3837 58.337 58.8824C58.401 58.381 58.433 57.8424 58.433 57.2664ZM64.3588 60.6904C64.3801 60.8717 64.3908 61.005 64.3908 61.0904C64.3908 61.1757 64.3908 61.261 64.3908 61.3464C64.3908 62.0077 64.2841 62.6904 64.0708 63.3944C63.8681 64.0984 63.5801 64.765 63.2068 65.3944L61.6868 64.9784C61.9428 64.3597 62.1134 63.7517 62.1988 63.1544C62.2948 62.5677 62.3428 62.0504 62.3428 61.6024C62.3428 61.4744 62.3374 61.3144 62.3268 61.1224C62.3268 60.9304 62.3214 60.7864 62.3108 60.6904L64.3588 60.6904ZM70.8 54.1144C70.544 54.4237 70.2774 54.7544 70 55.1064C69.7334 55.4584 69.472 55.8264 69.216 56.2104C68.96 56.5944 68.7147 56.989 68.48 57.3944C68.2454 57.789 68.032 58.1837 67.84 58.5784L70.8 58.5784L70.8 54.1144ZM72.688 51.7304L72.688 58.5784L73.936 58.5784L73.936 60.1624L72.688 60.1624L72.688 62.8184L70.8 62.8184L70.8 60.1624L65.936 60.1624L65.936 58.7864C66.1494 58.317 66.432 57.7784 66.784 57.1704C67.1467 56.5624 67.5467 55.9384 67.984 55.2984C68.4214 54.6584 68.8854 54.029 69.376 53.4104C69.8667 52.7917 70.3574 52.2317 70.848 51.7304L72.688 51.7304ZM82.8218 59.8424C82.8218 60.301 82.7418 60.7277 82.5818 61.1224C82.4218 61.517 82.1818 61.8584 81.8618 62.1464C81.5418 62.4344 81.1418 62.6584 80.6618 62.8184C80.1924 62.9784 79.6484 63.0584 79.0298 63.0584C78.3044 63.0584 77.7018 62.957 77.2218 62.7544C76.7418 62.5517 76.3578 62.2957 76.0698 61.9864C75.7818 61.677 75.5738 61.3464 75.4458 60.9944C75.3284 60.6317 75.2698 60.2904 75.2698 59.9704C75.2698 59.6504 75.3124 59.357 75.3978 59.0904C75.4938 58.813 75.6218 58.5624 75.7818 58.3384C75.9418 58.1037 76.1231 57.8904 76.3258 57.6984C76.5284 57.5064 76.7418 57.3357 76.9658 57.1864C76.4751 56.845 76.1071 56.477 75.8618 56.0824C75.6271 55.677 75.5098 55.1864 75.5098 54.6104C75.5098 54.1944 75.5898 53.7997 75.7498 53.4264C75.9204 53.0424 76.1604 52.7064 76.4698 52.4184C76.7791 52.1304 77.1524 51.901 77.5898 51.7304C78.0271 51.5597 78.5124 51.4744 79.0458 51.4744C79.6751 51.4744 80.2084 51.565 80.6458 51.7464C81.0938 51.9277 81.4564 52.1624 81.7338 52.4504C82.0218 52.7384 82.2298 53.0584 82.3578 53.4104C82.4858 53.7624 82.5498 54.1037 82.5498 54.4344C82.5498 55.021 82.3898 55.5437 82.0698 56.0024C81.7498 56.4504 81.3818 56.8077 80.9658 57.0744C81.5951 57.4157 82.0591 57.8104 82.3578 58.2584C82.6671 58.7064 82.8218 59.2344 82.8218 59.8424ZM77.1738 59.9384C77.1738 60.0984 77.2058 60.269 77.2698 60.4504C77.3338 60.6317 77.4404 60.797 77.5898 60.9464C77.7391 61.0957 77.9311 61.2237 78.1658 61.3304C78.4004 61.4264 78.6938 61.4744 79.0458 61.4744C79.3658 61.4744 79.6431 61.4317 79.8778 61.3464C80.1124 61.261 80.3044 61.149 80.4538 61.0104C80.6031 60.861 80.7151 60.6957 80.7898 60.5144C80.8644 60.3224 80.9018 60.1304 80.9018 59.9384C80.9018 59.6397 80.8431 59.3784 80.7258 59.1544C80.6084 58.9304 80.4378 58.7384 80.2138 58.5784C80.0004 58.4077 79.7444 58.2637 79.4458 58.1464C79.1471 58.0184 78.8164 57.9064 78.4538 57.8104C78.0698 58.0557 77.7604 58.3544 77.5258 58.7064C77.2911 59.0477 77.1738 59.4584 77.1738 59.9384ZM80.6618 54.4664C80.6618 54.3277 80.6298 54.1784 80.5658 54.0184C80.5124 53.8477 80.4164 53.693 80.2778 53.5544C80.1498 53.4157 79.9844 53.2984 79.7818 53.2024C79.5791 53.1064 79.3338 53.0584 79.0458 53.0584C78.7578 53.0584 78.5071 53.1064 78.2938 53.2024C78.0911 53.2877 77.9258 53.405 77.7978 53.5544C77.6698 53.693 77.5738 53.8477 77.5098 54.0184C77.4458 54.1784 77.4138 54.3384 77.4138 54.4984C77.4138 54.9037 77.5631 55.2877 77.8618 55.6504C78.1711 56.013 78.6831 56.301 79.3978 56.5144C79.7924 56.269 80.1018 55.9917 80.3258 55.6824C80.5498 55.3624 80.6618 54.957 80.6618 54.4664ZM88.9875 54.1144C88.7315 54.4237 88.4649 54.7544 88.1875 55.1064C87.9209 55.4584 87.6595 55.8264 87.4035 56.2104C87.1475 56.5944 86.9022 56.989 86.6675 57.3944C86.4329 57.789 86.2195 58.1837 86.0275 58.5784L88.9875 58.5784L88.9875 54.1144ZM90.8755 51.7304L90.8755 58.5784L92.1235 58.5784L92.1235 60.1624L90.8755 60.1624L90.8755 62.8184L88.9875 62.8184L88.9875 60.1624L84.1235 60.1624L84.1235 58.7864C84.3369 58.317 84.6195 57.7784 84.9715 57.1704C85.3342 56.5624 85.7342 55.9384 86.1715 55.2984C86.6089 54.6584 87.0729 54.029 87.5635 53.4104C88.0542 52.7917 88.5449 52.2317 89.0355 51.7304L90.8755 51.7304ZM96.0973 61.7624C96.0973 62.1357 95.9693 62.4397 95.7133 62.6744C95.4679 62.909 95.1693 63.0264 94.8173 63.0264C94.4546 63.0264 94.1506 62.909 93.9053 62.6744C93.6599 62.4397 93.5373 62.1357 93.5373 61.7624C93.5373 61.389 93.6599 61.085 93.9053 60.8504C94.1506 60.605 94.4546 60.4824 94.8173 60.4824C95.1693 60.4824 95.4679 60.605 95.7133 60.8504C95.9693 61.085 96.0973 61.389 96.0973 61.7624ZM99.4033 62.8184C99.4673 62.0077 99.6113 61.1544 99.8353 60.2584C100.059 59.3624 100.331 58.493 100.651 57.6504C100.982 56.797 101.339 56.0024 101.723 55.2664C102.118 54.5197 102.507 53.8957 102.891 53.3944L97.7873 53.3944L97.7873 51.7304L105.195 51.7304L105.195 53.2024C104.843 53.597 104.459 54.1357 104.043 54.8184C103.627 55.501 103.233 56.2744 102.859 57.1384C102.486 57.9917 102.161 58.909 101.883 59.8904C101.617 60.8717 101.451 61.8477 101.387 62.8184L99.4033 62.8184ZM107.473 54.0344C108.092 53.789 108.71 53.4744 109.329 53.0904C109.958 52.7064 110.513 52.253 110.993 51.7304L112.353 51.7304L112.353 62.8184L110.417 62.8184L110.417 54.3224C110.129 54.5464 109.766 54.765 109.329 54.9784C108.892 55.1917 108.47 55.3677 108.065 55.5064L107.473 54.0344Z" fill="#212326"/>
<path d="M119.693 57.4264L122.541 57.4264L122.541 54.2904L124.269 54.2904L124.269 57.4264L127.117 57.4264L127.117 59.0584L124.269 59.0584L124.269 62.1944L122.541 62.1944L122.541 59.0584L119.693 59.0584L119.693 57.4264ZM135.651 54.6104C135.651 54.9944 135.571 55.373 135.411 55.7464C135.251 56.109 135.043 56.4664 134.787 56.8184C134.542 57.1597 134.259 57.4957 133.939 57.8264C133.619 58.1464 133.299 58.461 132.979 58.7704C132.808 58.9304 132.616 59.1224 132.403 59.3464C132.19 59.5704 131.987 59.7944 131.795 60.0184C131.603 60.2424 131.438 60.461 131.299 60.6744C131.16 60.877 131.086 61.0477 131.075 61.1864L136.003 61.1864L136.003 62.8184L128.947 62.8184C128.936 62.733 128.931 62.6317 128.931 62.5144C128.931 62.3864 128.931 62.2904 128.931 62.2264C128.931 61.7144 129.011 61.245 129.171 60.8184C129.342 60.381 129.56 59.9757 129.827 59.6024C130.094 59.229 130.392 58.877 130.723 58.5464C131.054 58.2157 131.384 57.8904 131.715 57.5704C131.971 57.325 132.216 57.085 132.451 56.8504C132.686 56.6157 132.888 56.3864 133.059 56.1624C133.24 55.9277 133.384 55.693 133.491 55.4584C133.598 55.213 133.651 54.9624 133.651 54.7064C133.651 54.1517 133.491 53.757 133.171 53.5224C132.851 53.2877 132.462 53.1704 132.003 53.1704C131.704 53.1704 131.427 53.213 131.171 53.2984C130.915 53.3837 130.686 53.485 130.483 53.6024C130.291 53.7197 130.12 53.8424 129.971 53.9704C129.822 54.0877 129.71 54.1837 129.635 54.2584L128.675 52.8984C129.123 52.4717 129.646 52.1304 130.243 51.8744C130.851 51.6077 131.502 51.4744 132.195 51.4744C133.379 51.4744 134.248 51.757 134.803 52.3224C135.368 52.877 135.651 53.6397 135.651 54.6104ZM140.457 61.7624C140.457 62.1357 140.329 62.4397 140.073 62.6744C139.827 62.909 139.529 63.0264 139.177 63.0264C138.814 63.0264 138.51 62.909 138.265 62.6744C138.019 62.4397 137.897 62.1357 137.897 61.7624C137.897 61.389 138.019 61.085 138.265 60.8504C138.51 60.605 138.814 60.4824 139.177 60.4824C139.529 60.4824 139.827 60.605 140.073 60.8504C140.329 61.085 140.457 61.389 140.457 61.7624ZM148.995 54.6104C148.995 54.9944 148.915 55.373 148.755 55.7464C148.595 56.109 148.387 56.4664 148.131 56.8184C147.885 57.1597 147.603 57.4957 147.283 57.8264C146.963 58.1464 146.643 58.461 146.323 58.7704C146.152 58.9304 145.96 59.1224 145.747 59.3464C145.533 59.5704 145.331 59.7944 145.139 60.0184C144.947 60.2424 144.781 60.461 144.643 60.6744C144.504 60.877 144.429 61.0477 144.419 61.1864L149.347 61.1864L149.347 62.8184L142.291 62.8184C142.28 62.733 142.275 62.6317 142.275 62.5144C142.275 62.3864 142.275 62.2904 142.275 62.2264C142.275 61.7144 142.355 61.245 142.515 60.8184C142.685 60.381 142.904 59.9757 143.171 59.6024C143.437 59.229 143.736 58.877 144.067 58.5464C144.397 58.2157 144.728 57.8904 145.059 57.5704C145.315 57.325 145.56 57.085 145.795 56.8504C146.029 56.6157 146.232 56.3864 146.403 56.1624C146.584 55.9277 146.728 55.693 146.835 55.4584C146.941 55.213 146.995 54.9624 146.995 54.7064C146.995 54.1517 146.835 53.757 146.515 53.5224C146.195 53.2877 145.805 53.1704 145.347 53.1704C145.048 53.1704 144.771 53.213 144.515 53.2984C144.259 53.3837 144.029 53.485 143.827 53.6024C143.635 53.7197 143.464 53.8424 143.315 53.9704C143.165 54.0877 143.053 54.1837 142.979 54.2584L142.019 52.8984C142.467 52.4717 142.989 52.1304 143.587 51.8744C144.195 51.6077 144.845 51.4744 145.539 51.4744C146.723 51.4744 147.592 51.757 148.147 52.3224C148.712 52.877 148.995 53.6397 148.995 54.6104ZM154.904 57.4264C154.595 57.4264 154.296 57.453 154.008 57.5064C153.72 57.5597 153.459 57.6397 153.224 57.7464C153.214 57.8317 153.203 57.9277 153.192 58.0344C153.192 58.1304 153.192 58.2264 153.192 58.3224C153.192 58.749 153.219 59.1544 153.272 59.5384C153.336 59.9117 153.438 60.2424 153.576 60.5304C153.726 60.8077 153.923 61.0317 154.168 61.2024C154.424 61.3624 154.739 61.4424 155.112 61.4424C155.422 61.4424 155.683 61.3784 155.896 61.2504C156.12 61.1224 156.302 60.957 156.44 60.7544C156.579 60.5517 156.68 60.333 156.744 60.0984C156.808 59.853 156.84 59.6184 156.84 59.3944C156.84 58.7544 156.686 58.269 156.376 57.9384C156.067 57.597 155.576 57.4264 154.904 57.4264ZM155.144 55.8904C155.806 55.8904 156.366 55.9864 156.824 56.1784C157.294 56.3597 157.672 56.6104 157.96 56.9304C158.248 57.2504 158.456 57.6237 158.584 58.0504C158.723 58.4664 158.792 58.9037 158.792 59.3624C158.792 59.7784 158.718 60.205 158.568 60.6424C158.43 61.0797 158.206 61.4797 157.896 61.8424C157.598 62.1944 157.219 62.4877 156.76 62.7224C156.302 62.9464 155.758 63.0584 155.128 63.0584C153.859 63.0584 152.888 62.6424 152.216 61.8104C151.555 60.9677 151.224 59.8104 151.224 58.3384C151.224 57.2717 151.379 56.3277 151.688 55.5064C152.008 54.6744 152.456 53.9757 153.032 53.4104C153.619 52.845 154.323 52.4184 155.144 52.1304C155.976 51.8317 156.91 51.677 157.944 51.6664L158.056 53.2664C157.48 53.277 156.942 53.341 156.44 53.4584C155.939 53.565 155.491 53.7357 155.096 53.9704C154.702 54.205 154.36 54.509 154.072 54.8824C153.795 55.2557 153.582 55.7144 153.432 56.2584C153.955 56.013 154.526 55.8904 155.144 55.8904ZM165.614 54.5144C165.614 55.485 165.363 56.2317 164.862 56.7544C164.371 57.277 163.726 57.5384 162.926 57.5384C162.531 57.5384 162.169 57.4744 161.838 57.3464C161.507 57.2077 161.225 57.0104 160.99 56.7544C160.755 56.4984 160.569 56.1837 160.43 55.8104C160.302 55.4264 160.238 54.9944 160.238 54.5144C160.238 53.533 160.483 52.7864 160.974 52.2744C161.475 51.7517 162.126 51.4904 162.926 51.4904C163.726 51.4904 164.371 51.7517 164.862 52.2744C165.363 52.7864 165.614 53.533 165.614 54.5144ZM164.094 54.5144C164.094 53.949 163.987 53.5277 163.774 53.2504C163.571 52.9624 163.289 52.8184 162.926 52.8184C162.563 52.8184 162.281 52.9624 162.078 53.2504C161.875 53.5277 161.774 53.949 161.774 54.5144C161.774 55.0797 161.875 55.5064 162.078 55.7944C162.281 56.0717 162.563 56.2104 162.926 56.2104C163.289 56.2104 163.571 56.0717 163.774 55.7944C163.987 55.5064 164.094 55.0797 164.094 54.5144ZM168.862 51.7304L170.702 51.7304L164.446 62.8184L162.606 62.8184L168.862 51.7304ZM173.086 60.0504C173.086 61.021 172.835 61.7677 172.334 62.2904C171.843 62.813 171.198 63.0744 170.398 63.0744C170.003 63.0744 169.641 63.005 169.31 62.8664C168.979 62.7384 168.697 62.5464 168.462 62.2904C168.227 62.0344 168.041 61.7197 167.902 61.3464C167.774 60.9624 167.71 60.5304 167.71 60.0504C167.71 59.069 167.955 58.3224 168.446 57.8104C168.947 57.2877 169.598 57.0264 170.398 57.0264C171.198 57.0264 171.843 57.2877 172.334 57.8104C172.835 58.3224 173.086 59.069 173.086 60.0504ZM171.566 60.0504C171.566 59.485 171.459 59.0637 171.246 58.7864C171.043 58.4984 170.761 58.3544 170.398 58.3544C170.035 58.3544 169.753 58.4984 169.55 58.7864C169.347 59.0637 169.246 59.485 169.246 60.0504C169.246 60.6157 169.347 61.0424 169.55 61.3304C169.753 61.6077 170.035 61.7464 170.398 61.7464C170.761 61.7464 171.043 61.6077 171.246 61.3304C171.459 61.0424 171.566 60.6157 171.566 60.0504Z" fill="#FF3444"/>
<defs>
<filter id="filter0_d_96_4331" x="0.978333" y="0.818359" width="279" height="102" filterUnits="userSpaceOnUse" color-interpolation-filters="sRGB">
<feFlood flood-opacity="0" result="BackgroundImageFix"/>
<feColorMatrix in="SourceAlpha" type="matrix" values="0 0 0 0 0 0 0 0 0 0 0 0 0 0 0 0 0 0 127 0" result="hardAlpha"/>
<feOffset dx="3" dy="9"/>
<feGaussianBlur stdDeviation="6"/>
<feComposite in2="hardAlpha" operator="out"/>
<feColorMatrix type="matrix" values="0 0 0 0 0.908333 0 0 0 0 0.908333 0 0 0 0 0.908333 0 0 0 0.25 0"/>
<feBlend mode="normal" in2="BackgroundImageFix" result="effect1_dropShadow_96_4331"/>
<feBlend mode="normal" in="SourceGraphic" in2="effect1_dropShadow_96_4331" result="shape"/>
</filter>
</defs>
</svg>
