<svg width="89" height="90" viewBox="0 0 89 90" fill="none" xmlns="http://www.w3.org/2000/svg">
<g clip-path="url(#clip0_96_4326)">
<path d="M80.1212 36.5317C81.8189 43.5951 81.384 51.0032 78.8714 57.8194C76.3588 64.6356 71.8814 70.5536 66.0054 74.8252C60.1294 79.0967 53.1187 81.5298 45.8598 81.8169C38.601 82.1041 31.42 80.2322 25.225 76.4381C19.0299 72.644 14.0991 67.0981 11.056 60.5017C8.01291 53.9052 6.99423 46.5546 8.12877 39.3792C9.26332 32.2038 12.5001 25.5259 17.4299 20.1901C22.3597 14.8543 28.761 11.1002 35.8244 9.4025C45.296 7.12592 55.2842 8.70521 63.5914 13.7929C71.8987 18.8806 77.8446 27.06 80.1212 36.5317Z" fill="#D91222"/>
<path fill-rule="evenodd" clip-rule="evenodd" d="M28.4542 29.0963L37.1883 28.8127L36.9553 21.5356L41.3267 21.4082L41.5458 28.3859L45.1087 28.2731L44.8715 21.2241L49.3142 21.0786L49.5301 28.1724C49.5301 28.1724 56.6912 27.6257 59.9232 32.6057C63.1552 37.5858 58.9743 41.9818 57.4477 42.5629C57.4477 42.5629 64.3045 44.0062 64.2063 50.9615C64.1081 57.9168 58.252 60.9291 51.2892 61.4508L51.5786 68.7875L47.136 68.933L46.9136 61.6911L43.3848 61.7901L43.6217 69.0799L39.212 69.219L38.988 61.9601L30.0175 62.235L30.702 56.9618C30.702 56.9618 33.2348 56.8924 34.1839 56.8351C35.133 56.7779 35.4231 55.6853 35.3936 54.6894C35.364 53.6935 34.4987 37.303 34.473 35.9396C34.4473 34.5763 34.0064 33.6387 32.4 33.7031C30.7937 33.7675 28.5847 33.7773 28.5847 33.7773L28.4542 29.0963ZM42.722 46.828L43.1789 56.3992C43.1789 56.3992 55.4841 57.0436 55.1965 50.9797C54.9088 44.9159 42.722 46.828 42.722 46.828ZM42.4732 42.2979L42.2003 33.4839C42.2003 33.4839 52.2129 32.3071 52.4169 37.1961C52.6208 42.0851 46.4954 42.0426 42.4732 42.2979Z" fill="white"/>
</g>
<defs>
<clipPath id="clip0_96_4326">
<rect width="73.4603" height="73.4603" fill="white" transform="translate(0.111389 17.9863) rotate(-13.515)"/>
</clipPath>
</defs>
</svg>
