<svg width="17" height="17" viewBox="0 0 17 17" fill="none" xmlns="http://www.w3.org/2000/svg">
<g clip-path="url(#clip0_271_5815)">
<path d="M8.49023 16.0547C12.9085 16.0547 16.4902 12.473 16.4902 8.05469C16.4902 3.63641 12.9085 0.0546875 8.49023 0.0546875C4.07196 0.0546875 0.490234 3.63641 0.490234 8.05469C0.490234 12.473 4.07196 16.0547 8.49023 16.0547Z" fill="#1B61C9"/>
<path d="M5.3969 7.48248C5.29972 7.3941 5.18608 7.32572 5.06248 7.28126C4.93888 7.2368 4.80773 7.21711 4.67652 7.22333C4.54531 7.22956 4.41661 7.26156 4.29777 7.31752C4.17893 7.37348 4.07228 7.4523 3.9839 7.54948C3.89552 7.64665 3.82714 7.76029 3.78268 7.88389C3.73822 8.00749 3.71853 8.13864 3.72476 8.26985C3.73732 8.53484 3.85464 8.78398 4.0509 8.96248L5.3969 7.48248ZM7.1269 10.4075L6.4539 11.1475L7.1269 11.7595L7.7999 11.1475L7.1269 10.4075ZM12.4569 6.91248C12.5541 6.82403 12.6329 6.71731 12.6888 6.59841C12.7448 6.47951 12.7767 6.35075 12.7829 6.2195C12.7891 6.08824 12.7693 5.95706 12.7248 5.83343C12.6803 5.7098 12.6118 5.59615 12.5234 5.49898C12.435 5.4018 12.3282 5.32299 12.2093 5.26706C12.0904 5.21112 11.9617 5.17916 11.8304 5.17298C11.6992 5.16681 11.568 5.18654 11.4443 5.23107C11.3207 5.27559 11.2071 5.34403 11.1099 5.43248L12.4559 6.91248H12.4569ZM4.0499 8.96248L6.4529 11.1475L7.7989 9.66748L5.3969 7.48248L4.0499 8.96248ZM7.7999 11.1475L12.4559 6.91248L11.1099 5.43248L6.4529 9.66848L7.7989 11.1485L7.7999 11.1475Z" fill="white"/>
</g>
<defs>
<clipPath id="clip0_271_5815">
<rect width="16" height="16" fill="white" transform="translate(0.490234 0.0546875)"/>
</clipPath>
</defs>
</svg>
