<svg width="60" height="60" viewBox="0 0 60 60" fill="none" xmlns="http://www.w3.org/2000/svg">
<rect x="0.690918" y="0.253906" width="58.9576" height="58.9576" rx="7.3697" fill="#F0F5FF"/>
<path opacity="0.2" d="M19.2423 23.5879C19.1588 23.7296 19.1147 23.8911 19.1147 24.0556V35.4144C19.1147 35.5779 19.1582 35.7384 19.2408 35.8795C19.3233 36.0206 19.4419 36.1372 19.5843 36.2173L29.7177 41.9173C29.8555 41.9949 30.0111 42.0357 30.1693 42.0357L30.1705 42.0357L30.2786 29.735L19.2423 23.5879L19.2423 23.5879Z" fill="#3EBA59"/>
<path d="M41.2238 35.4136V24.0548C41.2238 23.8913 41.1803 23.7308 41.0978 23.5897C41.0153 23.4486 40.8967 23.332 40.7543 23.2519L30.6209 17.5519C30.483 17.4743 30.3275 17.4336 30.1693 17.4336C30.0111 17.4336 29.8555 17.4743 29.7177 17.5519L19.5843 23.2519C19.4419 23.332 19.3233 23.4486 19.2408 23.5897C19.1582 23.7308 19.1147 23.8913 19.1147 24.0548V35.4136C19.1147 35.5771 19.1582 35.7376 19.2408 35.8787C19.3233 36.0198 19.4419 36.1364 19.5843 36.2165L29.7177 41.9165C29.8555 41.9941 30.0111 42.0348 30.1693 42.0348C30.3275 42.0348 30.483 41.9941 30.6209 41.9165L40.7543 36.2165C40.8967 36.1364 41.0153 36.0198 41.0978 35.8787C41.1803 35.7376 41.2238 35.5771 41.2238 35.4136Z" stroke="#3EBA59" stroke-width="1.84242" stroke-linecap="round" stroke-linejoin="round"/>
<path d="M35.8138 32.558V26.5701L24.6416 20.4082" stroke="#3EBA59" stroke-width="1.84242" stroke-linecap="round" stroke-linejoin="round"/>
<path d="M41.0967 23.589L30.2784 29.735L19.2422 23.5879" stroke="#3EBA59" stroke-width="1.84242" stroke-linecap="round" stroke-linejoin="round"/>
<path d="M30.2785 29.7363L30.1704 42.037" stroke="#3EBA59" stroke-width="1.84242" stroke-linecap="round" stroke-linejoin="round"/>
</svg>
