<svg width="129" height="34" viewBox="0 0 129 34" fill="none" xmlns="http://www.w3.org/2000/svg">
<path d="M27.7088 33.4948H6.61348C3.14681 33.4948 0.33728 30.7134 0.33728 27.2814V6.39704C0.33728 2.96503 3.14681 0.183594 6.61348 0.183594H27.7088C31.1754 0.183594 33.985 2.96503 33.985 6.39704V27.2814C33.985 30.7134 31.1754 33.4948 27.7088 33.4948Z" fill="#7782FF"/>
<path d="M23.2229 17.1455C23.8229 17.8903 24.1277 18.7577 24.1277 19.7383C24.1277 21.1809 23.642 22.3123 22.6706 23.1137C21.6991 23.9152 20.3087 24.33 18.4991 24.33H10.5944V7.5H18.3087C20.042 7.5 21.3753 7.87715 22.3182 8.622C23.2611 9.36686 23.7372 10.4323 23.7372 11.8089C23.7372 12.8272 23.4611 13.6663 22.9182 14.3452C22.3753 15.024 21.6611 15.4577 20.7753 15.6652C21.8134 15.9103 22.6229 16.4006 23.2229 17.1455ZM14.6991 14.3829H17.3944C18.8229 14.3829 19.5372 13.7794 19.5372 12.5726C19.5372 11.3657 18.8039 10.7623 17.3468 10.7623H14.6991V14.3829ZM19.9182 19.1726C19.9182 18.5692 19.7182 18.0977 19.3182 17.7583C18.9182 17.4189 18.3468 17.2492 17.6134 17.2492H14.7086V21.03H17.642C19.1563 21.0206 19.9182 20.4077 19.9182 19.1726Z" fill="white"/>
<path d="M53.4803 24.33L49.8041 17.9752H48.8708V24.33H44.7565V7.5H51.7755C53.1184 7.5 54.2613 7.72629 55.1851 8.18829C56.1184 8.65029 56.8136 9.282 57.2803 10.0834C57.747 10.8849 57.9755 11.7994 57.9755 12.8366C57.9755 14.0623 57.6327 15.0994 56.9565 15.9574C56.2708 16.8154 55.2898 17.4 53.9851 17.7206L58.0232 24.3395H53.4803V24.33ZM48.8708 15.1937H51.4136C52.2327 15.1937 52.8327 15.0146 53.2136 14.6563C53.5946 14.298 53.7946 13.77 53.7946 13.0723C53.7946 12.4029 53.5946 11.8843 53.2041 11.4977C52.8136 11.1206 52.2136 10.9226 51.4136 10.9226H48.8708V15.1937Z" fill="#263238"/>
<path d="M76.5853 21.2666H70.2139L69.1567 24.3403H64.8329L71.0615 7.63281H75.7948L82.0234 24.3403H77.652L76.5853 21.2666ZM75.5282 18.1645L73.4139 11.9794L71.271 18.1645H75.5282Z" fill="#263238"/>
<path d="M104.719 24.33H100.604L93.728 13.9963V24.33H89.6138V7.5H93.728L100.604 17.928V7.5H104.719V24.33Z" fill="#263238"/>
<path d="M127.785 20.2761C127.071 21.5489 126.043 22.5484 124.709 23.2649C123.366 23.9815 121.795 24.3398 119.985 24.3398H113.566V7.50977H119.985C121.814 7.50977 123.395 7.85862 124.719 8.55634C126.052 9.25406 127.071 10.2346 127.785 11.5075C128.5 12.7803 128.852 14.2324 128.852 15.8918C128.852 17.5324 128.49 18.9938 127.785 20.2761ZM123.357 19.4275C124.242 18.5884 124.69 17.4004 124.69 15.8824C124.69 14.3549 124.242 13.1764 123.357 12.3372C122.471 11.4981 121.223 11.0738 119.614 11.0738H117.671V20.6909H119.614C121.223 20.6909 122.471 20.2761 123.357 19.4275Z" fill="#263238"/>
</svg>
