<svg width="60" height="59" viewBox="0 0 60 59" fill="none" xmlns="http://www.w3.org/2000/svg">
<rect x="0.163574" y="0.0371094" width="58.9576" height="58.9576" rx="7.3697" fill="#F0F5FF"/>
<path opacity="0.2" d="M38.8539 29.5195V31.362C38.8539 33.8052 37.8834 36.1483 36.1558 37.8759C34.4282 39.6035 32.085 40.5741 29.6418 40.5741C27.1986 40.5741 24.8555 39.6035 23.1279 37.8759C21.4002 36.1483 20.4297 33.8052 20.4297 31.362V29.5195H38.8539Z" fill="#3EBA59"/>
<path d="M33.3185 25.374C33.3185 25.6284 33.1123 25.8346 32.8579 25.8346C32.6035 25.8346 32.3973 25.6284 32.3973 25.374C32.3973 25.1196 32.6035 24.9134 32.8579 24.9134C33.1123 24.9134 33.3185 25.1196 33.3185 25.374Z" fill="#3EBA59" stroke="#3EBA59" stroke-width="1.84242"/>
<path d="M26.8698 25.374C26.8698 25.6284 26.6635 25.8346 26.4092 25.8346C26.1548 25.8346 25.9486 25.6284 25.9486 25.374C25.9486 25.1196 26.1548 24.9134 26.4092 24.9134C26.6635 24.9134 26.8698 25.1196 26.8698 25.374Z" fill="#3EBA59" stroke="#3EBA59" stroke-width="1.84242"/>
<path d="M29.6416 29.5195V39.6529" stroke="#3EBA59" stroke-width="1.84242" stroke-linecap="round" stroke-linejoin="round"/>
<path d="M42.9993 29.5195L16.2842 29.5195" stroke="#3EBA59" stroke-width="1.84242" stroke-linecap="round" stroke-linejoin="round"/>
<path d="M38.8539 31.3618C38.8539 33.805 37.8834 36.1482 36.1558 37.8758C34.4282 39.6034 32.085 40.5739 29.6418 40.5739C27.1986 40.5739 24.8555 39.6034 23.1279 37.8758C21.4002 36.1482 20.4297 33.805 20.4297 31.3618V27.677C20.4297 25.2338 21.4002 22.8906 23.1279 21.163C24.8555 19.4354 27.1986 18.4648 29.6418 18.4648C32.085 18.4648 34.4282 19.4354 36.1558 21.163C37.8834 22.8906 38.8539 25.2338 38.8539 27.677V31.3618Z" stroke="#3EBA59" stroke-width="1.84242" stroke-linecap="round" stroke-linejoin="round"/>
<path d="M41.6084 36.4284L38.2988 34.5176" stroke="#3EBA59" stroke-width="1.84242" stroke-linecap="round" stroke-linejoin="round"/>
<path d="M41.6084 22.6094L38.2988 24.5202" stroke="#3EBA59" stroke-width="1.84242" stroke-linecap="round" stroke-linejoin="round"/>
<path d="M17.6748 22.6094L20.9844 24.5202" stroke="#3EBA59" stroke-width="1.84242" stroke-linecap="round" stroke-linejoin="round"/>
<path d="M17.6748 36.4284L20.9844 34.5176" stroke="#3EBA59" stroke-width="1.84242" stroke-linecap="round" stroke-linejoin="round"/>
</svg>
