<svg width="460" height="195" viewBox="0 0 460 195" fill="none" xmlns="http://www.w3.org/2000/svg">
<path d="M433.937 159.719H2.32959V159.935H433.937V159.719Z" fill="#EBEBEB"/>
<path d="M390.691 173.605H362.101V173.821H390.691V173.605Z" fill="#EBEBEB"/>
<path d="M288.244 175.955H280.743V176.171H288.244V175.955Z" fill="#EBEBEB"/>
<path d="M361.237 165.596H344.672V165.812H361.237V165.596Z" fill="#EBEBEB"/>
<path d="M84.8968 167.047H47.6145V167.263H84.8968V167.047Z" fill="#EBEBEB"/>
<path d="M98.0516 167.047H92.5874V167.263H98.0516V167.047Z" fill="#EBEBEB"/>
<path d="M196.683 170.691H115.817V170.907H196.683V170.691Z" fill="#EBEBEB"/>
<path d="M403.726 53.8885C418.028 53.8885 429.622 41.9078 429.622 27.1288C429.622 12.3498 418.028 0.369141 403.726 0.369141C389.424 0.369141 377.829 12.3498 377.829 27.1288C377.829 41.9078 389.424 53.8885 403.726 53.8885Z" fill="#F5F5F5"/>
<path d="M452.065 42.2294C452.065 40.7421 451.472 39.3158 450.416 38.2641C449.36 37.2125 447.929 36.6216 446.436 36.6216C445.889 36.62 445.345 36.701 444.822 36.8619C444.902 36.2909 444.944 35.7154 444.947 35.1389C444.95 33.3918 444.565 31.6655 443.821 30.0837C443.076 28.502 441.989 27.1038 440.638 25.9894C439.287 24.8749 437.706 24.0717 436.007 23.6372C434.308 23.2027 432.534 23.1477 430.811 23.4762C429.636 21.554 427.865 20.0645 425.766 19.2321C423.667 18.3997 421.353 18.2695 419.173 18.8612C416.994 19.4529 415.066 20.7344 413.681 22.5125C412.296 24.2907 411.529 26.4691 411.495 28.7195H411.32C408.823 28.7927 406.453 29.8323 404.712 31.6177C402.972 33.4031 401.999 35.7938 401.999 38.2824C401.999 40.771 402.972 43.1617 404.712 44.9471C406.453 46.7326 408.823 47.7722 411.32 47.8454H446.618C448.081 47.798 449.468 47.1852 450.484 46.1369C451.501 45.0885 452.068 43.687 452.065 42.2294Z" fill="#E2E2E2"/>
<path d="M258.705 44.555C258.705 43.6347 258.337 42.752 257.682 42.1008C257.028 41.4496 256.14 41.083 255.213 41.0817C254.863 41.0784 254.515 41.1286 254.18 41.2304C254.339 40.1852 254.268 39.1182 253.973 38.1027C253.677 37.0872 253.164 36.1472 252.468 35.3474C251.772 34.5475 250.911 33.9067 249.942 33.469C248.974 33.0312 247.921 32.8068 246.857 32.8112C246.399 32.8123 245.943 32.8552 245.493 32.9395C244.761 31.7605 243.664 30.8485 242.366 30.3396C241.069 29.8307 239.641 29.7521 238.295 30.1157C236.949 30.4792 235.758 31.2654 234.898 32.3568C234.039 33.4483 233.558 34.7865 233.527 36.1717H233.419C231.868 36.2171 230.395 36.861 229.314 37.9669C228.234 39.0728 227.629 40.5535 227.629 42.0949C227.629 43.6364 228.234 45.1171 229.314 46.223C230.395 47.3289 231.868 47.9728 233.419 48.0181H255.291C256.202 47.998 257.07 47.6245 257.708 46.9773C258.346 46.3302 258.704 45.4608 258.705 44.555Z" fill="#EBEBEB"/>
<path d="M54.3298 44.2804C54.3298 42.7319 53.7153 41.2468 52.6212 40.1511C51.5271 39.0554 50.0429 38.4387 48.4945 38.4364C47.9103 38.4331 47.3288 38.5145 46.768 38.6781C46.8579 38.0867 46.9041 37.4895 46.9062 36.8913C46.9014 35.0727 46.4969 33.2774 45.7212 31.6325C44.9455 29.9876 43.8176 28.5335 42.4175 27.373C41.0173 26.2125 39.3791 25.374 37.6188 24.917C35.8586 24.4601 34.0194 24.3957 32.2315 24.7286C31.0133 22.7227 29.1753 21.1679 26.9952 20.2991C24.8151 19.4303 22.4115 19.2948 20.1476 19.9129C17.8836 20.531 15.8824 21.8693 14.4464 23.7254C13.0103 25.5816 12.2175 27.8547 12.1877 30.2013H12.0064C9.41406 30.2776 6.95348 31.3611 5.14682 33.2217C3.34015 35.0823 2.32959 37.5737 2.32959 40.1671C2.32959 42.7606 3.34015 45.252 5.14682 47.1126C6.95348 48.9732 9.41406 50.0567 12.0064 50.133H48.5981C50.1314 50.108 51.593 49.4796 52.666 48.3839C53.739 47.2883 54.3368 45.8139 54.3298 44.2804Z" fill="#EBEBEB"/>
<path d="M327.762 57.0712C327.762 56.5026 327.539 55.9572 327.141 55.5552C326.744 55.1531 326.204 54.9272 325.642 54.9272C325.435 54.9271 325.229 54.9571 325.031 55.0163C325.123 54.3714 325.078 53.7137 324.898 53.088C324.717 52.4623 324.406 51.8832 323.984 51.39C323.563 50.8968 323.042 50.501 322.456 50.2295C321.87 49.958 321.233 49.8171 320.589 49.8164C320.312 49.8158 320.036 49.8421 319.765 49.895C319.319 49.1682 318.652 48.6066 317.865 48.294C317.078 47.9814 316.212 47.9345 315.396 48.1602C314.58 48.3859 313.858 48.8722 313.338 49.5466C312.817 50.221 312.527 51.0474 312.508 51.9026H312.4C311.437 51.9026 310.515 52.2892 309.834 52.9774C309.154 53.6655 308.771 54.5988 308.771 55.572C308.771 56.5452 309.154 57.4785 309.834 58.1666C310.515 58.8547 311.437 59.2413 312.4 59.2413H325.678C325.956 59.2372 326.23 59.1778 326.485 59.0665C326.74 58.9553 326.971 58.7943 327.165 58.5927C327.358 58.3912 327.51 58.1531 327.613 57.892C327.715 57.631 327.766 57.352 327.762 57.0712Z" fill="#EBEBEB"/>
<path d="M72.2505 71.7287L88.3214 143.834L91.2412 142.48L74.3632 71.3242L72.2505 71.7287Z" fill="#EBEBEB"/>
<path d="M354.721 197.4C354.721 197.4 345.889 138.257 365.743 77.1088L362.632 74.7754C362.632 74.7754 339.389 121.033 342.773 199.078L354.721 197.4Z" fill="#E6E6E6"/>
<path d="M370.571 61.4844C377.78 56.9276 388.447 64.1752 389.913 75.5018C388.854 74.9128 387.746 74.4081 386.601 73.993C386.043 71.1412 385.505 68.6214 385.505 68.6214L385.891 73.7365C385.255 73.5152 384.561 73.2989 383.805 73.1027L383.283 70.3515L383.049 72.9217C382.028 72.6918 380.993 72.5238 379.95 72.4187L378.604 64.3714L377.926 72.2578C376.858 72.2292 375.79 72.2746 374.729 72.3936L373.904 66.9314V72.5042C372.991 72.6465 372.088 72.8464 371.202 73.1027L370.216 64.9548C370.216 64.9548 370.243 69.5368 370.19 73.4246C367.639 74.3159 365.281 75.6526 363.232 77.3678L363.154 76.3619C363.154 76.3619 363.983 65.6388 370.571 61.4844Z" fill="#E0E0E0"/>
<path d="M361.351 57.0288C355.639 50.6101 343.444 55.059 338.983 65.9734C340.159 65.6575 341.36 65.4402 342.572 65.3238C343.875 62.6263 345.075 60.2512 345.075 60.2512L343.325 65.251C343.995 65.199 344.717 65.1678 345.491 65.1678L346.711 62.5692L346.244 65.1938C347.287 65.2222 348.328 65.316 349.36 65.4745L352.824 57.8136L351.359 65.8695C352.395 66.1156 353.41 66.4387 354.397 66.8362L356.667 61.6025L355.176 67.1428C356.018 67.5193 356.832 67.9553 357.612 68.4474L360.765 60.5734C360.765 60.5734 359.497 65.1366 358.5 69.0243C360.711 70.5803 362.616 72.5307 364.12 74.7777L364.468 73.7954C364.468 73.7954 366.55 62.8914 361.351 57.0288Z" fill="#E0E0E0"/>
<path d="M355.88 72.2605C361.513 66.7211 365.743 71.5429 365.743 71.5429C363.628 72.0953 361.739 73.4633 360.11 75.2031L359.347 74.2016L359.47 75.9104C359.081 76.3647 358.702 76.8396 358.338 77.33L357.048 74.3719L357.601 78.378C357.088 79.1421 356.576 79.9268 356.151 80.7115L355.583 77.7792L355.629 81.6666C355.158 82.5442 354.738 83.4063 354.364 84.2168L353.749 78.8323L353.668 85.7966C352.766 87.9442 352.295 89.4516 352.295 89.4516C352.295 89.4516 350.247 77.805 355.88 72.2605Z" fill="#E0E0E0"/>
<path d="M370.697 85.4508L369.548 86.1244C369.381 85.2245 369.183 84.2834 368.966 83.3269L369.745 81.8715L368.763 82.4887C368.687 82.1698 368.601 81.8561 368.52 81.5373L369.533 78.6883L368.014 79.8248C367.204 77.2535 366.171 74.996 364.881 73.916C364.881 73.916 377.647 78.0609 370.449 92.0435C370.449 92.0435 370.216 89.8322 369.705 86.9267L370.697 85.4508Z" fill="#E0E0E0"/>
<path d="M358.003 73.9589L355.968 69.9329L356.812 74.1285C356.609 74.1602 356.4 74.2026 356.192 74.245L353.531 70.7964L354.188 74.7641C353.279 75.0508 352.387 75.394 351.517 75.7918C350.569 76.2343 349.644 76.7277 348.745 77.2698L347.448 73.747L348.053 77.6883C347.173 78.2181 346.313 78.8167 345.51 79.4206L344.869 76.3163L344.93 79.8497C343.912 80.6125 342.966 81.3859 342.091 82.1434L342.173 76.5176L341.384 82.7632C340.489 83.5579 339.68 84.3207 338.993 84.9988L338.897 81.0946L337.946 86.0529C336.959 87.0753 336.394 87.7269 336.394 87.7269C336.903 74.0649 341.99 68.6562 350.403 67.1729C358.817 65.6897 364.88 74.8065 364.88 74.8065C364.88 74.8065 362.266 73.514 358.003 73.9589Z" fill="#E0E0E0"/>
<path d="M382.824 90.3428L382.042 94.2762C381.665 93.3043 381.153 92.0576 380.49 90.6685L381.194 84.9439L379.911 89.4574C378.908 87.405 377.745 85.4316 376.434 83.5548L377.655 79.5857L375.679 82.532C375.28 82.0231 374.871 81.5143 374.447 81.0461L375.14 78.5477L374.069 80.6391C373.78 80.3236 373.48 80.0234 373.174 79.7333L374.018 76.4004L372.678 79.2855C371.844 78.5354 370.926 77.8815 369.941 77.3366L371.301 73.2658L369.17 76.9601C367.829 76.3418 366.361 76.0403 364.881 76.0798C364.881 76.0798 367.468 72.009 372.222 70.6097C376.977 69.2103 387.227 77.6776 382.777 96.3574C382.777 96.3574 382.643 95.935 382.374 95.2074L382.824 90.3428Z" fill="#E0E0E0"/>
<path d="M374.985 53.5252L375.772 55.8712C375.482 55.8877 375.193 55.9298 374.91 55.9971L373.963 52.9413L374.594 56.0726C373.993 56.253 373.42 56.5155 372.89 56.8529L371.586 52.7298L372.338 57.2254C372.128 57.3815 371.917 57.5526 371.702 57.7288L370.228 53.8575L371.336 58.0863C370.246 59.1813 369.316 60.4253 368.573 61.7814L368.187 56.0726L367.536 63.8203C366.455 66.243 365.583 68.7542 364.929 71.3263C364.929 71.3263 364.127 50.6859 369.075 48.3702C374.023 46.0544 376.966 55.9669 376.966 55.9669C376.746 55.9018 376.518 55.8645 376.289 55.8561L374.985 53.5252Z" fill="#E0E0E0"/>
<path d="M370.992 72.0744L370.233 78.7816L367.643 72.3161L364.19 77.3746L362.826 72.6614L358.838 76.0107C358.838 76.0107 359.33 67.4562 361.877 63.5459C364.423 59.6355 372.071 62.3805 370.992 72.0744Z" fill="#E0E0E0"/>
<path d="M260.43 91.9017V64.4199C260.43 64.4199 254.733 70.3495 250.968 69.5379C247.203 68.7263 242.303 71.5313 242.303 71.5313C242.303 71.5313 247.239 70.8262 249.072 72.7892C250.906 74.7522 259.089 74.9602 259.089 74.9602V92.906L260.43 91.9017Z" fill="#EBEBEB"/>
<path d="M285.54 83.4102H284.263V85.1524H280.053V83.4102H275.916V85.1524H271.707V83.4102H267.574V85.1524H263.36V83.4102H259.227V85.1524H255.018V83.4102H250.88V85.1524H246.671V83.4102H242.533V85.1524H238.324V83.4102H236.909L232.807 116.212L289.78 115.977L285.54 83.4102Z" fill="#E0E0E0"/>
<path d="M294.286 107.58H292.527V109.962H286.725V107.58H281.025V109.962H275.218V107.58H269.518V109.962H263.715V107.58H258.016V109.962H252.208V107.58H246.508V109.962H240.701V107.58H235.001V109.962H229.198V107.58H227.246L221.587 152.467L300.139 152.142L294.286 107.58Z" fill="#EBEBEB"/>
<path d="M428.249 143.111C425.535 140.781 422.981 138.398 420.141 136.128C419.994 136.015 419.86 135.892 419.74 135.761C418.805 135.3 417.829 134.889 416.82 134.531C416.636 134.487 416.041 134.304 415.434 134.129C414.289 133.815 413.144 133.474 411.998 133.125C404.887 130.943 398.496 128.412 393.125 124.108C390.182 121.751 387.834 119.002 384.788 116.715C384.708 116.793 384.112 116.549 383.826 116.374L381.536 116.147C380.31 116.147 379.073 116.147 377.848 116.208C376.096 116.269 374.344 116.374 372.592 116.496C365.72 124.108 357.131 134.504 353.329 135.875C347.431 138.005 293.079 148.968 289.071 148.296C285.063 147.624 264.083 148.942 258.815 148.794C253.547 148.645 244.007 146.865 230.184 142.02C216.362 137.175 208.826 137.149 192.186 133.108C175.546 129.066 164.392 127.53 154.658 133.745C144.923 139.96 118.183 126.84 109.845 124.972C101.508 123.104 85.5669 112.341 74.6873 117.361C63.8078 122.38 54.7606 124.772 41.167 133.745C27.5733 142.718 0.603516 160.063 0.603516 160.063H459.834L454.554 153.036C449.523 152.803 444.604 151.804 440.086 150.1C435.568 148.395 431.544 146.019 428.249 143.111Z" fill="#F5F5F5"/>
<path d="M44.627 83.9481C44.627 83.9481 51.5444 71.6569 70.2872 61.0514C70.2872 61.0514 85.5447 59.7696 102.77 67.1853C102.77 67.1853 106.261 72.9094 102.29 75.1687C98.3186 77.4279 95.0288 72.886 95.0288 72.886C95.0288 72.886 94.2938 79.8042 89.1012 80.0032C83.9087 80.2022 82.4031 75.1687 82.4031 75.1687C82.4031 75.1687 81.8934 81.5191 75.7109 83.1228C70.3643 84.5334 67.0449 80.0032 67.0449 80.0032C67.0449 80.0032 65.9779 85.224 61.1707 86.7282C57.3059 87.934 54.6504 84.6505 54.6504 84.6505C54.6504 84.6505 53.542 90.3161 49.4401 90.3161C45.9132 90.3161 44.627 83.9481 44.627 83.9481Z" fill="#E0E0E0"/>
<path d="M218.134 198.701C310.569 198.701 385.502 194.326 385.502 188.93C385.502 183.533 310.569 179.158 218.134 179.158C125.698 179.158 50.7649 183.533 50.7649 188.93C50.7649 194.326 125.698 198.701 218.134 198.701Z" fill="#F5F5F5"/>
<path d="M337.091 166.03C337.091 166.03 339.707 162.198 342.089 161.127C344.472 160.056 344.857 155.984 346.15 155.761C347.443 155.539 348.869 159.293 351.131 160.387C353.392 161.482 356.815 166.006 356.815 166.006L337.091 166.03Z" fill="#3EBA59"/>
<path opacity="0.8" d="M337.091 166.03C337.091 166.03 339.707 162.198 342.089 161.127C344.472 160.056 344.857 155.984 346.15 155.761C347.443 155.539 348.869 159.293 351.131 160.387C353.392 161.482 356.815 166.006 356.815 166.006L337.091 166.03Z" fill="white"/>
<path d="M356.111 193.619H337.079L334.672 166.008H358.518L356.111 193.619Z" fill="#3EBA59"/>
<path d="M359.666 164.574H333.517V167.48H359.666V164.574Z" fill="#3EBA59"/>
<path opacity="0.2" d="M359.666 164.574H333.517V167.48H359.666V164.574Z" fill="white"/>
<path d="M345.469 166.62C347.202 169.339 354.619 180.558 359.215 181.376L359.78 180.016C359.78 180.016 355.666 180.51 346.546 165.934C346.46 165.793 346.322 165.69 346.163 165.646C346.003 165.602 345.832 165.621 345.686 165.699C345.609 165.743 345.541 165.802 345.488 165.874C345.435 165.945 345.397 166.026 345.376 166.112C345.356 166.199 345.354 166.288 345.37 166.376C345.386 166.463 345.42 166.546 345.469 166.62Z" fill="#263238"/>
<path d="M318.389 157.911C318.585 157.849 318.79 157.827 318.995 157.847C319.199 157.866 319.397 157.926 319.577 158.023C319.758 158.12 319.917 158.252 320.046 158.411C320.174 158.571 320.27 158.755 320.326 158.952L323.575 170.315L327.785 168.625C327.785 168.625 330.33 178.099 325.524 179.597C320.849 181.059 317.24 172.312 317.24 172.312L321.535 171.109L317.433 159.884C317.364 159.692 317.334 159.488 317.345 159.284C317.355 159.08 317.407 158.88 317.496 158.697C317.585 158.513 317.71 158.349 317.863 158.214C318.017 158.079 318.196 157.976 318.389 157.911Z" fill="#3EBA59"/>
<path opacity="0.4" d="M325.542 179.596C320.849 181.057 317.24 172.311 317.24 172.311L321.535 171.108C321.535 171.108 322.275 172.371 323.105 172.058C323.935 171.746 323.599 170.296 323.599 170.296L327.809 168.605C327.809 168.605 330.348 178.116 325.542 179.596Z" fill="white"/>
<path d="M361.556 195.95C359.192 194.777 356.773 193.67 355.997 193.616C354.337 193.508 353.381 192.768 352.196 191.354C351.011 189.941 350.529 188.304 348.388 186.031C346.246 183.757 348.623 182.842 344.099 182.259C339.575 181.675 341.326 182.042 338.547 180.039C335.768 178.036 336.333 178.042 333.079 176.61C329.824 175.179 331.725 174.637 327.917 174.319C325.289 174.096 321.132 175.48 318.972 177.019C318.016 177.699 317.529 178.824 316.566 179.426C315.501 180.105 313.847 178.824 314.022 181.116C314.137 181.7 314.164 182.299 314.1 182.891C313.793 184.178 308.493 184.172 307.146 184.575C306.825 184.632 306.537 184.808 306.34 185.068C306.033 185.616 306.496 186.584 305.901 186.783C305.714 186.849 305.504 186.783 305.299 186.813C304.583 186.951 304.77 188.238 304.096 188.533C303.422 188.828 302.646 188.226 301.901 188.533C301.329 188.75 301.137 189.52 300.637 189.826C299.765 190.356 298.863 190.747 298.003 191.312C296.511 192.287 295.217 193.484 293.617 194.32L289.334 195.487L288.053 195.938L361.556 195.95Z" fill="#3EBA59"/>
<path opacity="0.8" d="M361.556 195.95C359.192 194.777 356.773 193.67 355.997 193.616C354.337 193.508 353.381 192.768 352.196 191.354C351.011 189.941 350.529 188.304 348.388 186.031C346.246 183.757 348.623 182.842 344.099 182.259C339.575 181.675 341.326 182.042 338.547 180.039C335.768 178.036 336.333 178.042 333.079 176.61C329.824 175.179 331.725 174.637 327.917 174.319C325.289 174.096 321.132 175.48 318.972 177.019C318.016 177.699 317.529 178.824 316.566 179.426C315.501 180.105 313.847 178.824 314.022 181.116C314.137 181.7 314.164 182.299 314.1 182.891C313.793 184.178 308.493 184.172 307.146 184.575C306.825 184.632 306.537 184.808 306.34 185.068C306.033 185.616 306.496 186.584 305.901 186.783C305.714 186.849 305.504 186.783 305.299 186.813C304.583 186.951 304.77 188.238 304.096 188.533C303.422 188.828 302.646 188.226 301.901 188.533C301.329 188.75 301.137 189.52 300.637 189.826C299.765 190.356 298.863 190.747 298.003 191.312C296.511 192.287 295.217 193.484 293.617 194.32L289.334 195.487L288.053 195.938L361.556 195.95Z" fill="white"/>
<path d="M311.074 185.003C311.077 185.047 311.077 185.092 311.074 185.136C311.056 187.173 310.464 189.164 309.365 190.88C309.275 191.019 309.185 191.157 309.083 191.295C308.451 192.192 307.689 192.989 306.821 193.66C306.628 193.816 306.427 193.963 306.219 194.099C306.172 194.135 306.122 194.167 306.069 194.195L305.87 194.321C305.768 194.391 305.661 194.455 305.551 194.514C305.383 194.61 305.209 194.706 305.034 194.79C302.94 195.845 300.561 196.197 298.251 195.794C295.941 195.391 293.823 194.254 292.209 192.553C291.473 191.792 290.855 190.927 290.374 189.984C289.582 188.441 289.169 186.732 289.171 184.997V184.961C289.171 184.654 289.171 184.36 289.214 184.047C289.331 182.636 289.726 181.262 290.374 180.004C290.534 179.688 290.711 179.381 290.904 179.084C291.534 178.107 292.314 177.234 293.214 176.497C293.5 176.264 293.799 176.047 294.11 175.848C294.219 175.77 294.331 175.698 294.447 175.631C295.308 175.102 296.24 174.697 297.214 174.428L297.467 174.362C298.336 174.146 299.229 174.037 300.126 174.037C300.406 174.037 300.683 174.049 300.956 174.073H301.166C302.383 174.189 303.571 174.51 304.679 175.024L304.818 175.09C306.464 175.869 307.89 177.048 308.965 178.519C310.039 179.99 310.729 181.706 310.971 183.511C311.042 184.006 311.076 184.504 311.074 185.003Z" fill="#3EBA59"/>
<path opacity="0.6" d="M311.074 185.004C311.076 187.039 310.509 189.034 309.438 190.764C308.366 192.495 306.833 193.891 305.01 194.797C304.76 194.595 304.555 194.343 304.409 194.057C306.43 188.162 304.409 185.004 304.409 185.004V184.943L304.553 183.999V183.825C304.866 182.074 305.654 178.796 307.362 176.811C308.527 177.835 309.46 179.095 310.1 180.508C310.74 181.92 311.072 183.453 311.074 185.004Z" fill="white"/>
<path opacity="0.6" d="M291.729 183.109C291.729 183.109 289.81 185.028 290.375 189.991C289.231 187.758 288.889 185.199 289.406 182.744C289.923 180.289 291.267 178.086 293.214 176.504C292.153 178.539 291.641 180.815 291.729 183.109Z" fill="white"/>
<path opacity="0.2" d="M307.393 176.811C304.987 179.602 304.385 185.004 304.385 185.004C297.768 186.622 291.711 183.109 291.711 183.109C291.623 180.812 292.135 178.531 293.196 176.492C295.212 174.853 297.745 173.983 300.342 174.04C302.939 174.096 305.432 175.074 307.375 176.799L307.393 176.811Z" fill="white"/>
<path opacity="0.2" d="M305.005 194.797C302.913 195.843 300.541 196.19 298.237 195.786C295.934 195.382 293.821 194.249 292.21 192.553C294.261 193.756 298.454 195.482 304.403 194.051C304.549 194.339 304.754 194.593 305.005 194.797Z" fill="white"/>
<g opacity="0.2">
<path opacity="0.2" d="M304.823 175.109C304.536 175.511 304.273 175.928 304.035 176.36C303.59 177.189 303.206 178.05 302.886 178.935C302.549 179.819 302.284 180.74 302.044 181.636C301.803 182.532 301.599 183.477 301.442 184.409C301.505 183.46 301.638 182.517 301.839 181.588C302.043 180.654 302.304 179.734 302.621 178.833C302.949 177.938 303.351 177.073 303.824 176.246C304.086 175.829 304.371 175.428 304.678 175.043L304.823 175.109Z" fill="black"/>
<path opacity="0.2" d="M301.166 174.098C301.015 174.369 300.877 174.645 300.745 174.922C300.303 175.855 299.939 176.823 299.656 177.816C299.337 178.802 299.096 179.813 298.868 180.823C298.639 181.834 298.447 182.856 298.266 183.879C298.328 182.838 298.452 181.801 298.639 180.775C298.819 179.747 299.06 178.731 299.361 177.731C299.661 176.725 300.054 175.748 300.534 174.814C300.667 174.567 300.805 174.321 300.949 174.086L301.166 174.098Z" fill="black"/>
<path opacity="0.2" d="M297.467 174.373L297.28 174.86C296.949 175.754 296.678 176.668 296.468 177.597C296.234 178.524 296.053 179.462 295.867 180.407C295.68 181.351 295.548 182.295 295.409 183.246C295.431 182.284 295.509 181.323 295.644 180.37C295.776 179.409 295.956 178.456 296.185 177.513C296.405 176.57 296.701 175.647 297.07 174.752C297.118 174.644 297.166 174.529 297.22 174.421L297.467 174.373Z" fill="black"/>
<path opacity="0.2" d="M294.447 175.637C294.242 176.31 294.05 176.984 293.912 177.67C293.773 178.356 293.611 179.21 293.491 179.986C293.37 180.762 293.286 181.544 293.214 182.332C293.173 181.542 293.189 180.75 293.262 179.962C293.338 179.172 293.457 178.387 293.617 177.61C293.751 177.016 293.916 176.43 294.11 175.853C294.219 175.776 294.331 175.703 294.447 175.637Z" fill="black"/>
<path opacity="0.2" d="M307.481 188.654C307.513 189.787 307.365 190.918 307.042 192.005C306.881 192.546 306.68 193.075 306.441 193.587C306.362 193.761 306.272 193.936 306.182 194.104C306.135 194.141 306.084 194.173 306.032 194.2C306.361 193.475 306.621 192.719 306.808 191.945C307.089 190.874 307.211 189.767 307.169 188.66C307.151 187.553 306.981 186.454 306.663 185.394C306.351 184.322 305.907 183.294 305.34 182.332C306.012 183.245 306.532 184.261 306.88 185.34C307.246 186.408 307.449 187.525 307.481 188.654Z" fill="black"/>
<path opacity="0.2" d="M309.642 188.341L309.612 189.25L309.485 190.152C309.458 190.397 309.416 190.64 309.359 190.88C309.269 191.018 309.178 191.156 309.076 191.295C309.166 190.909 309.226 190.517 309.257 190.122L309.347 189.231V188.341C309.368 188.043 309.368 187.743 309.347 187.445C309.317 187.15 309.317 186.843 309.263 186.561C309.125 185.377 308.828 184.217 308.378 183.114C307.944 181.998 307.348 180.952 306.61 180.01C307.442 180.887 308.112 181.906 308.589 183.017C309.081 184.131 309.409 185.311 309.563 186.518C309.612 186.819 309.606 187.12 309.63 187.427C309.655 187.731 309.659 188.036 309.642 188.341Z" fill="black"/>
<path opacity="0.2" d="M311.074 185.005C311.077 185.049 311.077 185.093 311.074 185.137L311.038 184.933C310.782 183.686 310.378 182.474 309.835 181.323C309.302 180.158 308.601 179.078 307.753 178.117C308.689 179.012 309.462 180.062 310.039 181.221C310.422 181.973 310.739 182.756 310.989 183.561C311.052 184.04 311.08 184.522 311.074 185.005Z" fill="black"/>
<path opacity="0.2" d="M291.192 181.377C290.709 181.926 290.295 182.532 289.959 183.182C289.647 183.76 289.383 184.364 289.171 184.986C289.171 184.679 289.171 184.385 289.213 184.072C289.374 183.724 289.557 183.386 289.761 183.061C290.136 182.42 290.62 181.85 291.192 181.377Z" fill="black"/>
<path opacity="0.2" d="M291.709 178.463C291.252 178.98 290.807 179.492 290.374 180.009C290.534 179.693 290.711 179.386 290.903 179.089C291.16 178.865 291.429 178.656 291.709 178.463Z" fill="black"/>
<path opacity="0.2" d="M291.708 185.432C292.707 185.817 293.718 186.153 294.716 186.454C295.737 186.757 296.773 187.004 297.82 187.194C299.905 187.644 302.064 187.617 304.136 187.116C303.128 187.494 302.062 187.698 300.984 187.718C299.906 187.739 298.828 187.654 297.766 187.465C296.71 187.265 295.668 186.992 294.65 186.647C293.64 186.317 292.657 185.911 291.708 185.432Z" fill="black"/>
<path opacity="0.2" d="M291.708 188.049C292.714 188.448 293.742 188.785 294.788 189.059C295.832 189.334 296.893 189.535 297.965 189.661C299.033 189.807 300.112 189.858 301.189 189.811L301.995 189.775L302.801 189.679C303.342 189.643 303.86 189.487 304.401 189.408C303.364 189.75 302.29 189.964 301.201 190.046C300.11 190.123 299.014 190.095 297.928 189.962C296.845 189.818 295.775 189.589 294.728 189.276C293.685 188.965 292.673 188.554 291.708 188.049Z" fill="black"/>
<path opacity="0.2" d="M291.974 190.311C292.921 190.751 293.9 191.117 294.904 191.405C295.904 191.692 296.926 191.893 297.96 192.007C298.477 192.091 298.994 192.103 299.512 192.139C300.029 192.175 300.552 192.139 301.076 192.109C302.117 192.05 303.152 191.901 304.168 191.664C303.174 192.014 302.142 192.242 301.094 192.344C300.039 192.449 298.976 192.437 297.924 192.308C296.874 192.178 295.841 191.944 294.838 191.61C293.837 191.288 292.876 190.852 291.974 190.311Z" fill="black"/>
<path opacity="0.2" d="M292.426 192.012C293.318 192.424 294.241 192.768 295.187 193.04C296.126 193.321 297.088 193.523 298.062 193.642C299.033 193.786 300.018 193.824 300.998 193.756L301.731 193.702L302.453 193.582C302.947 193.534 303.41 193.365 303.897 193.269C302.974 193.641 302.005 193.884 301.016 193.991C300.017 194.11 299.007 194.11 298.008 193.991C297.02 193.865 296.046 193.641 295.102 193.323C294.162 192.991 293.264 192.551 292.426 192.012Z" fill="black"/>
</g>
<path d="M58.1965 161.737C58.1965 161.737 60.2974 158.58 64.0328 158.35C67.7683 158.12 70.9195 162.882 70.9195 162.882H69.7393C69.7393 162.882 66.7238 159.63 64.5639 159.63C62.4041 159.63 60.3033 162.315 60.3033 162.315L58.1965 161.737Z" fill="#263238"/>
<path d="M26.5007 186.653C27.7931 184.499 42.2687 185.898 45.538 184.611L47.3083 187.65C47.3083 187.65 44.8121 189.031 40.6695 188.542C36.5269 188.052 30.2657 187.922 28.6311 189.362L26.5007 186.653Z" fill="#263238"/>
<path opacity="0.3" d="M26.5007 186.653C27.7931 184.499 42.2687 185.898 45.538 184.611L47.3083 187.65C47.3083 187.65 44.8121 189.031 40.6695 188.542C36.5269 188.052 30.2657 187.922 28.6311 189.362L26.5007 186.653Z" fill="black"/>
<path d="M87.4716 180.084C87.3536 180.597 87.2238 181.099 87.0763 181.588C85.896 185.607 84.0785 188.859 82.7566 189.36H45.2309C44.7149 189.36 44.2057 189.242 43.7424 189.015C43.279 188.788 42.8738 188.458 42.5577 188.05L42.5282 188.009C42.3896 187.826 42.2728 187.628 42.18 187.419C39.5894 182.007 36.9752 171.185 40.6516 166.251C41.0362 165.737 41.4798 165.269 41.9735 164.859L42.0797 164.776C42.8583 164.141 43.72 163.614 44.6408 163.212H44.6703C47.255 162.032 50.4299 161.507 53.5221 161.276C54.425 161.206 55.2925 161.164 56.2012 161.147C58.5027 161.082 60.6507 161.147 62.3621 161.188C68.3931 161.341 73.1377 163.135 76.3715 162.823C77.5591 162.698 78.7595 162.794 79.9122 163.106C80.2442 163.199 80.5712 163.309 80.8918 163.436C82.3635 164.059 83.7324 164.9 84.9518 165.933C88.646 168.865 88.6991 174.879 87.4716 180.084Z" fill="#263238"/>
<path opacity="0.1" d="M87.4716 180.084C87.3536 180.597 87.2238 181.099 87.0763 181.588C85.896 185.607 84.0785 188.859 82.7566 189.36H45.2309C44.7149 189.36 44.2057 189.242 43.7424 189.015C43.279 188.788 42.8738 188.458 42.5577 188.05L42.5282 188.009C42.3896 187.826 42.2728 187.628 42.18 187.419C39.5894 182.007 36.9752 171.185 40.6516 166.251C41.0362 165.737 41.4798 165.269 41.9735 164.859L42.0797 164.776C42.8583 164.141 43.72 163.614 44.6408 163.212H44.6703C47.255 162.032 50.4299 161.507 53.5221 161.276C54.425 161.206 55.2925 161.164 56.2012 161.147C58.5027 161.082 60.6507 161.147 62.3621 161.188C68.3931 161.341 73.1377 163.135 76.3715 162.823C77.5591 162.698 78.7595 162.794 79.9122 163.106C80.2442 163.199 80.5712 163.309 80.8918 163.436C82.3635 164.059 83.7324 164.9 84.9518 165.933C88.646 168.865 88.6991 174.879 87.4716 180.084Z" fill="white"/>
<path opacity="0.2" d="M81.7239 179.712C79.0388 179.712 73.6688 180.992 65.7317 179.246C62.0311 178.366 58.1793 178.338 54.4663 179.163C54.3778 177.983 54.2833 176.667 54.1771 175.239C53.4749 165.649 48.0045 161.625 44.6703 163.218H44.6408C43.7362 163.651 42.878 164.175 42.0797 164.782L41.9735 164.864C41.4798 165.275 41.0362 165.743 40.6516 166.257C36.9752 171.19 39.5894 182.013 42.18 187.425C42.2728 187.634 42.3896 187.832 42.5282 188.015L42.5577 188.056C42.8767 188.418 43.269 188.707 43.7085 188.906C44.148 189.104 44.6248 189.207 45.107 189.207H51.8285C54.5725 189.207 54.8971 186.693 54.5902 181.293C55.0564 181.028 55.6288 180.703 56.2661 180.267C57.9362 179.181 64.4334 179.718 67.2365 180.768C70.0395 181.819 77.3924 182.285 80.9508 181.706C82.9754 181.406 85.0303 181.368 87.0645 181.594C87.212 181.104 87.3418 180.603 87.4598 180.089C86.2442 179.954 83.6949 179.712 81.7239 179.712Z" fill="black"/>
<path opacity="0.2" d="M57.3285 166.17C58.9631 172.124 60.0843 174.225 60.5151 174.81C60.9459 175.394 72.8309 176.804 75.0616 176.798C77.6361 176.776 80.2036 176.523 82.7331 176.043C84.2497 175.659 84.7395 168.023 80.9155 163.444C80.5949 163.317 80.2679 163.207 79.9359 163.113C82.0191 167.787 82.0663 173.511 81.8184 174.326C81.4644 175.459 77.965 175.293 76.3303 175.258C74.6957 175.223 64.5279 174.591 63.4893 174.178C62.4865 173.762 61.6329 173.052 61.0403 172.142C60.2201 171.092 60.1079 167.474 58.6267 164.353C57.998 163.167 57.1786 162.092 56.2014 161.172C55.3221 161.172 54.431 161.231 53.5222 161.302C54.4554 161.81 55.2746 162.505 55.9292 163.342C56.5838 164.179 57.06 165.142 57.3285 166.17Z" fill="black"/>
<path d="M45.538 171.652L42.2687 172.455C42.2687 172.455 39.9495 179.111 41.3363 181.897C42.7231 184.682 31.8944 188.559 26.5007 186.618L28.6134 189.326C28.6134 189.326 41.4543 188.518 43.9033 183.632C46.3523 178.746 42.8529 177.99 42.6228 176.615C42.3926 175.24 45.538 171.652 45.538 171.652Z" fill="#263238"/>
<path opacity="0.1" d="M45.538 171.652L42.2687 172.455C42.2687 172.455 39.9495 179.111 41.3363 181.897C42.7231 184.682 31.8944 188.559 26.5007 186.618L28.6134 189.326C28.6134 189.326 41.4543 188.518 43.9033 183.632C46.3523 178.746 42.8529 177.99 42.6228 176.615C42.3926 175.24 45.538 171.652 45.538 171.652Z" fill="white"/>
<path d="M112.204 46.3691C112.204 46.3691 100.395 39.7474 97.9508 38.0479C95.5063 36.3483 82.4285 23.5078 81.7001 23.1492C81.7001 23.1492 82.1857 21.6814 81.0876 20.8261C79.9896 19.9708 75.7076 17.1621 75.1006 17.1621C74.4936 17.1621 72.8934 23.1492 73.1417 24.617C73.39 26.0848 79.377 26.449 79.377 26.449C79.377 26.449 91.8423 40.9614 93.7957 43.0031C95.7491 45.0447 109.07 53.7136 109.07 53.7136L112.204 46.3691Z" fill="#E4897B"/>
<path d="M117.049 47.587C117.049 47.587 119.637 52.8126 113.352 61.1117L99.4961 50.9254L105.014 40.9102L117.049 47.587Z" fill="#3EBA59"/>
<path opacity="0.6" d="M113.351 61.1117L106.807 56.2999L105.951 55.6709L102.26 52.9891L99.5007 50.953L101.537 47.2724L102.674 45.1535L105.019 40.9102L107.281 42.1683L109.235 43.2719L117.037 47.609C117.293 48.2148 117.452 48.8574 117.506 49.5128C117.765 51.7145 117.39 55.7757 113.351 61.1117Z" fill="white"/>
<path opacity="0.2" d="M113.352 61.1132L106.807 56.3014C109.053 51.6553 114.864 50.0164 117.518 49.4922C117.766 51.716 117.391 55.7772 113.352 61.1132Z" fill="black"/>
<g opacity="0.2">
<path opacity="0.2" d="M109.245 43.2495L107.292 44.3862V42.168L109.245 43.2495Z" fill="white"/>
<path opacity="0.2" d="M104.996 45.8385L102.546 49.2763L101.531 47.2456L102.684 45.1543L104.996 45.8385Z" fill="white"/>
<path opacity="0.2" d="M106.805 51.0078L105.95 55.6705L102.259 52.9612L106.805 51.0078Z" fill="white"/>
<path opacity="0.2" d="M108.5 48.3489L109.862 51.8418L112.693 47.9902L108.5 48.3489Z" fill="white"/>
</g>
<path d="M142.8 45.1151C142.8 45.1151 154.609 38.4935 157.053 36.794C159.498 35.0944 172.576 22.2539 173.309 21.8953C173.309 21.8953 172.818 20.4275 173.916 19.5722C175.015 18.7169 179.297 15.9082 179.904 15.9082C180.511 15.9082 182.111 21.8953 181.862 23.3631C181.614 24.8309 175.627 25.195 175.627 25.195C175.627 25.195 163.162 39.713 161.208 41.7492C159.255 43.7853 145.935 52.4376 145.935 52.4376L142.8 45.1151Z" fill="#E4897B"/>
<path d="M128.691 115.039C128.691 115.039 128.437 119.205 128.057 124.778C127.803 128.244 127.505 132.244 127.146 136.112C126.683 141.31 126.158 146.266 125.634 149.356C125.154 152.186 118.781 187.342 118.781 187.342H114.51C115.856 154.559 117.942 141.846 118.019 139.936C118.019 139.313 118.069 138.447 118.096 137.415C118.179 133.673 118.251 127.764 118.295 123.465C118.328 120.364 118.345 118.107 118.345 118.107L128.691 115.039Z" fill="#E4897B"/>
<path d="M145.163 141.564C145.014 144.428 143.309 187.187 143.309 187.187H138.613C136.213 153.13 137.123 141.305 136.693 138.943C135.959 134.926 135.269 129.645 134.795 125.7C134.414 122.549 134.177 120.281 134.177 120.281L143.75 116.143C143.75 116.143 144.33 121.109 144.766 127.057C144.981 130.037 145.168 133.276 145.224 136.289C145.268 138.176 145.257 139.975 145.163 141.564Z" fill="#E4897B"/>
<path opacity="0.2" d="M118.275 123.453L128.058 124.777C127.804 128.243 127.506 132.243 127.148 136.111L118.076 137.414C118.159 133.661 118.231 127.752 118.275 123.453Z" fill="black"/>
<path opacity="0.2" d="M145.229 136.31L136.698 138.937C135.964 134.92 135.274 129.639 134.8 125.693L144.771 127.051C144.986 130.036 145.162 133.275 145.229 136.31Z" fill="black"/>
<path d="M119.78 186.018H114.135C114.043 186.019 113.953 186.052 113.881 186.11C113.809 186.168 113.759 186.248 113.738 186.338L112.827 190.466C112.79 190.643 112.824 190.827 112.922 190.979C113.02 191.131 113.175 191.238 113.352 191.277C113.403 191.282 113.455 191.282 113.506 191.277C115.327 191.249 116.657 191.133 118.941 191.133C120.354 191.133 124.609 191.282 126.551 191.282C128.493 191.282 128.758 189.362 127.958 189.18C124.382 188.402 121.689 187.326 120.547 186.299C120.337 186.111 120.062 186.01 119.78 186.018Z" fill="#3EBA59"/>
<path d="M143.662 185.875H138.028C137.935 185.874 137.846 185.905 137.773 185.962C137.701 186.019 137.651 186.099 137.63 186.189L136.714 190.322C136.697 190.412 136.697 190.504 136.715 190.593C136.734 190.683 136.77 190.768 136.821 190.843C136.872 190.919 136.938 190.983 137.014 191.033C137.091 191.083 137.176 191.117 137.266 191.133H137.415C139.242 191.106 140.566 190.996 142.856 190.996C144.263 190.996 148.517 191.139 150.465 191.139C152.413 191.139 152.672 189.219 151.867 189.042C148.291 188.264 145.604 187.183 144.462 186.156C144.353 186.059 144.227 185.984 144.09 185.936C143.952 185.887 143.807 185.867 143.662 185.875Z" fill="#3EBA59"/>
<path d="M129.078 133.702C129.122 133.327 129.166 132.935 129.21 132.493C129.762 126.843 130.363 120.061 130.866 113.528C132.769 118.649 133.591 125.85 134.585 133.702H146.173C145.212 113.379 142.696 96.847 141.361 89.7949H116.784C116.75 92.3222 116.469 116.833 115.834 133.702H129.078Z" fill="#263238"/>
<path opacity="0.2" d="M129.078 133.702C129.122 133.327 129.166 132.935 129.21 132.493C129.762 126.843 130.363 120.061 130.866 113.528C132.769 118.649 133.591 125.85 134.585 133.702H146.173C145.212 113.379 142.696 96.847 141.361 89.7949H116.784C116.75 92.3222 116.469 116.833 115.834 133.702H129.078Z" fill="white"/>
<path d="M132.471 39.4643C132.418 39.6867 132.351 39.906 132.273 40.1209C131.833 41.348 131.033 42.4135 129.977 43.1779C129.712 43.3727 129.431 43.5461 129.138 43.6966C128.019 44.2952 126.735 44.5113 125.482 44.3121C124.229 44.1128 123.075 43.5091 122.197 42.593C119.874 40.2478 119.934 37.5385 119.67 32.953C119.6 31.9677 119.76 30.9795 120.139 30.0671C120.455 29.3054 120.919 28.6135 121.503 28.031C122.087 27.4484 122.78 26.9867 123.542 26.672C124.305 26.3574 125.122 26.1961 125.946 26.1973C126.771 26.1985 127.588 26.3622 128.349 26.679C132.83 28.511 133.448 35.3313 132.471 39.4643Z" fill="#E4897B"/>
<path opacity="0.2" d="M129.96 43.1782C129.695 43.373 129.414 43.5464 129.121 43.6969C128.353 44.1066 127.503 44.3391 126.633 44.3773C125.763 44.4155 124.896 44.2584 124.094 43.9176C124.302 43.3665 124.578 42.8436 124.917 42.3616C126.641 42.1453 128.392 42.4287 129.96 43.1782Z" fill="black"/>
<path d="M120.73 49.126C122.992 51.1787 128.527 50.4227 128.527 50.4227C128.527 50.4227 131.981 49.4736 131.253 48.3976C129.222 48.061 128.234 47.1119 127.826 45.8924C127.606 45.1391 127.536 44.3496 127.622 43.5693C127.654 43.1342 127.711 42.7013 127.793 42.2726L120.95 37.207C121.844 40.551 122.942 46.7036 120.73 49.126Z" fill="#E4897B"/>
<path d="M129.961 35.2934L130.948 35.6631L130.457 33.6435C130.457 33.6435 131.903 31.4363 130.457 29.5215C130.457 29.5215 134.452 28.3076 132.195 26.2107C131.357 25.4272 130.314 26.2107 127.555 25.0133C126.059 24.3567 121.38 24.307 121.148 26.2107C121.148 26.2107 117.777 26.2107 117.413 31.9495C117.306 33.6309 117.571 35.3151 118.188 36.8828C118.805 38.4505 119.759 39.8633 120.983 41.0211C120.983 41.0211 125.055 41.9813 127.053 40.3479C129.05 38.7146 129.961 35.2934 129.961 35.2934Z" fill="#263238"/>
<path d="M127.357 35.6184C127.443 36.0499 127.624 36.4566 127.888 36.8089C128.151 37.1612 128.49 37.4501 128.88 37.6546C129.812 38.0519 130.43 36.7386 130.292 35.3591C130.165 34.1341 129.531 32.4125 128.532 32.6442C127.533 32.876 127.031 34.3824 127.357 35.6184Z" fill="#E4897B"/>
<path opacity="0.2" d="M130.889 113.502C130.364 120.035 129.785 126.833 129.233 132.484C128.394 124.323 127.368 118.507 127.368 118.507C127.368 118.507 126.408 117.718 123.765 113.502C121.122 109.286 123.765 101.406 123.765 101.406C123.643 108.723 130.889 113.502 130.889 113.502Z" fill="black"/>
<path d="M147.028 132.746L146.521 134.661H134.182V132.89L147.028 132.746Z" fill="#3EBA59"/>
<path d="M129.674 133.014L129.304 134.785H115.333L114.489 133.014H129.674Z" fill="#3EBA59"/>
<path d="M131.395 47.7983C131.395 47.7983 129.386 44.6255 124.326 44.3992C119.266 44.173 118.88 47.6549 118.88 47.6549L131.395 47.7983Z" fill="#3EBA59"/>
<path opacity="0.5" d="M131.395 47.7983C131.395 47.7983 129.386 44.6255 124.326 44.3992C119.266 44.173 118.88 47.6549 118.88 47.6549L131.395 47.7983Z" fill="white"/>
<path d="M113.225 45.8164C114.751 62.9956 114.566 80.2839 112.673 97.4266L142.321 95.6167C141.99 65.3613 137.935 46.302 137.935 46.302C137.935 46.302 130.292 47.9077 124.073 47.676C120.394 47.5052 116.751 46.8806 113.225 45.8164Z" fill="#3EBA59"/>
<path d="M137.956 46.3234C137.956 46.3234 141.918 55.5826 142.343 64.9522C142.768 74.3219 126.253 87.201 126.253 87.201C126.253 87.201 113.522 78.4383 103.7 79.2329C93.8783 80.0275 90.8213 83.5204 90.8213 83.5204C90.8213 83.5204 98.4583 67.1815 111.757 61.4869C111.757 61.4869 108.998 52.0787 113.225 45.8599C113.225 45.8157 122.418 48.8286 137.956 46.3234Z" fill="#3EBA59"/>
<path opacity="0.6" d="M142.344 64.9529C142.357 65.2176 142.357 65.4828 142.344 65.7475C142.321 66.1569 142.271 66.5643 142.195 66.967C142.015 67.9148 141.732 68.84 141.35 69.726C140.171 72.3195 138.633 74.7343 136.781 76.8995C135.843 78.0472 134.85 79.1508 133.868 80.1772C131.489 82.6858 128.945 85.0325 126.253 87.2016C122.91 84.9886 119.355 83.1125 115.642 81.6008C114.511 81.1484 113.335 80.7235 112.138 80.3648C109.418 79.4845 106.561 79.1105 103.706 79.2612C100.982 79.4426 98.2915 79.9691 95.6997 80.8283C95.2527 80.9828 94.8389 81.1484 94.4581 81.3084L94.116 81.4574C93.2867 81.817 92.4955 82.2588 91.7543 82.7762C91.6715 82.8314 91.5943 82.8921 91.5225 82.9472C91.4508 83.0024 91.2632 83.1459 91.1638 83.2342L91.0314 83.3501C90.9976 83.3767 90.9662 83.4062 90.9376 83.4383L90.8714 83.5046L90.8328 83.5432C90.8328 83.5156 90.899 83.3997 90.9983 83.2011L91.1528 82.8976C91.3073 82.5886 91.5225 82.1747 91.8039 81.6726L91.9253 81.4519L92.1405 81.0711C92.2123 80.9387 92.2895 80.8007 92.3723 80.6628C92.6923 80.111 93.0676 79.4709 93.4759 78.7922C95.7442 75.1218 98.429 71.7259 101.477 68.6721C102.564 67.5915 103.714 66.5763 104.92 65.6317C107.006 63.9716 109.299 62.5898 111.741 61.5207C111.108 59.0975 110.82 56.5971 110.885 54.0935C110.901 53.3048 110.966 52.518 111.078 51.7373C111.332 49.6254 112.066 47.5998 113.225 45.8164C114.581 46.2106 115.964 46.5038 117.363 46.6938C119.192 46.9727 121.034 47.1569 122.881 47.2456C126.598 47.4119 130.321 47.2809 134.017 46.8538C135.275 46.7177 136.583 46.5338 137.94 46.302L138.067 46.611C138.945 48.8139 139.702 51.0631 140.335 53.3485C140.578 54.2259 140.821 55.164 141.052 56.1462C141.284 57.1284 141.461 58.0057 141.637 58.9824C142.002 60.9551 142.238 62.9495 142.344 64.9529Z" fill="white"/>
<g opacity="0.2">
<path opacity="0.2" d="M138.541 72.4727L136.798 76.9312C135.859 78.079 134.866 79.1826 133.884 80.2089L130.336 73.5873L138.541 72.4727Z" fill="white"/>
<path opacity="0.2" d="M108.501 68.2138L101.493 68.6166C102.58 67.5361 103.73 66.5208 104.937 65.5762L108.501 68.2138Z" fill="white"/>
<path opacity="0.2" d="M116.585 50.5625L115.834 57.8463L110.868 54.0885C110.884 53.2999 110.949 52.513 111.061 51.7323L116.585 50.5625Z" fill="white"/>
<path opacity="0.2" d="M118.88 69.7529L116.585 62.7561L123.565 61.4648L118.88 69.7529Z" fill="white"/>
<path opacity="0.2" d="M130.887 63.0879V68.3245L135.897 66.5256L130.887 63.0879Z" fill="white"/>
<path opacity="0.2" d="M117.997 78.2587L115.641 81.5695C114.51 81.117 113.334 80.6921 112.137 80.3334L110.36 76.2832L117.997 78.2587Z" fill="white"/>
<path opacity="0.2" d="M100.097 73.2363L103.701 74.7648L100.097 77.2203V73.2363Z" fill="white"/>
<path opacity="0.2" d="M95.6932 80.7783C92.1065 82.0309 90.8208 83.4987 90.8208 83.4987C91.6216 81.8657 92.5113 80.2778 93.486 78.7422L95.6932 80.7783Z" fill="white"/>
<path opacity="0.2" d="M125.138 74.0039L122.037 77.2209L126.727 78.0431L125.138 74.0039Z" fill="white"/>
<path opacity="0.2" d="M125.137 53.8074L128.785 58.7184L131.395 53.1562L125.137 53.8074Z" fill="white"/>
<path opacity="0.2" d="M141.653 59.003L136.991 55.935L140.351 53.3691C140.826 55.0687 141.3 56.9834 141.653 59.003Z" fill="white"/>
<path opacity="0.2" d="M142.337 65.749C142.236 67.1294 141.9 68.4824 141.343 69.7496L139.39 64.9434L142.337 65.749Z" fill="white"/>
<path opacity="0.2" d="M138.082 46.6332L135.13 49.6792L134.026 46.876C135.284 46.7399 136.592 46.556 137.95 46.3242L138.082 46.6332Z" fill="white"/>
<path opacity="0.2" d="M122.897 47.252L120.728 51.843L117.362 46.7168C119.197 46.9907 121.044 47.1694 122.897 47.252Z" fill="white"/>
</g>
<path opacity="0.2" d="M142.343 64.9518C142.357 65.2165 142.357 65.4817 142.343 65.7464C142.32 66.1557 142.27 66.5631 142.194 66.9659C138.331 60.8409 139.247 55.3008 139.247 55.3008L141.074 56.1671C141.283 57.0776 141.482 58.0267 141.659 59.0034C142.015 60.9693 142.244 62.9563 142.343 64.9518Z" fill="black"/>
<path d="M126.695 21.9388C133.245 19.6819 134.889 28.4059 128.383 34.3047C121.877 40.2034 114.406 40.9263 113.556 37.9355C112.706 34.9448 116.696 25.3986 126.695 21.9388Z" fill="#3EBA59"/>
<path d="M120.133 21.498C123.494 21.498 128.267 24.9192 128.267 24.9192C128.267 24.9192 128.951 28.5611 125.601 31.7616C122.252 34.962 119.228 35.4697 117.363 34.2281C115.498 32.9866 114.979 28.1583 114.979 28.1583C115.149 27.5872 115.455 27.0657 115.87 26.6381C116.285 26.2106 116.797 25.8897 117.363 25.7028C117.363 25.7028 117.915 21.5367 120.133 21.498Z" fill="#3EBA59"/>
<path opacity="0.2" d="M125.601 31.7621C122.252 34.9625 119.239 35.4702 117.363 34.2341C117.036 34.0046 116.758 33.7119 116.546 33.3733C115.332 31.5469 114.979 28.1753 114.979 28.1753C118.18 32.038 121.888 28.0484 122.401 25.3556C122.553 24.716 122.555 24.0499 122.406 23.4095C122.258 22.7691 121.963 22.1717 121.546 21.6641C123.753 22.1386 126.17 23.5512 127.417 24.3513C127.969 24.6879 128.267 24.9031 128.267 24.9031C128.267 24.9031 128.951 28.5616 125.601 31.7621Z" fill="black"/>
<path opacity="0.6" d="M125.602 31.7603C122.253 34.9608 119.24 35.4684 117.364 34.2324C117.037 34.0029 116.759 33.7102 116.547 33.3716C119.902 34.3704 123.897 32.7094 126.043 29.7242C127.182 28.1789 127.674 26.2516 127.417 24.3496C127.969 24.6862 128.267 24.9014 128.267 24.9014C128.267 24.9014 128.951 28.5599 125.602 31.7603Z" fill="white"/>
<path d="M137.957 46.3243C137.957 46.3243 135.369 51.5554 141.654 59.849L155.51 49.6793L149.992 39.6641L137.957 46.3243Z" fill="#3EBA59"/>
<path opacity="0.6" d="M155.509 49.6802L151.895 52.3344L146.548 56.2687L141.653 59.8665C141.333 59.4471 141.041 59.0333 140.765 58.6305C140.204 57.8095 139.696 56.9544 139.242 56.0701C138.123 54.0158 137.504 51.7262 137.438 49.3878C137.4 48.3392 137.588 47.2948 137.989 46.3253L141.068 44.6147L146.371 41.6736L148.7 40.3768L150.013 39.6484L155.509 49.6802Z" fill="white"/>
<g opacity="0.2">
<path opacity="0.2" d="M151.897 52.3156L146.55 56.2499L144.193 51.0078L151.897 52.3156Z" fill="white"/>
<path opacity="0.2" d="M151.4 43.8845L146.467 45.8378L146.34 41.6717L148.668 40.375L151.4 43.8845Z" fill="white"/>
<path opacity="0.2" d="M142.802 47.9903L137.439 49.3864C137.401 48.3378 137.589 47.2934 137.99 46.3239L141.069 44.6133L142.802 47.9903Z" fill="white"/>
<path opacity="0.2" d="M141.653 54.6836L140.748 58.6124C140.188 57.7915 139.679 56.9364 139.225 56.0521L141.653 54.6836Z" fill="white"/>
</g>
<path d="M191.121 141.437L181.91 140.709L184.953 101.865L194.194 102.587L191.121 141.437ZM183.801 139.05L189.475 139.492L192.237 104.216L186.569 103.774L183.801 139.05Z" fill="#263238"/>
<path d="M184.756 191.508L185.949 191.604C186.281 191.599 186.61 191.663 186.916 191.793C187.222 191.923 187.497 192.115 187.724 192.358C187.951 192.6 188.126 192.887 188.235 193.201C188.345 193.514 188.388 193.847 188.362 194.178C188.336 194.51 188.241 194.832 188.083 195.124C187.925 195.416 187.708 195.672 187.445 195.876C187.183 196.079 186.88 196.226 186.558 196.306C186.236 196.386 185.9 196.398 185.573 196.34L184.38 196.245C184.047 196.251 183.717 196.187 183.411 196.057C183.105 195.928 182.829 195.736 182.602 195.494C182.374 195.252 182.199 194.965 182.089 194.651C181.978 194.338 181.935 194.005 181.961 193.673C181.986 193.342 182.081 193.019 182.239 192.727C182.397 192.434 182.614 192.178 182.876 191.974C183.139 191.77 183.441 191.623 183.764 191.543C184.086 191.463 184.422 191.451 184.75 191.508H184.756Z" fill="#263238"/>
<path opacity="0.1" d="M182.16 193.644C182.121 194.121 182.225 194.6 182.459 195.019C182.692 195.437 183.045 195.777 183.472 195.996C183.898 196.214 184.38 196.301 184.857 196.245C185.333 196.189 185.782 195.993 186.146 195.682C186.511 195.371 186.775 194.958 186.905 194.497C187.036 194.035 187.026 193.546 186.878 193.09C186.729 192.634 186.449 192.232 186.072 191.936C185.695 191.639 185.239 191.461 184.761 191.424C184.444 191.395 184.124 191.429 183.82 191.526C183.516 191.622 183.235 191.778 182.992 191.985C182.75 192.192 182.551 192.445 182.408 192.73C182.265 193.015 182.181 193.326 182.16 193.644Z" fill="white"/>
<path d="M178.241 191L179.434 191.09C179.766 191.084 180.096 191.148 180.402 191.277C180.709 191.407 180.984 191.599 181.212 191.841C181.44 192.083 181.615 192.37 181.725 192.683C181.835 192.997 181.879 193.33 181.853 193.662C181.827 193.993 181.732 194.315 181.575 194.608C181.417 194.901 181.2 195.157 180.937 195.361C180.675 195.565 180.372 195.711 180.05 195.792C179.727 195.872 179.392 195.884 179.064 195.827L177.871 195.737C177.539 195.743 177.209 195.679 176.902 195.55C176.596 195.42 176.32 195.228 176.093 194.986C175.865 194.744 175.69 194.457 175.58 194.143C175.47 193.83 175.426 193.497 175.452 193.165C175.478 192.834 175.573 192.512 175.73 192.219C175.888 191.926 176.105 191.67 176.368 191.466C176.63 191.262 176.932 191.116 177.255 191.035C177.578 190.955 177.913 190.943 178.241 191Z" fill="#263238"/>
<path opacity="0.2" d="M175.646 193.136C175.608 193.614 175.713 194.092 175.948 194.51C176.182 194.928 176.535 195.267 176.962 195.485C177.389 195.702 177.871 195.788 178.347 195.731C178.823 195.675 179.271 195.478 179.635 195.167C179.999 194.855 180.263 194.442 180.392 193.981C180.522 193.52 180.512 193.03 180.363 192.575C180.215 192.119 179.934 191.718 179.558 191.422C179.181 191.126 178.725 190.948 178.247 190.911C177.607 190.863 176.975 191.07 176.488 191.487C176 191.904 175.698 192.497 175.646 193.136Z" fill="white"/>
<path d="M177.155 191.716L186.385 192.439C187.269 192.508 188.041 191.848 188.111 190.965L192.506 134.861C192.576 133.977 191.916 133.205 191.032 133.135L181.801 132.412C180.918 132.343 180.145 133.003 180.076 133.887L175.68 189.991C175.611 190.874 176.271 191.647 177.155 191.716Z" fill="#263238"/>
<path opacity="0.2" d="M181.763 192.069L186.39 192.431C187.274 192.501 188.046 191.84 188.115 190.957L192.511 134.853C192.58 133.969 191.92 133.197 191.037 133.128L186.409 132.765C185.526 132.696 184.753 133.356 184.684 134.24L180.288 190.343C180.219 191.227 180.879 192 181.763 192.069Z" fill="white"/>
<path d="M185.383 103.165L193.168 103.787C193.827 103.84 194.404 103.349 194.457 102.69L194.516 101.956C194.568 101.297 194.077 100.72 193.418 100.667L185.633 100.044C184.974 99.9917 184.397 100.483 184.344 101.142L184.285 101.876C184.233 102.535 184.724 103.112 185.383 103.165Z" fill="#263238"/>
<path opacity="0.2" d="M185.383 103.165L193.168 103.787C193.827 103.84 194.404 103.349 194.457 102.69L194.516 101.956C194.568 101.297 194.077 100.72 193.418 100.667L185.633 100.044C184.974 99.9917 184.397 100.483 184.344 101.142L184.285 101.876C184.233 102.535 184.724 103.112 185.383 103.165Z" fill="white"/>
<path opacity="0.2" d="M185.562 103.94L186.21 103.991C186.867 104.042 187.441 103.551 187.493 102.894L187.55 102.163C187.601 101.506 187.11 100.932 186.453 100.88L185.805 100.83C185.148 100.778 184.574 101.269 184.522 101.926L184.465 102.658C184.414 103.315 184.905 103.889 185.562 103.94Z" fill="black"/>
<path d="M209.675 139.07L205.702 189.78C205.632 190.675 205.209 191.506 204.527 192.09C203.845 192.674 202.958 192.963 202.063 192.894L183.569 191.444C182.942 191.391 182.361 191.092 181.953 190.613C181.545 190.133 181.343 189.512 181.391 188.885L185.49 136.165C185.542 135.537 185.839 134.956 186.317 134.547C186.795 134.138 187.416 133.935 188.043 133.981L206.537 135.431C206.983 135.462 207.417 135.582 207.817 135.782C208.216 135.983 208.571 136.26 208.863 136.598C209.154 136.936 209.376 137.329 209.516 137.753C209.655 138.177 209.709 138.625 209.675 139.07Z" fill="#3EBA59"/>
<path opacity="0.2" d="M209.675 139.07L205.702 189.78C205.632 190.675 205.209 191.506 204.527 192.09C203.845 192.674 202.958 192.963 202.063 192.894L183.569 191.444C182.942 191.391 182.361 191.092 181.953 190.613C181.545 190.133 181.343 189.512 181.391 188.885L185.49 136.165C185.542 135.537 185.839 134.956 186.317 134.547C186.795 134.138 187.416 133.935 188.043 133.981L206.537 135.431C206.983 135.462 207.417 135.582 207.817 135.782C208.216 135.983 208.571 136.26 208.863 136.598C209.154 136.936 209.376 137.329 209.516 137.753C209.655 138.177 209.709 138.625 209.675 139.07Z" fill="white"/>
<path opacity="0.2" d="M196.956 134.679V134.751L196.294 134.697C195.666 134.651 195.044 134.855 194.566 135.265C194.088 135.676 193.791 136.258 193.741 136.886L189.612 189.589C189.575 190.118 189.714 190.644 190.009 191.085C190.304 191.526 190.738 191.856 191.241 192.023L183.551 191.426C182.924 191.374 182.343 191.077 181.934 190.599C181.525 190.121 181.321 189.5 181.368 188.873L185.49 136.17C185.54 135.542 185.837 134.96 186.315 134.549C186.794 134.139 187.415 133.935 188.043 133.981L196.956 134.679Z" fill="black"/>
<path opacity="0.2" d="M196.799 136.525L196.526 136.504C196.168 136.476 195.855 136.743 195.827 137.101L191.779 188.768C191.75 189.126 192.018 189.439 192.376 189.467L192.65 189.489C193.008 189.517 193.321 189.249 193.349 188.891L197.397 137.224C197.425 136.866 197.157 136.553 196.799 136.525Z" fill="black"/>
<path opacity="0.2" d="M200.503 137.068L200.23 137.047C199.872 137.019 199.559 137.286 199.531 137.644L195.482 189.311C195.454 189.669 195.722 189.982 196.08 190.01L196.353 190.032C196.711 190.06 197.024 189.792 197.053 189.434L201.101 137.767C201.129 137.409 200.861 137.096 200.503 137.068Z" fill="black"/>
<path opacity="0.2" d="M204.21 137.291L203.936 137.27C203.578 137.241 203.265 137.509 203.237 137.867L199.189 189.534C199.161 189.892 199.428 190.205 199.786 190.233L200.06 190.255C200.418 190.283 200.731 190.015 200.759 189.657L204.807 137.99C204.835 137.632 204.568 137.319 204.21 137.291Z" fill="black"/>
<path opacity="0.2" d="M207.904 137.508L207.63 137.486C207.272 137.458 206.959 137.726 206.931 138.084L202.883 189.751C202.855 190.109 203.122 190.422 203.481 190.45L203.754 190.471C204.112 190.499 204.425 190.232 204.453 189.874L208.501 138.207C208.529 137.849 208.262 137.536 207.904 137.508Z" fill="black"/>
</svg>
