<svg width="60" height="60" viewBox="0 0 60 60" fill="none" xmlns="http://www.w3.org/2000/svg">
<rect x="1.23899" y="0.916968" width="57.5152" height="57.5152" rx="28.7576" stroke="white" stroke-opacity="0.25" stroke-width="1.17378"/>
<path d="M40.088 24.1908L40.0817 24.1664C39.572 22.1728 37.2741 20.0336 35.1638 19.5886L35.14 19.5838C31.7267 18.9538 28.2658 18.9538 24.8533 19.5838L24.8287 19.5886C22.7192 20.0336 20.4212 22.1728 19.9108 24.1664L19.9052 24.1908C19.2751 26.9749 19.2751 29.7983 19.9052 32.5824L19.9108 32.6068C20.3995 34.5153 22.5263 36.5562 24.5578 37.1175V39.3429C24.5578 40.1483 25.5723 40.5439 26.1493 39.9627L28.4797 37.619C28.9852 37.6463 29.4909 37.6616 29.9966 37.6616C31.7148 37.6616 33.4337 37.5044 35.14 37.1894L35.1638 37.1847C37.2741 36.7396 39.572 34.6004 40.0817 32.6068L40.088 32.5825C40.7182 29.7983 40.7182 26.9749 40.088 24.1908ZM38.2438 32.1787C37.9035 33.4793 36.1587 35.0962 34.7724 35.3949C32.9575 35.7288 31.1283 35.8716 29.3009 35.8226C29.2645 35.8216 29.2296 35.8353 29.2043 35.8605C28.9449 36.118 27.5027 37.5504 27.5027 37.5504L25.6927 39.3476C25.5604 39.481 25.328 39.3902 25.328 39.206V35.5194C25.328 35.4586 25.283 35.4068 25.2212 35.3951C25.2208 35.395 25.2215 35.3951 25.2212 35.3951C23.8349 35.0963 22.0897 33.4792 21.7487 32.1786C21.1816 29.6621 21.1816 27.111 21.7487 24.5945C22.0897 23.2938 23.8338 21.6769 25.2201 21.3782C28.3898 20.7949 31.6035 20.7949 34.7724 21.3782C36.1594 21.6769 37.9035 23.2938 38.2438 24.5945C38.8116 27.1111 38.8116 29.6621 38.2438 32.1787Z" fill="white"/>
<path d="M33.0117 33.8803C32.7986 33.8177 32.5954 33.7757 32.4068 33.6999C30.4522 32.9154 28.6534 31.9032 27.2285 30.3516C26.4182 29.4693 25.784 28.4732 25.2479 27.4191C24.9936 26.9191 24.7794 26.3996 24.561 25.8835C24.3619 25.4129 24.6552 24.9266 24.964 24.572C25.2538 24.2392 25.6267 23.9845 26.0306 23.7968C26.3458 23.6503 26.6567 23.7348 26.887 23.9933C27.3846 24.5521 27.8418 25.1396 28.2119 25.7873C28.4396 26.1858 28.3771 26.6728 27.9646 26.944C27.8643 27.0099 27.7729 27.0873 27.6795 27.1617C27.5976 27.2269 27.5205 27.2929 27.4644 27.3812C27.3617 27.5428 27.3568 27.7334 27.4229 27.9092C27.9317 29.2618 28.7892 30.3136 30.1963 30.8801C30.4215 30.9707 30.6477 31.0762 30.9071 31.047C31.3415 30.9979 31.4822 30.5368 31.7866 30.296C32.0842 30.0606 32.4644 30.0574 32.785 30.2537C33.1056 30.45 33.4164 30.6607 33.7253 30.8737C34.0285 31.0827 34.3304 31.2873 34.6102 31.5256C34.8791 31.7547 34.9717 32.0554 34.8203 32.3663C34.543 32.9359 34.1396 33.4097 33.5576 33.7122C33.3933 33.7975 33.197 33.8251 33.0117 33.8803C33.197 33.8251 32.7986 33.8177 33.0117 33.8803Z" fill="white"/>
<path d="M30.0015 23.1456C32.5582 23.2149 34.658 24.8564 35.108 27.3018C35.1847 27.7185 35.212 28.1445 35.2461 28.5674C35.2604 28.7453 35.1563 28.9143 34.9579 28.9166C34.7529 28.919 34.6607 28.7531 34.6474 28.5753C34.6211 28.2233 34.6028 27.8698 34.5527 27.5207C34.288 25.6781 32.7694 24.1537 30.8737 23.8266C30.5885 23.7773 30.2965 23.7644 30.0076 23.7351C29.8249 23.7165 29.5856 23.7058 29.5452 23.4861C29.5112 23.3019 29.6719 23.1553 29.8532 23.1459C29.9025 23.1432 29.952 23.1454 30.0015 23.1456C32.5582 23.2149 29.952 23.1454 30.0015 23.1456Z" fill="white"/>
<path d="M33.8866 28.0185C33.8824 28.0494 33.8802 28.122 33.8615 28.1904C33.7936 28.4387 33.4045 28.4698 33.3149 28.2192C33.2883 28.1448 33.2843 28.0602 33.2842 27.9801C33.2833 27.4562 33.1656 26.9329 32.8925 26.4771C32.6118 26.0086 32.183 25.6147 31.68 25.3764C31.3759 25.2323 31.0469 25.1428 30.7136 25.0894C30.5679 25.0661 30.4206 25.0519 30.2742 25.0322C30.0968 25.0084 30.0021 24.899 30.0105 24.7298C30.0183 24.5713 30.1381 24.4573 30.3166 24.4671C30.9033 24.4993 31.47 24.622 31.9917 24.8892C33.0524 25.4327 33.6583 26.2906 33.8352 27.4361C33.8431 27.4879 33.856 27.5394 33.8601 27.5914C33.8701 27.7201 33.8764 27.8489 33.8866 28.0185C33.8824 28.0494 33.8764 27.8489 33.8866 28.0185Z" fill="white"/>
<path d="M32.2966 27.9586C32.0827 27.9623 31.9682 27.8478 31.9462 27.658C31.9309 27.5257 31.9187 27.3917 31.8861 27.263C31.8218 27.0095 31.6826 26.7745 31.4622 26.6192C31.3581 26.5459 31.2402 26.4924 31.1167 26.4579C30.9598 26.4141 30.7969 26.4262 30.6403 26.389C30.4703 26.3487 30.3763 26.2156 30.403 26.0612C30.4273 25.9208 30.5685 25.8112 30.7271 25.8223C31.7184 25.8916 32.4268 26.3873 32.5279 27.5163C32.535 27.596 32.5434 27.6802 32.5252 27.7564C32.4939 27.8868 32.394 27.9522 32.2966 27.9586C32.394 27.9522 32.0827 27.9623 32.2966 27.9586Z" fill="white"/>
</svg>
