<svg width="93" height="38" viewBox="0 0 93 38" fill="none" xmlns="http://www.w3.org/2000/svg">
<path d="M0.574219 23.3099V0.566406H14.1044V23.2988H0.574219V23.3099ZM12.4651 18.0187L12.8132 15.5064L11.5556 15.3842L11.1738 17.3184C10.3878 17.7074 9.42218 17.8964 8.26566 17.8964C6.69369 17.8964 5.44733 17.4073 4.53783 16.418C3.61711 15.4286 3.16797 14.128 3.16797 12.5051C3.16797 10.9266 3.61711 9.62602 4.50415 8.60334C5.39119 7.58066 6.55897 7.06932 8.00743 7.06932C8.7485 7.06932 9.37727 7.15825 9.88255 7.32499C10.3878 7.49173 10.8482 7.71405 11.2861 8.00307L11.6567 9.91504L12.9367 9.79276L12.5661 7.28053C12.0272 6.82477 11.3871 6.45793 10.6461 6.16892C9.905 5.89101 8.98429 5.7465 7.89514 5.7465C6.60388 5.7465 5.49227 6.05775 4.56031 6.69137C3.62836 7.32499 2.89851 8.1587 2.382 9.19249C1.8655 10.2374 1.60724 11.3601 1.60724 12.5607C1.60724 14.4615 2.20234 16.0511 3.39255 17.3184C4.58276 18.5856 6.13227 19.2192 8.05232 19.2192C9.93869 19.2192 11.4096 18.819 12.4651 18.0187Z" fill="#263238"/>
<path d="M18.697 23.3099V0.566406H24.5133V23.2988H18.697V23.3099ZM19.3146 19.0191H23.907V17.8742H22.3238V5.17959H19.2921V6.32454H20.8978V17.8742H19.3146V19.0191Z" fill="#263238"/>
<path d="M29.1057 23.3099V0.566406H39.3235V23.2988H29.1057V23.3099ZM30.9584 10.7487L30.6328 12.8163L31.8118 12.9608L32.1598 11.4157C32.6651 11.1712 33.2378 11.0489 33.9115 11.0489C34.7199 11.0489 35.2701 11.249 35.5508 11.6491C35.8315 12.0493 35.9663 12.5718 35.9663 13.2165V14.0169C35.7192 13.9946 35.461 13.9724 35.1803 13.9613C34.8996 13.9502 34.6301 13.9391 34.3606 13.9391C33.3501 13.9391 32.3844 14.1169 31.4861 14.4726C30.5879 14.8284 30.1387 15.5731 30.1387 16.6959C30.1387 17.6518 30.4419 18.3077 31.0595 18.6634C31.677 19.0302 32.2834 19.2081 32.8785 19.2081C33.6083 19.2081 34.2371 19.0191 34.7536 18.6412C35.2701 18.2632 35.6743 17.8408 35.9663 17.3517V17.3962C35.9887 18.6078 36.5389 19.2081 37.6168 19.2081C38.0323 19.2081 38.4253 19.108 38.7958 18.908L38.7734 17.9853C38.5937 18.0631 38.3916 18.1076 38.167 18.1076C37.6505 18.1076 37.3923 17.7852 37.3923 17.1405V12.883C37.3923 10.8821 36.3143 9.88169 34.1585 9.88169C33.5634 9.88169 33.002 9.94839 32.4742 10.0818C31.9353 10.2263 31.43 10.4486 30.9584 10.7487ZM35.955 15.6621C35.8989 16.3957 35.5957 16.9849 35.0455 17.4073C34.4953 17.8408 33.9115 18.052 33.2827 18.052C32.8897 18.052 32.5079 17.9409 32.1486 17.7296C31.7781 17.5184 31.5984 17.1183 31.5984 16.5402C31.5984 15.8399 31.8791 15.3953 32.4181 15.1841C32.9683 14.9729 33.5746 14.8728 34.2595 14.8728C34.5627 14.8728 34.8546 14.8839 35.1353 14.9173C35.4161 14.9395 35.6968 14.9617 35.9438 14.9729V15.6621H35.955Z" fill="#263238"/>
<path d="M43.9271 23.3099V0.566406H53.213V23.2988H43.9271V23.3099ZM52.2361 16.4291C52.2361 15.7176 52.0452 15.1952 51.6635 14.8506C51.2817 14.506 50.8213 14.2725 50.2599 14.1392C49.6985 14.0058 49.1483 13.8946 48.5981 13.8057C48.0479 13.7167 47.5763 13.5722 47.1946 13.3833C46.8128 13.1943 46.6219 12.8608 46.6219 12.3828C46.6219 11.9271 46.8016 11.5936 47.1721 11.3712C47.5426 11.1489 48.003 11.0489 48.5757 11.0489C49.2381 11.0489 49.8557 11.1934 50.4284 11.4935L50.6529 12.9386L51.8319 12.7941L51.6073 10.7043C51.2256 10.4708 50.7652 10.2819 50.215 10.1262C49.6648 9.97062 49.0809 9.88169 48.4522 9.88169C47.6213 9.88169 46.8577 10.0818 46.1504 10.4708C45.443 10.8599 45.0949 11.5269 45.0949 12.4829C45.0949 13.1832 45.2857 13.6945 45.6675 14.0169C46.0493 14.3504 46.5209 14.5727 47.0935 14.7061C47.6662 14.8395 48.2276 14.9506 48.789 15.0507C49.3504 15.1396 49.822 15.2952 50.2038 15.4953C50.5855 15.6954 50.7764 16.04 50.7764 16.5402C50.7764 17.0516 50.5294 17.4295 50.0353 17.6741C49.5413 17.9186 48.9799 18.0409 48.3399 18.0409C47.6213 18.0409 46.9475 17.8964 46.33 17.5963L46.3861 16.4068L45.2521 16.2846L44.9714 18.3188C45.3643 18.5745 45.8808 18.7857 46.5096 18.9524C47.1384 19.1192 47.7672 19.2081 48.4072 19.2081C49.4964 19.2081 50.4059 18.9635 51.1358 18.4633C51.8656 17.9853 52.2361 17.2961 52.2361 16.4291Z" fill="#263238"/>
<path d="M57.8057 23.3099V0.566406H67.0915V23.2988H57.8057V23.3099ZM66.1146 16.4291C66.1146 15.7176 65.9237 15.1952 65.542 14.8506C65.1602 14.506 64.6998 14.2725 64.1384 14.1392C63.577 14.0058 63.0268 13.8946 62.4766 13.8057C61.9264 13.7167 61.4549 13.5722 61.0731 13.3833C60.6913 13.1943 60.5004 12.8608 60.5004 12.3828C60.5004 11.9271 60.6801 11.5936 61.0506 11.3712C61.4211 11.1489 61.8815 11.0489 62.4542 11.0489C63.1166 11.0489 63.7342 11.1934 64.3069 11.4935L64.5314 12.9386L65.7104 12.7941L65.4858 10.7043C65.1041 10.4708 64.6437 10.2819 64.0935 10.1262C63.5433 9.97062 62.9595 9.88169 62.3307 9.88169C61.4998 9.88169 60.7362 10.0818 60.0289 10.4708C59.3215 10.8599 58.9734 11.5269 58.9734 12.4829C58.9734 13.1832 59.1643 13.6945 59.546 14.0169C59.9278 14.3504 60.3994 14.5727 60.9721 14.7061C61.5447 14.8395 62.1061 14.9506 62.6675 15.0507C63.2289 15.1396 63.7005 15.2952 64.0823 15.4953C64.4641 15.6954 64.6549 16.04 64.6549 16.5402C64.6549 17.0516 64.4079 17.4295 63.9139 17.6741C63.4199 17.9186 62.8584 18.0409 62.2184 18.0409C61.4998 18.0409 60.826 17.8964 60.2085 17.5963L60.2647 16.4068L59.1306 16.2846L58.8499 18.3188C59.2429 18.5745 59.7594 18.7857 60.3882 18.9524C61.017 19.1192 61.6458 19.2081 62.2858 19.2081C63.3749 19.2081 64.2844 18.9635 65.0143 18.4633C65.7441 17.9853 66.1146 17.2961 66.1146 16.4291Z" fill="#263238"/>
<path d="M71.6837 23.3099V0.566406H77.8032V23.2988H71.6837V23.3099ZM72.582 19.0191H77.1744V17.8742H75.5912V10.0707H72.5483V11.2156H74.1764V17.8742H72.5932V19.0191H72.582ZM74.0192 5.92436V7.75852H75.5688V5.92436H74.0192Z" fill="#263238"/>
<path d="M82.3954 23.3099V0.566406H92.1753V23.2988H82.3954V23.3099ZM91.2995 16.0067L90.0756 15.7399C89.8061 17.2517 88.9865 18.0076 87.6391 18.0076C86.7408 18.0076 86.0559 17.7074 85.5843 17.1071C85.1127 16.5069 84.8769 15.6621 84.8769 14.5949C84.8769 13.6278 85.0902 12.8052 85.5057 12.116C85.9211 11.4268 86.6172 11.0933 87.5829 11.0933C88.324 11.0933 88.9752 11.2601 89.5142 11.5936L89.8623 13.1054L91.0412 12.9608L90.6932 10.8043C90.2328 10.4597 89.75 10.2152 89.2447 10.0818C88.7395 9.94839 88.1892 9.88169 87.5941 9.88169C86.1906 9.88169 85.1239 10.3708 84.4277 11.349C83.7203 12.3272 83.3722 13.4388 83.3722 14.6727C83.3722 16.1067 83.7428 17.2294 84.4951 18.0187C85.2362 18.819 86.2355 19.2192 87.4819 19.2192C88.7282 19.2192 89.649 18.8746 90.2328 18.1965C90.8167 17.5073 91.176 16.7848 91.2995 16.0067Z" fill="#263238"/>
<path d="M6.42415 35.7266C6.1659 36.1935 5.78413 36.5603 5.29008 36.816C4.7848 37.0716 4.18969 37.205 3.49353 37.205H1.48364V30.9355H3.49353C4.18969 30.9355 4.79603 31.0578 5.29008 31.3135C5.78413 31.5692 6.1659 31.9249 6.42415 32.4029C6.68241 32.8809 6.80591 33.4256 6.80591 34.0703C6.80591 34.7039 6.68241 35.2597 6.42415 35.7266ZM5.31252 35.8489C5.75043 35.4264 5.96379 34.8373 5.96379 34.0703C5.96379 33.3033 5.75043 32.7141 5.31252 32.2917C4.87462 31.8693 4.24582 31.6581 3.41492 31.6581H2.28088V36.4825H3.41492C4.24582 36.4825 4.87462 36.2713 5.31252 35.8489Z" fill="#FF5196"/>
<path d="M10.9718 31.5914V33.7368H13.3747V34.3593H10.9718V36.5492H13.6441V37.205H10.1521V30.9355H13.6441V31.5914H10.9718Z" fill="#FF5196"/>
<path d="M20.7406 36.405C20.5946 36.6606 20.3813 36.8718 20.0893 37.0275C19.7974 37.1831 19.4381 37.272 19.0002 37.272C18.5847 37.272 18.203 37.1942 17.8773 37.0497C17.5517 36.8941 17.2935 36.694 17.0914 36.4272C16.9005 36.1604 16.7882 35.8603 16.7545 35.5268H17.6303C17.6528 35.7046 17.7089 35.8825 17.81 36.0492C17.911 36.216 18.0682 36.3605 18.2591 36.4717C18.45 36.5828 18.6858 36.6384 18.9665 36.6384C19.3258 36.6384 19.6065 36.5495 19.7974 36.3494C19.9883 36.1493 20.0893 35.9158 20.0893 35.6157C20.0893 35.36 20.022 35.1488 19.8872 34.9932C19.7525 34.8376 19.584 34.7042 19.3932 34.6153C19.2023 34.5263 18.9216 34.4263 18.5847 34.3151C18.1805 34.1817 17.8661 34.0595 17.6191 33.9483C17.3721 33.8371 17.1699 33.6593 17.0015 33.4258C16.8331 33.1924 16.7433 32.8923 16.7433 32.5143C16.7433 32.192 16.8219 31.9029 16.9791 31.6473C17.1363 31.4027 17.3608 31.2026 17.664 31.0692C17.9559 30.9358 18.3153 30.8691 18.7083 30.8691C19.3258 30.8691 19.8311 31.0137 20.1904 31.3138C20.5609 31.6139 20.763 31.9919 20.8304 32.4587H19.9546C19.9097 32.2142 19.7749 31.9919 19.5728 31.8029C19.3595 31.6139 19.0788 31.5139 18.7195 31.5139C18.3938 31.5139 18.1244 31.6028 17.9335 31.7695C17.7314 31.9363 17.6415 32.1808 17.6415 32.481C17.6415 32.7255 17.7089 32.9256 17.8324 33.0701C17.9672 33.2258 18.1244 33.3369 18.3153 33.4258C18.5061 33.5148 18.7756 33.6037 19.1012 33.7149C19.5054 33.8483 19.8311 33.9705 20.0893 34.0928C20.3363 34.2151 20.5497 34.3929 20.7181 34.6264C20.8865 34.8598 20.9764 35.1822 20.9764 35.5824C20.9539 35.8714 20.8866 36.1493 20.7406 36.405Z" fill="#FF5196"/>
<path d="M25.1194 30.9355V37.205H24.2997V30.9355H25.1194Z" fill="#FF5196"/>
<path d="M33.4061 31.4136C33.9114 31.7804 34.2482 32.2695 34.4166 32.892H33.5521C33.4061 32.5141 33.1478 32.2028 32.7997 31.9805C32.4517 31.7471 32.0362 31.6359 31.5534 31.6359C31.1267 31.6359 30.7337 31.736 30.3969 31.936C30.06 32.1361 29.7906 32.414 29.5884 32.7809C29.3976 33.1477 29.2965 33.5812 29.2965 34.0814C29.2965 34.5928 29.3976 35.0374 29.5884 35.4043C29.7793 35.7711 30.06 36.0601 30.4081 36.2602C30.7562 36.4603 31.1604 36.5603 31.6208 36.5603C32.0138 36.5603 32.3618 36.4714 32.6874 36.3158C33.0131 36.149 33.2713 35.9045 33.4847 35.5932C33.698 35.282 33.8103 34.904 33.8552 34.4816H31.3625V33.8814H34.5401V34.6261C34.484 35.1264 34.3268 35.571 34.0686 35.9823C33.8103 36.3936 33.4622 36.7048 33.0243 36.9383C32.5864 37.1717 32.0923 37.294 31.5309 37.294C30.9246 37.294 30.3856 37.1606 29.914 36.8938C29.4424 36.627 29.0831 36.2491 28.8249 35.76C28.5666 35.282 28.4319 34.7262 28.4319 34.1037C28.4319 33.4812 28.5666 32.9254 28.8249 32.4474C29.0831 31.9694 29.4537 31.5803 29.914 31.3135C30.3744 31.0468 30.9134 30.9022 31.5197 30.9022C32.2832 30.88 32.9008 31.0579 33.4061 31.4136Z" fill="#FF5196"/>
<path d="M42.8266 37.205H42.0069L38.717 32.2472V37.205H37.8973V30.9355H38.717L42.0069 35.8933V30.9355H42.8266V37.205Z" fill="#FF5196"/>
<path d="M54.6387 36.405C54.4927 36.6606 54.2793 36.8718 53.9874 37.0275C53.6955 37.1831 53.3362 37.272 52.8983 37.272C52.4828 37.272 52.1011 37.1942 51.7754 37.0497C51.4498 36.8941 51.1915 36.694 50.9894 36.4272C50.7986 36.1604 50.6863 35.8603 50.6526 35.5268H51.5284C51.5508 35.7046 51.607 35.8825 51.7081 36.0492C51.8091 36.216 51.9663 36.3605 52.1572 36.4717C52.348 36.5828 52.5838 36.6384 52.8646 36.6384C53.2239 36.6384 53.5046 36.5495 53.6954 36.3494C53.8863 36.1493 53.9874 35.9158 53.9874 35.6157C53.9874 35.36 53.92 35.1488 53.7853 34.9932C53.6505 34.8376 53.4821 34.7042 53.2912 34.6153C53.1004 34.5263 52.8197 34.4263 52.4828 34.3151C52.0786 34.1817 51.7642 34.0595 51.5171 33.9483C51.2701 33.8371 51.068 33.6593 50.8996 33.4258C50.7312 33.1924 50.6414 32.8923 50.6414 32.5143C50.6414 32.192 50.7199 31.9029 50.8771 31.6473C51.0343 31.4027 51.2589 31.2026 51.5621 31.0692C51.854 30.9358 52.2133 30.8691 52.6063 30.8691C53.2239 30.8691 53.7292 31.0137 54.0885 31.3138C54.459 31.6139 54.6611 31.9919 54.7285 32.4587H53.8527C53.8077 32.2142 53.673 31.9919 53.4709 31.8029C53.2575 31.6139 52.9769 31.5139 52.6176 31.5139C52.2919 31.5139 52.0224 31.6028 51.8316 31.7695C51.6295 31.9363 51.5396 32.1808 51.5396 32.481C51.5396 32.7255 51.607 32.9256 51.7305 33.0701C51.8652 33.2258 52.0224 33.3369 52.2133 33.4258C52.4042 33.5148 52.6737 33.6037 52.9993 33.7149C53.4035 33.8483 53.7291 33.9705 53.9874 34.0928C54.2344 34.2151 54.4478 34.3929 54.6162 34.6264C54.7846 34.8598 54.8744 35.1822 54.8744 35.5824C54.852 35.8714 54.7846 36.1493 54.6387 36.405Z" fill="#FF5196"/>
<path d="M62.0831 30.9355V31.5914H60.2977V37.205H59.4669V31.5914H57.6815V30.9355H62.0831Z" fill="#FF5196"/>
<path d="M65.9015 30.9355V34.6928C65.9015 35.3042 66.0363 35.7599 66.317 36.0601C66.5977 36.3491 66.9683 36.5047 67.4623 36.5047C67.9451 36.5047 68.3157 36.3602 68.5851 36.0601C68.8546 35.7599 68.9893 35.3153 68.9893 34.7039V30.9467H69.8091V34.7039C69.8091 35.5598 69.5957 36.2046 69.169 36.627C68.7424 37.0605 68.1697 37.2717 67.4511 37.2717C66.7437 37.2717 66.1711 37.0605 65.7444 36.627C65.3177 36.1935 65.1044 35.5598 65.1044 34.7039V30.9467H65.9015V30.9355Z" fill="#FF5196"/>
<path d="M78.2633 35.7266C78.0051 36.1935 77.6233 36.5603 77.1292 36.816C76.624 37.0716 76.0289 37.205 75.3327 37.205H73.3229V30.9355H75.3327C76.0289 30.9355 76.6352 31.0578 77.1292 31.3135C77.6233 31.5692 78.0051 31.9249 78.2633 32.4029C78.5216 32.8809 78.6451 33.4256 78.6451 34.0703C78.6451 34.7039 78.5216 35.2597 78.2633 35.7266ZM77.163 35.8489C77.6009 35.4264 77.8142 34.8373 77.8142 34.0703C77.8142 33.3033 77.6009 32.7141 77.163 32.2917C76.7251 31.8693 76.0963 31.6581 75.2654 31.6581H74.1313V36.4825H75.2654C76.085 36.4825 76.7251 36.2713 77.163 35.8489Z" fill="#FF5196"/>
<path d="M82.8218 30.9355V37.205H82.0022V30.9355H82.8218Z" fill="#FF5196"/>
<path d="M90.8616 31.2687C91.3331 31.5466 91.7037 31.9246 91.9731 32.4137C92.2426 32.9028 92.3774 33.4586 92.3774 34.07C92.3774 34.6814 92.2426 35.2372 91.9731 35.7263C91.7037 36.2154 91.3331 36.5933 90.8616 36.8712C90.39 37.1491 89.8622 37.2825 89.2783 37.2825C88.6944 37.2825 88.1555 37.1491 87.6839 36.8712C87.2123 36.5933 86.8305 36.2154 86.5611 35.7263C86.2916 35.2372 86.1569 34.6814 86.1569 34.07C86.1569 33.4586 86.2916 32.9028 86.5611 32.4137C86.8305 31.9246 87.2011 31.5466 87.6839 31.2687C88.1667 30.9908 88.6944 30.8574 89.2783 30.8574C89.8622 30.8574 90.39 30.9908 90.8616 31.2687ZM88.0993 31.9134C87.7513 32.1135 87.4818 32.3914 87.2909 32.7694C87.1001 33.1362 86.999 33.5697 86.999 34.07C86.999 34.5591 87.1001 34.9926 87.2909 35.3706C87.4818 35.7485 87.7513 36.0264 88.0993 36.2265C88.4474 36.4266 88.8292 36.5266 89.2671 36.5266C89.6938 36.5266 90.0868 36.4266 90.4349 36.2265C90.7829 36.0264 91.0524 35.7374 91.2433 35.3706C91.4342 35.0037 91.5352 34.5702 91.5352 34.0811C91.5352 33.5809 91.4342 33.1473 91.2433 32.7805C91.0524 32.4137 90.7829 32.1247 90.4349 31.9246C90.0868 31.7245 89.705 31.6244 89.2671 31.6244C88.8404 31.6133 88.4474 31.7134 88.0993 31.9134Z" fill="#FF5196"/>
</svg>
