<svg width="17" height="17" viewBox="0 0 17 17" fill="none" xmlns="http://www.w3.org/2000/svg">
<path d="M13.7727 0.709572C13.9363 0.536603 14.1329 0.398188 14.3509 0.302509C14.5689 0.206829 14.8039 0.155827 15.042 0.152516C15.2801 0.149205 15.5164 0.193654 15.737 0.283234C15.9576 0.372814 16.1579 0.505708 16.3263 0.67406C16.4946 0.842412 16.6275 1.04281 16.7171 1.2634C16.8067 1.48399 16.8512 1.7203 16.8478 1.95836C16.8445 2.19643 16.7935 2.43141 16.6978 2.64942C16.6022 2.86744 16.4638 3.06406 16.2908 3.22767L11.0717 8.44673C11.0648 8.45362 11.0593 8.46181 11.0556 8.47083C11.0518 8.47985 11.0499 8.48951 11.0499 8.49928C11.0499 8.50904 11.0518 8.5187 11.0556 8.52772C11.0593 8.53674 11.0648 8.54493 11.0717 8.55182L16.2908 13.7709C16.4584 13.9358 16.5918 14.1322 16.6831 14.3489C16.7744 14.5656 16.8219 14.7982 16.8229 15.0333C16.8239 15.2685 16.7783 15.5015 16.6888 15.7189C16.5993 15.9363 16.4676 16.1339 16.3014 16.3002C16.1351 16.4665 15.9376 16.5982 15.7202 16.6877C15.5028 16.7773 15.2698 16.8229 15.0347 16.822C14.7995 16.8211 14.5669 16.7736 14.3502 16.6823C14.1335 16.591 13.937 16.4578 13.7721 16.2902L8.55304 11.0711C8.54614 11.0642 8.53795 11.0587 8.52894 11.055C8.51992 11.0512 8.51025 11.0493 8.50049 11.0493C8.49073 11.0493 8.48106 11.0512 8.47204 11.055C8.46303 11.0587 8.45484 11.0642 8.44794 11.0711L3.22888 16.2902C3.06399 16.4578 2.86754 16.5911 2.65087 16.6825C2.4342 16.7738 2.20158 16.8213 1.96645 16.8223C1.73131 16.8233 1.49831 16.7777 1.28088 16.6882C1.06344 16.5987 0.865886 16.467 0.699599 16.3008C0.533312 16.1345 0.401586 15.937 0.31202 15.7196C0.222453 15.5022 0.176819 15.2692 0.177748 15.034C0.178678 14.7989 0.226153 14.5663 0.317436 14.3496C0.408719 14.1329 0.542002 13.9364 0.709599 13.7715L5.92866 8.55241C5.93557 8.54552 5.94106 8.53733 5.9448 8.52831C5.94854 8.5193 5.95047 8.50963 5.95047 8.49987C5.95047 8.49011 5.94854 8.48044 5.9448 8.47142C5.94106 8.46241 5.93557 8.45422 5.92866 8.44732L0.709599 3.22826C0.380003 2.89333 0.196106 2.44173 0.197964 1.97183C0.199822 1.50193 0.387284 1.0518 0.719517 0.719488C1.05175 0.387176 1.50184 0.199608 1.97174 0.197639C2.44164 0.195671 2.89328 0.379462 3.22829 0.708978L8.44735 5.92804C8.45424 5.93495 8.46243 5.94044 8.47145 5.94418C8.48047 5.94792 8.49013 5.94984 8.4999 5.94984C8.50966 5.94984 8.51932 5.94792 8.52834 5.94418C8.53736 5.94044 8.54555 5.93495 8.55244 5.92804L13.7727 0.709572Z" fill="#263238"/>
</svg>
