<svg width="99" height="40" viewBox="0 0 99 40" fill="none" xmlns="http://www.w3.org/2000/svg">
<path d="M12.7323 31.7598C9.3523 31.7598 6.7723 30.8198 4.9923 28.9398C3.2323 27.0598 2.35229 24.3898 2.35229 20.9298C2.35229 19.2098 2.6223 17.6798 3.1623 16.3398C3.7023 14.9798 4.4423 13.8398 5.3823 12.9198C6.3223 11.9798 7.4423 11.2698 8.7423 10.7898C10.0423 10.3098 11.4523 10.0698 12.9723 10.0698C13.8523 10.0698 14.6523 10.1398 15.3723 10.2798C16.0923 10.3998 16.7223 10.5498 17.2623 10.7298C17.8023 10.8898 18.2523 11.0598 18.6123 11.2398C18.9723 11.4198 19.2323 11.5598 19.3923 11.6598L18.0423 15.4398C17.4023 15.0998 16.6523 14.8098 15.7923 14.5698C14.9523 14.3298 13.9923 14.2098 12.9123 14.2098C12.1923 14.2098 11.4823 14.3298 10.7823 14.5698C10.1023 14.8098 9.4923 15.1998 8.9523 15.7398C8.4323 16.2598 8.0123 16.9398 7.6923 17.7798C7.3723 18.6198 7.2123 19.6398 7.2123 20.8398C7.2123 21.7998 7.3123 22.6998 7.5123 23.5398C7.7323 24.3598 8.0723 25.0698 8.5323 25.6698C9.0123 26.2698 9.6323 26.7498 10.3923 27.1098C11.1523 27.4498 12.0723 27.6198 13.1523 27.6198C13.8323 27.6198 14.4423 27.5798 14.9823 27.4998C15.5223 27.4198 16.0023 27.3298 16.4223 27.2298C16.8423 27.1098 17.2123 26.9798 17.5323 26.8398C17.8523 26.6998 18.1423 26.5698 18.4023 26.4498L19.6923 30.1998C19.0323 30.5998 18.1023 30.9598 16.9023 31.2798C15.7023 31.5998 14.3123 31.7598 12.7323 31.7598ZM36.8139 23.4198C36.8139 24.6598 36.6339 25.7998 36.2739 26.8398C35.9139 27.8598 35.3939 28.7398 34.7139 29.4798C34.0339 30.1998 33.2139 30.7598 32.2539 31.1598C31.3139 31.5598 30.2539 31.7598 29.0739 31.7598C27.9139 31.7598 26.8539 31.5598 25.8939 31.1598C24.9539 30.7598 24.1439 30.1998 23.4639 29.4798C22.7839 28.7398 22.2539 27.8598 21.8739 26.8398C21.4939 25.7998 21.3039 24.6598 21.3039 23.4198C21.3039 22.1798 21.4939 21.0498 21.8739 20.0298C22.2739 19.0098 22.8139 18.1398 23.4939 17.4198C24.1939 16.6998 25.0139 16.1398 25.9539 15.7398C26.9139 15.3398 27.9539 15.1398 29.0739 15.1398C30.2139 15.1398 31.2539 15.3398 32.1939 15.7398C33.1539 16.1398 33.9739 16.6998 34.6539 17.4198C35.3339 18.1398 35.8639 19.0098 36.2439 20.0298C36.6239 21.0498 36.8139 22.1798 36.8139 23.4198ZM32.2539 23.4198C32.2539 22.0398 31.9739 20.9598 31.4139 20.1798C30.8739 19.3798 30.0939 18.9798 29.0739 18.9798C28.0539 18.9798 27.2639 19.3798 26.7039 20.1798C26.1439 20.9598 25.8639 22.0398 25.8639 23.4198C25.8639 24.7998 26.1439 25.8998 26.7039 26.7198C27.2639 27.5198 28.0539 27.9198 29.0739 27.9198C30.0939 27.9198 30.8739 27.5198 31.4139 26.7198C31.9739 25.8998 32.2539 24.7998 32.2539 23.4198ZM44.7465 31.3398H40.2765V15.5598H44.7465V31.3398ZM45.1665 10.9998C45.1665 11.8198 44.8965 12.4698 44.3565 12.9498C43.8365 13.4098 43.2165 13.6398 42.4965 13.6398C41.7765 13.6398 41.1465 13.4098 40.6065 12.9498C40.0865 12.4698 39.8265 11.8198 39.8265 10.9998C39.8265 10.1798 40.0865 9.53984 40.6065 9.07984C41.1465 8.59984 41.7765 8.35984 42.4965 8.35984C43.2165 8.35984 43.8365 8.59984 44.3565 9.07984C44.8965 9.53984 45.1665 10.1798 45.1665 10.9998ZM48.9484 16.0998C49.7084 15.8798 50.6884 15.6798 51.8884 15.4998C53.0884 15.2998 54.3484 15.1998 55.6684 15.1998C57.0084 15.1998 58.1184 15.3798 58.9984 15.7398C59.8984 16.0798 60.6084 16.5698 61.1284 17.2098C61.6484 17.8498 62.0184 18.6098 62.2384 19.4898C62.4584 20.3698 62.5684 21.3498 62.5684 22.4298V31.3398H58.0984V22.9698C58.0984 21.5298 57.9084 20.5098 57.5284 19.9098C57.1484 19.3098 56.4384 19.0098 55.3984 19.0098C55.0784 19.0098 54.7384 19.0298 54.3784 19.0698C54.0184 19.0898 53.6984 19.1198 53.4184 19.1598V31.3398H48.9484V16.0998Z" fill="#263238"/>
<path d="M72.8844 20.3598L76.0044 15.5598H80.6244L75.2244 23.1498C76.4244 24.6498 77.5144 26.1098 78.4944 27.5298C79.4744 28.9498 80.2544 30.2198 80.8344 31.3398H76.0344C75.8744 31.0398 75.6744 30.6698 75.4344 30.2298C75.1944 29.7698 74.9244 29.2998 74.6244 28.8198C74.3244 28.3198 74.0044 27.8298 73.6644 27.3498C73.3444 26.8498 73.0244 26.3998 72.7044 25.9998C72.4044 26.3798 72.0944 26.7998 71.7744 27.2598C71.4744 27.7198 71.1844 28.1898 70.9044 28.6698C70.6244 29.1298 70.3444 29.5898 70.0644 30.0498C69.8044 30.5098 69.5744 30.9398 69.3744 31.3398H64.8144C65.0544 30.8398 65.3844 30.2498 65.8044 29.5698C66.2244 28.8898 66.6744 28.1898 67.1544 27.4698C67.6544 26.7298 68.1744 25.9998 68.7144 25.2798C69.2544 24.5398 69.7844 23.8498 70.3044 23.2098C69.4044 21.9498 68.5044 20.6798 67.6044 19.3998C66.7044 18.0998 65.8144 16.8198 64.9344 15.5598H69.7644L72.8844 20.3598ZM97.9682 15.5598C97.0682 18.5998 96.1282 21.4498 95.1482 24.1098C94.1682 26.7698 93.0982 29.3498 91.9382 31.8498C91.5182 32.7498 91.0982 33.5098 90.6782 34.1298C90.2582 34.7698 89.7982 35.2898 89.2982 35.6898C88.7982 36.1098 88.2282 36.4098 87.5882 36.5898C86.9682 36.7898 86.2382 36.8898 85.3982 36.8898C84.6982 36.8898 84.0482 36.8198 83.4482 36.6798C82.8682 36.5598 82.3882 36.4198 82.0082 36.2598L82.7882 32.6898C83.2482 32.8498 83.6582 32.9598 84.0182 33.0198C84.3782 33.0798 84.7582 33.1098 85.1582 33.1098C85.9582 33.1098 86.5682 32.8898 86.9882 32.4498C87.4282 32.0298 87.7982 31.4398 88.0982 30.6798C87.0782 28.6798 86.0582 26.4398 85.0382 23.9598C84.0182 21.4598 83.0582 18.6598 82.1582 15.5598H86.8982C87.0982 16.3398 87.3282 17.1898 87.5882 18.1098C87.8682 19.0098 88.1582 19.9298 88.4582 20.8698C88.7582 21.7898 89.0582 22.6898 89.3582 23.5698C89.6782 24.4498 89.9782 25.2498 90.2582 25.9698C90.5182 25.2498 90.7882 24.4498 91.0682 23.5698C91.3482 22.6898 91.6182 21.7898 91.8782 20.8698C92.1582 19.9298 92.4182 19.0098 92.6582 18.1098C92.9182 17.1898 93.1482 16.3398 93.3482 15.5598H97.9682Z" fill="#7782FF"/>
</svg>
