<svg width="46" height="46" viewBox="0 0 46 46" fill="none" xmlns="http://www.w3.org/2000/svg">
<rect width="45.4579" height="45.4579" transform="translate(0.342773 0.501953)" fill="white"/>
<path opacity="0.2" d="M19.5202 26.0728H7.44546C7.06871 26.0728 6.70738 25.9231 6.44098 25.6567C6.17457 25.3903 6.0249 25.029 6.0249 24.6522V13.2877C6.0249 12.911 6.17457 12.5497 6.44098 12.2833C6.70738 12.0169 7.06871 11.8672 7.44546 11.8672H18.0997C18.4764 11.8672 18.8377 12.0169 19.1042 12.2833C19.3706 12.5497 19.5202 12.911 19.5202 13.2877V26.0728Z" fill="#D91222"/>
<path opacity="0.2" d="M40.1184 26.0728H28.0436C27.6669 26.0728 27.3055 25.9231 27.0391 25.6567C26.7727 25.3903 26.623 25.029 26.623 24.6522V13.2877C26.623 12.911 26.7727 12.5497 27.0391 12.2833C27.3055 12.0169 27.6669 11.8672 28.0436 11.8672H38.6978C39.0746 11.8672 39.4359 12.0169 39.7023 12.2833C39.9687 12.5497 40.1184 12.911 40.1184 13.2877V26.0728Z" fill="#D91222"/>
<path d="M19.5202 26.0728H7.44546C7.06871 26.0728 6.70738 25.9231 6.44098 25.6567C6.17457 25.3903 6.0249 25.029 6.0249 24.6522V13.2877C6.0249 12.911 6.17457 12.5497 6.44098 12.2833C6.70738 12.0169 7.06871 11.8672 7.44546 11.8672H18.0997C18.4764 11.8672 18.8377 12.0169 19.1042 12.2833C19.3706 12.5497 19.5202 12.911 19.5202 13.2877V28.9139C19.5202 30.7977 18.7719 32.6043 17.4399 33.9364C16.1078 35.2684 14.3012 36.0167 12.4174 36.0167" stroke="#D91222" stroke-width="1.89408" stroke-linecap="round" stroke-linejoin="round"/>
<path d="M40.1184 26.0728H28.0436C27.6669 26.0728 27.3055 25.9231 27.0391 25.6567C26.7727 25.3903 26.623 25.029 26.623 24.6522V13.2877C26.623 12.911 26.7727 12.5497 27.0391 12.2833C27.3055 12.0169 27.6669 11.8672 28.0436 11.8672H38.6978C39.0746 11.8672 39.4359 12.0169 39.7023 12.2833C39.9687 12.5497 40.1184 12.911 40.1184 13.2877V28.9139C40.1184 30.7977 39.37 32.6043 38.038 33.9364C36.706 35.2684 34.8994 36.0167 33.0156 36.0167" stroke="#D91222" stroke-width="1.89408" stroke-linecap="round" stroke-linejoin="round"/>
</svg>
