<svg width="150" height="50" viewBox="0 0 150 50" fill="none" xmlns="http://www.w3.org/2000/svg">
<path d="M149.148 8.33416C146.644 7.27813 144.095 6.45554 141.512 5.8108C138.941 5.13272 136.336 4.65473 133.72 4.32125C132.417 4.12116 131.093 4.0767 129.79 3.92107C128.476 3.88772 127.174 3.75433 125.86 3.80991C125.209 3.82102 124.546 3.82102 123.895 3.80991C123.244 3.80991 122.581 3.87661 121.93 3.89884C121.279 3.9433 120.616 3.95442 119.965 4.02112L118.011 4.25455C115.395 4.46576 112.858 4.99933 110.32 5.65518C107.749 6.26656 105.312 7.13362 102.718 8.00067C100.057 8.87885 97.1716 9.41242 94.2747 9.01224C92.8487 8.7788 91.4114 8.27858 90.2774 7.38929C89.1209 6.51112 88.3349 5.31058 87.8521 4.05446C88.6493 5.15495 89.6374 6.05536 90.7714 6.61116C91.9055 7.16697 93.1518 7.4004 94.3982 7.38929C96.9134 7.38929 99.406 6.58893 101.764 5.58848C104.167 4.45464 106.806 3.45419 109.433 2.6316C112.083 1.84236 114.845 1.24209 117.607 0.953074C123.12 0.375037 128.757 0.50843 134.158 1.77566C136.864 2.34258 139.503 3.20964 142.029 4.27678C144.567 5.36616 147.014 6.63339 149.148 8.33416Z" fill="#FEBA66"/>
<path d="M0.852051 40.9609C3.80511 42.1837 6.81431 43.1285 9.87966 43.8511C12.9225 44.607 16.0216 45.1405 19.1206 45.474C20.6701 45.6852 22.2309 45.7074 23.7692 45.852C25.3299 45.8631 26.8794 45.9854 28.4289 45.8964L30.7532 45.8408C31.528 45.8297 32.3027 45.7297 33.0775 45.6852C33.8522 45.6185 34.627 45.5852 35.3905 45.4851L37.6923 45.1628C40.7801 44.8293 43.7781 44.1179 46.7649 43.2619C49.7853 42.4393 52.6373 41.3499 55.6577 40.2161C58.7455 39.0934 62.0916 38.3597 65.4826 38.7154C67.1556 38.9266 68.8399 39.4602 70.2097 40.4384C71.5908 41.4055 72.5789 42.7839 73.2077 44.229C72.2645 42.9395 71.0855 41.8835 69.7269 41.2277C68.3683 40.5718 66.8749 40.305 65.3927 40.3495C62.3948 40.394 59.4417 41.3833 56.6683 42.6283C53.85 44.0067 50.7958 45.2517 47.7193 46.2855C44.6202 47.2748 41.4202 48.0641 38.1752 48.4642C31.7188 49.3091 25.1053 49.3202 18.7276 48.0418C15.5275 47.4638 12.406 46.5634 9.3856 45.4184C6.38763 44.229 3.45703 42.8395 0.852051 40.9609Z" fill="#FEBA66"/>
<path d="M4.27205 30.625L2.05205 28.405V18.105L4.27205 15.885H11.2321L13.2521 17.905L11.6721 19.505L10.2121 18.085H5.43205L4.55205 18.965L4.57205 27.545L5.43205 28.425H10.3921L11.8521 26.985L13.4321 28.605L11.4121 30.625H4.27205ZM17.4603 30.625L15.2403 28.405V20.165H17.6603V27.825L18.5003 28.745H20.5203L22.6403 26.665V20.165H25.0603V30.625H22.6403V29.125L21.1203 30.625H17.4603ZM28.0552 30.625V20.165H30.4752V22.025L32.3552 20.165H34.7152V22.585H32.3752L30.4752 24.485V30.625H28.0552ZM36.4146 30.625V20.165H38.8346V22.025L40.7146 20.165H43.0746V22.585H40.7346L38.8346 24.485V30.625H36.4146ZM46.5791 30.625L44.3591 28.405V22.405L46.5791 20.165H51.3791L53.5991 22.405V26.285H46.7791V27.765L47.6591 28.645H53.4191V30.625H46.5791ZM46.7791 24.425H51.1791V22.925L50.2991 22.045H47.6591L46.7791 22.925V24.425ZM56.395 30.625V20.165H58.815V22.025L60.695 20.165H64.435L66.655 22.405V30.625H64.235V22.965L63.395 22.045H61.275L58.815 24.485V30.625H56.395ZM71.5791 30.625L69.3591 28.405V22.405L71.5791 20.165H76.5791L78.5791 22.125V24.085H76.1591V22.925L75.2791 22.045H72.6591L71.7791 22.925V27.765L72.6591 28.645H78.4991V30.625H71.5791ZM82.4728 34.365L84.3128 30.025H83.3928L79.3528 20.165H82.0128L84.8128 27.645H85.2928L88.0928 20.165H90.7528L84.9128 34.365H82.4728ZM99.2758 30.625L95.8958 15.885H98.5558L100.916 28.245H101.396L103.756 15.885H105.996L108.356 28.245H108.836L111.196 15.885H113.856L110.456 30.625H106.676L104.876 21.325L103.076 30.625H99.2758ZM116.211 30.625L113.991 28.405V26.145L116.211 23.905H121.271V23.025L120.391 22.145H115.371V20.165H121.471L123.691 22.405V30.625H121.271V29.105L119.731 30.625H116.211ZM117.291 28.765L119.171 28.745L121.271 26.645V25.785H117.291L116.411 26.665V27.865L117.291 28.765ZM129.263 30.625L124.783 20.165H127.443L130.463 28.245H130.943L133.963 20.165H136.623L132.123 30.625H129.263ZM139.841 30.625L137.621 28.405V22.405L139.841 20.165H144.641L146.861 22.405V26.285H140.041V27.765L140.921 28.645H146.681V30.625H139.841ZM140.041 24.425H144.441V22.925L143.561 22.045H140.921L140.041 22.925V24.425Z" fill="#263238"/>
</svg>
