<svg width="588" height="622" viewBox="0 0 588 622" fill="none" xmlns="http://www.w3.org/2000/svg">
<path d="M81.7599 276.24C82.6399 276.24 83.3599 276.173 83.9199 276.04C84.5065 275.88 84.9732 275.68 85.3199 275.44C85.6665 275.173 85.9065 274.867 86.0399 274.52C86.1732 274.173 86.2399 273.787 86.2399 273.36C86.2399 272.453 85.8132 271.707 84.9599 271.12C84.1065 270.507 82.6399 269.853 80.5599 269.16C79.6532 268.84 78.7465 268.48 77.8399 268.08C76.9332 267.653 76.1199 267.133 75.3999 266.52C74.6799 265.88 74.0932 265.12 73.6399 264.24C73.1865 263.333 72.9599 262.24 72.9599 260.96C72.9599 259.68 73.1999 258.533 73.6799 257.52C74.1599 256.48 74.8399 255.6 75.7199 254.88C76.5999 254.16 77.6665 253.613 78.9199 253.24C80.1732 252.84 81.5865 252.64 83.1599 252.64C85.0265 252.64 86.6399 252.84 87.9999 253.24C89.3599 253.64 90.4799 254.08 91.3599 254.56L89.5599 259.48C88.7865 259.08 87.9199 258.733 86.9599 258.44C86.0265 258.12 84.8932 257.96 83.5599 257.96C82.0665 257.96 80.9865 258.173 80.3199 258.6C79.6799 259 79.3599 259.627 79.3599 260.48C79.3599 260.987 79.4799 261.413 79.7199 261.76C79.9599 262.107 80.2932 262.427 80.7199 262.72C81.1732 262.987 81.6799 263.24 82.2399 263.48C82.8265 263.693 83.4665 263.92 84.1599 264.16C85.5999 264.693 86.8532 265.227 87.9199 265.76C88.9865 266.267 89.8665 266.867 90.5599 267.56C91.2799 268.253 91.8132 269.067 92.1599 270C92.5065 270.933 92.6799 272.067 92.6799 273.4C92.6799 275.987 91.7732 278 89.9599 279.44C88.1465 280.853 85.4132 281.56 81.7599 281.56C80.5332 281.56 79.4265 281.48 78.4399 281.32C77.4532 281.187 76.5732 281.013 75.7999 280.8C75.0532 280.587 74.3999 280.36 73.8399 280.12C73.3065 279.88 72.8532 279.653 72.4799 279.44L74.2399 274.48C75.0665 274.933 76.0799 275.347 77.2799 275.72C78.5065 276.067 79.9999 276.24 81.7599 276.24ZM96.8811 254.72L102.841 253.76V259.96H110.001V264.92H102.841V272.32C102.841 273.573 103.054 274.573 103.481 275.32C103.934 276.067 104.828 276.44 106.161 276.44C106.801 276.44 107.454 276.387 108.121 276.28C108.814 276.147 109.441 275.973 110.001 275.76L110.841 280.4C110.121 280.693 109.321 280.947 108.441 281.16C107.561 281.373 106.481 281.48 105.201 281.48C103.574 281.48 102.228 281.267 101.161 280.84C100.094 280.387 99.2411 279.773 98.6011 279C97.9611 278.2 97.5078 277.24 97.2411 276.12C97.0011 275 96.8811 273.76 96.8811 272.4V254.72ZM113.073 270.64C113.073 268.773 113.353 267.147 113.913 265.76C114.5 264.347 115.26 263.173 116.193 262.24C117.127 261.307 118.193 260.6 119.393 260.12C120.62 259.64 121.873 259.4 123.153 259.4C126.14 259.4 128.5 260.32 130.233 262.16C131.967 263.973 132.833 266.653 132.833 270.2C132.833 270.547 132.82 270.933 132.793 271.36C132.767 271.76 132.74 272.12 132.713 272.44H119.193C119.327 273.667 119.9 274.64 120.913 275.36C121.927 276.08 123.287 276.44 124.993 276.44C126.087 276.44 127.153 276.347 128.193 276.16C129.26 275.947 130.127 275.693 130.793 275.4L131.593 280.24C131.273 280.4 130.847 280.56 130.313 280.72C129.78 280.88 129.18 281.013 128.513 281.12C127.873 281.253 127.18 281.36 126.433 281.44C125.687 281.52 124.94 281.56 124.193 281.56C122.3 281.56 120.647 281.28 119.233 280.72C117.847 280.16 116.687 279.4 115.753 278.44C114.847 277.453 114.167 276.293 113.713 274.96C113.287 273.627 113.073 272.187 113.073 270.64ZM127.073 268.36C127.047 267.853 126.953 267.36 126.793 266.88C126.66 266.4 126.433 265.973 126.113 265.6C125.82 265.227 125.433 264.92 124.953 264.68C124.5 264.44 123.927 264.32 123.233 264.32C122.567 264.32 121.993 264.44 121.513 264.68C121.033 264.893 120.633 265.187 120.313 265.56C119.993 265.933 119.74 266.373 119.553 266.88C119.393 267.36 119.273 267.853 119.193 268.36H127.073ZM150.913 270.64C150.913 268.8 150.499 267.333 149.673 266.24C148.846 265.12 147.619 264.56 145.993 264.56C145.459 264.56 144.966 264.587 144.513 264.64C144.059 264.667 143.686 264.707 143.393 264.76V275.52C143.766 275.76 144.246 275.96 144.833 276.12C145.446 276.28 146.059 276.36 146.673 276.36C149.499 276.36 150.913 274.453 150.913 270.64ZM156.993 270.48C156.993 272.107 156.793 273.587 156.393 274.92C155.993 276.253 155.406 277.4 154.633 278.36C153.859 279.32 152.899 280.067 151.753 280.6C150.606 281.133 149.286 281.4 147.793 281.4C146.966 281.4 146.193 281.32 145.473 281.16C144.753 281 144.059 280.773 143.393 280.48V288.4H137.433V260.68C137.966 260.52 138.579 260.373 139.273 260.24C139.966 260.08 140.686 259.947 141.433 259.84C142.206 259.733 142.979 259.653 143.753 259.6C144.553 259.52 145.313 259.48 146.033 259.48C147.766 259.48 149.313 259.747 150.673 260.28C152.033 260.787 153.179 261.52 154.113 262.48C155.046 263.413 155.753 264.56 156.233 265.92C156.739 267.28 156.993 268.8 156.993 270.48ZM167.613 276.72C168.707 276.72 169.48 276.613 169.933 276.4C170.387 276.187 170.613 275.773 170.613 275.16C170.613 274.68 170.32 274.267 169.733 273.92C169.147 273.547 168.253 273.133 167.053 272.68C166.12 272.333 165.267 271.973 164.493 271.6C163.747 271.227 163.107 270.787 162.573 270.28C162.04 269.747 161.627 269.12 161.333 268.4C161.04 267.68 160.893 266.813 160.893 265.8C160.893 263.827 161.627 262.267 163.093 261.12C164.56 259.973 166.573 259.4 169.133 259.4C170.413 259.4 171.64 259.52 172.813 259.76C173.987 259.973 174.92 260.213 175.613 260.48L174.573 265.12C173.88 264.88 173.12 264.667 172.293 264.48C171.493 264.293 170.587 264.2 169.573 264.2C167.707 264.2 166.773 264.72 166.773 265.76C166.773 266 166.813 266.213 166.893 266.4C166.973 266.587 167.133 266.773 167.373 266.96C167.613 267.12 167.933 267.307 168.333 267.52C168.76 267.707 169.293 267.92 169.933 268.16C171.24 268.64 172.32 269.12 173.173 269.6C174.027 270.053 174.693 270.56 175.173 271.12C175.68 271.653 176.027 272.253 176.213 272.92C176.427 273.587 176.533 274.36 176.533 275.24C176.533 277.32 175.747 278.893 174.173 279.96C172.627 281.027 170.427 281.56 167.573 281.56C165.707 281.56 164.147 281.4 162.893 281.08C161.667 280.76 160.813 280.493 160.333 280.28L161.333 275.44C162.347 275.84 163.387 276.16 164.453 276.4C165.52 276.613 166.573 276.72 167.613 276.72ZM211.557 253.28V258.6H203.197V281H196.957V258.6H188.597V253.28H211.557ZM231.839 270.44C231.839 272.093 231.599 273.613 231.119 275C230.639 276.36 229.946 277.533 229.039 278.52C228.133 279.48 227.039 280.227 225.759 280.76C224.506 281.293 223.093 281.56 221.519 281.56C219.973 281.56 218.559 281.293 217.279 280.76C216.026 280.227 214.946 279.48 214.039 278.52C213.133 277.533 212.426 276.36 211.919 275C211.413 273.613 211.159 272.093 211.159 270.44C211.159 268.787 211.413 267.28 211.919 265.92C212.453 264.56 213.173 263.4 214.079 262.44C215.013 261.48 216.106 260.733 217.359 260.2C218.639 259.667 220.026 259.4 221.519 259.4C223.039 259.4 224.426 259.667 225.679 260.2C226.959 260.733 228.053 261.48 228.959 262.44C229.866 263.4 230.573 264.56 231.079 265.92C231.586 267.28 231.839 268.787 231.839 270.44ZM225.759 270.44C225.759 268.6 225.386 267.16 224.639 266.12C223.919 265.053 222.879 264.52 221.519 264.52C220.159 264.52 219.106 265.053 218.359 266.12C217.613 267.16 217.239 268.6 217.239 270.44C217.239 272.28 217.613 273.747 218.359 274.84C219.106 275.907 220.159 276.44 221.519 276.44C222.879 276.44 223.919 275.907 224.639 274.84C225.386 273.747 225.759 272.28 225.759 270.44ZM267.026 253.28V258.6H258.666V281H252.426V258.6H244.066V253.28H267.026ZM280.542 265.24C280.009 265.107 279.382 264.973 278.662 264.84C277.942 264.68 277.169 264.6 276.342 264.6C275.969 264.6 275.516 264.64 274.982 264.72C274.476 264.773 274.089 264.84 273.822 264.92V281H267.862V261.08C268.929 260.707 270.182 260.36 271.622 260.04C273.089 259.693 274.716 259.52 276.502 259.52C276.822 259.52 277.209 259.547 277.662 259.6C278.116 259.627 278.569 259.68 279.022 259.76C279.476 259.813 279.929 259.893 280.382 260C280.836 260.08 281.222 260.187 281.542 260.32L280.542 265.24ZM292.387 276.84C292.973 276.84 293.533 276.827 294.067 276.8C294.6 276.773 295.027 276.733 295.347 276.68V272.16C295.107 272.107 294.747 272.053 294.267 272C293.787 271.947 293.347 271.92 292.947 271.92C292.387 271.92 291.853 271.96 291.347 272.04C290.867 272.093 290.44 272.213 290.067 272.4C289.693 272.587 289.4 272.84 289.187 273.16C288.973 273.48 288.867 273.88 288.867 274.36C288.867 275.293 289.173 275.947 289.787 276.32C290.427 276.667 291.293 276.84 292.387 276.84ZM291.907 259.4C293.667 259.4 295.133 259.6 296.307 260C297.48 260.4 298.413 260.973 299.107 261.72C299.827 262.467 300.333 263.373 300.627 264.44C300.92 265.507 301.067 266.693 301.067 268V280.4C300.213 280.587 299.027 280.8 297.507 281.04C295.987 281.307 294.147 281.44 291.987 281.44C290.627 281.44 289.387 281.32 288.267 281.08C287.173 280.84 286.227 280.453 285.427 279.92C284.627 279.36 284.013 278.64 283.587 277.76C283.16 276.88 282.947 275.8 282.947 274.52C282.947 273.293 283.187 272.253 283.667 271.4C284.173 270.547 284.84 269.867 285.667 269.36C286.493 268.853 287.44 268.493 288.507 268.28C289.573 268.04 290.68 267.92 291.827 267.92C292.6 267.92 293.28 267.96 293.867 268.04C294.48 268.093 294.973 268.173 295.347 268.28V267.72C295.347 266.707 295.04 265.893 294.427 265.28C293.813 264.667 292.747 264.36 291.227 264.36C290.213 264.36 289.213 264.44 288.227 264.6C287.24 264.733 286.387 264.933 285.667 265.2L284.907 260.4C285.253 260.293 285.68 260.187 286.187 260.08C286.72 259.947 287.293 259.84 287.907 259.76C288.52 259.653 289.16 259.573 289.827 259.52C290.52 259.44 291.213 259.4 291.907 259.4ZM311.536 270.32C311.536 272.16 311.949 273.64 312.776 274.76C313.603 275.88 314.829 276.44 316.456 276.44C316.989 276.44 317.483 276.427 317.936 276.4C318.389 276.347 318.763 276.293 319.056 276.24V265.4C318.683 265.16 318.189 264.96 317.576 264.8C316.989 264.64 316.389 264.56 315.776 264.56C312.949 264.56 311.536 266.48 311.536 270.32ZM325.016 280.32C324.483 280.48 323.869 280.64 323.176 280.8C322.483 280.933 321.749 281.053 320.976 281.16C320.229 281.267 319.456 281.347 318.656 281.4C317.883 281.48 317.136 281.52 316.416 281.52C314.683 281.52 313.136 281.267 311.776 280.76C310.416 280.253 309.269 279.533 308.336 278.6C307.403 277.64 306.683 276.493 306.176 275.16C305.696 273.8 305.456 272.28 305.456 270.6C305.456 268.893 305.669 267.36 306.096 266C306.523 264.613 307.136 263.44 307.936 262.48C308.736 261.52 309.709 260.787 310.856 260.28C312.029 259.773 313.363 259.52 314.856 259.52C315.683 259.52 316.416 259.6 317.056 259.76C317.723 259.92 318.389 260.147 319.056 260.44V250.92L325.016 249.96V280.32ZM329.597 270.64C329.597 268.773 329.877 267.147 330.437 265.76C331.023 264.347 331.783 263.173 332.717 262.24C333.65 261.307 334.717 260.6 335.917 260.12C337.143 259.64 338.397 259.4 339.677 259.4C342.663 259.4 345.023 260.32 346.757 262.16C348.49 263.973 349.357 266.653 349.357 270.2C349.357 270.547 349.343 270.933 349.317 271.36C349.29 271.76 349.263 272.12 349.237 272.44H335.717C335.85 273.667 336.423 274.64 337.437 275.36C338.45 276.08 339.81 276.44 341.517 276.44C342.61 276.44 343.677 276.347 344.717 276.16C345.783 275.947 346.65 275.693 347.317 275.4L348.117 280.24C347.797 280.4 347.37 280.56 346.837 280.72C346.303 280.88 345.703 281.013 345.037 281.12C344.397 281.253 343.703 281.36 342.957 281.44C342.21 281.52 341.463 281.56 340.717 281.56C338.823 281.56 337.17 281.28 335.757 280.72C334.37 280.16 333.21 279.4 332.277 278.44C331.37 277.453 330.69 276.293 330.237 274.96C329.81 273.627 329.597 272.187 329.597 270.64ZM343.597 268.36C343.57 267.853 343.477 267.36 343.317 266.88C343.183 266.4 342.957 265.973 342.637 265.6C342.343 265.227 341.957 264.92 341.477 264.68C341.023 264.44 340.45 264.32 339.757 264.32C339.09 264.32 338.517 264.44 338.037 264.68C337.557 264.893 337.157 265.187 336.837 265.56C336.517 265.933 336.263 266.373 336.077 266.88C335.917 267.36 335.797 267.853 335.717 268.36H343.597Z" fill="#212326"/>
<path d="M61.6072 312C61.4666 311.57 61.2812 311.184 61.0511 310.843C60.8253 310.498 60.5547 310.204 60.2393 309.961C59.9282 309.718 59.5745 309.533 59.1782 309.405C58.7819 309.277 58.3473 309.213 57.8743 309.213C57.0987 309.213 56.3934 309.413 55.7585 309.814C55.1235 310.214 54.6186 310.805 54.2436 311.585C53.8686 312.364 53.6811 313.321 53.6811 314.455C53.6811 315.588 53.8707 316.545 54.25 317.325C54.6292 318.104 55.1427 318.695 55.7904 319.095C56.4382 319.496 57.1669 319.696 57.9765 319.696C58.7265 319.696 59.387 319.536 59.9581 319.217C60.5333 318.893 60.9808 318.437 61.3004 317.849C61.6243 317.256 61.7862 316.56 61.7862 315.759L62.272 315.861H58.3345V314.455H63.3203V315.861C63.3203 316.939 63.0902 317.876 62.6299 318.673C62.174 319.47 61.5433 320.088 60.7379 320.527C59.9368 320.962 59.0163 321.179 57.9765 321.179C56.8174 321.179 55.799 320.906 54.9211 320.361C54.0476 319.815 53.3657 319.04 52.8757 318.034C52.3899 317.028 52.147 315.835 52.147 314.455C52.147 313.419 52.2855 312.488 52.5625 311.661C52.8437 310.83 53.24 310.123 53.7514 309.539C54.2628 308.955 54.8679 308.508 55.5667 308.197C56.2656 307.886 57.0348 307.73 57.8743 307.73C58.5646 307.73 59.2081 307.835 59.8047 308.043C60.4055 308.248 60.9403 308.54 61.4091 308.919C61.8821 309.294 62.2762 309.744 62.5916 310.268C62.9069 310.788 63.1243 311.365 63.2436 312H61.6072ZM67.3393 307.909V321H65.8308V307.909H67.3393ZM74.0909 321.205C73.2045 321.205 72.4268 320.994 71.7578 320.572C71.093 320.15 70.5731 319.56 70.1981 318.801C69.8274 318.043 69.642 317.156 69.642 316.142C69.642 315.119 69.8274 314.227 70.1981 313.464C70.5731 312.701 71.093 312.109 71.7578 311.687C72.4268 311.265 73.2045 311.054 74.0909 311.054C74.9772 311.054 75.7528 311.265 76.4176 311.687C77.0866 312.109 77.6065 312.701 77.9772 313.464C78.3522 314.227 78.5397 315.119 78.5397 316.142C78.5397 317.156 78.3522 318.043 77.9772 318.801C77.6065 319.56 77.0866 320.15 76.4176 320.572C75.7528 320.994 74.9772 321.205 74.0909 321.205ZM74.0909 319.849C74.7642 319.849 75.3181 319.677 75.7528 319.332C76.1875 318.987 76.5092 318.533 76.718 317.97C76.9268 317.408 77.0312 316.798 77.0312 316.142C77.0312 315.486 76.9268 314.874 76.718 314.308C76.5092 313.741 76.1875 313.283 75.7528 312.933C75.3181 312.584 74.7642 312.409 74.0909 312.409C73.4176 312.409 72.8636 312.584 72.4289 312.933C71.9943 313.283 71.6726 313.741 71.4637 314.308C71.2549 314.874 71.1505 315.486 71.1505 316.142C71.1505 316.798 71.2549 317.408 71.4637 317.97C71.6726 318.533 71.9943 318.987 72.4289 319.332C72.8636 319.677 73.4176 319.849 74.0909 319.849ZM81.047 321V307.909H82.5555V312.741H82.6834C82.7942 312.571 82.9476 312.354 83.1436 312.089C83.3439 311.821 83.6294 311.582 84.0001 311.374C84.3751 311.161 84.8822 311.054 85.5215 311.054C86.3482 311.054 87.0768 311.261 87.7075 311.674C88.3382 312.087 88.8304 312.673 89.1841 313.432C89.5378 314.19 89.7146 315.085 89.7146 316.116C89.7146 317.156 89.5378 318.058 89.1841 318.82C88.8304 319.579 88.3403 320.167 87.7139 320.585C87.0875 320.998 86.3652 321.205 85.547 321.205C84.9163 321.205 84.4114 321.1 84.0321 320.891C83.6528 320.678 83.3609 320.437 83.1564 320.169C82.9518 319.896 82.7942 319.67 82.6834 319.491H82.5044V321H81.047ZM82.53 316.091C82.53 316.832 82.6386 317.487 82.856 318.053C83.0733 318.616 83.3908 319.057 83.8084 319.376C84.226 319.692 84.7374 319.849 85.3425 319.849C85.9732 319.849 86.4994 319.683 86.9213 319.351C87.3474 319.014 87.667 318.562 87.8801 317.996C88.0974 317.425 88.2061 316.79 88.2061 316.091C88.2061 315.401 88.0996 314.778 87.8865 314.224C87.6777 313.666 87.3602 313.225 86.9341 312.901C86.5122 312.573 85.9817 312.409 85.3425 312.409C84.7288 312.409 84.2132 312.565 83.7956 312.876C83.378 313.183 83.0626 313.613 82.8496 314.167C82.6365 314.717 82.53 315.358 82.53 316.091ZM94.9114 321.23C94.2892 321.23 93.7246 321.113 93.2175 320.879C92.7104 320.64 92.3077 320.297 92.0094 319.849C91.7111 319.398 91.5619 318.852 91.5619 318.213C91.5619 317.651 91.6727 317.195 91.8943 316.845C92.1159 316.491 92.4121 316.214 92.7828 316.014C93.1536 315.814 93.5626 315.665 94.0101 315.567C94.4618 315.464 94.9156 315.384 95.3716 315.324C95.9682 315.247 96.4518 315.19 96.8226 315.151C97.1976 315.109 97.4703 315.038 97.6408 314.94C97.8155 314.842 97.9028 314.672 97.9028 314.429V314.378C97.9028 313.747 97.7303 313.257 97.3851 312.908C97.0442 312.558 96.5264 312.384 95.8318 312.384C95.1117 312.384 94.547 312.541 94.1379 312.857C93.7288 313.172 93.4412 313.509 93.275 313.866L91.8432 313.355C92.0989 312.759 92.4398 312.294 92.8659 311.962C93.2963 311.625 93.7651 311.391 94.2722 311.259C94.7835 311.122 95.2864 311.054 95.7807 311.054C96.096 311.054 96.4582 311.092 96.8673 311.169C97.2807 311.241 97.6791 311.393 98.0626 311.623C98.4504 311.853 98.7722 312.2 99.0278 312.665C99.2835 313.129 99.4114 313.751 99.4114 314.531V321H97.9028V319.67H97.8261C97.7239 319.884 97.5534 320.112 97.3148 320.354C97.0761 320.597 96.7587 320.804 96.3624 320.974C95.9661 321.145 95.4824 321.23 94.9114 321.23ZM95.1415 319.875C95.7381 319.875 96.2409 319.758 96.65 319.523C97.0634 319.289 97.3744 318.987 97.5832 318.616C97.7963 318.245 97.9028 317.855 97.9028 317.446V316.065C97.8389 316.142 97.6983 316.212 97.481 316.276C97.2679 316.336 97.0207 316.389 96.7395 316.436C96.4625 316.479 96.1919 316.517 95.9277 316.551C95.6678 316.581 95.4568 316.607 95.2949 316.628C94.9028 316.679 94.5364 316.762 94.1955 316.877C93.8588 316.988 93.5861 317.156 93.3773 317.382C93.1727 317.604 93.0705 317.906 93.0705 318.29C93.0705 318.814 93.2643 319.21 93.6521 319.479C94.0442 319.743 94.5406 319.875 95.1415 319.875ZM103.673 307.909V321H102.165V307.909H103.673ZM111.703 307.909H113.595L118.044 318.776H118.198L122.646 307.909H124.538V321H123.056V311.054H122.928L118.837 321H117.405L113.314 311.054H113.186V321H111.703V307.909ZM130.402 321.23C129.779 321.23 129.215 321.113 128.708 320.879C128.201 320.64 127.798 320.297 127.5 319.849C127.201 319.398 127.052 318.852 127.052 318.213C127.052 317.651 127.163 317.195 127.385 316.845C127.606 316.491 127.902 316.214 128.273 316.014C128.644 315.814 129.053 315.665 129.5 315.567C129.952 315.464 130.406 315.384 130.862 315.324C131.458 315.247 131.942 315.19 132.313 315.151C132.688 315.109 132.961 315.038 133.131 314.94C133.306 314.842 133.393 314.672 133.393 314.429V314.378C133.393 313.747 133.22 313.257 132.875 312.908C132.534 312.558 132.017 312.384 131.322 312.384C130.602 312.384 130.037 312.541 129.628 312.857C129.219 313.172 128.931 313.509 128.765 313.866L127.333 313.355C127.589 312.759 127.93 312.294 128.356 311.962C128.787 311.625 129.255 311.391 129.762 311.259C130.274 311.122 130.777 311.054 131.271 311.054C131.586 311.054 131.948 311.092 132.358 311.169C132.771 311.241 133.169 311.393 133.553 311.623C133.941 311.853 134.262 312.2 134.518 312.665C134.774 313.129 134.902 313.751 134.902 314.531V321H133.393V319.67H133.316C133.214 319.884 133.044 320.112 132.805 320.354C132.566 320.597 132.249 320.804 131.853 320.974C131.456 321.145 130.973 321.23 130.402 321.23ZM130.632 319.875C131.228 319.875 131.731 319.758 132.14 319.523C132.554 319.289 132.865 318.987 133.073 318.616C133.287 318.245 133.393 317.855 133.393 317.446V316.065C133.329 316.142 133.189 316.212 132.971 316.276C132.758 316.336 132.511 316.389 132.23 316.436C131.953 316.479 131.682 316.517 131.418 316.551C131.158 316.581 130.947 316.607 130.785 316.628C130.393 316.679 130.027 316.762 129.686 316.877C129.349 316.988 129.076 317.156 128.868 317.382C128.663 317.604 128.561 317.906 128.561 318.29C128.561 318.814 128.755 319.21 129.142 319.479C129.534 319.743 130.031 319.875 130.632 319.875ZM137.655 321V311.182H139.112V312.665H139.215C139.394 312.179 139.717 311.785 140.186 311.482C140.655 311.18 141.183 311.028 141.771 311.028C141.882 311.028 142.021 311.031 142.187 311.035C142.353 311.039 142.479 311.045 142.564 311.054V312.588C142.513 312.575 142.396 312.556 142.213 312.531C142.034 312.501 141.844 312.486 141.644 312.486C141.166 312.486 140.74 312.586 140.365 312.786C139.994 312.982 139.7 313.255 139.483 313.604C139.27 313.95 139.163 314.344 139.163 314.787V321H137.655ZM145.758 317.42L145.733 315.554H146.04L150.335 311.182H152.202L147.625 315.81H147.497L145.758 317.42ZM144.352 321V307.909H145.861V321H144.352ZM150.591 321L146.756 316.142L147.83 315.094L152.508 321H150.591ZM157.855 321.205C156.909 321.205 156.093 320.996 155.407 320.578C154.725 320.156 154.199 319.568 153.828 318.814C153.462 318.055 153.279 317.173 153.279 316.168C153.279 315.162 153.462 314.276 153.828 313.509C154.199 312.737 154.715 312.136 155.375 311.706C156.04 311.271 156.816 311.054 157.702 311.054C158.213 311.054 158.718 311.139 159.217 311.31C159.716 311.48 160.169 311.757 160.578 312.141C160.988 312.52 161.314 313.023 161.556 313.649C161.799 314.276 161.921 315.047 161.921 315.963V316.602H154.353V315.298H160.387C160.387 314.744 160.276 314.25 160.054 313.815C159.837 313.381 159.526 313.038 159.121 312.786C158.72 312.535 158.247 312.409 157.702 312.409C157.101 312.409 156.581 312.558 156.142 312.857C155.708 313.151 155.373 313.534 155.139 314.007C154.904 314.48 154.787 314.987 154.787 315.528V316.398C154.787 317.139 154.915 317.768 155.171 318.283C155.431 318.795 155.791 319.185 156.251 319.453C156.711 319.717 157.246 319.849 157.855 319.849C158.252 319.849 158.61 319.794 158.929 319.683C159.253 319.568 159.532 319.398 159.767 319.172C160.001 318.942 160.182 318.656 160.31 318.315L161.767 318.724C161.614 319.219 161.356 319.653 160.994 320.028C160.632 320.399 160.184 320.689 159.652 320.898C159.119 321.102 158.52 321.205 157.855 321.205ZM168.485 311.182V312.46H163.397V311.182H168.485ZM164.88 308.83H166.389V318.188C166.389 318.614 166.451 318.933 166.574 319.146C166.702 319.355 166.864 319.496 167.06 319.568C167.26 319.636 167.471 319.67 167.693 319.67C167.859 319.67 167.995 319.662 168.102 319.645C168.208 319.624 168.294 319.607 168.358 319.594L168.664 320.949C168.562 320.987 168.419 321.026 168.236 321.064C168.053 321.107 167.821 321.128 167.539 321.128C167.113 321.128 166.696 321.036 166.287 320.853C165.882 320.67 165.545 320.391 165.277 320.016C165.012 319.641 164.88 319.168 164.88 318.597V308.83ZM176.559 321H174.897L179.703 307.909H181.34L186.147 321H184.485L180.573 309.98H180.47L176.559 321ZM177.172 315.886H183.871V317.293H177.172V315.886ZM191.97 321.205C191.049 321.205 190.257 320.987 189.592 320.553C188.927 320.118 188.416 319.519 188.058 318.756C187.7 317.994 187.521 317.122 187.521 316.142C187.521 315.145 187.704 314.265 188.071 313.502C188.441 312.735 188.957 312.136 189.618 311.706C190.282 311.271 191.058 311.054 191.944 311.054C192.635 311.054 193.257 311.182 193.811 311.438C194.365 311.693 194.819 312.051 195.172 312.511C195.526 312.972 195.745 313.509 195.831 314.122H194.322C194.207 313.675 193.951 313.278 193.555 312.933C193.163 312.584 192.635 312.409 191.97 312.409C191.382 312.409 190.866 312.562 190.423 312.869C189.984 313.172 189.641 313.6 189.394 314.154C189.151 314.704 189.029 315.349 189.029 316.091C189.029 316.849 189.149 317.51 189.387 318.072C189.63 318.635 189.971 319.072 190.41 319.383C190.853 319.694 191.373 319.849 191.97 319.849C192.362 319.849 192.718 319.781 193.037 319.645C193.357 319.509 193.627 319.312 193.849 319.057C194.071 318.801 194.228 318.494 194.322 318.136H195.831C195.745 318.716 195.534 319.238 195.198 319.702C194.865 320.163 194.424 320.529 193.875 320.802C193.329 321.07 192.694 321.205 191.97 321.205ZM202.024 321.205C201.104 321.205 200.311 320.987 199.647 320.553C198.982 320.118 198.47 319.519 198.113 318.756C197.755 317.994 197.576 317.122 197.576 316.142C197.576 315.145 197.759 314.265 198.125 313.502C198.496 312.735 199.012 312.136 199.672 311.706C200.337 311.271 201.113 311.054 201.999 311.054C202.689 311.054 203.311 311.182 203.865 311.438C204.419 311.693 204.873 312.051 205.227 312.511C205.581 312.972 205.8 313.509 205.885 314.122H204.377C204.262 313.675 204.006 313.278 203.61 312.933C203.218 312.584 202.689 312.409 202.024 312.409C201.436 312.409 200.921 312.562 200.478 312.869C200.039 313.172 199.696 313.6 199.448 314.154C199.206 314.704 199.084 315.349 199.084 316.091C199.084 316.849 199.203 317.51 199.442 318.072C199.685 318.635 200.026 319.072 200.465 319.383C200.908 319.694 201.428 319.849 202.024 319.849C202.417 319.849 202.772 319.781 203.092 319.645C203.412 319.509 203.682 319.312 203.904 319.057C204.125 318.801 204.283 318.494 204.377 318.136H205.885C205.8 318.716 205.589 319.238 205.252 319.702C204.92 320.163 204.479 320.529 203.929 320.802C203.384 321.07 202.749 321.205 202.024 321.205ZM212.207 321.205C211.261 321.205 210.445 320.996 209.759 320.578C209.077 320.156 208.551 319.568 208.18 318.814C207.814 318.055 207.63 317.173 207.63 316.168C207.63 315.162 207.814 314.276 208.18 313.509C208.551 312.737 209.066 312.136 209.727 311.706C210.392 311.271 211.167 311.054 212.054 311.054C212.565 311.054 213.07 311.139 213.569 311.31C214.067 311.48 214.521 311.757 214.93 312.141C215.339 312.52 215.665 313.023 215.908 313.649C216.151 314.276 216.272 315.047 216.272 315.963V316.602H208.704V315.298H214.738C214.738 314.744 214.627 314.25 214.406 313.815C214.189 313.381 213.877 313.038 213.473 312.786C213.072 312.535 212.599 312.409 212.054 312.409C211.453 312.409 210.933 312.558 210.494 312.857C210.059 313.151 209.725 313.534 209.49 314.007C209.256 314.48 209.139 314.987 209.139 315.528V316.398C209.139 317.139 209.267 317.768 209.522 318.283C209.782 318.795 210.142 319.185 210.603 319.453C211.063 319.717 211.598 319.849 212.207 319.849C212.603 319.849 212.961 319.794 213.281 319.683C213.605 319.568 213.884 319.398 214.118 319.172C214.353 318.942 214.534 318.656 214.662 318.315L216.119 318.724C215.966 319.219 215.708 319.653 215.345 320.028C214.983 320.399 214.536 320.689 214.003 320.898C213.47 321.102 212.872 321.205 212.207 321.205ZM225.522 313.381L224.167 313.764C224.081 313.538 223.956 313.319 223.789 313.106C223.627 312.888 223.406 312.71 223.125 312.569C222.843 312.428 222.483 312.358 222.044 312.358C221.444 312.358 220.943 312.496 220.542 312.773C220.146 313.046 219.948 313.393 219.948 313.815C219.948 314.19 220.084 314.487 220.357 314.704C220.63 314.921 221.056 315.102 221.635 315.247L223.093 315.605C223.97 315.818 224.625 316.144 225.055 316.583C225.485 317.018 225.701 317.578 225.701 318.264C225.701 318.827 225.539 319.33 225.215 319.773C224.895 320.216 224.448 320.565 223.872 320.821C223.297 321.077 222.628 321.205 221.865 321.205C220.864 321.205 220.035 320.987 219.379 320.553C218.723 320.118 218.307 319.483 218.132 318.648L219.564 318.29C219.701 318.818 219.958 319.214 220.338 319.479C220.721 319.743 221.222 319.875 221.84 319.875C222.543 319.875 223.101 319.726 223.515 319.428C223.932 319.125 224.141 318.763 224.141 318.341C224.141 318 224.022 317.714 223.783 317.484C223.544 317.25 223.178 317.075 222.684 316.96L221.047 316.577C220.148 316.364 219.488 316.033 219.066 315.586C218.648 315.134 218.439 314.57 218.439 313.892C218.439 313.338 218.595 312.848 218.906 312.422C219.221 311.996 219.649 311.661 220.191 311.418C220.736 311.175 221.354 311.054 222.044 311.054C223.016 311.054 223.779 311.267 224.333 311.693C224.891 312.119 225.287 312.682 225.522 313.381ZM234.926 313.381L233.571 313.764C233.486 313.538 233.36 313.319 233.194 313.106C233.032 312.888 232.81 312.71 232.529 312.569C232.248 312.428 231.888 312.358 231.449 312.358C230.848 312.358 230.347 312.496 229.947 312.773C229.55 313.046 229.352 313.393 229.352 313.815C229.352 314.19 229.488 314.487 229.761 314.704C230.034 314.921 230.46 315.102 231.04 315.247L232.497 315.605C233.375 315.818 234.029 316.144 234.459 316.583C234.89 317.018 235.105 317.578 235.105 318.264C235.105 318.827 234.943 319.33 234.619 319.773C234.3 320.216 233.852 320.565 233.277 320.821C232.701 321.077 232.032 321.205 231.27 321.205C230.268 321.205 229.439 320.987 228.783 320.553C228.127 320.118 227.711 319.483 227.537 318.648L228.969 318.29C229.105 318.818 229.363 319.214 229.742 319.479C230.125 319.743 230.626 319.875 231.244 319.875C231.947 319.875 232.505 319.726 232.919 319.428C233.336 319.125 233.545 318.763 233.545 318.341C233.545 318 233.426 317.714 233.187 317.484C232.949 317.25 232.582 317.075 232.088 316.96L230.451 316.577C229.552 316.364 228.892 316.033 228.47 315.586C228.052 315.134 227.844 314.57 227.844 313.892C227.844 313.338 227.999 312.848 228.31 312.422C228.625 311.996 229.054 311.661 229.595 311.418C230.14 311.175 230.758 311.054 231.449 311.054C232.42 311.054 233.183 311.267 233.737 311.693C234.295 312.119 234.692 312.682 234.926 313.381ZM243.001 314.685V316.091H237.273V314.685H243.001ZM254.962 321H250.922V307.909H255.141C256.411 307.909 257.497 308.171 258.401 308.695C259.304 309.215 259.997 309.963 260.478 310.939C260.96 311.911 261.2 313.074 261.2 314.429C261.2 315.793 260.958 316.967 260.472 317.951C259.986 318.931 259.279 319.685 258.35 320.214C257.421 320.738 256.291 321 254.962 321ZM252.507 319.594H254.86C255.942 319.594 256.839 319.385 257.551 318.967C258.262 318.55 258.793 317.955 259.142 317.184C259.492 316.413 259.666 315.494 259.666 314.429C259.666 313.372 259.494 312.462 259.149 311.7C258.803 310.933 258.288 310.344 257.602 309.935C256.916 309.522 256.061 309.315 255.038 309.315H252.507V319.594ZM263.655 321V311.182H265.163V321H263.655ZM264.422 309.545C264.128 309.545 263.874 309.445 263.661 309.245C263.453 309.045 263.348 308.804 263.348 308.523C263.348 308.241 263.453 308.001 263.661 307.8C263.874 307.6 264.128 307.5 264.422 307.5C264.716 307.5 264.967 307.6 265.176 307.8C265.389 308.001 265.496 308.241 265.496 308.523C265.496 308.804 265.389 309.045 265.176 309.245C264.967 309.445 264.716 309.545 264.422 309.545ZM274.881 313.381L273.526 313.764C273.441 313.538 273.315 313.319 273.149 313.106C272.987 312.888 272.765 312.71 272.484 312.569C272.203 312.428 271.843 312.358 271.404 312.358C270.803 312.358 270.302 312.496 269.902 312.773C269.505 313.046 269.307 313.393 269.307 313.815C269.307 314.19 269.444 314.487 269.716 314.704C269.989 314.921 270.415 315.102 270.995 315.247L272.452 315.605C273.33 315.818 273.984 316.144 274.414 316.583C274.845 317.018 275.06 317.578 275.06 318.264C275.06 318.827 274.898 319.33 274.574 319.773C274.255 320.216 273.807 320.565 273.232 320.821C272.657 321.077 271.988 321.205 271.225 321.205C270.223 321.205 269.394 320.987 268.738 320.553C268.082 320.118 267.667 319.483 267.492 318.648L268.924 318.29C269.06 318.818 269.318 319.214 269.697 319.479C270.081 319.743 270.581 319.875 271.199 319.875C271.902 319.875 272.461 319.726 272.874 319.428C273.292 319.125 273.5 318.763 273.5 318.341C273.5 318 273.381 317.714 273.142 317.484C272.904 317.25 272.537 317.075 272.043 316.96L270.407 316.577C269.507 316.364 268.847 316.033 268.425 315.586C268.007 315.134 267.799 314.57 267.799 313.892C267.799 313.338 267.954 312.848 268.265 312.422C268.581 311.996 269.009 311.661 269.55 311.418C270.095 311.175 270.713 311.054 271.404 311.054C272.375 311.054 273.138 311.267 273.692 311.693C274.25 312.119 274.647 312.682 274.881 313.381ZM281.319 321.205C280.399 321.205 279.606 320.987 278.942 320.553C278.277 320.118 277.765 319.519 277.407 318.756C277.05 317.994 276.871 317.122 276.871 316.142C276.871 315.145 277.054 314.265 277.42 313.502C277.791 312.735 278.307 312.136 278.967 311.706C279.632 311.271 280.407 311.054 281.294 311.054C281.984 311.054 282.606 311.182 283.16 311.438C283.714 311.693 284.168 312.051 284.522 312.511C284.875 312.972 285.095 313.509 285.18 314.122H283.672C283.557 313.675 283.301 313.278 282.905 312.933C282.513 312.584 281.984 312.409 281.319 312.409C280.731 312.409 280.216 312.562 279.773 312.869C279.334 313.172 278.991 313.6 278.743 314.154C278.5 314.704 278.379 315.349 278.379 316.091C278.379 316.849 278.498 317.51 278.737 318.072C278.98 318.635 279.321 319.072 279.76 319.383C280.203 319.694 280.723 319.849 281.319 319.849C281.711 319.849 282.067 319.781 282.387 319.645C282.706 319.509 282.977 319.312 283.199 319.057C283.42 318.801 283.578 318.494 283.672 318.136H285.18C285.095 318.716 284.884 319.238 284.547 319.702C284.215 320.163 283.774 320.529 283.224 320.802C282.679 321.07 282.044 321.205 281.319 321.205ZM291.374 321.205C290.488 321.205 289.71 320.994 289.041 320.572C288.376 320.15 287.856 319.56 287.481 318.801C287.111 318.043 286.925 317.156 286.925 316.142C286.925 315.119 287.111 314.227 287.481 313.464C287.856 312.701 288.376 312.109 289.041 311.687C289.71 311.265 290.488 311.054 291.374 311.054C292.26 311.054 293.036 311.265 293.701 311.687C294.37 312.109 294.89 312.701 295.26 313.464C295.635 314.227 295.823 315.119 295.823 316.142C295.823 317.156 295.635 318.043 295.26 318.801C294.89 319.56 294.37 320.15 293.701 320.572C293.036 320.994 292.26 321.205 291.374 321.205ZM291.374 319.849C292.047 319.849 292.601 319.677 293.036 319.332C293.471 318.987 293.792 318.533 294.001 317.97C294.21 317.408 294.314 316.798 294.314 316.142C294.314 315.486 294.21 314.874 294.001 314.308C293.792 313.741 293.471 313.283 293.036 312.933C292.601 312.584 292.047 312.409 291.374 312.409C290.701 312.409 290.147 312.584 289.712 312.933C289.277 313.283 288.956 313.741 288.747 314.308C288.538 314.874 288.434 315.486 288.434 316.142C288.434 316.798 288.538 317.408 288.747 317.97C288.956 318.533 289.277 318.987 289.712 319.332C290.147 319.677 290.701 319.849 291.374 319.849ZM305.803 311.182L302.172 321H300.638L297.007 311.182H298.643L301.354 319.006H301.456L304.166 311.182H305.803ZM311.559 321.205C310.613 321.205 309.796 320.996 309.11 320.578C308.429 320.156 307.902 319.568 307.532 318.814C307.165 318.055 306.982 317.173 306.982 316.168C306.982 315.162 307.165 314.276 307.532 313.509C307.902 312.737 308.418 312.136 309.078 311.706C309.743 311.271 310.519 311.054 311.405 311.054C311.917 311.054 312.421 311.139 312.92 311.31C313.419 311.48 313.872 311.757 314.282 312.141C314.691 312.52 315.017 313.023 315.26 313.649C315.502 314.276 315.624 315.047 315.624 315.963V316.602H308.056V315.298H314.09C314.09 314.744 313.979 314.25 313.757 313.815C313.54 313.381 313.229 313.038 312.824 312.786C312.424 312.535 311.951 312.409 311.405 312.409C310.804 312.409 310.284 312.558 309.845 312.857C309.411 313.151 309.076 313.534 308.842 314.007C308.608 314.48 308.49 314.987 308.49 315.528V316.398C308.49 317.139 308.618 317.768 308.874 318.283C309.134 318.795 309.494 319.185 309.954 319.453C310.414 319.717 310.949 319.849 311.559 319.849C311.955 319.849 312.313 319.794 312.632 319.683C312.956 319.568 313.235 319.398 313.47 319.172C313.704 318.942 313.885 318.656 314.013 318.315L315.47 318.724C315.317 319.219 315.059 319.653 314.697 320.028C314.335 320.399 313.887 320.689 313.355 320.898C312.822 321.102 312.223 321.205 311.559 321.205ZM317.919 321V311.182H319.376V312.665H319.478C319.657 312.179 319.981 311.785 320.45 311.482C320.919 311.18 321.447 311.028 322.035 311.028C322.146 311.028 322.284 311.031 322.451 311.035C322.617 311.039 322.743 311.045 322.828 311.054V312.588C322.777 312.575 322.659 312.556 322.476 312.531C322.297 312.501 322.108 312.486 321.907 312.486C321.43 312.486 321.004 312.586 320.629 312.786C320.258 312.982 319.964 313.255 319.747 313.604C319.534 313.95 319.427 314.344 319.427 314.787V321H317.919ZM329.883 307.909H331.775L336.224 318.776H336.377L340.826 307.909H342.718V321H341.235V311.054H341.107L337.016 321H335.585L331.494 311.054H331.366V321H329.883V307.909ZM349.681 321.205C348.794 321.205 348.017 320.994 347.348 320.572C346.683 320.15 346.163 319.56 345.788 318.801C345.417 318.043 345.232 317.156 345.232 316.142C345.232 315.119 345.417 314.227 345.788 313.464C346.163 312.701 346.683 312.109 347.348 311.687C348.017 311.265 348.794 311.054 349.681 311.054C350.567 311.054 351.343 311.265 352.007 311.687C352.676 312.109 353.196 312.701 353.567 313.464C353.942 314.227 354.13 315.119 354.13 316.142C354.13 317.156 353.942 318.043 353.567 318.801C353.196 319.56 352.676 320.15 352.007 320.572C351.343 320.994 350.567 321.205 349.681 321.205ZM349.681 319.849C350.354 319.849 350.908 319.677 351.343 319.332C351.777 318.987 352.099 318.533 352.308 317.97C352.517 317.408 352.621 316.798 352.621 316.142C352.621 315.486 352.517 314.874 352.308 314.308C352.099 313.741 351.777 313.283 351.343 312.933C350.908 312.584 350.354 312.409 349.681 312.409C349.007 312.409 348.453 312.584 348.019 312.933C347.584 313.283 347.262 313.741 347.054 314.308C346.845 314.874 346.74 315.486 346.74 316.142C346.74 316.798 346.845 317.408 347.054 317.97C347.262 318.533 347.584 318.987 348.019 319.332C348.453 319.677 349.007 319.849 349.681 319.849ZM356.432 321V311.182H357.89V312.665H357.992C358.171 312.179 358.495 311.785 358.964 311.482C359.432 311.18 359.961 311.028 360.549 311.028C360.66 311.028 360.798 311.031 360.964 311.035C361.13 311.039 361.256 311.045 361.341 311.054V312.588C361.29 312.575 361.173 312.556 360.99 312.531C360.811 312.501 360.621 312.486 360.421 312.486C359.944 312.486 359.518 312.586 359.143 312.786C358.772 312.982 358.478 313.255 358.26 313.604C358.047 313.95 357.941 314.344 357.941 314.787V321H356.432ZM366.947 321.205C366.001 321.205 365.185 320.996 364.499 320.578C363.817 320.156 363.291 319.568 362.92 318.814C362.554 318.055 362.371 317.173 362.371 316.168C362.371 315.162 362.554 314.276 362.92 313.509C363.291 312.737 363.807 312.136 364.467 311.706C365.132 311.271 365.907 311.054 366.794 311.054C367.305 311.054 367.81 311.139 368.309 311.31C368.807 311.48 369.261 311.757 369.67 312.141C370.079 312.52 370.405 313.023 370.648 313.649C370.891 314.276 371.013 315.047 371.013 315.963V316.602H363.444V315.298H369.478C369.478 314.744 369.368 314.25 369.146 313.815C368.929 313.381 368.618 313.038 368.213 312.786C367.812 312.535 367.339 312.409 366.794 312.409C366.193 312.409 365.673 312.558 365.234 312.857C364.8 313.151 364.465 313.534 364.231 314.007C363.996 314.48 363.879 314.987 363.879 315.528V316.398C363.879 317.139 364.007 317.768 364.263 318.283C364.523 318.795 364.883 319.185 365.343 319.453C365.803 319.717 366.338 319.849 366.947 319.849C367.344 319.849 367.701 319.794 368.021 319.683C368.345 319.568 368.624 319.398 368.858 319.172C369.093 318.942 369.274 318.656 369.402 318.315L370.859 318.724C370.706 319.219 370.448 319.653 370.086 320.028C369.724 320.399 369.276 320.689 368.743 320.898C368.211 321.102 367.612 321.205 366.947 321.205ZM166.035 343.455C166.035 344.835 165.786 346.028 165.287 347.034C164.788 348.04 164.104 348.815 163.235 349.361C162.366 349.906 161.373 350.179 160.256 350.179C159.14 350.179 158.147 349.906 157.278 349.361C156.408 348.815 155.724 348.04 155.226 347.034C154.727 346.028 154.478 344.835 154.478 343.455C154.478 342.074 154.727 340.881 155.226 339.875C155.724 338.869 156.408 338.094 157.278 337.548C158.147 337.003 159.14 336.73 160.256 336.73C161.373 336.73 162.366 337.003 163.235 337.548C164.104 338.094 164.788 338.869 165.287 339.875C165.786 340.881 166.035 342.074 166.035 343.455ZM164.501 343.455C164.501 342.321 164.311 341.364 163.932 340.585C163.557 339.805 163.048 339.214 162.404 338.814C161.765 338.413 161.049 338.213 160.256 338.213C159.464 338.213 158.746 338.413 158.102 338.814C157.463 339.214 156.954 339.805 156.575 340.585C156.2 341.364 156.012 342.321 156.012 343.455C156.012 344.588 156.2 345.545 156.575 346.325C156.954 347.104 157.463 347.695 158.102 348.095C158.746 348.496 159.464 348.696 160.256 348.696C161.049 348.696 161.765 348.496 162.404 348.095C163.048 347.695 163.557 347.104 163.932 346.325C164.311 345.545 164.501 344.588 164.501 343.455ZM168.496 353.682V340.182H169.953V341.741H170.132C170.243 341.571 170.396 341.354 170.592 341.089C170.793 340.821 171.078 340.582 171.449 340.374C171.824 340.161 172.331 340.054 172.97 340.054C173.797 340.054 174.526 340.261 175.156 340.674C175.787 341.087 176.279 341.673 176.633 342.432C176.987 343.19 177.163 344.085 177.163 345.116C177.163 346.156 176.987 347.058 176.633 347.82C176.279 348.579 175.789 349.167 175.163 349.585C174.536 349.998 173.814 350.205 172.996 350.205C172.365 350.205 171.86 350.1 171.481 349.891C171.102 349.678 170.81 349.437 170.605 349.169C170.401 348.896 170.243 348.67 170.132 348.491H170.004V353.682H168.496ZM169.979 345.091C169.979 345.832 170.087 346.487 170.305 347.053C170.522 347.616 170.84 348.057 171.257 348.376C171.675 348.692 172.186 348.849 172.791 348.849C173.422 348.849 173.948 348.683 174.37 348.351C174.796 348.014 175.116 347.562 175.329 346.996C175.546 346.425 175.655 345.79 175.655 345.091C175.655 344.401 175.548 343.778 175.335 343.224C175.126 342.666 174.809 342.225 174.383 341.901C173.961 341.573 173.43 341.409 172.791 341.409C172.178 341.409 171.662 341.565 171.244 341.876C170.827 342.183 170.511 342.613 170.298 343.167C170.085 343.717 169.979 344.358 169.979 345.091ZM179.465 353.682V340.182H180.922V341.741H181.101C181.212 341.571 181.365 341.354 181.561 341.089C181.761 340.821 182.047 340.582 182.418 340.374C182.793 340.161 183.3 340.054 183.939 340.054C184.766 340.054 185.494 340.261 186.125 340.674C186.756 341.087 187.248 341.673 187.602 342.432C187.955 343.19 188.132 344.085 188.132 345.116C188.132 346.156 187.955 347.058 187.602 347.82C187.248 348.579 186.758 349.167 186.131 349.585C185.505 349.998 184.783 350.205 183.965 350.205C183.334 350.205 182.829 350.1 182.45 349.891C182.07 349.678 181.778 349.437 181.574 349.169C181.369 348.896 181.212 348.67 181.101 348.491H180.973V353.682H179.465ZM180.947 345.091C180.947 345.832 181.056 346.487 181.273 347.053C181.491 347.616 181.808 348.057 182.226 348.376C182.644 348.692 183.155 348.849 183.76 348.849C184.391 348.849 184.917 348.683 185.339 348.351C185.765 348.014 186.085 347.562 186.298 346.996C186.515 346.425 186.624 345.79 186.624 345.091C186.624 344.401 186.517 343.778 186.304 343.224C186.095 342.666 185.778 342.225 185.352 341.901C184.93 341.573 184.399 341.409 183.76 341.409C183.146 341.409 182.631 341.565 182.213 341.876C181.796 342.183 181.48 342.613 181.267 343.167C181.054 343.717 180.947 344.358 180.947 345.091ZM194.422 350.205C193.536 350.205 192.758 349.994 192.089 349.572C191.424 349.15 190.904 348.56 190.529 347.801C190.158 347.043 189.973 346.156 189.973 345.142C189.973 344.119 190.158 343.227 190.529 342.464C190.904 341.701 191.424 341.109 192.089 340.687C192.758 340.265 193.536 340.054 194.422 340.054C195.308 340.054 196.084 340.265 196.749 340.687C197.418 341.109 197.938 341.701 198.308 342.464C198.683 343.227 198.871 344.119 198.871 345.142C198.871 346.156 198.683 347.043 198.308 347.801C197.938 348.56 197.418 349.15 196.749 349.572C196.084 349.994 195.308 350.205 194.422 350.205ZM194.422 348.849C195.095 348.849 195.649 348.677 196.084 348.332C196.519 347.987 196.84 347.533 197.049 346.97C197.258 346.408 197.362 345.798 197.362 345.142C197.362 344.486 197.258 343.874 197.049 343.308C196.84 342.741 196.519 342.283 196.084 341.933C195.649 341.584 195.095 341.409 194.422 341.409C193.749 341.409 193.195 341.584 192.76 341.933C192.325 342.283 192.004 342.741 191.795 343.308C191.586 343.874 191.482 344.486 191.482 345.142C191.482 345.798 191.586 346.408 191.795 346.97C192.004 347.533 192.325 347.987 192.76 348.332C193.195 348.677 193.749 348.849 194.422 348.849ZM201.174 350V340.182H202.631V341.665H202.733C202.912 341.179 203.236 340.785 203.705 340.482C204.174 340.18 204.702 340.028 205.29 340.028C205.401 340.028 205.539 340.031 205.705 340.035C205.872 340.039 205.997 340.045 206.083 340.054V341.588C206.031 341.575 205.914 341.556 205.731 341.531C205.552 341.501 205.362 341.486 205.162 341.486C204.685 341.486 204.259 341.586 203.884 341.786C203.513 341.982 203.219 342.255 203.002 342.604C202.789 342.95 202.682 343.344 202.682 343.787V350H201.174ZM212.756 340.182V341.46H207.668V340.182H212.756ZM209.151 337.83H210.659V347.188C210.659 347.614 210.721 347.933 210.845 348.146C210.973 348.355 211.134 348.496 211.33 348.568C211.531 348.636 211.742 348.67 211.963 348.67C212.129 348.67 212.266 348.662 212.372 348.645C212.479 348.624 212.564 348.607 212.628 348.594L212.935 349.949C212.833 349.987 212.69 350.026 212.507 350.064C212.323 350.107 212.091 350.128 211.81 350.128C211.384 350.128 210.966 350.036 210.557 349.853C210.152 349.67 209.816 349.391 209.547 349.016C209.283 348.641 209.151 348.168 209.151 347.597V337.83ZM221.213 345.986V340.182H222.721V350H221.213V348.338H221.11C220.88 348.837 220.522 349.261 220.036 349.61C219.551 349.955 218.937 350.128 218.196 350.128C217.582 350.128 217.036 349.994 216.559 349.725C216.082 349.452 215.707 349.043 215.434 348.498C215.161 347.948 215.025 347.256 215.025 346.42V340.182H216.534V346.318C216.534 347.034 216.734 347.605 217.134 348.031C217.539 348.457 218.055 348.67 218.681 348.67C219.056 348.67 219.438 348.575 219.826 348.383C220.218 348.191 220.546 347.897 220.81 347.501C221.078 347.104 221.213 346.599 221.213 345.986ZM226.993 344.094V350H225.484V340.182H226.941V341.716H227.069C227.299 341.217 227.649 340.817 228.118 340.514C228.586 340.207 229.191 340.054 229.933 340.054C230.598 340.054 231.179 340.19 231.678 340.463C232.177 340.732 232.564 341.141 232.841 341.69C233.118 342.236 233.257 342.926 233.257 343.761V350H231.748V343.864C231.748 343.092 231.548 342.491 231.147 342.061C230.747 341.626 230.197 341.409 229.498 341.409C229.017 341.409 228.586 341.513 228.207 341.722C227.832 341.931 227.536 342.236 227.319 342.636C227.101 343.037 226.993 343.523 226.993 344.094ZM236.013 350V340.182H237.522V350H236.013ZM236.78 338.545C236.486 338.545 236.233 338.445 236.02 338.245C235.811 338.045 235.707 337.804 235.707 337.523C235.707 337.241 235.811 337.001 236.02 336.8C236.233 336.6 236.486 336.5 236.78 336.5C237.074 336.5 237.326 336.6 237.535 336.8C237.748 337.001 237.854 337.241 237.854 337.523C237.854 337.804 237.748 338.045 237.535 338.245C237.326 338.445 237.074 338.545 236.78 338.545ZM244.555 340.182V341.46H239.467V340.182H244.555ZM240.95 337.83H242.458V347.188C242.458 347.614 242.52 347.933 242.644 348.146C242.771 348.355 242.933 348.496 243.129 348.568C243.33 348.636 243.541 348.67 243.762 348.67C243.928 348.67 244.065 348.662 244.171 348.645C244.278 348.624 244.363 348.607 244.427 348.594L244.734 349.949C244.631 349.987 244.489 350.026 244.305 350.064C244.122 350.107 243.89 350.128 243.609 350.128C243.183 350.128 242.765 350.036 242.356 349.853C241.951 349.67 241.614 349.391 241.346 349.016C241.082 348.641 240.95 348.168 240.95 347.597V337.83ZM246.824 350V340.182H248.332V350H246.824ZM247.591 338.545C247.297 338.545 247.043 338.445 246.83 338.245C246.622 338.045 246.517 337.804 246.517 337.523C246.517 337.241 246.622 337.001 246.83 336.8C247.043 336.6 247.297 336.5 247.591 336.5C247.885 336.5 248.136 336.6 248.345 336.8C248.558 337.001 248.665 337.241 248.665 337.523C248.665 337.804 248.558 338.045 248.345 338.245C248.136 338.445 247.885 338.545 247.591 338.545ZM255.212 350.205C254.266 350.205 253.45 349.996 252.764 349.578C252.082 349.156 251.556 348.568 251.185 347.814C250.818 347.055 250.635 346.173 250.635 345.168C250.635 344.162 250.818 343.276 251.185 342.509C251.556 341.737 252.071 341.136 252.732 340.706C253.397 340.271 254.172 340.054 255.058 340.054C255.57 340.054 256.075 340.139 256.573 340.31C257.072 340.48 257.526 340.757 257.935 341.141C258.344 341.52 258.67 342.023 258.913 342.649C259.156 343.276 259.277 344.047 259.277 344.963V345.602H251.709V344.298H257.743C257.743 343.744 257.632 343.25 257.411 342.815C257.193 342.381 256.882 342.038 256.478 341.786C256.077 341.535 255.604 341.409 255.058 341.409C254.458 341.409 253.938 341.558 253.499 341.857C253.064 342.151 252.73 342.534 252.495 343.007C252.261 343.48 252.144 343.987 252.144 344.528V345.398C252.144 346.139 252.272 346.768 252.527 347.283C252.787 347.795 253.147 348.185 253.607 348.453C254.068 348.717 254.603 348.849 255.212 348.849C255.608 348.849 255.966 348.794 256.286 348.683C256.61 348.568 256.889 348.398 257.123 348.172C257.357 347.942 257.539 347.656 257.666 347.315L259.124 347.724C258.97 348.219 258.713 348.653 258.35 349.028C257.988 349.399 257.541 349.689 257.008 349.898C256.475 350.102 255.877 350.205 255.212 350.205ZM268.527 342.381L267.171 342.764C267.086 342.538 266.96 342.319 266.794 342.106C266.632 341.888 266.411 341.71 266.129 341.569C265.848 341.428 265.488 341.358 265.049 341.358C264.448 341.358 263.948 341.496 263.547 341.773C263.151 342.046 262.953 342.393 262.953 342.815C262.953 343.19 263.089 343.487 263.362 343.704C263.634 343.921 264.061 344.102 264.64 344.247L266.098 344.605C266.975 344.818 267.629 345.144 268.06 345.583C268.49 346.018 268.705 346.578 268.705 347.264C268.705 347.827 268.544 348.33 268.22 348.773C267.9 349.216 267.453 349.565 266.877 349.821C266.302 350.077 265.633 350.205 264.87 350.205C263.869 350.205 263.04 349.987 262.384 349.553C261.728 349.118 261.312 348.483 261.137 347.648L262.569 347.29C262.705 347.818 262.963 348.214 263.343 348.479C263.726 348.743 264.227 348.875 264.845 348.875C265.548 348.875 266.106 348.726 266.519 348.428C266.937 348.125 267.146 347.763 267.146 347.341C267.146 347 267.027 346.714 266.788 346.484C266.549 346.25 266.183 346.075 265.688 345.96L264.052 345.577C263.153 345.364 262.492 345.033 262.071 344.586C261.653 344.134 261.444 343.57 261.444 342.892C261.444 342.338 261.6 341.848 261.911 341.422C262.226 340.996 262.654 340.661 263.196 340.418C263.741 340.175 264.359 340.054 265.049 340.054C266.021 340.054 266.784 340.267 267.338 340.693C267.896 341.119 268.292 341.682 268.527 342.381Z" fill="#797979"/>
<mask id="path-3-inside-1_96_4647" fill="white">
<path d="M203.522 506C257.361 506 308.995 484.613 347.065 446.543C385.135 408.473 406.522 356.839 406.522 303C406.522 249.161 385.135 197.527 347.065 159.457C308.995 121.387 257.361 100 203.522 100V101.852C256.87 101.852 308.033 123.044 345.756 160.767C383.478 198.489 404.671 249.652 404.671 303C404.671 356.348 383.478 407.511 345.756 445.233C308.033 482.956 256.87 504.148 203.522 504.148V506Z"/>
</mask>
<path d="M203.522 506C257.361 506 308.995 484.613 347.065 446.543C385.135 408.473 406.522 356.839 406.522 303C406.522 249.161 385.135 197.527 347.065 159.457C308.995 121.387 257.361 100 203.522 100V101.852C256.87 101.852 308.033 123.044 345.756 160.767C383.478 198.489 404.671 249.652 404.671 303C404.671 356.348 383.478 407.511 345.756 445.233C308.033 482.956 256.87 504.148 203.522 504.148V506Z" stroke="url(#paint0_linear_96_4647)" stroke-width="6" mask="url(#path-3-inside-1_96_4647)"/>
<circle cx="203.522" cy="99" r="14" fill="#0A7CFF"/>
<circle cx="203.522" cy="506" r="14" fill="#FFB355"/>
<circle cx="405.522" cy="305" r="14" fill="#3EBA59"/>
<path d="M497.82 306.3C496.78 306.3 495.847 306.14 495.02 305.82C494.193 305.5 493.493 305.033 492.92 304.42C492.347 303.793 491.907 303.033 491.6 302.14C491.293 301.247 491.14 300.22 491.14 299.06C491.14 297.9 491.313 296.873 491.66 295.98C492.02 295.087 492.507 294.333 493.12 293.72C493.733 293.093 494.453 292.62 495.28 292.3C496.107 291.98 496.993 291.82 497.94 291.82C498.513 291.82 499.033 291.867 499.5 291.96C499.967 292.04 500.373 292.133 500.72 292.24C501.067 292.347 501.353 292.46 501.58 292.58C501.807 292.7 501.967 292.787 502.06 292.84L501.32 294.9C501 294.7 500.54 294.513 499.94 294.34C499.353 294.153 498.713 294.06 498.02 294.06C497.42 294.06 496.86 294.167 496.34 294.38C495.82 294.58 495.367 294.887 494.98 295.3C494.607 295.713 494.313 296.233 494.1 296.86C493.887 297.487 493.78 298.213 493.78 299.04C493.78 299.773 493.86 300.447 494.02 301.06C494.193 301.673 494.453 302.207 494.8 302.66C495.147 303.1 495.587 303.447 496.12 303.7C496.653 303.94 497.293 304.06 498.04 304.06C498.933 304.06 499.66 303.973 500.22 303.8C500.78 303.613 501.213 303.44 501.52 303.28L502.2 305.34C502.04 305.447 501.82 305.553 501.54 305.66C501.273 305.767 500.953 305.873 500.58 305.98C500.207 306.073 499.787 306.147 499.32 306.2C498.853 306.267 498.353 306.3 497.82 306.3ZM510.254 297.72C510.054 297.653 509.774 297.587 509.414 297.52C509.067 297.44 508.66 297.4 508.194 297.4C507.927 297.4 507.64 297.427 507.334 297.48C507.04 297.533 506.834 297.58 506.714 297.62V306H504.294V296.04C504.76 295.867 505.34 295.707 506.034 295.56C506.74 295.4 507.52 295.32 508.374 295.32C508.534 295.32 508.72 295.333 508.934 295.36C509.147 295.373 509.36 295.4 509.574 295.44C509.787 295.467 509.994 295.507 510.194 295.56C510.394 295.6 510.554 295.64 510.674 295.68L510.254 297.72ZM511.78 300.82C511.78 299.9 511.914 299.093 512.18 298.4C512.46 297.707 512.827 297.133 513.28 296.68C513.734 296.213 514.254 295.867 514.84 295.64C515.427 295.4 516.027 295.28 516.64 295.28C518.08 295.28 519.2 295.727 520 296.62C520.814 297.513 521.22 298.847 521.22 300.62C521.22 300.753 521.214 300.907 521.2 301.08C521.2 301.24 521.194 301.387 521.18 301.52H514.28C514.347 302.36 514.64 303.013 515.16 303.48C515.694 303.933 516.46 304.16 517.46 304.16C518.047 304.16 518.58 304.107 519.06 304C519.554 303.893 519.94 303.78 520.22 303.66L520.54 305.64C520.407 305.707 520.22 305.78 519.98 305.86C519.754 305.927 519.487 305.987 519.18 306.04C518.887 306.107 518.567 306.16 518.22 306.2C517.874 306.24 517.52 306.26 517.16 306.26C516.24 306.26 515.44 306.127 514.76 305.86C514.08 305.58 513.52 305.2 513.08 304.72C512.64 304.227 512.314 303.653 512.1 303C511.887 302.333 511.78 301.607 511.78 300.82ZM518.8 299.74C518.8 299.407 518.754 299.093 518.66 298.8C518.567 298.493 518.427 298.233 518.24 298.02C518.067 297.793 517.847 297.62 517.58 297.5C517.327 297.367 517.02 297.3 516.66 297.3C516.287 297.3 515.96 297.373 515.68 297.52C515.4 297.653 515.16 297.833 514.96 298.06C514.774 298.287 514.627 298.547 514.52 298.84C514.414 299.133 514.34 299.433 514.3 299.74H518.8ZM527.466 304.3C528.213 304.3 528.779 304.26 529.166 304.18V301.5C529.033 301.46 528.839 301.42 528.586 301.38C528.333 301.34 528.053 301.32 527.746 301.32C527.479 301.32 527.206 301.34 526.926 301.38C526.659 301.42 526.413 301.493 526.186 301.6C525.973 301.707 525.799 301.86 525.666 302.06C525.533 302.247 525.466 302.487 525.466 302.78C525.466 303.353 525.646 303.753 526.006 303.98C526.366 304.193 526.853 304.3 527.466 304.3ZM527.266 295.28C528.066 295.28 528.739 295.38 529.286 295.58C529.833 295.78 530.266 296.06 530.586 296.42C530.919 296.78 531.153 297.22 531.286 297.74C531.433 298.247 531.506 298.807 531.506 299.42V305.76C531.133 305.84 530.566 305.933 529.806 306.04C529.059 306.16 528.213 306.22 527.266 306.22C526.639 306.22 526.066 306.16 525.546 306.04C525.026 305.92 524.579 305.727 524.206 305.46C523.846 305.193 523.559 304.847 523.346 304.42C523.146 303.993 523.046 303.467 523.046 302.84C523.046 302.24 523.159 301.733 523.386 301.32C523.626 300.907 523.946 300.573 524.346 300.32C524.746 300.053 525.206 299.867 525.726 299.76C526.259 299.64 526.813 299.58 527.386 299.58C527.653 299.58 527.933 299.6 528.226 299.64C528.519 299.667 528.833 299.72 529.166 299.8V299.4C529.166 299.12 529.133 298.853 529.066 298.6C528.999 298.347 528.879 298.127 528.706 297.94C528.546 297.74 528.326 297.587 528.046 297.48C527.779 297.373 527.439 297.32 527.026 297.32C526.466 297.32 525.953 297.36 525.486 297.44C525.019 297.52 524.639 297.613 524.346 297.72L524.046 295.76C524.353 295.653 524.799 295.547 525.386 295.44C525.973 295.333 526.599 295.28 527.266 295.28ZM534.35 292.78L536.77 292.38V295.54H540.49V297.56H536.77V301.82C536.77 302.66 536.903 303.26 537.17 303.62C537.436 303.98 537.89 304.16 538.53 304.16C538.97 304.16 539.356 304.113 539.69 304.02C540.036 303.927 540.31 303.84 540.51 303.76L540.91 305.68C540.63 305.8 540.263 305.92 539.81 306.04C539.356 306.173 538.823 306.24 538.21 306.24C537.463 306.24 536.836 306.14 536.33 305.94C535.836 305.74 535.443 305.453 535.15 305.08C534.856 304.693 534.65 304.233 534.53 303.7C534.41 303.153 534.35 302.533 534.35 301.84V292.78ZM542.073 300.82C542.073 299.9 542.206 299.093 542.473 298.4C542.753 297.707 543.12 297.133 543.573 296.68C544.026 296.213 544.546 295.867 545.133 295.64C545.72 295.4 546.32 295.28 546.933 295.28C548.373 295.28 549.493 295.727 550.293 296.62C551.106 297.513 551.513 298.847 551.513 300.62C551.513 300.753 551.506 300.907 551.493 301.08C551.493 301.24 551.486 301.387 551.473 301.52H544.573C544.64 302.36 544.933 303.013 545.453 303.48C545.986 303.933 546.753 304.16 547.753 304.16C548.34 304.16 548.873 304.107 549.353 304C549.846 303.893 550.233 303.78 550.513 303.66L550.833 305.64C550.7 305.707 550.513 305.78 550.273 305.86C550.046 305.927 549.78 305.987 549.473 306.04C549.18 306.107 548.86 306.16 548.513 306.2C548.166 306.24 547.813 306.26 547.453 306.26C546.533 306.26 545.733 306.127 545.053 305.86C544.373 305.58 543.813 305.2 543.373 304.72C542.933 304.227 542.606 303.653 542.393 303C542.18 302.333 542.073 301.607 542.073 300.82ZM549.093 299.74C549.093 299.407 549.046 299.093 548.953 298.8C548.86 298.493 548.72 298.233 548.533 298.02C548.36 297.793 548.14 297.62 547.873 297.5C547.62 297.367 547.313 297.3 546.953 297.3C546.58 297.3 546.253 297.373 545.973 297.52C545.693 297.653 545.453 297.833 545.253 298.06C545.066 298.287 544.92 298.547 544.813 298.84C544.706 299.133 544.633 299.433 544.593 299.74H549.093ZM558.867 292.14H561.387V306H558.867V292.14ZM567.227 303.92C567.373 303.933 567.567 303.947 567.807 303.96C568.047 303.96 568.373 303.96 568.787 303.96C570.48 303.96 571.74 303.533 572.567 302.68C573.407 301.813 573.827 300.607 573.827 299.06C573.827 297.487 573.42 296.28 572.607 295.44C571.793 294.6 570.533 294.18 568.827 294.18C568.08 294.18 567.547 294.2 567.227 294.24V303.92ZM576.467 299.06C576.467 300.26 576.28 301.307 575.907 302.2C575.533 303.08 575 303.82 574.307 304.42C573.627 305.007 572.8 305.447 571.827 305.74C570.867 306.02 569.8 306.16 568.627 306.16C568.067 306.16 567.433 306.133 566.727 306.08C566.02 306.04 565.347 305.947 564.707 305.8V292.34C565.347 292.193 566.027 292.1 566.747 292.06C567.467 292.02 568.107 292 568.667 292C569.827 292 570.887 292.14 571.847 292.42C572.807 292.687 573.627 293.113 574.307 293.7C575 294.273 575.533 295.007 575.907 295.9C576.28 296.78 576.467 297.833 576.467 299.06Z" fill="#212326"/>
<path d="M452.882 300.08C452.882 304.747 451.989 308.333 450.202 310.84C448.442 313.32 446.002 314.56 442.882 314.56C439.762 314.56 437.309 313.32 435.522 310.84C433.762 308.333 432.882 304.747 432.882 300.08C432.882 297.76 433.109 295.707 433.562 293.92C434.042 292.133 434.722 290.627 435.602 289.4C436.482 288.173 437.536 287.24 438.762 286.6C439.989 285.96 441.362 285.64 442.882 285.64C446.002 285.64 448.442 286.893 450.202 289.4C451.989 291.88 452.882 295.44 452.882 300.08ZM446.802 300.08C446.802 298.693 446.736 297.44 446.602 296.32C446.469 295.173 446.256 294.187 445.962 293.36C445.669 292.533 445.269 291.893 444.762 291.44C444.256 290.987 443.629 290.76 442.882 290.76C442.136 290.76 441.509 290.987 441.002 291.44C440.522 291.893 440.122 292.533 439.802 293.36C439.509 294.187 439.296 295.173 439.162 296.32C439.029 297.44 438.962 298.693 438.962 300.08C438.962 301.467 439.029 302.733 439.162 303.88C439.296 305.027 439.509 306.013 439.802 306.84C440.122 307.667 440.522 308.307 441.002 308.76C441.509 309.213 442.136 309.44 442.882 309.44C443.629 309.44 444.256 309.213 444.762 308.76C445.269 308.307 445.669 307.667 445.962 306.84C446.256 306.013 446.469 305.027 446.602 303.88C446.736 302.733 446.802 301.467 446.802 300.08ZM474.097 293.56C474.097 294.573 473.897 295.547 473.497 296.48C473.097 297.413 472.577 298.32 471.937 299.2C471.297 300.053 470.577 300.88 469.777 301.68C468.977 302.48 468.19 303.24 467.417 303.96C467.017 304.333 466.577 304.76 466.097 305.24C465.643 305.693 465.203 306.16 464.777 306.64C464.35 307.12 463.963 307.573 463.617 308C463.297 308.4 463.097 308.733 463.017 309H474.937V314H456.457C456.403 313.707 456.377 313.333 456.377 312.88C456.377 312.427 456.377 312.107 456.377 311.92C456.377 310.64 456.577 309.467 456.977 308.4C457.403 307.333 457.95 306.347 458.617 305.44C459.283 304.507 460.03 303.64 460.857 302.84C461.71 302.04 462.55 301.24 463.377 300.44C464.017 299.827 464.617 299.253 465.177 298.72C465.737 298.16 466.23 297.627 466.657 297.12C467.083 296.587 467.417 296.067 467.657 295.56C467.897 295.027 468.017 294.493 468.017 293.96C468.017 292.787 467.683 291.96 467.017 291.48C466.35 291 465.523 290.76 464.537 290.76C463.817 290.76 463.137 290.88 462.497 291.12C461.883 291.333 461.31 291.6 460.777 291.92C460.27 292.213 459.83 292.52 459.457 292.84C459.083 293.133 458.803 293.373 458.617 293.56L455.657 289.4C456.83 288.307 458.19 287.413 459.737 286.72C461.31 286 462.99 285.64 464.777 285.64C466.403 285.64 467.803 285.827 468.977 286.2C470.15 286.573 471.11 287.107 471.857 287.8C472.63 288.467 473.19 289.293 473.537 290.28C473.91 291.24 474.097 292.333 474.097 293.56Z" fill="#DFDFDF"/>
<path d="M121.342 20.3C120.302 20.3 119.369 20.14 118.542 19.82C117.716 19.5 117.016 19.0333 116.442 18.42C115.869 17.7933 115.429 17.0333 115.122 16.14C114.816 15.2467 114.662 14.22 114.662 13.06C114.662 11.9 114.836 10.8733 115.182 9.98C115.542 9.08667 116.029 8.33333 116.642 7.72C117.256 7.09333 117.976 6.62 118.802 6.3C119.629 5.98 120.516 5.82 121.462 5.82C122.036 5.82 122.556 5.86667 123.022 5.96C123.489 6.04 123.896 6.13333 124.242 6.24C124.589 6.34667 124.876 6.46 125.102 6.58C125.329 6.7 125.489 6.78667 125.582 6.84L124.842 8.9C124.522 8.7 124.062 8.51333 123.462 8.34C122.876 8.15333 122.236 8.06 121.542 8.06C120.942 8.06 120.382 8.16667 119.862 8.38C119.342 8.58 118.889 8.88667 118.502 9.3C118.129 9.71333 117.836 10.2333 117.622 10.86C117.409 11.4867 117.302 12.2133 117.302 13.04C117.302 13.7733 117.382 14.4467 117.542 15.06C117.716 15.6733 117.976 16.2067 118.322 16.66C118.669 17.1 119.109 17.4467 119.642 17.7C120.176 17.94 120.816 18.06 121.562 18.06C122.456 18.06 123.182 17.9733 123.742 17.8C124.302 17.6133 124.736 17.44 125.042 17.28L125.722 19.34C125.562 19.4467 125.342 19.5533 125.062 19.66C124.796 19.7667 124.476 19.8733 124.102 19.98C123.729 20.0733 123.309 20.1467 122.842 20.2C122.376 20.2667 121.876 20.3 121.342 20.3ZM133.776 11.72C133.576 11.6533 133.296 11.5867 132.936 11.52C132.59 11.44 132.183 11.4 131.716 11.4C131.45 11.4 131.163 11.4267 130.856 11.48C130.563 11.5333 130.356 11.58 130.236 11.62V20H127.816V10.04C128.283 9.86667 128.863 9.70667 129.556 9.56C130.263 9.4 131.043 9.32 131.896 9.32C132.056 9.32 132.243 9.33333 132.456 9.36C132.67 9.37333 132.883 9.4 133.096 9.44C133.31 9.46667 133.516 9.50667 133.716 9.56C133.916 9.6 134.076 9.64 134.196 9.68L133.776 11.72ZM135.303 14.82C135.303 13.9 135.436 13.0933 135.703 12.4C135.983 11.7067 136.349 11.1333 136.803 10.68C137.256 10.2133 137.776 9.86667 138.363 9.64C138.949 9.4 139.549 9.28 140.163 9.28C141.603 9.28 142.723 9.72667 143.523 10.62C144.336 11.5133 144.743 12.8467 144.743 14.62C144.743 14.7533 144.736 14.9067 144.723 15.08C144.723 15.24 144.716 15.3867 144.703 15.52H137.803C137.869 16.36 138.163 17.0133 138.683 17.48C139.216 17.9333 139.983 18.16 140.983 18.16C141.569 18.16 142.103 18.1067 142.583 18C143.076 17.8933 143.463 17.78 143.743 17.66L144.063 19.64C143.929 19.7067 143.743 19.78 143.503 19.86C143.276 19.9267 143.009 19.9867 142.703 20.04C142.409 20.1067 142.089 20.16 141.743 20.2C141.396 20.24 141.043 20.26 140.683 20.26C139.763 20.26 138.963 20.1267 138.283 19.86C137.603 19.58 137.043 19.2 136.603 18.72C136.163 18.2267 135.836 17.6533 135.623 17C135.409 16.3333 135.303 15.6067 135.303 14.82ZM142.323 13.74C142.323 13.4067 142.276 13.0933 142.183 12.8C142.089 12.4933 141.949 12.2333 141.763 12.02C141.589 11.7933 141.369 11.62 141.103 11.5C140.849 11.3667 140.543 11.3 140.183 11.3C139.809 11.3 139.483 11.3733 139.203 11.52C138.923 11.6533 138.683 11.8333 138.483 12.06C138.296 12.2867 138.149 12.5467 138.043 12.84C137.936 13.1333 137.863 13.4333 137.823 13.74H142.323ZM150.988 18.3C151.735 18.3 152.302 18.26 152.688 18.18V15.5C152.555 15.46 152.362 15.42 152.108 15.38C151.855 15.34 151.575 15.32 151.268 15.32C151.002 15.32 150.728 15.34 150.448 15.38C150.182 15.42 149.935 15.4933 149.708 15.6C149.495 15.7067 149.322 15.86 149.188 16.06C149.055 16.2467 148.988 16.4867 148.988 16.78C148.988 17.3533 149.168 17.7533 149.528 17.98C149.888 18.1933 150.375 18.3 150.988 18.3ZM150.788 9.28C151.588 9.28 152.262 9.38 152.808 9.58C153.355 9.78 153.788 10.06 154.108 10.42C154.442 10.78 154.675 11.22 154.808 11.74C154.955 12.2467 155.028 12.8067 155.028 13.42V19.76C154.655 19.84 154.088 19.9333 153.328 20.04C152.582 20.16 151.735 20.22 150.788 20.22C150.162 20.22 149.588 20.16 149.068 20.04C148.548 19.92 148.102 19.7267 147.728 19.46C147.368 19.1933 147.082 18.8467 146.868 18.42C146.668 17.9933 146.568 17.4667 146.568 16.84C146.568 16.24 146.682 15.7333 146.908 15.32C147.148 14.9067 147.468 14.5733 147.868 14.32C148.268 14.0533 148.728 13.8667 149.248 13.76C149.782 13.64 150.335 13.58 150.908 13.58C151.175 13.58 151.455 13.6 151.748 13.64C152.042 13.6667 152.355 13.72 152.688 13.8V13.4C152.688 13.12 152.655 12.8533 152.588 12.6C152.522 12.3467 152.402 12.1267 152.228 11.94C152.068 11.74 151.848 11.5867 151.568 11.48C151.302 11.3733 150.962 11.32 150.548 11.32C149.988 11.32 149.475 11.36 149.008 11.44C148.542 11.52 148.162 11.6133 147.868 11.72L147.568 9.76C147.875 9.65333 148.322 9.54667 148.908 9.44C149.495 9.33333 150.122 9.28 150.788 9.28ZM157.872 6.78L160.292 6.38V9.54H164.012V11.56H160.292V15.82C160.292 16.66 160.425 17.26 160.692 17.62C160.959 17.98 161.412 18.16 162.052 18.16C162.492 18.16 162.879 18.1133 163.212 18.02C163.559 17.9267 163.832 17.84 164.032 17.76L164.432 19.68C164.152 19.8 163.785 19.92 163.332 20.04C162.879 20.1733 162.345 20.24 161.732 20.24C160.985 20.24 160.359 20.14 159.852 19.94C159.359 19.74 158.965 19.4533 158.672 19.08C158.379 18.6933 158.172 18.2333 158.052 17.7C157.932 17.1533 157.872 16.5333 157.872 15.84V6.78ZM165.596 14.82C165.596 13.9 165.729 13.0933 165.996 12.4C166.276 11.7067 166.642 11.1333 167.096 10.68C167.549 10.2133 168.069 9.86667 168.656 9.64C169.242 9.4 169.842 9.28 170.456 9.28C171.896 9.28 173.016 9.72667 173.816 10.62C174.629 11.5133 175.036 12.8467 175.036 14.62C175.036 14.7533 175.029 14.9067 175.016 15.08C175.016 15.24 175.009 15.3867 174.996 15.52H168.096C168.162 16.36 168.456 17.0133 168.976 17.48C169.509 17.9333 170.276 18.16 171.276 18.16C171.862 18.16 172.396 18.1067 172.876 18C173.369 17.8933 173.756 17.78 174.036 17.66L174.356 19.64C174.222 19.7067 174.036 19.78 173.796 19.86C173.569 19.9267 173.302 19.9867 172.996 20.04C172.702 20.1067 172.382 20.16 172.036 20.2C171.689 20.24 171.336 20.26 170.976 20.26C170.056 20.26 169.256 20.1267 168.576 19.86C167.896 19.58 167.336 19.2 166.896 18.72C166.456 18.2267 166.129 17.6533 165.916 17C165.702 16.3333 165.596 15.6067 165.596 14.82ZM172.616 13.74C172.616 13.4067 172.569 13.0933 172.476 12.8C172.382 12.4933 172.242 12.2333 172.056 12.02C171.882 11.7933 171.662 11.62 171.396 11.5C171.142 11.3667 170.836 11.3 170.476 11.3C170.102 11.3 169.776 11.3733 169.496 11.52C169.216 11.6533 168.976 11.8333 168.776 12.06C168.589 12.2867 168.442 12.5467 168.336 12.84C168.229 13.1333 168.156 13.4333 168.116 13.74H172.616ZM191.589 20C191.403 19.4533 191.209 18.9133 191.009 18.38C190.809 17.8467 190.616 17.3 190.429 16.74H184.589C184.403 17.3 184.209 17.8533 184.009 18.4C183.823 18.9333 183.636 19.4667 183.449 20H180.829C181.349 18.52 181.843 17.1533 182.309 15.9C182.776 14.6467 183.229 13.46 183.669 12.34C184.123 11.22 184.569 10.1533 185.009 9.14C185.449 8.12667 185.903 7.12667 186.369 6.14H188.749C189.216 7.12667 189.669 8.12667 190.109 9.14C190.549 10.1533 190.989 11.22 191.429 12.34C191.883 13.46 192.343 14.6467 192.809 15.9C193.289 17.1533 193.789 18.52 194.309 20H191.589ZM187.509 8.82C187.203 9.52667 186.849 10.3867 186.449 11.4C186.063 12.4133 185.656 13.5133 185.229 14.7H189.789C189.363 13.5133 188.949 12.4067 188.549 11.38C188.149 10.3533 187.803 9.5 187.509 8.82ZM195.941 9.88C196.408 9.74667 197.015 9.62 197.761 9.5C198.508 9.38 199.335 9.32 200.241 9.32C201.095 9.32 201.808 9.44 202.381 9.68C202.955 9.90667 203.408 10.2333 203.741 10.66C204.088 11.0733 204.328 11.58 204.461 12.18C204.608 12.7667 204.681 13.4133 204.681 14.12V20H202.261V14.5C202.261 13.94 202.221 13.4667 202.141 13.08C202.075 12.68 201.955 12.36 201.781 12.12C201.621 11.8667 201.395 11.6867 201.101 11.58C200.821 11.46 200.475 11.4 200.061 11.4C199.755 11.4 199.435 11.42 199.101 11.46C198.768 11.5 198.521 11.5333 198.361 11.56V20H195.941V9.88ZM221.628 20C221.442 19.4533 221.248 18.9133 221.048 18.38C220.848 17.8467 220.655 17.3 220.468 16.74H214.628C214.442 17.3 214.248 17.8533 214.048 18.4C213.862 18.9333 213.675 19.4667 213.488 20H210.868C211.388 18.52 211.882 17.1533 212.348 15.9C212.815 14.6467 213.268 13.46 213.708 12.34C214.162 11.22 214.608 10.1533 215.048 9.14C215.488 8.12667 215.942 7.12667 216.408 6.14H218.788C219.255 7.12667 219.708 8.12667 220.148 9.14C220.588 10.1533 221.028 11.22 221.468 12.34C221.922 13.46 222.382 14.6467 222.848 15.9C223.328 17.1533 223.828 18.52 224.348 20H221.628ZM217.548 8.82C217.242 9.52667 216.888 10.3867 216.488 11.4C216.102 12.4133 215.695 13.5133 215.268 14.7H219.828C219.402 13.5133 218.988 12.4067 218.588 11.38C218.188 10.3533 217.842 9.5 217.548 8.82ZM225.127 14.78C225.127 14.0067 225.247 13.2867 225.487 12.62C225.727 11.94 226.067 11.3533 226.507 10.86C226.96 10.3667 227.507 9.98 228.147 9.7C228.787 9.42 229.507 9.28 230.307 9.28C231.294 9.28 232.227 9.46 233.107 9.82L232.587 11.8C232.307 11.68 231.987 11.58 231.627 11.5C231.28 11.42 230.907 11.38 230.507 11.38C229.56 11.38 228.84 11.68 228.347 12.28C227.854 12.8667 227.607 13.7 227.607 14.78C227.607 15.82 227.84 16.6467 228.307 17.26C228.774 17.86 229.56 18.16 230.667 18.16C231.08 18.16 231.487 18.12 231.887 18.04C232.287 17.96 232.634 17.86 232.927 17.74L233.267 19.74C233 19.8733 232.594 19.9933 232.047 20.1C231.514 20.2067 230.96 20.26 230.387 20.26C229.494 20.26 228.714 20.1267 228.047 19.86C227.394 19.58 226.847 19.2 226.407 18.72C225.98 18.2267 225.66 17.6467 225.447 16.98C225.234 16.3 225.127 15.5667 225.127 14.78ZM234.56 14.78C234.56 14.0067 234.68 13.2867 234.92 12.62C235.16 11.94 235.5 11.3533 235.94 10.86C236.394 10.3667 236.94 9.98 237.58 9.7C238.22 9.42 238.94 9.28 239.74 9.28C240.727 9.28 241.66 9.46 242.54 9.82L242.02 11.8C241.74 11.68 241.42 11.58 241.06 11.5C240.714 11.42 240.34 11.38 239.94 11.38C238.994 11.38 238.274 11.68 237.78 12.28C237.287 12.8667 237.04 13.7 237.04 14.78C237.04 15.82 237.274 16.6467 237.74 17.26C238.207 17.86 238.994 18.16 240.1 18.16C240.514 18.16 240.92 18.12 241.32 18.04C241.72 17.96 242.067 17.86 242.36 17.74L242.7 19.74C242.434 19.8733 242.027 19.9933 241.48 20.1C240.947 20.2067 240.394 20.26 239.82 20.26C238.927 20.26 238.147 20.1267 237.48 19.86C236.827 19.58 236.28 19.2 235.84 18.72C235.414 18.2267 235.094 17.6467 234.88 16.98C234.667 16.3 234.56 15.5667 234.56 14.78ZM253.819 14.76C253.819 15.5867 253.699 16.34 253.459 17.02C253.219 17.7 252.879 18.28 252.439 18.76C251.999 19.24 251.466 19.6133 250.839 19.88C250.226 20.1467 249.546 20.28 248.799 20.28C248.053 20.28 247.373 20.1467 246.759 19.88C246.146 19.6133 245.619 19.24 245.179 18.76C244.739 18.28 244.393 17.7 244.139 17.02C243.899 16.34 243.779 15.5867 243.779 14.76C243.779 13.9333 243.899 13.1867 244.139 12.52C244.393 11.84 244.739 11.26 245.179 10.78C245.633 10.3 246.166 9.93333 246.779 9.68C247.393 9.41333 248.066 9.28 248.799 9.28C249.533 9.28 250.206 9.41333 250.819 9.68C251.446 9.93333 251.979 10.3 252.419 10.78C252.859 11.26 253.199 11.84 253.439 12.52C253.693 13.1867 253.819 13.9333 253.819 14.76ZM251.339 14.76C251.339 13.72 251.113 12.9 250.659 12.3C250.219 11.6867 249.599 11.38 248.799 11.38C247.999 11.38 247.373 11.6867 246.919 12.3C246.479 12.9 246.259 13.72 246.259 14.76C246.259 15.8133 246.479 16.6467 246.919 17.26C247.373 17.8733 247.999 18.18 248.799 18.18C249.599 18.18 250.219 17.8733 250.659 17.26C251.113 16.6467 251.339 15.8133 251.339 14.76ZM264.892 19.68C264.426 19.8 263.819 19.92 263.072 20.04C262.326 20.1733 261.506 20.24 260.612 20.24C259.772 20.24 259.066 20.12 258.492 19.88C257.932 19.64 257.479 19.3067 257.132 18.88C256.799 18.4533 256.559 17.9467 256.412 17.36C256.266 16.76 256.192 16.1067 256.192 15.4V9.54H258.612V15.02C258.612 16.14 258.772 16.94 259.092 17.42C259.426 17.9 259.999 18.14 260.812 18.14C261.106 18.14 261.412 18.1267 261.732 18.1C262.066 18.0733 262.312 18.04 262.472 18V9.54H264.892V19.68ZM267.972 9.88C268.439 9.74667 269.046 9.62 269.792 9.5C270.539 9.38 271.366 9.32 272.272 9.32C273.126 9.32 273.839 9.44 274.412 9.68C274.986 9.90667 275.439 10.2333 275.772 10.66C276.119 11.0733 276.359 11.58 276.492 12.18C276.639 12.7667 276.712 13.4133 276.712 14.12V20H274.292V14.5C274.292 13.94 274.252 13.4667 274.172 13.08C274.106 12.68 273.986 12.36 273.812 12.12C273.652 11.8667 273.426 11.6867 273.132 11.58C272.852 11.46 272.506 11.4 272.092 11.4C271.786 11.4 271.466 11.42 271.132 11.46C270.799 11.5 270.552 11.5333 270.392 11.56V20H267.972V9.88ZM279.552 6.78L281.972 6.38V9.54H285.692V11.56H281.972V15.82C281.972 16.66 282.105 17.26 282.372 17.62C282.638 17.98 283.092 18.16 283.732 18.16C284.172 18.16 284.558 18.1133 284.892 18.02C285.238 17.9267 285.512 17.84 285.712 17.76L286.112 19.68C285.832 19.8 285.465 19.92 285.012 20.04C284.558 20.1733 284.025 20.24 283.412 20.24C282.665 20.24 282.038 20.14 281.532 19.94C281.038 19.74 280.645 19.4533 280.352 19.08C280.058 18.6933 279.852 18.2333 279.732 17.7C279.612 17.1533 279.552 16.5333 279.552 15.84V6.78Z" fill="#212326"/>
<path d="M201.882 60.08C201.882 64.7467 200.989 68.3333 199.202 70.84C197.442 73.32 195.002 74.56 191.882 74.56C188.762 74.56 186.309 73.32 184.522 70.84C182.762 68.3333 181.882 64.7467 181.882 60.08C181.882 57.76 182.109 55.7067 182.562 53.92C183.042 52.1333 183.722 50.6267 184.602 49.4C185.482 48.1733 186.536 47.24 187.762 46.6C188.989 45.96 190.362 45.64 191.882 45.64C195.002 45.64 197.442 46.8933 199.202 49.4C200.989 51.88 201.882 55.44 201.882 60.08ZM195.802 60.08C195.802 58.6933 195.736 57.44 195.602 56.32C195.469 55.1733 195.256 54.1867 194.962 53.36C194.669 52.5333 194.269 51.8933 193.762 51.44C193.256 50.9867 192.629 50.76 191.882 50.76C191.136 50.76 190.509 50.9867 190.002 51.44C189.522 51.8933 189.122 52.5333 188.802 53.36C188.509 54.1867 188.296 55.1733 188.162 56.32C188.029 57.44 187.962 58.6933 187.962 60.08C187.962 61.4667 188.029 62.7333 188.162 63.88C188.296 65.0267 188.509 66.0133 188.802 66.84C189.122 67.6667 189.522 68.3067 190.002 68.76C190.509 69.2133 191.136 69.44 191.882 69.44C192.629 69.44 193.256 69.2133 193.762 68.76C194.269 68.3067 194.669 67.6667 194.962 66.84C195.256 66.0133 195.469 65.0267 195.602 63.88C195.736 62.7333 195.802 61.4667 195.802 60.08ZM206.057 52.04C206.83 51.72 207.63 51.36 208.457 50.96C209.31 50.5333 210.137 50.08 210.937 49.6C211.737 49.0933 212.497 48.5733 213.217 48.04C213.963 47.48 214.63 46.8933 215.217 46.28H219.377V74H213.417V54.04C212.617 54.5733 211.723 55.0667 210.737 55.52C209.75 55.9467 208.79 56.32 207.857 56.64L206.057 52.04Z" fill="#DFDFDF"/>
<path d="M151.542 588.12C152.449 588.12 153.109 587.967 153.522 587.66C153.936 587.353 154.142 586.92 154.142 586.36C154.142 586.027 154.069 585.74 153.922 585.5C153.789 585.26 153.589 585.047 153.322 584.86C153.069 584.66 152.756 584.48 152.382 584.32C152.009 584.147 151.582 583.98 151.102 583.82C150.622 583.647 150.156 583.46 149.702 583.26C149.262 583.047 148.869 582.787 148.522 582.48C148.189 582.173 147.916 581.807 147.702 581.38C147.502 580.953 147.402 580.44 147.402 579.84C147.402 578.587 147.836 577.607 148.702 576.9C149.569 576.18 150.749 575.82 152.242 575.82C153.109 575.82 153.876 575.92 154.542 576.12C155.222 576.307 155.756 576.513 156.142 576.74L155.362 578.78C154.909 578.527 154.409 578.333 153.862 578.2C153.329 578.067 152.776 578 152.202 578C151.522 578 150.989 578.14 150.602 578.42C150.229 578.7 150.042 579.093 150.042 579.6C150.042 579.907 150.102 580.173 150.222 580.4C150.356 580.613 150.536 580.807 150.762 580.98C151.002 581.153 151.276 581.313 151.582 581.46C151.902 581.607 152.249 581.747 152.622 581.88C153.276 582.12 153.856 582.367 154.362 582.62C154.882 582.86 155.316 583.153 155.662 583.5C156.022 583.833 156.296 584.233 156.482 584.7C156.669 585.153 156.762 585.707 156.762 586.36C156.762 587.613 156.316 588.587 155.422 589.28C154.542 589.96 153.249 590.3 151.542 590.3C150.969 590.3 150.442 590.26 149.962 590.18C149.496 590.113 149.076 590.027 148.702 589.92C148.342 589.813 148.029 589.707 147.762 589.6C147.496 589.48 147.282 589.373 147.122 589.28L147.862 587.22C148.222 587.42 148.709 587.62 149.322 587.82C149.936 588.02 150.676 588.12 151.542 588.12ZM158.743 576.78L161.163 576.38V579.54H164.883V581.56H161.163V585.82C161.163 586.66 161.296 587.26 161.563 587.62C161.83 587.98 162.283 588.16 162.923 588.16C163.363 588.16 163.75 588.113 164.083 588.02C164.43 587.927 164.703 587.84 164.903 587.76L165.303 589.68C165.023 589.8 164.656 589.92 164.203 590.04C163.75 590.173 163.216 590.24 162.603 590.24C161.856 590.24 161.23 590.14 160.723 589.94C160.23 589.74 159.836 589.453 159.543 589.08C159.25 588.693 159.043 588.233 158.923 587.7C158.803 587.153 158.743 586.533 158.743 585.84V576.78ZM170.902 588.3C171.649 588.3 172.216 588.26 172.602 588.18V585.5C172.469 585.46 172.276 585.42 172.022 585.38C171.769 585.34 171.489 585.32 171.182 585.32C170.916 585.32 170.642 585.34 170.362 585.38C170.096 585.42 169.849 585.493 169.622 585.6C169.409 585.707 169.236 585.86 169.102 586.06C168.969 586.247 168.902 586.487 168.902 586.78C168.902 587.353 169.082 587.753 169.442 587.98C169.802 588.193 170.289 588.3 170.902 588.3ZM170.702 579.28C171.502 579.28 172.176 579.38 172.722 579.58C173.269 579.78 173.702 580.06 174.022 580.42C174.356 580.78 174.589 581.22 174.722 581.74C174.869 582.247 174.942 582.807 174.942 583.42V589.76C174.569 589.84 174.002 589.933 173.242 590.04C172.496 590.16 171.649 590.22 170.702 590.22C170.076 590.22 169.502 590.16 168.982 590.04C168.462 589.92 168.016 589.727 167.642 589.46C167.282 589.193 166.996 588.847 166.782 588.42C166.582 587.993 166.482 587.467 166.482 586.84C166.482 586.24 166.596 585.733 166.822 585.32C167.062 584.907 167.382 584.573 167.782 584.32C168.182 584.053 168.642 583.867 169.162 583.76C169.696 583.64 170.249 583.58 170.822 583.58C171.089 583.58 171.369 583.6 171.662 583.64C171.956 583.667 172.269 583.72 172.602 583.8V583.4C172.602 583.12 172.569 582.853 172.502 582.6C172.436 582.347 172.316 582.127 172.142 581.94C171.982 581.74 171.762 581.587 171.482 581.48C171.216 581.373 170.876 581.32 170.462 581.32C169.902 581.32 169.389 581.36 168.922 581.44C168.456 581.52 168.076 581.613 167.782 581.72L167.482 579.76C167.789 579.653 168.236 579.547 168.822 579.44C169.409 579.333 170.036 579.28 170.702 579.28ZM183.866 581.72C183.666 581.653 183.386 581.587 183.026 581.52C182.679 581.44 182.273 581.4 181.806 581.4C181.539 581.4 181.253 581.427 180.946 581.48C180.653 581.533 180.446 581.58 180.326 581.62V590H177.906V580.04C178.373 579.867 178.953 579.707 179.646 579.56C180.353 579.4 181.133 579.32 181.986 579.32C182.146 579.32 182.333 579.333 182.546 579.36C182.759 579.373 182.973 579.4 183.186 579.44C183.399 579.467 183.606 579.507 183.806 579.56C184.006 579.6 184.166 579.64 184.286 579.68L183.866 581.72ZM185.852 576.78L188.272 576.38V579.54H191.992V581.56H188.272V585.82C188.272 586.66 188.406 587.26 188.672 587.62C188.939 587.98 189.392 588.16 190.032 588.16C190.472 588.16 190.859 588.113 191.192 588.02C191.539 587.927 191.812 587.84 192.012 587.76L192.412 589.68C192.132 589.8 191.766 589.92 191.312 590.04C190.859 590.173 190.326 590.24 189.712 590.24C188.966 590.24 188.339 590.14 187.832 589.94C187.339 589.74 186.946 589.453 186.652 589.08C186.359 588.693 186.152 588.233 186.032 587.7C185.912 587.153 185.852 586.533 185.852 585.84V576.78ZM208.78 576.14V578.32H204.52V590H201.98V578.32H197.72V576.14H208.78ZM215.819 581.72C215.619 581.653 215.339 581.587 214.979 581.52C214.633 581.44 214.226 581.4 213.759 581.4C213.493 581.4 213.206 581.427 212.899 581.48C212.606 581.533 212.399 581.58 212.279 581.62V590H209.859V580.04C210.326 579.867 210.906 579.707 211.599 579.56C212.306 579.4 213.086 579.32 213.939 579.32C214.099 579.32 214.286 579.333 214.499 579.36C214.713 579.373 214.926 579.4 215.139 579.44C215.353 579.467 215.559 579.507 215.759 579.56C215.959 579.6 216.119 579.64 216.239 579.68L215.819 581.72ZM221.606 588.3C222.352 588.3 222.919 588.26 223.306 588.18V585.5C223.172 585.46 222.979 585.42 222.726 585.38C222.472 585.34 222.192 585.32 221.886 585.32C221.619 585.32 221.346 585.34 221.066 585.38C220.799 585.42 220.552 585.493 220.326 585.6C220.112 585.707 219.939 585.86 219.806 586.06C219.672 586.247 219.606 586.487 219.606 586.78C219.606 587.353 219.786 587.753 220.146 587.98C220.506 588.193 220.992 588.3 221.606 588.3ZM221.406 579.28C222.206 579.28 222.879 579.38 223.426 579.58C223.972 579.78 224.406 580.06 224.726 580.42C225.059 580.78 225.292 581.22 225.426 581.74C225.572 582.247 225.646 582.807 225.646 583.42V589.76C225.272 589.84 224.706 589.933 223.946 590.04C223.199 590.16 222.352 590.22 221.406 590.22C220.779 590.22 220.206 590.16 219.686 590.04C219.166 589.92 218.719 589.727 218.346 589.46C217.986 589.193 217.699 588.847 217.486 588.42C217.286 587.993 217.186 587.467 217.186 586.84C217.186 586.24 217.299 585.733 217.526 585.32C217.766 584.907 218.086 584.573 218.486 584.32C218.886 584.053 219.346 583.867 219.866 583.76C220.399 583.64 220.952 583.58 221.526 583.58C221.792 583.58 222.072 583.6 222.366 583.64C222.659 583.667 222.972 583.72 223.306 583.8V583.4C223.306 583.12 223.272 582.853 223.206 582.6C223.139 582.347 223.019 582.127 222.846 581.94C222.686 581.74 222.466 581.587 222.186 581.48C221.919 581.373 221.579 581.32 221.166 581.32C220.606 581.32 220.092 581.36 219.626 581.44C219.159 581.52 218.779 581.613 218.486 581.72L218.186 579.76C218.492 579.653 218.939 579.547 219.526 579.44C220.112 579.333 220.739 579.28 221.406 579.28ZM230.509 584.74C230.509 585.807 230.763 586.647 231.269 587.26C231.776 587.86 232.476 588.16 233.369 588.16C233.756 588.16 234.083 588.147 234.349 588.12C234.629 588.08 234.856 588.04 235.029 588V582C234.816 581.853 234.529 581.72 234.169 581.6C233.823 581.467 233.449 581.4 233.049 581.4C232.169 581.4 231.523 581.7 231.109 582.3C230.709 582.9 230.509 583.713 230.509 584.74ZM237.449 589.68C236.969 589.827 236.363 589.96 235.629 590.08C234.909 590.2 234.149 590.26 233.349 590.26C232.523 590.26 231.783 590.133 231.129 589.88C230.476 589.627 229.916 589.267 229.449 588.8C228.996 588.32 228.643 587.747 228.389 587.08C228.149 586.4 228.029 585.64 228.029 584.8C228.029 583.973 228.129 583.227 228.329 582.56C228.543 581.88 228.849 581.3 229.249 580.82C229.649 580.34 230.136 579.973 230.709 579.72C231.283 579.453 231.943 579.32 232.689 579.32C233.196 579.32 233.643 579.38 234.029 579.5C234.416 579.62 234.749 579.753 235.029 579.9V574.88L237.449 574.48V589.68ZM242.963 590H240.543V579.54H242.963V590ZM243.223 576.48C243.223 576.933 243.077 577.293 242.783 577.56C242.49 577.827 242.143 577.96 241.743 577.96C241.33 577.96 240.977 577.827 240.683 577.56C240.39 577.293 240.243 576.933 240.243 576.48C240.243 576.013 240.39 575.647 240.683 575.38C240.977 575.113 241.33 574.98 241.743 574.98C242.143 574.98 242.49 575.113 242.783 575.38C243.077 575.647 243.223 576.013 243.223 576.48ZM246.051 579.88C246.517 579.747 247.124 579.62 247.871 579.5C248.617 579.38 249.444 579.32 250.351 579.32C251.204 579.32 251.917 579.44 252.491 579.68C253.064 579.907 253.517 580.233 253.851 580.66C254.197 581.073 254.437 581.58 254.571 582.18C254.717 582.767 254.791 583.413 254.791 584.12V590H252.371V584.5C252.371 583.94 252.331 583.467 252.251 583.08C252.184 582.68 252.064 582.36 251.891 582.12C251.731 581.867 251.504 581.687 251.211 581.58C250.931 581.46 250.584 581.4 250.171 581.4C249.864 581.4 249.544 581.42 249.211 581.46C248.877 581.5 248.631 581.533 248.471 581.56V590H246.051V579.88ZM259.65 584.5C259.65 585.527 259.87 586.28 260.31 586.76C260.763 587.227 261.343 587.46 262.05 587.46C262.437 587.46 262.797 587.407 263.13 587.3C263.477 587.193 263.757 587.067 263.97 586.92V581.5C263.797 581.46 263.583 581.427 263.33 581.4C263.077 581.36 262.757 581.34 262.37 581.34C261.49 581.34 260.817 581.633 260.35 582.22C259.883 582.793 259.65 583.553 259.65 584.5ZM266.39 588.94C266.39 590.607 265.963 591.827 265.11 592.6C264.27 593.373 262.977 593.76 261.23 593.76C260.59 593.76 259.963 593.707 259.35 593.6C258.75 593.493 258.203 593.353 257.71 593.18L258.15 591.12C258.563 591.293 259.03 591.433 259.55 591.54C260.083 591.647 260.657 591.7 261.27 591.7C262.243 591.7 262.937 591.5 263.35 591.1C263.763 590.7 263.97 590.107 263.97 589.32V588.92C263.73 589.04 263.41 589.16 263.01 589.28C262.623 589.4 262.177 589.46 261.67 589.46C261.003 589.46 260.39 589.353 259.83 589.14C259.283 588.927 258.81 588.613 258.41 588.2C258.023 587.787 257.717 587.273 257.49 586.66C257.277 586.033 257.17 585.313 257.17 584.5C257.17 583.74 257.283 583.04 257.51 582.4C257.75 581.76 258.09 581.213 258.53 580.76C258.983 580.307 259.53 579.953 260.17 579.7C260.81 579.447 261.537 579.32 262.35 579.32C263.137 579.32 263.883 579.38 264.59 579.5C265.297 579.62 265.897 579.747 266.39 579.88V588.94Z" fill="#212326"/>
<path d="M202.882 547.08C202.882 551.747 201.989 555.333 200.202 557.84C198.442 560.32 196.002 561.56 192.882 561.56C189.762 561.56 187.309 560.32 185.522 557.84C183.762 555.333 182.882 551.747 182.882 547.08C182.882 544.76 183.109 542.707 183.562 540.92C184.042 539.133 184.722 537.627 185.602 536.4C186.482 535.173 187.536 534.24 188.762 533.6C189.989 532.96 191.362 532.64 192.882 532.64C196.002 532.64 198.442 533.893 200.202 536.4C201.989 538.88 202.882 542.44 202.882 547.08ZM196.802 547.08C196.802 545.693 196.736 544.44 196.602 543.32C196.469 542.173 196.256 541.187 195.962 540.36C195.669 539.533 195.269 538.893 194.762 538.44C194.256 537.987 193.629 537.76 192.882 537.76C192.136 537.76 191.509 537.987 191.002 538.44C190.522 538.893 190.122 539.533 189.802 540.36C189.509 541.187 189.296 542.173 189.162 543.32C189.029 544.44 188.962 545.693 188.962 547.08C188.962 548.467 189.029 549.733 189.162 550.88C189.296 552.027 189.509 553.013 189.802 553.84C190.122 554.667 190.522 555.307 191.002 555.76C191.509 556.213 192.136 556.44 192.882 556.44C193.629 556.44 194.256 556.213 194.762 555.76C195.269 555.307 195.669 554.667 195.962 553.84C196.256 553.013 196.469 552.027 196.602 550.88C196.736 549.733 196.802 548.467 196.802 547.08ZM213.377 561.6C212.657 561.6 211.897 561.547 211.097 561.44C210.297 561.36 209.523 561.24 208.777 561.08C208.03 560.92 207.35 560.747 206.737 560.56C206.123 560.373 205.643 560.2 205.297 560.04L206.457 555.08C207.15 555.373 208.03 555.693 209.097 556.04C210.19 556.36 211.537 556.52 213.137 556.52C214.977 556.52 216.323 556.173 217.177 555.48C218.03 554.787 218.457 553.853 218.457 552.68C218.457 551.96 218.297 551.36 217.977 550.88C217.683 550.373 217.27 549.973 216.737 549.68C216.203 549.36 215.563 549.147 214.817 549.04C214.097 548.907 213.323 548.84 212.497 548.84H210.177V544.04H212.817C213.403 544.04 213.963 543.987 214.497 543.88C215.057 543.773 215.55 543.6 215.977 543.36C216.403 543.093 216.737 542.747 216.977 542.32C217.243 541.867 217.377 541.307 217.377 540.64C217.377 540.133 217.27 539.693 217.057 539.32C216.843 538.947 216.563 538.64 216.217 538.4C215.897 538.16 215.51 537.987 215.057 537.88C214.63 537.747 214.19 537.68 213.737 537.68C212.59 537.68 211.523 537.853 210.537 538.2C209.577 538.547 208.697 538.973 207.897 539.48L205.777 535.12C206.203 534.853 206.697 534.573 207.257 534.28C207.843 533.987 208.483 533.72 209.177 533.48C209.87 533.24 210.603 533.04 211.377 532.88C212.177 532.72 213.017 532.64 213.897 532.64C215.523 532.64 216.923 532.84 218.097 533.24C219.297 533.613 220.283 534.16 221.057 534.88C221.83 535.573 222.403 536.4 222.777 537.36C223.15 538.293 223.337 539.32 223.337 540.44C223.337 541.533 223.03 542.6 222.417 543.64C221.803 544.653 220.977 545.427 219.937 545.96C221.377 546.547 222.483 547.427 223.257 548.6C224.057 549.747 224.457 551.133 224.457 552.76C224.457 554.04 224.243 555.227 223.817 556.32C223.39 557.387 222.723 558.32 221.817 559.12C220.91 559.893 219.75 560.507 218.337 560.96C216.95 561.387 215.297 561.6 213.377 561.6Z" fill="#DFDFDF"/>
<defs>
<linearGradient id="paint0_linear_96_4647" x1="13.9006" y1="85.7493" x2="365.224" y2="480.407" gradientUnits="userSpaceOnUse">
<stop stop-color="#0A7CFF"/>
<stop offset="0.319419" stop-color="#3EBA59"/>
<stop offset="0.695453" stop-color="#D91222"/>
<stop offset="1" stop-color="#FFB355"/>
</linearGradient>
</defs>
</svg>
