<svg width="204" height="406" viewBox="0 0 204 406" fill="none" xmlns="http://www.w3.org/2000/svg">
<mask id="path-1-inside-1_96_4652" fill="white">
<path d="M0.522324 406C54.3613 406 105.995 384.613 144.065 346.543C182.135 308.473 203.522 256.839 203.522 203C203.522 149.161 182.135 97.5272 144.065 59.4573C105.995 21.3875 54.3613 1.04828e-05 0.522385 0V1.85175C53.8702 1.85176 105.033 23.0441 142.756 60.7667C180.478 98.4893 201.671 149.652 201.671 203C201.671 256.348 180.478 307.511 142.756 345.233C105.033 382.956 53.8701 404.148 0.522324 404.148V406Z"/>
</mask>
<path d="M0.522324 406C54.3613 406 105.995 384.613 144.065 346.543C182.135 308.473 203.522 256.839 203.522 203C203.522 149.161 182.135 97.5272 144.065 59.4573C105.995 21.3875 54.3613 1.04828e-05 0.522385 0V1.85175C53.8702 1.85176 105.033 23.0441 142.756 60.7667C180.478 98.4893 201.671 149.652 201.671 203C201.671 256.348 180.478 307.511 142.756 345.233C105.033 382.956 53.8701 404.148 0.522324 404.148V406Z" stroke="url(#paint0_linear_96_4652)" stroke-width="6" mask="url(#path-1-inside-1_96_4652)"/>
<defs>
<linearGradient id="paint0_linear_96_4652" x1="-189.099" y1="-14.2507" x2="162.224" y2="380.407" gradientUnits="userSpaceOnUse">
<stop stop-color="#0A7CFF"/>
<stop offset="0.319419" stop-color="#3EBA59"/>
<stop offset="0.695453" stop-color="#D91222"/>
<stop offset="1" stop-color="#FFB355"/>
</linearGradient>
</defs>
</svg>
