<svg width="60" height="60" viewBox="0 0 60 60" fill="none" xmlns="http://www.w3.org/2000/svg">
<rect x="0.690918" y="0.328125" width="58.9576" height="58.9576" rx="7.3697" fill="#3EBA59"/>
<path opacity="0.2" d="M30.169 29.8104C35.7655 29.8104 40.3023 27.3358 40.3023 24.2831C40.3023 21.2305 35.7655 18.7559 30.169 18.7559C24.5725 18.7559 20.0356 21.2305 20.0356 24.2831C20.0356 27.3358 24.5725 29.8104 30.169 29.8104Z" fill="white"/>
<path d="M30.169 29.8104C35.7655 29.8104 40.3023 27.3358 40.3023 24.2831C40.3023 21.2305 35.7655 18.7559 30.169 18.7559C24.5725 18.7559 20.0356 21.2305 20.0356 24.2831C20.0356 27.3358 24.5725 29.8104 30.169 29.8104Z" stroke="white" stroke-width="1.84242" stroke-linecap="round" stroke-linejoin="round"/>
<path d="M20.0356 24.2832V29.8105C20.0356 32.8631 24.5725 35.3377 30.169 35.3377C35.7655 35.3377 40.3023 32.8631 40.3023 29.8105V24.2832" stroke="white" stroke-width="1.84242" stroke-linecap="round" stroke-linejoin="round"/>
<path d="M20.0356 29.8105V35.3378C20.0356 38.3904 24.5725 40.8651 30.169 40.8651C35.7655 40.8651 40.3023 38.3904 40.3023 35.3378V29.8105" stroke="white" stroke-width="1.84242" stroke-linecap="round" stroke-linejoin="round"/>
</svg>
