<svg width="14" height="12" viewBox="0 0 14 12" fill="none" xmlns="http://www.w3.org/2000/svg">
<path fill-rule="evenodd" clip-rule="evenodd" d="M2.9987 2.0013H10.9987C11.2368 2.00125 11.4706 2.06497 11.6758 2.18585C11.8809 2.30672 12.05 2.48033 12.1654 2.68864C12.0809 2.71052 12.0017 2.7488 11.932 2.8013L6.9987 6.5013L2.06536 2.8013C1.99573 2.7488 1.91645 2.71052 1.83203 2.68864C1.9474 2.48033 2.11645 2.30672 2.32162 2.18585C2.52678 2.06497 2.76057 2.00125 2.9987 2.0013ZM1.66536 4.16797V8.66797C1.66536 9.02159 1.80584 9.36073 2.05589 9.61078C2.30594 9.86083 2.64508 10.0013 2.9987 10.0013H10.9987C11.3523 10.0013 11.6915 9.86083 11.9415 9.61078C12.1916 9.36073 12.332 9.02159 12.332 8.66797V4.16797L7.3987 7.86797C7.2833 7.95452 7.14294 8.0013 6.9987 8.0013C6.85445 8.0013 6.71409 7.95452 6.5987 7.86797L1.66536 4.16797ZM0.332031 3.33464C0.332031 2.62739 0.612983 1.94911 1.11308 1.44902C1.61318 0.94892 2.29145 0.667969 2.9987 0.667969H10.9987C11.7059 0.667969 12.3842 0.94892 12.8843 1.44902C13.3844 1.94911 13.6654 2.62739 13.6654 3.33464V8.66797C13.6654 9.37521 13.3844 10.0535 12.8843 10.5536C12.3842 11.0537 11.7059 11.3346 10.9987 11.3346H2.9987C2.29145 11.3346 1.61318 11.0537 1.11308 10.5536C0.612983 10.0535 0.332031 9.37521 0.332031 8.66797V3.33464Z" fill="#B9BEC7"/>
</svg>
