<svg width="59" height="60" viewBox="0 0 59 60" fill="none" xmlns="http://www.w3.org/2000/svg">
<rect x="0.58689" y="0.916968" width="57.5152" height="57.5152" rx="28.7576" stroke="white" stroke-opacity="0.25" stroke-width="1.17378"/>
<path fill-rule="evenodd" clip-rule="evenodd" d="M36.3871 20.2852H22.3018C21.0071 20.2852 19.9542 21.338 19.9542 22.6327V36.7181C19.9542 38.0127 21.0071 39.0656 22.3018 39.0656H29.3445V32.6098H26.9969V29.6754H29.3445V27.3278C29.3445 26.3939 29.7155 25.4982 30.3758 24.8379C31.0362 24.1775 31.9319 23.8065 32.8658 23.8065H35.2134V26.7409H34.0396C33.3916 26.7409 32.8658 26.6799 32.8658 27.3278V29.6754H35.8002L34.6265 32.6098H32.8658V39.0656H36.3871C37.6818 39.0656 38.7347 38.0127 38.7347 36.7181V22.6327C38.7347 21.338 37.6818 20.2852 36.3871 20.2852Z" fill="white"/>
</svg>
