<svg width="40" height="40" viewBox="0 0 40 40" fill="none" xmlns="http://www.w3.org/2000/svg">
<path d="M10.0002 31.666C5.85803 31.666 3.3335 28.3082 3.3335 24.166C3.3335 20.0239 6.69136 16.666 10.8335 16.666H11.6668V14.9993C11.6668 10.397 15.3978 6.66602 20.0002 6.66602C24.6025 6.66602 28.3335 10.397 28.3335 14.9993V16.666H29.1668C33.309 16.666 36.6668 20.0239 36.6668 24.166C36.6668 28.3082 34.1423 31.666 30.0002 31.666" stroke="#3EBA59" stroke-width="2.5" stroke-linecap="round" stroke-linejoin="round"/>
<path d="M15 32.5V25.8333C15 25.3731 15.3731 25 15.8333 25H24.1667C24.6269 25 25 25.3731 25 25.8333V32.5C25 32.9602 24.6269 33.3333 24.1667 33.3333H15.8333C15.3731 33.3333 15 32.9602 15 32.5Z" stroke="#3EBA59" stroke-width="2.5" stroke-linecap="round" stroke-linejoin="round"/>
<path d="M16.667 25V23.3333C16.667 21.4924 18.1594 20 20.0003 20V20C21.8413 20 23.3337 21.4924 23.3337 23.3333V25" stroke="#3EBA59" stroke-width="2.5" stroke-linecap="round" stroke-linejoin="round"/>
</svg>
