<svg width="571" height="498" viewBox="0 0 571 498" fill="none" xmlns="http://www.w3.org/2000/svg">
<rect x="3.90108" y="1.15694" width="562.857" height="389.953" rx="36.4202" fill="#0C0047" stroke="white" stroke-width="0.735761"/>
<mask id="mask0_273_7535" style="mask-type:alpha" maskUnits="userSpaceOnUse" x="3" y="0" width="565" height="392">
<rect x="3.90108" y="1.15694" width="562.857" height="389.953" rx="36.4202" fill="url(#paint0_linear_273_7535)" stroke="white" stroke-width="0.735761"/>
</mask>
<g mask="url(#mask0_273_7535)">
<path d="M356.166 557.023C327.888 540.145 -76.0231 552.804 48.9065 277.262C173.836 1.72005 515.282 -144.701 591.675 26.1939C668.068 197.089 455.35 444.781 245.164 462.926C34.9785 481.07 -103.879 356.169 -27.4863 218.187C48.9065 80.2052 407.235 -109.256 473.92 48.5579C540.606 206.372 455.35 368.406 245.164 378.111C34.9785 387.816 -57.0304 327.476 42.5756 176.835C142.182 26.1939 395.417 13.113 386.976 94.9739C378.535 176.835 364.185 298.782 141.338 282.747C-81.5099 266.713 433.403 -1.65568 658.36 82.315" stroke="white" stroke-width="0.735761"/>
</g>
<g filter="url(#filter0_d_273_7535)">
<rect x="72.6953" y="61.8574" width="425.27" height="395.839" rx="27.2232" fill="white"/>
<rect x="73.0632" y="62.2253" width="424.534" height="395.104" rx="26.8553" stroke="white" stroke-width="0.735761"/>
</g>
<rect x="73.0632" y="62.2253" width="424.534" height="395.104" rx="26.8553" fill="white" stroke="white" stroke-width="0.735761"/>
<defs>
<filter id="filter0_d_273_7535" x="59.4516" y="61.8574" width="454.7" height="435.571" filterUnits="userSpaceOnUse" color-interpolation-filters="sRGB">
<feFlood flood-opacity="0" result="BackgroundImageFix"/>
<feColorMatrix in="SourceAlpha" type="matrix" values="0 0 0 0 0 0 0 0 0 0 0 0 0 0 0 0 0 0 127 0" result="hardAlpha"/>
<feOffset dx="1.47152" dy="25.0159"/>
<feGaussianBlur stdDeviation="7.35761"/>
<feComposite in2="hardAlpha" operator="out"/>
<feColorMatrix type="matrix" values="0 0 0 0 0.908333 0 0 0 0 0.908333 0 0 0 0 0.908333 0 0 0 1 0"/>
<feBlend mode="multiply" in2="BackgroundImageFix" result="effect1_dropShadow_273_7535"/>
<feBlend mode="normal" in="SourceGraphic" in2="effect1_dropShadow_273_7535" result="shape"/>
</filter>
<linearGradient id="paint0_linear_273_7535" x1="-188.328" y1="0.789105" x2="680.732" y2="210.949" gradientUnits="userSpaceOnUse">
<stop offset="0.0963806" stop-color="#A2FBFF"/>
<stop offset="0.550589" stop-color="#CCD0FF"/>
<stop offset="1" stop-color="#FFCCE0"/>
</linearGradient>
</defs>
</svg>
