<svg width="571" height="497" viewBox="0 0 571 497" fill="none" xmlns="http://www.w3.org/2000/svg">
<rect x="3.86816" width="563.593" height="390.689" rx="36.788" fill="#0C0047"/>
<mask id="mask0_273_7592" style="mask-type:alpha" maskUnits="userSpaceOnUse" x="3" y="0" width="565" height="391">
<rect x="3.86816" width="563.593" height="390.689" rx="36.788" fill="url(#paint0_linear_273_7592)"/>
</mask>
<g mask="url(#mask0_273_7592)">
<path d="M356.501 556.234C328.223 539.356 -75.6881 552.015 49.2414 276.473C174.171 0.930983 515.617 -145.49 592.01 25.4048C668.403 196.3 455.685 443.992 245.499 462.137C35.3135 480.281 -103.544 355.38 -27.1513 217.398C49.2414 79.4161 407.57 -110.045 474.255 47.7689C540.941 205.583 455.685 367.617 245.499 377.322C35.3135 387.027 -56.6955 326.687 42.9105 176.046C142.517 25.4048 395.752 12.324 387.311 94.1848C378.87 176.046 364.52 297.993 141.672 281.958C-81.1749 265.924 433.738 -2.44474 658.695 81.5259" stroke="white" stroke-width="0.735761"/>
</g>
<g filter="url(#filter0_d_273_7592)">
<rect x="73.0303" y="61.0684" width="425.27" height="395.839" rx="27.2232" fill="white"/>
</g>
<rect x="73.0303" y="61.0684" width="425.27" height="395.839" rx="27.2232" fill="white"/>
<defs>
<filter id="filter0_d_273_7592" x="59.7866" y="61.0684" width="454.7" height="435.571" filterUnits="userSpaceOnUse" color-interpolation-filters="sRGB">
<feFlood flood-opacity="0" result="BackgroundImageFix"/>
<feColorMatrix in="SourceAlpha" type="matrix" values="0 0 0 0 0 0 0 0 0 0 0 0 0 0 0 0 0 0 127 0" result="hardAlpha"/>
<feOffset dx="1.47152" dy="25.0159"/>
<feGaussianBlur stdDeviation="7.35761"/>
<feComposite in2="hardAlpha" operator="out"/>
<feColorMatrix type="matrix" values="0 0 0 0 0.908333 0 0 0 0 0.908333 0 0 0 0 0.908333 0 0 0 1 0"/>
<feBlend mode="multiply" in2="BackgroundImageFix" result="effect1_dropShadow_273_7592"/>
<feBlend mode="normal" in="SourceGraphic" in2="effect1_dropShadow_273_7592" result="shape"/>
</filter>
<linearGradient id="paint0_linear_273_7592" x1="-187.993" y1="4.29773e-05" x2="681.067" y2="210.16" gradientUnits="userSpaceOnUse">
<stop offset="0.0963806" stop-color="#A2FBFF"/>
<stop offset="0.550589" stop-color="#CCD0FF"/>
<stop offset="1" stop-color="#FFCCE0"/>
</linearGradient>
</defs>
</svg>
