<svg width="496" height="529" viewBox="0 0 496 529" fill="none" xmlns="http://www.w3.org/2000/svg">
<rect x="0.830078" width="495" height="421.913" rx="33.2215" fill="#0C0047"/>
<mask id="mask0_273_6777" style="mask-type:alpha" maskUnits="userSpaceOnUse" x="0" y="0" width="496" height="422">
<rect x="0.830078" width="495" height="421.913" rx="33.2215" fill="url(#paint0_linear_273_6777)"/>
</mask>
<g mask="url(#mask0_273_6777)">
<path d="M305.323 510.281C279.786 495.039 -84.9659 506.471 27.8519 257.642C140.67 8.81405 449.013 -123.412 517.999 30.9152C586.986 185.242 394.891 408.921 205.083 425.306C15.2742 441.692 -110.121 328.9 -41.1347 204.295C27.8519 79.6901 351.441 -91.4032 411.661 51.111C471.881 193.625 394.891 339.95 205.083 348.714C15.2742 357.479 -67.8146 302.988 22.1348 166.952C112.084 30.9152 340.769 19.1025 333.146 93.027C325.523 166.951 312.564 277.076 111.322 262.596C-89.9207 248.116 375.071 5.7656 578.22 81.5954" stroke="white" stroke-width="0.664429"/>
</g>
<g filter="url(#filter0_d_273_6777)">
<rect x="61" y="62.793" width="384.04" height="429.886" rx="24.5839" fill="white"/>
</g>
<path d="M205.391 121.779C205.391 122.648 205.493 123.432 205.697 124.13C205.919 124.828 206.225 125.433 206.617 125.944C207.026 126.438 207.52 126.821 208.099 127.093C208.678 127.366 209.342 127.502 210.091 127.502C210.824 127.502 211.479 127.366 212.059 127.093C212.655 126.821 213.149 126.438 213.54 125.944C213.949 125.433 214.256 124.828 214.46 124.13C214.681 123.432 214.792 122.648 214.792 121.779C214.792 120.911 214.681 120.127 214.46 119.429C214.256 118.714 213.949 118.109 213.54 117.615C213.149 117.104 212.655 116.712 212.059 116.44C211.479 116.167 210.824 116.031 210.091 116.031C209.342 116.031 208.678 116.176 208.099 116.466C207.52 116.738 207.026 117.13 206.617 117.641C206.225 118.135 205.919 118.739 205.697 119.455C205.493 120.153 205.391 120.928 205.391 121.779ZM218.905 121.779C218.905 123.023 218.752 124.147 218.446 125.152C218.139 126.14 217.705 127.008 217.143 127.758C216.598 128.507 215.942 129.129 215.175 129.623C214.409 130.117 213.566 130.474 212.646 130.696C212.731 131.036 212.919 131.309 213.208 131.513C213.498 131.735 213.864 131.913 214.307 132.05C214.75 132.186 215.261 132.288 215.84 132.356C216.436 132.424 217.074 132.484 217.756 132.535L216.938 135.448C215.61 135.396 214.469 135.26 213.515 135.039C212.578 134.834 211.778 134.545 211.113 134.17C210.466 133.795 209.947 133.336 209.555 132.791C209.18 132.246 208.891 131.615 208.686 130.9C207.63 130.764 206.651 130.474 205.748 130.031C204.846 129.572 204.062 128.958 203.398 128.192C202.734 127.426 202.214 126.506 201.839 125.433C201.465 124.36 201.277 123.142 201.277 121.779C201.277 120.264 201.516 118.935 201.993 117.794C202.47 116.636 203.108 115.665 203.909 114.882C204.726 114.098 205.663 113.51 206.719 113.119C207.792 112.727 208.916 112.531 210.091 112.531C211.301 112.531 212.442 112.727 213.515 113.119C214.588 113.51 215.525 114.098 216.325 114.882C217.126 115.665 217.756 116.636 218.216 117.794C218.675 118.935 218.905 120.264 218.905 121.779ZM229.151 131.002C227.908 131.002 226.835 130.832 225.932 130.491C225.029 130.134 224.28 129.648 223.684 129.035C223.105 128.405 222.67 127.664 222.381 126.812C222.108 125.944 221.972 124.99 221.972 123.951V112.94H225.958V123.619C225.958 124.334 226.034 124.947 226.187 125.458C226.358 125.952 226.579 126.361 226.852 126.685C227.141 126.991 227.482 127.213 227.874 127.349C228.282 127.485 228.725 127.553 229.202 127.553C230.173 127.553 230.956 127.255 231.553 126.659C232.166 126.063 232.472 125.05 232.472 123.619V112.94H236.458V123.951C236.458 124.99 236.313 125.944 236.023 126.812C235.734 127.681 235.291 128.43 234.695 129.061C234.099 129.674 233.341 130.151 232.421 130.491C231.501 130.832 230.411 131.002 229.151 131.002ZM243.637 121.779C243.637 122.648 243.74 123.432 243.944 124.13C244.165 124.828 244.472 125.433 244.864 125.944C245.272 126.438 245.766 126.821 246.345 127.093C246.925 127.366 247.589 127.502 248.338 127.502C249.071 127.502 249.726 127.366 250.305 127.093C250.901 126.821 251.395 126.438 251.787 125.944C252.196 125.433 252.502 124.828 252.707 124.13C252.928 123.432 253.039 122.648 253.039 121.779C253.039 120.911 252.928 120.127 252.707 119.429C252.502 118.714 252.196 118.109 251.787 117.615C251.395 117.104 250.901 116.712 250.305 116.44C249.726 116.167 249.071 116.031 248.338 116.031C247.589 116.031 246.925 116.176 246.345 116.466C245.766 116.738 245.272 117.13 244.864 117.641C244.472 118.135 244.165 118.739 243.944 119.455C243.74 120.153 243.637 120.928 243.637 121.779ZM257.152 121.779C257.152 123.295 256.922 124.632 256.462 125.79C256.02 126.932 255.406 127.894 254.623 128.677C253.839 129.444 252.903 130.023 251.813 130.415C250.74 130.806 249.582 131.002 248.338 131.002C247.129 131.002 245.988 130.806 244.915 130.415C243.842 130.023 242.905 129.444 242.105 128.677C241.304 127.894 240.674 126.932 240.214 125.79C239.754 124.632 239.524 123.295 239.524 121.779C239.524 120.264 239.763 118.935 240.24 117.794C240.716 116.636 241.355 115.665 242.156 114.882C242.973 114.098 243.91 113.51 244.966 113.119C246.039 112.727 247.163 112.531 248.338 112.531C249.547 112.531 250.689 112.727 251.762 113.119C252.835 113.51 253.771 114.098 254.572 114.882C255.372 115.665 256.003 116.636 256.462 117.794C256.922 118.935 257.152 120.264 257.152 121.779ZM273.007 112.94V116.338H267.668V130.645H263.682V116.338H258.343V112.94H273.007ZM275.569 130.645V112.94H287.525V116.287H279.554V119.761H286.631V123.031H279.554V127.298H288.113V130.645H275.569ZM301.729 130.645C301.235 129.657 300.69 128.66 300.094 127.655C299.515 126.634 298.842 125.595 298.076 124.539C297.837 124.845 297.531 125.271 297.156 125.816C296.798 126.361 296.432 126.94 296.057 127.553C295.7 128.166 295.359 128.754 295.035 129.316C294.712 129.878 294.473 130.321 294.32 130.645H289.773C290.522 129.265 291.391 127.817 292.378 126.301C293.383 124.786 294.499 123.176 295.725 121.473L290.028 112.94H294.857L298.305 118.458L301.678 112.94H306.225L300.605 121.524C302.035 123.38 303.236 125.101 304.207 126.685C305.178 128.252 305.944 129.572 306.506 130.645H301.729Z" fill="#212326"/>
<path d="M250.657 443.176C336.157 443.176 405.469 434.4 405.469 423.575C405.469 412.75 336.157 403.975 250.657 403.975C165.156 403.975 95.8447 412.75 95.8447 423.575C95.8447 434.4 165.156 443.176 250.657 443.176Z" fill="#F5F5F5"/>
<path d="M347.979 194.436H204.856C201.622 194.436 199 197.057 199 200.291V376.021C199 379.256 201.622 381.877 204.856 381.877H347.979C351.213 381.877 353.835 379.256 353.835 376.021V200.291C353.835 197.057 351.213 194.436 347.979 194.436Z" fill="#3EBA59"/>
<path opacity="0.6" d="M347.979 194.436H204.856C201.622 194.436 199 197.057 199 200.291V376.021C199 379.256 201.622 381.877 204.856 381.877H347.979C351.213 381.877 353.835 379.256 353.835 376.021V200.291C353.835 197.057 351.213 194.436 347.979 194.436Z" fill="white"/>
<path opacity="0.2" d="M327.749 331.104H227.08C225.976 331.104 225.08 331.999 225.08 333.104V347.023C225.08 348.128 225.976 349.023 227.08 349.023H327.749C328.853 349.023 329.749 348.128 329.749 347.023V333.104C329.749 331.999 328.853 331.104 327.749 331.104Z" fill="black"/>
<path d="M326.658 330H225.989C224.885 330 223.989 330.895 223.989 332V345.919C223.989 347.024 224.885 347.919 225.989 347.919H326.658C327.762 347.919 328.658 347.024 328.658 345.919V332C328.658 330.895 327.762 330 326.658 330Z" fill="#3EBA59"/>
<path d="M371.494 388.643C371.494 388.643 366.55 389.299 364.438 388.643C362.326 387.987 363.118 378.403 360.966 378.203C355.998 377.747 356.846 390.475 358.958 393.155C361.07 395.835 371.942 394.699 371.942 394.699L371.494 388.643Z" fill="#3EBA59"/>
<path opacity="0.2" d="M371.494 388.643C371.494 388.643 366.55 389.299 364.438 388.643C362.326 387.987 363.118 378.403 360.966 378.203C355.998 377.747 356.846 390.475 358.958 393.155C361.07 395.835 371.942 394.699 371.942 394.699L371.494 388.643Z" fill="white"/>
<path d="M371.901 411.21C371.901 411.21 364.582 346.221 373.317 345.477C382.053 344.733 384.165 367.644 380.789 410.386L371.901 411.21Z" fill="#3EBA59"/>
<path opacity="0.3" d="M371.901 411.21C371.901 411.21 364.582 346.221 373.317 345.477C382.053 344.733 384.165 367.644 380.789 410.386L371.901 411.21Z" fill="white"/>
<path d="M361.638 403.348H390.381L387.981 421.731H364.038L361.638 403.348Z" fill="#263238"/>
<path d="M380.581 366.781C380.581 366.781 388.581 367.205 388.781 366.781C388.981 366.357 389.021 357.181 392.397 357.701C395.773 358.221 394.293 369.317 392.397 370.605C390.501 371.892 380.581 372.588 380.581 372.588C380.581 372.588 379.253 368.493 380.581 366.781Z" fill="#3EBA59"/>
<path opacity="0.4" d="M380.581 366.781C380.581 366.781 388.581 367.205 388.781 366.781C388.981 366.357 389.021 357.181 392.397 357.701C395.773 358.221 394.293 369.317 392.397 370.605C390.501 371.892 380.581 372.588 380.581 372.588C380.581 372.588 379.253 368.493 380.581 366.781Z" fill="white"/>
<path d="M375.533 405.291C373.765 387.956 371.845 370.532 372.285 353.085C372.413 351.749 372.501 345.205 374.725 346.205C375.011 346.443 375.229 346.752 375.357 347.101C376.038 349.206 376.468 351.383 376.637 353.589C378.317 370.964 378.189 388.452 378.101 405.883C377.773 388.468 377.749 370.996 376.045 353.661C375.821 351.541 374.541 342.237 373.237 349.429C372.808 353.124 372.65 356.846 372.765 360.565C373.061 375.5 374.269 390.404 375.533 405.291Z" fill="#3EBA59"/>
<path d="M381.582 368.963C383.918 368.739 388.077 368.595 390.077 368.075C390.077 365.331 391.045 361.603 392.029 358.684C391.749 359.988 391.477 361.884 391.229 363.251C390.913 364.899 390.72 366.567 390.653 368.243C390.525 368.635 390.037 368.707 389.725 368.787C387.018 369.154 384.278 369.213 381.558 368.963H381.582Z" fill="#3EBA59"/>
<path d="M381.581 371.082C384.917 370.466 388.637 370.226 391.909 369.442C392.757 368.098 392.709 366.202 392.949 364.642C393.141 362.898 393.285 361.146 393.453 359.395C393.545 361.156 393.545 362.921 393.453 364.682C393.422 366.254 393.18 367.815 392.733 369.322C392.64 369.607 392.45 369.851 392.197 370.01C388.707 370.695 385.161 371.054 381.605 371.082H381.581Z" fill="#3EBA59"/>
<path d="M369.03 390.419C366.726 390.467 364.342 390.579 362.11 389.811C361.559 389.327 361.211 388.653 361.134 387.923C360.848 386.469 360.703 384.99 360.702 383.507C360.669 382.036 360.72 380.565 360.854 379.1C360.966 380.564 361.054 382.027 361.182 383.483C361.279 384.928 361.466 386.366 361.742 387.787C361.91 388.443 362.07 389.267 362.606 389.387C364.707 389.913 366.847 390.264 369.006 390.435L369.03 390.419Z" fill="#3EBA59"/>
<path d="M359.382 380.259L359.902 385.37C360.222 387.602 360.166 390.034 361.054 392.098C361.194 392.203 361.347 392.29 361.51 392.354C363.91 393.154 366.526 393.21 369.03 393.506C367.312 393.595 365.59 393.561 363.878 393.402C362.694 393.202 360.678 393.242 360.27 391.802C359.278 388.034 359.334 384.09 359.382 380.227V380.259Z" fill="#3EBA59"/>
<path d="M341.445 199.352C343.94 195.005 348.058 191.825 352.895 190.511C357.732 189.197 362.893 189.856 367.244 192.344L366.444 193.696L371.804 192.24L370.348 186.88L369.548 188.224C364.691 185.441 359.005 184.471 353.5 185.486C347.995 186.502 343.029 189.437 339.485 193.77C335.941 198.103 334.049 203.552 334.146 209.149C334.243 214.746 336.322 220.127 340.013 224.335L343.581 221.207C340.992 218.241 339.395 214.54 339.012 210.622C338.629 206.703 339.48 202.763 341.445 199.352Z" fill="#263238"/>
<path d="M375.844 193.449L372.244 196.497C375.122 199.889 376.713 204.187 376.735 208.635C376.757 213.084 375.209 217.398 372.365 220.818C369.52 224.238 365.56 226.545 361.182 227.334C356.804 228.122 352.288 227.341 348.429 225.128L349.229 223.776L343.845 225.296L345.301 230.656L346.101 229.304C350.932 232.052 356.577 233.012 362.045 232.014C367.513 231.016 372.455 228.124 376.004 223.846C379.552 219.568 381.481 214.177 381.452 208.618C381.423 203.06 379.437 197.69 375.844 193.449Z" fill="#263238"/>
<g opacity="0.6">
<path d="M341.445 199.352C343.94 195.005 348.058 191.825 352.895 190.511C357.732 189.197 362.893 189.856 367.244 192.344L366.444 193.696L371.804 192.24L370.348 186.88L369.548 188.224C364.691 185.441 359.005 184.471 353.5 185.486C347.995 186.502 343.029 189.437 339.485 193.77C335.941 198.103 334.049 203.552 334.146 209.149C334.243 214.746 336.322 220.127 340.013 224.335L343.581 221.207C340.992 218.241 339.395 214.54 339.012 210.622C338.629 206.703 339.48 202.763 341.445 199.352Z" fill="white"/>
<path d="M375.844 193.449L372.244 196.497C375.122 199.889 376.713 204.187 376.735 208.635C376.757 213.084 375.209 217.398 372.365 220.818C369.52 224.238 365.56 226.545 361.182 227.334C356.804 228.122 352.288 227.341 348.429 225.128L349.229 223.776L343.845 225.296L345.301 230.656L346.101 229.304C350.932 232.052 356.577 233.012 362.045 232.014C367.513 231.016 372.455 228.124 376.004 223.846C379.552 219.568 381.481 214.177 381.452 208.618C381.423 203.06 379.437 197.69 375.844 193.449Z" fill="white"/>
</g>
<path d="M354.422 186.33H349.206V170.331C349.206 167.388 348.037 164.566 345.956 162.485C343.875 160.404 341.053 159.235 338.11 159.235C335.168 159.235 332.345 160.404 330.264 162.485C328.184 164.566 327.015 167.388 327.015 170.331V186.33H321.799V170.331C321.799 166.005 323.517 161.856 326.576 158.797C329.635 155.738 333.784 154.02 338.11 154.02C342.436 154.02 346.585 155.738 349.644 158.797C352.703 161.856 354.422 166.005 354.422 170.331V186.33Z" fill="#263238"/>
<g opacity="0.3">
<path d="M354.422 186.33H349.206V170.331C349.206 167.388 348.037 164.566 345.956 162.485C343.875 160.404 341.053 159.235 338.11 159.235C335.168 159.235 332.345 160.404 330.264 162.485C328.184 164.566 327.015 167.388 327.015 170.331V186.33H321.799V170.331C321.799 166.005 323.517 161.856 326.576 158.797C329.635 155.738 333.784 154.02 338.11 154.02C342.436 154.02 346.585 155.738 349.644 158.797C352.703 161.856 354.422 166.005 354.422 170.331V186.33Z" fill="white"/>
</g>
<path d="M360.398 182.259V208.442C360.398 208.841 360.319 209.236 360.166 209.605C360.014 209.974 359.79 210.309 359.507 210.591C359.225 210.874 358.89 211.098 358.521 211.25C358.152 211.403 357.757 211.482 357.358 211.482H318.847C318.449 211.481 318.055 211.401 317.687 211.248C317.32 211.095 316.986 210.87 316.706 210.588C316.425 210.306 316.202 209.971 316.051 209.603C315.9 209.234 315.822 208.84 315.823 208.442V182.259C315.822 181.861 315.9 181.466 316.051 181.098C316.202 180.73 316.425 180.395 316.706 180.113C316.986 179.83 317.32 179.606 317.687 179.453C318.055 179.299 318.449 179.22 318.847 179.219H357.358C357.862 179.215 358.358 179.342 358.798 179.587C359.282 179.844 359.687 180.229 359.969 180.7C360.251 181.171 360.399 181.71 360.398 182.259Z" fill="#3EBA59"/>
<path opacity="0.2" d="M358.798 179.587V205.242C358.798 205.641 358.719 206.036 358.566 206.404C358.413 206.772 358.189 207.107 357.907 207.389C357.625 207.67 357.289 207.893 356.921 208.045C356.552 208.197 356.157 208.275 355.758 208.274H317.247C316.75 208.275 316.26 208.152 315.823 207.914V182.259C315.822 181.861 315.9 181.466 316.051 181.098C316.202 180.73 316.425 180.395 316.706 180.113C316.986 179.83 317.32 179.606 317.687 179.453C318.055 179.299 318.449 179.22 318.847 179.219H357.358C357.862 179.215 358.358 179.342 358.798 179.587Z" fill="white"/>
<path opacity="0.5" d="M343.847 192.068C343.832 191.024 343.533 190.003 342.981 189.117C342.43 188.23 341.646 187.511 340.716 187.037C339.786 186.563 338.744 186.352 337.702 186.427C336.661 186.501 335.659 186.859 334.806 187.461C333.953 188.062 333.28 188.886 332.86 189.842C332.44 190.798 332.289 191.85 332.424 192.886C332.558 193.921 332.972 194.9 333.622 195.718C334.272 196.535 335.133 197.159 336.111 197.524L335.847 204.499H340.431L339.751 197.66C340.944 197.29 341.986 196.547 342.723 195.54C343.461 194.534 343.855 193.316 343.847 192.068Z" fill="black"/>
<path d="M154.548 199.355L157.204 207.891L159.852 199.355H154.548Z" fill="#3EBA59"/>
<path d="M178.916 178.963H135.485C131.69 178.963 128.613 182.039 128.613 185.835V195.09C128.613 198.886 131.69 201.962 135.485 201.962H178.916C182.711 201.962 185.787 198.886 185.787 195.09V185.835C185.787 182.039 182.711 178.963 178.916 178.963Z" fill="#3EBA59"/>
<path d="M142.053 190.452L143.557 191.3L143.165 191.987L141.637 191.092V192.811H140.837V191.092L139.309 191.987L138.917 191.3L140.437 190.452L138.917 189.652L139.309 188.948L140.837 189.844V188.1H141.637V189.804L143.165 188.908L143.557 189.612L142.053 190.452Z" fill="white"/>
<path d="M147.365 190.452L148.869 191.3L148.477 191.987L146.949 191.092V192.811H146.197V191.092L144.653 191.987L144.261 191.3L145.781 190.452L144.261 189.652L144.653 188.948L146.181 189.844V188.1H146.933V189.804L148.461 188.908L148.853 189.612L147.365 190.452Z" fill="white"/>
<path d="M152.652 190.449L154.156 191.297L153.764 191.985L152.237 191.089V192.809H151.437V191.089L149.909 191.985L149.517 191.297L151.029 190.449L149.517 189.649L149.909 188.945L151.437 189.841V188.137H152.237V189.841L153.764 188.945L154.156 189.649L152.652 190.449Z" fill="white"/>
<path d="M157.987 190.449L159.491 191.297L159.099 191.985L157.572 191.089V192.809H156.812V191.089L155.284 191.985L154.892 191.297L156.404 190.449L154.892 189.649L155.284 188.945L156.812 189.841V188.137H157.572V189.841L159.099 188.945L159.491 189.649L157.987 190.449Z" fill="white"/>
<path d="M163.301 190.449L164.805 191.297L164.413 191.985L162.877 191.089V192.809H162.077V191.089L160.653 191.985L160.253 191.297L161.773 190.449L160.253 189.649L160.653 188.945L162.181 189.841V188.137H162.981V189.841L164.517 188.945L164.909 189.649L163.301 190.449Z" fill="white"/>
<path d="M168.603 190.449L170.115 191.297L169.723 191.985L168.187 191.089V192.809H167.427V191.089L165.891 191.985L165.499 191.297L167.019 190.449L165.499 189.649L165.891 188.945L167.427 189.841V188.137H168.187V189.841L169.723 188.945L170.115 189.649L168.603 190.449Z" fill="white"/>
<path d="M173.915 190.452L175.419 191.3L175.027 191.987L173.499 191.092V192.811H172.699V191.092L171.171 191.987L170.779 191.3L172.299 190.452L170.779 189.652L171.171 188.948L172.699 189.844V188.1H173.499V189.804L175.027 188.908L175.419 189.612L173.915 190.452Z" fill="white"/>
<path d="M191.908 258.954L196.788 255.794L191.292 252.418C191.292 252.418 187.109 255.498 188.788 257.586L191.908 258.954Z" fill="#B55B52"/>
<path d="M199.292 250.601L193.58 249.305L191.292 252.417L196.788 255.792L199.292 250.601Z" fill="#B55B52"/>
<path d="M171.854 248.697C174.941 253.369 178.037 259.049 182.253 262.689C182.333 262.753 182.301 262.689 181.989 262.689C181.829 262.729 181.909 262.809 182.237 262.689C183.197 262.142 184.042 261.414 184.725 260.545C186.29 258.649 187.682 256.617 188.885 254.473C188.941 254.385 188.885 254.473 188.885 254.569C188.865 254.715 188.865 254.863 188.885 255.009C188.957 255.081 188.701 254.873 189.197 255.969C189.431 256.319 189.763 256.591 190.152 256.752C190.541 256.913 190.968 256.955 191.381 256.873C191.645 256.816 191.894 256.705 192.113 256.547C192.332 256.388 192.516 256.186 192.653 255.953C192.528 256.101 192.415 256.259 192.317 256.425L188.733 254.897C188.82 254.388 189.028 253.908 189.341 253.497C189.631 253.171 190.013 252.942 190.437 252.841C190.853 252.76 191.283 252.803 191.675 252.965C192.066 253.127 192.401 253.401 192.637 253.753C193.133 254.857 192.885 254.649 192.957 254.729C192.966 254.984 192.942 255.24 192.885 255.489C191.629 260.825 188.349 269.617 181.549 269.665C176.749 269.225 173.11 263.953 170.414 260.625C168.5 258.063 166.737 255.392 165.134 252.625L171.814 248.705L171.854 248.697Z" fill="#B55B52"/>
<path d="M169.388 245.186C172.588 246.242 179.076 260.985 179.076 260.985L168.053 266.217C168.053 266.217 165.813 254.633 166.253 250.897C166.528 248.662 167.651 246.618 169.388 245.186Z" fill="#3EBA59"/>
<path opacity="0.7" d="M169.388 245.186C172.588 246.242 179.076 260.985 179.076 260.985L168.053 266.217C168.053 266.217 165.813 254.633 166.253 250.897C166.528 248.662 167.651 246.618 169.388 245.186Z" fill="white"/>
<path d="M182.348 416.117L176.733 417.709L175.397 408.965L174.677 404.293L180.293 402.701L181.253 408.965L182.348 416.117Z" fill="#B55B52"/>
<path d="M150.063 416.573L144.271 417.341L144.215 408.966L144.175 403.758L149.975 403.006L150.015 408.966L150.063 416.573Z" fill="#B55B52"/>
<path opacity="0.2" d="M149.975 403.006L150.015 408.966H144.215L144.175 403.758L149.975 403.006Z" fill="black"/>
<path opacity="0.2" d="M181.253 408.965H175.397L174.677 404.293L180.293 402.701L181.253 408.965Z" fill="black"/>
<path d="M182.253 415.237L175.853 415.069C175.737 415.065 175.623 415.101 175.53 415.171C175.437 415.241 175.37 415.34 175.341 415.453L174.005 420.588C173.963 420.712 173.952 420.844 173.973 420.973C173.994 421.102 174.046 421.224 174.125 421.329C174.204 421.433 174.307 421.516 174.426 421.571C174.545 421.626 174.675 421.651 174.805 421.644C177.109 421.644 180.405 421.644 183.325 421.7C186.709 421.796 188.861 421.628 192.829 421.7C195.229 421.764 195.973 419.372 194.981 419.124C190.445 418.005 187.485 418.229 183.621 415.701C183.216 415.423 182.743 415.263 182.253 415.237Z" fill="#263238"/>
<path d="M182.741 415.949C182.736 415.92 182.741 415.891 182.754 415.865C182.767 415.839 182.787 415.818 182.813 415.805C183.085 415.677 185.477 414.549 186.173 414.965C186.239 415.003 186.294 415.058 186.332 415.124C186.37 415.19 186.389 415.265 186.389 415.341C186.397 415.466 186.375 415.592 186.324 415.707C186.274 415.822 186.198 415.924 186.101 416.005C185.445 416.549 183.781 416.277 182.845 416.061C182.818 416.056 182.793 416.042 182.775 416.022C182.756 416.002 182.744 415.976 182.741 415.949ZM183.309 415.885C184.597 416.133 185.557 416.101 185.925 415.789C185.99 415.738 186.041 415.672 186.074 415.597C186.106 415.521 186.118 415.438 186.109 415.357C186.112 415.326 186.105 415.296 186.091 415.269C186.077 415.242 186.056 415.22 186.029 415.205H185.981C185.541 415.021 184.253 415.469 183.309 415.885Z" fill="#3EBA59"/>
<path d="M182.788 416.036C182.769 416.024 182.754 416.006 182.745 415.984C182.737 415.963 182.735 415.939 182.74 415.916C182.824 415.092 183.169 414.316 183.724 413.701C183.834 413.609 183.963 413.542 184.101 413.505C184.239 413.468 184.383 413.461 184.524 413.485C184.9 413.533 185.004 413.725 185.028 413.885C185.108 414.54 183.668 415.764 182.948 416.06C182.917 416.069 182.884 416.069 182.852 416.06L182.788 416.036ZM184.46 413.757C184.36 413.743 184.257 413.75 184.16 413.778C184.062 413.805 183.971 413.853 183.892 413.917C183.449 414.409 183.17 415.027 183.092 415.684C183.828 415.276 184.812 414.317 184.756 413.917C184.756 413.917 184.756 413.829 184.636 413.789L184.46 413.757Z" fill="#3EBA59"/>
<path d="M149.83 415.237L143.43 415.069C143.314 415.065 143.2 415.101 143.107 415.171C143.014 415.241 142.947 415.34 142.918 415.453L141.574 420.588C141.541 420.712 141.537 420.841 141.562 420.967C141.586 421.092 141.639 421.21 141.716 421.312C141.793 421.414 141.893 421.496 142.007 421.554C142.121 421.612 142.246 421.643 142.374 421.644C144.67 421.644 147.974 421.644 150.894 421.7C154.278 421.796 156.422 421.628 160.39 421.7C162.789 421.764 163.541 419.372 162.541 419.124C158.014 418.005 155.046 418.229 151.19 415.701C150.787 415.426 150.317 415.265 149.83 415.237Z" fill="#263238"/>
<path d="M150.254 415.949C150.25 415.919 150.256 415.889 150.27 415.863C150.284 415.837 150.307 415.817 150.334 415.805C150.606 415.677 152.99 414.549 153.686 414.965C153.752 415.003 153.807 415.058 153.845 415.124C153.883 415.19 153.903 415.265 153.902 415.341C153.911 415.466 153.89 415.591 153.841 415.706C153.793 415.821 153.718 415.924 153.622 416.005C152.958 416.549 151.294 416.277 150.358 416.061C150.332 416.054 150.309 416.039 150.29 416.02C150.272 416 150.259 415.975 150.254 415.949ZM150.83 415.885C152.11 416.133 153.078 416.101 153.446 415.789C153.51 415.737 153.56 415.671 153.593 415.596C153.625 415.52 153.638 415.438 153.63 415.357C153.63 415.326 153.622 415.296 153.607 415.269C153.591 415.242 153.569 415.22 153.542 415.205H153.494C153.094 415.021 151.806 415.469 150.862 415.885H150.83Z" fill="#3EBA59"/>
<path d="M150.342 416.035C150.322 416.023 150.306 416.005 150.296 415.983C150.286 415.962 150.283 415.938 150.286 415.915C150.374 415.09 150.722 414.314 151.278 413.699C151.388 413.607 151.516 413.54 151.655 413.503C151.793 413.465 151.937 413.459 152.078 413.483C152.454 413.531 152.558 413.723 152.574 413.883C152.662 414.539 151.214 415.763 150.502 416.059C150.468 416.067 150.433 416.067 150.398 416.059L150.342 416.035ZM152.014 413.755C151.914 413.741 151.811 413.748 151.714 413.776C151.616 413.803 151.525 413.851 151.446 413.915C151.007 414.41 150.728 415.026 150.646 415.683C151.382 415.275 152.366 414.315 152.318 413.915C152.312 413.884 152.296 413.855 152.273 413.832C152.25 413.81 152.222 413.794 152.19 413.787C152.134 413.766 152.075 413.755 152.014 413.755Z" fill="#3EBA59"/>
<path d="M138.119 289.299C135.047 302.594 140.311 407.207 140.311 407.207H150.486L154.838 320.01L170.838 407.207L181.717 406.407C174.605 338.873 168.326 298.555 168.326 298.555V293.459L138.119 289.299Z" fill="#263238"/>
<path opacity="0.2" d="M181.733 406.391L170.853 407.191L158.254 338.553L154.846 320.002L150.494 407.199H140.318C140.318 407.199 135.054 302.57 138.118 289.299L168.357 293.467V298.563C168.357 298.563 174.621 338.897 181.733 406.391Z" fill="white"/>
<path d="M137.454 244.332C138.52 250.61 139.116 256.958 139.238 263.324C139.342 267.764 139.238 271.987 139.086 275.811C138.686 284.779 137.822 291.563 137.862 293.891L168.389 294.435C175.669 262.516 169.413 245.188 169.413 245.188C167.046 244.531 164.642 244.018 162.213 243.652C161.68 243.583 161.147 243.519 160.613 243.46C156.296 243.132 151.964 243.052 147.638 243.22C146.838 243.22 145.982 243.292 145.174 243.356C141.094 243.7 137.454 244.332 137.454 244.332Z" fill="#3EBA59"/>
<path d="M161.605 244.498C161.605 244.498 159.789 247.13 158.333 247.314C156.269 247.594 148.733 242.978 148.733 242.978C150.477 241.69 151.333 238.882 151.709 235.914C151.978 233.505 152.029 231.076 151.861 228.658L158.909 236.322C157.981 238.722 157.429 241.282 159.253 243.082C159.923 243.721 160.726 244.204 161.605 244.498Z" fill="#B55B52"/>
<path opacity="0.2" d="M159.237 243.057C156.133 241.363 153.53 238.879 151.693 235.857C151.962 233.448 152.013 231.02 151.845 228.602L158.893 236.265C157.965 238.689 157.453 241.297 159.237 243.057Z" fill="black"/>
<path d="M167.054 221.747C167.654 223.963 167.054 228.458 164.078 226.859C161.102 225.259 166.054 217.923 167.054 221.747Z" fill="#263238"/>
<path d="M151.15 224.027C150.566 229.627 149.942 232.907 152.286 236.211C155.822 241.171 163.142 239.691 165.389 234.339C167.421 229.539 168.029 221.139 162.934 218.068C161.803 217.388 160.518 217.006 159.2 216.958C157.882 216.91 156.573 217.197 155.396 217.793C154.218 218.388 153.212 219.272 152.469 220.363C151.727 221.453 151.273 222.714 151.15 224.027Z" fill="#B55B52"/>
<path d="M155.23 221.13L155.51 214.834C155.51 214.834 148.822 214.034 148.974 217.49C145.182 219.17 146.686 225.018 151.55 228.066C154.382 226.002 154.294 220.714 154.294 220.714C154.582 220.858 154.902 220.994 155.23 221.13Z" fill="#263238"/>
<path d="M148.23 228.307C148.333 229.002 148.572 229.669 148.935 230.271C149.297 230.872 149.776 231.396 150.342 231.811C151.862 232.915 153.294 231.699 153.422 229.923C153.542 228.323 152.894 225.819 151.102 225.419C150.707 225.341 150.299 225.362 149.913 225.48C149.528 225.598 149.178 225.809 148.894 226.095C148.61 226.381 148.401 226.732 148.285 227.118C148.169 227.504 148.15 227.912 148.23 228.307Z" fill="#B55B52"/>
<path d="M159.364 226.899C159.284 227.355 159.468 227.755 159.764 227.803C160.06 227.851 160.364 227.523 160.436 227.067C160.508 226.611 160.332 226.211 160.036 226.163C159.74 226.115 159.436 226.443 159.364 226.899Z" fill="#263238"/>
<path d="M164.502 227.7C164.43 228.156 164.614 228.564 164.91 228.604C165.206 228.643 165.51 228.324 165.582 227.868C165.654 227.412 165.478 227.012 165.182 226.964C164.886 226.916 164.582 227.252 164.502 227.7Z" fill="#263238"/>
<path d="M162.829 227.697C163.173 229.124 163.711 230.497 164.429 231.777C164.079 231.933 163.7 232.013 163.317 232.013C162.934 232.013 162.555 231.933 162.205 231.777L162.829 227.697Z" fill="#A02724"/>
<path d="M159.478 233.139C159.668 233.199 159.864 233.245 160.062 233.275C160.096 233.28 160.132 233.271 160.16 233.25C160.188 233.229 160.208 233.198 160.214 233.163C160.217 233.145 160.217 233.127 160.213 233.109C160.209 233.091 160.202 233.074 160.191 233.059C160.181 233.044 160.168 233.032 160.152 233.022C160.137 233.012 160.12 233.006 160.102 233.003C159.537 232.928 158.998 232.72 158.528 232.398C158.058 232.075 157.671 231.647 157.398 231.147C157.392 231.13 157.382 231.115 157.37 231.102C157.357 231.089 157.342 231.079 157.326 231.072C157.309 231.065 157.291 231.062 157.273 231.063C157.255 231.063 157.238 231.067 157.222 231.075C157.189 231.089 157.163 231.116 157.15 231.149C157.136 231.181 157.136 231.218 157.15 231.251C157.388 231.708 157.717 232.112 158.118 232.437C158.518 232.761 158.981 233 159.478 233.139Z" fill="#263238"/>
<path d="M158.053 224.996C158.099 225.011 158.148 225.013 158.195 225.002C158.241 224.99 158.284 224.966 158.317 224.932C158.559 224.691 158.853 224.509 159.176 224.401C159.5 224.293 159.844 224.261 160.181 224.308C160.216 224.316 160.251 224.317 160.285 224.311C160.32 224.305 160.353 224.293 160.383 224.274C160.413 224.255 160.438 224.231 160.459 224.203C160.479 224.174 160.493 224.142 160.501 224.108C160.509 224.074 160.51 224.038 160.505 224.004C160.499 223.969 160.486 223.936 160.468 223.906C160.449 223.877 160.425 223.851 160.396 223.831C160.368 223.81 160.336 223.796 160.301 223.788C159.877 223.716 159.442 223.747 159.032 223.879C158.623 224.012 158.251 224.241 157.949 224.548C157.899 224.599 157.87 224.668 157.87 224.74C157.87 224.812 157.899 224.881 157.949 224.932C157.979 224.96 158.015 224.982 158.053 224.996Z" fill="#263238"/>
<path d="M167.054 226.283C167.103 226.299 167.156 226.299 167.206 226.283C167.274 226.263 167.332 226.216 167.367 226.153C167.401 226.09 167.409 226.016 167.39 225.947C167.277 225.535 167.066 225.155 166.775 224.842C166.484 224.528 166.121 224.29 165.718 224.148C165.649 224.13 165.576 224.139 165.513 224.173C165.451 224.207 165.404 224.264 165.382 224.332C165.362 224.4 165.37 224.474 165.405 224.537C165.439 224.6 165.497 224.647 165.566 224.668C165.886 224.78 166.172 224.971 166.4 225.222C166.628 225.474 166.789 225.778 166.87 226.107C166.884 226.15 166.908 226.188 166.94 226.218C166.972 226.249 167.011 226.271 167.054 226.283Z" fill="#263238"/>
<path d="M148.974 217.492C148.974 217.492 145.518 214.06 157.246 214.372C168.974 214.684 170.925 221.259 165.55 222.787L165.31 221.715C164.386 222.191 163.372 222.465 162.335 222.517C161.297 222.57 160.26 222.4 159.294 222.019L160.142 221.491C160.142 221.491 152.134 222.307 148.974 217.492Z" fill="#263238"/>
<path d="M158.334 247.29C158.334 247.29 156.838 249.018 155.134 250.722C152.646 249.466 146.822 246.098 147.134 242.986C147.478 242.082 149.846 241.506 149.846 241.506C149.846 241.506 152.358 244.858 158.334 247.29Z" fill="#3EBA59"/>
<path d="M158.333 247.291C159.557 248.277 160.634 249.433 161.533 250.722C163.365 249.538 162.445 243.747 161.773 243.107C160.804 242.577 159.717 242.302 158.613 242.307C158.975 243.097 159.139 243.965 159.091 244.833C159.042 245.702 158.782 246.545 158.333 247.291Z" fill="#3EBA59"/>
<g opacity="0.5">
<path d="M158.335 247.288C158.335 247.288 156.839 249.016 155.135 250.72C152.647 249.464 146.823 246.096 147.135 242.984C147.479 242.08 149.847 241.504 149.847 241.504C149.847 241.504 152.359 244.856 158.335 247.288Z" fill="white"/>
<path d="M158.336 247.287C159.56 248.273 160.637 249.429 161.536 250.719C163.368 249.535 162.448 243.743 161.776 243.103C160.807 242.574 159.72 242.298 158.616 242.303C158.978 243.094 159.142 243.961 159.094 244.829C159.045 245.698 158.785 246.541 158.336 247.287Z" fill="white"/>
</g>
<path opacity="0.2" d="M158.255 338.551L154.847 319.999L155.503 310.184C155.503 310.184 160.167 327.207 158.255 338.551Z" fill="black"/>
<path d="M140.654 252.802C137.694 257.738 133.11 264.802 130.598 269.818C129.263 272.658 128.847 275.698 128.119 278.762C127.423 282.033 126.727 285.369 125.959 288.665L122.135 288.329C121.999 284.865 122.031 281.433 122.239 277.97C122.503 274.362 122.695 270.466 124.055 267.042C126.759 260.458 130.319 254.57 134.134 248.643L140.654 252.818V252.802Z" fill="#B55B52"/>
<path d="M137.455 244.33C133.159 245.442 125.455 260.882 125.455 260.882L134.583 266.793L142.814 258.794C143.287 255.898 143.109 252.933 142.295 250.114C140.959 245.298 137.455 244.33 137.455 244.33Z" fill="#3EBA59"/>
<path opacity="0.7" d="M137.455 244.33C133.159 245.442 125.455 260.882 125.455 260.882L134.583 266.793L142.814 258.794C143.287 255.898 143.109 252.933 142.295 250.114C140.959 245.298 137.455 244.33 137.455 244.33Z" fill="white"/>
<path d="M140.692 291.926L204.105 224.681C204.447 224.318 204.857 224.027 205.311 223.823C205.765 223.619 206.255 223.507 206.753 223.492C207.251 223.477 207.746 223.561 208.212 223.738C208.677 223.915 209.103 224.182 209.465 224.523L210.996 225.967C211.728 226.657 212.155 227.609 212.185 228.614C212.214 229.62 211.843 230.595 211.153 231.327L147.74 298.572L140.692 291.926Z" fill="#263238"/>
<path opacity="0.6" d="M140.692 291.926L204.105 224.681C204.447 224.318 204.857 224.027 205.311 223.823C205.765 223.619 206.255 223.507 206.753 223.492C207.251 223.477 207.746 223.561 208.212 223.738C208.677 223.915 209.103 224.182 209.465 224.523L210.996 225.967C211.728 226.657 212.155 227.609 212.185 228.614C212.214 229.62 211.843 230.595 211.153 231.327L147.74 298.572L140.692 291.926Z" fill="white"/>
<path opacity="0.2" d="M209.932 224.973L210.996 225.973C211.359 226.313 211.65 226.722 211.854 227.176C212.058 227.629 212.171 228.118 212.186 228.615C212.201 229.112 212.117 229.608 211.941 230.072C211.764 230.537 211.498 230.963 211.156 231.324L147.742 298.578L146.687 297.578L210.1 230.324C210.441 229.962 210.707 229.536 210.883 229.071C211.059 228.606 211.141 228.111 211.126 227.614C211.11 227.117 210.997 226.628 210.792 226.174C210.587 225.721 210.295 225.313 209.932 224.973Z" fill="black"/>
<path d="M189.7 251.009L201.452 262.097L202.98 260.473L201.46 259.041L203.876 256.473L202.988 255.633L206.62 251.785L207.508 252.625L209.78 250.217L211.299 251.657L212.875 249.977L211.987 249.137L214.259 246.721L212.475 245.041L213.963 243.465L216.643 245.985L219.363 243.105L207.612 232.018L189.7 251.009Z" fill="#263238"/>
<path opacity="0.6" d="M189.7 251.009L201.452 262.097L202.98 260.473L201.46 259.041L203.876 256.473L202.988 255.633L206.62 251.785L207.508 252.625L209.78 250.217L211.299 251.657L212.875 249.977L211.987 249.137L214.259 246.721L212.475 245.041L213.963 243.465L216.643 245.985L219.363 243.105L207.612 232.018L189.7 251.009Z" fill="white"/>
<g opacity="0.2">
<path opacity="0.6" d="M201.92 259.482L200.395 261.1L201.454 262.099L202.98 260.481L201.92 259.482Z" fill="black"/>
<path opacity="0.6" d="M207.507 252.625L206.619 251.777L202.987 255.633L203.875 256.473L201.459 259.04L200.396 258.041L202.819 255.473L201.923 254.633L205.555 250.777L206.451 251.625L208.715 249.217L209.779 250.217L207.507 252.625Z" fill="black"/>
<path opacity="0.6" d="M210.923 248.131L213.203 245.723L214.267 246.723L211.987 249.139L212.883 249.979L211.299 251.658L210.243 250.658L211.819 248.979L210.923 248.131Z" fill="black"/>
<path opacity="0.6" d="M212.896 242.462L211.408 244.039L212.467 245.038L213.955 243.461L212.896 242.462Z" fill="black"/>
<path opacity="0.6" d="M218.301 242.111L215.579 244.998L216.638 245.997L219.361 243.11L218.301 242.111Z" fill="black"/>
</g>
<path d="M202.417 225.229L182.977 245.844C182.656 246.185 182.672 246.721 183.012 247.043L190.066 253.695C190.407 254.016 190.944 254 191.265 253.659L210.705 233.045C211.026 232.704 211.011 232.167 210.67 231.846L203.616 225.194C203.275 224.873 202.738 224.889 202.417 225.229Z" fill="#263238"/>
<path d="M148.11 320.314C146.634 321.879 144.865 323.138 142.903 324.02C140.941 324.901 138.825 325.387 136.675 325.45C134.525 325.513 132.384 325.152 130.373 324.388C128.363 323.623 126.523 322.47 124.958 320.994L119.647 315.986C118.082 314.511 116.822 312.742 115.941 310.78C115.06 308.818 114.574 306.702 114.511 304.552C114.448 302.402 114.809 300.261 115.573 298.25C116.338 296.24 117.491 294.4 118.967 292.835C120.443 291.264 122.216 290 124.182 289.115C126.148 288.23 128.27 287.742 130.425 287.679C132.58 287.616 134.727 287.979 136.742 288.747C138.756 289.515 140.6 290.673 142.166 292.155L147.47 297.163C149.032 298.641 150.288 300.412 151.165 302.376C152.043 304.339 152.525 306.456 152.585 308.606C152.644 310.756 152.28 312.896 151.512 314.905C150.744 316.914 149.588 318.752 148.11 320.314Z" fill="#263238"/>
<path d="M142.005 314.552C141.271 315.332 140.39 315.96 139.414 316.399C138.437 316.838 137.383 317.081 136.313 317.113C135.242 317.145 134.176 316.965 133.174 316.585C132.173 316.205 131.257 315.631 130.478 314.896L125.454 310.096C124.674 309.362 124.047 308.481 123.609 307.504C123.17 306.527 122.928 305.473 122.897 304.402C122.866 303.332 123.046 302.265 123.427 301.264C123.808 300.263 124.382 299.347 125.118 298.569C125.851 297.789 126.731 297.161 127.708 296.722C128.684 296.283 129.738 296.041 130.808 296.009C131.878 295.978 132.944 296.158 133.944 296.54C134.944 296.921 135.86 297.497 136.637 298.233L141.709 303.032C143.275 304.521 144.186 306.571 144.242 308.731C144.297 310.891 143.493 312.985 142.005 314.552Z" fill="white"/>
<path opacity="0.5" d="M202.417 225.229L182.977 245.844C182.656 246.185 182.672 246.721 183.012 247.043L190.066 253.695C190.407 254.016 190.944 254 191.265 253.659L210.705 233.045C211.026 232.704 211.011 232.167 210.67 231.846L203.616 225.194C203.275 224.873 202.738 224.889 202.417 225.229Z" fill="white"/>
<g opacity="0.5">
<path d="M148.11 320.314C146.634 321.879 144.865 323.138 142.903 324.02C140.941 324.901 138.825 325.387 136.675 325.45C134.525 325.513 132.384 325.152 130.373 324.388C128.363 323.623 126.523 322.47 124.958 320.994L119.647 315.986C118.082 314.511 116.822 312.742 115.941 310.78C115.06 308.818 114.574 306.702 114.511 304.552C114.448 302.402 114.809 300.261 115.573 298.25C116.338 296.24 117.491 294.4 118.967 292.835C120.443 291.264 122.216 290 124.182 289.115C126.148 288.23 128.27 287.742 130.425 287.679C132.58 287.616 134.727 287.979 136.742 288.747C138.756 289.515 140.6 290.673 142.166 292.155L147.47 297.163C149.032 298.641 150.288 300.412 151.165 302.376C152.043 304.339 152.525 306.456 152.585 308.606C152.644 310.756 152.28 312.896 151.512 314.905C150.744 316.914 149.588 318.752 148.11 320.314Z" fill="white"/>
<path d="M142.004 314.554C141.27 315.334 140.389 315.961 139.413 316.401C138.436 316.84 137.382 317.083 136.312 317.115C135.241 317.147 134.175 316.967 133.174 316.587C132.172 316.207 131.256 315.633 130.477 314.898L125.453 310.098C124.673 309.364 124.046 308.483 123.608 307.506C123.169 306.528 122.927 305.475 122.896 304.404C122.865 303.333 123.045 302.267 123.426 301.266C123.807 300.265 124.382 299.349 125.117 298.571C125.85 297.791 126.73 297.163 127.707 296.724C128.683 296.285 129.737 296.042 130.807 296.011C131.877 295.98 132.943 296.16 133.943 296.542C134.944 296.923 135.859 297.499 136.636 298.235L141.708 303.034C143.274 304.523 144.185 306.573 144.241 308.733C144.296 310.893 143.492 312.987 142.004 314.554Z" fill="white"/>
</g>
<path opacity="0.2" d="M208.549 229.842L210.677 231.842C210.757 231.921 210.821 232.015 210.864 232.118C210.908 232.222 210.93 232.333 210.93 232.446C210.93 232.558 210.908 232.669 210.864 232.773C210.821 232.877 210.757 232.971 210.677 233.05L191.238 253.657C191.16 253.737 191.066 253.8 190.963 253.844C190.86 253.887 190.75 253.909 190.638 253.909C190.526 253.909 190.416 253.887 190.312 253.844C190.209 253.8 190.116 253.737 190.038 253.657L187.918 251.657C188.077 251.814 188.291 251.902 188.514 251.902C188.737 251.902 188.951 251.814 189.11 251.657L208.549 231.042C208.629 230.964 208.693 230.87 208.736 230.767C208.779 230.664 208.801 230.554 208.801 230.442C208.801 230.33 208.779 230.219 208.736 230.116C208.693 230.013 208.629 229.92 208.549 229.842Z" fill="black"/>
<g opacity="0.2">
<path d="M135.054 296.754L136.654 298.25C135.064 296.875 133.006 296.168 130.907 296.273C128.809 296.379 126.832 297.29 125.388 298.817C123.945 300.344 123.146 302.369 123.159 304.47C123.171 306.572 123.993 308.587 125.454 310.097L123.855 308.593C122.281 307.108 121.363 305.059 121.3 302.896C121.238 300.734 122.037 298.635 123.523 297.062C125.008 295.488 127.057 294.57 129.22 294.507C131.382 294.445 133.481 295.244 135.054 296.73V296.754Z" fill="black"/>
<path d="M145.846 295.699L147.446 297.203C150.507 300.208 152.267 304.292 152.349 308.58C152.432 312.868 150.83 317.017 147.887 320.136C144.944 323.256 140.896 325.098 136.61 325.265C132.325 325.433 128.145 323.914 124.967 321.034L123.367 319.538C126.534 322.486 130.739 324.061 135.063 323.92C139.388 323.779 143.481 321.933 146.449 318.785C149.417 315.637 151.02 311.443 150.907 307.118C150.794 302.793 148.975 298.688 145.846 295.699Z" fill="black"/>
</g>
<g opacity="0.2">
<path d="M135.054 296.754L136.654 298.25C135.064 296.875 133.006 296.168 130.907 296.273C128.809 296.379 126.832 297.29 125.388 298.817C123.945 300.344 123.146 302.369 123.159 304.47C123.171 306.572 123.993 308.587 125.454 310.097L123.855 308.593C122.281 307.108 121.363 305.059 121.3 302.896C121.238 300.734 122.037 298.635 123.523 297.062C125.008 295.488 127.057 294.57 129.22 294.507C131.382 294.445 133.481 295.244 135.054 296.73V296.754Z" fill="black"/>
<path d="M135.054 296.754L136.654 298.25C135.064 296.875 133.006 296.168 130.907 296.273C128.809 296.379 126.832 297.29 125.388 298.817C123.945 300.344 123.146 302.369 123.159 304.47C123.171 306.572 123.993 308.587 125.454 310.097L123.855 308.593C122.281 307.108 121.363 305.059 121.3 302.896C121.238 300.734 122.037 298.635 123.523 297.062C125.008 295.488 127.057 294.57 129.22 294.507C131.382 294.445 133.481 295.244 135.054 296.73V296.754Z" fill="black"/>
</g>
<path d="M122.879 297.465L128.758 295.993L128.102 291.697L120.935 293.145L122.879 297.465Z" fill="#B55B52"/>
<path d="M122.303 287.52L120.935 293.12L128.134 291.672C128.134 291.672 128.23 286.64 125.558 286.312L122.303 287.52Z" fill="#B55B52"/>
<path d="M326.669 266H226C224.895 266 224 266.895 224 268V281.919C224 283.024 224.895 283.919 226 283.919H326.669C327.773 283.919 328.669 283.024 328.669 281.919V268C328.669 266.895 327.773 266 326.669 266Z" fill="white"/>
<path d="M234.844 272.535V273.831H236.256V274.248H234.844V275.583H236.423V276H234.337V272.118H236.423V272.535H234.844ZM240.854 272.896C241.092 272.896 241.303 272.947 241.488 273.047C241.674 273.143 241.82 273.289 241.928 273.486C242.035 273.683 242.089 273.922 242.089 274.204V276H241.588V274.276C241.588 273.972 241.512 273.74 241.36 273.581C241.212 273.417 241.01 273.336 240.754 273.336C240.491 273.336 240.281 273.421 240.126 273.592C239.97 273.759 239.892 274.001 239.892 274.32V276H239.392V274.276C239.392 273.972 239.316 273.74 239.163 273.581C239.015 273.417 238.813 273.336 238.557 273.336C238.294 273.336 238.084 273.421 237.929 273.592C237.773 273.759 237.695 274.001 237.695 274.32V276H237.189V272.952H237.695V273.391C237.795 273.232 237.929 273.11 238.096 273.024C238.266 272.939 238.453 272.896 238.657 272.896C238.913 272.896 239.139 272.954 239.336 273.069C239.532 273.184 239.679 273.353 239.775 273.575C239.861 273.36 240.001 273.193 240.198 273.074C240.395 272.956 240.613 272.896 240.854 272.896ZM242.73 274.465C242.73 274.153 242.793 273.881 242.919 273.647C243.045 273.41 243.218 273.226 243.437 273.097C243.659 272.967 243.906 272.902 244.176 272.902C244.443 272.902 244.675 272.959 244.872 273.074C245.068 273.189 245.215 273.334 245.311 273.508V272.952H245.823V276H245.311V275.433C245.211 275.611 245.061 275.759 244.86 275.878C244.664 275.993 244.434 276.05 244.171 276.05C243.9 276.05 243.655 275.983 243.437 275.85C243.218 275.716 243.045 275.529 242.919 275.288C242.793 275.047 242.73 274.773 242.73 274.465ZM245.311 274.47C245.311 274.241 245.265 274.04 245.172 273.87C245.079 273.699 244.953 273.569 244.794 273.48C244.638 273.388 244.466 273.341 244.276 273.341C244.087 273.341 243.915 273.386 243.759 273.475C243.603 273.564 243.479 273.694 243.386 273.864C243.294 274.035 243.247 274.235 243.247 274.465C243.247 274.699 243.294 274.902 243.386 275.077C243.479 275.247 243.603 275.379 243.759 275.472C243.915 275.561 244.087 275.605 244.276 275.605C244.466 275.605 244.638 275.561 244.794 275.472C244.953 275.379 245.079 275.247 245.172 275.077C245.265 274.902 245.311 274.7 245.311 274.47ZM246.939 272.457C246.843 272.457 246.761 272.424 246.695 272.357C246.628 272.29 246.594 272.209 246.594 272.112C246.594 272.016 246.628 271.934 246.695 271.868C246.761 271.801 246.843 271.767 246.939 271.767C247.032 271.767 247.11 271.801 247.173 271.868C247.24 271.934 247.273 272.016 247.273 272.112C247.273 272.209 247.24 272.29 247.173 272.357C247.11 272.424 247.032 272.457 246.939 272.457ZM247.184 272.952V276H246.678V272.952H247.184ZM248.553 271.884V276H248.047V271.884H248.553Z" fill="#AAAAAA"/>
<path d="M326.669 292.92H226C224.895 292.92 224 293.815 224 294.92V308.839C224 309.944 224.895 310.839 226 310.839H326.669C327.773 310.839 328.669 309.944 328.669 308.839V294.92C328.669 293.815 327.773 292.92 326.669 292.92Z" fill="white"/>
<path d="M235.929 301.154C235.929 301.477 235.818 301.746 235.596 301.961C235.377 302.172 235.041 302.278 234.589 302.278H233.844V303.896H233.337V300.02H234.589C235.026 300.02 235.358 300.126 235.584 300.337C235.814 300.548 235.929 300.821 235.929 301.154ZM234.589 301.861C234.871 301.861 235.078 301.8 235.212 301.677C235.345 301.555 235.412 301.381 235.412 301.154C235.412 300.676 235.138 300.437 234.589 300.437H233.844V301.861H234.589ZM236.369 302.361C236.369 302.05 236.432 301.777 236.558 301.544C236.684 301.306 236.857 301.123 237.076 300.993C237.298 300.863 237.545 300.799 237.815 300.799C238.082 300.799 238.314 300.856 238.511 300.971C238.707 301.086 238.854 301.23 238.95 301.405V300.849H239.462V303.896H238.95V303.329C238.85 303.507 238.7 303.655 238.499 303.774C238.303 303.889 238.073 303.947 237.81 303.947C237.539 303.947 237.294 303.88 237.076 303.746C236.857 303.613 236.684 303.426 236.558 303.185C236.432 302.944 236.369 302.669 236.369 302.361ZM238.95 302.367C238.95 302.137 238.904 301.937 238.811 301.766C238.718 301.596 238.592 301.466 238.433 301.377C238.277 301.284 238.105 301.238 237.915 301.238C237.726 301.238 237.554 301.282 237.398 301.371C237.242 301.46 237.118 301.59 237.026 301.761C236.933 301.931 236.887 302.132 236.887 302.361C236.887 302.595 236.933 302.799 237.026 302.973C237.118 303.144 237.242 303.275 237.398 303.368C237.554 303.457 237.726 303.502 237.915 303.502C238.105 303.502 238.277 303.457 238.433 303.368C238.592 303.275 238.718 303.144 238.811 302.973C238.904 302.799 238.95 302.597 238.95 302.367ZM241.396 303.947C241.162 303.947 240.953 303.908 240.767 303.83C240.582 303.748 240.436 303.637 240.328 303.496C240.221 303.351 240.161 303.186 240.15 303.001H240.673C240.688 303.153 240.758 303.277 240.884 303.374C241.014 303.47 241.183 303.518 241.39 303.518C241.583 303.518 241.735 303.476 241.847 303.39C241.958 303.305 242.013 303.198 242.013 303.068C242.013 302.934 241.954 302.836 241.835 302.773C241.717 302.706 241.533 302.641 241.285 302.578C241.059 302.519 240.873 302.46 240.729 302.4C240.588 302.337 240.465 302.246 240.361 302.128C240.261 302.005 240.211 301.846 240.211 301.649C240.211 301.494 240.258 301.351 240.35 301.221C240.443 301.091 240.575 300.989 240.745 300.915C240.916 300.837 241.11 300.799 241.329 300.799C241.667 300.799 241.939 300.884 242.147 301.054C242.354 301.225 242.466 301.459 242.481 301.755H241.974C241.963 301.596 241.898 301.468 241.78 301.371C241.665 301.275 241.509 301.227 241.313 301.227C241.131 301.227 240.986 301.266 240.879 301.344C240.771 301.421 240.717 301.523 240.717 301.649C240.717 301.75 240.749 301.833 240.812 301.9C240.879 301.963 240.96 302.015 241.057 302.055C241.157 302.093 241.294 302.135 241.468 302.183C241.687 302.243 241.865 302.302 242.002 302.361C242.139 302.417 242.256 302.502 242.353 302.617C242.453 302.732 242.505 302.882 242.508 303.068C242.508 303.235 242.462 303.385 242.369 303.518C242.277 303.652 242.145 303.757 241.974 303.835C241.808 303.909 241.615 303.947 241.396 303.947ZM244.302 303.947C244.068 303.947 243.859 303.908 243.673 303.83C243.488 303.748 243.342 303.637 243.234 303.496C243.126 303.351 243.067 303.186 243.056 303.001H243.579C243.594 303.153 243.664 303.277 243.79 303.374C243.92 303.47 244.089 303.518 244.296 303.518C244.489 303.518 244.641 303.476 244.752 303.39C244.864 303.305 244.919 303.198 244.919 303.068C244.919 302.934 244.86 302.836 244.741 302.773C244.623 302.706 244.439 302.641 244.191 302.578C243.964 302.519 243.779 302.46 243.634 302.4C243.494 302.337 243.371 302.246 243.267 302.128C243.167 302.005 243.117 301.846 243.117 301.649C243.117 301.494 243.164 301.351 243.256 301.221C243.349 301.091 243.481 300.989 243.651 300.915C243.822 300.837 244.016 300.799 244.235 300.799C244.573 300.799 244.845 300.884 245.053 301.054C245.26 301.225 245.372 301.459 245.386 301.755H244.88C244.869 301.596 244.804 301.468 244.686 301.371C244.571 301.275 244.415 301.227 244.218 301.227C244.037 301.227 243.892 301.266 243.785 301.344C243.677 301.421 243.623 301.523 243.623 301.649C243.623 301.75 243.655 301.833 243.718 301.9C243.785 301.963 243.866 302.015 243.963 302.055C244.063 302.093 244.2 302.135 244.374 302.183C244.593 302.243 244.771 302.302 244.908 302.361C245.045 302.417 245.162 302.502 245.259 302.617C245.359 302.732 245.411 302.882 245.414 303.068C245.414 303.235 245.368 303.385 245.275 303.518C245.183 303.652 245.051 303.757 244.88 303.835C244.713 303.909 244.521 303.947 244.302 303.947ZM250.189 300.849L249.238 303.896H248.715L247.981 301.477L247.247 303.896H246.724L245.767 300.849H246.284L246.985 303.407L247.742 300.849H248.259L248.999 303.413L249.688 300.849H250.189ZM252.021 303.947C251.735 303.947 251.475 303.882 251.242 303.752C251.012 303.622 250.83 303.439 250.697 303.201C250.567 302.96 250.502 302.682 250.502 302.367C250.502 302.055 250.569 301.781 250.702 301.544C250.84 301.303 251.025 301.119 251.259 300.993C251.492 300.863 251.754 300.799 252.043 300.799C252.332 300.799 252.593 300.863 252.827 300.993C253.061 301.119 253.244 301.301 253.378 301.538C253.515 301.776 253.583 302.052 253.583 302.367C253.583 302.682 253.513 302.96 253.372 303.201C253.235 303.439 253.048 303.622 252.81 303.752C252.573 303.882 252.31 303.947 252.021 303.947ZM252.021 303.502C252.202 303.502 252.373 303.459 252.532 303.374C252.692 303.288 252.82 303.16 252.916 302.99C253.016 302.819 253.066 302.612 253.066 302.367C253.066 302.122 253.018 301.915 252.922 301.744C252.825 301.573 252.699 301.447 252.543 301.366C252.388 301.281 252.219 301.238 252.037 301.238C251.852 301.238 251.681 301.281 251.526 301.366C251.374 301.447 251.251 301.573 251.158 301.744C251.066 301.915 251.019 302.122 251.019 302.367C251.019 302.615 251.064 302.825 251.153 302.995C251.246 303.166 251.368 303.294 251.52 303.379C251.672 303.461 251.839 303.502 252.021 303.502ZM254.755 301.344C254.844 301.169 254.97 301.034 255.133 300.938C255.3 300.841 255.502 300.793 255.739 300.793V301.316H255.606C255.039 301.316 254.755 301.624 254.755 302.239V303.896H254.249V300.849H254.755V301.344ZM256.135 302.361C256.135 302.05 256.198 301.777 256.324 301.544C256.45 301.306 256.622 301.123 256.841 300.993C257.063 300.863 257.312 300.799 257.586 300.799C257.824 300.799 258.044 300.854 258.248 300.965C258.452 301.073 258.608 301.216 258.715 301.394V299.781H259.227V303.896H258.715V303.324C258.615 303.505 258.467 303.655 258.27 303.774C258.074 303.889 257.844 303.947 257.581 303.947C257.31 303.947 257.063 303.88 256.841 303.746C256.622 303.613 256.45 303.426 256.324 303.185C256.198 302.944 256.135 302.669 256.135 302.361ZM258.715 302.367C258.715 302.137 258.669 301.937 258.576 301.766C258.484 301.596 258.358 301.466 258.198 301.377C258.042 301.284 257.87 301.238 257.681 301.238C257.492 301.238 257.319 301.282 257.164 301.371C257.008 301.46 256.884 301.59 256.791 301.761C256.698 301.931 256.652 302.132 256.652 302.361C256.652 302.595 256.698 302.799 256.791 302.973C256.884 303.144 257.008 303.275 257.164 303.368C257.319 303.457 257.492 303.502 257.681 303.502C257.87 303.502 258.042 303.457 258.198 303.368C258.358 303.275 258.484 303.144 258.576 302.973C258.669 302.799 258.715 302.597 258.715 302.367Z" fill="#AAAAAA"/>
<path d="M267.061 341.039C266.802 341.039 266.568 340.994 266.36 340.905C266.153 340.813 265.99 340.683 265.871 340.516C265.752 340.349 265.693 340.155 265.693 339.932H266.372C266.386 340.099 266.451 340.236 266.566 340.344C266.685 340.451 266.85 340.505 267.061 340.505C267.28 340.505 267.451 340.453 267.573 340.349C267.695 340.242 267.757 340.105 267.757 339.938C267.757 339.808 267.718 339.702 267.64 339.621C267.566 339.539 267.471 339.476 267.356 339.432C267.245 339.387 267.089 339.339 266.889 339.287C266.637 339.22 266.431 339.153 266.271 339.087C266.116 339.016 265.982 338.909 265.871 338.764C265.76 338.62 265.704 338.427 265.704 338.186C265.704 337.963 265.76 337.769 265.871 337.602C265.982 337.435 266.138 337.307 266.338 337.218C266.538 337.129 266.77 337.084 267.033 337.084C267.408 337.084 267.714 337.179 267.951 337.368C268.192 337.553 268.326 337.809 268.352 338.136H267.651C267.64 337.995 267.573 337.874 267.451 337.774C267.328 337.674 267.167 337.624 266.967 337.624C266.785 337.624 266.637 337.67 266.522 337.763C266.407 337.856 266.349 337.989 266.349 338.163C266.349 338.282 266.385 338.38 266.455 338.458C266.529 338.532 266.622 338.592 266.733 338.636C266.844 338.681 266.996 338.729 267.189 338.781C267.445 338.851 267.653 338.922 267.812 338.992C267.975 339.063 268.112 339.172 268.224 339.32C268.339 339.465 268.396 339.66 268.396 339.904C268.396 340.101 268.342 340.286 268.235 340.46C268.131 340.635 267.977 340.776 267.773 340.883C267.573 340.987 267.336 341.039 267.061 341.039ZM269.467 337.529C269.352 337.529 269.256 337.49 269.178 337.413C269.1 337.335 269.061 337.238 269.061 337.123C269.061 337.008 269.1 336.912 269.178 336.834C269.256 336.756 269.352 336.717 269.467 336.717C269.578 336.717 269.673 336.756 269.751 336.834C269.828 336.912 269.867 337.008 269.867 337.123C269.867 337.238 269.828 337.335 269.751 337.413C269.673 337.49 269.578 337.529 269.467 337.529ZM269.778 337.935V341H269.144V337.935H269.778ZM271.846 337.885C272.083 337.885 272.292 337.934 272.474 338.03C272.659 338.123 272.804 338.239 272.908 338.38V337.935H273.548V341.05C273.548 341.332 273.488 341.582 273.37 341.801C273.251 342.023 273.078 342.198 272.852 342.324C272.63 342.45 272.363 342.513 272.051 342.513C271.636 342.513 271.291 342.415 271.017 342.218C270.742 342.025 270.587 341.762 270.55 341.428H271.178C271.226 341.588 271.328 341.716 271.484 341.812C271.643 341.912 271.833 341.962 272.051 341.962C272.307 341.962 272.513 341.884 272.669 341.729C272.828 341.573 272.908 341.347 272.908 341.05V340.538C272.8 340.683 272.654 340.805 272.468 340.905C272.287 341.002 272.079 341.05 271.846 341.05C271.579 341.05 271.334 340.983 271.111 340.85C270.893 340.713 270.718 340.524 270.589 340.283C270.463 340.038 270.399 339.762 270.399 339.454C270.399 339.146 270.463 338.873 270.589 338.636C270.718 338.399 270.893 338.215 271.111 338.086C271.334 337.952 271.579 337.885 271.846 337.885ZM272.908 339.465C272.908 339.254 272.863 339.07 272.774 338.914C272.689 338.759 272.576 338.64 272.435 338.558C272.294 338.477 272.142 338.436 271.979 338.436C271.816 338.436 271.664 338.477 271.523 338.558C271.382 338.636 271.267 338.753 271.178 338.909C271.093 339.061 271.05 339.242 271.05 339.454C271.05 339.665 271.093 339.851 271.178 340.01C271.267 340.169 271.382 340.292 271.523 340.377C271.668 340.459 271.82 340.499 271.979 340.499C272.142 340.499 272.294 340.459 272.435 340.377C272.576 340.295 272.689 340.177 272.774 340.021C272.863 339.862 272.908 339.676 272.908 339.465ZM275.927 337.885C276.168 337.885 276.383 337.935 276.572 338.036C276.765 338.136 276.915 338.284 277.022 338.48C277.13 338.677 277.184 338.914 277.184 339.192V341H276.555V339.287C276.555 339.013 276.486 338.803 276.349 338.658C276.212 338.51 276.025 338.436 275.787 338.436C275.55 338.436 275.361 338.51 275.22 338.658C275.083 338.803 275.014 339.013 275.014 339.287V341H274.38V337.935H275.014V338.286C275.118 338.16 275.25 338.061 275.409 337.991C275.572 337.921 275.745 337.885 275.927 337.885ZM280.066 337.134V339.598C280.066 339.891 280.142 340.112 280.294 340.26C280.449 340.409 280.664 340.483 280.939 340.483C281.217 340.483 281.432 340.409 281.584 340.26C281.74 340.112 281.818 339.891 281.818 339.598V337.134H282.452V339.587C282.452 339.902 282.383 340.169 282.246 340.388C282.109 340.607 281.925 340.77 281.695 340.878C281.465 340.985 281.211 341.039 280.933 341.039C280.655 341.039 280.401 340.985 280.171 340.878C279.945 340.77 279.765 340.607 279.632 340.388C279.498 340.169 279.432 339.902 279.432 339.587V337.134H280.066ZM283.911 338.386C284.019 338.245 284.165 338.126 284.351 338.03C284.536 337.934 284.746 337.885 284.979 337.885C285.246 337.885 285.489 337.952 285.708 338.086C285.93 338.215 286.104 338.399 286.231 338.636C286.357 338.873 286.42 339.146 286.42 339.454C286.42 339.762 286.357 340.038 286.231 340.283C286.104 340.524 285.93 340.713 285.708 340.85C285.489 340.983 285.246 341.05 284.979 341.05C284.746 341.05 284.538 341.004 284.356 340.911C284.175 340.815 284.026 340.696 283.911 340.555V342.457H283.277V337.935H283.911V338.386ZM285.774 339.454C285.774 339.242 285.73 339.061 285.641 338.909C285.556 338.753 285.441 338.636 285.296 338.558C285.155 338.477 285.003 338.436 284.84 338.436C284.681 338.436 284.529 338.477 284.384 338.558C284.243 338.64 284.128 338.759 284.039 338.914C283.954 339.07 283.911 339.254 283.911 339.465C283.911 339.676 283.954 339.862 284.039 340.021C284.128 340.177 284.243 340.295 284.384 340.377C284.529 340.459 284.681 340.499 284.84 340.499C285.003 340.499 285.155 340.459 285.296 340.377C285.441 340.292 285.556 340.169 285.641 340.01C285.73 339.851 285.774 339.665 285.774 339.454Z" fill="white"/>
<g clip-path="url(#clip0_273_6777)">
<rect x="259" y="208" width="34" height="34" rx="17" fill="#3EBA59"/>
<mask id="mask1_273_6777" style="mask-type:luminance" maskUnits="userSpaceOnUse" x="259" y="208" width="34" height="34">
<path d="M293 208H259V242H293V208Z" fill="white"/>
</mask>
<g mask="url(#mask1_273_6777)">
<path d="M276.001 213.072C269.416 213.072 264.074 218.414 264.074 224.999C264.074 231.584 269.416 236.925 276.001 236.925C282.586 236.925 287.927 231.584 287.927 224.999C287.927 218.414 282.586 213.072 276.001 213.072Z" fill="black"/>
<mask id="mask2_273_6777" style="mask-type:alpha" maskUnits="userSpaceOnUse" x="267" y="216" width="18" height="18">
<path d="M275.958 216.375C280.694 216.375 284.54 220.221 284.54 224.957C284.54 229.693 280.694 233.539 275.958 233.539C271.222 233.539 267.376 229.693 267.376 224.957C267.376 220.221 271.222 216.375 275.958 216.375Z" fill="#D9DFE6"/>
</mask>
<g mask="url(#mask2_273_6777)">
<path d="M276.043 216.67C278.013 216.67 279.613 218.27 279.613 220.24C279.613 222.21 278.013 223.81 276.043 223.81C274.072 223.81 272.473 222.21 272.473 220.24C272.473 218.27 274.072 216.67 276.043 216.67Z" fill="white"/>
<path d="M275.542 226.063C271.972 226.095 268.849 228.05 268.838 229.495C268.835 229.941 271.133 233.628 275.967 233.628C280.802 233.628 283.256 230.228 283.192 229.484C283.019 227.468 278.783 226.034 275.542 226.063Z" fill="white"/>
</g>
</g>
</g>
<defs>
<filter id="filter0_d_273_6777" x="49.0403" y="62.793" width="410.617" height="465.766" filterUnits="userSpaceOnUse" color-interpolation-filters="sRGB">
<feFlood flood-opacity="0" result="BackgroundImageFix"/>
<feColorMatrix in="SourceAlpha" type="matrix" values="0 0 0 0 0 0 0 0 0 0 0 0 0 0 0 0 0 0 127 0" result="hardAlpha"/>
<feOffset dx="1.32886" dy="22.5906"/>
<feGaussianBlur stdDeviation="6.6443"/>
<feComposite in2="hardAlpha" operator="out"/>
<feColorMatrix type="matrix" values="0 0 0 0 0.458333 0 0 0 0 0.458333 0 0 0 0 0.458333 0 0 0 0.25 0"/>
<feBlend mode="multiply" in2="BackgroundImageFix" result="effect1_dropShadow_273_6777"/>
<feBlend mode="normal" in="SourceGraphic" in2="effect1_dropShadow_273_6777" result="shape"/>
</filter>
<linearGradient id="paint0_linear_273_6777" x1="-167.681" y1="4.6412e-05" x2="610.158" y2="152.981" gradientUnits="userSpaceOnUse">
<stop offset="0.0963806" stop-color="#A2FBFF"/>
<stop offset="0.550589" stop-color="#CCD0FF"/>
<stop offset="1" stop-color="#FFCCE0"/>
</linearGradient>
<clipPath id="clip0_273_6777">
<rect x="259" y="208" width="34" height="34" rx="17" fill="white"/>
</clipPath>
</defs>
</svg>
