<svg width="60" height="60" viewBox="0 0 60 60" fill="none" xmlns="http://www.w3.org/2000/svg">
<rect x="1.01365" y="0.916968" width="57.5152" height="57.5152" rx="28.7576" stroke="white" stroke-opacity="0.25" stroke-width="1.17378"/>
<path d="M24.6547 28.1684V31.4864H29.7375C29.5963 32.8277 28.255 35.3691 24.6547 35.3691C21.6191 35.3691 19.1482 32.8277 19.1482 29.7215C19.1482 26.6153 21.4779 24.0739 24.5135 24.0739C26.2784 24.0739 27.4785 24.7798 28.1138 25.4152L30.5847 23.0855C29.3184 21.8839 27.7242 21.0848 26.0038 20.7894C24.2833 20.494 22.5139 20.7155 20.9193 21.4258C19.3247 22.1362 17.9767 23.3036 17.0457 24.7802C16.1147 26.2569 15.6426 27.9765 15.689 29.7215C15.689 34.6632 19.713 38.6871 24.6547 38.6871C29.8787 38.6871 33.2673 34.9456 33.2673 29.8627L33.1261 28.1684" fill="white"/>
<path fill-rule="evenodd" clip-rule="evenodd" d="M40.7151 30.3922V33.5337H38.6679V30.3922H35.5264V28.3449H38.6679V25.2034H40.7151V28.3449H43.8566V30.3922H40.7151Z" fill="white"/>
</svg>
