<svg width="160" height="36" viewBox="0 0 160 36" fill="none" xmlns="http://www.w3.org/2000/svg">
<path d="M49.8933 17.5118C51.0453 17.7818 51.9543 18.3398 52.6203 19.1858C53.3043 20.0318 53.6463 21.0128 53.6463 22.1288C53.6463 23.7668 53.0973 25.0448 51.9993 25.9628C50.9193 26.8808 49.3623 27.3398 47.3283 27.3398H38.4453V8.25084H47.1123C49.0563 8.25084 50.5593 8.67384 51.6213 9.51984C52.6833 10.3658 53.2143 11.5718 53.2143 13.1378C53.2143 14.2898 52.9083 15.2528 52.2963 16.0268C51.6843 16.7828 50.8833 17.2778 49.8933 17.5118ZM43.0623 16.0538H46.0863C47.6883 16.0538 48.4893 15.3698 48.4893 14.0018C48.4893 12.6338 47.6703 11.9498 46.0323 11.9498H43.0623V16.0538ZM46.3563 23.5868C48.0663 23.5868 48.9213 22.8848 48.9213 21.4808C48.9213 20.7968 48.6963 20.2658 48.2463 19.8878C47.7963 19.4918 47.1573 19.2938 46.3293 19.2938H43.0623V23.5868H46.3563ZM55.6529 8.03484C55.6529 7.33284 55.9049 6.75684 56.4089 6.30684C56.9129 5.83884 57.5789 5.60484 58.4069 5.60484C59.2349 5.60484 59.9009 5.83884 60.4049 6.30684C60.9089 6.75684 61.1609 7.33284 61.1609 8.03484C61.1609 8.71884 60.9089 9.29484 60.4049 9.76284C59.9009 10.2128 59.2349 10.4378 58.4069 10.4378C57.5789 10.4378 56.9129 10.2128 56.4089 9.76284C55.9049 9.29484 55.6529 8.71884 55.6529 8.03484ZM60.7019 12.2738V27.3398H56.0849V12.2738H60.7019ZM72.4216 23.3708V27.3398H70.3426C68.5786 27.3398 67.2016 26.9078 66.2116 26.0438C65.2396 25.1618 64.7536 23.7128 64.7536 21.6968V16.1618H62.7286V12.2738H64.7536V8.57484H69.3706V12.2738H72.3946V16.1618H69.3706V21.7778C69.3706 22.3718 69.4876 22.7858 69.7216 23.0198C69.9736 23.2538 70.3876 23.3708 70.9636 23.3708H72.4216ZM83.5486 23.3708V27.3398H81.4696C79.7056 27.3398 78.3286 26.9078 77.3386 26.0438C76.3666 25.1618 75.8806 23.7128 75.8806 21.6968V16.1618H73.8556V12.2738H75.8806V8.57484H80.4976V12.2738H83.5216V16.1618H80.4976V21.7778C80.4976 22.3718 80.6146 22.7858 80.8486 23.0198C81.1006 23.2538 81.5146 23.3708 82.0906 23.3708H83.5486ZM93.1905 12.0848C94.6845 12.0848 96.0165 12.3998 97.1865 13.0298C98.3745 13.6418 99.3015 14.5328 99.9675 15.7028C100.652 16.8728 100.994 18.2408 100.994 19.8068C100.994 21.3728 100.652 22.7408 99.9675 23.9108C99.3015 25.0808 98.3745 25.9808 97.1865 26.6108C96.0165 27.2228 94.6845 27.5288 93.1905 27.5288C91.6965 27.5288 90.3555 27.2228 89.1675 26.6108C87.9795 25.9808 87.0435 25.0808 86.3595 23.9108C85.6935 22.7408 85.3605 21.3728 85.3605 19.8068C85.3605 18.2408 85.6935 16.8728 86.3595 15.7028C87.0435 14.5328 87.9795 13.6418 89.1675 13.0298C90.3555 12.3998 91.6965 12.0848 93.1905 12.0848ZM93.1905 16.0808C92.3085 16.0808 91.5615 16.4048 90.9495 17.0528C90.3555 17.6828 90.0585 18.6008 90.0585 19.8068C90.0585 21.0128 90.3555 21.9308 90.9495 22.5608C91.5615 23.1908 92.3085 23.5058 93.1905 23.5058C94.0725 23.5058 94.8105 23.1908 95.4045 22.5608C95.9985 21.9308 96.2955 21.0128 96.2955 19.8068C96.2955 18.6008 95.9985 17.6828 95.4045 17.0528C94.8105 16.4048 94.0725 16.0808 93.1905 16.0808ZM108.005 15.1088C108.581 14.1908 109.319 13.4618 110.219 12.9218C111.137 12.3818 112.127 12.1118 113.189 12.1118V17.0528H111.866C110.642 17.0528 109.688 17.3138 109.004 17.8358C108.338 18.3578 108.005 19.2398 108.005 20.4818V27.3398H103.388V12.2738H108.005V15.1088ZM129.431 19.4018C129.431 19.7798 129.386 20.1938 129.296 20.6438H118.847C118.901 21.7778 119.189 22.5968 119.711 23.1008C120.233 23.5868 120.899 23.8298 121.709 23.8298C122.393 23.8298 122.96 23.6588 123.41 23.3168C123.86 22.9748 124.157 22.5338 124.301 21.9938H129.188C128.99 23.0558 128.558 24.0098 127.892 24.8558C127.226 25.6838 126.38 26.3408 125.354 26.8268C124.328 27.2948 123.185 27.5288 121.925 27.5288C120.449 27.5288 119.135 27.2228 117.983 26.6108C116.849 25.9808 115.958 25.0808 115.31 23.9108C114.662 22.7408 114.338 21.3728 114.338 19.8068C114.338 18.2228 114.653 16.8548 115.283 15.7028C115.931 14.5328 116.831 13.6418 117.983 13.0298C119.135 12.3998 120.449 12.0848 121.925 12.0848C123.419 12.0848 124.733 12.3908 125.867 13.0028C127.001 13.6148 127.874 14.4788 128.486 15.5948C129.116 16.6928 129.431 17.9618 129.431 19.4018ZM124.76 18.6998C124.778 17.7098 124.508 16.9718 123.95 16.4858C123.41 15.9818 122.735 15.7298 121.925 15.7298C121.079 15.7298 120.377 15.9818 119.819 16.4858C119.261 16.9898 118.946 17.7278 118.874 18.6998H124.76ZM141.396 12.1118C143.124 12.1118 144.492 12.6878 145.5 13.8398C146.526 14.9918 147.039 16.5758 147.039 18.5918V27.3398H142.422V19.1318C142.422 18.1238 142.152 17.3408 141.612 16.7828C141.09 16.2068 140.388 15.9188 139.506 15.9188C138.57 15.9188 137.823 16.2158 137.265 16.8098C136.725 17.4038 136.455 18.2498 136.455 19.3478V27.3398H131.838V12.2738H136.455V15.0278C136.887 14.1278 137.526 13.4168 138.372 12.8948C139.236 12.3728 140.244 12.1118 141.396 12.1118ZM158.616 23.3708V27.3398H156.537C154.773 27.3398 153.396 26.9078 152.406 26.0438C151.434 25.1618 150.948 23.7128 150.948 21.6968V16.1618H148.923V12.2738H150.948V8.57484H155.565V12.2738H158.589V16.1618H155.565V21.7778C155.565 22.3718 155.682 22.7858 155.916 23.0198C156.168 23.2538 156.582 23.3708 157.158 23.3708H158.616Z" fill="#263238"/>
<rect x="0.852295" y="3.33984" width="9" height="9" fill="#3EBA59"/>
<rect x="0.852295" y="12.3398" width="9" height="10" fill="#83EBFF"/>
<rect x="0.852295" y="22.3398" width="9" height="9" fill="#20C1E1"/>
<rect x="9.85229" y="3.33984" width="10" height="9" fill="#83EBFF"/>
<rect x="9.85229" y="22.3398" width="10" height="9" fill="#83EBFF"/>
<rect x="19.8523" y="3.33984" width="9" height="9" fill="#20C1E1"/>
<rect x="19.8523" y="12.3398" width="9" height="10" fill="#83EBFF"/>
<rect x="19.8523" y="22.3398" width="9" height="9" fill="#3EBA59"/>
<rect x="5.85229" y="8.33984" width="18" height="18" fill="white"/>
</svg>
