<svg width="625" height="523" viewBox="0 0 625 523" fill="none" xmlns="http://www.w3.org/2000/svg">
<rect x="109.417" y="171.414" width="37.3958" height="37.3958" rx="9.34895" transform="rotate(-15 109.417 171.414)" fill="#4535AF"/>
<g clip-path="url(#clip0_125_7387)">
<rect x="168.316" width="383.307" height="491.755" rx="9.34895" fill="#0FAF59"/>
<path d="M215.06 1.40234L193.558 114.525L265.077 52.3541L287.982 139.299L363.708 52.3541L381.471 139.299L426.814 91.1522L440.837 208.482L516.096 91.1522L521.238 214.558L551.155 246.345" stroke="#FF3444" stroke-width="4.67447"/>
<path d="M215.06 227.805L193.557 340.927L265.077 278.756L287.982 365.702L363.708 278.756L381.471 365.702L426.814 317.555L440.837 434.884L516.096 317.555L521.238 440.961L551.155 472.747" stroke="#FF3444" stroke-width="4.67447"/>
</g>
<rect x="471.551" y="476.797" width="37.3958" height="37.3958" rx="9.34895" transform="rotate(15 471.551 476.797)" fill="#FFAA94"/>
<g clip-path="url(#clip1_125_7387)">
<path d="M490.94 503.771C490.833 504.17 490.572 504.511 490.214 504.717C489.856 504.924 489.431 504.98 489.032 504.873L480.001 502.453L476.184 504.657L479.411 492.616C479.518 492.217 479.779 491.877 480.137 491.67C480.495 491.464 480.92 491.408 481.319 491.515L491.854 494.338C492.254 494.445 492.594 494.706 492.801 495.064C493.007 495.421 493.063 495.847 492.956 496.246L490.94 503.771Z" stroke="white" stroke-width="1.55816" stroke-linecap="round" stroke-linejoin="round"/>
</g>
<rect x="540.003" y="24.3066" width="45.4102" height="45.4102" rx="9.34895" transform="rotate(15 540.003 24.3066)" fill="#FBC75E"/>
<g clip-path="url(#clip2_125_7387)">
<path d="M557.103 49.3436C560.844 50.3459 564.147 50.1476 564.481 48.9008C564.815 47.654 562.054 45.8307 558.313 44.8284C554.573 43.8262 551.269 44.0244 550.935 45.2713C550.601 46.5181 553.363 48.3414 557.103 49.3436Z" stroke="#F8F8FA" stroke-width="1.55816" stroke-linecap="round" stroke-linejoin="round"/>
<path d="M563.069 54.1686C562.734 55.4178 559.454 55.6196 555.691 54.6114C551.929 53.6032 549.189 51.7883 549.523 50.5391" stroke="#F8F8FA" stroke-width="1.55816" stroke-linecap="round" stroke-linejoin="round"/>
<path d="M550.935 45.2715L548.112 55.8069C547.777 57.0561 550.517 58.8711 554.28 59.8793C558.043 60.8875 561.323 60.6857 561.658 59.4365L564.481 48.901" stroke="#F8F8FA" stroke-width="1.55816" stroke-linecap="round" stroke-linejoin="round"/>
</g>
<rect x="0.034668" y="28.0469" width="244.942" height="72.9218" rx="9.34895" fill="white"/>
<path d="M17.8508 52.1348V43.9757H22.7749V44.8521H18.8388V47.609H22.52V48.4855H18.8388V51.2583H22.8387V52.1348H17.8508ZM25.3685 48.4536V52.1348H24.4283V46.0155H25.3366V46.9716H25.4163C25.5597 46.6609 25.7775 46.4112 26.0696 46.2226C26.3618 46.0314 26.7389 45.9358 27.2011 45.9358C27.6154 45.9358 27.9779 46.0208 28.2887 46.1907C28.5994 46.3581 28.8411 46.613 29.0138 46.9557C29.1864 47.2956 29.2727 47.7259 29.2727 48.2465V52.1348H28.3325V48.3102C28.3325 47.8295 28.2077 47.455 27.958 47.1867C27.7084 46.9158 27.3658 46.7804 26.9302 46.7804C26.6301 46.7804 26.3618 46.8454 26.1254 46.9756C25.8917 47.1057 25.7071 47.2956 25.5717 47.5453C25.4362 47.7949 25.3685 48.0977 25.3685 48.4536ZM33.6521 46.0155V46.8122H30.4808V46.0155H33.6521ZM31.4051 44.5494H32.3453V50.3818C32.3453 50.6474 32.3838 50.8466 32.4609 50.9794C32.5405 51.1096 32.6415 51.1972 32.7636 51.2424C32.8885 51.2849 33.0199 51.3061 33.158 51.3061C33.2616 51.3061 33.3466 51.3008 33.413 51.2902C33.4794 51.2769 33.5325 51.2663 33.5724 51.2583L33.7636 52.1029C33.6999 52.1268 33.6109 52.1507 33.4967 52.1746C33.3825 52.2012 33.2377 52.2144 33.0624 52.2144C32.7968 52.2144 32.5366 52.1573 32.2816 52.0431C32.0293 51.9289 31.8194 51.755 31.6521 51.5212C31.4875 51.2875 31.4051 50.9927 31.4051 50.6368V44.5494ZM37.5663 52.2623C36.9766 52.2623 36.468 52.1321 36.0404 51.8718C35.6155 51.6089 35.2875 51.2424 35.0564 50.7723C34.828 50.2995 34.7138 49.7497 34.7138 49.1229C34.7138 48.4961 34.828 47.9437 35.0564 47.4656C35.2875 46.9849 35.6088 46.6104 36.0205 46.3421C36.4348 46.0712 36.9182 45.9358 37.4706 45.9358C37.7894 45.9358 38.1041 45.9889 38.4148 46.0951C38.7256 46.2014 39.0084 46.374 39.2634 46.613C39.5184 46.8494 39.7216 47.1628 39.873 47.5533C40.0243 47.9437 40.1 48.4244 40.1 48.9954V49.3938H35.3831V48.5811H39.1439C39.1439 48.2358 39.0748 47.9277 38.9367 47.6568C38.8013 47.3859 38.6074 47.1721 38.3551 47.0154C38.1054 46.8587 37.8106 46.7804 37.4706 46.7804C37.0962 46.7804 36.7721 46.8733 36.4986 47.0592C36.2277 47.2425 36.0192 47.4815 35.8731 47.7764C35.727 48.0712 35.654 48.3872 35.654 48.7245V49.2663C35.654 49.7285 35.7337 50.1202 35.893 50.4416C36.055 50.7603 36.2795 51.0033 36.5663 51.1707C36.8531 51.3353 37.1865 51.4177 37.5663 51.4177C37.8133 51.4177 38.0364 51.3831 38.2356 51.3141C38.4374 51.2424 38.6114 51.1361 38.7575 50.9954C38.9035 50.8519 39.0164 50.674 39.0961 50.4615L40.0044 50.7165C39.9088 51.0246 39.7481 51.2955 39.5224 51.5292C39.2966 51.7603 39.0177 51.9409 38.6857 52.071C38.3537 52.1985 37.9806 52.2623 37.5663 52.2623ZM41.5303 52.1348V46.0155H42.4386V46.9397H42.5023C42.6139 46.6369 42.8157 46.3913 43.1079 46.2027C43.4001 46.0141 43.7294 45.9198 44.0959 45.9198C44.165 45.9198 44.2513 45.9212 44.3549 45.9238C44.4585 45.9265 44.5368 45.9305 44.5899 45.9358V46.8919C44.5581 46.884 44.485 46.872 44.3708 46.8561C44.2593 46.8375 44.1411 46.8282 44.0162 46.8282C43.7188 46.8282 43.4532 46.8906 43.2195 47.0154C42.9884 47.1376 42.8051 47.3076 42.6697 47.5254C42.5369 47.7405 42.4705 47.9862 42.4705 48.2624V52.1348H41.5303ZM50.6604 52.2782C50.2727 52.2782 49.9207 52.2051 49.6047 52.0591C49.2886 51.9103 49.0376 51.6965 48.8517 51.4177C48.6658 51.1361 48.5729 50.7962 48.5729 50.3978C48.5729 50.0472 48.6419 49.763 48.78 49.5452C48.9181 49.3248 49.1027 49.1521 49.3338 49.0273C49.5648 48.9025 49.8198 48.8095 50.0987 48.7484C50.3802 48.6847 50.6631 48.6342 50.9473 48.597C51.3191 48.5492 51.6206 48.5134 51.8516 48.4895C52.0853 48.4629 52.2553 48.4191 52.3616 48.358C52.4705 48.2969 52.5249 48.1907 52.5249 48.0393V48.0074C52.5249 47.6143 52.4173 47.3089 52.2022 47.0911C51.9897 46.8733 51.667 46.7644 51.2341 46.7644C50.7853 46.7644 50.4333 46.8627 50.1784 47.0592C49.9234 47.2558 49.7441 47.4656 49.6405 47.6887L48.7481 47.37C48.9075 46.9982 49.12 46.7087 49.3856 46.5015C49.6538 46.2917 49.946 46.1456 50.262 46.0633C50.5808 45.9783 50.8942 45.9358 51.2022 45.9358C51.3988 45.9358 51.6245 45.9597 51.8795 46.0075C52.1371 46.0526 52.3855 46.1469 52.6245 46.2903C52.8662 46.4338 53.0667 46.6502 53.2261 46.9397C53.3854 47.2292 53.4651 47.617 53.4651 48.103V52.1348H52.5249V51.3061H52.4771C52.4134 51.4389 52.3071 51.581 52.1584 51.7324C52.0097 51.8838 51.8118 52.0126 51.5648 52.1188C51.3178 52.2251 51.0163 52.2782 50.6604 52.2782ZM50.8039 51.4336C51.1757 51.4336 51.4891 51.3606 51.7441 51.2145C52.0017 51.0684 52.1956 50.8798 52.3257 50.6488C52.4585 50.4177 52.5249 50.1747 52.5249 49.9197V49.0592C52.4851 49.107 52.3974 49.1508 52.262 49.1906C52.1292 49.2278 51.9751 49.261 51.7998 49.2902C51.6272 49.3168 51.4585 49.3407 51.2939 49.362C51.1319 49.3805 51.0004 49.3965 50.8995 49.4098C50.6551 49.4416 50.4267 49.4934 50.2142 49.5651C50.0044 49.6342 49.8344 49.7391 49.7043 49.8799C49.5768 50.018 49.5131 50.2065 49.5131 50.4456C49.5131 50.7723 49.6339 51.0193 49.8756 51.1866C50.1199 51.3513 50.4294 51.4336 50.8039 51.4336ZM55.1812 52.1348V46.0155H56.0895V46.9716H56.1692C56.2967 46.6449 56.5025 46.3913 56.7867 46.2107C57.0709 46.0274 57.4122 45.9358 57.8106 45.9358C58.2143 45.9358 58.5503 46.0274 58.8185 46.2107C59.0894 46.3913 59.3006 46.6449 59.452 46.9716H59.5157C59.6724 46.6555 59.9075 46.4046 60.2209 46.2186C60.5343 46.0301 60.9101 45.9358 61.3483 45.9358C61.8954 45.9358 62.343 46.1071 62.6909 46.4497C63.0388 46.7897 63.2128 47.3195 63.2128 48.0393V52.1348H62.2726V48.0393C62.2726 47.5878 62.1491 47.2651 61.9021 47.0712C61.6551 46.8773 61.3642 46.7804 61.0296 46.7804C60.5993 46.7804 60.266 46.9105 60.0296 47.1708C59.7932 47.4284 59.6751 47.7551 59.6751 48.1508V52.1348H58.7189V47.9437C58.7189 47.5957 58.606 47.3155 58.3803 47.1031C58.1545 46.8879 57.8637 46.7804 57.5078 46.7804C57.2635 46.7804 57.035 46.8454 56.8226 46.9756C56.6127 47.1057 56.4428 47.2863 56.3126 47.5174C56.1851 47.7458 56.1214 48.0101 56.1214 48.3102V52.1348H55.1812ZM67.4178 52.2623C66.8654 52.2623 66.3807 52.1308 65.9637 51.8678C65.5494 51.6049 65.2253 51.2371 64.9916 50.7643C64.7605 50.2915 64.645 49.7391 64.645 49.107C64.645 48.4696 64.7605 47.9131 64.9916 47.4377C65.2253 46.9623 65.5494 46.5931 65.9637 46.3302C66.3807 46.0672 66.8654 45.9358 67.4178 45.9358C67.9703 45.9358 68.4536 46.0672 68.868 46.3302C69.285 46.5931 69.609 46.9623 69.84 47.4377C70.0738 47.9131 70.1906 48.4696 70.1906 49.107C70.1906 49.7391 70.0738 50.2915 69.84 50.7643C69.609 51.2371 69.285 51.6049 68.868 51.8678C68.4536 52.1308 67.9703 52.2623 67.4178 52.2623ZM67.4178 51.4177C67.8375 51.4177 68.1827 51.3101 68.4536 51.095C68.7245 50.8798 68.9251 50.597 69.0552 50.2464C69.1854 49.8958 69.2504 49.516 69.2504 49.107C69.2504 48.698 69.1854 48.3168 69.0552 47.9636C68.9251 47.6104 68.7245 47.3248 68.4536 47.1071C68.1827 46.8893 67.8375 46.7804 67.4178 46.7804C66.9982 46.7804 66.6529 46.8893 66.382 47.1071C66.1111 47.3248 65.9106 47.6104 65.7804 47.9636C65.6503 48.3168 65.5852 48.698 65.5852 49.107C65.5852 49.516 65.6503 49.8958 65.7804 50.2464C65.9106 50.597 66.1111 50.8798 66.382 51.095C66.6529 51.3101 66.9982 51.4177 67.4178 51.4177ZM75.4823 49.6329V46.0155H76.4225V52.1348H75.4823V51.0989H75.4185C75.2751 51.4097 75.052 51.674 74.7492 51.8917C74.4465 52.1069 74.064 52.2144 73.6019 52.2144C73.2194 52.2144 72.8794 52.1308 72.582 51.9635C72.2845 51.7935 72.0508 51.5385 71.8808 51.1985C71.7108 50.8559 71.6258 50.4243 71.6258 49.9038V46.0155H72.566V49.84C72.566 50.2862 72.6909 50.6421 72.9405 50.9077C73.1929 51.1733 73.5142 51.3061 73.9046 51.3061C74.1384 51.3061 74.3761 51.2464 74.6178 51.1268C74.8621 51.0073 75.0666 50.8241 75.2313 50.5771C75.3986 50.33 75.4823 50.0153 75.4823 49.6329ZM79.0847 48.4536V52.1348H78.1445V46.0155H79.0529V46.9716H79.1326C79.276 46.6609 79.4938 46.4112 79.7859 46.2226C80.0781 46.0314 80.4552 45.9358 80.9174 45.9358C81.3317 45.9358 81.6942 46.0208 82.005 46.1907C82.3157 46.3581 82.5574 46.613 82.73 46.9557C82.9027 47.2956 82.989 47.7259 82.989 48.2465V52.1348H82.0488V48.3102C82.0488 47.8295 81.924 47.455 81.6743 47.1867C81.4246 46.9158 81.082 46.7804 80.6464 46.7804C80.3463 46.7804 80.0781 46.8454 79.8417 46.9756C79.608 47.1057 79.4234 47.2956 79.2879 47.5453C79.1525 47.7949 79.0847 48.0977 79.0847 48.4536ZM87.3683 46.0155V46.8122H84.1971V46.0155H87.3683ZM85.1214 44.5494H86.0616V50.3818C86.0616 50.6474 86.1001 50.8466 86.1771 50.9794C86.2568 51.1096 86.3577 51.1972 86.4799 51.2424C86.6047 51.2849 86.7362 51.3061 86.8743 51.3061C86.9779 51.3061 87.0629 51.3008 87.1293 51.2902C87.1957 51.2769 87.2488 51.2663 87.2886 51.2583L87.4799 52.1029C87.4161 52.1268 87.3272 52.1507 87.213 52.1746C87.0987 52.2012 86.954 52.2144 86.7787 52.2144C86.5131 52.2144 86.2528 52.1573 85.9979 52.0431C85.7455 51.9289 85.5357 51.755 85.3684 51.5212C85.2037 51.2875 85.1214 50.9927 85.1214 50.6368V44.5494Z" fill="#A9A7B6"/>
<path d="M21.2664 80.8032V67.2047H22.1375V80.8032H21.2664ZM23.9914 71.4224C23.9347 70.9195 23.701 70.53 23.2902 70.2538C22.8794 69.974 22.3624 69.8341 21.7391 69.8341C21.2929 69.8341 20.9069 69.905 20.5811 70.0466C20.2553 70.1847 20.0021 70.3759 19.8215 70.6203C19.6445 70.8611 19.5559 71.1355 19.5559 71.4436C19.5559 71.7021 19.6161 71.9252 19.7365 72.1129C19.8605 72.3006 20.0216 72.4582 20.2199 72.5857C20.4218 72.7096 20.6378 72.8141 20.868 72.8991C21.0981 72.9805 21.3195 73.0478 21.532 73.1009L22.5943 73.3772C22.9414 73.4622 23.2973 73.5772 23.662 73.7224C24.0268 73.8676 24.365 74.0589 24.6766 74.2961C24.9882 74.5334 25.2397 74.8273 25.4309 75.1779C25.6257 75.5285 25.723 75.9481 25.723 76.4368C25.723 77.053 25.5637 77.6001 25.245 78.0782C24.9298 78.5563 24.4712 78.9334 23.8692 79.2096C23.2707 79.4859 22.5465 79.624 21.6966 79.624C20.8821 79.624 20.1774 79.4947 19.5825 79.2362C18.9876 78.9777 18.5219 78.6112 18.1855 78.1366C17.849 77.6586 17.6631 77.092 17.6277 76.4368H19.2744C19.3063 76.8299 19.4338 77.1575 19.6569 77.4195C19.8835 77.678 20.1721 77.871 20.5227 77.9985C20.8768 78.1225 21.2646 78.1844 21.686 78.1844C22.1499 78.1844 22.5625 78.1118 22.9237 77.9667C23.2884 77.8179 23.5753 77.6125 23.7842 77.3505C23.9931 77.0849 24.0976 76.775 24.0976 76.4209C24.0976 76.0986 24.0055 75.8348 23.8214 75.6294C23.6408 75.424 23.3947 75.254 23.083 75.1195C22.7749 74.9849 22.4261 74.8663 22.0366 74.7636L20.7511 74.413C19.88 74.1757 19.1894 73.8269 18.6795 73.3665C18.1731 72.9062 17.9199 72.2971 17.9199 71.5392C17.9199 70.9124 18.0898 70.3653 18.4298 69.8979C18.7698 69.4304 19.2301 69.0674 19.8109 68.8089C20.3917 68.5469 21.0468 68.4159 21.7763 68.4159C22.5129 68.4159 23.1627 68.5451 23.7258 68.8036C24.2924 69.0621 24.7386 69.418 25.0644 69.8713C25.3902 70.3211 25.5601 70.8381 25.5743 71.4224H23.9914ZM27.3073 77.3186V75.9906L32.0084 68.5646H33.0548V70.5194H32.3908L29.0284 75.8419V75.9269H35.4717V77.3186H27.3073ZM32.4652 79.4434V76.9149L32.4758 76.3093V68.5646H34.0322V79.4434H32.4652ZM40.9138 79.5921C40.248 79.5921 39.6495 79.4646 39.1183 79.2096C38.5907 78.9511 38.1693 78.597 37.8541 78.1473C37.5389 77.6975 37.3707 77.184 37.3495 76.6068H38.943C38.982 77.0743 39.1892 77.4585 39.5645 77.7595C39.9399 78.0605 40.3896 78.211 40.9138 78.211C41.3316 78.211 41.7017 78.1154 42.0239 77.9242C42.3497 77.7294 42.6047 77.462 42.7889 77.1221C42.9765 76.7821 43.0704 76.3943 43.0704 75.9588C43.0704 75.5161 42.9748 75.1212 42.7835 74.7742C42.5923 74.4272 42.3285 74.1545 41.9921 73.9562C41.6592 73.7579 41.2767 73.6569 40.8447 73.6534C40.5154 73.6534 40.1843 73.71 39.8514 73.8234C39.5185 73.9367 39.2494 74.0854 39.044 74.2696L37.5407 74.0465L38.1516 68.5646H44.1328V69.9722H39.5167L39.1715 73.016H39.2352C39.4477 72.8106 39.7292 72.6388 40.0798 72.5007C40.4339 72.3626 40.8128 72.2935 41.2165 72.2935C41.8787 72.2935 42.4684 72.4511 42.9854 72.7663C43.506 73.0815 43.915 73.5117 44.2124 74.0571C44.5135 74.5989 44.6622 75.2222 44.6586 75.9269C44.6622 76.6316 44.5028 77.2602 44.1806 77.8126C43.8619 78.365 43.4192 78.8006 42.8526 79.1193C42.2895 79.4345 41.6433 79.5921 40.9138 79.5921ZM50.3862 79.624C49.5469 79.6204 48.8298 79.3991 48.2349 78.96C47.6399 78.5209 47.1849 77.8817 46.8697 77.0424C46.5546 76.2031 46.397 75.1921 46.397 74.0093C46.397 72.83 46.5546 71.8226 46.8697 70.9868C47.1884 70.1511 47.6453 69.5136 48.2402 69.0745C48.8387 68.6354 49.554 68.4159 50.3862 68.4159C51.2184 68.4159 51.932 68.6372 52.5269 69.0798C53.1218 69.519 53.5769 70.1564 53.8921 70.9921C54.2108 71.8243 54.3701 72.83 54.3701 74.0093C54.3701 75.1956 54.2125 76.2084 53.8974 77.0477C53.5822 77.8834 53.1271 78.5226 52.5322 78.9653C51.9373 79.4044 51.2219 79.624 50.3862 79.624ZM50.3862 78.2057C51.1228 78.2057 51.6982 77.8462 52.1126 77.1274C52.5304 76.4085 52.7394 75.3691 52.7394 74.0093C52.7394 73.1063 52.6438 72.3431 52.4525 71.7199C52.2648 71.0931 51.9939 70.6185 51.6398 70.2963C51.2892 69.9705 50.8714 69.8076 50.3862 69.8076C49.6532 69.8076 49.0777 70.1688 48.6598 70.8912C48.242 71.6136 48.0313 72.653 48.0277 74.0093C48.0277 74.9158 48.1216 75.6825 48.3092 76.3093C48.5005 76.9326 48.7714 77.4054 49.122 77.7276C49.4726 78.0463 49.894 78.2057 50.3862 78.2057ZM56.9278 79.5443C56.6374 79.5443 56.3878 79.4416 56.1788 79.2362C55.9699 79.0273 55.8654 78.7758 55.8654 78.4819C55.8654 78.1915 55.9699 77.9436 56.1788 77.7382C56.3878 77.5293 56.6374 77.4248 56.9278 77.4248C57.2182 77.4248 57.4679 77.5293 57.6768 77.7382C57.8857 77.9436 57.9902 78.1915 57.9902 78.4819C57.9902 78.6767 57.9406 78.8555 57.8415 79.0184C57.7458 79.1778 57.6184 79.3052 57.459 79.4009C57.2996 79.4965 57.1226 79.5443 56.9278 79.5443ZM61.164 79.5443C60.8737 79.5443 60.624 79.4416 60.4151 79.2362C60.2061 79.0273 60.1017 78.7758 60.1017 78.4819C60.1017 78.1915 60.2061 77.9436 60.4151 77.7382C60.624 77.5293 60.8737 77.4248 61.164 77.4248C61.4544 77.4248 61.7041 77.5293 61.913 77.7382C62.122 77.9436 62.2264 78.1915 62.2264 78.4819C62.2264 78.6767 62.1769 78.8555 62.0777 79.0184C61.9821 79.1778 61.8546 79.3052 61.6952 79.4009C61.5359 79.4965 61.3588 79.5443 61.164 79.5443ZM67.7256 79.624C66.8863 79.6204 66.1692 79.3991 65.5743 78.96C64.9793 78.5209 64.5243 77.8817 64.2091 77.0424C63.8939 76.2031 63.7363 75.1921 63.7363 74.0093C63.7363 72.83 63.8939 71.8226 64.2091 70.9868C64.5278 70.1511 64.9846 69.5136 65.5796 69.0745C66.178 68.6354 66.8934 68.4159 67.7256 68.4159C68.5578 68.4159 69.2713 68.6372 69.8663 69.0798C70.4612 69.519 70.9163 70.1564 71.2314 70.9921C71.5501 71.8243 71.7095 72.83 71.7095 74.0093C71.7095 75.1956 71.5519 76.2084 71.2367 77.0477C70.9216 77.8834 70.4665 78.5226 69.8716 78.9653C69.2767 79.4044 68.5613 79.624 67.7256 79.624ZM67.7256 78.2057C68.4622 78.2057 69.0376 77.8462 69.4519 77.1274C69.8698 76.4085 70.0787 75.3691 70.0787 74.0093C70.0787 73.1063 69.9831 72.3431 69.7919 71.7199C69.6042 71.0931 69.3333 70.6185 68.9792 70.2963C68.6286 69.9705 68.2107 69.8076 67.7256 69.8076C66.9925 69.8076 66.4171 70.1688 65.9992 70.8912C65.5813 71.6136 65.3706 72.653 65.3671 74.0093C65.3671 74.9158 65.4609 75.6825 65.6486 76.3093C65.8399 76.9326 66.1108 77.4054 66.4613 77.7276C66.8119 78.0463 67.2333 78.2057 67.7256 78.2057ZM77.3813 79.624C76.542 79.6204 75.8249 79.3991 75.23 78.96C74.635 78.5209 74.18 77.8817 73.8648 77.0424C73.5496 76.2031 73.392 75.1921 73.392 74.0093C73.392 72.83 73.5496 71.8226 73.8648 70.9868C74.1835 70.1511 74.6403 69.5136 75.2353 69.0745C75.8338 68.6354 76.5491 68.4159 77.3813 68.4159C78.2135 68.4159 78.927 68.6372 79.522 69.0798C80.1169 69.519 80.572 70.1564 80.8871 70.9921C81.2059 71.8243 81.3652 72.83 81.3652 74.0093C81.3652 75.1956 81.2076 76.2084 80.8925 77.0477C80.5773 77.8834 80.1222 78.5226 79.5273 78.9653C78.9324 79.4044 78.217 79.624 77.3813 79.624ZM77.3813 78.2057C78.1179 78.2057 78.6933 77.8462 79.1077 77.1274C79.5255 76.4085 79.7345 75.3691 79.7345 74.0093C79.7345 73.1063 79.6388 72.3431 79.4476 71.7199C79.2599 71.0931 78.989 70.6185 78.6349 70.2963C78.2843 69.9705 77.8664 69.8076 77.3813 69.8076C76.6482 69.8076 76.0728 70.1688 75.6549 70.8912C75.237 71.6136 75.0263 72.653 75.0228 74.0093C75.0228 74.9158 75.1166 75.6825 75.3043 76.3093C75.4956 76.9326 75.7665 77.4054 76.1171 77.7276C76.4676 78.0463 76.889 78.2057 77.3813 78.2057Z" fill="black"/>
<rect x="169.25" y="49.5488" width="59.8333" height="26.177" rx="13.0885" fill="#52BD94"/>
<path d="M190.001 59.7056C189.955 59.297 189.765 58.9805 189.431 58.7561C189.097 58.5288 188.677 58.4152 188.171 58.4152C187.808 58.4152 187.495 58.4727 187.23 58.5878C186.965 58.7 186.76 58.8554 186.613 59.0539C186.469 59.2496 186.397 59.4726 186.397 59.7229C186.397 59.9329 186.446 60.1142 186.544 60.2667C186.645 60.4192 186.776 60.5472 186.937 60.6508C187.101 60.7515 187.276 60.8364 187.463 60.9054C187.65 60.9716 187.83 61.0263 188.003 61.0694L188.866 61.2939C189.148 61.3629 189.437 61.4564 189.733 61.5744C190.03 61.6924 190.305 61.8478 190.558 62.0405C190.811 62.2333 191.015 62.4721 191.171 62.757C191.329 63.0418 191.408 63.3828 191.408 63.7798C191.408 64.2805 191.278 64.725 191.02 65.1135C190.763 65.5019 190.391 65.8083 189.902 66.0328C189.415 66.2572 188.827 66.3694 188.136 66.3694C187.475 66.3694 186.902 66.2644 186.419 66.0543C185.935 65.8443 185.557 65.5465 185.284 65.1609C185.01 64.7725 184.859 64.3121 184.83 63.7798H186.168C186.194 64.0992 186.298 64.3654 186.479 64.5783C186.663 64.7883 186.898 64.9451 187.183 65.0487C187.47 65.1494 187.785 65.1998 188.128 65.1998C188.505 65.1998 188.84 65.1408 189.133 65.0228C189.43 64.902 189.663 64.7351 189.833 64.5222C190.002 64.3064 190.087 64.0546 190.087 63.7669C190.087 63.5051 190.012 63.2907 189.863 63.1238C189.716 62.9569 189.516 62.8188 189.263 62.7095C189.013 62.6002 188.729 62.5038 188.413 62.4203L187.368 62.1355C186.66 61.9427 186.099 61.6593 185.685 61.2852C185.274 60.9112 185.068 60.4163 185.068 59.8006C185.068 59.2913 185.206 58.8467 185.482 58.4669C185.758 58.0871 186.132 57.7922 186.604 57.5822C187.076 57.3693 187.608 57.2628 188.201 57.2628C188.8 57.2628 189.328 57.3678 189.785 57.5779C190.246 57.7879 190.608 58.0771 190.873 58.4454C191.137 58.8108 191.276 59.2309 191.287 59.7056H190.001ZM195.755 66.3564C195.102 66.3564 194.539 66.2169 194.068 65.9378C193.599 65.6558 193.236 65.2602 192.98 64.7509C192.727 64.2388 192.6 63.6389 192.6 62.9512C192.6 62.2722 192.727 61.6737 192.98 61.1558C193.236 60.6379 193.593 60.2336 194.05 59.943C194.511 59.6524 195.049 59.5071 195.665 59.5071C196.039 59.5071 196.401 59.5689 196.752 59.6927C197.103 59.8164 197.418 60.0106 197.697 60.2753C197.976 60.54 198.197 60.8839 198.358 61.3068C198.519 61.7269 198.599 62.2376 198.599 62.839V63.2965H193.33V62.3297H197.335C197.335 61.9902 197.266 61.6895 197.128 61.4277C196.99 61.163 196.795 60.9544 196.545 60.8019C196.298 60.6494 196.007 60.5731 195.673 60.5731C195.311 60.5731 194.994 60.6623 194.724 60.8407C194.456 61.0162 194.249 61.2464 194.102 61.5313C193.958 61.8132 193.886 62.1197 193.886 62.4505V63.2058C193.886 63.6489 193.964 64.0259 194.119 64.3366C194.278 64.6473 194.498 64.8847 194.78 65.0487C195.062 65.2099 195.391 65.2904 195.768 65.2904C196.013 65.2904 196.236 65.2559 196.437 65.1868C196.638 65.1149 196.813 65.0084 196.959 64.8675C197.106 64.7265 197.218 64.5524 197.296 64.3452L198.517 64.5653C198.42 64.925 198.244 65.2401 197.991 65.5105C197.74 65.7781 197.425 65.9867 197.046 66.1363C196.669 66.2831 196.239 66.3564 195.755 66.3564ZM201.322 62.2865V66.2227H200.031V59.5934H201.27V60.6724H201.352C201.504 60.3214 201.743 60.0394 202.068 59.8265C202.396 59.6135 202.809 59.5071 203.307 59.5071C203.759 59.5071 204.154 59.602 204.494 59.7919C204.833 59.979 205.097 60.2581 205.284 60.6292C205.471 61.0004 205.564 61.4593 205.564 62.006V66.2227H204.274V62.1614C204.274 61.6809 204.149 61.3054 203.898 61.0349C203.648 60.7616 203.304 60.6249 202.867 60.6249C202.567 60.6249 202.301 60.6896 202.068 60.8191C201.838 60.9486 201.655 61.1385 201.52 61.3888C201.388 61.6363 201.322 61.9355 201.322 62.2865ZM209.776 66.3521C209.241 66.3521 208.764 66.2155 208.344 65.9421C207.926 65.6659 207.598 65.2732 207.36 64.7639C207.124 64.2517 207.006 63.6374 207.006 62.921C207.006 62.2045 207.125 61.5917 207.364 61.0824C207.606 60.5731 207.936 60.1832 208.357 59.9128C208.777 59.6423 209.253 59.5071 209.785 59.5071C210.197 59.5071 210.527 59.5761 210.778 59.7142C211.031 59.8495 211.227 60.0077 211.365 60.189C211.506 60.3703 211.615 60.53 211.693 60.6681H211.77V57.3837H213.061V66.2227H211.801V65.1912H211.693C211.615 65.3321 211.503 65.4933 211.356 65.6745C211.212 65.8558 211.014 66.0141 210.761 66.1493C210.507 66.2845 210.179 66.3521 209.776 66.3521ZM210.061 65.2516C210.433 65.2516 210.746 65.1537 211.002 64.9581C211.261 64.7596 211.457 64.4848 211.589 64.1338C211.724 63.7827 211.792 63.3741 211.792 62.908C211.792 62.4477 211.726 62.0448 211.593 61.6996C211.461 61.3543 211.267 61.0853 211.011 60.8925C210.755 60.6997 210.438 60.6033 210.061 60.6033C209.673 60.6033 209.349 60.704 209.09 60.9054C208.831 61.1069 208.636 61.3816 208.503 61.7298C208.374 62.0779 208.309 62.4707 208.309 62.908C208.309 63.3511 208.375 63.7496 208.508 64.1035C208.64 64.4574 208.836 64.738 209.095 64.9451C209.356 65.1494 209.679 65.2516 210.061 65.2516Z" fill="white"/>
<rect x="16.8628" y="86.9453" width="212.221" height="0.934895" fill="#EEEEEE"/>
<path d="M624.965 271.121H369.384V462.177H624.965V271.121Z" fill="#263238"/>
<path d="M623.892 270.805H369.197V294.876H623.892V270.805Z" fill="#364349"/>
<path d="M382.569 286.334C384.449 286.334 385.973 284.81 385.973 282.931C385.973 281.051 384.449 279.527 382.569 279.527C380.69 279.527 379.166 281.051 379.166 282.931C379.166 284.81 380.69 286.334 382.569 286.334Z" fill="#FF725E"/>
<path d="M394.035 286.334C395.915 286.334 397.438 284.81 397.438 282.931C397.438 281.051 395.915 279.527 394.035 279.527C392.155 279.527 390.632 281.051 390.632 282.931C390.632 284.81 392.155 286.334 394.035 286.334Z" fill="#FFC100"/>
<path d="M405.513 286.334C407.393 286.334 408.916 284.81 408.916 282.931C408.916 281.051 407.393 279.527 405.513 279.527C403.633 279.527 402.11 281.051 402.11 282.931C402.11 284.81 403.633 286.334 405.513 286.334Z" fill="#3EBA59"/>
<path d="M610.07 386.255C610.07 386.461 559.213 386.613 496.492 386.613C433.771 386.613 382.886 386.461 382.886 386.255C382.886 386.048 433.73 385.896 496.492 385.896C559.254 385.896 610.07 386.062 610.07 386.255Z" fill="#E0E0E0"/>
<path d="M610.07 366.649C610.07 366.842 559.213 367.008 496.492 367.008C433.771 367.008 382.886 366.842 382.886 366.649C382.886 366.456 433.73 366.291 496.492 366.291C559.254 366.291 610.07 366.443 610.07 366.649Z" fill="#E0E0E0"/>
<path d="M610.07 347.028C610.07 347.235 559.213 347.386 496.492 347.386C433.771 347.386 382.886 347.235 382.886 347.028C382.886 346.822 433.73 346.67 496.492 346.67C559.254 346.67 610.07 346.835 610.07 347.028Z" fill="#E0E0E0"/>
<path d="M610.07 327.423C610.07 327.616 559.213 327.781 496.492 327.781C433.771 327.781 382.886 327.616 382.886 327.423C382.886 327.23 433.73 327.064 496.492 327.064C559.254 327.064 610.07 327.216 610.07 327.423Z" fill="#E0E0E0"/>
<path d="M421.014 377.367H402.11V415.383H421.014V377.367Z" fill="#7782FF"/>
<path d="M488.86 377.367H469.956V415.383H488.86V377.367Z" fill="#3EBA59"/>
<path d="M591.758 390.32H572.854V415.37H591.758V390.32Z" fill="#3EBA59"/>
<path d="M556.692 359.359H537.787V415.37H556.692V359.359Z" fill="#E4897B"/>
<path d="M522.01 337.562H503.105V415.385H522.01V337.562Z" fill="#7782FF"/>
<path d="M453.586 359.359H434.682V415.37H453.586V359.359Z" fill="#E4897B"/>
<path d="M607.371 415.385H606.517H604.036H594.501L559.407 415.495L443.666 415.606H382.598H382.185V415.275C382.185 385.168 382.295 359.499 382.323 341.338C382.323 332.286 382.392 325.107 382.419 320.16C382.419 317.721 382.419 315.834 382.419 314.525C382.419 313.905 382.419 313.436 382.419 313.078C382.408 312.913 382.408 312.747 382.419 312.582C382.419 312.582 382.419 312.761 382.419 313.078V314.525C382.419 315.834 382.419 317.721 382.419 320.16C382.419 325.107 382.419 332.286 382.516 341.338C382.516 359.499 382.598 385.168 382.654 415.275L382.323 414.93H443.638L559.38 415.027L594.474 415.137L604.009 415.206H606.489L607.371 415.385Z" fill="#263238"/>
<path d="M430.605 434.66H422.296V442.969H430.605V434.66Z" fill="#7782FF"/>
<path d="M481.364 434.398H473.055V442.707H481.364V434.398Z" fill="#E4897B"/>
<path d="M536.273 434.66H527.964V442.969H536.273V434.66Z" fill="#3EBA59"/>
<path d="M458.104 438.546C454.345 438.908 450.566 439.028 446.791 438.904C443.017 439.028 439.238 438.908 435.479 438.546C439.239 438.191 443.017 438.071 446.791 438.187C450.566 438.071 454.344 438.191 458.104 438.546Z" fill="#263238"/>
<path d="M508.478 438.546C504.719 438.908 500.94 439.028 497.166 438.904C493.391 439.028 489.613 438.908 485.854 438.546C489.613 438.191 493.391 438.071 497.166 438.187C500.94 438.071 504.719 438.191 508.478 438.546Z" fill="#263238"/>
<path d="M562.106 438.546C554.577 439.023 547.025 439.023 539.496 438.546C547.025 438.068 554.577 438.068 562.106 438.546Z" fill="#263238"/>
<rect x="97.2637" y="393.59" width="129.015" height="65.4426" rx="9.34895" fill="white"/>
<path d="M113.821 443.54V429.941H114.692V443.54H113.821ZM116.546 434.159C116.489 433.656 116.255 433.266 115.845 432.99C115.434 432.71 114.917 432.57 114.294 432.57C113.847 432.57 113.461 432.641 113.136 432.783C112.81 432.921 112.557 433.112 112.376 433.357C112.199 433.597 112.11 433.872 112.11 434.18C112.11 434.438 112.171 434.662 112.291 434.849C112.415 435.037 112.576 435.195 112.774 435.322C112.976 435.446 113.192 435.55 113.422 435.635C113.653 435.717 113.874 435.784 114.086 435.837L115.149 436.113C115.496 436.198 115.852 436.314 116.216 436.459C116.581 436.604 116.919 436.795 117.231 437.032C117.543 437.27 117.794 437.564 117.985 437.914C118.18 438.265 118.277 438.684 118.277 439.173C118.277 439.789 118.118 440.336 117.799 440.815C117.484 441.293 117.026 441.67 116.424 441.946C115.825 442.222 115.101 442.36 114.251 442.36C113.437 442.36 112.732 442.231 112.137 441.973C111.542 441.714 111.076 441.347 110.74 440.873C110.403 440.395 110.218 439.828 110.182 439.173H111.829C111.861 439.566 111.988 439.894 112.211 440.156C112.438 440.414 112.727 440.607 113.077 440.735C113.431 440.859 113.819 440.921 114.24 440.921C114.704 440.921 115.117 440.848 115.478 440.703C115.843 440.554 116.13 440.349 116.339 440.087C116.548 439.821 116.652 439.511 116.652 439.157C116.652 438.835 116.56 438.571 116.376 438.366C116.195 438.16 115.949 437.99 115.637 437.856C115.329 437.721 114.981 437.603 114.591 437.5L113.306 437.149C112.434 436.912 111.744 436.563 111.234 436.103C110.728 435.643 110.474 435.033 110.474 434.276C110.474 433.649 110.644 433.102 110.984 432.634C111.324 432.167 111.785 431.804 112.365 431.545C112.946 431.283 113.601 431.152 114.331 431.152C115.067 431.152 115.717 431.281 116.28 431.54C116.847 431.798 117.293 432.154 117.619 432.608C117.945 433.057 118.115 433.574 118.129 434.159H116.546ZM120.09 442.18V440.99L123.771 437.176C124.164 436.762 124.488 436.399 124.743 436.087C125.002 435.772 125.195 435.473 125.322 435.189C125.45 434.906 125.514 434.605 125.514 434.286C125.514 433.925 125.429 433.613 125.259 433.351C125.089 433.086 124.857 432.882 124.563 432.74C124.269 432.595 123.938 432.523 123.569 432.523C123.18 432.523 122.84 432.602 122.55 432.762C122.259 432.921 122.036 433.146 121.88 433.436C121.724 433.727 121.647 434.067 121.647 434.456H120.08C120.08 433.794 120.232 433.215 120.536 432.719C120.841 432.223 121.259 431.839 121.79 431.567C122.321 431.29 122.925 431.152 123.601 431.152C124.285 431.152 124.887 431.289 125.407 431.561C125.931 431.83 126.341 432.199 126.634 432.666C126.928 433.13 127.075 433.654 127.075 434.238C127.075 434.642 126.999 435.037 126.847 435.423C126.698 435.809 126.438 436.239 126.066 436.714C125.694 437.185 125.177 437.757 124.515 438.429L122.353 440.692V440.772H127.251V442.18H120.09ZM128.802 440.055V438.727L133.503 431.301H134.549V433.256H133.885L130.523 438.578V438.663H136.966V440.055H128.802ZM133.96 442.18V439.651L133.97 439.046V431.301H135.527V442.18H133.96ZM142.408 442.328C141.742 442.328 141.144 442.201 140.613 441.946C140.085 441.687 139.664 441.333 139.348 440.884C139.033 440.434 138.865 439.92 138.844 439.343H140.437C140.476 439.811 140.684 440.195 141.059 440.496C141.434 440.797 141.884 440.947 142.408 440.947C142.826 440.947 143.196 440.852 143.518 440.66C143.844 440.466 144.099 440.198 144.283 439.858C144.471 439.518 144.565 439.131 144.565 438.695C144.565 438.252 144.469 437.858 144.278 437.511C144.087 437.163 143.823 436.891 143.486 436.692C143.154 436.494 142.771 436.393 142.339 436.39C142.01 436.39 141.679 436.446 141.346 436.56C141.013 436.673 140.744 436.822 140.538 437.006L139.035 436.783L139.646 431.301H145.627V432.709H141.011L140.666 435.752H140.73C140.942 435.547 141.224 435.375 141.574 435.237C141.928 435.099 142.307 435.03 142.711 435.03C143.373 435.03 143.963 435.187 144.48 435.503C145 435.818 145.409 436.248 145.707 436.793C146.008 437.335 146.157 437.958 146.153 438.663C146.157 439.368 145.997 439.996 145.675 440.549C145.356 441.101 144.914 441.537 144.347 441.856C143.784 442.171 143.138 442.328 142.408 442.328ZM148.766 442.281C148.476 442.281 148.226 442.178 148.017 441.973C147.809 441.764 147.704 441.512 147.704 441.218C147.704 440.928 147.809 440.68 148.017 440.475C148.226 440.266 148.476 440.161 148.766 440.161C149.057 440.161 149.307 440.266 149.515 440.475C149.724 440.68 149.829 440.928 149.829 441.218C149.829 441.413 149.779 441.592 149.68 441.755C149.585 441.914 149.457 442.042 149.298 442.137C149.138 442.233 148.961 442.281 148.766 442.281ZM155.328 442.36C154.489 442.357 153.772 442.135 153.177 441.696C152.582 441.257 152.127 440.618 151.812 439.779C151.496 438.939 151.339 437.928 151.339 436.746C151.339 435.566 151.496 434.559 151.812 433.723C152.13 432.887 152.587 432.25 153.182 431.811C153.78 431.372 154.496 431.152 155.328 431.152C156.16 431.152 156.874 431.374 157.469 431.816C158.064 432.255 158.519 432.893 158.834 433.728C159.153 434.561 159.312 435.566 159.312 436.746C159.312 437.932 159.154 438.945 158.839 439.784C158.524 440.62 158.069 441.259 157.474 441.702C156.879 442.141 156.164 442.36 155.328 442.36ZM155.328 440.942C156.065 440.942 156.64 440.583 157.054 439.864C157.472 439.145 157.681 438.105 157.681 436.746C157.681 435.843 157.586 435.079 157.394 434.456C157.207 433.829 156.936 433.355 156.582 433.033C156.231 432.707 155.813 432.544 155.328 432.544C154.595 432.544 154.02 432.905 153.602 433.628C153.184 434.35 152.973 435.389 152.97 436.746C152.97 437.652 153.063 438.419 153.251 439.046C153.442 439.669 153.713 440.142 154.064 440.464C154.414 440.783 154.836 440.942 155.328 440.942ZM164.984 442.36C164.144 442.357 163.427 442.135 162.832 441.696C162.237 441.257 161.782 440.618 161.467 439.779C161.152 438.939 160.994 437.928 160.994 436.746C160.994 435.566 161.152 434.559 161.467 433.723C161.786 432.887 162.243 432.25 162.838 431.811C163.436 431.372 164.152 431.152 164.984 431.152C165.816 431.152 166.529 431.374 167.124 431.816C167.719 432.255 168.174 432.893 168.49 433.728C168.808 434.561 168.968 435.566 168.968 436.746C168.968 437.932 168.81 438.945 168.495 439.784C168.18 440.62 167.725 441.259 167.13 441.702C166.535 442.141 165.819 442.36 164.984 442.36ZM164.984 440.942C165.72 440.942 166.296 440.583 166.71 439.864C167.128 439.145 167.337 438.105 167.337 436.746C167.337 435.843 167.241 435.079 167.05 434.456C166.862 433.829 166.591 433.355 166.237 433.033C165.887 432.707 165.469 432.544 164.984 432.544C164.251 432.544 163.675 432.905 163.257 433.628C162.839 434.35 162.629 435.389 162.625 436.746C162.625 437.652 162.719 438.419 162.907 439.046C163.098 439.669 163.369 440.142 163.719 440.464C164.07 440.783 164.491 440.942 164.984 440.942Z" fill="black"/>
<path d="M109.024 409.46V408.583H115.144V409.46H112.578V416.742H111.59V409.46H109.024ZM118.139 416.87C117.587 416.87 117.102 416.738 116.685 416.475C116.271 416.212 115.947 415.844 115.713 415.372C115.482 414.899 115.367 414.347 115.367 413.714C115.367 413.077 115.482 412.521 115.713 412.045C115.947 411.57 116.271 411.201 116.685 410.938C117.102 410.675 117.587 410.543 118.139 410.543C118.692 410.543 119.175 410.675 119.59 410.938C120.007 411.201 120.331 411.57 120.562 412.045C120.795 412.521 120.912 413.077 120.912 413.714C120.912 414.347 120.795 414.899 120.562 415.372C120.331 415.844 120.007 416.212 119.59 416.475C119.175 416.738 118.692 416.87 118.139 416.87ZM118.139 416.025C118.559 416.025 118.904 415.918 119.175 415.702C119.446 415.487 119.647 415.204 119.777 414.854C119.907 414.503 119.972 414.123 119.972 413.714C119.972 413.305 119.907 412.924 119.777 412.571C119.647 412.218 119.446 411.932 119.175 411.714C118.904 411.497 118.559 411.388 118.139 411.388C117.72 411.388 117.375 411.497 117.104 411.714C116.833 411.932 116.632 412.218 116.502 412.571C116.372 412.924 116.307 413.305 116.307 413.714C116.307 414.123 116.372 414.503 116.502 414.854C116.632 415.204 116.833 415.487 117.104 415.702C117.375 415.918 117.72 416.025 118.139 416.025ZM125.009 410.623V411.42H121.838V410.623H125.009ZM122.762 409.157H123.702V414.989C123.702 415.255 123.741 415.454 123.818 415.587C123.897 415.717 123.998 415.805 124.12 415.85C124.245 415.892 124.377 415.914 124.515 415.914C124.618 415.914 124.703 415.908 124.77 415.898C124.836 415.884 124.889 415.874 124.929 415.866L125.12 416.71C125.057 416.734 124.968 416.758 124.853 416.782C124.739 416.809 124.594 416.822 124.419 416.822C124.154 416.822 123.893 416.765 123.638 416.651C123.386 416.536 123.176 416.362 123.009 416.129C122.844 415.895 122.762 415.6 122.762 415.244V409.157ZM128.224 416.886C127.836 416.886 127.484 416.813 127.168 416.666C126.852 416.518 126.601 416.304 126.415 416.025C126.229 415.744 126.136 415.404 126.136 415.005C126.136 414.655 126.205 414.37 126.343 414.153C126.481 413.932 126.666 413.76 126.897 413.635C127.128 413.51 127.383 413.417 127.662 413.356C127.944 413.292 128.226 413.242 128.511 413.204C128.882 413.157 129.184 413.121 129.415 413.097C129.649 413.07 129.819 413.027 129.925 412.965C130.034 412.904 130.088 412.798 130.088 412.647V412.615C130.088 412.222 129.981 411.916 129.766 411.699C129.553 411.481 129.23 411.372 128.797 411.372C128.349 411.372 127.997 411.47 127.742 411.667C127.487 411.863 127.307 412.073 127.204 412.296L126.311 411.977C126.471 411.606 126.683 411.316 126.949 411.109C127.217 410.899 127.509 410.753 127.825 410.671C128.144 410.586 128.457 410.543 128.766 410.543C128.962 410.543 129.188 410.567 129.443 410.615C129.7 410.66 129.949 410.754 130.188 410.898C130.43 411.041 130.63 411.258 130.789 411.547C130.949 411.837 131.028 412.224 131.028 412.71V416.742H130.088V415.914H130.04C129.977 416.046 129.87 416.188 129.722 416.34C129.573 416.491 129.375 416.62 129.128 416.726C128.881 416.832 128.58 416.886 128.224 416.886ZM128.367 416.041C128.739 416.041 129.052 415.968 129.307 415.822C129.565 415.676 129.759 415.487 129.889 415.256C130.022 415.025 130.088 414.782 130.088 414.527V413.667C130.048 413.714 129.961 413.758 129.825 413.798C129.693 413.835 129.538 413.868 129.363 413.898C129.191 413.924 129.022 413.948 128.857 413.969C128.695 413.988 128.564 414.004 128.463 414.017C128.218 414.049 127.99 414.101 127.778 414.173C127.568 414.242 127.398 414.347 127.268 414.487C127.14 414.625 127.076 414.814 127.076 415.053C127.076 415.38 127.197 415.627 127.439 415.794C127.683 415.959 127.993 416.041 128.367 416.041ZM133.685 408.583V416.742H132.745V408.583H133.685ZM139.678 408.583V416.742H138.69V408.583H139.678ZM142.471 413.061V416.742H141.531V410.623H142.439V411.579H142.519C142.663 411.268 142.88 411.019 143.172 410.83C143.465 410.639 143.842 410.543 144.304 410.543C144.718 410.543 145.081 410.628 145.392 410.798C145.702 410.965 145.944 411.22 146.117 411.563C146.289 411.903 146.376 412.333 146.376 412.854V416.742H145.435V412.918C145.435 412.437 145.31 412.062 145.061 411.794C144.811 411.523 144.469 411.388 144.033 411.388C143.733 411.388 143.465 411.453 143.228 411.583C142.995 411.713 142.81 411.903 142.674 412.153C142.539 412.402 142.471 412.705 142.471 413.061ZM150.58 416.87C150.006 416.87 149.512 416.734 149.098 416.463C148.683 416.192 148.365 415.819 148.141 415.344C147.918 414.868 147.807 414.325 147.807 413.714C147.807 413.093 147.921 412.544 148.149 412.069C148.38 411.591 148.702 411.218 149.113 410.95C149.528 410.679 150.011 410.543 150.564 410.543C150.994 410.543 151.382 410.623 151.727 410.782C152.072 410.942 152.355 411.165 152.576 411.452C152.796 411.738 152.933 412.073 152.986 412.455H152.046C151.974 412.177 151.815 411.93 151.568 411.714C151.323 411.497 150.994 411.388 150.58 411.388C150.213 411.388 149.892 411.483 149.615 411.675C149.342 411.863 149.128 412.13 148.974 412.475C148.823 412.818 148.747 413.22 148.747 413.683C148.747 414.155 148.821 414.567 148.97 414.918C149.121 415.268 149.334 415.54 149.607 415.734C149.884 415.928 150.208 416.025 150.58 416.025C150.824 416.025 151.046 415.983 151.245 415.898C151.444 415.813 151.613 415.69 151.751 415.531C151.889 415.372 151.987 415.18 152.046 414.957H152.986C152.933 415.319 152.801 415.644 152.591 415.933C152.384 416.22 152.109 416.449 151.767 416.619C151.427 416.786 151.031 416.87 150.58 416.87ZM156.846 416.87C156.294 416.87 155.809 416.738 155.392 416.475C154.978 416.212 154.654 415.844 154.42 415.372C154.189 414.899 154.073 414.347 154.073 413.714C154.073 413.077 154.189 412.521 154.42 412.045C154.654 411.57 154.978 411.201 155.392 410.938C155.809 410.675 156.294 410.543 156.846 410.543C157.399 410.543 157.882 410.675 158.296 410.938C158.713 411.201 159.037 411.57 159.269 412.045C159.502 412.521 159.619 413.077 159.619 413.714C159.619 414.347 159.502 414.899 159.269 415.372C159.037 415.844 158.713 416.212 158.296 416.475C157.882 416.738 157.399 416.87 156.846 416.87ZM156.846 416.025C157.266 416.025 157.611 415.918 157.882 415.702C158.153 415.487 158.354 415.204 158.484 414.854C158.614 414.503 158.679 414.123 158.679 413.714C158.679 413.305 158.614 412.924 158.484 412.571C158.354 412.218 158.153 411.932 157.882 411.714C157.611 411.497 157.266 411.388 156.846 411.388C156.427 411.388 156.081 411.497 155.81 411.714C155.54 411.932 155.339 412.218 155.209 412.571C155.079 412.924 155.014 413.305 155.014 413.714C155.014 414.123 155.079 414.503 155.209 414.854C155.339 415.204 155.54 415.487 155.81 415.702C156.081 415.918 156.427 416.025 156.846 416.025ZM161.054 416.742V410.623H161.963V411.579H162.042C162.17 411.252 162.376 410.999 162.66 410.818C162.944 410.635 163.285 410.543 163.684 410.543C164.087 410.543 164.423 410.635 164.692 410.818C164.963 410.999 165.174 411.252 165.325 411.579H165.389C165.546 411.263 165.781 411.012 166.094 410.826C166.407 410.637 166.783 410.543 167.221 410.543C167.769 410.543 168.216 410.715 168.564 411.057C168.912 411.397 169.086 411.927 169.086 412.647V416.742H168.146V412.647C168.146 412.195 168.022 411.873 167.775 411.679C167.528 411.485 167.237 411.388 166.903 411.388C166.472 411.388 166.139 411.518 165.903 411.778C165.666 412.036 165.548 412.363 165.548 412.758V416.742H164.592V412.551C164.592 412.203 164.479 411.923 164.253 411.71C164.028 411.495 163.737 411.388 163.381 411.388C163.137 411.388 162.908 411.453 162.696 411.583C162.486 411.713 162.316 411.894 162.186 412.125C162.058 412.353 161.995 412.617 161.995 412.918V416.742H161.054ZM173.371 416.87C172.781 416.87 172.272 416.74 171.845 416.479C171.42 416.216 171.092 415.85 170.861 415.38C170.632 414.907 170.518 414.357 170.518 413.73C170.518 413.104 170.632 412.551 170.861 412.073C171.092 411.592 171.413 411.218 171.825 410.95C172.239 410.679 172.723 410.543 173.275 410.543C173.594 410.543 173.908 410.596 174.219 410.703C174.53 410.809 174.813 410.981 175.068 411.22C175.323 411.457 175.526 411.77 175.677 412.161C175.829 412.551 175.904 413.032 175.904 413.603V414.001H171.187V413.189H174.948C174.948 412.843 174.879 412.535 174.741 412.264C174.606 411.993 174.412 411.78 174.159 411.623C173.91 411.466 173.615 411.388 173.275 411.388C172.901 411.388 172.576 411.481 172.303 411.667C172.032 411.85 171.824 412.089 171.677 412.384C171.531 412.679 171.458 412.995 171.458 413.332V413.874C171.458 414.336 171.538 414.728 171.697 415.049C171.859 415.368 172.084 415.611 172.371 415.778C172.657 415.943 172.991 416.025 173.371 416.025C173.618 416.025 173.841 415.991 174.04 415.921C174.242 415.85 174.416 415.744 174.562 415.603C174.708 415.459 174.821 415.281 174.9 415.069L175.809 415.324C175.713 415.632 175.552 415.903 175.327 416.137C175.101 416.368 174.822 416.548 174.49 416.678C174.158 416.806 173.785 416.87 173.371 416.87Z" fill="#A9A7B6"/>
<path d="M210.386 442.826V435.035" stroke="#52BD94" stroke-width="1.55816" stroke-linecap="round" stroke-linejoin="round"/>
<path d="M205.712 442.827V430.361" stroke="#52BD94" stroke-width="1.55816" stroke-linecap="round" stroke-linejoin="round"/>
<path d="M201.037 442.825V438.15" stroke="#52BD94" stroke-width="1.55816" stroke-linecap="round" stroke-linejoin="round"/>
<path d="M126.245 183.926L130.148 187.915L137.464 180.436" stroke="white" stroke-width="1.86979"/>
<defs>
<clipPath id="clip0_125_7387">
<rect x="168.316" width="383.307" height="491.755" rx="9.34895" fill="white"/>
</clipPath>
<clipPath id="clip1_125_7387">
<rect width="18.6979" height="18.6979" fill="white" transform="translate(478.162 488.248) rotate(15)"/>
</clipPath>
<clipPath id="clip2_125_7387">
<rect width="18.6979" height="18.6979" fill="white" transform="translate(549.686 40.9023) rotate(15)"/>
</clipPath>
</defs>
</svg>
