<svg width="64" height="65" viewBox="0 0 64 65" fill="none" xmlns="http://www.w3.org/2000/svg">
<g filter="url(#filter0_d_278_5811)">
<rect x="12" y="8.60156" width="40" height="40" rx="4.8" fill="white" fill-opacity="0.16" shape-rendering="crispEdges"/>
<g clip-path="url(#clip0_278_5811)">
<path fill-rule="evenodd" clip-rule="evenodd" d="M25.5996 21.0012C25.5996 19.7281 26.1053 18.5072 27.0055 17.6071C27.9057 16.7069 29.1266 16.2012 30.3996 16.2012H33.5996C34.8726 16.2012 36.0935 16.7069 36.9937 17.6071C37.8939 18.5072 38.3996 19.7281 38.3996 21.0012V24.2012C38.3996 25.4742 37.8939 26.6951 36.9937 27.5953C36.0935 28.4955 34.8726 29.0012 33.5996 29.0012H30.3996C29.1266 29.0012 27.9057 28.4955 27.0055 27.5953C26.1053 26.6951 25.5996 25.4742 25.5996 24.2012V21.0012ZM27.1996 21.0012C27.1996 20.1525 27.5368 19.3385 28.1369 18.7384C28.737 18.1383 29.5509 17.8012 30.3996 17.8012H33.5996C34.4483 17.8012 35.2622 18.1383 35.8624 18.7384C36.4625 19.3385 36.7996 20.1525 36.7996 21.0012V24.2012C36.7996 25.0499 36.4625 25.8638 35.8624 26.4639C35.2622 27.064 34.4483 27.4012 33.5996 27.4012H30.3996C29.5509 27.4012 28.737 27.064 28.1369 26.4639C27.5368 25.8638 27.1996 25.0499 27.1996 24.2012V21.0012ZM31.2932 20.6148C31.1972 20.8148 31.0212 21.0012 30.7996 21.0012H30.3996C29.958 21.0012 29.5868 20.6332 29.7308 20.2156C29.9169 19.6796 30.2868 19.2268 30.7749 18.9376C31.2629 18.6484 31.8377 18.5413 32.3972 18.6355C32.9567 18.7296 33.4647 19.0188 33.8313 19.4519C34.1978 19.8849 34.3992 20.4338 34.3996 21.0012C34.3996 21.902 33.9036 22.4916 33.1692 22.8476C32.9532 22.9532 32.7996 23.1612 32.7996 23.4012C32.7996 23.6133 32.7153 23.8168 32.5653 23.9669C32.4153 24.1169 32.2118 24.2012 31.9996 24.2012C31.7874 24.2012 31.584 24.1169 31.4339 23.9669C31.2839 23.8168 31.1996 23.6133 31.1996 23.4012V23.0012C31.1996 22.3388 31.7788 21.9508 32.3852 21.6836C32.6292 21.5772 32.7996 21.3748 32.7996 21.0012C32.7996 20.789 32.7153 20.5855 32.5653 20.4355C32.4153 20.2855 32.2118 20.2012 31.9996 20.2012C31.59 20.2012 31.3908 20.4108 31.2932 20.6148ZM31.9996 26.6012C32.2118 26.6012 32.4153 26.5169 32.5653 26.3669C32.7153 26.2168 32.7996 26.0133 32.7996 25.8012C32.7996 25.589 32.7153 25.3855 32.5653 25.2355C32.4153 25.0855 32.2118 25.0012 31.9996 25.0012C31.7874 25.0012 31.584 25.0855 31.4339 25.2355C31.2839 25.3855 31.1996 25.589 31.1996 25.8012C31.1996 26.0133 31.2839 26.2168 31.4339 26.3669C31.584 26.5169 31.7874 26.6012 31.9996 26.6012Z" fill="white"/>
</g>
<path d="M27.1957 35.0926V36.098H23.9301V35.0926H27.1957ZM24.3125 32.5445V38.8008H23.0234V32.5445H24.3125ZM28.1152 32.5445V38.8008H26.8305V32.5445H28.1152ZM31.2992 38.8867C30.9383 38.8867 30.6146 38.8294 30.3281 38.7148C30.0417 38.5974 29.7982 38.4355 29.5977 38.2293C29.4 38.023 29.2482 37.7839 29.1422 37.5117C29.0362 37.2367 28.9832 36.9445 28.9832 36.6352V36.4633C28.9832 36.1109 29.0333 35.7887 29.1336 35.4965C29.2339 35.2043 29.3771 34.9508 29.5633 34.7359C29.7523 34.5211 29.9815 34.3564 30.2508 34.2418C30.5201 34.1243 30.8237 34.0656 31.1617 34.0656C31.4911 34.0656 31.7833 34.1201 32.0383 34.2289C32.2932 34.3378 32.5066 34.4924 32.6785 34.693C32.8533 34.8935 32.985 35.1341 33.0738 35.4148C33.1626 35.6927 33.207 36.0021 33.207 36.343V36.8586H29.5117V36.0336H31.991V35.9391C31.991 35.7672 31.9595 35.6139 31.8965 35.4793C31.8363 35.3418 31.7447 35.2329 31.6215 35.1527C31.4983 35.0725 31.3408 35.0324 31.1488 35.0324C30.9855 35.0324 30.8452 35.0682 30.7277 35.1398C30.6103 35.2115 30.5143 35.3117 30.4398 35.4406C30.3682 35.5695 30.3138 35.7214 30.2766 35.8961C30.2422 36.068 30.225 36.257 30.225 36.4633V36.6352C30.225 36.8214 30.2508 36.9932 30.3023 37.1508C30.3568 37.3083 30.4327 37.4444 30.5301 37.559C30.6303 37.6736 30.7507 37.7624 30.891 37.8254C31.0342 37.8884 31.1961 37.9199 31.3766 37.9199C31.6 37.9199 31.8077 37.877 31.9996 37.791C32.1944 37.7022 32.362 37.569 32.5023 37.3914L33.1039 38.0445C33.0065 38.1849 32.8733 38.3195 32.7043 38.4484C32.5382 38.5773 32.3376 38.6833 32.1027 38.7664C31.8678 38.8466 31.6 38.8867 31.2992 38.8867ZM35.218 32.2008V38.8008H33.9762V32.2008H35.218ZM37.4781 35.0453V40.5883H36.2406V34.1516H37.3879L37.4781 35.0453ZM40.4215 36.4246V36.5148C40.4215 36.8529 40.3814 37.1665 40.3012 37.4559C40.2238 37.7452 40.1092 37.9973 39.9574 38.2121C39.8056 38.4241 39.6165 38.5902 39.3902 38.7105C39.1668 38.828 38.909 38.8867 38.6168 38.8867C38.3332 38.8867 38.0868 38.8294 37.8777 38.7148C37.6686 38.6003 37.4924 38.4398 37.3492 38.2336C37.2089 38.0245 37.0957 37.7824 37.0098 37.5074C36.9238 37.2324 36.8579 36.9374 36.8121 36.6223V36.3859C36.8579 36.0479 36.9238 35.7385 37.0098 35.4578C37.0957 35.1742 37.2089 34.9293 37.3492 34.723C37.4924 34.5139 37.6672 34.3521 37.8734 34.2375C38.0826 34.1229 38.3275 34.0656 38.6082 34.0656C38.9033 34.0656 39.1625 34.1215 39.3859 34.2332C39.6122 34.3449 39.8013 34.5053 39.9531 34.7145C40.1078 34.9236 40.2238 35.1728 40.3012 35.4621C40.3814 35.7514 40.4215 36.0723 40.4215 36.4246ZM39.1797 36.5148V36.4246C39.1797 36.227 39.1625 36.0451 39.1281 35.8789C39.0966 35.7099 39.0451 35.5624 38.9734 35.4363C38.9047 35.3103 38.813 35.2129 38.6984 35.1441C38.5867 35.0725 38.4507 35.0367 38.2902 35.0367C38.1212 35.0367 37.9766 35.0639 37.8562 35.1184C37.7388 35.1728 37.6428 35.2516 37.5684 35.3547C37.4939 35.4578 37.438 35.581 37.4008 35.7242C37.3635 35.8674 37.3406 36.0293 37.332 36.2098V36.807C37.3464 37.019 37.3865 37.2095 37.4523 37.3785C37.5182 37.5447 37.6199 37.6764 37.7574 37.7738C37.8949 37.8712 38.0754 37.9199 38.2988 37.9199C38.4621 37.9199 38.5996 37.8841 38.7113 37.8125C38.823 37.738 38.9133 37.6363 38.982 37.5074C39.0536 37.3785 39.1038 37.2296 39.1324 37.0605C39.1639 36.8915 39.1797 36.7096 39.1797 36.5148Z" fill="white"/>
</g>
<defs>
<filter id="filter0_d_278_5811" x="0" y="0.601562" width="64" height="64" filterUnits="userSpaceOnUse" color-interpolation-filters="sRGB">
<feFlood flood-opacity="0" result="BackgroundImageFix"/>
<feColorMatrix in="SourceAlpha" type="matrix" values="0 0 0 0 0 0 0 0 0 0 0 0 0 0 0 0 0 0 127 0" result="hardAlpha"/>
<feOffset dy="4"/>
<feGaussianBlur stdDeviation="6"/>
<feComposite in2="hardAlpha" operator="out"/>
<feColorMatrix type="matrix" values="0 0 0 0 0.0627451 0 0 0 0 0.117647 0 0 0 0 0.211765 0 0 0 0.15 0"/>
<feBlend mode="normal" in2="BackgroundImageFix" result="effect1_dropShadow_278_5811"/>
<feBlend mode="normal" in="SourceGraphic" in2="effect1_dropShadow_278_5811" result="shape"/>
</filter>
<clipPath id="clip0_278_5811">
<rect width="12.8" height="12.8" fill="white" transform="translate(25.5996 16.2012)"/>
</clipPath>
</defs>
</svg>
