<svg width="60" height="60" viewBox="0 0 60 60" fill="none" xmlns="http://www.w3.org/2000/svg">
<rect x="1.44041" y="0.916968" width="57.5152" height="57.5152" rx="28.7576" stroke="white" stroke-opacity="0.25" stroke-width="1.17378"/>
<path d="M30.198 21.9822C32.687 21.9822 33.0264 21.9822 34.0446 21.9822C34.9497 21.9822 35.4022 22.2085 35.7416 22.3216C36.1941 22.5479 36.5336 22.661 36.873 23.0004C37.2124 23.3398 37.4386 23.6792 37.5518 24.1318C37.6649 24.4712 37.778 24.9237 37.8912 25.8288C37.8912 26.847 37.8912 27.0733 37.8912 29.6754C37.8912 32.2775 37.8912 32.5038 37.8912 33.522C37.8912 34.4271 37.6649 34.8796 37.5518 35.219C37.3255 35.6716 37.2124 36.011 36.873 36.3504C36.5336 36.6898 36.1941 36.9161 35.7416 37.0292C35.4022 37.1423 34.9497 37.2555 34.0446 37.3686C33.0264 37.3686 32.8001 37.3686 30.198 37.3686C27.5959 37.3686 27.3696 37.3686 26.3514 37.3686C25.4463 37.3686 24.9937 37.1423 24.6543 37.0292C24.2018 36.8029 23.8624 36.6898 23.523 36.3504C23.1836 36.011 22.9573 35.6716 22.8442 35.219C22.731 34.8796 22.6179 34.4271 22.5048 33.522C22.5048 32.5038 22.5048 32.2775 22.5048 29.6754C22.5048 27.0733 22.5048 26.847 22.5048 25.8288C22.5048 24.9237 22.731 24.4712 22.8442 24.1318C23.0704 23.6792 23.1836 23.3398 23.523 23.0004C23.8624 22.661 24.2018 22.4347 24.6543 22.3216C24.9937 22.2085 25.4463 22.0953 26.3514 21.9822C27.3696 21.9822 27.709 21.9822 30.198 21.9822ZM30.198 20.2852C27.5959 20.2852 27.3696 20.2852 26.3514 20.2852C25.3332 20.2852 24.6543 20.5114 24.0887 20.7377C23.523 20.964 22.9573 21.3034 22.3916 21.8691C21.826 22.4347 21.5997 22.8873 21.2603 23.5661C21.034 24.1318 20.9209 24.8106 20.8077 25.8288C20.8077 26.847 20.8077 27.1864 20.8077 29.6754C20.8077 32.2775 20.8077 32.5038 20.8077 33.522C20.8077 34.5402 21.034 35.219 21.2603 35.7847C21.4866 36.3504 21.826 36.9161 22.3916 37.4817C22.9573 38.0474 23.4099 38.2737 24.0887 38.6131C24.6543 38.8394 25.3332 38.9525 26.3514 39.0656C27.3696 39.0656 27.709 39.0656 30.198 39.0656C32.687 39.0656 33.0264 39.0656 34.0446 39.0656C35.0628 39.0656 35.7416 38.8394 36.3073 38.6131C36.873 38.3868 37.4386 38.0474 38.0043 37.4817C38.57 36.9161 38.7963 36.4635 39.1357 35.7847C39.3619 35.219 39.4751 34.5402 39.5882 33.522C39.5882 32.5038 39.5882 32.1644 39.5882 29.6754C39.5882 27.1864 39.5882 26.847 39.5882 25.8288C39.5882 24.8106 39.3619 24.1318 39.1357 23.5661C38.9094 23.0004 38.57 22.4347 38.0043 21.8691C37.4386 21.3034 36.9861 21.0771 36.3073 20.7377C35.7416 20.5114 35.0628 20.3983 34.0446 20.2852C33.0264 20.2852 32.8001 20.2852 30.198 20.2852Z" fill="white"/>
<path d="M30.198 24.8106C27.4827 24.8106 25.3332 26.9601 25.3332 29.6754C25.3332 32.3906 27.4827 34.5402 30.198 34.5402C32.9132 34.5402 35.0628 32.3906 35.0628 29.6754C35.0628 26.9601 32.9132 24.8106 30.198 24.8106ZM30.198 32.8432C28.5009 32.8432 27.0302 31.4856 27.0302 29.6754C27.0302 27.9784 28.3878 26.5076 30.198 26.5076C31.895 26.5076 33.3658 27.8652 33.3658 29.6754C33.3658 31.3724 31.895 32.8432 30.198 32.8432Z" fill="white"/>
<path d="M35.1759 25.8288C35.8008 25.8288 36.3073 25.3223 36.3073 24.6974C36.3073 24.0726 35.8008 23.5661 35.1759 23.5661C34.5511 23.5661 34.0446 24.0726 34.0446 24.6974C34.0446 25.3223 34.5511 25.8288 35.1759 25.8288Z" fill="white"/>
</svg>
