<svg width="750" height="300" viewBox="0 0 750 300" fill="none" xmlns="http://www.w3.org/2000/svg">
<rect x="99.4248" y="203" width="280.033" height="200" rx="15" fill="#263238"/>
<mask id="mask0_125_9822" style="mask-type:alpha" maskUnits="userSpaceOnUse" x="-82" y="2" width="829" height="453">
<rect width="784.62" height="306.869" rx="15" transform="matrix(0.979753 0.200212 -0.210209 0.977656 -19.6797 0)" fill="white"/>
</mask>
<g mask="url(#mask0_125_9822)">
<path d="M-123.861 164.057L-99.1074 165.459C-97.3035 165.561 -95.5771 166.201 -94.1522 167.296L-65.0814 189.636C-63.3328 190.98 -61.1421 191.63 -58.9284 191.462L19.6741 185.495C21.5707 185.351 23.4588 185.807 25.069 186.798L66.5057 212.302C68.2522 213.377 70.3215 213.82 72.3687 213.557L134.407 205.597C135.163 205.5 135.928 205.499 136.683 205.593L192.638 212.587C193.597 212.707 194.57 212.672 195.521 212.484L242.49 203.189C243.889 202.912 245.331 202.968 246.698 203.354L295.345 217.059C296.536 217.395 297.786 217.481 299.017 217.313L361.096 208.843C362.741 208.618 364.412 208.849 365.926 209.51L416.072 231.417C417.696 232.127 419.499 232.34 421.254 232.03L491.255 219.66C495.155 218.971 499.027 220.888 500.805 224.388L526.714 275.387C528.514 278.928 532.452 280.844 536.388 280.092L600.072 267.929C602.954 267.379 605.912 268.254 608.004 270.277L643.51 304.607" stroke="#F5F5F5" stroke-width="1.5"/>
<path d="M-39.0439 210.392L-51.7136 210.985C-55.3776 211.156 -58.4811 213.78 -59.2503 217.358L-78.8676 308.596C-79.7964 312.915 -77.0401 317.134 -72.7113 318.018L231.905 380.266L536.52 442.514C540.849 443.399 545.111 440.614 546.04 436.295L571.077 319.853C571.495 317.907 571.171 315.883 570.169 314.175L547.231 275.095C545.185 271.609 540.825 270.229 537.094 271.885L487.566 293.87C482.955 295.917 477.651 293.294 476.541 288.417L461.663 223.036C460.567 218.219 455.369 215.586 450.777 217.523L394.838 241.116C392.425 242.133 389.676 241.921 387.472 240.547L350.915 217.76C348.842 216.468 346.279 216.199 343.962 217.031L293.111 235.279C291.392 235.896 289.519 235.913 287.8 235.328L251.007 222.801C249.072 222.142 246.951 222.249 245.079 223.1L205.995 240.866C204.774 241.421 203.435 241.664 202.102 241.573L157.311 238.526C156.232 238.453 155.147 238.598 154.122 238.952L103.333 256.528C100.472 257.518 97.3103 256.828 95.1536 254.743L66.1473 226.703C64.1478 224.77 61.2709 224.026 58.5579 224.739L-4.42584 241.299C-7.52053 242.112 -10.7878 241.023 -12.7428 238.527L-32.404 213.421C-33.9872 211.399 -36.4596 210.271 -39.0439 210.392Z" fill="url(#paint0_linear_125_9822)"/>
<path d="M-58.0446 211.75L-39.6746 210.87C-36.7562 210.73 -33.9638 212.006 -32.1813 214.293L-13.2742 238.556C-11.073 241.38 -7.38132 242.611 -3.88796 241.686L57.901 225.315C60.9643 224.504 64.2157 225.346 66.4696 227.534L94.587 254.834C97.018 257.194 100.591 257.974 103.82 256.849L153.837 239.424C154.994 239.021 156.218 238.855 157.436 238.938L201.761 241.925C203.266 242.026 204.776 241.75 206.153 241.12L244.653 223.515C246.766 222.549 249.162 222.426 251.347 223.171L287.399 235.47C289.341 236.133 291.457 236.111 293.398 235.41L343.462 217.325C346.079 216.38 348.975 216.683 351.315 218.147L386.975 240.453C389.463 242.009 392.569 242.247 395.292 241.092L449.647 218.026C454.822 215.83 460.69 218.8 461.916 224.236L476.204 287.561C477.446 293.065 483.433 296.025 488.63 293.704L536.211 272.455C540.419 270.576 545.344 272.135 547.644 276.076L571.648 317.197" stroke="#FF3444" stroke-width="1.5"/>
</g>
<defs>
<linearGradient id="paint0_linear_125_9822" x1="274.652" y1="143.927" x2="232.555" y2="399.537" gradientUnits="userSpaceOnUse">
<stop stop-color="#182023"/>
<stop offset="1" stop-color="#263238"/>
</linearGradient>
</defs>
</svg>
