<svg width="241" height="451" viewBox="0 0 241 451" fill="none" xmlns="http://www.w3.org/2000/svg">
<rect x="1.51367" y="262.5" width="272.93" height="253" rx="18.5" stroke="white" stroke-width="3"/>
<rect x="26.6836" y="325" width="280.033" height="200" rx="15" fill="white"/>
<mask id="mask0_125_9832" style="mask-type:alpha" maskUnits="userSpaceOnUse" x="26" y="325" width="281" height="200">
<rect x="26.6836" y="325" width="280.033" height="200" rx="15" fill="white"/>
</mask>
<g mask="url(#mask0_125_9832)">
<path d="M-13.3206 443.358L-4.72009 441.556C-2.29748 441.049 0.227157 441.562 2.25989 442.974L12.675 450.21C15.1791 451.95 18.3939 452.304 21.2163 451.149L50.0145 439.374C52.4649 438.373 55.232 438.5 57.5797 439.724L73.3271 447.929C75.8658 449.252 78.8824 449.288 81.4522 448.027L104.66 436.633C105.594 436.175 106.6 435.882 107.634 435.767L130.857 433.191C132.15 433.048 133.397 432.626 134.512 431.954L151.766 421.551C153.443 420.54 155.403 420.104 157.35 420.308L176.514 422.314C178.229 422.494 179.96 422.177 181.501 421.401L204.625 409.75C206.693 408.708 209.084 408.503 211.3 409.179L230.891 415.155C233.257 415.876 235.815 415.592 237.965 414.37L260.661 401.469C264.997 399.004 270.51 400.535 272.954 404.882L284.238 424.953C286.712 429.354 292.321 430.859 296.666 428.288L315.006 417.437C318.401 415.429 322.708 415.865 325.631 418.513L341.593 432.974" stroke="#F5F5F5" stroke-width="1.5"/>
<path d="M40.3366 472.895L34.121 465.388C32.0505 462.888 28.6313 461.96 25.5808 463.07C22.5479 464.174 20.5293 467.057 20.5293 470.285V527C20.5293 531.418 24.111 535 28.5293 535H165.674H302.819C307.238 535 310.819 531.418 310.819 527V452.471C310.819 450.952 310.387 449.465 309.573 448.182L299.173 431.804C296.403 427.442 290.286 426.811 286.683 430.515L276.856 440.622C272.654 444.944 265.363 443.242 263.509 437.507L255.05 411.357C253.217 405.689 246.053 403.941 241.816 408.128L227.485 422.289C224.998 424.746 221.203 425.304 218.115 423.666L206.298 417.401C203.365 415.846 199.777 416.263 197.28 418.451L180.852 432.838C179.017 434.445 176.549 435.127 174.149 434.69L161.913 432.463C159.265 431.981 156.551 432.863 154.693 434.811L141.825 448.297C140.677 449.499 139.184 450.315 137.551 450.629L120.255 453.964C118.896 454.226 117.629 454.836 116.576 455.734L100.053 469.834C96.9934 472.445 92.4707 472.378 89.4895 469.678L80.2573 461.316C77.4743 458.795 73.3127 458.549 70.2521 460.724L51.1329 474.313C47.7179 476.74 43.0087 476.122 40.3366 472.895Z" fill="url(#paint0_linear_125_9832)"/>
<path d="M20.5293 465.225L24.6835 463.706C28.2693 462.394 32.2925 463.488 34.7207 466.434L39.7347 472.519C42.7424 476.168 48.0619 476.868 51.9106 474.119L69.5785 461.501C73.0289 459.037 77.7311 459.316 80.8668 462.169L88.8225 469.41C92.1812 472.467 97.291 472.542 100.739 469.586L116.374 456.18C117.559 455.163 118.988 454.473 120.52 454.176L137.231 450.939C139.071 450.582 140.754 449.66 142.045 448.301L154.316 435.38C156.409 433.176 159.472 432.177 162.461 432.724L173.657 434.772C176.367 435.267 179.154 434.495 181.222 432.675L196.749 419.011C199.563 416.534 203.618 416.061 206.927 417.824L217.445 423.428C220.929 425.284 225.216 424.653 228.018 421.871L240.641 409.338C245.408 404.605 253.492 406.573 255.55 412.967L262.998 436.105C265.08 442.574 273.306 444.49 278.032 439.606L285.783 431.597C289.838 427.407 296.744 428.119 299.859 433.047L310.819 450.391" stroke="#4681D9" stroke-width="1.5"/>
</g>
<g clip-path="url(#clip0_125_9832)">
<path d="M88.5575 376.179C87.5073 380 85.3185 383.431 82.2679 386.04C79.2173 388.648 75.4419 390.315 71.4191 390.832C67.3963 391.348 63.3068 390.69 59.6677 388.94C56.0286 387.191 53.0034 384.428 50.9746 381.003C48.9459 377.577 48.0047 373.642 48.27 369.695C48.5354 365.747 49.9954 361.966 52.4655 358.827C54.9356 355.689 58.3047 353.336 62.1469 352.064C65.9891 350.793 70.1318 350.66 74.051 351.684C79.3066 353.057 83.7875 356.409 86.508 361.003C89.2285 365.596 89.9657 371.056 88.5575 376.179Z" fill="#F7931A"/>
<path fill-rule="evenodd" clip-rule="evenodd" d="M63.3508 361.134L67.6339 362.252L68.5912 358.773L70.7328 359.34L69.8128 362.675L71.5596 363.132L72.4813 359.761L74.6602 360.329L73.7215 363.719C73.7215 363.719 77.2795 364.487 78.1165 367.308C78.9535 370.129 76.2765 371.611 75.4497 371.667C75.4497 371.667 78.5672 373.334 77.4964 376.612C76.4256 379.891 73.1387 380.477 69.6806 379.726L68.742 383.241L66.5632 382.672L67.5204 379.212L65.7922 378.753L64.835 382.238L62.6731 381.672L63.632 378.203L59.2354 377.047L60.3434 374.648C60.3434 374.648 61.5836 374.979 62.053 375.088C62.5223 375.197 62.8239 374.721 62.956 374.245C63.0882 373.77 65.079 365.886 65.267 365.237C65.4551 364.588 65.3788 364.08 64.5893 363.881C63.7998 363.681 62.7256 363.369 62.7256 363.369L63.3508 361.134ZM67.6712 371.574L66.4852 376.171C66.4852 376.171 72.3661 378.241 73.1184 375.329C73.8706 372.417 67.6712 371.574 67.6712 371.574ZM68.2168 369.394L69.3808 365.182C69.3808 365.182 74.4162 366.061 73.7961 368.405C73.176 370.749 70.2076 369.85 68.2168 369.394Z" fill="white"/>
</g>
<rect x="239.016" y="-9.86133" width="43.0819" height="18.2668" rx="5" fill="#3EBA59"/>
<path d="M106.854 354.909C106.799 354.441 106.574 354.078 106.18 353.82C105.786 353.561 105.303 353.432 104.73 353.432C104.312 353.432 103.946 353.5 103.632 353.635C103.321 353.77 103.078 353.957 102.902 354.194C102.73 354.431 102.644 354.7 102.644 355.001C102.644 355.254 102.704 355.471 102.824 355.652C102.947 355.831 103.104 355.98 103.295 356.1C103.485 356.217 103.685 356.314 103.895 356.391C104.104 356.465 104.296 356.525 104.472 356.571L105.432 356.83C105.678 356.894 105.952 356.983 106.254 357.097C106.558 357.211 106.849 357.367 107.126 357.564C107.406 357.757 107.637 358.007 107.819 358.311C108 358.616 108.091 358.99 108.091 359.433C108.091 359.944 107.957 360.406 107.689 360.818C107.425 361.231 107.037 361.558 106.526 361.801C106.018 362.045 105.401 362.166 104.675 362.166C103.998 362.166 103.412 362.057 102.916 361.838C102.424 361.62 102.036 361.315 101.753 360.924C101.473 360.533 101.314 360.08 101.277 359.562H102.459C102.49 359.92 102.61 360.215 102.819 360.449C103.031 360.68 103.299 360.852 103.622 360.966C103.949 361.077 104.299 361.132 104.675 361.132C105.112 361.132 105.504 361.061 105.852 360.92C106.2 360.775 106.475 360.575 106.678 360.32C106.882 360.061 106.983 359.759 106.983 359.415C106.983 359.101 106.895 358.845 106.72 358.648C106.545 358.451 106.314 358.291 106.028 358.168C105.741 358.045 105.432 357.937 105.1 357.845L103.936 357.513C103.198 357.3 102.613 356.997 102.182 356.603C101.751 356.209 101.536 355.694 101.536 355.057C101.536 354.527 101.679 354.066 101.965 353.672C102.254 353.275 102.642 352.967 103.128 352.749C103.618 352.527 104.164 352.416 104.767 352.416C105.377 352.416 105.918 352.525 106.392 352.744C106.866 352.959 107.242 353.255 107.519 353.63C107.799 354.006 107.946 354.432 107.962 354.909H106.854ZM114.295 359.101V354.909H115.384V362H114.295V360.8H114.221C114.054 361.16 113.796 361.466 113.445 361.718C113.094 361.968 112.651 362.092 112.116 362.092C111.672 362.092 111.278 361.995 110.934 361.801C110.589 361.605 110.318 361.309 110.121 360.915C109.924 360.518 109.826 360.018 109.826 359.415V354.909H110.915V359.341C110.915 359.858 111.06 360.27 111.349 360.578C111.642 360.886 112.014 361.04 112.466 361.04C112.737 361.04 113.013 360.971 113.293 360.832C113.576 360.694 113.813 360.481 114.004 360.195C114.198 359.909 114.295 359.544 114.295 359.101ZM117.379 364.659V354.909H118.432V356.036H118.561C118.641 355.912 118.752 355.755 118.894 355.565C119.038 355.371 119.245 355.198 119.512 355.048C119.783 354.894 120.149 354.817 120.611 354.817C121.208 354.817 121.734 354.966 122.19 355.265C122.645 355.563 123.001 355.986 123.256 356.534C123.512 357.082 123.639 357.728 123.639 358.473C123.639 359.224 123.512 359.875 123.256 360.426C123.001 360.974 122.647 361.398 122.194 361.7C121.742 361.998 121.22 362.148 120.629 362.148C120.174 362.148 119.809 362.072 119.535 361.922C119.261 361.768 119.051 361.594 118.903 361.4C118.755 361.203 118.641 361.04 118.561 360.911H118.469V364.659H117.379ZM118.451 358.455C118.451 358.99 118.529 359.462 118.686 359.872C118.843 360.278 119.072 360.597 119.374 360.827C119.675 361.055 120.045 361.169 120.482 361.169C120.937 361.169 121.317 361.049 121.622 360.809C121.93 360.566 122.161 360.24 122.314 359.83C122.471 359.418 122.55 358.959 122.55 358.455C122.55 357.956 122.473 357.507 122.319 357.107C122.168 356.703 121.939 356.385 121.631 356.151C121.327 355.914 120.943 355.795 120.482 355.795C120.039 355.795 119.666 355.908 119.365 356.132C119.063 356.354 118.835 356.665 118.681 357.065C118.527 357.462 118.451 357.925 118.451 358.455ZM125.301 364.659V354.909H126.354V356.036H126.483C126.563 355.912 126.674 355.755 126.816 355.565C126.96 355.371 127.166 355.198 127.434 355.048C127.705 354.894 128.071 354.817 128.533 354.817C129.13 354.817 129.656 354.966 130.112 355.265C130.567 355.563 130.923 355.986 131.178 356.534C131.434 357.082 131.561 357.728 131.561 358.473C131.561 359.224 131.434 359.875 131.178 360.426C130.923 360.974 130.569 361.398 130.116 361.7C129.664 361.998 129.142 362.148 128.551 362.148C128.096 362.148 127.731 362.072 127.457 361.922C127.183 361.768 126.973 361.594 126.825 361.4C126.677 361.203 126.563 361.04 126.483 360.911H126.391V364.659H125.301ZM126.372 358.455C126.372 358.99 126.451 359.462 126.608 359.872C126.765 360.278 126.994 360.597 127.296 360.827C127.597 361.055 127.967 361.169 128.404 361.169C128.859 361.169 129.239 361.049 129.544 360.809C129.852 360.566 130.082 360.24 130.236 359.83C130.393 359.418 130.472 358.959 130.472 358.455C130.472 357.956 130.395 357.507 130.241 357.107C130.09 356.703 129.861 356.385 129.553 356.151C129.248 355.914 128.865 355.795 128.404 355.795C127.96 355.795 127.588 355.908 127.286 356.132C126.985 356.354 126.757 356.665 126.603 357.065C126.449 357.462 126.372 357.925 126.372 358.455ZM136.104 362.148C135.464 362.148 134.902 361.995 134.419 361.691C133.939 361.386 133.563 360.96 133.292 360.412C133.025 359.864 132.891 359.224 132.891 358.491C132.891 357.753 133.025 357.108 133.292 356.557C133.563 356.006 133.939 355.578 134.419 355.274C134.902 354.969 135.464 354.817 136.104 354.817C136.744 354.817 137.304 354.969 137.784 355.274C138.268 355.578 138.643 356.006 138.911 356.557C139.182 357.108 139.317 357.753 139.317 358.491C139.317 359.224 139.182 359.864 138.911 360.412C138.643 360.96 138.268 361.386 137.784 361.691C137.304 361.995 136.744 362.148 136.104 362.148ZM136.104 361.169C136.59 361.169 136.99 361.044 137.304 360.795C137.618 360.546 137.85 360.218 138.001 359.812C138.152 359.406 138.227 358.965 138.227 358.491C138.227 358.018 138.152 357.576 138.001 357.167C137.85 356.757 137.618 356.426 137.304 356.174C136.99 355.922 136.59 355.795 136.104 355.795C135.618 355.795 135.218 355.922 134.904 356.174C134.59 356.426 134.357 356.757 134.207 357.167C134.056 357.576 133.98 358.018 133.98 358.491C133.98 358.965 134.056 359.406 134.207 359.812C134.357 360.218 134.59 360.546 134.904 360.795C135.218 361.044 135.618 361.169 136.104 361.169ZM140.98 362V354.909H142.033V355.98H142.106C142.236 355.629 142.47 355.345 142.808 355.126C143.147 354.908 143.528 354.798 143.953 354.798C144.033 354.798 144.133 354.8 144.253 354.803C144.373 354.806 144.464 354.811 144.526 354.817V355.925C144.489 355.915 144.404 355.902 144.272 355.883C144.142 355.862 144.005 355.851 143.861 355.851C143.516 355.851 143.208 355.923 142.937 356.068C142.67 356.209 142.457 356.406 142.3 356.659C142.146 356.908 142.07 357.193 142.07 357.513V362H140.98ZM149.345 354.909V355.832H145.67V354.909H149.345ZM146.741 353.21H147.831V359.969C147.831 360.277 147.876 360.507 147.965 360.661C148.057 360.812 148.174 360.914 148.316 360.966C148.46 361.015 148.613 361.04 148.773 361.04C148.893 361.04 148.991 361.034 149.068 361.021C149.145 361.006 149.207 360.994 149.253 360.984L149.474 361.963C149.401 361.991 149.297 362.018 149.165 362.046C149.033 362.077 148.865 362.092 148.662 362.092C148.354 362.092 148.053 362.026 147.757 361.894C147.465 361.761 147.222 361.56 147.028 361.289C146.837 361.018 146.741 360.677 146.741 360.264V353.21ZM153.881 362.148C153.198 362.148 152.608 361.997 152.113 361.695C151.62 361.391 151.24 360.966 150.972 360.421C150.708 359.873 150.575 359.236 150.575 358.51C150.575 357.784 150.708 357.143 150.972 356.589C151.24 356.032 151.613 355.598 152.09 355.288C152.57 354.974 153.13 354.817 153.77 354.817C154.139 354.817 154.504 354.878 154.864 355.001C155.224 355.125 155.552 355.325 155.847 355.602C156.143 355.875 156.378 356.239 156.554 356.691C156.729 357.143 156.817 357.701 156.817 358.362V358.824H151.351V357.882H155.709C155.709 357.482 155.629 357.125 155.469 356.811C155.312 356.497 155.087 356.249 154.795 356.068C154.506 355.886 154.164 355.795 153.77 355.795C153.336 355.795 152.961 355.903 152.644 356.119C152.33 356.331 152.088 356.608 151.919 356.95C151.75 357.291 151.665 357.657 151.665 358.048V358.676C151.665 359.212 151.757 359.666 151.942 360.038C152.13 360.407 152.39 360.689 152.722 360.883C153.054 361.074 153.441 361.169 153.881 361.169C154.167 361.169 154.426 361.129 154.656 361.049C154.89 360.966 155.092 360.843 155.261 360.68C155.43 360.513 155.561 360.307 155.654 360.061L156.706 360.357C156.595 360.714 156.409 361.027 156.148 361.298C155.886 361.566 155.563 361.775 155.178 361.926C154.793 362.074 154.361 362.148 153.881 362.148ZM161.152 362.148C160.561 362.148 160.039 361.998 159.587 361.7C159.134 361.398 158.78 360.974 158.525 360.426C158.27 359.875 158.142 359.224 158.142 358.473C158.142 357.728 158.27 357.082 158.525 356.534C158.78 355.986 159.136 355.563 159.591 355.265C160.047 354.966 160.573 354.817 161.17 354.817C161.632 354.817 161.997 354.894 162.264 355.048C162.535 355.198 162.741 355.371 162.883 355.565C163.028 355.755 163.14 355.912 163.22 356.036H163.312V352.545H164.402V362H163.349V360.911H163.22C163.14 361.04 163.026 361.203 162.878 361.4C162.731 361.594 162.52 361.768 162.246 361.922C161.972 362.072 161.607 362.148 161.152 362.148ZM161.299 361.169C161.737 361.169 162.106 361.055 162.407 360.827C162.709 360.597 162.938 360.278 163.095 359.872C163.252 359.462 163.331 358.99 163.331 358.455C163.331 357.925 163.254 357.462 163.1 357.065C162.946 356.665 162.718 356.354 162.417 356.132C162.115 355.908 161.743 355.795 161.299 355.795C160.838 355.795 160.453 355.914 160.145 356.151C159.841 356.385 159.611 356.703 159.458 357.107C159.307 357.507 159.231 357.956 159.231 358.455C159.231 358.959 159.308 359.418 159.462 359.83C159.619 360.24 159.85 360.566 160.155 360.809C160.462 361.049 160.844 361.169 161.299 361.169Z" fill="#797979"/>
<path d="M106.519 387.818V369.636H107.683V387.818H106.519ZM109.878 375.453C109.812 374.833 109.532 374.35 109.04 374.004C108.552 373.659 107.918 373.486 107.137 373.486C106.587 373.486 106.116 373.569 105.723 373.734C105.33 373.9 105.03 374.125 104.821 374.409C104.613 374.693 104.506 375.018 104.502 375.382C104.502 375.685 104.57 375.948 104.708 376.17C104.85 376.393 105.041 376.582 105.283 376.739C105.524 376.89 105.792 377.018 106.085 377.122C106.379 377.226 106.675 377.314 106.973 377.385L108.337 377.726C108.886 377.854 109.414 378.027 109.921 378.244C110.432 378.462 110.889 378.737 111.291 379.068C111.699 379.4 112.021 379.8 112.257 380.268C112.494 380.737 112.612 381.286 112.612 381.916C112.612 382.768 112.395 383.519 111.959 384.168C111.523 384.812 110.894 385.316 110.07 385.68C109.251 386.04 108.259 386.22 107.094 386.22C105.962 386.22 104.98 386.045 104.147 385.695C103.318 385.344 102.669 384.833 102.201 384.161C101.736 383.488 101.486 382.669 101.448 381.703H104.04C104.078 382.21 104.234 382.631 104.509 382.967C104.783 383.304 105.141 383.554 105.581 383.72C106.026 383.886 106.523 383.969 107.073 383.969C107.646 383.969 108.147 383.884 108.578 383.713C109.014 383.538 109.355 383.296 109.601 382.989C109.847 382.676 109.973 382.312 109.977 381.895C109.973 381.516 109.861 381.204 109.644 380.957C109.426 380.706 109.12 380.498 108.727 380.332C108.339 380.162 107.885 380.01 107.364 379.878L105.709 379.452C104.511 379.144 103.564 378.678 102.868 378.053C102.177 377.423 101.831 376.587 101.831 375.545C101.831 374.688 102.063 373.938 102.527 373.294C102.996 372.65 103.633 372.151 104.438 371.795C105.243 371.436 106.154 371.256 107.172 371.256C108.204 371.256 109.109 371.436 109.885 371.795C110.666 372.151 111.28 372.645 111.725 373.28C112.17 373.91 112.399 374.634 112.414 375.453H109.878ZM120.146 386.199C119.45 386.194 118.771 386.073 118.108 385.837C117.445 385.595 116.848 385.205 116.318 384.665C115.788 384.12 115.366 383.398 115.054 382.499C114.741 381.594 114.587 380.474 114.592 379.139C114.592 377.894 114.725 376.784 114.99 375.808C115.255 374.833 115.636 374.009 116.133 373.337C116.631 372.66 117.23 372.143 117.93 371.788C118.636 371.433 119.424 371.256 120.295 371.256C121.209 371.256 122.019 371.436 122.724 371.795C123.435 372.155 124.007 372.648 124.443 373.273C124.879 373.893 125.149 374.594 125.253 375.375H122.66C122.528 374.816 122.256 374.371 121.844 374.04C121.436 373.704 120.92 373.536 120.295 373.536C119.287 373.536 118.51 373.973 117.966 374.849C117.426 375.725 117.154 376.928 117.149 378.457H117.248C117.48 378.041 117.781 377.683 118.15 377.385C118.52 377.087 118.936 376.857 119.4 376.696C119.869 376.53 120.364 376.447 120.885 376.447C121.737 376.447 122.502 376.651 123.179 377.058C123.861 377.465 124.4 378.027 124.798 378.741C125.196 379.452 125.392 380.266 125.388 381.185C125.392 382.141 125.175 383 124.734 383.763C124.294 384.52 123.681 385.117 122.895 385.553C122.109 385.988 121.193 386.204 120.146 386.199ZM120.132 384.068C120.648 384.068 121.11 383.943 121.517 383.692C121.924 383.441 122.246 383.102 122.483 382.676C122.72 382.25 122.836 381.772 122.831 381.241C122.836 380.721 122.722 380.25 122.49 379.828C122.263 379.407 121.948 379.073 121.545 378.827C121.143 378.58 120.684 378.457 120.167 378.457C119.784 378.457 119.426 378.531 119.095 378.678C118.764 378.824 118.475 379.028 118.229 379.288C117.982 379.544 117.788 379.842 117.646 380.183C117.509 380.519 117.438 380.879 117.433 381.263C117.438 381.769 117.556 382.236 117.788 382.662C118.02 383.088 118.34 383.429 118.747 383.685C119.154 383.94 119.616 384.068 120.132 384.068ZM130.21 384.011L130.118 384.793C130.051 385.389 129.933 385.995 129.763 386.611C129.597 387.231 129.422 387.802 129.237 388.322C129.052 388.843 128.903 389.253 128.79 389.551H127.057C127.123 389.262 127.213 388.869 127.327 388.372C127.445 387.875 127.559 387.316 127.667 386.696C127.776 386.076 127.85 385.446 127.888 384.807L127.937 384.011H130.21ZM132.799 383.301V381.206L138.971 371.455H140.718V374.438H139.653L135.498 381.021V381.135H144.113V383.301H132.799ZM139.738 386V382.662L139.766 381.724V371.455H142.252V386H139.738ZM152.103 371.455V386H149.468V374.018H149.383L145.981 376.192V373.777L149.596 371.455H152.103ZM161.123 386.199C160.427 386.194 159.747 386.073 159.084 385.837C158.422 385.595 157.825 385.205 157.295 384.665C156.764 384.12 156.343 383.398 156.03 382.499C155.718 381.594 155.564 380.474 155.569 379.139C155.569 377.894 155.701 376.784 155.966 375.808C156.232 374.833 156.613 374.009 157.11 373.337C157.607 372.66 158.206 372.143 158.907 371.788C159.612 371.433 160.401 371.256 161.272 371.256C162.186 371.256 162.995 371.436 163.701 371.795C164.411 372.155 164.984 372.648 165.42 373.273C165.855 373.893 166.125 374.594 166.229 375.375H163.637C163.504 374.816 163.232 374.371 162.82 374.04C162.413 373.704 161.897 373.536 161.272 373.536C160.263 373.536 159.487 373.973 158.942 374.849C158.403 375.725 158.13 376.928 158.126 378.457H158.225C158.457 378.041 158.758 377.683 159.127 377.385C159.496 377.087 159.913 376.857 160.377 376.696C160.846 376.53 161.341 376.447 161.861 376.447C162.714 376.447 163.478 376.651 164.155 377.058C164.837 377.465 165.377 378.027 165.775 378.741C166.172 379.452 166.369 380.266 166.364 381.185C166.369 382.141 166.151 383 165.711 383.763C165.27 384.52 164.657 385.117 163.871 385.553C163.085 385.988 162.169 386.204 161.123 386.199ZM161.109 384.068C161.625 384.068 162.086 383.943 162.493 383.692C162.901 383.441 163.223 383.102 163.459 382.676C163.696 382.25 163.812 381.772 163.807 381.241C163.812 380.721 163.698 380.25 163.466 379.828C163.239 379.407 162.924 379.073 162.522 378.827C162.119 378.58 161.66 378.457 161.144 378.457C160.761 378.457 160.403 378.531 160.072 378.678C159.74 378.824 159.451 379.028 159.205 379.288C158.959 379.544 158.765 379.842 158.623 380.183C158.485 380.519 158.414 380.879 158.41 381.263C158.414 381.769 158.533 382.236 158.765 382.662C158.997 383.088 159.316 383.429 159.724 383.685C160.131 383.94 160.592 384.068 161.109 384.068ZM173.822 386.199C172.875 386.199 172.027 386.021 171.279 385.666C170.531 385.306 169.937 384.814 169.496 384.189C169.061 383.564 168.829 382.849 168.8 382.044H171.357C171.404 382.641 171.663 383.128 172.131 383.507C172.6 383.881 173.163 384.068 173.822 384.068C174.338 384.068 174.797 383.95 175.199 383.713C175.602 383.476 175.919 383.147 176.151 382.726C176.383 382.304 176.497 381.824 176.492 381.284C176.497 380.735 176.381 380.247 176.144 379.821C175.907 379.395 175.583 379.061 175.171 378.82C174.759 378.573 174.286 378.45 173.751 378.45C173.315 378.446 172.886 378.526 172.465 378.692C172.044 378.857 171.71 379.075 171.464 379.345L169.084 378.955L169.844 371.455H178.282V373.656H172.025L171.606 377.513H171.691C171.961 377.196 172.342 376.933 172.834 376.724C173.327 376.511 173.867 376.405 174.454 376.405C175.334 376.405 176.12 376.613 176.812 377.03C177.503 377.442 178.047 378.01 178.445 378.734C178.843 379.459 179.042 380.287 179.042 381.22C179.042 382.181 178.819 383.038 178.374 383.791C177.934 384.539 177.321 385.129 176.535 385.56C175.753 385.986 174.849 386.199 173.822 386.199ZM182.545 386.156C182.114 386.156 181.745 386.005 181.437 385.702C181.129 385.399 180.978 385.029 180.982 384.594C180.978 384.168 181.129 383.803 181.437 383.5C181.745 383.197 182.114 383.045 182.545 383.045C182.962 383.045 183.324 383.197 183.632 383.5C183.944 383.803 184.103 384.168 184.107 384.594C184.103 384.883 184.027 385.145 183.88 385.382C183.738 385.619 183.549 385.808 183.312 385.95C183.08 386.088 182.824 386.156 182.545 386.156ZM191.357 386.199C190.301 386.199 189.364 386.021 188.545 385.666C187.73 385.311 187.091 384.826 186.627 384.21C186.168 383.59 185.94 382.887 185.945 382.101C185.94 381.49 186.073 380.929 186.343 380.418C186.613 379.906 186.977 379.48 187.437 379.139C187.901 378.794 188.417 378.573 188.985 378.479V378.379C188.237 378.214 187.631 377.832 187.167 377.236C186.707 376.634 186.48 375.941 186.485 375.155C186.48 374.407 186.689 373.739 187.11 373.152C187.531 372.565 188.109 372.103 188.843 371.767C189.577 371.426 190.415 371.256 191.357 371.256C192.29 371.256 193.121 371.426 193.85 371.767C194.584 372.103 195.162 372.565 195.583 373.152C196.009 373.739 196.222 374.407 196.222 375.155C196.222 375.941 195.988 376.634 195.519 377.236C195.055 377.832 194.456 378.214 193.722 378.379V378.479C194.29 378.573 194.802 378.794 195.256 379.139C195.716 379.48 196.08 379.906 196.35 380.418C196.625 380.929 196.762 381.49 196.762 382.101C196.762 382.887 196.53 383.59 196.066 384.21C195.602 384.826 194.963 385.311 194.148 385.666C193.339 386.021 192.408 386.199 191.357 386.199ZM191.357 384.168C191.902 384.168 192.375 384.075 192.778 383.891C193.18 383.701 193.493 383.436 193.715 383.095C193.938 382.754 194.051 382.361 194.056 381.916C194.051 381.452 193.931 381.043 193.694 380.688C193.462 380.328 193.142 380.046 192.735 379.842C192.332 379.639 191.873 379.537 191.357 379.537C190.836 379.537 190.372 379.639 189.965 379.842C189.558 380.046 189.236 380.328 188.999 380.688C188.767 381.043 188.654 381.452 188.658 381.916C188.654 382.361 188.762 382.754 188.985 383.095C189.207 383.431 189.52 383.694 189.922 383.884C190.33 384.073 190.808 384.168 191.357 384.168ZM191.357 377.541C191.802 377.541 192.195 377.451 192.536 377.271C192.882 377.091 193.154 376.84 193.353 376.518C193.552 376.196 193.654 375.825 193.658 375.403C193.654 374.987 193.554 374.622 193.36 374.31C193.166 373.992 192.896 373.749 192.55 373.578C192.205 373.403 191.807 373.315 191.357 373.315C190.898 373.315 190.493 373.403 190.143 373.578C189.797 373.749 189.527 373.992 189.333 374.31C189.144 374.622 189.051 374.987 189.056 375.403C189.051 375.825 189.146 376.196 189.34 376.518C189.539 376.836 189.811 377.087 190.157 377.271C190.507 377.451 190.907 377.541 191.357 377.541ZM204.147 371.256C204.843 371.26 205.52 371.384 206.178 371.625C206.841 371.862 207.437 372.25 207.968 372.79C208.498 373.325 208.919 374.042 209.232 374.942C209.544 375.841 209.701 376.954 209.701 378.28C209.705 379.53 209.573 380.647 209.303 381.632C209.038 382.612 208.656 383.441 208.159 384.118C207.662 384.795 207.063 385.311 206.362 385.666C205.662 386.021 204.873 386.199 203.997 386.199C203.079 386.199 202.264 386.019 201.554 385.659C200.849 385.299 200.278 384.807 199.843 384.182C199.407 383.557 199.139 382.842 199.04 382.037H201.632C201.765 382.615 202.035 383.074 202.442 383.415C202.854 383.751 203.372 383.919 203.997 383.919C205.006 383.919 205.782 383.481 206.327 382.605C206.871 381.729 207.144 380.512 207.144 378.955H207.044C206.812 379.371 206.512 379.731 206.142 380.034C205.773 380.332 205.354 380.562 204.885 380.723C204.421 380.884 203.929 380.964 203.408 380.964C202.556 380.964 201.789 380.761 201.107 380.354C200.43 379.946 199.892 379.388 199.495 378.678C199.102 377.967 198.903 377.155 198.898 376.241C198.898 375.295 199.116 374.445 199.551 373.692C199.992 372.934 200.605 372.338 201.391 371.902C202.177 371.462 203.095 371.246 204.147 371.256ZM204.154 373.386C203.642 373.386 203.181 373.512 202.769 373.763C202.361 374.009 202.04 374.345 201.803 374.771C201.571 375.193 201.455 375.664 201.455 376.185C201.46 376.701 201.576 377.17 201.803 377.591C202.035 378.012 202.35 378.346 202.747 378.592C203.15 378.839 203.609 378.962 204.125 378.962C204.509 378.962 204.866 378.888 205.198 378.741C205.529 378.595 205.818 378.391 206.064 378.131C206.315 377.866 206.509 377.565 206.647 377.229C206.789 376.893 206.857 376.537 206.852 376.163C206.852 375.666 206.734 375.207 206.497 374.786C206.265 374.364 205.946 374.026 205.539 373.77C205.136 373.514 204.674 373.386 204.154 373.386Z" fill="#263238"/>
<line x1="3.09131" y1="306.5" x2="406.215" y2="306.5" stroke="white" stroke-width="3"/>
<ellipse cx="29.7608" cy="285" rx="8.20608" ry="8" fill="#5CD29A"/>
<ellipse cx="52.3274" cy="285" rx="8.20608" ry="8" fill="#FFB039"/>
<ellipse cx="74.8941" cy="285" rx="8.20608" ry="8" fill="#FF6868"/>
<defs>
<linearGradient id="paint0_linear_125_9832" x1="154.119" y1="369.829" x2="159.494" y2="534.979" gradientUnits="userSpaceOnUse">
<stop stop-color="#469B59"/>
<stop offset="0.539984" stop-color="#C2FFCF"/>
<stop offset="1" stop-color="white"/>
</linearGradient>
<clipPath id="clip0_125_9832">
<rect width="40.9622" height="40.0699" fill="white" transform="matrix(0.967534 0.252739 -0.265024 0.964242 54.2349 346.508)"/>
</clipPath>
</defs>
</svg>
