<svg width="127" height="49" viewBox="0 0 127 49" fill="none" xmlns="http://www.w3.org/2000/svg">
<path d="M9.18062 13.5857C9.08729 13.3617 8.96129 13.077 8.80262 12.7317C8.65329 12.3864 8.48995 12.013 8.31262 11.6117C8.13529 11.2104 7.94395 10.7997 7.73862 10.3797C7.54262 9.95035 7.35595 9.54902 7.17862 9.17569C7.00129 8.79302 6.83329 8.45235 6.67462 8.15369C6.52529 7.85502 6.40395 7.62635 6.31062 7.46769C6.20795 8.56902 6.12395 9.76369 6.05862 11.0517C5.99329 12.3304 5.93729 13.623 5.89062 14.9297H4.56062C4.59795 14.0897 4.63995 13.245 4.68662 12.3957C4.73329 11.537 4.78462 10.697 4.84062 9.87569C4.90595 9.04502 4.97129 8.23769 5.03662 7.45369C5.11129 6.66969 5.19062 5.92769 5.27462 5.22769H6.46462C6.71662 5.63835 6.98729 6.12369 7.27662 6.68369C7.56595 7.24369 7.85529 7.83169 8.14462 8.44769C8.43395 9.05435 8.71395 9.66569 8.98462 10.2817C9.25529 10.8884 9.50262 11.4437 9.72662 11.9477C9.95062 11.4437 10.198 10.8884 10.4686 10.2817C10.7393 9.66569 11.0193 9.05435 11.3086 8.44769C11.598 7.83169 11.8873 7.24369 12.1766 6.68369C12.466 6.12369 12.7366 5.63835 12.9886 5.22769H14.1786C14.496 8.35435 14.734 11.5884 14.8926 14.9297H13.5626C13.516 13.623 13.46 12.3304 13.3946 11.0517C13.3293 9.76369 13.2453 8.56902 13.1426 7.46769C13.0493 7.62635 12.9233 7.85502 12.7646 8.15369C12.6153 8.45235 12.452 8.79302 12.2746 9.17569C12.0973 9.54902 11.906 9.95035 11.7006 10.3797C11.5046 10.7997 11.318 11.2104 11.1406 11.6117C10.9633 12.013 10.7953 12.3864 10.6366 12.7317C10.4873 13.077 10.366 13.3617 10.2726 13.5857H9.18062ZM23.3639 11.2897C23.3639 11.8684 23.2799 12.391 23.1119 12.8577C22.9439 13.3244 22.7059 13.7257 22.3979 14.0617C22.0993 14.3977 21.7399 14.659 21.3199 14.8457C20.8999 15.023 20.4426 15.1117 19.9479 15.1117C19.4533 15.1117 18.9959 15.023 18.5759 14.8457C18.1559 14.659 17.7919 14.3977 17.4839 14.0617C17.1853 13.7257 16.9519 13.3244 16.7839 12.8577C16.6159 12.391 16.5319 11.8684 16.5319 11.2897C16.5319 10.7204 16.6159 10.2024 16.7839 9.73569C16.9519 9.25969 17.1853 8.85369 17.4839 8.51769C17.7919 8.18169 18.1559 7.92502 18.5759 7.74769C18.9959 7.56102 19.4533 7.46769 19.9479 7.46769C20.4426 7.46769 20.8999 7.56102 21.3199 7.74769C21.7399 7.92502 22.0993 8.18169 22.3979 8.51769C22.7059 8.85369 22.9439 9.25969 23.1119 9.73569C23.2799 10.2024 23.3639 10.7204 23.3639 11.2897ZM22.0059 11.2897C22.0059 10.4684 21.8193 9.81969 21.4459 9.34369C21.0819 8.85835 20.5826 8.61569 19.9479 8.61569C19.3133 8.61569 18.8093 8.85835 18.4359 9.34369C18.0719 9.81969 17.8899 10.4684 17.8899 11.2897C17.8899 12.111 18.0719 12.7644 18.4359 13.2497C18.8093 13.7257 19.3133 13.9637 19.9479 13.9637C20.5826 13.9637 21.0819 13.7257 21.4459 13.2497C21.8193 12.7644 22.0059 12.111 22.0059 11.2897ZM29.8997 9.18969C29.7411 9.05902 29.5124 8.93302 29.2137 8.81169C28.9151 8.69035 28.5884 8.62969 28.2337 8.62969C27.8604 8.62969 27.5384 8.69969 27.2677 8.83969C27.0064 8.97035 26.7917 9.15702 26.6237 9.39969C26.4557 9.63302 26.3344 9.91302 26.2597 10.2397C26.1851 10.5664 26.1477 10.9164 26.1477 11.2897C26.1477 12.139 26.3577 12.797 26.7777 13.2637C27.1977 13.721 27.7577 13.9497 28.4577 13.9497C28.8124 13.9497 29.1064 13.9357 29.3397 13.9077C29.5824 13.8704 29.7691 13.833 29.8997 13.7957V9.18969ZM29.8997 4.28969L31.2017 4.06569V14.7197C30.9031 14.8037 30.5204 14.8877 30.0537 14.9717C29.5871 15.0557 29.0504 15.0977 28.4437 15.0977C27.8837 15.0977 27.3797 15.009 26.9317 14.8317C26.4837 14.6544 26.1011 14.4024 25.7837 14.0757C25.4664 13.749 25.2191 13.3524 25.0417 12.8857C24.8737 12.4097 24.7897 11.8777 24.7897 11.2897C24.7897 10.7297 24.8597 10.2164 24.9997 9.74969C25.1491 9.28302 25.3637 8.88169 25.6437 8.54569C25.9237 8.20969 26.2644 7.94835 26.6657 7.76169C27.0764 7.57502 27.5431 7.48169 28.0657 7.48169C28.4857 7.48169 28.8544 7.53769 29.1717 7.64969C29.4984 7.76169 29.7411 7.86902 29.8997 7.97169V4.28969ZM33.0339 11.3037C33.0339 10.6597 33.1272 10.0997 33.3139 9.62369C33.5006 9.13835 33.7479 8.73702 34.0559 8.41969C34.3639 8.10235 34.7186 7.86435 35.1199 7.70569C35.5212 7.54702 35.9319 7.46769 36.3519 7.46769C37.3319 7.46769 38.0832 7.77569 38.6059 8.39169C39.1286 8.99835 39.3899 9.92702 39.3899 11.1777C39.3899 11.2337 39.3899 11.3084 39.3899 11.4017C39.3899 11.4857 39.3852 11.565 39.3759 11.6397H34.3919C34.4479 12.3957 34.6672 12.9697 35.0499 13.3617C35.4326 13.7537 36.0299 13.9497 36.8419 13.9497C37.2992 13.9497 37.6819 13.9124 37.9899 13.8377C38.3072 13.7537 38.5452 13.6744 38.7039 13.5997L38.8859 14.6917C38.7272 14.7757 38.4472 14.8644 38.0459 14.9577C37.6539 15.051 37.2059 15.0977 36.7019 15.0977C36.0672 15.0977 35.5166 15.0044 35.0499 14.8177C34.5926 14.6217 34.2146 14.3557 33.9159 14.0197C33.6172 13.6837 33.3932 13.287 33.2439 12.8297C33.1039 12.363 33.0339 11.8544 33.0339 11.3037ZM38.0319 10.5897C38.0412 10.0017 37.8919 9.52102 37.5839 9.14769C37.2852 8.76502 36.8699 8.57369 36.3379 8.57369C36.0392 8.57369 35.7732 8.63435 35.5399 8.75569C35.3159 8.86769 35.1246 9.01702 34.9659 9.20369C34.8072 9.39035 34.6812 9.60502 34.5879 9.84769C34.5039 10.0904 34.4479 10.3377 34.4199 10.5897H38.0319ZM43.9482 7.49569C44.0602 7.49569 44.1862 7.50502 44.3262 7.52369C44.4755 7.53302 44.6202 7.55169 44.7602 7.57969C44.9002 7.59835 45.0262 7.62169 45.1382 7.64969C45.2595 7.66835 45.3482 7.68702 45.4042 7.70569L45.1802 8.83969C45.0775 8.80235 44.9049 8.76035 44.6622 8.71369C44.4289 8.65769 44.1255 8.62969 43.7522 8.62969C43.5095 8.62969 43.2669 8.65769 43.0242 8.71369C42.7909 8.76035 42.6369 8.79302 42.5622 8.81169V14.9297H41.2602V7.95769C41.5682 7.84569 41.9509 7.74302 42.4082 7.64969C42.8655 7.54702 43.3789 7.49569 43.9482 7.49569ZM46.6606 7.85969C46.9593 7.78502 47.3559 7.70569 47.8506 7.62169C48.3453 7.53769 48.9146 7.49569 49.5586 7.49569C50.1373 7.49569 50.6179 7.57969 51.0006 7.74769C51.3833 7.90635 51.6866 8.13502 51.9106 8.43369C52.1439 8.72302 52.3073 9.07302 52.4006 9.48369C52.4939 9.89435 52.5406 10.347 52.5406 10.8417V14.9297H51.2386V11.1217C51.2386 10.6737 51.2059 10.291 51.1406 9.97369C51.0846 9.65635 50.9866 9.39969 50.8466 9.20369C50.7066 9.00769 50.5199 8.86769 50.2866 8.78369C50.0533 8.69035 49.7639 8.64369 49.4186 8.64369C49.2786 8.64369 49.1339 8.64835 48.9846 8.65769C48.8353 8.66702 48.6906 8.68102 48.5506 8.69969C48.4199 8.70902 48.2986 8.72302 48.1866 8.74169C48.0839 8.76035 48.0093 8.77435 47.9626 8.78369V14.9297H46.6606V7.85969Z" fill="#263238"/>
<path d="M12.5026 41.3497C9.12262 41.3497 6.54262 40.4097 4.76262 38.5297C3.00262 36.6497 2.12262 33.9797 2.12262 30.5197C2.12262 28.7997 2.39262 27.2697 2.93262 25.9297C3.47262 24.5697 4.21262 23.4297 5.15262 22.5097C6.09262 21.5697 7.21262 20.8597 8.51262 20.3797C9.81262 19.8997 11.2226 19.6597 12.7426 19.6597C13.6226 19.6597 14.4226 19.7297 15.1426 19.8697C15.8626 19.9897 16.4926 20.1397 17.0326 20.3197C17.5726 20.4797 18.0226 20.6497 18.3826 20.8297C18.7426 21.0097 19.0026 21.1497 19.1626 21.2497L17.8126 25.0297C17.1726 24.6897 16.4226 24.3997 15.5626 24.1597C14.7226 23.9197 13.7626 23.7997 12.6826 23.7997C11.9626 23.7997 11.2526 23.9197 10.5526 24.1597C9.87262 24.3997 9.26262 24.7897 8.72262 25.3297C8.20262 25.8497 7.78262 26.5297 7.46262 27.3697C7.14262 28.2097 6.98262 29.2297 6.98262 30.4297C6.98262 31.3897 7.08262 32.2897 7.28262 33.1297C7.50262 33.9497 7.84262 34.6597 8.30262 35.2597C8.78262 35.8597 9.40262 36.3397 10.1626 36.6997C10.9226 37.0397 11.8426 37.2097 12.9226 37.2097C13.6026 37.2097 14.2126 37.1697 14.7526 37.0897C15.2926 37.0097 15.7726 36.9197 16.1926 36.8197C16.6126 36.6997 16.9826 36.5697 17.3026 36.4297C17.6226 36.2897 17.9126 36.1597 18.1726 36.0397L19.4626 39.7897C18.8026 40.1897 17.8726 40.5497 16.6726 40.8697C15.4726 41.1897 14.0826 41.3497 12.5026 41.3497ZM31.6857 29.1097C31.2857 29.0097 30.8157 28.9097 30.2757 28.8097C29.7357 28.6897 29.1557 28.6297 28.5357 28.6297C28.2557 28.6297 27.9157 28.6597 27.5157 28.7197C27.1357 28.7597 26.8457 28.8097 26.6457 28.8697V40.9297H22.1757V25.9897C22.9757 25.7097 23.9157 25.4497 24.9957 25.2097C26.0957 24.9497 27.3157 24.8197 28.6557 24.8197C28.8957 24.8197 29.1857 24.8397 29.5257 24.8797C29.8657 24.8997 30.2057 24.9397 30.5457 24.9997C30.8857 25.0397 31.2257 25.0997 31.5657 25.1797C31.9057 25.2397 32.1957 25.3197 32.4357 25.4197L31.6857 29.1097ZM49.7795 25.1497C48.8795 28.1897 47.9395 31.0397 46.9595 33.6997C45.9795 36.3597 44.9095 38.9397 43.7495 41.4397C43.3295 42.3397 42.9095 43.0997 42.4895 43.7197C42.0695 44.3597 41.6095 44.8797 41.1095 45.2797C40.6095 45.6997 40.0395 45.9997 39.3995 46.1797C38.7795 46.3797 38.0495 46.4797 37.2095 46.4797C36.5095 46.4797 35.8595 46.4097 35.2595 46.2697C34.6795 46.1497 34.1995 46.0097 33.8195 45.8497L34.5995 42.2797C35.0595 42.4397 35.4695 42.5497 35.8295 42.6097C36.1895 42.6697 36.5695 42.6997 36.9695 42.6997C37.7695 42.6997 38.3795 42.4797 38.7995 42.0397C39.2395 41.6197 39.6095 41.0297 39.9095 40.2697C38.8895 38.2697 37.8695 36.0297 36.8495 33.5497C35.8295 31.0497 34.8695 28.2497 33.9695 25.1497H38.7095C38.9095 25.9297 39.1395 26.7797 39.3995 27.6997C39.6795 28.5997 39.9695 29.5197 40.2695 30.4597C40.5695 31.3797 40.8695 32.2797 41.1695 33.1597C41.4895 34.0397 41.7895 34.8397 42.0695 35.5597C42.3295 34.8397 42.5995 34.0397 42.8795 33.1597C43.1595 32.2797 43.4295 31.3797 43.6895 30.4597C43.9695 29.5197 44.2295 28.5997 44.4695 27.6997C44.7295 26.7797 44.9595 25.9297 45.1595 25.1497H49.7795ZM62.2857 33.1597C62.2857 31.7797 61.9757 30.6797 61.3557 29.8597C60.7357 29.0197 59.8157 28.5997 58.5957 28.5997C58.1957 28.5997 57.8257 28.6197 57.4857 28.6597C57.1457 28.6797 56.8657 28.7097 56.6457 28.7497V36.8197C56.9257 36.9997 57.2857 37.1497 57.7257 37.2697C58.1857 37.3897 58.6457 37.4497 59.1057 37.4497C61.2257 37.4497 62.2857 36.0197 62.2857 33.1597ZM66.8457 33.0397C66.8457 34.2597 66.6957 35.3697 66.3957 36.3697C66.0957 37.3697 65.6557 38.2297 65.0757 38.9497C64.4957 39.6697 63.7757 40.2297 62.9157 40.6297C62.0557 41.0297 61.0657 41.2297 59.9457 41.2297C59.3257 41.2297 58.7457 41.1697 58.2057 41.0497C57.6657 40.9297 57.1457 40.7597 56.6457 40.5397V46.4797H52.1757V25.6897C52.5757 25.5697 53.0357 25.4597 53.5557 25.3597C54.0757 25.2397 54.6157 25.1397 55.1757 25.0597C55.7557 24.9797 56.3357 24.9197 56.9157 24.8797C57.5157 24.8197 58.0857 24.7897 58.6257 24.7897C59.9257 24.7897 61.0857 24.9897 62.1057 25.3897C63.1257 25.7697 63.9857 26.3197 64.6857 27.0397C65.3857 27.7397 65.9157 28.5997 66.2757 29.6197C66.6557 30.6397 66.8457 31.7797 66.8457 33.0397ZM70.1312 21.2197L74.6012 20.4997V25.1497H79.9712V28.8697H74.6012V34.4197C74.6012 35.3597 74.7612 36.1097 75.0812 36.6697C75.4212 37.2297 76.0912 37.5097 77.0912 37.5097C77.5712 37.5097 78.0612 37.4697 78.5612 37.3897C79.0812 37.2897 79.5512 37.1597 79.9712 36.9997L80.6012 40.4797C80.0612 40.6997 79.4612 40.8897 78.8012 41.0497C78.1412 41.2097 77.3312 41.2897 76.3712 41.2897C75.1512 41.2897 74.1412 41.1297 73.3412 40.8097C72.5412 40.4697 71.9012 40.0097 71.4212 39.4297C70.9412 38.8297 70.6012 38.1097 70.4012 37.2697C70.2212 36.4297 70.1312 35.4997 70.1312 34.4797V21.2197ZM97.7854 33.0097C97.7854 34.2497 97.6054 35.3897 97.2454 36.4297C96.8854 37.4497 96.3654 38.3297 95.6854 39.0697C95.0054 39.7897 94.1854 40.3497 93.2254 40.7497C92.2854 41.1497 91.2254 41.3497 90.0454 41.3497C88.8854 41.3497 87.8254 41.1497 86.8654 40.7497C85.9254 40.3497 85.1154 39.7897 84.4354 39.0697C83.7554 38.3297 83.2254 37.4497 82.8454 36.4297C82.4654 35.3897 82.2754 34.2497 82.2754 33.0097C82.2754 31.7697 82.4654 30.6397 82.8454 29.6197C83.2454 28.5997 83.7854 27.7297 84.4654 27.0097C85.1654 26.2897 85.9854 25.7297 86.9254 25.3297C87.8854 24.9297 88.9254 24.7297 90.0454 24.7297C91.1854 24.7297 92.2254 24.9297 93.1654 25.3297C94.1254 25.7297 94.9454 26.2897 95.6254 27.0097C96.3054 27.7297 96.8354 28.5997 97.2154 29.6197C97.5954 30.6397 97.7854 31.7697 97.7854 33.0097ZM93.2254 33.0097C93.2254 31.6297 92.9454 30.5497 92.3854 29.7697C91.8454 28.9697 91.0654 28.5697 90.0454 28.5697C89.0254 28.5697 88.2354 28.9697 87.6754 29.7697C87.1154 30.5497 86.8354 31.6297 86.8354 33.0097C86.8354 34.3897 87.1154 35.4897 87.6754 36.3097C88.2354 37.1097 89.0254 37.5097 90.0454 37.5097C91.0654 37.5097 91.8454 37.1097 92.3854 36.3097C92.9454 35.4897 93.2254 34.3897 93.2254 33.0097Z" fill="#263238"/>
<path d="M114.623 43.9297V30.9862L104.623 21.9297V43.9297H114.623Z" fill="#27CAEA"/>
<path d="M126.574 43.6159V30.857L116.918 21.9297V43.6159H126.574Z" fill="#FFB04E"/>
</svg>
