<svg width="393" height="401" viewBox="0 0 393 401" fill="none" xmlns="http://www.w3.org/2000/svg">
<rect x="47.6399" y="17.9688" width="344.823" height="382.171" rx="26.0571" fill="#F4F4F4"/>
<rect x="0.736877" y="0.597656" width="159.817" height="160.686" rx="11.2914" fill="#263238"/>
<path d="M84.8523 93.8047L128.699 94.4042C128.366 117.718 108.715 136.835 84.8523 136.835H84.5858L84.8523 93.8047Z" fill="#455A64"/>
<path d="M77.908 87.542L77.2919 130.572C53.462 130.239 33.9951 110.922 33.9951 87.542C33.9951 64.1618 53.7951 44.5117 77.8581 44.5117C101.921 44.5117 121.721 63.9453 121.721 87.542H77.908Z" fill="#3EBA59"/>
<path d="M20.4562 22.0491C22.9486 22.0491 24.9691 20.0287 24.9691 17.5363C24.9691 15.0439 22.9486 13.0234 20.4562 13.0234C17.9638 13.0234 15.9434 15.0439 15.9434 17.5363C15.9434 20.0287 17.9638 22.0491 20.4562 22.0491Z" fill="#3EBA59"/>
<path d="M35.6603 22.0491C38.1526 22.0491 40.1731 20.0287 40.1731 17.5363C40.1731 15.0439 38.1526 13.0234 35.6603 13.0234C33.1679 13.0234 31.1474 15.0439 31.1474 17.5363C31.1474 20.0287 33.1679 22.0491 35.6603 22.0491Z" fill="#FFB355"/>
<path d="M55.3771 17.6027C55.3771 18.4953 55.1124 19.3678 54.6165 20.1099C54.1207 20.8521 53.4158 21.4305 52.5912 21.772C51.7666 22.1136 50.8592 22.203 49.9838 22.0288C49.1084 21.8547 48.3043 21.4249 47.6732 20.7938C47.042 20.1626 46.6122 19.3585 46.4381 18.4831C46.264 17.6077 46.3533 16.7003 46.6949 15.8757C47.0365 15.0511 47.6149 14.3463 48.357 13.8504C49.0992 13.3545 49.9717 13.0898 50.8642 13.0898C52.0611 13.0898 53.209 13.5653 54.0553 14.4116C54.9016 15.258 55.3771 16.4058 55.3771 17.6027Z" fill="#D91222"/>
<path d="M339.66 182.129H257.083C243.352 182.129 232.22 193.26 232.22 206.992V215.248C232.22 228.979 243.352 240.111 257.083 240.111H339.66C353.391 240.111 364.523 228.979 364.523 215.248V206.992C364.523 193.26 353.391 182.129 339.66 182.129Z" fill="white"/>
<path d="M78.9352 246.868C78.8123 236.216 81.8479 225.766 87.6589 216.837C93.4699 207.909 101.796 200.902 111.586 196.701C121.375 192.5 132.19 191.294 142.665 193.234C153.14 195.174 162.805 200.174 170.441 207.603C178.076 215.031 183.34 224.555 185.568 234.973C187.795 245.391 186.886 256.234 182.956 266.136C179.026 276.038 172.251 284.553 163.485 290.607C154.72 296.661 144.357 299.983 133.706 300.153C119.382 300.332 105.572 294.822 95.3044 284.833C85.037 274.844 79.1502 261.191 78.9352 246.868ZM158.608 245.53C158.502 240.442 156.892 235.499 153.981 231.325C151.07 227.151 146.989 223.932 142.251 222.074C137.513 220.216 132.331 219.802 127.359 220.885C122.386 221.967 117.845 224.498 114.309 228.157C110.772 231.816 108.398 236.441 107.486 241.448C106.574 246.454 107.164 251.619 109.183 256.29C111.202 260.962 114.558 264.931 118.829 267.698C123.1 270.465 128.095 271.905 133.184 271.838C140.035 271.722 146.56 268.892 151.327 263.969C156.093 259.047 158.712 252.435 158.608 245.583V245.53Z" fill="#F5F5F5"/>
<path d="M78.9354 246.868C78.6881 232.544 84.1324 218.707 94.0739 208.391C104.015 198.076 117.643 192.125 131.966 191.844L132.421 220.105C125.554 220.215 119.011 223.049 114.233 227.983C109.455 232.916 106.833 239.546 106.943 246.413C107.053 253.281 109.886 259.823 114.82 264.601C119.754 269.379 126.383 272.002 133.251 271.892L133.706 300.153C119.381 300.336 105.569 294.827 95.3007 284.838C85.0325 274.848 79.1469 261.193 78.9354 246.868Z" fill="#455A64"/>
<path d="M158.609 245.583C158.624 245.721 158.624 245.86 158.609 245.998V247.229C158.617 247.896 158.572 248.563 158.475 249.223C158.39 250.125 158.238 251.02 158.02 251.899C157.495 254.356 156.592 256.717 155.344 258.898C153.72 261.815 151.537 264.384 148.92 266.458C145.522 269.202 141.48 271.033 137.176 271.78C132.873 272.527 128.45 272.165 124.325 270.727C123.149 270.319 122.001 269.836 120.886 269.282C119.763 268.682 118.681 268.007 117.648 267.261C116.597 266.5 115.596 265.673 114.651 264.785C113.718 263.843 112.846 262.842 112.041 261.788C110.381 259.624 109.08 257.207 108.187 254.629C107.306 251.963 106.828 249.18 106.769 246.373C106.751 243.566 107.162 240.772 107.987 238.089C108.789 235.483 110.009 233.025 111.6 230.81C113.095 228.643 114.929 226.732 117.032 225.15C118.023 224.392 119.065 223.704 120.15 223.089C121.241 222.493 122.372 221.974 123.536 221.537C129.207 219.368 135.461 219.263 141.202 221.24C146.944 223.216 151.807 227.149 154.942 232.349C156.26 234.487 157.239 236.816 157.846 239.254C158.088 240.132 158.267 241.026 158.381 241.93C158.503 242.583 158.57 243.246 158.582 243.91C158.582 244.432 158.582 244.834 158.582 245.142C158.599 245.284 158.599 245.428 158.582 245.57C158.541 245.435 158.518 245.296 158.515 245.155C158.515 244.834 158.448 244.432 158.395 243.924C158.361 243.263 158.276 242.605 158.14 241.957C158.002 241.052 157.801 240.157 157.538 239.28C156.9 236.885 155.898 234.601 154.567 232.509C152.813 229.719 150.542 227.289 147.877 225.35C144.445 222.807 140.426 221.174 136.193 220.604C131.961 220.033 127.652 220.542 123.67 222.085C121.369 222.955 119.216 224.173 117.287 225.698C115.276 227.257 113.531 229.133 112.121 231.252C110.578 233.413 109.39 235.807 108.602 238.344C107.808 240.946 107.411 243.652 107.425 246.373C107.524 251.79 109.337 257.037 112.603 261.36C114.119 263.43 115.963 265.238 118.063 266.712C119.062 267.443 120.113 268.1 121.207 268.679C122.289 269.227 123.407 269.701 124.553 270.098C128.58 271.515 132.901 271.89 137.112 271.188C141.324 270.486 145.289 268.73 148.639 266.083C151.221 264.055 153.392 261.553 155.036 258.71C156.294 256.573 157.223 254.259 157.792 251.846C158.033 250.969 158.203 250.074 158.301 249.169C158.422 248.516 158.489 247.853 158.502 247.189C158.502 246.68 158.568 246.279 158.582 245.958C158.579 245.832 158.588 245.707 158.609 245.583Z" fill="#263238"/>
<path d="M78.9355 246.869C78.9355 246.869 78.9355 247.164 79.0292 247.739C79.1229 248.315 79.1362 249.198 79.2299 250.295C79.2299 250.87 79.3236 251.499 79.3771 252.182C79.4306 252.864 79.618 253.627 79.7518 254.443C79.8856 255.26 80.0462 256.129 80.2068 257.12C80.4064 258.109 80.6565 259.087 80.9561 260.05C82.2902 265.082 84.3791 269.882 87.1517 274.288C90.7665 280.159 95.4778 285.279 101.028 289.369L103.37 291.068C104.186 291.604 105.056 292.072 105.913 292.594C106.769 293.116 107.625 293.651 108.589 294.079L111.399 295.417L112.817 296.073L114.316 296.595L117.354 297.652C118.384 297.987 119.468 298.187 120.538 298.455C121.607 298.755 122.693 298.987 123.79 299.151C126.042 299.535 128.318 299.763 130.601 299.833C131.752 299.833 132.93 299.954 134.107 299.913L137.653 299.673C138.255 299.673 138.858 299.673 139.446 299.525L141.226 299.218C142.417 298.99 143.635 298.843 144.839 298.562C149.739 297.363 154.462 295.532 158.89 293.116C160.014 292.473 161.084 291.778 162.195 291.055C163.314 290.364 164.382 289.595 165.393 288.753C167.507 287.108 169.505 285.32 171.375 283.401L174.051 280.35L174.72 279.587L175.322 278.757L176.513 277.085L177.717 275.412L178.775 273.619L179.818 271.826L180.34 270.929L180.782 269.979L182.535 266.165L183.873 262.151C187.374 251.098 187.186 239.206 183.338 228.269L181.812 224.255C181.197 222.997 180.568 221.739 179.939 220.495L179.47 219.558L178.922 218.675L177.811 216.908L176.714 215.155L175.456 213.523L174.198 211.89L173.583 211.087L172.873 210.338C171.95 209.334 171.027 208.358 170.103 207.367C168.176 205.529 166.123 203.825 163.961 202.269C162.925 201.457 161.829 200.723 160.683 200.074C159.559 199.419 158.461 198.736 157.324 198.107C155.041 196.96 152.685 195.963 150.272 195.123C147.924 194.299 145.523 193.633 143.086 193.13C141.882 192.889 140.664 192.768 139.473 192.581L137.667 192.34C137.078 192.26 136.476 192.34 135.874 192.246L132.314 192.126C131.137 192.126 129.972 192.26 128.822 192.313C126.542 192.458 124.275 192.762 122.037 193.223C120.942 193.418 119.861 193.682 118.799 194.013C117.742 194.32 116.671 194.561 115.654 194.923L112.657 196.087L111.171 196.649L109.766 197.358L106.996 198.696C106.086 199.138 105.27 199.753 104.414 200.262C103.557 200.77 102.714 201.306 101.911 201.868L99.6233 203.634C94.2081 207.902 89.665 213.172 86.2418 219.156C83.6129 223.652 81.6818 228.52 80.5145 233.595C80.2422 234.568 80.0233 235.555 79.8588 236.552C79.725 237.489 79.5912 238.359 79.4842 239.229C79.3771 240.098 79.2299 240.794 79.1764 241.477C79.1229 242.159 79.1764 242.815 79.0961 243.377C79.0961 244.488 79.0024 245.331 78.9757 245.933C78.9489 246.535 78.9088 246.816 78.9088 246.816C78.9088 246.816 78.9088 246.521 78.9088 245.933C78.9088 245.344 78.9088 244.474 78.9088 243.363C78.9088 242.801 78.9088 242.159 78.9088 241.463C78.9088 240.767 79.0827 240.018 79.1764 239.202C79.2701 238.386 79.4039 237.489 79.5243 236.526C79.6791 235.52 79.8891 234.524 80.1532 233.541C81.2898 228.431 83.1937 223.523 85.8002 218.982C89.21 212.931 93.7532 207.593 99.1817 203.259L101.483 201.466C102.3 200.891 103.156 200.382 103.999 199.834C104.842 199.285 105.685 198.696 106.608 198.241L109.405 196.903L110.743 196.18L112.242 195.605L115.28 194.428C116.297 194.053 117.38 193.812 118.451 193.491C119.527 193.156 120.622 192.883 121.729 192.675C123.989 192.208 126.278 191.899 128.581 191.751C129.745 191.751 130.922 191.55 132.113 191.537L135.713 191.658C136.315 191.658 136.917 191.658 137.533 191.751L139.339 191.992C140.557 192.179 141.788 192.3 143.006 192.527C145.474 193.041 147.906 193.716 150.285 194.548C152.799 195.378 155.25 196.389 157.618 197.572C158.769 198.188 159.893 198.91 161.031 199.553C162.187 200.21 163.296 200.948 164.349 201.761C166.54 203.342 168.623 205.068 170.585 206.926L173.382 209.923L174.091 210.686L174.733 211.502L175.991 213.148L177.329 214.807L178.44 216.574L179.564 218.367L180.126 219.263L180.594 220.2L182.508 224.014C183.016 225.352 183.525 226.69 184.047 228.028C187.949 239.103 188.137 251.147 184.582 262.338L183.244 266.353C182.655 267.691 182.053 268.935 181.464 270.22L181.023 271.184L180.487 272.093L179.43 273.913L178.36 275.72L177.142 277.406L175.924 279.092L175.322 279.935L174.64 280.711C173.73 281.755 172.833 282.785 171.963 283.802C170.065 285.72 168.04 287.508 165.902 289.155C164.876 290 163.794 290.773 162.663 291.47C161.539 292.166 160.455 292.902 159.318 293.557C157.053 294.797 154.706 295.879 152.293 296.796C149.94 297.702 147.531 298.453 145.08 299.044C143.876 299.325 142.645 299.472 141.44 299.699L139.634 300.007C139.032 300.101 138.416 300.101 137.814 300.154L134.228 300.382C133.037 300.382 131.859 300.382 130.682 300.302C128.376 300.217 126.078 299.98 123.804 299.592C122.694 299.419 121.594 299.182 120.512 298.883C119.428 298.602 118.344 298.401 117.3 298.053L114.236 296.983L112.724 296.448L111.278 295.779L108.455 294.44C107.518 294.012 106.675 293.423 105.779 292.928C104.882 292.433 104.039 291.925 103.209 291.39L100.854 289.663C95.2379 285.555 90.4709 280.397 86.8172 274.475C84.0555 270.026 81.9931 265.179 80.7019 260.104C80.409 259.111 80.1766 258.101 80.006 257.079L79.5645 254.403C79.444 253.587 79.2968 252.838 79.2299 252.142C79.163 251.446 79.1496 250.804 79.1229 250.242C79.1229 249.131 79.0158 248.274 78.9757 247.672C78.9355 247.07 78.9355 246.869 78.9355 246.869Z" fill="#263238"/>
<path d="M127.122 187.495C161.913 186.933 189.64 213.923 190.202 248.862L157.283 249.384C157.016 232.684 144.317 222.166 127.684 222.434L127.122 187.495Z" fill="#0A7CFF"/>
<path d="M127.122 187.495C127.122 187.495 127.122 187.722 127.122 188.151C127.122 188.579 127.122 189.208 127.122 189.984C127.122 191.63 127.215 193.998 127.296 196.996C127.43 203.058 127.604 211.715 127.844 222.421L127.577 222.166C130.913 222.115 134.241 222.525 137.466 223.384C141.015 224.316 144.347 225.935 147.274 228.148C150.421 230.558 152.967 233.663 154.714 237.22C156.528 241.016 157.487 245.164 157.524 249.371L157.177 249.036L182.601 248.621L190.028 248.501L189.693 248.849C189.513 242.231 188.382 235.674 186.335 229.379L184.836 224.963C184.207 223.531 183.498 222.153 182.815 220.775C182.159 219.387 181.408 218.045 180.567 216.76C179.829 215.478 179.016 214.24 178.132 213.054C177.249 211.889 176.366 210.752 175.456 209.615C174.546 208.477 173.542 207.54 172.619 206.51L171.214 205.011L169.702 203.673L166.731 200.997C162.961 198.032 158.867 195.505 154.527 193.463L151.61 192.125C150.633 191.737 149.67 191.429 148.733 191.095L146.057 190.158C145.173 189.877 144.29 189.703 143.38 189.489L140.931 188.9L139.781 188.619L138.643 188.458L134.629 187.883C133.564 187.736 132.492 187.651 131.417 187.629L129.049 187.508L127.644 187.495H127.122H129.049H131.444C132.54 187.478 133.636 187.54 134.722 187.682L138.737 188.191L139.874 188.351L141.039 188.606L143.514 189.181C144.357 189.395 145.254 189.542 146.19 189.823L148.867 190.747C149.803 191.081 150.78 191.376 151.757 191.75L154.714 193.088C159.108 195.118 163.256 197.641 167.079 200.609C168.056 201.479 169.059 202.348 170.076 203.285L171.615 204.623L173.034 206.135C173.97 207.166 174.974 208.169 175.911 209.267L178.587 212.732C179.487 213.926 180.314 215.172 181.062 216.466C181.915 217.748 182.676 219.09 183.337 220.48C184.006 221.818 184.756 223.25 185.385 224.709L187.084 229.192C189.163 235.55 190.313 242.175 190.496 248.862V249.21H190.148L182.722 249.331L157.297 249.732H156.949V249.398C156.938 245.293 156.025 241.24 154.273 237.528C152.583 234.052 150.11 231.014 147.047 228.656C144.189 226.48 140.935 224.88 137.466 223.946C134.295 223.091 131.022 222.672 127.737 222.702H127.47V222.447C127.349 211.742 127.256 202.951 127.202 196.835C127.202 193.851 127.202 191.483 127.202 189.89V188.097C127.108 187.696 127.122 187.495 127.122 187.495Z" fill="#263238"/>
<path d="M348.973 201.586H251.021C250.474 201.586 249.949 201.372 249.559 200.989C249.168 200.606 248.944 200.085 248.933 199.539C248.933 198.985 249.153 198.454 249.545 198.063C249.936 197.671 250.467 197.451 251.021 197.451H348.973C349.524 197.455 350.052 197.676 350.44 198.067C350.829 198.458 351.047 198.987 351.047 199.539C351.037 200.083 350.814 200.602 350.426 200.984C350.039 201.367 349.517 201.583 348.973 201.586Z" fill="#263238"/>
<path d="M348.973 212.692H251.021C250.467 212.692 249.936 212.472 249.545 212.081C249.153 211.689 248.933 211.158 248.933 210.605C248.932 210.33 248.984 210.057 249.088 209.802C249.193 209.547 249.346 209.315 249.54 209.12C249.734 208.925 249.965 208.77 250.219 208.664C250.473 208.558 250.746 208.504 251.021 208.504H348.973C349.248 208.504 349.521 208.558 349.775 208.664C350.029 208.77 350.26 208.925 350.454 209.12C350.648 209.315 350.801 209.547 350.906 209.802C351.01 210.057 351.062 210.33 351.061 210.605C351.061 211.158 350.841 211.689 350.449 212.081C350.058 212.472 349.527 212.692 348.973 212.692Z" fill="#263238"/>
<path d="M295.528 223.798H251.021C250.467 223.798 249.936 223.578 249.545 223.186C249.153 222.795 248.933 222.264 248.933 221.71C248.932 221.435 248.984 221.162 249.088 220.907C249.193 220.653 249.346 220.421 249.54 220.226C249.734 220.03 249.965 219.875 250.219 219.77C250.473 219.664 250.746 219.609 251.021 219.609H295.528C295.803 219.608 296.076 219.66 296.331 219.764C296.585 219.869 296.817 220.022 297.012 220.216C297.208 220.41 297.363 220.641 297.468 220.895C297.574 221.149 297.628 221.422 297.628 221.697C297.63 221.973 297.577 222.247 297.472 222.503C297.367 222.759 297.213 222.991 297.017 223.186C296.822 223.382 296.589 223.537 296.334 223.642C296.078 223.746 295.804 223.8 295.528 223.798Z" fill="#263238"/>
<path d="M339.66 253.064H257.083C243.352 253.064 232.22 264.196 232.22 277.927V286.184C232.22 299.915 243.352 311.046 257.083 311.046H339.66C353.391 311.046 364.523 299.915 364.523 286.184V277.927C364.523 264.196 353.391 253.064 339.66 253.064Z" fill="white"/>
<path d="M351.65 347.202H242.283C239.244 347.198 236.331 345.988 234.183 343.838C232.035 341.688 230.829 338.773 230.829 335.734C230.829 334.23 231.125 332.74 231.701 331.35C232.276 329.961 233.12 328.698 234.184 327.634C235.247 326.571 236.51 325.727 237.9 325.151C239.289 324.576 240.779 324.279 242.283 324.279H351.65C354.689 324.279 357.604 325.486 359.754 327.633C361.904 329.781 363.114 332.695 363.118 335.734C363.118 338.775 361.91 341.692 359.759 343.843C357.608 345.993 354.691 347.202 351.65 347.202Z" fill="white"/>
<path d="M348.318 273.029H250.379C249.825 273.029 249.294 272.809 248.903 272.417C248.511 272.026 248.291 271.495 248.291 270.941C248.291 270.387 248.511 269.856 248.903 269.465C249.294 269.073 249.825 268.854 250.379 268.854H348.318C348.592 268.854 348.863 268.908 349.117 269.012C349.37 269.117 349.6 269.271 349.794 269.465C349.988 269.659 350.141 269.889 350.246 270.142C350.351 270.395 350.405 270.667 350.405 270.941C350.405 271.215 350.351 271.487 350.246 271.74C350.141 271.993 349.988 272.223 349.794 272.417C349.6 272.611 349.37 272.765 349.117 272.87C348.863 272.975 348.592 273.029 348.318 273.029Z" fill="#263238"/>
<path d="M344.142 338.076H246.204C245.65 338.076 245.119 337.857 244.727 337.465C244.336 337.074 244.116 336.543 244.116 335.989C244.116 335.435 244.336 334.904 244.727 334.513C245.119 334.121 245.65 333.901 246.204 333.901H344.142C344.426 333.892 344.708 333.941 344.971 334.044C345.235 334.148 345.475 334.304 345.677 334.503C345.878 334.702 346.037 334.94 346.144 335.202C346.25 335.465 346.302 335.746 346.297 336.029C346.292 336.306 346.232 336.578 346.12 336.831C346.009 337.084 345.848 337.313 345.648 337.503C345.447 337.694 345.211 337.843 344.953 337.941C344.694 338.039 344.419 338.085 344.142 338.076Z" fill="#263238"/>
<path d="M348.318 284.136H250.379C249.825 284.136 249.294 283.916 248.903 283.525C248.511 283.133 248.291 282.602 248.291 282.048C248.291 281.495 248.511 280.964 248.903 280.572C249.294 280.181 249.825 279.961 250.379 279.961H348.318C348.592 279.961 348.863 280.015 349.117 280.12C349.37 280.225 349.6 280.379 349.794 280.572C349.988 280.766 350.141 280.996 350.246 281.25C350.351 281.503 350.405 281.774 350.405 282.048C350.405 282.323 350.351 282.594 350.246 282.847C350.141 283.101 349.988 283.331 349.794 283.525C349.6 283.718 349.37 283.872 349.117 283.977C348.863 284.082 348.592 284.136 348.318 284.136Z" fill="#263238"/>
<path d="M294.886 295.241H250.379C249.825 295.241 249.294 295.021 248.903 294.63C248.511 294.239 248.291 293.708 248.291 293.154C248.291 292.6 248.511 292.069 248.903 291.678C249.294 291.286 249.825 291.066 250.379 291.066H294.886C295.439 291.066 295.97 291.286 296.362 291.678C296.753 292.069 296.973 292.6 296.973 293.154C296.973 293.708 296.753 294.239 296.362 294.63C295.97 295.021 295.439 295.241 294.886 295.241Z" fill="#263238"/>
<path d="M225.382 194.521C224.776 194.621 224.162 194.666 223.549 194.655L218.557 194.762C214.342 194.762 208.508 194.869 202.085 194.869H194.578L194.819 194.775C191.54 198.014 188.717 200.77 186.696 202.711L184.381 204.892C184.116 205.18 183.815 205.432 183.484 205.641C183.694 205.311 183.946 205.009 184.234 204.745L186.482 202.363C188.409 200.342 191.179 197.519 194.417 194.24L194.511 194.146H202.152C208.575 194.146 214.409 194.146 218.624 194.24L223.615 194.347C224.208 194.348 224.8 194.407 225.382 194.521Z" fill="#263238"/>
<path d="M223.937 197.397C225.474 197.397 226.72 196.151 226.72 194.613C226.72 193.076 225.474 191.83 223.937 191.83C222.4 191.83 221.154 193.076 221.154 194.613C221.154 196.151 222.4 197.397 223.937 197.397Z" fill="#263238"/>
<path d="M223.937 281.057C225.474 281.057 226.72 279.811 226.72 278.274C226.72 276.736 225.474 275.49 223.937 275.49C222.4 275.49 221.154 276.736 221.154 278.274C221.154 279.811 222.4 281.057 223.937 281.057Z" fill="#263238"/>
<path d="M222.09 278.77C220.54 278.949 218.979 279.016 217.42 278.971C214.53 278.971 210.542 278.971 206.139 278.971L194.872 278.864L191.447 278.784C191.032 278.813 190.616 278.813 190.202 278.784C191.733 278.47 193.298 278.349 194.859 278.422C197.749 278.342 201.737 278.302 206.139 278.329C210.542 278.355 214.53 278.409 217.42 278.489C218.982 278.46 220.543 278.554 222.09 278.77Z" fill="#263238"/>
<path d="M105.498 339.922H96.3715V349.048H105.498V339.922Z" fill="#455A64"/>
<path d="M136.101 339.922H126.975V349.048H136.101V339.922Z" fill="#E0E0E0"/>
<path d="M169.3 339.922H160.174V349.048H169.3V339.922Z" fill="#0A7CFF"/>
<path d="M371.155 103.714C371.155 103.879 330.552 104 280.478 104C230.403 104 189.779 103.879 189.779 103.714C189.779 103.549 230.37 103.428 280.478 103.428C330.585 103.428 371.155 103.56 371.155 103.714Z" fill="#E0E0E0"/>
<path d="M371.155 88.0594C371.155 88.2135 330.552 88.3455 280.478 88.3455C230.403 88.3455 189.779 88.2135 189.779 88.0594C189.779 87.9054 230.37 87.7734 280.478 87.7734C330.585 87.7734 371.155 87.8944 371.155 88.0594Z" fill="#E0E0E0"/>
<path d="M371.155 72.3954C371.155 72.5604 330.552 72.6814 280.478 72.6814C230.403 72.6814 189.779 72.5604 189.779 72.3954C189.779 72.2304 230.37 72.1094 280.478 72.1094C330.585 72.1094 371.155 72.2414 371.155 72.3954Z" fill="#E0E0E0"/>
<path d="M371.155 56.743C371.155 56.897 330.552 57.0291 280.478 57.0291C230.403 57.0291 189.779 56.897 189.779 56.743C189.779 56.589 230.37 56.457 280.478 56.457C330.585 56.457 371.155 56.578 371.155 56.743Z" fill="#E0E0E0"/>
<path d="M220.217 96.6191H205.124V126.969H220.217V96.6191Z" fill="#0A7CFF"/>
<path d="M274.383 96.6191H259.29V126.969H274.383V96.6191Z" fill="#455A64"/>
<path d="M356.535 106.959H341.442V126.958H356.535V106.959Z" fill="#455A64"/>
<path d="M328.539 82.2402H313.446V126.957H328.539V82.2402Z" fill="#E0E0E0"/>
<path d="M300.85 64.8379H285.758V126.969H300.85V64.8379Z" fill="#0A7CFF"/>
<path d="M246.222 82.2402H231.129V126.957H246.222V82.2402Z" fill="#E0E0E0"/>
<path d="M368.998 126.969H368.316H366.336H358.724L330.705 127.057L238.301 127.145H189.547H189.217V126.881C189.217 102.845 189.305 82.3511 189.327 67.8525C189.327 60.6252 189.382 54.894 189.404 50.9448C189.404 48.9977 189.404 47.4906 189.404 46.4456C189.404 45.9506 189.404 45.5765 189.404 45.2905C189.395 45.1587 189.395 45.0264 189.404 44.8945C189.404 44.8945 189.404 45.0375 189.404 45.2905V46.4456C189.404 47.4906 189.404 48.9977 189.404 50.9448C189.404 54.894 189.404 60.6252 189.481 67.8525C189.481 82.3511 189.547 102.845 189.591 126.881L189.327 126.606H238.279L330.683 126.683L358.702 126.771L366.314 126.826H368.294L368.998 126.969Z" fill="#263238"/>
<path d="M227.873 142.359H221.24V148.993H227.873V142.359Z" fill="#0A7CFF"/>
<path d="M268.399 142.148H261.765V148.782H268.399V142.148Z" fill="#E0E0E0"/>
<path d="M312.236 142.359H305.603V148.993H312.236V142.359Z" fill="#455A64"/>
<path d="M249.83 145.461C246.829 145.75 243.812 145.846 240.799 145.747C237.785 145.846 234.768 145.75 231.767 145.461C234.769 145.178 237.785 145.082 240.799 145.175C243.812 145.082 246.828 145.178 249.83 145.461Z" fill="#263238"/>
<path d="M290.048 145.461C287.047 145.75 284.03 145.846 281.016 145.747C278.003 145.846 274.986 145.75 271.985 145.461C274.987 145.178 278.003 145.082 281.016 145.175C284.03 145.082 287.046 145.178 290.048 145.461Z" fill="#263238"/>
<path d="M332.861 145.46C326.85 145.841 320.821 145.841 314.81 145.46C320.821 145.078 326.85 145.078 332.861 145.46Z" fill="#263238"/>
</svg>
