<svg width="60" height="60" viewBox="0 0 60 60" fill="none" xmlns="http://www.w3.org/2000/svg">
<rect x="0.163574" y="0.109375" width="58.9576" height="58.9576" rx="7.3697" fill="#F0F5FF"/>
<path opacity="0.2" d="M39.2448 29.5254L36.0912 23.1426H23.1942L20.0406 29.5255C19.9658 29.677 19.934 29.8461 19.9489 30.0144C19.9637 30.1827 20.0245 30.3437 20.1247 30.4797L29.6427 43.4092L39.1607 30.4797C39.2609 30.3436 39.3217 30.1826 39.3365 30.0143C39.3513 29.846 39.3196 29.6769 39.2448 29.5254V29.5254ZM29.6427 32.3547C29.1872 32.3547 28.7419 32.2196 28.3632 31.9666C27.9845 31.7135 27.6893 31.3538 27.515 30.933C27.3407 30.5122 27.2951 30.0491 27.3839 29.6024C27.4728 29.1556 27.6921 28.7453 28.0142 28.4232C28.3363 28.1011 28.7467 27.8818 29.1934 27.7929C29.6402 27.704 30.1032 27.7496 30.524 27.9239C30.9449 28.0983 31.3045 28.3934 31.5576 28.7722C31.8107 29.1509 31.9457 29.5962 31.9457 30.0517C31.9457 30.3541 31.8862 30.6536 31.7704 30.933C31.6547 31.2124 31.4851 31.4663 31.2712 31.6802C31.0573 31.894 30.8035 32.0637 30.524 32.1794C30.2446 32.2951 29.9451 32.3547 29.6427 32.3547V32.3547Z" fill="#3EBA59"/>
<path d="M29.6421 32.3555L29.6421 43.41" stroke="#3EBA59" stroke-width="1.84242" stroke-linecap="round" stroke-linejoin="round"/>
<path d="M29.6424 32.3541C30.9143 32.3541 31.9454 31.323 31.9454 30.0511C31.9454 28.7791 30.9143 27.748 29.6424 27.748C28.3705 27.748 27.3394 28.7791 27.3394 30.0511C27.3394 31.323 28.3705 32.3541 29.6424 32.3541Z" stroke="#3EBA59" stroke-width="1.84242" stroke-linecap="round" stroke-linejoin="round"/>
<path d="M23.1938 23.1425V18.5364C23.1938 18.2921 23.2909 18.0578 23.4637 17.8851C23.6364 17.7123 23.8707 17.6152 24.1151 17.6152H35.1696C35.4139 17.6152 35.6482 17.7123 35.821 17.8851C35.9938 18.0578 36.0908 18.2921 36.0908 18.5364V23.1425" stroke="#3EBA59" stroke-width="1.84242" stroke-linecap="round" stroke-linejoin="round"/>
<path d="M23.1942 23.1426L20.0406 29.5255C19.9658 29.677 19.934 29.8461 19.9489 30.0144C19.9637 30.1827 20.0245 30.3436 20.1247 30.4797L29.6427 43.4092L39.1607 30.4796C39.2609 30.3436 39.3217 30.1826 39.3365 30.0143C39.3513 29.8461 39.3196 29.6769 39.2448 29.5255L36.0912 23.1426H23.1942Z" stroke="#3EBA59" stroke-width="1.84242" stroke-linecap="round" stroke-linejoin="round"/>
</svg>
