<svg width="560" height="571" viewBox="0 0 560 571" fill="none" xmlns="http://www.w3.org/2000/svg">
<rect width="560" height="477.315" rx="37.5839" fill="#0C0047"/>
<mask id="mask0_109_5206" style="mask-type:alpha" maskUnits="userSpaceOnUse" x="0" y="0" width="560" height="478">
<rect width="560" height="477.315" rx="37.5839" fill="url(#paint0_linear_109_5206)"/>
<rect width="560" height="477.315" rx="37.5839" fill="black" fill-opacity="0.2"/>
</mask>
<g mask="url(#mask0_109_5206)">
<path d="M344.476 577.289C315.586 560.045 -97.0626 572.978 30.5696 291.475C158.202 9.97267 507.035 -139.616 585.08 34.9759C663.125 209.568 445.806 462.619 231.073 481.156C16.3404 499.693 -125.521 372.09 -47.4757 231.123C30.5696 90.1557 396.65 -103.404 464.778 57.8238C532.906 219.052 445.806 384.591 231.073 394.506C16.3404 404.421 -77.659 342.775 24.1018 188.876C125.863 34.976 384.577 21.6121 375.953 105.244C367.329 188.876 352.669 313.461 125 297.08C-102.668 280.698 423.384 6.52391 653.208 92.3111" stroke="white" stroke-width="0.751678"/>
</g>
<g filter="url(#filter0_d_109_5206)">
<rect x="67.6494" y="69.9004" width="434.47" height="460.027" rx="27.8121" fill="white"/>
</g>
<path d="M234.758 108.175C234.758 108.942 234.848 109.633 235.029 110.25C235.224 110.866 235.495 111.4 235.841 111.851C236.201 112.287 236.637 112.625 237.148 112.866C237.66 113.106 238.246 113.226 238.907 113.226C239.554 113.226 240.133 113.106 240.644 112.866C241.17 112.625 241.606 112.287 241.952 111.851C242.312 111.4 242.583 110.866 242.763 110.25C242.959 109.633 243.057 108.942 243.057 108.175C243.057 107.408 242.959 106.717 242.763 106.1C242.583 105.469 242.312 104.935 241.952 104.499C241.606 104.048 241.17 103.703 240.644 103.462C240.133 103.221 239.554 103.101 238.907 103.101C238.246 103.101 237.66 103.229 237.148 103.485C236.637 103.725 236.201 104.071 235.841 104.522C235.495 104.958 235.224 105.492 235.029 106.123C234.848 106.739 234.758 107.423 234.758 108.175ZM246.687 108.175C246.687 109.272 246.552 110.265 246.281 111.152C246.011 112.024 245.627 112.79 245.131 113.452C244.65 114.113 244.071 114.662 243.395 115.098C242.718 115.534 241.974 115.85 241.162 116.045C241.238 116.346 241.403 116.586 241.659 116.767C241.914 116.962 242.237 117.12 242.628 117.24C243.019 117.361 243.47 117.451 243.981 117.511C244.507 117.571 245.071 117.624 245.672 117.669L244.951 120.239C243.778 120.194 242.771 120.074 241.929 119.879C241.102 119.698 240.396 119.443 239.809 119.112C239.238 118.781 238.78 118.375 238.434 117.894C238.103 117.413 237.848 116.857 237.667 116.226C236.735 116.105 235.871 115.85 235.074 115.459C234.277 115.053 233.586 114.512 232.999 113.835C232.413 113.159 231.954 112.347 231.624 111.4C231.293 110.453 231.128 109.378 231.128 108.175C231.128 106.837 231.338 105.664 231.759 104.657C232.18 103.635 232.744 102.778 233.45 102.086C234.172 101.395 234.999 100.876 235.931 100.53C236.878 100.185 237.87 100.012 238.907 100.012C239.975 100.012 240.982 100.185 241.929 100.53C242.876 100.876 243.703 101.395 244.41 102.086C245.116 102.778 245.672 103.635 246.078 104.657C246.484 105.664 246.687 106.837 246.687 108.175ZM255.731 116.316C254.633 116.316 253.686 116.165 252.889 115.865C252.093 115.549 251.431 115.121 250.905 114.579C250.394 114.023 250.011 113.369 249.755 112.617C249.514 111.851 249.394 111.009 249.394 110.092V100.373H252.912V109.799C252.912 110.43 252.98 110.971 253.115 111.422C253.265 111.858 253.461 112.219 253.701 112.505C253.957 112.775 254.258 112.971 254.603 113.091C254.964 113.211 255.355 113.271 255.776 113.271C256.633 113.271 257.324 113.008 257.851 112.482C258.392 111.956 258.662 111.061 258.662 109.799V100.373H262.18V110.092C262.18 111.009 262.052 111.851 261.797 112.617C261.541 113.384 261.15 114.046 260.624 114.602C260.098 115.143 259.429 115.564 258.617 115.865C257.805 116.165 256.843 116.316 255.731 116.316ZM268.518 108.175C268.518 108.942 268.608 109.633 268.788 110.25C268.984 110.866 269.254 111.4 269.6 111.851C269.961 112.287 270.397 112.625 270.908 112.866C271.419 113.106 272.005 113.226 272.667 113.226C273.313 113.226 273.892 113.106 274.403 112.866C274.929 112.625 275.365 112.287 275.711 111.851C276.072 111.4 276.343 110.866 276.523 110.25C276.718 109.633 276.816 108.942 276.816 108.175C276.816 107.408 276.718 106.717 276.523 106.1C276.343 105.469 276.072 104.935 275.711 104.499C275.365 104.048 274.929 103.703 274.403 103.462C273.892 103.221 273.313 103.101 272.667 103.101C272.005 103.101 271.419 103.229 270.908 103.485C270.397 103.725 269.961 104.071 269.6 104.522C269.254 104.958 268.984 105.492 268.788 106.123C268.608 106.739 268.518 107.423 268.518 108.175ZM280.447 108.175C280.447 109.513 280.244 110.693 279.838 111.715C279.447 112.723 278.906 113.572 278.214 114.264C277.523 114.94 276.696 115.451 275.734 115.797C274.787 116.143 273.764 116.316 272.667 116.316C271.599 116.316 270.592 116.143 269.645 115.797C268.698 115.451 267.871 114.94 267.165 114.264C266.458 113.572 265.902 112.723 265.496 111.715C265.09 110.693 264.887 109.513 264.887 108.175C264.887 106.837 265.097 105.664 265.518 104.657C265.939 103.635 266.503 102.778 267.21 102.086C267.931 101.395 268.758 100.876 269.69 100.53C270.637 100.185 271.63 100.012 272.667 100.012C273.734 100.012 274.741 100.185 275.689 100.53C276.636 100.876 277.463 101.395 278.169 102.086C278.876 102.778 279.432 103.635 279.838 104.657C280.244 105.664 280.447 106.837 280.447 108.175ZM294.441 100.373V103.372H289.728V116H286.211V103.372H281.498V100.373H294.441ZM296.702 116V100.373H307.256V103.327H300.22V106.394H306.467V109.28H300.22V113.046H307.775V116H296.702ZM319.793 116C319.357 115.128 318.876 114.249 318.35 113.362C317.839 112.46 317.245 111.543 316.569 110.61C316.358 110.881 316.088 111.257 315.757 111.738C315.441 112.219 315.118 112.73 314.787 113.271C314.471 113.813 314.171 114.331 313.885 114.827C313.6 115.323 313.389 115.714 313.254 116H309.24C309.901 114.782 310.668 113.504 311.54 112.166C312.427 110.828 313.412 109.408 314.494 107.904L309.465 100.373H313.727L316.772 105.243L319.748 100.373H323.762L318.801 107.95C320.064 109.588 321.124 111.107 321.981 112.505C322.838 113.888 323.514 115.053 324.01 116H319.793Z" fill="#212326"/>
<line x1="166.118" y1="149.96" x2="299.165" y2="149.96" stroke="#E9E9E9" stroke-width="0.751678"/>
<line x1="166.118" y1="239.409" x2="431.46" y2="239.409" stroke="#E9E9E9" stroke-width="0.751678"/>
<line x1="166.118" y1="328.109" x2="431.46" y2="328.109" stroke="#E9E9E9" stroke-width="0.751678"/>
<line x1="166.118" y1="417.558" x2="431.46" y2="417.558" stroke="#E9E9E9" stroke-width="0.751678"/>
<line x1="166.118" y1="194.31" x2="431.46" y2="194.31" stroke="#E9E9E9" stroke-width="0.751678"/>
<line x1="166.118" y1="283.759" x2="431.46" y2="283.759" stroke="#E9E9E9" stroke-width="0.751678"/>
<line x1="166.118" y1="372.456" x2="431.46" y2="372.456" stroke="#E9E9E9" stroke-width="0.751678"/>
<line x1="166.118" y1="461.905" x2="431.46" y2="461.905" stroke="#E9E9E9" stroke-width="0.751678"/>
<mask id="mask1_109_5206" style="mask-type:alpha" maskUnits="userSpaceOnUse" x="166" y="171" width="289" height="296">
<rect x="166.118" y="171.379" width="288.644" height="295.409" fill="#D9D9D9"/>
</mask>
<g mask="url(#mask1_109_5206)">
<path d="M169.897 415.273L167.705 417.185C165.742 418.898 164.615 421.376 164.615 423.982L164.615 468.292C164.615 473.274 168.654 477.312 173.635 477.312L448.749 477.312C453.731 477.312 457.77 473.274 457.77 468.292L457.77 372.81C457.77 369.494 453.875 367.708 451.362 369.872L451.14 370.064C449.185 371.747 446.15 370.946 445.28 368.518C444.044 365.064 439.067 365.354 438.239 368.927L436.282 377.372C435.896 379.039 434.411 380.219 432.7 380.219C431.088 380.219 429.664 379.17 429.187 377.63L423.411 358.984C422.52 356.105 419.125 354.873 416.595 356.511C414.001 358.19 410.523 356.848 409.728 353.862L407.879 346.914C407.598 345.858 407.127 344.862 406.49 343.974L401.771 337.4C401.16 336.55 400.703 335.6 400.418 334.593L394.787 314.666C394.186 312.54 392.826 310.709 390.965 309.519L388.073 307.671C386.053 306.38 384.63 304.338 384.118 301.997L381.818 291.478C381.318 289.19 379.877 287.218 377.849 286.046C373.093 283.297 367.025 285.824 365.626 291.135L361.8 305.654L360.059 312.11C358.504 317.877 350.329 317.878 348.629 312.153C348.475 311.634 348.24 311.138 347.935 310.691C345.311 306.845 339.346 308.094 338.487 312.67L335.474 328.703C335.081 330.793 333.255 332.307 331.128 332.307C329.551 332.307 328.093 331.467 327.302 330.102L322.341 321.536C321.969 320.893 321.677 320.206 321.473 319.491L318.753 309.961C316.146 300.831 303.018 301.407 301.222 310.73L293.028 353.249L284.447 394.421C283.97 396.709 282.623 398.723 280.691 400.038L278.482 401.541C277.316 402.334 276.353 403.389 275.669 404.622L273.652 408.257C272.062 411.123 269.042 412.901 265.765 412.901L260.585 412.901C260.243 412.901 259.77 413.33 259.228 414.032C256.277 417.848 250.488 418.586 247.764 414.606C245.378 411.118 240.273 411.002 237.73 414.376L234.162 419.111C233.776 419.623 233.336 420.093 232.851 420.512L225.691 426.69C224.139 428.029 222.157 428.766 220.107 428.766C217.567 428.766 215.158 427.635 213.534 425.681L211.42 423.137C209.706 421.074 207.164 419.881 204.482 419.881L203.058 419.881C201.063 419.881 199.128 420.571 197.583 421.833C193.251 425.37 186.753 423.934 184.316 418.901L183.946 418.137C181.353 412.784 174.379 411.362 169.897 415.273Z" fill="url(#paint1_linear_109_5206)" stroke="#3EBA59" stroke-width="2.25503"/>
<path d="M166.047 409.993L173.193 400.723C175.389 397.873 179.07 396.601 182.557 397.487L187.225 398.672C190.641 399.539 194.248 398.339 196.462 395.597L200.198 390.973C200.895 390.11 201.745 389.383 202.705 388.829L207.894 385.833C209.246 385.053 210.777 384.636 212.339 384.625L217.335 384.589C218.896 384.578 220.427 384.162 221.78 383.381L225.345 381.323C226.354 380.74 227.242 379.966 227.957 379.046L234.237 370.964C234.556 370.554 234.839 370.116 235.082 369.657L237.866 364.411C239.553 361.232 242.968 359.36 246.555 359.647L248.39 359.795C252.808 360.149 256.513 357.086 258.52 353.133C258.917 352.352 259.322 351.769 259.71 351.545C260.73 350.956 264.305 348.892 267.284 347.172C269.138 346.101 270.55 344.407 271.269 342.39L272.407 339.201C272.806 338.082 273.422 337.052 274.221 336.172L275.963 334.25C277.694 332.341 278.526 329.784 278.249 327.222L275.835 304.872L271.945 276.409C270.941 269.063 278.736 263.71 285.231 267.285L294.23 272.237C295.136 272.736 296.121 273.075 297.142 273.24L303.126 274.205C304.696 274.459 306.306 274.163 307.684 273.367V273.367C310.135 271.952 311.476 269.185 311.068 266.384L310.36 261.518C309.689 256.906 313.493 252.87 318.138 253.249V253.249C319.104 253.328 320.046 253.602 320.904 254.054V254.054C325.692 256.581 331.446 253.094 331.422 247.681L331.402 242.98L331.281 234.462C331.222 230.318 333.995 226.666 338.004 225.611L341.676 224.644C344.248 223.967 346.988 224.46 349.163 225.99L351.109 227.359C353.216 228.842 355.855 229.353 358.363 228.764L361.47 228.034C363.656 227.52 365.955 227.84 367.917 228.932L376.741 233.839C377.927 234.499 379.248 234.882 380.603 234.961L385.512 235.245C386.895 235.325 388.238 235.734 389.431 236.438L389.93 236.733C393.15 238.635 397.26 238.043 399.812 235.308V235.308C402.228 232.719 406.062 232.034 409.224 233.626L416.835 237.456C418.511 238.3 420.499 238.243 422.125 237.305V237.305C423.964 236.242 425.04 234.226 424.897 232.106L424.7 229.171C424.46 225.609 428.056 223.042 431.347 224.426V224.426C433.346 225.266 435.661 224.661 436.993 222.949L442.879 215.385" stroke="#EDEDED" stroke-width="1.50336"/>
</g>
<path d="M166.871 137.555L166.871 457.769C166.871 462.751 170.91 466.79 175.891 466.79L454.764 466.79" stroke="#DCDCDC" stroke-width="1.50336"/>
<path d="M116.066 368.466L116.066 378.307L114.875 378.307L114.875 369.716L114.817 369.716L112.414 371.311L112.414 370.1L114.875 368.466L116.066 368.466ZM122.106 378.441C121.382 378.441 120.765 378.244 120.256 377.85C119.747 377.453 119.357 376.878 119.088 376.125C118.819 375.369 118.685 374.456 118.685 373.387C118.685 372.323 118.819 371.415 119.088 370.662C119.361 369.906 119.751 369.33 120.261 368.933C120.773 368.532 121.388 368.332 122.106 368.332C122.823 368.332 123.437 368.532 123.946 368.933C124.458 369.33 124.849 369.906 125.118 370.662C125.391 371.415 125.527 372.323 125.527 373.387C125.527 374.456 125.392 375.369 125.123 376.125C124.854 376.878 124.465 377.453 123.956 377.85C123.446 378.244 122.83 378.441 122.106 378.441ZM122.106 377.384C122.823 377.384 123.381 377.038 123.778 376.346C124.175 375.654 124.374 374.668 124.374 373.387C124.374 372.535 124.282 371.809 124.1 371.21C123.92 370.611 123.661 370.155 123.321 369.841C122.985 369.527 122.58 369.37 122.106 369.37C121.395 369.37 120.839 369.721 120.438 370.422C120.038 371.12 119.838 372.109 119.838 373.387C119.838 374.239 119.928 374.963 120.107 375.558C120.286 376.154 120.544 376.607 120.88 376.918C121.22 377.229 121.628 377.384 122.106 377.384ZM127.855 378.384C127.618 378.384 127.414 378.299 127.244 378.129C127.075 377.959 126.99 377.756 126.99 377.519C126.99 377.282 127.075 377.078 127.244 376.908C127.414 376.739 127.618 376.654 127.855 376.654C128.092 376.654 128.295 376.739 128.465 376.908C128.635 377.078 128.719 377.282 128.719 377.519C128.719 377.676 128.679 377.82 128.599 377.951C128.522 378.082 128.418 378.188 128.287 378.268C128.159 378.345 128.015 378.384 127.855 378.384ZM133.659 378.441C133.255 378.435 132.852 378.358 132.448 378.211C132.044 378.063 131.676 377.815 131.343 377.466C131.01 377.113 130.742 376.638 130.54 376.039C130.339 375.437 130.238 374.681 130.238 373.771C130.238 372.9 130.319 372.128 130.483 371.455C130.646 370.779 130.883 370.211 131.194 369.749C131.505 369.285 131.879 368.933 132.318 368.692C132.76 368.452 133.258 368.332 133.812 368.332C134.363 368.332 134.854 368.442 135.283 368.663C135.715 368.881 136.068 369.186 136.34 369.576C136.612 369.967 136.788 370.417 136.868 370.927L135.696 370.927C135.587 370.484 135.376 370.118 135.062 369.826C134.748 369.535 134.331 369.389 133.812 369.389C133.05 369.389 132.45 369.721 132.011 370.384C131.575 371.047 131.356 371.977 131.352 373.175L131.429 373.175C131.609 372.903 131.822 372.671 132.068 372.478C132.318 372.283 132.594 372.133 132.895 372.027C133.196 371.921 133.515 371.868 133.851 371.868C134.415 371.868 134.93 372.009 135.398 372.291C135.866 372.57 136.24 372.956 136.522 373.449C136.804 373.939 136.945 374.501 136.945 375.135C136.945 375.744 136.809 376.301 136.537 376.808C136.265 377.31 135.882 377.711 135.388 378.009C134.898 378.303 134.322 378.448 133.659 378.441ZM133.659 377.384C134.062 377.384 134.424 377.283 134.745 377.081C135.068 376.88 135.323 376.609 135.509 376.269C135.698 375.93 135.792 375.552 135.792 375.135C135.792 374.729 135.701 374.359 135.518 374.026C135.339 373.689 135.091 373.422 134.773 373.223C134.46 373.025 134.101 372.925 133.697 372.925C133.393 372.925 133.109 372.986 132.847 373.108C132.584 373.226 132.353 373.39 132.155 373.598C131.959 373.806 131.806 374.045 131.694 374.314C131.581 374.58 131.525 374.86 131.525 375.155C131.525 375.546 131.617 375.911 131.799 376.25C131.985 376.59 132.238 376.864 132.558 377.072C132.882 377.28 133.249 377.384 133.659 377.384ZM142.044 378.441C141.32 378.441 140.704 378.244 140.194 377.85C139.685 377.453 139.296 376.878 139.027 376.125C138.758 375.369 138.623 374.456 138.623 373.387C138.623 372.323 138.758 371.415 139.027 370.662C139.299 369.906 139.69 369.33 140.199 368.933C140.712 368.532 141.327 368.332 142.044 368.332C142.762 368.332 143.375 368.532 143.884 368.933C144.397 369.33 144.788 369.906 145.057 370.662C145.329 371.415 145.465 372.323 145.465 373.387C145.465 374.456 145.331 375.369 145.062 376.125C144.793 376.878 144.403 377.453 143.894 377.85C143.385 378.244 142.768 378.441 142.044 378.441ZM142.044 377.384C142.762 377.384 143.319 377.038 143.716 376.346C144.113 375.654 144.312 374.668 144.312 373.387C144.312 372.535 144.221 371.809 144.038 371.21C143.859 370.611 143.599 370.155 143.26 369.841C142.923 369.527 142.518 369.37 142.044 369.37C141.333 369.37 140.777 369.721 140.377 370.422C139.977 371.12 139.776 372.109 139.776 373.387C139.776 374.239 139.866 374.963 140.045 375.558C140.225 376.154 140.483 376.607 140.819 376.918C141.159 377.229 141.567 377.384 142.044 377.384ZM151.269 378.307L151.269 368.466L152.461 368.466L152.461 373.348L152.576 373.348L156.997 368.466L158.553 368.466L154.421 372.906L158.553 378.307L157.112 378.307L153.691 373.733L152.461 375.116L152.461 378.307L151.269 378.307Z" fill="#797979"/>
<path d="M118.459 422.791C117.895 422.791 117.387 422.679 116.936 422.454C116.484 422.23 116.122 421.923 115.85 421.532C115.578 421.141 115.429 420.696 115.403 420.196L116.556 420.196C116.601 420.641 116.803 421.01 117.162 421.301C117.523 421.59 117.956 421.734 118.459 421.734C118.862 421.734 119.221 421.639 119.535 421.45C119.852 421.261 120.1 421.002 120.28 420.672C120.462 420.339 120.554 419.962 120.554 419.543C120.554 419.114 120.459 418.731 120.27 418.394C120.084 418.055 119.828 417.787 119.501 417.592C119.175 417.397 118.802 417.297 118.382 417.294C118.081 417.291 117.772 417.337 117.455 417.433C117.137 417.526 116.876 417.646 116.671 417.794L115.557 417.659L116.153 412.816L121.265 412.816L121.265 413.873L117.152 413.873L116.806 416.775L116.864 416.775C117.065 416.615 117.318 416.482 117.623 416.376C117.927 416.271 118.244 416.218 118.574 416.218C119.176 416.218 119.713 416.362 120.184 416.65C120.658 416.935 121.029 417.326 121.298 417.823C121.571 418.319 121.707 418.886 121.707 419.524C121.707 420.151 121.566 420.712 121.284 421.205C121.005 421.695 120.621 422.083 120.131 422.368C119.641 422.65 119.083 422.791 118.459 422.791ZM124.091 422.733C123.854 422.733 123.651 422.648 123.481 422.478C123.311 422.309 123.226 422.105 123.226 421.868C123.226 421.631 123.311 421.428 123.481 421.258C123.651 421.088 123.854 421.003 124.091 421.003C124.328 421.003 124.532 421.088 124.701 421.258C124.871 421.428 124.956 421.631 124.956 421.868C124.956 422.025 124.916 422.169 124.836 422.301C124.759 422.432 124.655 422.538 124.524 422.618C124.395 422.695 124.251 422.733 124.091 422.733ZM129.895 422.791C129.492 422.784 129.088 422.708 128.685 422.56C128.281 422.413 127.913 422.165 127.579 421.815C127.246 421.463 126.979 420.987 126.777 420.388C126.575 419.786 126.474 419.03 126.474 418.121C126.474 417.249 126.556 416.477 126.719 415.805C126.883 415.129 127.12 414.56 127.43 414.099C127.741 413.635 128.116 413.282 128.555 413.042C128.997 412.802 129.495 412.682 130.049 412.682C130.6 412.682 131.09 412.792 131.519 413.013C131.952 413.231 132.304 413.535 132.576 413.926C132.849 414.317 133.025 414.767 133.105 415.276L131.933 415.276C131.824 414.834 131.612 414.467 131.298 414.176C130.984 413.884 130.568 413.739 130.049 413.739C129.287 413.739 128.686 414.07 128.247 414.733C127.812 415.396 127.592 416.327 127.589 417.525L127.666 417.525C127.845 417.252 128.058 417.02 128.305 416.828C128.555 416.633 128.83 416.482 129.131 416.376C129.432 416.271 129.751 416.218 130.088 416.218C130.651 416.218 131.167 416.359 131.635 416.641C132.102 416.919 132.477 417.305 132.759 417.799C133.041 418.289 133.182 418.851 133.182 419.485C133.182 420.094 133.046 420.651 132.773 421.157C132.501 421.66 132.118 422.06 131.625 422.358C131.135 422.653 130.558 422.797 129.895 422.791ZM129.895 421.734C130.299 421.734 130.661 421.633 130.981 421.431C131.305 421.229 131.559 420.959 131.745 420.619C131.934 420.279 132.029 419.902 132.029 419.485C132.029 419.078 131.937 418.708 131.755 418.375C131.575 418.039 131.327 417.771 131.01 417.573C130.696 417.374 130.337 417.275 129.934 417.275C129.629 417.275 129.346 417.336 129.083 417.458C128.821 417.576 128.59 417.739 128.391 417.948C128.196 418.156 128.042 418.394 127.93 418.663C127.818 418.929 127.762 419.21 127.762 419.504C127.762 419.895 127.853 420.26 128.036 420.6C128.222 420.939 128.475 421.213 128.795 421.421C129.119 421.63 129.485 421.734 129.895 421.734ZM138.281 422.791C137.557 422.791 136.94 422.594 136.431 422.2C135.922 421.803 135.533 421.228 135.263 420.475C134.994 419.719 134.86 418.806 134.86 417.736C134.86 416.673 134.994 415.765 135.263 415.012C135.536 414.256 135.926 413.679 136.436 413.282C136.948 412.882 137.563 412.682 138.281 412.682C138.998 412.682 139.612 412.882 140.121 413.282C140.634 413.679 141.024 414.256 141.293 415.012C141.566 415.765 141.702 416.673 141.702 417.736C141.702 418.806 141.567 419.719 141.298 420.475C141.029 421.228 140.64 421.803 140.131 422.2C139.621 422.594 139.005 422.791 138.281 422.791ZM138.281 421.734C138.998 421.734 139.556 421.388 139.953 420.696C140.35 420.004 140.549 419.017 140.549 417.736C140.549 416.884 140.457 416.159 140.275 415.56C140.095 414.961 139.836 414.504 139.496 414.19C139.16 413.876 138.755 413.719 138.281 413.719C137.57 413.719 137.014 414.07 136.614 414.772C136.213 415.47 136.013 416.458 136.013 417.736C136.013 418.588 136.103 419.312 136.282 419.908C136.461 420.504 136.719 420.957 137.056 421.268C137.395 421.578 137.804 421.734 138.281 421.734ZM147.506 422.656L147.506 412.816L148.698 412.816L148.698 417.698L148.813 417.698L153.233 412.816L154.79 412.816L150.658 417.256L154.79 422.656L153.349 422.656L149.928 418.082L148.698 419.466L148.698 422.656L147.506 422.656Z" fill="#797979"/>
<path d="M183.793 493.314L183.793 492.45L187.041 488.894C187.422 488.478 187.736 488.116 187.983 487.808C188.229 487.497 188.412 487.206 188.53 486.934C188.652 486.658 188.713 486.37 188.713 486.069C188.713 485.723 188.63 485.423 188.463 485.17C188.3 484.917 188.075 484.722 187.79 484.584C187.505 484.446 187.185 484.378 186.829 484.378C186.451 484.378 186.122 484.456 185.84 484.613C185.561 484.767 185.345 484.983 185.191 485.262C185.04 485.54 184.965 485.867 184.965 486.242L183.831 486.242C183.831 485.665 183.964 485.159 184.23 484.724C184.496 484.288 184.858 483.948 185.316 483.705C185.777 483.461 186.295 483.34 186.868 483.34C187.444 483.34 187.955 483.461 188.401 483.705C188.846 483.948 189.195 484.277 189.448 484.69C189.701 485.103 189.828 485.563 189.828 486.069C189.828 486.431 189.762 486.785 189.631 487.131C189.502 487.473 189.278 487.856 188.958 488.279C188.641 488.699 188.2 489.211 187.637 489.817L185.426 492.181L185.426 492.257L190.001 492.257L190.001 493.314L183.793 493.314ZM192.831 492.056C192.594 492.056 192.39 491.971 192.22 491.801C192.051 491.631 191.966 491.428 191.966 491.191C191.966 490.954 192.051 490.75 192.22 490.581C192.39 490.411 192.594 490.326 192.831 490.326C193.068 490.326 193.271 490.411 193.441 490.581C193.611 490.75 193.695 490.954 193.695 491.191C193.695 491.348 193.655 491.492 193.575 491.623C193.498 491.755 193.394 491.86 193.263 491.94C193.135 492.017 192.991 492.056 192.831 492.056ZM192.831 487.078C192.594 487.078 192.39 486.993 192.22 486.823C192.051 486.653 191.966 486.45 191.966 486.213C191.966 485.976 192.051 485.773 192.22 485.603C192.39 485.433 192.594 485.348 192.831 485.348C193.068 485.348 193.271 485.433 193.441 485.603C193.611 485.773 193.695 485.976 193.695 486.213C193.695 486.37 193.655 486.514 193.575 486.645C193.498 486.777 193.394 486.882 193.263 486.963C193.135 487.039 192.991 487.078 192.831 487.078ZM198.921 493.449C198.197 493.449 197.58 493.252 197.071 492.858C196.561 492.461 196.172 491.886 195.903 491.133C195.634 490.377 195.5 489.464 195.5 488.394C195.5 487.331 195.634 486.423 195.903 485.67C196.175 484.914 196.566 484.338 197.076 483.94C197.588 483.54 198.203 483.34 198.921 483.34C199.638 483.34 200.252 483.54 200.761 483.94C201.273 484.338 201.664 484.914 201.933 485.67C202.205 486.423 202.342 487.331 202.342 488.394C202.342 489.464 202.207 490.377 201.938 491.133C201.669 491.886 201.28 492.461 200.77 492.858C200.261 493.252 199.645 493.449 198.921 493.449ZM198.921 492.392C199.638 492.392 200.195 492.046 200.593 491.354C200.99 490.662 201.188 489.676 201.188 488.394C201.188 487.542 201.097 486.817 200.915 486.218C200.735 485.619 200.476 485.162 200.136 484.848C199.8 484.535 199.395 484.378 198.921 484.378C198.21 484.378 197.654 484.728 197.253 485.43C196.853 486.128 196.653 487.116 196.653 488.394C196.653 489.246 196.742 489.97 196.922 490.566C197.101 491.162 197.359 491.615 197.695 491.926C198.035 492.237 198.443 492.392 198.921 492.392ZM203.937 491.296L203.937 490.316L208.261 483.474L208.972 483.474L208.972 484.993L208.492 484.993L205.224 490.163L205.224 490.239L211.048 490.239L211.048 491.296L203.937 491.296ZM208.569 493.314L208.569 490.999L208.569 490.542L208.569 483.474L209.702 483.474L209.702 493.314L208.569 493.314ZM217.23 493.314L215.981 493.314L219.594 483.474L220.824 483.474L224.437 493.314L223.188 493.314L220.248 485.031L220.171 485.031L217.23 493.314ZM217.692 489.471L222.727 489.471L222.727 490.528L217.692 490.528L217.692 489.471ZM225.816 493.314L225.816 485.934L226.912 485.934L226.912 487.087L227.008 487.087C227.162 486.693 227.41 486.388 227.753 486.17C228.096 485.949 228.507 485.838 228.988 485.838C229.474 485.838 229.88 485.949 230.203 486.17C230.53 486.388 230.785 486.693 230.967 487.087L231.044 487.087C231.233 486.706 231.517 486.404 231.894 486.179C232.272 485.952 232.726 485.838 233.254 485.838C233.914 485.838 234.454 486.045 234.873 486.458C235.293 486.868 235.503 487.507 235.503 488.375L235.503 493.314L234.369 493.314L234.369 488.375C234.369 487.831 234.22 487.441 233.922 487.208C233.624 486.974 233.273 486.857 232.87 486.857C232.351 486.857 231.949 487.014 231.664 487.328C231.379 487.638 231.236 488.032 231.236 488.51L231.236 493.314L230.083 493.314L230.083 488.26C230.083 487.84 229.947 487.502 229.675 487.246C229.402 486.987 229.052 486.857 228.622 486.857C228.328 486.857 228.052 486.935 227.796 487.092C227.543 487.249 227.338 487.467 227.181 487.746C227.027 488.021 226.95 488.34 226.95 488.702L226.95 493.314L225.816 493.314Z" fill="#797979"/>
<path d="M254.562 493.314L254.562 492.45L257.81 488.894C258.192 488.478 258.505 488.116 258.752 487.808C258.999 487.497 259.181 487.206 259.3 486.934C259.422 486.658 259.482 486.37 259.482 486.069C259.482 485.723 259.399 485.423 259.233 485.17C259.069 484.917 258.845 484.722 258.56 484.584C258.275 484.446 257.955 484.378 257.599 484.378C257.221 484.378 256.891 484.456 256.609 484.613C256.331 484.767 256.114 484.983 255.961 485.262C255.81 485.54 255.735 485.867 255.735 486.242L254.601 486.242C254.601 485.665 254.734 485.159 255 484.724C255.265 484.288 255.627 483.948 256.085 483.705C256.547 483.461 257.064 483.34 257.637 483.34C258.214 483.34 258.725 483.461 259.17 483.705C259.615 483.948 259.965 484.277 260.218 484.69C260.471 485.103 260.597 485.563 260.597 486.069C260.597 486.431 260.531 486.785 260.4 487.131C260.272 487.473 260.048 487.856 259.727 488.279C259.41 488.699 258.97 489.211 258.406 489.817L256.196 492.181L256.196 492.257L260.77 492.257L260.77 493.314L254.562 493.314ZM263.6 492.056C263.363 492.056 263.16 491.971 262.99 491.801C262.82 491.631 262.735 491.428 262.735 491.191C262.735 490.954 262.82 490.75 262.99 490.581C263.16 490.411 263.363 490.326 263.6 490.326C263.837 490.326 264.041 490.411 264.21 490.581C264.38 490.75 264.465 490.954 264.465 491.191C264.465 491.348 264.425 491.492 264.345 491.623C264.268 491.755 264.164 491.86 264.033 491.94C263.904 492.017 263.76 492.056 263.6 492.056ZM263.6 487.078C263.363 487.078 263.16 486.993 262.99 486.823C262.82 486.653 262.735 486.45 262.735 486.213C262.735 485.976 262.82 485.773 262.99 485.603C263.16 485.433 263.363 485.348 263.6 485.348C263.837 485.348 264.041 485.433 264.21 485.603C264.38 485.773 264.465 485.976 264.465 486.213C264.465 486.37 264.425 486.514 264.345 486.645C264.268 486.777 264.164 486.882 264.033 486.963C263.904 487.039 263.76 487.078 263.6 487.078ZM266.25 491.296L266.25 490.316L270.574 483.474L271.285 483.474L271.285 484.993L270.805 484.993L267.538 490.163L267.538 490.239L273.361 490.239L273.361 491.296L266.25 491.296ZM270.882 493.314L270.882 490.999L270.882 490.542L270.882 483.474L272.016 483.474L272.016 493.314L270.882 493.314ZM278.237 493.449C277.673 493.449 277.165 493.337 276.714 493.113C276.262 492.888 275.9 492.581 275.628 492.19C275.355 491.799 275.206 491.354 275.181 490.854L276.334 490.854C276.379 491.3 276.581 491.668 276.939 491.96C277.301 492.248 277.734 492.392 278.237 492.392C278.64 492.392 278.999 492.297 279.313 492.108C279.63 491.919 279.878 491.66 280.058 491.33C280.24 490.997 280.331 490.621 280.331 490.201C280.331 489.772 280.237 489.389 280.048 489.053C279.862 488.713 279.606 488.446 279.279 488.25C278.953 488.055 278.579 487.956 278.16 487.952C277.859 487.949 277.55 487.996 277.232 488.092C276.915 488.185 276.654 488.305 276.449 488.452L275.335 488.318L275.93 483.474L281.043 483.474L281.043 484.531L276.93 484.531L276.584 487.433L276.641 487.433C276.843 487.273 277.096 487.14 277.401 487.035C277.705 486.929 278.022 486.876 278.352 486.876C278.954 486.876 279.491 487.02 279.962 487.309C280.436 487.594 280.807 487.984 281.076 488.481C281.349 488.977 281.485 489.544 281.485 490.182C281.485 490.81 281.344 491.37 281.062 491.863C280.783 492.354 280.399 492.741 279.909 493.026C279.419 493.308 278.861 493.449 278.237 493.449ZM287.775 493.314L286.526 493.314L290.139 483.474L291.369 483.474L294.982 493.314L293.733 493.314L290.793 485.031L290.716 485.031L287.775 493.314ZM288.237 489.471L293.272 489.471L293.272 490.528L288.237 490.528L288.237 489.471ZM296.361 493.314L296.361 485.934L297.457 485.934L297.457 487.087L297.553 487.087C297.707 486.693 297.955 486.388 298.298 486.17C298.64 485.949 299.052 485.838 299.533 485.838C300.019 485.838 300.425 485.949 300.748 486.17C301.075 486.388 301.329 486.693 301.512 487.087L301.589 487.087C301.778 486.706 302.061 486.404 302.439 486.179C302.817 485.952 303.271 485.838 303.799 485.838C304.459 485.838 304.999 486.045 305.418 486.458C305.838 486.868 306.048 487.507 306.048 488.375L306.048 493.314L304.914 493.314L304.914 488.375C304.914 487.831 304.765 487.441 304.467 487.208C304.169 486.974 303.818 486.857 303.415 486.857C302.896 486.857 302.494 487.014 302.209 487.328C301.924 487.638 301.781 488.032 301.781 488.51L301.781 493.314L300.628 493.314L300.628 488.26C300.628 487.84 300.492 487.502 300.22 487.246C299.947 486.987 299.597 486.857 299.167 486.857C298.873 486.857 298.597 486.935 298.341 487.092C298.088 487.249 297.883 487.467 297.726 487.746C297.572 488.021 297.495 488.34 297.495 488.702L297.495 493.314L296.361 493.314Z" fill="#797979"/>
<path d="M328.722 493.449C328.088 493.449 327.522 493.34 327.026 493.122C326.532 492.904 326.14 492.602 325.848 492.214C325.56 491.823 325.403 491.37 325.378 490.854L326.588 490.854C326.614 491.172 326.723 491.445 326.915 491.676C327.107 491.903 327.359 492.08 327.67 492.205C327.98 492.329 328.325 492.392 328.703 492.392C329.125 492.392 329.5 492.318 329.827 492.171C330.154 492.024 330.41 491.819 330.596 491.556C330.781 491.293 330.874 490.989 330.874 490.643C330.874 490.281 330.785 489.962 330.605 489.687C330.426 489.408 330.163 489.19 329.817 489.033C329.471 488.876 329.048 488.798 328.549 488.798L327.761 488.798L327.761 487.741L328.549 487.741C328.94 487.741 329.282 487.67 329.577 487.53C329.875 487.389 330.107 487.19 330.274 486.934C330.443 486.677 330.528 486.376 330.528 486.03C330.528 485.697 330.455 485.407 330.307 485.161C330.16 484.914 329.952 484.722 329.683 484.584C329.417 484.446 329.103 484.378 328.741 484.378C328.401 484.378 328.081 484.44 327.78 484.565C327.482 484.687 327.239 484.864 327.05 485.098C326.861 485.329 326.758 485.608 326.742 485.934L325.589 485.934C325.608 485.419 325.764 484.967 326.055 484.579C326.347 484.189 326.728 483.884 327.199 483.666C327.673 483.449 328.193 483.34 328.76 483.34C329.369 483.34 329.891 483.463 330.327 483.71C330.762 483.953 331.097 484.275 331.331 484.675C331.565 485.076 331.681 485.508 331.681 485.973C331.681 486.527 331.536 486.999 331.244 487.39C330.956 487.781 330.564 488.052 330.067 488.202L330.067 488.279C330.688 488.382 331.174 488.646 331.523 489.072C331.872 489.495 332.047 490.018 332.047 490.643C332.047 491.178 331.901 491.658 331.609 492.084C331.321 492.507 330.927 492.84 330.427 493.084C329.928 493.327 329.359 493.449 328.722 493.449ZM334.857 492.056C334.62 492.056 334.417 491.971 334.247 491.801C334.077 491.631 333.993 491.428 333.993 491.191C333.993 490.954 334.077 490.75 334.247 490.581C334.417 490.411 334.62 490.326 334.857 490.326C335.094 490.326 335.298 490.411 335.468 490.581C335.637 490.75 335.722 490.954 335.722 491.191C335.722 491.348 335.682 491.492 335.602 491.623C335.525 491.755 335.421 491.86 335.29 491.94C335.162 492.017 335.018 492.056 334.857 492.056ZM334.857 487.078C334.62 487.078 334.417 486.993 334.247 486.823C334.077 486.653 333.993 486.45 333.993 486.213C333.993 485.976 334.077 485.773 334.247 485.603C334.417 485.433 334.62 485.348 334.857 485.348C335.094 485.348 335.298 485.433 335.468 485.603C335.637 485.773 335.722 485.976 335.722 486.213C335.722 486.37 335.682 486.514 335.602 486.645C335.525 486.777 335.421 486.882 335.29 486.963C335.162 487.039 335.018 487.078 334.857 487.078ZM340.947 493.449C340.224 493.449 339.607 493.252 339.098 492.858C338.588 492.461 338.199 491.886 337.93 491.133C337.661 490.377 337.526 489.464 337.526 488.394C337.526 487.331 337.661 486.423 337.93 485.67C338.202 484.914 338.593 484.338 339.102 483.94C339.615 483.54 340.23 483.34 340.947 483.34C341.665 483.34 342.278 483.54 342.788 483.94C343.3 484.338 343.691 484.914 343.96 485.67C344.232 486.423 344.368 487.331 344.368 488.394C344.368 489.464 344.234 490.377 343.965 491.133C343.696 491.886 343.307 492.461 342.797 492.858C342.288 493.252 341.671 493.449 340.947 493.449ZM340.947 492.392C341.665 492.392 342.222 492.046 342.62 491.354C343.017 490.662 343.215 489.676 343.215 488.394C343.215 487.542 343.124 486.817 342.941 486.218C342.762 485.619 342.503 485.162 342.163 484.848C341.827 484.535 341.422 484.378 340.947 484.378C340.236 484.378 339.681 484.728 339.28 485.43C338.88 486.128 338.68 487.116 338.68 488.394C338.68 489.246 338.769 489.97 338.949 490.566C339.128 491.162 339.386 491.615 339.722 491.926C340.062 492.237 340.47 492.392 340.947 492.392ZM345.964 491.296L345.964 490.316L350.288 483.474L350.999 483.474L350.999 484.993L350.519 484.993L347.251 490.163L347.251 490.239L353.075 490.239L353.075 491.296L345.964 491.296ZM350.595 493.314L350.595 490.999L350.595 490.542L350.595 483.474L351.729 483.474L351.729 493.314L350.595 493.314ZM359.257 493.314L358.008 493.314L361.621 483.474L362.851 483.474L366.464 493.314L365.215 493.314L362.275 485.031L362.198 485.031L359.257 493.314ZM359.718 489.471L364.754 489.471L364.754 490.528L359.718 490.528L359.718 489.471ZM367.843 493.314L367.843 485.934L368.939 485.934L368.939 487.087L369.035 487.087C369.189 486.693 369.437 486.388 369.78 486.17C370.122 485.949 370.534 485.838 371.014 485.838C371.501 485.838 371.907 485.949 372.23 486.17C372.557 486.388 372.811 486.693 372.994 487.087L373.071 487.087C373.26 486.706 373.543 486.404 373.921 486.179C374.299 485.952 374.753 485.838 375.281 485.838C375.941 485.838 376.481 486.045 376.9 486.458C377.32 486.868 377.53 487.507 377.53 488.375L377.53 493.314L376.396 493.314L376.396 488.375C376.396 487.831 376.247 487.441 375.949 487.208C375.651 486.974 375.3 486.857 374.897 486.857C374.378 486.857 373.976 487.014 373.691 487.328C373.406 487.638 373.263 488.032 373.263 488.51L373.263 493.314L372.11 493.314L372.11 488.26C372.11 487.84 371.974 487.502 371.702 487.246C371.429 486.987 371.078 486.857 370.649 486.857C370.355 486.857 370.079 486.935 369.823 487.092C369.57 487.249 369.365 487.467 369.208 487.746C369.054 488.021 368.977 488.34 368.977 488.702L368.977 493.314L367.843 493.314Z" fill="#797979"/>
<path d="M111.152 333.959L111.152 333.094L114.4 329.539C114.782 329.122 115.096 328.76 115.342 328.453C115.589 328.142 115.771 327.851 115.89 327.578C116.012 327.303 116.072 327.015 116.072 326.713C116.072 326.367 115.989 326.068 115.823 325.815C115.659 325.562 115.435 325.366 115.15 325.229C114.865 325.091 114.545 325.022 114.189 325.022C113.811 325.022 113.481 325.101 113.199 325.258C112.921 325.411 112.704 325.628 112.551 325.906C112.4 326.185 112.325 326.512 112.325 326.886L111.191 326.886C111.191 326.31 111.324 325.804 111.59 325.368C111.855 324.932 112.217 324.593 112.676 324.349C113.137 324.106 113.654 323.984 114.227 323.984C114.804 323.984 115.315 324.106 115.76 324.349C116.205 324.593 116.555 324.921 116.808 325.334C117.061 325.748 117.187 326.207 117.187 326.713C117.187 327.075 117.122 327.429 116.99 327.775C116.862 328.118 116.638 328.501 116.318 328.924C116 329.343 115.56 329.856 114.996 330.461L112.786 332.825L112.786 332.902L117.36 332.902L117.36 333.959L111.152 333.959ZM122.554 334.094C121.83 334.094 121.214 333.897 120.704 333.503C120.195 333.105 119.806 332.53 119.537 331.778C119.268 331.022 119.133 330.109 119.133 329.039C119.133 327.975 119.268 327.067 119.537 326.315C119.809 325.559 120.2 324.982 120.709 324.585C121.222 324.185 121.837 323.984 122.554 323.984C123.272 323.984 123.885 324.185 124.394 324.585C124.907 324.982 125.298 325.559 125.567 326.315C125.839 327.067 125.975 327.975 125.975 329.039C125.975 330.109 125.841 331.022 125.571 331.778C125.302 332.53 124.913 333.105 124.404 333.503C123.895 333.897 123.278 334.094 122.554 334.094ZM122.554 333.036C123.272 333.036 123.829 332.691 124.226 331.999C124.623 331.307 124.822 330.32 124.822 329.039C124.822 328.187 124.731 327.461 124.548 326.862C124.369 326.263 124.109 325.807 123.77 325.493C123.433 325.179 123.028 325.022 122.554 325.022C121.843 325.022 121.287 325.373 120.887 326.074C120.486 326.773 120.286 327.761 120.286 329.039C120.286 329.891 120.376 330.615 120.555 331.211C120.735 331.806 120.993 332.26 121.329 332.57C121.668 332.881 122.077 333.036 122.554 333.036ZM128.303 334.036C128.066 334.036 127.863 333.951 127.693 333.781C127.523 333.611 127.438 333.408 127.438 333.171C127.438 332.934 127.523 332.731 127.693 332.561C127.863 332.391 128.066 332.306 128.303 332.306C128.54 332.306 128.743 332.391 128.913 332.561C129.083 332.731 129.168 332.934 129.168 333.171C129.168 333.328 129.128 333.472 129.048 333.603C128.971 333.735 128.867 333.84 128.735 333.921C128.607 333.997 128.463 334.036 128.303 334.036ZM134.107 334.094C133.704 334.087 133.3 334.01 132.896 333.863C132.493 333.716 132.124 333.467 131.791 333.118C131.458 332.766 131.191 332.29 130.989 331.691C130.787 331.089 130.686 330.333 130.686 329.423C130.686 328.552 130.768 327.78 130.931 327.107C131.095 326.432 131.332 325.863 131.642 325.402C131.953 324.937 132.328 324.585 132.767 324.345C133.209 324.104 133.707 323.984 134.261 323.984C134.812 323.984 135.302 324.095 135.731 324.316C136.164 324.534 136.516 324.838 136.788 325.229C137.06 325.62 137.237 326.07 137.317 326.579L136.144 326.579C136.035 326.137 135.824 325.77 135.51 325.479C135.196 325.187 134.78 325.041 134.261 325.041C133.499 325.041 132.898 325.373 132.459 326.036C132.023 326.699 131.804 327.63 131.801 328.828L131.878 328.828C132.057 328.555 132.27 328.323 132.517 328.131C132.767 327.935 133.042 327.785 133.343 327.679C133.644 327.573 133.963 327.521 134.299 327.521C134.863 327.521 135.379 327.662 135.846 327.943C136.314 328.222 136.689 328.608 136.971 329.101C137.253 329.591 137.394 330.154 137.394 330.788C137.394 331.396 137.257 331.954 136.985 332.46C136.713 332.963 136.33 333.363 135.837 333.661C135.347 333.956 134.77 334.1 134.107 334.094ZM134.107 333.036C134.511 333.036 134.873 332.936 135.193 332.734C135.517 332.532 135.771 332.261 135.957 331.922C136.146 331.582 136.24 331.204 136.24 330.788C136.24 330.381 136.149 330.011 135.967 329.678C135.787 329.342 135.539 329.074 135.222 328.876C134.908 328.677 134.549 328.578 134.146 328.578C133.841 328.578 133.558 328.639 133.295 328.76C133.032 328.879 132.802 329.042 132.603 329.25C132.408 329.459 132.254 329.697 132.142 329.966C132.03 330.232 131.974 330.512 131.974 330.807C131.974 331.198 132.065 331.563 132.248 331.903C132.433 332.242 132.687 332.516 133.007 332.724C133.33 332.932 133.697 333.036 134.107 333.036ZM142.493 334.094C141.769 334.094 141.152 333.897 140.643 333.503C140.134 333.105 139.744 332.53 139.475 331.778C139.206 331.022 139.072 330.109 139.072 329.039C139.072 327.975 139.206 327.067 139.475 326.315C139.748 325.559 140.138 324.982 140.648 324.585C141.16 324.185 141.775 323.984 142.493 323.984C143.21 323.984 143.824 324.185 144.333 324.585C144.845 324.982 145.236 325.559 145.505 326.315C145.777 327.067 145.914 327.975 145.914 329.039C145.914 330.109 145.779 331.022 145.51 331.778C145.241 332.53 144.852 333.105 144.342 333.503C143.833 333.897 143.217 334.094 142.493 334.094ZM142.493 333.036C143.21 333.036 143.768 332.691 144.165 331.999C144.562 331.307 144.76 330.32 144.76 329.039C144.76 328.187 144.669 327.461 144.487 326.862C144.307 326.263 144.048 325.807 143.708 325.493C143.372 325.179 142.967 325.022 142.493 325.022C141.782 325.022 141.226 325.373 140.825 326.074C140.425 326.773 140.225 327.761 140.225 329.039C140.225 329.891 140.314 330.615 140.494 331.211C140.673 331.806 140.931 332.26 141.267 332.57C141.607 332.881 142.015 333.036 142.493 333.036ZM151.718 333.959L151.718 324.119L152.909 324.119L152.909 329L153.025 329L157.445 324.119L159.002 324.119L154.87 328.558L159.002 333.959L157.56 333.959L154.139 329.385L152.909 330.769L152.909 333.959L151.718 333.959Z" fill="#797979"/>
<path d="M114.266 289.744C113.632 289.744 113.066 289.635 112.57 289.417C112.077 289.199 111.684 288.897 111.393 288.509C111.104 288.118 110.947 287.665 110.922 287.149L112.133 287.149C112.158 287.466 112.267 287.74 112.459 287.971C112.651 288.198 112.903 288.375 113.214 288.499C113.524 288.624 113.869 288.687 114.247 288.687C114.669 288.687 115.044 288.613 115.371 288.466C115.698 288.318 115.954 288.113 116.14 287.851C116.326 287.588 116.418 287.284 116.418 286.938C116.418 286.576 116.329 286.257 116.149 285.982C115.97 285.703 115.707 285.485 115.361 285.328C115.015 285.171 114.593 285.093 114.093 285.093L113.305 285.093L113.305 284.036L114.093 284.036C114.484 284.036 114.826 283.965 115.121 283.824C115.419 283.684 115.651 283.485 115.818 283.229C115.988 282.972 116.072 282.671 116.072 282.325C116.072 281.992 115.999 281.702 115.851 281.456C115.704 281.209 115.496 281.017 115.227 280.879C114.961 280.741 114.647 280.673 114.285 280.673C113.946 280.673 113.625 280.735 113.324 280.86C113.026 280.982 112.783 281.159 112.594 281.393C112.405 281.624 112.302 281.903 112.286 282.229L111.133 282.229C111.152 281.714 111.308 281.262 111.599 280.874C111.891 280.484 112.272 280.179 112.743 279.961C113.217 279.744 113.737 279.635 114.304 279.635C114.913 279.635 115.435 279.758 115.871 280.005C116.306 280.248 116.641 280.57 116.875 280.97C117.109 281.371 117.226 281.803 117.226 282.268C117.226 282.822 117.08 283.294 116.788 283.685C116.5 284.076 116.108 284.347 115.611 284.497L115.611 284.574C116.233 284.676 116.718 284.941 117.067 285.367C117.416 285.79 117.591 286.313 117.591 286.938C117.591 287.473 117.445 287.953 117.154 288.379C116.865 288.802 116.471 289.135 115.972 289.379C115.472 289.622 114.903 289.744 114.266 289.744ZM122.765 289.744C122.042 289.744 121.425 289.547 120.916 289.153C120.406 288.756 120.017 288.181 119.748 287.428C119.479 286.672 119.345 285.759 119.345 284.689C119.345 283.626 119.479 282.718 119.748 281.965C120.02 281.209 120.411 280.632 120.92 280.235C121.433 279.835 122.048 279.635 122.765 279.635C123.483 279.635 124.096 279.835 124.606 280.235C125.118 280.632 125.509 281.209 125.778 281.965C126.05 282.718 126.186 283.626 126.186 284.689C126.186 285.759 126.052 286.672 125.783 287.428C125.514 288.181 125.125 288.756 124.615 289.153C124.106 289.547 123.489 289.744 122.765 289.744ZM122.765 288.687C123.483 288.687 124.04 288.341 124.438 287.649C124.835 286.957 125.033 285.971 125.033 284.689C125.033 283.837 124.942 283.112 124.759 282.513C124.58 281.914 124.321 281.457 123.981 281.143C123.645 280.829 123.24 280.673 122.765 280.673C122.054 280.673 121.499 281.023 121.098 281.725C120.698 282.423 120.498 283.411 120.498 284.689C120.498 285.541 120.587 286.265 120.767 286.861C120.946 287.457 121.204 287.91 121.54 288.221C121.88 288.532 122.288 288.687 122.765 288.687ZM128.514 289.686C128.277 289.686 128.074 289.601 127.904 289.432C127.734 289.262 127.65 289.058 127.65 288.821C127.65 288.584 127.734 288.381 127.904 288.211C128.074 288.041 128.277 287.957 128.514 287.957C128.751 287.957 128.955 288.041 129.125 288.211C129.294 288.381 129.379 288.584 129.379 288.821C129.379 288.978 129.339 289.122 129.259 289.254C129.182 289.385 129.078 289.491 128.947 289.571C128.819 289.648 128.675 289.686 128.514 289.686ZM134.319 289.744C133.915 289.738 133.511 289.661 133.108 289.513C132.704 289.366 132.336 289.118 132.003 288.769C131.67 288.416 131.402 287.941 131.2 287.342C130.998 286.739 130.898 285.983 130.898 285.074C130.898 284.202 130.979 283.43 131.143 282.758C131.306 282.082 131.543 281.513 131.854 281.052C132.164 280.588 132.539 280.235 132.978 279.995C133.42 279.755 133.918 279.635 134.472 279.635C135.023 279.635 135.513 279.745 135.943 279.966C136.375 280.184 136.727 280.488 137 280.879C137.272 281.27 137.448 281.72 137.528 282.229L136.356 282.229C136.247 281.787 136.035 281.42 135.722 281.129C135.408 280.837 134.991 280.692 134.472 280.692C133.71 280.692 133.109 281.023 132.671 281.686C132.235 282.349 132.015 283.28 132.012 284.478L132.089 284.478C132.269 284.206 132.482 283.973 132.728 283.781C132.978 283.586 133.253 283.435 133.555 283.33C133.856 283.224 134.174 283.171 134.511 283.171C135.074 283.171 135.59 283.312 136.058 283.594C136.526 283.872 136.9 284.258 137.182 284.752C137.464 285.242 137.605 285.804 137.605 286.438C137.605 287.047 137.469 287.604 137.197 288.11C136.924 288.613 136.542 289.014 136.048 289.311C135.558 289.606 134.982 289.75 134.319 289.744ZM134.319 288.687C134.722 288.687 135.084 288.586 135.404 288.384C135.728 288.182 135.983 287.912 136.168 287.572C136.357 287.233 136.452 286.855 136.452 286.438C136.452 286.031 136.361 285.661 136.178 285.328C135.999 284.992 135.75 284.725 135.433 284.526C135.119 284.327 134.761 284.228 134.357 284.228C134.053 284.228 133.769 284.289 133.507 284.411C133.244 284.529 133.013 284.693 132.815 284.901C132.619 285.109 132.466 285.348 132.353 285.617C132.241 285.882 132.185 286.163 132.185 286.457C132.185 286.848 132.277 287.213 132.459 287.553C132.645 287.892 132.898 288.166 133.218 288.375C133.542 288.583 133.909 288.687 134.319 288.687ZM142.704 289.744C141.98 289.744 141.364 289.547 140.854 289.153C140.345 288.756 139.956 288.181 139.687 287.428C139.418 286.672 139.283 285.759 139.283 284.689C139.283 283.626 139.418 282.718 139.687 281.965C139.959 281.209 140.35 280.632 140.859 280.235C141.372 279.835 141.987 279.635 142.704 279.635C143.422 279.635 144.035 279.835 144.544 280.235C145.057 280.632 145.448 281.209 145.717 281.965C145.989 282.718 146.125 283.626 146.125 284.689C146.125 285.759 145.991 286.672 145.721 287.428C145.452 288.181 145.063 288.756 144.554 289.153C144.045 289.547 143.428 289.744 142.704 289.744ZM142.704 288.687C143.422 288.687 143.979 288.341 144.376 287.649C144.773 286.957 144.972 285.971 144.972 284.689C144.972 283.837 144.881 283.112 144.698 282.513C144.519 281.914 144.259 281.457 143.92 281.143C143.583 280.829 143.178 280.673 142.704 280.673C141.993 280.673 141.437 281.023 141.037 281.725C140.636 282.423 140.436 283.411 140.436 284.689C140.436 285.541 140.526 286.265 140.705 286.861C140.885 287.457 141.143 287.91 141.479 288.221C141.818 288.532 142.227 288.687 142.704 288.687ZM151.929 289.609L151.929 279.769L153.121 279.769L153.121 284.651L153.236 284.651L157.656 279.769L159.213 279.769L155.081 284.209L159.213 289.609L157.772 289.609L154.351 285.035L153.121 286.419L153.121 289.609L151.929 289.609Z" fill="#797979"/>
<path d="M110.677 243.242L110.677 242.262L115.002 235.42L115.713 235.42L115.713 236.938L115.232 236.938L111.965 242.108L111.965 242.185L117.788 242.185L117.788 243.242L110.677 243.242ZM115.309 245.26L115.309 242.944L115.309 242.487L115.309 235.42L116.443 235.42L116.443 245.26L115.309 245.26ZM122.799 245.394C122.075 245.394 121.458 245.197 120.949 244.803C120.439 244.406 120.05 243.831 119.781 243.078C119.512 242.322 119.378 241.41 119.378 240.34C119.378 239.276 119.512 238.368 119.781 237.615C120.053 236.859 120.444 236.283 120.954 235.886C121.466 235.485 122.081 235.285 122.799 235.285C123.516 235.285 124.129 235.485 124.639 235.886C125.151 236.283 125.542 236.859 125.811 237.615C126.083 238.368 126.22 239.276 126.22 240.34C126.22 241.41 126.085 242.322 125.816 243.078C125.547 243.831 125.158 244.406 124.648 244.803C124.139 245.197 123.522 245.394 122.799 245.394ZM122.799 244.337C123.516 244.337 124.073 243.991 124.471 243.299C124.868 242.608 125.066 241.621 125.066 240.34C125.066 239.488 124.975 238.762 124.793 238.163C124.613 237.564 124.354 237.108 124.014 236.794C123.678 236.48 123.273 236.323 122.799 236.323C122.087 236.323 121.532 236.674 121.131 237.375C120.731 238.073 120.531 239.062 120.531 240.34C120.531 241.192 120.62 241.916 120.8 242.511C120.979 243.107 121.237 243.56 121.573 243.871C121.913 244.182 122.321 244.337 122.799 244.337ZM128.547 245.337C128.31 245.337 128.107 245.252 127.937 245.082C127.767 244.912 127.683 244.709 127.683 244.472C127.683 244.235 127.767 244.031 127.937 243.862C128.107 243.692 128.31 243.607 128.547 243.607C128.784 243.607 128.988 243.692 129.158 243.862C129.327 244.031 129.412 244.235 129.412 244.472C129.412 244.629 129.372 244.773 129.292 244.904C129.215 245.036 129.111 245.141 128.98 245.221C128.852 245.298 128.708 245.337 128.547 245.337ZM134.352 245.394C133.948 245.388 133.544 245.311 133.141 245.164C132.737 245.016 132.369 244.768 132.036 244.419C131.703 244.067 131.435 243.591 131.233 242.992C131.031 242.39 130.931 241.634 130.931 240.724C130.931 239.853 131.012 239.081 131.176 238.408C131.339 237.732 131.576 237.164 131.887 236.702C132.197 236.238 132.572 235.886 133.011 235.645C133.453 235.405 133.951 235.285 134.505 235.285C135.056 235.285 135.546 235.396 135.976 235.617C136.408 235.834 136.76 236.139 137.033 236.53C137.305 236.92 137.481 237.37 137.561 237.88L136.389 237.88C136.28 237.438 136.068 237.071 135.755 236.779C135.441 236.488 135.024 236.342 134.505 236.342C133.743 236.342 133.142 236.674 132.704 237.337C132.268 238 132.048 238.93 132.045 240.128L132.122 240.128C132.302 239.856 132.515 239.624 132.761 239.432C133.011 239.236 133.287 239.086 133.588 238.98C133.889 238.874 134.207 238.821 134.544 238.821C135.108 238.821 135.623 238.962 136.091 239.244C136.559 239.523 136.933 239.909 137.215 240.402C137.497 240.892 137.638 241.454 137.638 242.089C137.638 242.697 137.502 243.255 137.23 243.761C136.957 244.264 136.575 244.664 136.081 244.962C135.591 245.257 135.015 245.401 134.352 245.394ZM134.352 244.337C134.755 244.337 135.117 244.236 135.437 244.035C135.761 243.833 136.016 243.562 136.201 243.223C136.39 242.883 136.485 242.505 136.485 242.089C136.485 241.682 136.394 241.312 136.211 240.979C136.032 240.642 135.783 240.375 135.466 240.176C135.152 239.978 134.794 239.878 134.39 239.878C134.086 239.878 133.802 239.939 133.54 240.061C133.277 240.18 133.046 240.343 132.848 240.551C132.652 240.759 132.499 240.998 132.386 241.267C132.274 241.533 132.218 241.813 132.218 242.108C132.218 242.499 132.31 242.864 132.492 243.203C132.678 243.543 132.931 243.817 133.251 244.025C133.575 244.233 133.942 244.337 134.352 244.337ZM142.737 245.394C142.013 245.394 141.397 245.197 140.887 244.803C140.378 244.406 139.989 243.831 139.72 243.078C139.451 242.322 139.316 241.41 139.316 240.34C139.316 239.276 139.451 238.368 139.72 237.615C139.992 236.859 140.383 236.283 140.892 235.886C141.405 235.485 142.02 235.285 142.737 235.285C143.455 235.285 144.068 235.485 144.577 235.886C145.09 236.283 145.481 236.859 145.75 237.615C146.022 238.368 146.158 239.276 146.158 240.34C146.158 241.41 146.024 242.322 145.754 243.078C145.485 243.831 145.096 244.406 144.587 244.803C144.078 245.197 143.461 245.394 142.737 245.394ZM142.737 244.337C143.455 244.337 144.012 243.991 144.409 243.299C144.806 242.608 145.005 241.621 145.005 240.34C145.005 239.488 144.914 238.762 144.731 238.163C144.552 237.564 144.292 237.108 143.953 236.794C143.616 236.48 143.211 236.323 142.737 236.323C142.026 236.323 141.47 236.674 141.07 237.375C140.669 238.073 140.469 239.062 140.469 240.34C140.469 241.192 140.559 241.916 140.738 242.511C140.918 243.107 141.176 243.56 141.512 243.871C141.851 244.182 142.26 244.337 142.737 244.337ZM151.962 245.26L151.962 235.42L153.154 235.42L153.154 240.301L153.269 240.301L157.689 235.42L159.246 235.42L155.114 239.859L159.246 245.26L157.805 245.26L154.384 240.686L153.154 242.069L153.154 245.26L151.962 245.26Z" fill="#797979"/>
<path d="M398.821 493.449C398.257 493.449 397.749 493.337 397.298 493.113C396.846 492.888 396.484 492.581 396.212 492.19C395.939 491.799 395.791 491.354 395.765 490.854L396.918 490.854C396.963 491.3 397.165 491.668 397.523 491.96C397.885 492.248 398.318 492.392 398.821 492.392C399.224 492.392 399.583 492.297 399.897 492.108C400.214 491.919 400.462 491.66 400.642 491.33C400.824 490.997 400.916 490.621 400.916 490.201C400.916 489.772 400.821 489.389 400.632 489.053C400.446 488.713 400.19 488.446 399.863 488.25C399.537 488.055 399.163 487.956 398.744 487.952C398.443 487.949 398.134 487.996 397.817 488.092C397.499 488.185 397.238 488.305 397.033 488.452L395.919 488.318L396.514 483.474L401.627 483.474L401.627 484.531L397.514 484.531L397.168 487.433L397.226 487.433C397.427 487.273 397.68 487.14 397.985 487.035C398.289 486.929 398.606 486.876 398.936 486.876C399.538 486.876 400.075 487.02 400.546 487.309C401.02 487.594 401.391 487.984 401.66 488.481C401.933 488.977 402.069 489.544 402.069 490.182C402.069 490.81 401.928 491.37 401.646 491.863C401.367 492.354 400.983 492.741 400.493 493.026C400.003 493.308 399.445 493.449 398.821 493.449ZM404.823 492.056C404.586 492.056 404.383 491.971 404.213 491.801C404.043 491.631 403.958 491.428 403.958 491.191C403.958 490.954 404.043 490.75 404.213 490.581C404.383 490.411 404.586 490.326 404.823 490.326C405.06 490.326 405.263 490.411 405.433 490.581C405.603 490.75 405.688 490.954 405.688 491.191C405.688 491.348 405.648 491.492 405.568 491.623C405.491 491.755 405.387 491.86 405.255 491.94C405.127 492.017 404.983 492.056 404.823 492.056ZM404.823 487.078C404.586 487.078 404.383 486.993 404.213 486.823C404.043 486.653 403.958 486.45 403.958 486.213C403.958 485.976 404.043 485.773 404.213 485.603C404.383 485.433 404.586 485.348 404.823 485.348C405.06 485.348 405.263 485.433 405.433 485.603C405.603 485.773 405.688 485.976 405.688 486.213C405.688 486.37 405.648 486.514 405.568 486.645C405.491 486.777 405.387 486.882 405.255 486.963C405.127 487.039 404.983 487.078 404.823 487.078ZM410.913 493.449C410.189 493.449 409.573 493.252 409.063 492.858C408.554 492.461 408.165 491.886 407.896 491.133C407.627 490.377 407.492 489.464 407.492 488.394C407.492 487.331 407.627 486.423 407.896 485.67C408.168 484.914 408.559 484.338 409.068 483.94C409.581 483.54 410.196 483.34 410.913 483.34C411.631 483.34 412.244 483.54 412.753 483.94C413.266 484.338 413.657 484.914 413.926 485.67C414.198 486.423 414.334 487.331 414.334 488.394C414.334 489.464 414.2 490.377 413.93 491.133C413.661 491.886 413.272 492.461 412.763 492.858C412.254 493.252 411.637 493.449 410.913 493.449ZM410.913 492.392C411.631 492.392 412.188 492.046 412.585 491.354C412.982 490.662 413.181 489.676 413.181 488.394C413.181 487.542 413.09 486.817 412.907 486.218C412.728 485.619 412.468 485.162 412.129 484.848C411.792 484.535 411.387 484.378 410.913 484.378C410.202 484.378 409.646 484.728 409.246 485.43C408.845 486.128 408.645 487.116 408.645 488.394C408.645 489.246 408.735 489.97 408.914 490.566C409.094 491.162 409.352 491.615 409.688 491.926C410.027 492.237 410.436 492.392 410.913 492.392ZM415.929 491.296L415.929 490.316L420.254 483.474L420.965 483.474L420.965 484.993L420.484 484.993L417.217 490.163L417.217 490.239L423.04 490.239L423.04 491.296L415.929 491.296ZM420.561 493.314L420.561 490.999L420.561 490.542L420.561 483.474L421.695 483.474L421.695 493.314L420.561 493.314ZM429.223 493.314L427.974 493.314L431.587 483.474L432.817 483.474L436.43 493.314L435.181 493.314L432.24 485.031L432.163 485.031L429.223 493.314ZM429.684 489.471L434.719 489.471L434.719 490.528L429.684 490.528L429.684 489.471ZM437.809 493.314L437.809 485.934L438.904 485.934L438.904 487.087L439.001 487.087C439.154 486.693 439.403 486.388 439.745 486.17C440.088 485.949 440.5 485.838 440.98 485.838C441.467 485.838 441.872 485.949 442.196 486.17C442.522 486.388 442.777 486.693 442.96 487.087L443.037 487.087C443.225 486.706 443.509 486.404 443.887 486.179C444.265 485.952 444.718 485.838 445.247 485.838C445.907 485.838 446.446 486.045 446.866 486.458C447.286 486.868 447.495 487.507 447.495 488.375L447.495 493.314L446.361 493.314L446.361 488.375C446.361 487.831 446.212 487.441 445.915 487.208C445.617 486.974 445.266 486.857 444.862 486.857C444.343 486.857 443.941 487.014 443.656 487.328C443.371 487.638 443.229 488.032 443.229 488.51L443.229 493.314L442.076 493.314L442.076 488.26C442.076 487.84 441.939 487.502 441.667 487.246C441.395 486.987 441.044 486.857 440.615 486.857C440.32 486.857 440.045 486.935 439.788 487.092C439.535 487.249 439.33 487.467 439.173 487.746C439.02 488.021 438.943 488.34 438.943 488.702L438.943 493.314L437.809 493.314Z" fill="#797979"/>
<path d="M114.208 200.295C113.644 200.295 113.136 200.183 112.685 199.958C112.233 199.734 111.871 199.427 111.599 199.036C111.326 198.645 111.177 198.2 111.152 197.7L112.305 197.7C112.35 198.145 112.552 198.514 112.91 198.805C113.272 199.093 113.705 199.238 114.208 199.238C114.611 199.238 114.97 199.143 115.284 198.954C115.601 198.765 115.849 198.506 116.029 198.176C116.211 197.843 116.302 197.466 116.302 197.047C116.302 196.617 116.208 196.235 116.019 195.898C115.833 195.559 115.577 195.291 115.25 195.096C114.924 194.901 114.55 194.801 114.131 194.798C113.83 194.795 113.521 194.841 113.203 194.937C112.886 195.03 112.625 195.15 112.42 195.298L111.306 195.163L111.901 190.32L117.014 190.32L117.014 191.377L112.901 191.377L112.555 194.279L112.612 194.279C112.814 194.119 113.067 193.986 113.372 193.88C113.676 193.775 113.993 193.722 114.323 193.722C114.925 193.722 115.462 193.866 115.933 194.154C116.407 194.439 116.778 194.83 117.047 195.327C117.32 195.823 117.456 196.39 117.456 197.027C117.456 197.655 117.315 198.216 117.033 198.709C116.754 199.199 116.37 199.587 115.88 199.872C115.39 200.154 114.832 200.295 114.208 200.295ZM122.574 200.295C121.85 200.295 121.233 200.098 120.724 199.704C120.215 199.307 119.826 198.732 119.557 197.979C119.287 197.223 119.153 196.31 119.153 195.24C119.153 194.177 119.287 193.269 119.557 192.516C119.829 191.76 120.22 191.183 120.729 190.786C121.241 190.386 121.856 190.185 122.574 190.185C123.291 190.185 123.905 190.386 124.414 190.786C124.927 191.183 125.317 191.76 125.586 192.516C125.859 193.269 125.995 194.177 125.995 195.24C125.995 196.31 125.86 197.223 125.591 197.979C125.322 198.732 124.933 199.307 124.424 199.704C123.914 200.098 123.298 200.295 122.574 200.295ZM122.574 199.238C123.291 199.238 123.849 198.892 124.246 198.2C124.643 197.508 124.842 196.521 124.842 195.24C124.842 194.388 124.75 193.663 124.568 193.064C124.389 192.465 124.129 192.008 123.79 191.694C123.453 191.38 123.048 191.223 122.574 191.223C121.863 191.223 121.307 191.574 120.907 192.276C120.506 192.974 120.306 193.962 120.306 195.24C120.306 196.092 120.396 196.816 120.575 197.412C120.755 198.008 121.012 198.461 121.349 198.772C121.688 199.082 122.097 199.238 122.574 199.238ZM128.323 200.237C128.086 200.237 127.882 200.152 127.713 199.982C127.543 199.813 127.458 199.609 127.458 199.372C127.458 199.135 127.543 198.932 127.713 198.762C127.882 198.592 128.086 198.507 128.323 198.507C128.56 198.507 128.763 198.592 128.933 198.762C129.103 198.932 129.188 199.135 129.188 199.372C129.188 199.529 129.148 199.673 129.068 199.805C128.991 199.936 128.887 200.042 128.755 200.122C128.627 200.199 128.483 200.237 128.323 200.237ZM134.127 200.295C133.723 200.288 133.32 200.211 132.916 200.064C132.513 199.917 132.144 199.668 131.811 199.319C131.478 198.967 131.21 198.491 131.009 197.892C130.807 197.29 130.706 196.534 130.706 195.624C130.706 194.753 130.788 193.981 130.951 193.309C131.114 192.633 131.351 192.064 131.662 191.603C131.973 191.138 132.348 190.786 132.786 190.546C133.228 190.306 133.727 190.185 134.281 190.185C134.832 190.185 135.322 190.296 135.751 190.517C136.183 190.735 136.536 191.039 136.808 191.43C137.08 191.821 137.256 192.271 137.337 192.78L136.164 192.78C136.055 192.338 135.844 191.971 135.53 191.68C135.216 191.388 134.8 191.243 134.281 191.243C133.518 191.243 132.918 191.574 132.479 192.237C132.043 192.9 131.824 193.831 131.821 195.029L131.898 195.029C132.077 194.756 132.29 194.524 132.537 194.332C132.786 194.137 133.062 193.986 133.363 193.88C133.664 193.775 133.983 193.722 134.319 193.722C134.883 193.722 135.399 193.863 135.866 194.145C136.334 194.423 136.709 194.809 136.991 195.303C137.272 195.793 137.413 196.355 137.413 196.989C137.413 197.598 137.277 198.155 137.005 198.661C136.733 199.164 136.35 199.564 135.857 199.862C135.367 200.157 134.79 200.301 134.127 200.295ZM134.127 199.238C134.531 199.238 134.893 199.137 135.213 198.935C135.536 198.733 135.791 198.462 135.977 198.123C136.166 197.783 136.26 197.405 136.26 196.989C136.26 196.582 136.169 196.212 135.986 195.879C135.807 195.543 135.559 195.275 135.242 195.077C134.928 194.878 134.569 194.779 134.165 194.779C133.861 194.779 133.578 194.84 133.315 194.961C133.052 195.08 132.822 195.243 132.623 195.451C132.428 195.66 132.274 195.898 132.162 196.167C132.05 196.433 131.994 196.714 131.994 197.008C131.994 197.399 132.085 197.764 132.268 198.104C132.453 198.443 132.706 198.717 133.027 198.925C133.35 199.134 133.717 199.238 134.127 199.238ZM142.512 200.295C141.789 200.295 141.172 200.098 140.663 199.704C140.153 199.307 139.764 198.732 139.495 197.979C139.226 197.223 139.091 196.31 139.091 195.24C139.091 194.177 139.226 193.269 139.495 192.516C139.767 191.76 140.158 191.183 140.667 190.786C141.18 190.386 141.795 190.185 142.512 190.185C143.23 190.185 143.843 190.386 144.353 190.786C144.865 191.183 145.256 191.76 145.525 192.516C145.797 193.269 145.933 194.177 145.933 195.24C145.933 196.31 145.799 197.223 145.53 197.979C145.261 198.732 144.872 199.307 144.362 199.704C143.853 200.098 143.236 200.295 142.512 200.295ZM142.512 199.238C143.23 199.238 143.787 198.892 144.185 198.2C144.582 197.508 144.78 196.521 144.78 195.24C144.78 194.388 144.689 193.663 144.506 193.064C144.327 192.465 144.068 192.008 143.728 191.694C143.392 191.38 142.987 191.223 142.512 191.223C141.801 191.223 141.246 191.574 140.845 192.276C140.445 192.974 140.245 193.962 140.245 195.24C140.245 196.092 140.334 196.816 140.514 197.412C140.693 198.008 140.951 198.461 141.287 198.772C141.627 199.082 142.035 199.238 142.512 199.238ZM151.738 200.16L151.738 190.32L152.929 190.32L152.929 195.202L153.044 195.202L157.465 190.32L159.022 190.32L154.89 194.76L159.022 200.16L157.58 200.16L154.159 195.586L152.929 196.97L152.929 200.16L151.738 200.16Z" fill="#797979"/>
<path d="M134.176 140.709L136.256 140.709L136.256 147.099C136.256 147.817 136.085 148.444 135.742 148.982C135.402 149.521 134.927 149.94 134.315 150.241C133.703 150.539 132.99 150.688 132.177 150.688C131.36 150.688 130.646 150.539 130.034 150.241C129.422 149.94 128.946 149.521 128.607 148.982C128.267 148.444 128.098 147.817 128.098 147.099L128.098 140.709L130.178 140.709L130.178 146.921C130.178 147.296 130.26 147.629 130.423 147.921C130.59 148.212 130.823 148.441 131.125 148.608C131.426 148.774 131.776 148.858 132.177 148.858C132.58 148.858 132.931 148.774 133.229 148.608C133.53 148.441 133.762 148.212 133.926 147.921C134.092 147.629 134.176 147.296 134.176 146.921L134.176 140.709ZM143.306 143.539C143.267 143.151 143.102 142.85 142.811 142.635C142.519 142.421 142.124 142.313 141.624 142.313C141.285 142.313 140.998 142.362 140.764 142.458C140.53 142.551 140.351 142.68 140.226 142.847C140.104 143.013 140.043 143.202 140.043 143.414C140.037 143.59 140.074 143.744 140.154 143.875C140.237 144.006 140.351 144.12 140.495 144.216C140.639 144.309 140.806 144.391 140.995 144.461C141.184 144.528 141.385 144.586 141.6 144.634L142.484 144.846C142.913 144.942 143.307 145.07 143.666 145.23C144.025 145.39 144.336 145.587 144.598 145.821C144.861 146.055 145.064 146.33 145.208 146.647C145.356 146.964 145.431 147.328 145.434 147.738C145.431 148.34 145.277 148.862 144.973 149.304C144.672 149.743 144.236 150.084 143.666 150.328C143.099 150.568 142.415 150.688 141.615 150.688C140.82 150.688 140.128 150.566 139.539 150.323C138.953 150.08 138.495 149.719 138.165 149.242C137.838 148.761 137.667 148.167 137.651 147.459L139.664 147.459C139.686 147.789 139.781 148.065 139.947 148.286C140.117 148.504 140.343 148.669 140.625 148.781C140.91 148.89 141.232 148.944 141.59 148.944C141.943 148.944 142.249 148.893 142.508 148.79C142.771 148.688 142.974 148.545 143.118 148.363C143.263 148.18 143.335 147.97 143.335 147.733C143.335 147.512 143.269 147.326 143.138 147.176C143.009 147.025 142.821 146.897 142.571 146.792C142.324 146.686 142.021 146.59 141.663 146.503L140.591 146.234C139.761 146.032 139.106 145.717 138.626 145.288C138.145 144.858 137.907 144.28 137.91 143.553C137.907 142.957 138.065 142.437 138.386 141.992C138.709 141.546 139.153 141.199 139.717 140.949C140.28 140.699 140.921 140.574 141.639 140.574C142.369 140.574 143.006 140.699 143.551 140.949C144.099 141.199 144.525 141.546 144.829 141.992C145.133 142.437 145.29 142.953 145.3 143.539L143.306 143.539ZM150.322 150.549L146.834 150.549L146.834 140.709L150.351 140.709C151.341 140.709 152.193 140.906 152.907 141.3C153.621 141.69 154.171 142.253 154.555 142.986C154.943 143.72 155.136 144.597 155.136 145.619C155.136 146.644 154.943 147.525 154.555 148.262C154.171 148.998 153.618 149.564 152.897 149.958C152.18 150.352 151.321 150.549 150.322 150.549ZM148.914 148.766L150.235 148.766C150.85 148.766 151.368 148.657 151.787 148.44C152.21 148.219 152.527 147.877 152.739 147.416C152.953 146.952 153.061 146.353 153.061 145.619C153.061 144.892 152.953 144.298 152.739 143.837C152.527 143.375 152.212 143.036 151.792 142.818C151.373 142.6 150.855 142.491 150.24 142.491L148.914 142.491L148.914 148.766Z" fill="#263238"/>
<defs>
<filter id="filter0_d_109_5206" x="54.1192" y="69.9004" width="464.537" height="500.618" filterUnits="userSpaceOnUse" color-interpolation-filters="sRGB">
<feFlood flood-opacity="0" result="BackgroundImageFix"/>
<feColorMatrix in="SourceAlpha" type="matrix" values="0 0 0 0 0 0 0 0 0 0 0 0 0 0 0 0 0 0 127 0" result="hardAlpha"/>
<feOffset dx="1.50336" dy="25.557"/>
<feGaussianBlur stdDeviation="7.51678"/>
<feComposite in2="hardAlpha" operator="out"/>
<feColorMatrix type="matrix" values="0 0 0 0 0.458333 0 0 0 0 0.458333 0 0 0 0 0.458333 0 0 0 0.25 0"/>
<feBlend mode="multiply" in2="BackgroundImageFix" result="effect1_dropShadow_109_5206"/>
<feBlend mode="normal" in="SourceGraphic" in2="effect1_dropShadow_109_5206" result="shape"/>
</filter>
<linearGradient id="paint0_linear_109_5206" x1="-190.638" y1="5.25065e-05" x2="689.341" y2="173.07" gradientUnits="userSpaceOnUse">
<stop offset="0.0963806" stop-color="#A2FBFF"/>
<stop offset="0.550589" stop-color="#CCD0FF"/>
<stop offset="1" stop-color="#FFCCE0"/>
</linearGradient>
<linearGradient id="paint1_linear_109_5206" x1="299.523" y1="229.914" x2="311.45" y2="476.967" gradientUnits="userSpaceOnUse">
<stop stop-color="#3EBA59"/>
<stop offset="0.539984" stop-color="#C3EDCC"/>
<stop offset="1" stop-color="white"/>
</linearGradient>
</defs>
</svg>
