<svg width="579" height="617" viewBox="0 0 579 617" fill="none" xmlns="http://www.w3.org/2000/svg">
<rect x="0.25" width="578.5" height="493.084" rx="38.8255" fill="#0C0047"/>
<mask id="mask0_109_5253" style="mask-type:alpha" maskUnits="userSpaceOnUse" x="0" y="0" width="579" height="494">
<rect x="0.25" width="578.5" height="493.084" rx="38.8255" fill="url(#paint0_linear_109_5253)"/>
</mask>
<g mask="url(#mask0_109_5253)">
<path d="M356.106 596.357C326.262 578.544 -100.019 591.904 31.8295 301.102C163.678 10.2993 524.035 -144.231 604.658 36.1286C685.282 216.488 460.783 477.899 238.957 497.048C17.1302 516.198 -129.418 384.379 -48.7941 238.755C31.8295 93.1313 410.003 -106.823 480.382 59.7312C550.761 226.286 460.783 397.294 238.957 407.536C17.1302 417.779 -79.9746 354.096 25.148 195.112C130.271 36.1286 397.531 22.3233 388.623 108.718C379.714 195.112 364.569 323.814 129.38 306.891C-105.81 289.968 437.62 6.73662 675.037 95.3579" stroke="white" stroke-width="0.77651"/>
</g>
<g filter="url(#filter0_d_109_5253)">
<rect x="70" y="72.2168" width="448.823" height="502.402" rx="28.7309" fill="white"/>
</g>
<path d="M250.243 139.383C250.243 140.175 250.336 140.89 250.523 141.526C250.725 142.163 251.004 142.715 251.361 143.18C251.734 143.631 252.184 143.98 252.712 144.229C253.24 144.477 253.846 144.601 254.529 144.601C255.197 144.601 255.795 144.477 256.323 144.229C256.867 143.98 257.317 143.631 257.674 143.18C258.047 142.715 258.327 142.163 258.513 141.526C258.715 140.89 258.816 140.175 258.816 139.383C258.816 138.591 258.715 137.877 258.513 137.24C258.327 136.588 258.047 136.037 257.674 135.586C257.317 135.12 256.867 134.763 256.323 134.515C255.795 134.266 255.197 134.142 254.529 134.142C253.846 134.142 253.24 134.274 252.712 134.538C252.184 134.786 251.734 135.144 251.361 135.609C251.004 136.06 250.725 136.611 250.523 137.263C250.336 137.9 250.243 138.607 250.243 139.383ZM262.566 139.383C262.566 140.517 262.427 141.542 262.147 142.458C261.868 143.359 261.471 144.151 260.959 144.834C260.462 145.518 259.864 146.085 259.165 146.535C258.466 146.985 257.698 147.311 256.859 147.513C256.937 147.824 257.107 148.072 257.372 148.259C257.636 148.461 257.969 148.624 258.373 148.748C258.777 148.872 259.243 148.965 259.771 149.028C260.314 149.09 260.897 149.144 261.518 149.191L260.773 151.846C259.561 151.8 258.521 151.675 257.651 151.474C256.797 151.287 256.067 151.023 255.461 150.682C254.871 150.34 254.397 149.921 254.04 149.424C253.699 148.927 253.435 148.352 253.248 147.7C252.285 147.576 251.392 147.311 250.569 146.908C249.746 146.488 249.032 145.929 248.426 145.23C247.82 144.532 247.347 143.693 247.005 142.715C246.663 141.736 246.493 140.626 246.493 139.383C246.493 138.001 246.71 136.79 247.145 135.749C247.58 134.693 248.162 133.808 248.892 133.094C249.637 132.379 250.492 131.843 251.454 131.486C252.433 131.129 253.458 130.95 254.529 130.95C255.632 130.95 256.673 131.129 257.651 131.486C258.629 131.843 259.484 132.379 260.214 133.094C260.943 133.808 261.518 134.693 261.937 135.749C262.357 136.79 262.566 138.001 262.566 139.383ZM271.909 147.793C270.775 147.793 269.797 147.638 268.973 147.327C268.15 147.001 267.467 146.558 266.923 145.999C266.395 145.425 265.999 144.749 265.735 143.973C265.487 143.18 265.363 142.311 265.363 141.363V131.323H268.997V141.061C268.997 141.713 269.067 142.272 269.206 142.738C269.362 143.188 269.564 143.561 269.812 143.856C270.076 144.136 270.387 144.337 270.744 144.462C271.117 144.586 271.52 144.648 271.955 144.648C272.84 144.648 273.555 144.376 274.098 143.833C274.658 143.289 274.937 142.365 274.937 141.061V131.323H278.571V141.363C278.571 142.311 278.439 143.18 278.175 143.973C277.911 144.765 277.507 145.448 276.964 146.022C276.42 146.582 275.729 147.016 274.89 147.327C274.052 147.638 273.058 147.793 271.909 147.793ZM285.118 139.383C285.118 140.175 285.211 140.89 285.397 141.526C285.599 142.163 285.879 142.715 286.236 143.18C286.609 143.631 287.059 143.98 287.587 144.229C288.115 144.477 288.721 144.601 289.404 144.601C290.072 144.601 290.67 144.477 291.198 144.229C291.741 143.98 292.192 143.631 292.549 143.18C292.922 142.715 293.201 142.163 293.388 141.526C293.59 140.89 293.691 140.175 293.691 139.383C293.691 138.591 293.59 137.877 293.388 137.24C293.201 136.588 292.922 136.037 292.549 135.586C292.192 135.12 291.741 134.763 291.198 134.515C290.67 134.266 290.072 134.142 289.404 134.142C288.721 134.142 288.115 134.274 287.587 134.538C287.059 134.786 286.609 135.144 286.236 135.609C285.879 136.06 285.599 136.611 285.397 137.263C285.211 137.9 285.118 138.607 285.118 139.383ZM297.441 139.383C297.441 140.766 297.231 141.985 296.812 143.041C296.408 144.081 295.849 144.959 295.135 145.673C294.42 146.372 293.566 146.9 292.572 147.257C291.594 147.614 290.538 147.793 289.404 147.793C288.302 147.793 287.261 147.614 286.283 147.257C285.304 146.9 284.45 146.372 283.72 145.673C282.99 144.959 282.416 144.081 281.996 143.041C281.577 141.985 281.367 140.766 281.367 139.383C281.367 138.001 281.585 136.79 282.02 135.749C282.454 134.693 283.037 133.808 283.767 133.094C284.512 132.379 285.366 131.843 286.329 131.486C287.308 131.129 288.333 130.95 289.404 130.95C290.507 130.95 291.547 131.129 292.526 131.486C293.504 131.843 294.358 132.379 295.088 133.094C295.818 133.808 296.393 134.693 296.812 135.749C297.231 136.79 297.441 138.001 297.441 139.383ZM311.898 131.323V134.421H307.029V147.467H303.395V134.421H298.527V131.323H311.898ZM314.234 147.467V131.323H325.136V134.375H317.868V137.543H324.321V140.525H317.868V144.415H325.672V147.467H314.234ZM338.088 147.467C337.637 146.566 337.14 145.658 336.597 144.741C336.069 143.809 335.455 142.862 334.756 141.899C334.539 142.179 334.259 142.567 333.918 143.064C333.592 143.561 333.258 144.089 332.916 144.648C332.59 145.207 332.279 145.743 331.984 146.255C331.689 146.768 331.472 147.172 331.332 147.467H327.185C327.869 146.209 328.661 144.889 329.561 143.507C330.478 142.124 331.495 140.657 332.613 139.104L327.418 131.323H331.821L334.966 136.355L338.041 131.323H342.188L337.063 139.15C338.367 140.843 339.462 142.412 340.347 143.856C341.232 145.285 341.931 146.488 342.444 147.467H338.088Z" fill="#212326"/>
<g clip-path="url(#clip0_109_5253)">
<path d="M187.033 365.743C188.755 364.699 190.611 363.893 192.549 363.346L193.684 357.883L202.913 357.723L204.249 363.138C206.207 363.618 208.091 364.359 209.852 365.342L214.526 362.284L221.164 368.695L218.272 373.463C219.315 375.186 220.121 377.041 220.67 378.979L226.132 380.121L226.293 389.343L220.877 390.679C220.397 392.637 219.656 394.521 218.673 396.281L221.732 400.956L215.321 407.594L210.553 404.702C208.829 405.745 206.974 406.553 205.037 407.106L203.895 412.562L194.672 412.729L193.337 407.307C191.379 406.827 189.494 406.086 187.734 405.103L183.059 408.161L176.422 401.751L179.313 396.983C178.271 395.259 177.462 393.404 176.909 391.467L171.453 390.331L171.286 381.102L176.709 379.767C177.187 377.81 177.928 375.928 178.912 374.171L175.854 369.496L182.265 362.858L187.033 365.75V365.743ZM191.948 378.037C190.59 379.447 189.681 381.228 189.335 383.155C188.989 385.082 189.222 387.068 190.004 388.862C190.787 390.657 192.083 392.179 193.73 393.237C195.377 394.295 197.3 394.841 199.257 394.807C201.215 394.772 203.118 394.159 204.726 393.043C206.335 391.928 207.577 390.361 208.295 388.54C209.014 386.719 209.176 384.726 208.763 382.813C208.349 380.899 207.378 379.152 205.972 377.79C205.035 376.884 203.93 376.171 202.718 375.693C201.506 375.215 200.211 374.98 198.908 375.003C197.606 375.026 196.32 375.306 195.126 375.827C193.931 376.347 192.851 377.098 191.948 378.037Z" fill="#EBEBEB"/>
<path d="M124.647 240.779C125.742 240.119 126.918 239.607 128.147 239.256L128.868 235.79L134.725 235.684L135.566 239.123C136.807 239.429 138.001 239.899 139.119 240.518L142.077 238.582L146.284 242.649L144.454 245.701C145.114 246.797 145.626 247.976 145.977 249.207L149.436 249.928L149.543 255.778L146.104 256.626C145.798 257.865 145.329 259.057 144.708 260.172L146.645 263.137L142.578 267.344L139.553 265.514C138.46 266.176 137.283 266.686 136.053 267.03L135.332 270.496L129.476 270.603L128.634 267.164C127.392 266.846 126.197 266.366 125.082 265.735L122.123 267.671L117.916 263.604L119.746 260.579C119.086 259.485 118.574 258.308 118.223 257.08L114.764 256.385L114.657 250.529L118.096 249.687C118.401 248.446 118.87 247.251 119.492 246.135L117.555 243.176L121.649 238.942L124.674 240.779H124.647ZM127.766 248.579C126.904 249.472 126.327 250.601 126.106 251.822C125.886 253.044 126.032 254.303 126.527 255.441C127.022 256.579 127.844 257.545 128.888 258.217C129.932 258.888 131.151 259.235 132.392 259.214C133.633 259.192 134.84 258.803 135.86 258.096C136.88 257.389 137.668 256.395 138.123 255.241C138.579 254.086 138.681 252.822 138.419 251.609C138.156 250.396 137.54 249.288 136.648 248.425C135.449 247.268 133.841 246.635 132.175 246.664C130.51 246.692 128.924 247.381 127.766 248.579Z" fill="#E0E0E0"/>
<path d="M279.299 455.672C280.758 454.784 282.331 454.097 283.973 453.628L284.948 448.954L292.822 448.82L293.957 453.441C295.628 453.853 297.236 454.486 298.738 455.325L302.745 452.714L308.415 458.19L305.951 462.256C306.84 463.729 307.527 465.315 307.994 466.971L312.669 467.939L312.802 475.819L308.181 476.955C307.769 478.625 307.135 480.233 306.298 481.736L308.909 485.743L303.433 491.413L299.366 488.948C297.892 489.836 296.307 490.523 294.651 490.992L293.683 495.666L285.803 495.807L284.668 491.179C282.998 490.768 281.39 490.137 279.886 489.302L275.88 491.913L270.21 486.437L272.681 482.364C271.791 480.905 271.102 479.332 270.631 477.689L265.956 476.714L265.816 468.841L270.444 467.706C270.854 466.036 271.485 464.428 272.32 462.924L269.709 458.917L275.185 453.248L279.259 455.712L279.299 455.672ZM283.499 466.17C282.337 467.372 281.558 468.892 281.26 470.538C280.963 472.183 281.159 473.88 281.826 475.414C282.492 476.947 283.599 478.249 285.005 479.154C286.411 480.058 288.054 480.526 289.726 480.497C291.398 480.468 293.024 479.944 294.398 478.991C295.772 478.038 296.832 476.699 297.445 475.143C298.058 473.587 298.196 471.885 297.842 470.251C297.487 468.617 296.656 467.124 295.453 465.963C293.84 464.405 291.675 463.552 289.433 463.591C287.191 463.63 285.057 464.557 283.499 466.17Z" fill="#E0E0E0"/>
<path d="M383.974 368.802C385.247 368.036 386.617 367.444 388.047 367.039L388.882 363.032L395.694 362.912L396.675 366.919C398.111 367.262 399.495 367.797 400.789 368.508L404.228 366.251L409.13 370.986L406.993 374.498C407.779 375.775 408.388 377.152 408.802 378.592L412.809 379.433L412.929 386.238L408.923 387.22C408.565 388.661 408.02 390.049 407.3 391.347L409.55 394.793L404.822 399.688L401.31 397.558C400.036 398.324 398.666 398.919 397.236 399.327L396.395 403.334L389.59 403.454L388.608 399.447C387.165 399.097 385.776 398.551 384.481 397.825L381.035 400.082L376.14 395.347L378.271 391.834C377.503 390.561 376.908 389.191 376.501 387.761L372.494 386.926L372.374 380.115L376.381 379.133C376.733 377.69 377.279 376.302 378.004 375.006L375.746 371.567L380.474 366.665L383.994 368.795L383.974 368.802ZM387.607 377.877C386.605 378.917 385.934 380.23 385.678 381.65C385.423 383.071 385.594 384.535 386.171 385.859C386.747 387.182 387.703 388.304 388.918 389.084C390.132 389.864 391.551 390.267 392.994 390.24C394.437 390.214 395.84 389.761 397.026 388.937C398.211 388.114 399.126 386.958 399.654 385.614C400.183 384.271 400.301 382.801 399.994 381.391C399.687 379.981 398.969 378.693 397.931 377.69C397.241 377.024 396.427 376.5 395.534 376.148C394.642 375.797 393.689 375.625 392.73 375.642C391.771 375.659 390.825 375.866 389.945 376.249C389.066 376.633 388.271 377.186 387.607 377.877Z" fill="#F5F5F5"/>
<path d="M327.803 435.218C328.385 434.866 329.011 434.594 329.666 434.41L330.047 432.567L333.159 432.514L333.606 434.337C334.264 434.498 334.897 434.748 335.489 435.078L337.065 434.05L339.302 436.213L338.327 437.816C338.679 438.398 338.951 439.024 339.135 439.679L340.978 440.06L341.032 443.172L339.202 443.619C339.039 444.275 338.79 444.906 338.461 445.496L339.489 447.065L337.332 449.302L335.73 448.34C335.15 448.693 334.526 448.964 333.873 449.149L333.486 450.992L330.381 451.045L329.933 449.222C329.274 449.055 328.638 448.804 328.043 448.474L326.467 449.502L324.23 447.339L325.205 445.736C324.845 445.158 324.566 444.534 324.377 443.88L322.554 443.492L322.5 440.38L324.324 439.933C324.479 439.276 324.722 438.643 325.045 438.05L324.016 436.48L326.18 434.243L327.783 435.218H327.803ZM329.466 439.359C329.006 439.833 328.697 440.433 328.578 441.083C328.46 441.733 328.537 442.404 328.8 443.01C329.062 443.617 329.499 444.131 330.055 444.489C330.61 444.847 331.259 445.032 331.92 445.021C332.581 445.01 333.223 444.803 333.766 444.426C334.309 444.05 334.728 443.52 334.97 442.906C335.212 442.291 335.266 441.618 335.126 440.972C334.985 440.326 334.656 439.737 334.18 439.278C333.544 438.665 332.69 438.329 331.806 438.344C330.923 438.359 330.081 438.724 329.466 439.359Z" fill="#E0E0E0"/>
<path d="M203.602 432.799C204.39 432.321 205.239 431.953 206.126 431.704L206.647 429.206L210.861 429.133L211.469 431.604C212.365 431.825 213.227 432.164 214.033 432.612L216.163 431.216L219.195 434.148L217.86 436.325C218.337 437.114 218.708 437.963 218.962 438.849L221.452 439.37L221.526 443.584L219.055 444.192C218.834 445.085 218.495 445.945 218.047 446.749L219.442 448.886L216.511 451.918L214.334 450.583C213.545 451.059 212.696 451.427 211.809 451.678L211.289 454.175L207.075 454.249L206.46 451.785C205.566 451.568 204.706 451.231 203.903 450.783L201.766 452.179L198.734 449.247L200.07 447.07C199.594 446.281 199.226 445.432 198.974 444.546L196.477 444.025L196.403 439.811L198.881 439.203C199.099 438.308 199.436 437.445 199.883 436.639L198.487 434.509L201.418 431.477L203.596 432.812L203.602 432.799ZM205.853 438.415C205.23 439.059 204.813 439.874 204.653 440.755C204.493 441.636 204.599 442.545 204.956 443.367C205.313 444.188 205.906 444.886 206.659 445.37C207.413 445.855 208.293 446.105 209.189 446.089C210.084 446.073 210.955 445.792 211.691 445.281C212.427 444.77 212.994 444.052 213.322 443.218C213.65 442.385 213.723 441.473 213.532 440.597C213.341 439.722 212.895 438.923 212.25 438.302C211.386 437.469 210.227 437.014 209.028 437.035C207.828 437.056 206.686 437.553 205.853 438.415Z" fill="#F5F5F5"/>
<path d="M149.93 479.607C149.93 479.607 147.105 460.208 147.346 448.922C147.586 437.636 147.346 424.941 147.346 424.941H148.641C148.641 424.941 147.76 447.339 148.721 460.856C149.683 474.372 152.2 479.607 152.2 479.607H149.943" fill="#263238"/>
<path d="M158.337 403.11C158.129 402.423 157.714 401.816 157.148 401.374C156.327 400.853 155.245 401.073 154.323 401.374C150.397 402.763 146.911 410.089 145.321 413.942L150.537 431.518C159.953 422.804 161.582 411.317 158.337 403.11Z" fill="#455A64"/>
<path d="M156.849 402.088C156.831 402.166 156.804 402.243 156.769 402.315C156.702 402.482 156.622 402.696 156.515 402.983C156.288 403.537 155.967 404.318 155.58 405.34C154.812 407.343 153.837 410.122 152.962 413.267C152.087 416.412 151.493 419.31 151.119 421.414C150.932 422.469 150.792 423.324 150.705 423.912C150.658 424.192 150.625 424.412 150.592 424.579C150.583 424.659 150.565 424.738 150.538 424.813C150.531 424.733 150.531 424.653 150.538 424.573C150.538 424.392 150.578 424.165 150.612 423.905C150.672 423.304 150.792 422.449 150.959 421.387C151.398 418.629 151.993 415.898 152.742 413.207C153.485 410.517 154.376 407.871 155.413 405.28C155.814 404.292 156.161 403.49 156.415 402.949C156.528 402.696 156.628 402.489 156.702 402.328C156.738 402.241 156.787 402.16 156.849 402.088Z" fill="#263238"/>
<path d="M148.22 435.752C145.853 434.398 143.873 432.458 142.47 430.12C141.067 427.781 140.288 425.122 140.207 422.396C140.02 418.496 141.222 414.67 142.577 411.01C142.661 410.678 142.857 410.386 143.132 410.182C143.354 410.1 143.593 410.076 143.826 410.112C144.06 410.148 144.281 410.244 144.467 410.389C148.02 412.392 150.177 416.266 151.319 420.192C152.14 422.795 152.412 425.539 152.12 428.253C151.677 431.107 150.32 433.741 148.254 435.759" fill="#455A64"/>
<path d="M148.22 435.752C148.212 435.675 148.212 435.596 148.22 435.519C148.22 435.338 148.22 435.111 148.22 434.851C148.22 434.27 148.22 433.422 148.147 432.38C148.008 429.658 147.707 426.946 147.245 424.259C146.698 421.107 146.043 418.289 145.556 416.246C145.315 415.251 145.121 414.436 144.981 413.835C144.914 413.568 144.868 413.354 144.828 413.167C144.805 413.091 144.792 413.013 144.788 412.934C144.824 413.003 144.851 413.077 144.868 413.154L145.061 413.822C145.222 414.383 145.442 415.204 145.729 416.219C146.257 418.223 146.938 421.067 147.479 424.233C147.95 426.928 148.233 429.652 148.327 432.387C148.327 433.435 148.327 434.283 148.327 434.871C148.327 435.145 148.327 435.365 148.327 435.539C148.302 435.615 148.266 435.687 148.22 435.752Z" fill="#263238"/>
<g opacity="0.3">
<path d="M148.221 435.752C145.854 434.398 143.874 432.458 142.471 430.12C141.068 427.781 140.288 425.122 140.207 422.396C140.02 418.496 141.222 414.67 142.578 411.01C142.662 410.678 142.857 410.386 143.132 410.182C143.354 410.1 143.593 410.076 143.827 410.112C144.061 410.148 144.281 410.244 144.468 410.389C148.021 412.392 150.177 416.266 151.319 420.192C152.14 422.795 152.413 425.539 152.121 428.253C151.678 431.107 150.321 433.741 148.254 435.759" fill="black"/>
</g>
<path d="M153.736 465.408C158.551 466.469 162.511 469.862 167.152 471.511C170.224 472.606 173.696 472.987 176.147 475.137C175.559 473.648 174.144 472.66 172.808 471.798C168.987 469.409 164.908 467.459 160.648 465.989C158.464 465.234 156.1 464.606 153.869 465.227" fill="#455A64"/>
<path d="M146.78 469.716C140.769 469.623 134.412 464.494 128.415 464.187C134.692 462.183 143.681 463.813 146.78 469.716Z" fill="#455A64"/>
<path d="M149.136 455.266C152.242 454.244 155.555 454.014 158.772 454.598C161.972 455.185 165.117 456.039 168.175 457.149C167.861 455.059 166.171 453.49 164.582 452.101C163.418 451.013 162.152 450.041 160.802 449.196C159.445 448.348 157.874 447.906 156.275 447.92C155.315 447.982 154.379 448.237 153.52 448.67C152.662 449.103 151.9 449.704 151.279 450.438C150.058 451.766 149.305 453.457 149.136 455.253" fill="#455A64"/>
<path d="M136.768 448.614C133.001 445.375 127.232 445.689 122.243 445.803C130.254 449.617 137.81 454.321 144.768 459.827C144.975 456.314 141.563 452.721 136.768 448.614Z" fill="#455A64"/>
<g opacity="0.3">
<path d="M136.768 448.614C133.001 445.375 127.232 445.689 122.243 445.803C130.254 449.617 137.81 454.321 144.768 459.827C144.975 456.314 141.563 452.721 136.768 448.614Z" fill="black"/>
</g>
<path d="M150.838 444.14C152.692 442.857 154.643 441.723 156.675 440.747C158.678 439.846 160.535 438.397 162.465 437.355C164.962 436.019 167.139 434.116 169.423 432.44C171.707 430.764 174.238 429.248 177.05 428.801C174.737 428.389 172.361 428.526 170.111 429.201C167.87 429.876 165.687 430.727 163.58 431.746C160.622 433.081 157.61 434.417 155.192 436.607C152.775 438.798 150.585 440.908 150.838 444.14Z" fill="#455A64"/>
<path d="M167.06 469.716C166.994 469.698 166.931 469.671 166.873 469.636L166.345 469.362C165.891 469.122 165.243 468.761 164.422 468.354C164.014 468.14 163.567 467.913 163.086 467.686C162.605 467.459 162.078 467.205 161.517 466.965C160.321 466.429 159.081 465.998 157.811 465.676C156.55 465.324 155.221 465.29 153.944 465.576C153.388 465.7 152.841 465.862 152.308 466.063C151.843 466.244 151.396 466.468 150.972 466.731C150.36 467.115 149.801 467.577 149.31 468.107C148.962 468.481 148.789 468.708 148.775 468.694C148.762 468.681 148.775 468.627 148.882 468.521C148.989 468.414 149.082 468.247 149.243 468.046C149.722 467.493 150.275 467.008 150.886 466.604C151.309 466.327 151.756 466.088 152.221 465.889C152.76 465.671 153.316 465.497 153.884 465.369C155.19 465.066 156.551 465.093 157.844 465.449C159.128 465.78 160.38 466.227 161.584 466.784C162.145 467.034 162.665 467.281 163.146 467.526C163.634 467.759 164.081 467.993 164.482 468.193C165.297 468.621 165.938 469.001 166.378 469.262L166.886 469.569C166.986 469.669 167.06 469.709 167.06 469.716Z" fill="#263238"/>
<path d="M142.284 466.744C142.416 466.764 142.544 466.802 142.665 466.858C143.002 466.977 143.33 467.12 143.647 467.285C144.698 467.81 145.668 468.485 146.525 469.288C147.379 470.109 148.106 471.052 148.682 472.087C148.855 472.398 149.011 472.719 149.149 473.048C149.209 473.166 149.25 473.292 149.27 473.422C149.27 473.422 149.009 472.928 148.548 472.16C147.944 471.167 147.214 470.256 146.378 469.449C145.537 468.641 144.594 467.948 143.573 467.385C142.792 466.971 142.271 466.744 142.284 466.744Z" fill="#263238"/>
<path d="M128.954 448.307C129.041 448.324 129.127 448.351 129.208 448.387L129.936 448.641L131.078 449.061C131.518 449.228 131.999 449.469 132.547 449.729C135.373 451.037 138.012 452.717 140.393 454.724C141.692 455.841 142.915 457.043 144.053 458.324C144.974 459.375 145.839 460.474 146.644 461.616C147.312 462.591 147.859 463.399 148.213 463.96L148.627 464.628C148.682 464.7 148.726 464.778 148.761 464.861C148.694 464.8 148.636 464.731 148.587 464.654C148.487 464.514 148.334 464.307 148.147 464.027C147.766 463.479 147.225 462.691 146.524 461.723C145.823 460.754 144.941 459.653 143.899 458.477C142.762 457.209 141.544 456.016 140.253 454.904C137.884 452.91 135.272 451.223 132.48 449.883C131.946 449.636 131.465 449.382 131.031 449.215L129.902 448.714L129.195 448.42L128.954 448.307Z" fill="#263238"/>
<path d="M158.177 451.88C158.015 451.874 157.854 451.852 157.696 451.814L157.142 451.713C156.928 451.673 156.674 451.673 156.401 451.64C154.971 451.519 153.536 451.803 152.26 452.461C151.558 452.823 150.918 453.294 150.364 453.857C149.905 454.307 149.499 454.809 149.155 455.353C148.842 455.861 148.563 456.39 148.32 456.936C148.346 456.776 148.389 456.619 148.447 456.468C148.598 456.051 148.79 455.651 149.021 455.273C149.356 454.706 149.76 454.184 150.224 453.717C150.782 453.133 151.432 452.644 152.147 452.268C153.455 451.589 154.937 451.319 156.401 451.493C156.652 451.512 156.901 451.546 157.149 451.593L157.703 451.733C157.867 451.76 158.027 451.81 158.177 451.88Z" fill="#263238"/>
<path d="M164.234 433.088C164.164 433.142 164.087 433.189 164.007 433.228L163.339 433.595C162.752 433.909 161.91 434.377 160.888 434.978C159.867 435.579 158.678 436.313 157.403 437.248C156.01 438.221 154.705 439.314 153.503 440.514C152.883 441.129 152.346 441.823 151.907 442.577C151.513 443.339 151.139 444.067 150.791 444.774C150.164 446.012 149.604 447.282 149.115 448.581C148.793 449.455 148.521 450.347 148.3 451.252C148.147 451.92 148.093 452.26 148.073 452.26C148.06 452.172 148.06 452.082 148.073 451.993C148.073 451.82 148.134 451.559 148.2 451.232C148.388 450.312 148.64 449.406 148.955 448.521C149.426 447.208 149.972 445.924 150.591 444.674C150.938 443.966 151.312 443.225 151.7 442.47C152.144 441.694 152.692 440.982 153.329 440.354C154.537 439.143 155.854 438.045 157.262 437.075C158.551 436.166 159.767 435.425 160.795 434.831C161.823 434.236 162.685 433.802 163.279 433.495L163.947 433.168C164.04 433.132 164.136 433.105 164.234 433.088Z" fill="#263238"/>
<path d="M147.339 451.333C147.274 451.17 147.233 450.999 147.219 450.825C147.145 450.458 147.058 449.99 146.952 449.436C146.663 447.908 146.284 446.398 145.816 444.915C145.329 443.437 144.753 441.99 144.093 440.581C143.86 440.067 143.659 439.633 143.506 439.286C143.422 439.134 143.357 438.972 143.312 438.805C143.416 438.944 143.506 439.094 143.579 439.252C143.739 439.546 143.966 439.973 144.247 440.514C144.954 441.911 145.552 443.36 146.037 444.848C146.514 446.339 146.878 447.864 147.125 449.409C147.219 449.997 147.285 450.478 147.319 450.812C147.343 450.984 147.35 451.159 147.339 451.333Z" fill="#263238"/>
<path d="M146.899 437.622C146.712 435.34 146.045 433.124 144.943 431.117C143.456 428.355 141.382 425.953 138.867 424.078C136.352 422.203 133.456 420.902 130.385 420.266C134.881 426.944 139.373 433.639 143.861 440.353L145.604 443.932C146.701 442.022 147.156 439.81 146.899 437.622Z" fill="#455A64"/>
<path d="M166.232 477.209H134.898V482.765H166.232V477.209Z" fill="#7782FF"/>
<path d="M137.235 481.656L139.906 498.892H160.708L163.887 481.656H137.235Z" fill="#7782FF"/>
<path d="M166.211 482.773C166.211 482.833 159.146 482.886 150.431 482.886C141.717 482.886 134.645 482.833 134.645 482.773C134.645 482.713 141.71 482.666 150.431 482.666C159.153 482.666 166.211 482.706 166.211 482.773Z" fill="#263238"/>
<path d="M473.936 356.579C473.993 361.547 472.578 366.42 469.868 370.584C467.158 374.748 463.276 378.016 458.71 379.975C454.145 381.934 449.101 382.497 444.216 381.592C439.332 380.687 434.824 378.356 431.263 374.892C427.702 371.428 425.247 366.986 424.208 362.128C423.169 357.27 423.593 352.213 425.426 347.595C427.258 342.978 430.418 339.006 434.505 336.183C438.593 333.359 443.425 331.81 448.393 331.731C455.073 331.647 461.513 334.216 466.302 338.874C471.09 343.532 473.836 349.9 473.936 356.579ZM436.773 357.18C436.821 359.555 437.571 361.862 438.929 363.811C440.287 365.76 442.192 367.263 444.403 368.129C446.615 368.996 449.034 369.189 451.354 368.682C453.675 368.176 455.793 366.993 457.442 365.284C459.091 363.574 460.197 361.414 460.619 359.077C461.042 356.74 460.763 354.329 459.817 352.151C458.871 349.972 457.3 348.122 455.304 346.835C453.307 345.548 450.975 344.882 448.6 344.92C445.407 344.981 442.368 346.306 440.151 348.605C437.934 350.903 436.719 353.987 436.773 357.18Z" fill="#F5F5F5"/>
<path d="M473.936 356.578C474.05 363.253 471.514 369.702 466.883 374.511C462.251 379.32 455.903 382.098 449.227 382.235L449 369.059C452.122 368.891 455.057 367.519 457.188 365.232C459.32 362.945 460.481 359.921 460.43 356.795C460.378 353.67 459.116 350.686 456.91 348.471C454.704 346.256 451.725 344.982 448.6 344.918L448.393 331.742C455.071 331.657 461.51 334.223 466.299 338.879C471.087 343.535 473.834 349.9 473.936 356.578Z" fill="#455A64"/>
<path d="M436.773 357.181C436.766 357.115 436.766 357.048 436.773 356.981V356.407C436.77 356.096 436.79 355.786 436.833 355.478C436.874 355.053 436.945 354.631 437.047 354.216C437.295 353.061 437.723 351.953 438.316 350.931C439.697 348.457 441.904 346.548 444.551 345.539C447.198 344.529 450.116 344.483 452.794 345.408C453.907 345.785 454.957 346.33 455.906 347.024C456.399 347.379 456.867 347.768 457.308 348.186C457.745 348.625 458.153 349.091 458.53 349.582C460.103 351.651 460.974 354.168 461.014 356.767C461.055 359.365 460.264 361.909 458.757 364.026C458.402 364.532 458.012 365.012 457.588 365.462C457.169 365.892 456.723 366.296 456.253 366.671C455.326 367.395 454.292 367.972 453.188 368.38C450.542 369.39 447.626 369.437 444.949 368.514C442.272 367.591 440.004 365.757 438.543 363.332C437.935 362.334 437.485 361.248 437.207 360.113C437.093 359.701 437.01 359.282 436.96 358.857C436.901 358.551 436.87 358.241 436.867 357.929C436.867 357.689 436.867 357.502 436.867 357.355C436.857 357.291 436.857 357.225 436.867 357.161C436.959 358.142 437.122 359.115 437.354 360.073C437.658 361.189 438.126 362.253 438.743 363.232C439.553 364.531 440.602 365.664 441.835 366.571C443.42 367.74 445.274 368.494 447.225 368.762C449.177 369.031 451.165 368.805 453.007 368.106C454.08 367.704 455.082 367.136 455.979 366.424C456.454 366.067 456.9 365.674 457.315 365.248C457.728 364.81 458.109 364.344 458.457 363.853C459.912 361.794 460.674 359.325 460.633 356.804C460.593 354.283 459.751 351.84 458.229 349.829C457.867 349.357 457.472 348.911 457.047 348.493C456.629 348.087 456.183 347.71 455.712 347.365C454.793 346.682 453.772 346.148 452.687 345.782C450.811 345.121 448.797 344.946 446.835 345.274C444.873 345.603 443.027 346.423 441.468 347.659C440.265 348.604 439.252 349.768 438.483 351.091C437.9 352.092 437.466 353.171 437.194 354.296C436.985 355.247 436.845 356.211 436.773 357.181Z" fill="#263238"/>
<path d="M473.935 356.579C473.935 356.579 473.935 356.439 473.888 356.172L473.795 354.977C473.795 354.71 473.748 354.422 473.728 354.095C473.708 353.768 473.615 353.427 473.548 353.047C473.42 352.171 473.233 351.306 472.987 350.456C472.361 348.111 471.386 345.873 470.095 343.818C468.228 340.788 465.74 338.188 462.794 336.191C459.848 334.194 456.512 332.844 453.006 332.231C451.957 332.056 450.897 331.949 449.834 331.911C449.293 331.911 448.752 331.857 448.205 331.911L446.549 332.024C446.268 332.024 445.988 332.024 445.714 332.091L444.879 332.238C444.325 332.338 443.757 332.412 443.203 332.539C442.068 332.812 440.953 333.16 439.864 333.58C438.754 334.007 437.674 334.509 436.632 335.083C436.111 335.383 435.61 335.751 435.089 336.045C434.569 336.367 434.072 336.724 433.6 337.113C432.618 337.873 431.687 338.699 430.815 339.584L429.567 341.006L429.253 341.367L428.972 341.754L428.418 342.529L427.857 343.31L427.37 344.145L426.875 344.98L426.635 345.4L426.428 345.841L425.627 347.591L424.959 349.454C423.325 354.606 423.412 360.149 425.206 365.247C425.446 365.862 425.68 366.476 425.914 367.091C426.147 367.705 426.501 368.259 426.789 368.84L427.009 369.281L427.263 369.688L427.784 370.51L428.298 371.331L428.879 372.092L429.466 372.847L429.754 373.228L430.081 373.575L431.37 374.957C432.272 375.816 433.231 376.612 434.241 377.341C434.724 377.718 435.233 378.059 435.764 378.363C436.291 378.663 436.806 378.991 437.333 379.271C438.394 379.813 439.492 380.279 440.619 380.667C441.71 381.051 442.825 381.364 443.958 381.602C444.519 381.709 445.086 381.769 445.64 381.849L446.482 381.969C446.756 382.002 447.036 381.969 447.317 382.009L448.973 382.069C449.527 382.069 450.068 382.009 450.609 381.976C451.67 381.911 452.726 381.77 453.768 381.555C457.587 380.773 461.168 379.1 464.219 376.673C466.745 374.686 468.865 372.231 470.463 369.441C471.688 367.345 472.588 365.076 473.134 362.71C473.357 361.854 473.518 360.984 473.615 360.105C473.668 359.725 473.728 359.371 473.762 359.05C473.795 358.73 473.762 358.436 473.795 358.169C473.795 357.655 473.842 357.254 473.855 356.973C473.868 356.693 473.888 356.566 473.888 356.566C473.888 356.566 473.888 356.7 473.888 356.973C473.888 357.247 473.888 357.641 473.888 358.175C473.888 358.436 473.888 358.73 473.888 359.057C473.888 359.384 473.808 359.725 473.768 360.119C473.681 361.003 473.529 361.881 473.314 362.743C472.784 365.128 471.895 367.418 470.676 369.535C468.907 372.659 466.495 375.372 463.598 377.494C460.701 379.616 457.387 381.098 453.874 381.842C452.819 382.059 451.751 382.204 450.676 382.276C450.128 382.276 449.581 382.37 449.026 382.37L447.343 382.316C447.063 382.316 446.782 382.316 446.502 382.276L445.654 382.156C445.086 382.076 444.512 382.023 443.944 381.909C442.791 381.672 441.656 381.358 440.545 380.967C439.402 380.575 438.287 380.107 437.206 379.565C436.665 379.278 436.144 378.951 435.61 378.643C435.073 378.333 434.558 377.988 434.068 377.608C433.046 376.871 432.073 376.068 431.156 375.204L429.82 373.802L429.493 373.448L429.193 373.067L428.605 372.299L428.011 371.525L427.483 370.697L426.962 369.862L426.702 369.448L426.481 369.007L425.627 367.244L424.905 365.374C423.082 360.201 422.993 354.575 424.652 349.347L425.319 347.451L426.147 345.648L426.355 345.2L426.602 344.779L427.102 343.925L427.597 343.083L428.164 342.295L428.732 341.507L429.012 341.113L429.333 340.753L430.595 339.31C431.484 338.417 432.43 337.583 433.426 336.813C433.902 336.415 434.406 336.053 434.936 335.731C435.463 335.403 435.971 335.063 436.498 334.756C437.555 334.177 438.65 333.672 439.777 333.246C440.864 332.82 441.98 332.469 443.116 332.198C443.684 332.064 444.251 331.991 444.819 331.891L445.661 331.751C445.941 331.704 446.228 331.704 446.509 331.677L448.185 331.57C448.739 331.57 449.287 331.57 449.834 331.61C450.909 331.646 451.98 331.758 453.04 331.944C456.577 332.568 459.94 333.94 462.905 335.966C465.87 337.993 468.369 340.629 470.236 343.698C471.52 345.766 472.481 348.018 473.087 350.376C473.331 351.231 473.512 352.104 473.628 352.987C473.681 353.367 473.755 353.715 473.788 354.042C473.822 354.369 473.822 354.656 473.835 354.923C473.835 355.444 473.882 355.838 473.895 356.125C473.908 356.412 473.935 356.579 473.935 356.579Z" fill="#263238"/>
<path d="M451.457 384.267C447.639 384.355 443.841 383.682 440.287 382.285C436.732 380.888 433.491 378.796 430.755 376.131C428.019 373.466 425.842 370.282 424.351 366.766C422.861 363.249 422.087 359.471 422.074 355.651L437.434 355.404C437.56 363.191 443.491 368.092 451.244 367.972L451.457 384.267Z" fill="#7782FF"/>
<path d="M451.458 384.266C451.45 384.166 451.45 384.065 451.458 383.965V383.104C451.458 382.336 451.411 381.234 451.371 379.838C451.311 377.007 451.224 372.947 451.111 367.971L451.244 368.098C449.688 368.123 448.135 367.935 446.63 367.537C444.973 367.097 443.417 366.34 442.049 365.307C440.58 364.185 439.393 362.735 438.583 361.073C437.726 359.304 437.27 357.369 437.247 355.403L437.421 355.57L425.534 355.764L422.068 355.824L422.242 355.644C422.325 358.73 422.852 361.789 423.804 364.726C424.065 365.394 424.325 366.108 424.579 366.796C424.833 367.484 425.247 368.132 425.521 368.746C425.829 369.383 426.179 369.999 426.569 370.589C426.912 371.186 427.292 371.761 427.704 372.312L428.926 373.922C429.354 374.422 429.815 374.89 430.262 375.364L430.93 376.065L431.638 376.693L433.02 377.915C434.78 379.294 436.688 380.473 438.71 381.428L440.045 382.055C440.499 382.229 440.947 382.376 441.381 382.529L442.65 382.97C443.064 383.104 443.478 383.177 443.872 383.277L445.007 383.558L445.548 383.685L446.076 383.765L447.952 384.032C448.448 384.1 448.947 384.14 449.448 384.152L450.55 384.206L451.218 384.246H451.465H450.57H449.448C448.937 384.253 448.426 384.224 447.919 384.159L446.029 383.925C445.855 383.925 445.675 383.885 445.501 383.852L444.954 383.725L443.805 383.464C443.411 383.364 442.99 383.291 442.57 383.164L441.294 382.73C440.853 382.576 440.399 382.436 439.959 382.262L438.583 381.641C436.533 380.697 434.599 379.518 432.82 378.129L431.417 376.907L430.696 376.279L430.028 375.571C429.588 375.09 429.12 374.623 428.693 374.115L427.451 372.499C427.031 371.942 426.645 371.36 426.295 370.756C425.899 370.163 425.544 369.542 425.234 368.9C424.92 368.232 424.566 367.564 424.279 366.896C423.991 366.228 423.751 365.507 423.491 364.806C422.517 361.839 421.979 358.746 421.895 355.624V355.45H422.075L425.534 355.39L437.421 355.203H437.588V355.37C437.6 357.285 438.031 359.175 438.85 360.906C439.632 362.52 440.774 363.932 442.189 365.033C443.521 366.05 445.038 366.796 446.657 367.23C448.134 367.631 449.66 367.826 451.191 367.811H451.324V367.945C451.378 372.953 451.418 377.033 451.445 379.885C451.445 381.274 451.445 382.362 451.445 383.124V383.965C451.465 384.179 451.458 384.272 451.458 384.266Z" fill="#263238"/>
<path d="M503.215 207.264H370.156V306.726H503.215V207.264Z" fill="white"/>
<path d="M503.215 207.264H370.156V219.558H503.215V207.264Z" fill="#E0E0E0"/>
<path d="M377.442 215.178C378.419 215.178 379.211 214.386 379.211 213.408C379.211 212.431 378.419 211.639 377.442 211.639C376.464 211.639 375.672 212.431 375.672 213.408C375.672 214.386 376.464 215.178 377.442 215.178Z" fill="white"/>
<path d="M383.419 215.178C384.396 215.178 385.189 214.386 385.189 213.408C385.189 212.431 384.396 211.639 383.419 211.639C382.442 211.639 381.649 212.431 381.649 213.408C381.649 214.386 382.442 215.178 383.419 215.178Z" fill="white"/>
<path d="M389.39 215.178C390.367 215.178 391.159 214.386 391.159 213.408C391.159 212.431 390.367 211.639 389.39 211.639C388.412 211.639 387.62 212.431 387.62 213.408C387.62 214.386 388.412 215.178 389.39 215.178Z" fill="white"/>
<path d="M503.216 306.727C503.216 306.727 503.216 306.106 503.216 304.91C503.216 303.715 503.216 301.938 503.216 299.628C503.216 295 503.216 288.209 503.183 279.534C503.183 262.204 503.136 237.356 503.109 207.265L503.25 207.405L370.204 207.438L370.378 207.265C370.378 243.005 370.378 276.869 370.378 306.727L370.217 306.566L466.267 306.646L493.54 306.687H500.772H502.642H500.799H493.593L466.354 306.733L370.191 306.807H370.037V306.653C370.037 276.796 370.037 242.932 370.037 207.191V207.018H370.224H503.27H503.41V207.164C503.41 237.289 503.356 262.171 503.336 279.52C503.336 288.202 503.336 294.96 503.303 299.554C503.303 301.858 503.303 303.621 503.303 304.81C503.303 305.999 503.216 306.727 503.216 306.727Z" fill="#263238"/>
<path d="M495.883 267.207C495.883 267.3 469.405 267.38 436.75 267.38C404.094 267.38 377.609 267.3 377.609 267.207C377.609 267.113 404.081 267.033 436.75 267.033C469.418 267.033 495.883 267.107 495.883 267.207Z" fill="#E0E0E0"/>
<path d="M495.883 256.996C495.883 257.089 469.405 257.17 436.75 257.17C404.094 257.17 377.609 257.089 377.609 256.996C377.609 256.902 404.081 256.822 436.75 256.822C469.418 256.822 495.883 256.896 495.883 256.996Z" fill="#E0E0E0"/>
<path d="M495.883 246.785C495.883 246.878 469.405 246.959 436.75 246.959C404.094 246.959 377.609 246.878 377.609 246.785C377.609 246.691 404.081 246.611 436.75 246.611C469.418 246.611 495.883 246.685 495.883 246.785Z" fill="#E0E0E0"/>
<path d="M495.883 236.574C495.883 236.668 469.405 236.748 436.75 236.748C404.094 236.748 377.609 236.668 377.609 236.574C377.609 236.481 404.081 236.4 436.75 236.4C469.418 236.4 495.883 236.474 495.883 236.574Z" fill="#E0E0E0"/>
<path d="M487.603 266.827C485.299 261.264 483.716 255.187 481.947 249.424C480.411 244.409 480.264 242.078 478.948 237.824C476.865 231.146 471.362 230.411 467.355 232.221C463.789 233.837 462.253 238.024 461.071 241.797L456.824 255.334C456.252 257.501 455.38 259.578 454.233 261.504C452.997 263.367 451.121 264.917 448.931 265.204C445.311 265.678 442.072 262.653 440.523 259.307C438.974 255.961 438.52 252.182 437.184 248.756C435.848 245.33 432.957 242.078 429.311 241.984C424.816 241.904 421.765 246.485 419.901 250.626C417.549 255.848 415.654 261.264 414.238 266.813C413.858 268.729 413.225 270.587 412.355 272.336C411.394 274.025 409.804 275.475 407.888 275.708C405.423 276.009 403.133 274.252 401.704 272.196C400.275 270.139 399.387 267.728 397.917 265.698C396.448 263.668 394.084 261.978 391.633 262.406C389.436 262.793 387.867 264.716 386.565 266.553C383.026 271.525 379.962 276.82 377.416 282.366H499.757C494.147 280.43 489.88 272.416 487.603 266.827Z" fill="#7782FF"/>
<path d="M411.816 290.381H406.039V296.157H411.816V290.381Z" fill="#7782FF"/>
<path d="M447.95 293.263H417.819C417.642 293.263 417.472 293.193 417.347 293.068C417.222 292.943 417.151 292.773 417.151 292.596C417.151 292.418 417.222 292.249 417.347 292.123C417.472 291.998 417.642 291.928 417.819 291.928H447.95C448.127 291.928 448.297 291.998 448.422 292.123C448.548 292.249 448.618 292.418 448.618 292.596C448.618 292.773 448.548 292.943 448.422 293.068C448.297 293.193 448.127 293.263 447.95 293.263Z" fill="#263238"/>
<path d="M494.474 282.364H494.033H492.745L487.776 282.397L469.505 282.451L409.236 282.504H377.443H377.282V282.344C377.282 266.671 377.329 253.308 377.342 243.852C377.342 239.144 377.376 235.404 377.389 232.827C377.389 231.558 377.389 230.576 377.389 229.895C377.389 229.575 377.389 229.327 377.389 229.14C377.389 228.953 377.389 228.887 377.389 228.887C377.389 228.887 377.389 228.974 377.389 229.14C377.389 229.307 377.389 229.575 377.389 229.895C377.389 230.563 377.389 231.558 377.389 232.827C377.389 235.404 377.389 239.144 377.436 243.852C377.436 253.308 377.469 266.671 377.496 282.344L377.336 282.184H409.13L469.398 282.237L487.669 282.291H492.638H493.927C494.327 282.351 494.474 282.364 494.474 282.364Z" fill="#263238"/>
<g opacity="0.3">
<path d="M480.109 242.311L436.688 282.365H458.399L484.536 258.164L480.109 242.311Z" fill="white"/>
</g>
<g opacity="0.3">
<path d="M441.859 261.572L417.972 282.367H411.814L440.022 258.18L442.48 262.34" fill="white"/>
</g>
<path d="M377.416 282.367C378.595 279.62 379.933 276.944 381.423 274.353C383.144 271.304 385.039 268.356 387.099 265.525C387.733 264.663 388.486 263.897 389.336 263.248C390.259 262.543 391.395 262.178 392.555 262.212C393.772 262.307 394.934 262.76 395.894 263.515C396.904 264.291 397.761 265.246 398.425 266.333C399.834 268.496 400.736 271.121 402.605 273.198C403.537 274.262 404.753 275.038 406.111 275.435C406.81 275.598 407.536 275.598 408.235 275.435C408.946 275.258 409.612 274.935 410.192 274.487C411.378 273.533 412.279 272.272 412.796 270.84C413.334 269.351 413.78 267.83 414.132 266.286C414.964 263.07 415.958 259.899 417.11 256.783C417.698 255.189 418.336 253.589 419.027 251.982C419.695 250.342 420.49 248.757 421.404 247.24C422.325 245.662 423.548 244.28 425.003 243.173C425.755 242.617 426.604 242.207 427.508 241.965C428.431 241.738 429.391 241.711 430.326 241.885C432.199 242.321 433.865 243.386 435.047 244.903C436.252 246.397 437.159 248.109 437.718 249.945C438.333 251.775 438.753 253.658 439.288 255.514C439.751 257.401 440.506 259.203 441.525 260.857C442.55 262.494 444.037 263.791 445.799 264.583C446.667 264.943 447.609 265.091 448.546 265.014C449.484 264.938 450.389 264.639 451.188 264.142C452.765 263.122 454.02 261.674 454.807 259.969C455.581 258.28 456.222 256.534 456.724 254.746C457.837 251.212 458.928 247.743 459.996 244.342C460.537 242.646 461.024 240.95 461.632 239.307C462.193 237.658 462.994 236.101 464.009 234.686C464.522 233.995 465.132 233.381 465.819 232.863C466.512 232.365 467.275 231.973 468.083 231.701C468.878 231.434 469.704 231.268 470.541 231.207C471.368 231.162 472.197 231.231 473.005 231.414C474.582 231.818 475.987 232.719 477.012 233.985C477.97 235.218 478.678 236.626 479.095 238.132C479.99 241.037 480.477 243.935 481.199 246.639C481.546 247.975 481.953 249.311 482.341 250.599C482.728 251.888 483.095 253.157 483.462 254.393C484.685 258.855 486.171 263.241 487.91 267.528C489.24 270.759 490.941 273.825 492.979 276.664C494.253 278.469 495.836 280.035 497.653 281.291C498.14 281.597 498.649 281.865 499.176 282.093L499.71 282.333L499.162 282.126C498.628 281.911 498.112 281.651 497.62 281.352C495.774 280.115 494.168 278.553 492.878 276.744C490.812 273.91 489.088 270.841 487.743 267.602C485.976 263.316 484.471 258.927 483.235 254.459C482.861 253.224 482.487 251.962 482.1 250.673C481.713 249.384 481.299 248.068 480.945 246.706C480.217 243.988 479.723 241.103 478.821 238.218C478.421 236.765 477.74 235.404 476.818 234.212C475.829 232.992 474.473 232.126 472.951 231.741C472.173 231.573 471.376 231.507 470.581 231.547C469.771 231.607 468.972 231.771 468.203 232.035C466.626 232.557 465.254 233.564 464.283 234.913C463.291 236.305 462.508 237.835 461.959 239.454C461.365 241.083 460.871 242.793 460.33 244.476C459.27 247.877 458.184 251.345 457.071 254.88C456.566 256.687 455.918 258.451 455.134 260.156C454.321 261.922 453.018 263.419 451.381 264.47C450.54 264.998 449.584 265.317 448.594 265.398C447.603 265.48 446.608 265.321 445.692 264.937C443.863 264.123 442.319 262.781 441.258 261.084C440.221 259.405 439.451 257.576 438.974 255.661C438.439 253.792 438.012 251.915 437.411 250.112C436.876 248.32 436.006 246.645 434.847 245.177C433.714 243.719 432.116 242.694 430.319 242.272C429.433 242.11 428.523 242.138 427.648 242.352C426.784 242.581 425.97 242.97 425.25 243.501C423.835 244.585 422.643 245.932 421.738 247.467C420.834 248.963 420.046 250.526 419.381 252.142C418.695 253.745 418.056 255.341 417.464 256.93C416.282 260.116 415.294 263.281 414.479 266.4C414.132 267.954 413.686 269.484 413.143 270.981C412.615 272.457 411.691 273.76 410.472 274.747C409.865 275.225 409.161 275.565 408.409 275.742C407.667 275.919 406.893 275.919 406.151 275.742C404.743 275.332 403.482 274.525 402.519 273.418C400.602 271.274 399.714 268.643 398.325 266.506C397.68 265.441 396.845 264.504 395.861 263.742C394.937 263.009 393.817 262.568 392.642 262.473C391.532 262.439 390.443 262.785 389.557 263.455C388.721 264.091 387.98 264.842 387.353 265.685C385.267 268.487 383.339 271.403 381.576 274.42C380.141 276.911 379.132 278.907 378.458 280.263L377.703 281.812C377.536 282.193 377.416 282.367 377.416 282.367Z" fill="#263238"/>
<path d="M325.355 344.096H205.666V416.038H325.355V344.096Z" fill="white"/>
<path d="M325.355 344.096H205.666V355.154H325.355V344.096Z" fill="#E0E0E0"/>
<path d="M213.806 349.626C213.807 349.942 213.715 350.252 213.54 350.515C213.366 350.778 213.117 350.984 212.825 351.106C212.534 351.228 212.213 351.26 211.903 351.199C211.592 351.139 211.307 350.987 211.084 350.764C210.86 350.541 210.707 350.257 210.645 349.947C210.583 349.637 210.614 349.316 210.735 349.024C210.855 348.732 211.06 348.482 211.322 348.307C211.585 348.131 211.894 348.037 212.21 348.037C212.632 348.037 213.037 348.204 213.336 348.502C213.635 348.8 213.804 349.204 213.806 349.626Z" fill="white"/>
<path d="M219.182 349.626C219.184 349.943 219.091 350.252 218.916 350.516C218.741 350.779 218.492 350.985 218.2 351.106C217.908 351.228 217.587 351.26 217.277 351.199C216.966 351.137 216.681 350.985 216.458 350.762C216.234 350.538 216.082 350.253 216.021 349.943C215.959 349.633 215.991 349.311 216.113 349.019C216.235 348.727 216.44 348.478 216.704 348.303C216.967 348.128 217.277 348.036 217.593 348.037C218.014 348.037 218.419 348.205 218.717 348.503C219.015 348.801 219.182 349.205 219.182 349.626Z" fill="white"/>
<path d="M224.558 349.626C224.56 349.942 224.467 350.252 224.293 350.515C224.118 350.778 223.869 350.984 223.578 351.106C223.286 351.228 222.965 351.26 222.655 351.199C222.345 351.139 222.06 350.987 221.836 350.764C221.612 350.541 221.459 350.257 221.397 349.947C221.335 349.637 221.366 349.316 221.487 349.024C221.608 348.732 221.812 348.482 222.075 348.307C222.337 348.131 222.646 348.037 222.962 348.037C223.384 348.037 223.789 348.204 224.088 348.502C224.388 348.8 224.557 349.204 224.558 349.626Z" fill="white"/>
<path d="M325.328 416.046C325.328 416.046 325.328 415.599 325.328 414.744C325.328 413.889 325.328 412.627 325.328 410.977C325.328 407.638 325.328 402.804 325.288 396.566C325.288 384.099 325.248 366.128 325.221 344.097L325.355 344.238H205.672L205.846 344.064C205.846 369.554 205.846 393.875 205.846 416.013L205.685 415.846L291.832 415.926L316.54 415.973H323.118H324.821H325.402H323.158H316.614L291.938 416.126L205.699 416.206H205.539V416.046C205.539 393.909 205.539 369.587 205.539 344.097V343.924H205.719L325.402 343.964H325.535V344.097C325.535 366.135 325.482 384.165 325.469 396.647C325.469 402.877 325.469 407.725 325.428 411.031C325.428 412.667 325.428 413.922 325.428 414.777C325.428 415.632 325.328 416.046 325.328 416.046Z" fill="#263238"/>
<path d="M223.863 367.275H218.774V404.525H223.863V367.275Z" fill="#7782FF"/>
<path d="M233.685 379.924H228.597V404.519H233.685V379.924Z" fill="#7782FF"/>
<path d="M243.503 371.904H238.414V404.713H243.503V371.904Z" fill="#7782FF"/>
<path d="M253.326 368.711H248.237V404.525H253.326V368.711Z" fill="#7782FF"/>
<path d="M263.143 380.682H258.054V404.522H263.143V380.682Z" fill="#7782FF"/>
<path d="M272.966 385.361H267.877V404.527H272.966V385.361Z" fill="#7782FF"/>
<path d="M282.783 371.096H277.695V404.519H282.783V371.096Z" fill="#7782FF"/>
<path d="M292.606 377.127H287.518V404.527H292.606V377.127Z" fill="#7782FF"/>
<path d="M302.423 372.305H297.334V404.519H302.423V372.305Z" fill="#7782FF"/>
<path d="M312.245 382.576H307.157V404.527H312.245V382.576Z" fill="#7782FF"/>
<g opacity="0.3">
<path d="M233.685 379.926H228.597V404.521H233.685V379.926Z" fill="white"/>
</g>
<g opacity="0.3">
<path d="M253.326 368.711H248.237V404.525H253.326V368.711Z" fill="white"/>
</g>
<g opacity="0.3">
<path d="M272.966 385.361H267.877V404.527H272.966V385.361Z" fill="white"/>
</g>
<g opacity="0.3">
<path d="M292.607 377.125H287.518V404.525H292.607V377.125Z" fill="white"/>
</g>
<g opacity="0.3">
<path d="M312.245 382.578H307.157V404.529H312.245V382.578Z" fill="white"/>
</g>
<path d="M319.552 404.526C319.552 404.619 295.879 404.7 266.682 404.7C237.486 404.7 213.806 404.64 213.806 404.526C213.806 404.412 237.473 404.346 266.682 404.346C295.892 404.346 319.552 404.426 319.552 404.526Z" fill="#263238"/>
<path d="M178.065 291.494H114.283V355.276H178.065V291.494Z" fill="white"/>
<path d="M147.539 328.35L165.123 328.59C164.989 337.939 157.109 345.606 147.539 345.606H147.433L147.539 328.35Z" fill="#3EBA59"/>
<path d="M144.754 325.84L144.507 343.096C134.951 342.962 127.144 335.216 127.144 325.84C127.144 316.464 135.084 308.584 144.734 308.584C154.384 308.584 162.324 316.377 162.324 325.84H144.754Z" fill="#7782FF"/>
<path d="M178.005 291.494H114.283V304.042H178.005V291.494Z" fill="#E0E0E0"/>
<path d="M121.716 299.575C122.715 299.575 123.526 298.764 123.526 297.765C123.526 296.765 122.715 295.955 121.716 295.955C120.716 295.955 119.906 296.765 119.906 297.765C119.906 298.764 120.716 299.575 121.716 299.575Z" fill="white"/>
<path d="M127.813 299.575C128.812 299.575 129.622 298.764 129.622 297.765C129.622 296.765 128.812 295.955 127.813 295.955C126.813 295.955 126.003 296.765 126.003 297.765C126.003 298.764 126.813 299.575 127.813 299.575Z" fill="white"/>
<path d="M135.719 297.79C135.719 298.148 135.613 298.498 135.414 298.796C135.215 299.093 134.933 299.325 134.602 299.462C134.271 299.599 133.907 299.635 133.556 299.565C133.205 299.495 132.883 299.323 132.63 299.07C132.377 298.817 132.204 298.494 132.134 298.143C132.065 297.792 132.1 297.428 132.237 297.098C132.374 296.767 132.606 296.484 132.904 296.285C133.202 296.087 133.551 295.98 133.909 295.98C134.389 295.98 134.85 296.171 135.189 296.511C135.528 296.85 135.719 297.31 135.719 297.79Z" fill="white"/>
<path d="M178.065 355.275C178.065 355.275 178.065 355.169 178.065 354.968C178.065 354.768 178.065 354.467 178.065 354.087C178.065 353.299 178.065 352.15 178.065 350.654C178.065 347.656 178.065 343.262 178.025 337.679C178.025 326.52 177.978 310.6 177.944 291.494L178.098 291.641H114.323L114.497 291.467C114.497 314.84 114.497 336.711 114.497 355.249L114.343 355.095L160.535 355.169L173.51 355.209H176.936H177.744H178.051H176.896H173.497L160.555 355.249L114.303 355.422H114.156V355.275C114.156 336.737 114.156 314.847 114.156 291.494V291.32H114.303H178.078H178.225V291.474C178.225 310.613 178.171 326.573 178.151 337.759C178.151 343.322 178.118 347.703 178.111 350.694C178.111 352.186 178.111 353.321 178.111 354.1C178.111 354.474 178.111 354.768 178.111 354.962C178.111 355.155 178.065 355.275 178.065 355.275Z" fill="#263238"/>
<path d="M333.976 203.891H160.074V329.39H333.976V203.891Z" fill="white"/>
<path d="M302.649 232.338H261.439C254.587 232.338 249.032 237.893 249.032 244.746V248.866C249.032 255.718 254.587 261.274 261.439 261.274H302.649C309.502 261.274 315.057 255.718 315.057 248.866V244.746C315.057 237.893 309.502 232.338 302.649 232.338Z" fill="#EBEBEB"/>
<path d="M172.535 264.648C172.474 259.332 173.989 254.117 176.889 249.661C179.788 245.205 183.943 241.708 188.829 239.612C193.715 237.515 199.112 236.913 204.339 237.882C209.567 238.85 214.39 241.345 218.201 245.052C222.011 248.76 224.638 253.513 225.75 258.712C226.861 263.91 226.408 269.322 224.447 274.263C222.485 279.205 219.104 283.454 214.73 286.476C210.355 289.497 205.184 291.155 199.868 291.239C192.72 291.329 185.828 288.579 180.704 283.594C175.58 278.609 172.642 271.796 172.535 264.648ZM212.296 263.98C212.243 261.441 211.439 258.974 209.987 256.891C208.534 254.808 206.497 253.201 204.133 252.274C201.768 251.347 199.182 251.14 196.701 251.681C194.219 252.221 191.953 253.484 190.188 255.31C188.423 257.136 187.238 259.444 186.783 261.943C186.328 264.441 186.623 267.019 187.63 269.35C188.637 271.681 190.312 273.662 192.444 275.043C194.576 276.424 197.068 277.143 199.608 277.109C203.027 277.051 206.283 275.639 208.662 273.182C211.041 270.726 212.348 267.426 212.296 264.007V263.98Z" fill="#F5F5F5"/>
<path d="M172.534 264.647C172.411 257.499 175.128 250.593 180.089 245.446C185.05 240.298 191.851 237.328 198.999 237.188L199.226 251.291C195.799 251.346 192.534 252.76 190.15 255.223C187.765 257.685 186.456 260.993 186.511 264.42C186.566 267.847 187.98 271.112 190.442 273.497C192.905 275.881 196.213 277.19 199.64 277.135L199.867 291.239C192.719 291.33 185.826 288.581 180.701 283.596C175.577 278.611 172.64 271.796 172.534 264.647Z" fill="#3EBA59"/>
<path d="M212.296 264.006C212.303 264.075 212.303 264.145 212.296 264.213V264.828C212.3 265.161 212.277 265.493 212.229 265.823C212.187 266.273 212.111 266.719 212.002 267.158C211.74 268.385 211.289 269.563 210.666 270.651C209.856 272.107 208.767 273.389 207.461 274.424C205.765 275.793 203.747 276.707 201.6 277.08C199.452 277.453 197.245 277.272 195.187 276.554C194.6 276.351 194.027 276.11 193.47 275.833C192.91 275.534 192.37 275.197 191.854 274.825C191.33 274.445 190.83 274.032 190.358 273.589C189.893 273.119 189.458 272.619 189.056 272.093C188.228 271.013 187.578 269.807 187.133 268.521C186.693 267.19 186.455 265.801 186.425 264.4C186.416 263 186.621 261.606 187.033 260.267C187.433 258.966 188.042 257.739 188.836 256.634C189.582 255.553 190.497 254.599 191.547 253.809C192.042 253.431 192.561 253.087 193.103 252.781C193.647 252.483 194.212 252.224 194.793 252.006C197.623 250.924 200.744 250.871 203.609 251.858C206.474 252.844 208.901 254.807 210.466 257.402C211.123 258.469 211.612 259.631 211.915 260.848C212.036 261.286 212.125 261.732 212.182 262.183C212.243 262.509 212.276 262.84 212.282 263.172C212.282 263.432 212.282 263.632 212.282 263.786C212.291 263.857 212.291 263.929 212.282 264C212.262 263.932 212.251 263.863 212.249 263.793C212.249 263.632 212.215 263.432 212.189 263.178C212.172 262.848 212.13 262.52 212.062 262.197C211.993 261.745 211.893 261.299 211.761 260.861C211.443 259.665 210.943 258.526 210.279 257.482C209.403 256.089 208.27 254.877 206.94 253.909C205.227 252.64 203.222 251.825 201.109 251.54C198.997 251.255 196.847 251.51 194.859 252.28C193.711 252.714 192.637 253.322 191.674 254.083C190.67 254.861 189.8 255.797 189.096 256.854C188.326 257.933 187.733 259.128 187.34 260.394C186.944 261.692 186.746 263.043 186.752 264.4C186.802 267.104 187.707 269.722 189.337 271.88C190.093 272.913 191.014 273.815 192.061 274.551C192.56 274.915 193.085 275.244 193.631 275.532C194.171 275.806 194.728 276.042 195.3 276.24C197.31 276.948 199.466 277.135 201.568 276.785C203.67 276.434 205.649 275.558 207.321 274.237C208.609 273.225 209.692 271.976 210.513 270.557C211.141 269.491 211.604 268.336 211.888 267.132C212.008 266.694 212.093 266.247 212.142 265.796C212.203 265.47 212.236 265.139 212.242 264.808C212.242 264.554 212.276 264.354 212.282 264.193C212.281 264.131 212.285 264.068 212.296 264.006Z" fill="#263238"/>
<path d="M172.534 264.647C172.534 264.647 172.534 264.794 172.581 265.081C172.628 265.368 172.635 265.809 172.681 266.356C172.681 266.643 172.728 266.957 172.755 267.298C172.781 267.638 172.875 268.019 172.942 268.426C173.008 268.834 173.089 269.268 173.169 269.762C173.268 270.256 173.393 270.744 173.543 271.224C174.208 273.736 175.251 276.131 176.635 278.33C178.439 281.26 180.79 283.815 183.56 285.856L184.728 286.704C185.136 286.971 185.57 287.205 185.997 287.465C186.425 287.726 186.852 287.993 187.333 288.207L188.735 288.874L189.443 289.202L190.191 289.462L191.707 289.99C192.221 290.157 192.762 290.257 193.296 290.39C193.829 290.54 194.371 290.656 194.919 290.738C196.043 290.929 197.179 291.043 198.318 291.078C198.892 291.078 199.48 291.138 200.068 291.118L201.837 290.998C202.138 290.998 202.438 290.998 202.732 290.925L203.62 290.771C204.215 290.657 204.822 290.584 205.423 290.444C207.869 289.845 210.226 288.932 212.435 287.726C212.996 287.405 213.531 287.058 214.085 286.697C214.643 286.352 215.176 285.969 215.681 285.549C216.736 284.728 217.733 283.835 218.666 282.878L220.001 281.355L220.335 280.974L220.636 280.56L221.23 279.726L221.831 278.891L222.359 277.996L222.88 277.101L223.14 276.654L223.361 276.18L224.235 274.276L224.903 272.273C226.651 266.757 226.557 260.822 224.636 255.364L223.875 253.361C223.568 252.733 223.254 252.105 222.94 251.484L222.706 251.017L222.432 250.576L221.878 249.695L221.33 248.82L220.703 248.005L220.075 247.19L219.768 246.79L219.414 246.416C218.953 245.915 218.492 245.427 218.031 244.933C217.069 244.016 216.045 243.166 214.966 242.389C214.449 241.984 213.902 241.618 213.33 241.294C212.769 240.967 212.222 240.626 211.654 240.312C210.515 239.739 209.339 239.242 208.135 238.823C206.963 238.412 205.765 238.079 204.549 237.828C203.948 237.708 203.34 237.648 202.746 237.554L201.844 237.434C201.55 237.394 201.25 237.434 200.949 237.387L199.173 237.327C198.585 237.327 198.004 237.394 197.43 237.421C196.292 237.493 195.161 237.644 194.044 237.875C193.498 237.972 192.958 238.104 192.428 238.269C191.901 238.422 191.366 238.542 190.859 238.723L189.363 239.304L188.622 239.584L187.92 239.938L186.538 240.606C186.084 240.826 185.677 241.133 185.249 241.387C184.822 241.641 184.401 241.908 184 242.189L182.859 243.07C180.156 245.2 177.889 247.83 176.181 250.817C174.869 253.06 173.905 255.489 173.322 258.022C173.186 258.508 173.077 259 172.995 259.498C172.928 259.965 172.862 260.399 172.808 260.834C172.755 261.268 172.681 261.615 172.655 261.955C172.628 262.296 172.655 262.623 172.614 262.904C172.614 263.458 172.568 263.879 172.554 264.179C172.541 264.48 172.521 264.62 172.521 264.62C172.521 264.62 172.521 264.473 172.521 264.179C172.521 263.885 172.521 263.451 172.521 262.897C172.521 262.617 172.521 262.296 172.521 261.949C172.521 261.602 172.608 261.228 172.655 260.82C172.701 260.413 172.768 259.965 172.828 259.485C172.905 258.983 173.01 258.486 173.142 257.995C173.709 255.445 174.659 252.995 175.96 250.73C177.662 247.71 179.929 245.046 182.638 242.883L183.787 241.988C184.194 241.701 184.622 241.447 185.042 241.174C185.463 240.9 185.884 240.606 186.344 240.379L187.74 239.711L188.408 239.35L189.156 239.063L190.672 238.476C191.179 238.289 191.72 238.168 192.254 238.008C192.792 237.841 193.338 237.705 193.891 237.601C195.018 237.368 196.161 237.214 197.31 237.14C197.891 237.14 198.478 237.04 199.073 237.033L200.869 237.093C201.17 237.093 201.47 237.093 201.777 237.14L202.679 237.26C203.286 237.354 203.901 237.414 204.509 237.527C205.74 237.784 206.954 238.121 208.141 238.536C209.396 238.95 210.619 239.454 211.801 240.045C212.375 240.352 212.936 240.713 213.504 241.033C214.081 241.362 214.634 241.73 215.16 242.135C216.253 242.925 217.293 243.786 218.272 244.713L219.668 246.209L220.022 246.589L220.342 246.997L220.97 247.818L221.638 248.646L222.192 249.528L222.753 250.423L223.033 250.87L223.267 251.337L224.222 253.241C224.476 253.908 224.729 254.576 224.99 255.244C226.937 260.771 227.031 266.782 225.257 272.366L224.589 274.37C224.295 275.038 223.995 275.659 223.701 276.3L223.481 276.781L223.214 277.235L222.686 278.143L222.152 279.044L221.544 279.886L220.936 280.727L220.636 281.148L220.295 281.535C219.841 282.056 219.394 282.57 218.96 283.078C218.012 284.035 217.002 284.928 215.935 285.749C215.423 286.171 214.883 286.557 214.319 286.904C213.758 287.252 213.217 287.619 212.649 287.946C211.519 288.565 210.347 289.105 209.143 289.562C207.969 290.015 206.767 290.389 205.544 290.684C204.943 290.824 204.328 290.898 203.727 291.011L202.826 291.165C202.525 291.212 202.218 291.212 201.917 291.238L200.128 291.352C199.533 291.352 198.946 291.352 198.358 291.312C197.207 291.269 196.061 291.151 194.926 290.958C194.372 290.872 193.823 290.753 193.283 290.604C192.742 290.464 192.201 290.364 191.68 290.19L190.151 289.656L189.396 289.389L188.675 289.055L187.266 288.387C186.799 288.173 186.378 287.879 185.93 287.632C185.483 287.385 185.062 287.131 184.648 286.864L183.473 286.003C180.67 283.953 178.291 281.379 176.468 278.423C175.089 276.203 174.06 273.784 173.416 271.251C173.27 270.756 173.154 270.252 173.069 269.742L172.848 268.406C172.788 267.999 172.715 267.625 172.681 267.278C172.648 266.931 172.641 266.61 172.628 266.33C172.628 265.775 172.574 265.348 172.554 265.047C172.534 264.747 172.534 264.647 172.534 264.647Z" fill="#263238"/>
<path d="M196.582 235.018C213.945 234.737 227.782 248.207 228.062 265.643L211.634 265.904C211.501 257.57 205.163 252.321 196.863 252.454L196.582 235.018Z" fill="#7782FF"/>
<path d="M196.582 235.017C196.582 235.017 196.582 235.131 196.582 235.344C196.582 235.558 196.582 235.872 196.582 236.259C196.582 237.081 196.629 238.263 196.669 239.758C196.736 242.784 196.823 247.104 196.943 252.447L196.809 252.32C198.475 252.294 200.135 252.499 201.744 252.927C203.516 253.393 205.179 254.2 206.639 255.305C208.21 256.508 209.48 258.057 210.352 259.832C211.258 261.727 211.736 263.797 211.755 265.896L211.581 265.729L224.269 265.522L227.976 265.462L227.809 265.636C227.719 262.333 227.154 259.061 226.132 255.919L225.385 253.715C225.071 253.001 224.717 252.313 224.376 251.625C224.049 250.932 223.674 250.263 223.254 249.622C222.886 248.982 222.48 248.364 222.039 247.772C221.598 247.191 221.157 246.623 220.703 246.056C220.249 245.488 219.748 245.021 219.288 244.506L218.586 243.759L217.832 243.091L216.349 241.755C214.468 240.276 212.425 239.014 210.259 237.995L208.803 237.328C208.316 237.134 207.835 236.98 207.367 236.813L206.032 236.346C205.591 236.206 205.15 236.119 204.696 236.012L203.474 235.718L202.9 235.578L202.332 235.498L200.329 235.211C199.797 235.137 199.262 235.095 198.726 235.084L197.544 235.024L196.843 235.017H196.582H197.544H198.739C199.286 235.008 199.833 235.04 200.375 235.111L202.379 235.364L202.946 235.444L203.527 235.571L204.763 235.858C205.184 235.965 205.631 236.039 206.098 236.179L207.434 236.64C207.902 236.807 208.389 236.954 208.877 237.141L210.352 237.808C212.545 238.821 214.615 240.08 216.523 241.561C217.01 241.996 217.511 242.43 218.019 242.897L218.787 243.565L219.495 244.319C219.962 244.834 220.463 245.335 220.93 245.882L222.266 247.612C222.715 248.207 223.128 248.829 223.501 249.475C223.927 250.115 224.306 250.784 224.637 251.478C224.97 252.146 225.344 252.861 225.658 253.589L226.506 255.826C227.544 258.999 228.118 262.305 228.209 265.642V265.816H228.036L224.329 265.876L211.641 266.076H211.468V265.909C211.462 263.861 211.006 261.839 210.132 259.986C209.289 258.251 208.054 256.735 206.526 255.559C205.1 254.472 203.476 253.674 201.744 253.208C200.162 252.781 198.529 252.572 196.89 252.587H196.756V252.46C196.696 247.118 196.649 242.73 196.622 239.678C196.622 238.189 196.622 237.007 196.622 236.212V235.318C196.576 235.117 196.582 235.017 196.582 235.017Z" fill="#263238"/>
<path d="M333.976 203.891H160.074V220.652H333.976V203.891Z" fill="#E0E0E0"/>
<path d="M307.297 242.05H258.414C258.141 242.05 257.879 241.943 257.684 241.752C257.489 241.561 257.377 241.301 257.372 241.028C257.372 240.752 257.482 240.487 257.677 240.291C257.873 240.096 258.138 239.986 258.414 239.986H307.297C307.572 239.988 307.835 240.099 308.029 240.294C308.223 240.489 308.332 240.753 308.332 241.028C308.327 241.3 308.215 241.559 308.022 241.749C307.829 241.94 307.568 242.048 307.297 242.05Z" fill="#263238"/>
<path d="M307.297 247.59H258.414C258.138 247.59 257.873 247.48 257.677 247.285C257.482 247.09 257.372 246.825 257.372 246.548C257.371 246.411 257.398 246.275 257.449 246.148C257.501 246.021 257.578 245.905 257.675 245.807C257.772 245.71 257.887 245.633 258.014 245.58C258.14 245.527 258.276 245.5 258.414 245.5H307.297C307.434 245.5 307.57 245.527 307.697 245.58C307.824 245.633 307.939 245.71 308.036 245.807C308.133 245.905 308.209 246.021 308.261 246.148C308.313 246.275 308.339 246.411 308.338 246.548C308.338 246.825 308.229 247.09 308.033 247.285C307.838 247.48 307.573 247.59 307.297 247.59Z" fill="#263238"/>
<path d="M280.625 253.133H258.414C258.138 253.133 257.873 253.023 257.677 252.828C257.482 252.633 257.372 252.368 257.372 252.091C257.371 251.954 257.398 251.818 257.449 251.691C257.501 251.564 257.578 251.448 257.675 251.35C257.772 251.253 257.887 251.176 258.014 251.123C258.14 251.07 258.276 251.043 258.414 251.043H280.625C280.762 251.042 280.898 251.068 281.026 251.12C281.153 251.172 281.268 251.249 281.366 251.346C281.463 251.443 281.541 251.558 281.593 251.685C281.646 251.811 281.673 251.947 281.673 252.085C281.674 252.223 281.648 252.359 281.595 252.487C281.543 252.615 281.466 252.731 281.368 252.828C281.271 252.926 281.155 253.003 281.027 253.055C280.9 253.108 280.763 253.134 280.625 253.133Z" fill="#263238"/>
<path d="M302.649 267.74H261.439C254.587 267.74 249.032 273.295 249.032 280.148V284.268C249.032 291.121 254.587 296.676 261.439 296.676H302.649C309.502 296.676 315.057 291.121 315.057 284.268V280.148C315.057 273.295 309.502 267.74 302.649 267.74Z" fill="#EBEBEB"/>
<path d="M308.632 314.717H254.053C252.537 314.715 251.083 314.111 250.011 313.038C248.939 311.965 248.337 310.51 248.337 308.994C248.337 308.243 248.485 307.5 248.772 306.806C249.059 306.113 249.48 305.482 250.011 304.952C250.542 304.421 251.172 304 251.866 303.712C252.559 303.425 253.303 303.277 254.053 303.277H308.632C310.149 303.277 311.604 303.879 312.677 304.951C313.75 306.023 314.354 307.477 314.355 308.994C314.355 310.512 313.753 311.967 312.679 313.04C311.606 314.114 310.15 314.717 308.632 314.717Z" fill="#EBEBEB"/>
<path d="M306.97 277.705H258.094C257.817 277.705 257.552 277.595 257.357 277.399C257.162 277.204 257.052 276.939 257.052 276.663C257.052 276.387 257.162 276.122 257.357 275.926C257.552 275.731 257.817 275.621 258.094 275.621H306.97C307.107 275.621 307.242 275.648 307.368 275.7C307.495 275.753 307.61 275.829 307.706 275.926C307.803 276.023 307.88 276.138 307.932 276.264C307.985 276.391 308.011 276.526 308.011 276.663C308.011 276.8 307.985 276.935 307.932 277.062C307.88 277.188 307.803 277.303 307.706 277.399C307.61 277.496 307.495 277.573 307.368 277.625C307.242 277.678 307.107 277.705 306.97 277.705Z" fill="#263238"/>
<path d="M304.886 310.164H256.01C255.734 310.164 255.469 310.054 255.273 309.859C255.078 309.664 254.968 309.399 254.968 309.122C254.968 308.846 255.078 308.581 255.273 308.386C255.469 308.19 255.734 308.081 256.01 308.081H304.886C305.028 308.076 305.168 308.1 305.3 308.152C305.431 308.203 305.551 308.281 305.652 308.381C305.752 308.48 305.832 308.599 305.885 308.73C305.938 308.861 305.964 309.001 305.961 309.142C305.959 309.28 305.929 309.416 305.873 309.543C305.818 309.669 305.737 309.783 305.637 309.878C305.537 309.973 305.419 310.047 305.291 310.096C305.162 310.146 305.024 310.169 304.886 310.164Z" fill="#263238"/>
<path d="M306.97 283.246H258.094C257.817 283.246 257.552 283.136 257.357 282.941C257.162 282.745 257.052 282.48 257.052 282.204C257.052 281.928 257.162 281.663 257.357 281.467C257.552 281.272 257.817 281.162 258.094 281.162H306.97C307.107 281.162 307.242 281.189 307.368 281.241C307.495 281.294 307.61 281.37 307.706 281.467C307.803 281.564 307.88 281.679 307.932 281.805C307.985 281.932 308.011 282.067 308.011 282.204C308.011 282.341 307.985 282.476 307.932 282.603C307.88 282.729 307.803 282.844 307.706 282.941C307.61 283.037 307.495 283.114 307.368 283.166C307.242 283.219 307.107 283.246 306.97 283.246Z" fill="#263238"/>
<path d="M280.304 288.789H258.094C257.817 288.789 257.552 288.679 257.357 288.483C257.162 288.288 257.052 288.023 257.052 287.747C257.052 287.471 257.162 287.206 257.357 287.01C257.552 286.815 257.817 286.705 258.094 286.705H280.304C280.581 286.705 280.846 286.815 281.041 287.01C281.237 287.206 281.346 287.471 281.346 287.747C281.346 288.023 281.237 288.288 281.041 288.483C280.846 288.679 280.581 288.789 280.304 288.789Z" fill="#263238"/>
<path d="M245.619 238.521C245.316 238.571 245.01 238.593 244.704 238.588L242.213 238.641C240.109 238.641 237.198 238.695 233.992 238.695H230.246L230.366 238.648C228.73 240.264 227.321 241.64 226.313 242.608L225.157 243.696C225.025 243.84 224.875 243.966 224.71 244.07C224.815 243.906 224.94 243.755 225.084 243.623L226.206 242.434C227.167 241.426 228.55 240.017 230.166 238.381L230.213 238.334H234.026C237.231 238.334 240.143 238.334 242.246 238.381L244.737 238.434C245.033 238.435 245.328 238.464 245.619 238.521Z" fill="#263238"/>
<path d="M244.897 239.958C245.664 239.958 246.286 239.336 246.286 238.569C246.286 237.802 245.664 237.18 244.897 237.18C244.13 237.18 243.508 237.802 243.508 238.569C243.508 239.336 244.13 239.958 244.897 239.958Z" fill="#263238"/>
<path d="M244.897 281.71C245.664 281.71 246.286 281.088 246.286 280.321C246.286 279.554 245.664 278.932 244.897 278.932C244.13 278.932 243.508 279.554 243.508 280.321C243.508 281.088 244.13 281.71 244.897 281.71Z" fill="#263238"/>
<path d="M243.977 280.568C243.204 280.658 242.425 280.691 241.646 280.668C240.204 280.668 238.214 280.668 236.017 280.668L230.394 280.615L228.685 280.575C228.478 280.589 228.27 280.589 228.063 280.575C228.828 280.419 229.608 280.358 230.387 280.395C231.83 280.355 233.82 280.335 236.017 280.348C238.214 280.361 240.204 280.388 241.646 280.428C242.426 280.413 243.205 280.46 243.977 280.568Z" fill="#263238"/>
<path d="M185.79 311.086H181.236V315.64H185.79V311.086Z" fill="#455A64"/>
<path d="M201.065 311.086H196.51V315.64H201.065V311.086Z" fill="#E0E0E0"/>
<path d="M217.632 311.086H213.077V315.64H217.632V311.086Z" fill="#7782FF"/>
<path d="M171.908 212.269C171.888 212.723 171.736 213.16 171.469 213.528C171.203 213.896 170.835 214.177 170.41 214.337C169.985 214.497 169.523 214.529 169.08 214.429C168.637 214.328 168.234 214.1 167.92 213.772C167.606 213.445 167.395 213.032 167.313 212.585C167.232 212.139 167.283 211.678 167.461 211.26C167.639 210.843 167.936 210.487 168.314 210.236C168.693 209.986 169.137 209.852 169.59 209.852C169.902 209.858 170.208 209.925 170.493 210.05C170.778 210.175 171.036 210.355 171.251 210.579C171.466 210.804 171.635 211.069 171.748 211.359C171.86 211.649 171.915 211.958 171.908 212.269Z" fill="white"/>
<path d="M179.747 212.271C179.727 212.724 179.575 213.162 179.308 213.53C179.042 213.898 178.674 214.179 178.249 214.339C177.824 214.499 177.362 214.531 176.919 214.431C176.476 214.33 176.073 214.102 175.759 213.774C175.445 213.447 175.234 213.034 175.152 212.587C175.07 212.141 175.122 211.68 175.3 211.262C175.478 210.845 175.774 210.489 176.153 210.238C176.532 209.988 176.975 209.854 177.429 209.854C177.74 209.86 178.047 209.927 178.332 210.052C178.617 210.177 178.875 210.357 179.09 210.581C179.305 210.806 179.474 211.071 179.587 211.361C179.699 211.651 179.754 211.96 179.747 212.271Z" fill="white"/>
<path d="M187.52 212.269C187.5 212.723 187.347 213.161 187.081 213.529C186.814 213.896 186.445 214.178 186.02 214.338C185.595 214.498 185.132 214.529 184.689 214.428C184.247 214.327 183.843 214.098 183.529 213.77C183.215 213.442 183.005 213.028 182.924 212.581C182.843 212.134 182.896 211.673 183.075 211.256C183.254 210.838 183.551 210.483 183.931 210.233C184.31 209.983 184.755 209.851 185.209 209.852C185.519 209.859 185.826 209.927 186.11 210.052C186.394 210.177 186.651 210.357 186.865 210.582C187.08 210.806 187.248 211.071 187.36 211.36C187.473 211.65 187.527 211.959 187.52 212.269Z" fill="white"/>
<path d="M334.009 329.39C334.009 328.221 333.949 280.013 333.869 203.891L334.009 204.031H160.121L160.294 203.857C160.294 248.84 160.294 291.499 160.294 329.357L160.141 329.196L334.042 329.357L160.141 329.51H159.98V329.357C159.98 291.499 159.98 248.84 159.98 203.857V203.684H160.167H334.056H334.196V203.824C334.009 280.013 334.009 328.221 334.009 329.39Z" fill="#263238"/>
<path d="M556.528 259.672H300.947V450.728H556.528V259.672Z" fill="#263238"/>
<path d="M555.455 259.355H300.76V283.427H555.455V259.355Z" fill="#364349"/>
<path d="M314.132 274.885C316.012 274.885 317.536 273.361 317.536 271.481C317.536 269.602 316.012 268.078 314.132 268.078C312.253 268.078 310.729 269.602 310.729 271.481C310.729 273.361 312.253 274.885 314.132 274.885Z" fill="#FF725E"/>
<path d="M325.598 274.885C327.477 274.885 329.001 273.361 329.001 271.481C329.001 269.602 327.477 268.078 325.598 268.078C323.718 268.078 322.194 269.602 322.194 271.481C322.194 273.361 323.718 274.885 325.598 274.885Z" fill="#FFC100"/>
<path d="M337.076 274.885C338.955 274.885 340.479 273.361 340.479 271.481C340.479 269.602 338.955 268.078 337.076 268.078C335.196 268.078 333.672 269.602 333.672 271.481C333.672 273.361 335.196 274.885 337.076 274.885Z" fill="#3EBA59"/>
<path d="M541.633 374.806C541.633 375.012 490.776 375.164 428.055 375.164C365.334 375.164 314.449 375.012 314.449 374.806C314.449 374.599 365.293 374.447 428.055 374.447C490.817 374.447 541.633 374.613 541.633 374.806Z" fill="#E0E0E0"/>
<path d="M541.633 355.2C541.633 355.393 490.776 355.558 428.055 355.558C365.334 355.558 314.449 355.393 314.449 355.2C314.449 355.007 365.293 354.842 428.055 354.842C490.817 354.842 541.633 354.993 541.633 355.2Z" fill="#E0E0E0"/>
<path d="M541.633 335.579C541.633 335.786 490.776 335.937 428.055 335.937C365.334 335.937 314.449 335.786 314.449 335.579C314.449 335.372 365.293 335.221 428.055 335.221C490.817 335.221 541.633 335.386 541.633 335.579Z" fill="#E0E0E0"/>
<path d="M541.633 315.973C541.633 316.166 490.776 316.332 428.055 316.332C365.334 316.332 314.449 316.166 314.449 315.973C314.449 315.781 365.293 315.615 428.055 315.615C490.817 315.615 541.633 315.767 541.633 315.973Z" fill="#E0E0E0"/>
<path d="M352.577 365.918H333.672V403.933H352.577V365.918Z" fill="#7782FF"/>
<path d="M420.423 365.918H401.519V403.933H420.423V365.918Z" fill="#3EBA59"/>
<path d="M523.321 378.871H504.417V403.921H523.321V378.871Z" fill="#3EBA59"/>
<path d="M488.255 347.91H469.351V403.921H488.255V347.91Z" fill="#E4897B"/>
<path d="M453.572 326.113H434.668V403.936H453.572V326.113Z" fill="#7782FF"/>
<path d="M385.15 347.91H366.245V403.921H385.15V347.91Z" fill="#E4897B"/>
<path d="M538.934 403.936H538.08H535.599H526.064L490.97 404.046L375.229 404.156H314.161H313.748V403.826C313.748 373.719 313.858 348.049 313.886 329.889C313.886 320.836 313.955 313.658 313.982 308.711C313.982 306.272 313.982 304.385 313.982 303.076C313.982 302.456 313.982 301.987 313.982 301.629C313.971 301.464 313.971 301.298 313.982 301.133C313.982 301.133 313.982 301.312 313.982 301.629V303.076C313.982 304.385 313.982 306.272 313.982 308.711C313.982 313.658 313.982 320.836 314.079 329.889C314.079 348.049 314.161 373.719 314.217 403.826L313.886 403.481H375.201L490.943 403.578L526.037 403.688L535.572 403.757H538.052L538.934 403.936Z" fill="#263238"/>
<path d="M362.167 423.211H353.858V431.52H362.167V423.211Z" fill="#7782FF"/>
<path d="M412.927 422.949H404.618V431.258H412.927V422.949Z" fill="#E4897B"/>
<path d="M467.836 423.211H459.527V431.52H467.836V423.211Z" fill="#3EBA59"/>
<path d="M389.667 427.096C385.908 427.459 382.129 427.579 378.354 427.455C374.58 427.579 370.801 427.459 367.042 427.096C370.802 426.742 374.58 426.622 378.354 426.738C382.129 426.622 385.907 426.742 389.667 427.096Z" fill="#263238"/>
<path d="M440.042 427.096C436.283 427.459 432.504 427.579 428.729 427.455C424.955 427.579 421.176 427.459 417.417 427.096C421.177 426.742 424.955 426.622 428.729 426.738C432.504 426.622 436.282 426.742 440.042 427.096Z" fill="#263238"/>
<path d="M493.669 427.097C486.14 427.574 478.588 427.574 471.059 427.097C478.588 426.619 486.14 426.619 493.669 427.097Z" fill="#263238"/>
<path d="M146.486 172.551H103.687V215.35H146.486V172.551Z" fill="white"/>
<path d="M146.485 215.358C146.485 215.358 146.485 215.284 146.485 215.151C146.485 215.017 146.485 214.81 146.485 214.556C146.485 214.022 146.485 213.254 146.485 212.252C146.485 210.249 146.485 207.284 146.445 203.538C146.445 196.045 146.398 185.367 146.365 172.558L146.518 172.705H103.719L103.893 172.532C103.893 188.205 103.893 202.89 103.893 215.331L103.746 215.184L134.725 215.257L143.44 215.298H145.744H146.358H145.777L143.433 215.358L134.752 215.398L103.679 215.478H103.525V215.358C103.525 202.917 103.525 188.232 103.525 172.558V172.385H103.699H146.498H146.652V172.538C146.652 185.387 146.598 196.098 146.578 203.611C146.578 207.344 146.578 210.289 146.538 212.292C146.538 213.281 146.538 214.042 146.538 214.57C146.538 214.817 146.538 215.01 146.538 215.151C146.525 215.221 146.507 215.29 146.485 215.358Z" fill="#263238"/>
<path d="M127.52 194.021C128.755 193.476 129.804 192.581 130.535 191.446C131.266 190.311 131.648 188.987 131.634 187.637C131.634 183.824 128.769 180.725 125.19 180.705C121.61 180.685 118.725 183.764 118.725 187.577C118.7 188.938 119.079 190.277 119.813 191.424C120.548 192.57 121.605 193.474 122.852 194.021C112.895 195.517 113.343 206.342 113.343 206.342L136.889 206.449C136.889 206.449 137.424 195.51 127.52 194.021Z" fill="#7782FF"/>
</g>
<defs>
<filter id="filter0_d_109_5253" x="56.0228" y="72.2168" width="479.884" height="544.334" filterUnits="userSpaceOnUse" color-interpolation-filters="sRGB">
<feFlood flood-opacity="0" result="BackgroundImageFix"/>
<feColorMatrix in="SourceAlpha" type="matrix" values="0 0 0 0 0 0 0 0 0 0 0 0 0 0 0 0 0 0 127 0" result="hardAlpha"/>
<feOffset dx="1.55302" dy="26.4013"/>
<feGaussianBlur stdDeviation="7.7651"/>
<feComposite in2="hardAlpha" operator="out"/>
<feColorMatrix type="matrix" values="0 0 0 0 0.458333 0 0 0 0 0.458333 0 0 0 0 0.458333 0 0 0 0.25 0"/>
<feBlend mode="multiply" in2="BackgroundImageFix" result="effect1_dropShadow_109_5253"/>
<feBlend mode="normal" in="SourceGraphic" in2="effect1_dropShadow_109_5253" result="shape"/>
</filter>
<linearGradient id="paint0_linear_109_5253" x1="-196.686" y1="5.42411e-05" x2="712.364" y2="178.787" gradientUnits="userSpaceOnUse">
<stop offset="0.0963806" stop-color="#A2FBFF"/>
<stop offset="0.550589" stop-color="#CCD0FF"/>
<stop offset="1" stop-color="#FFCCE0"/>
</linearGradient>
<clipPath id="clip0_109_5253">
<rect width="500.849" height="333.899" fill="white" transform="translate(75.5713 180.928)"/>
</clipPath>
</defs>
</svg>
