<svg width="54" height="54" viewBox="0 0 54 54" fill="none" xmlns="http://www.w3.org/2000/svg">
<path d="M19.58 23.8516C19.894 23.6673 20.1543 23.404 20.3349 23.0879C20.5155 22.7717 20.6102 22.4138 20.6096 22.0497V3.51658C20.6125 3.18487 20.5352 2.85737 20.3843 2.56195C20.2334 2.26653 20.0133 2.01194 19.7429 1.81985C19.4724 1.62775 19.1596 1.50384 18.8309 1.45865C18.5023 1.41346 18.1676 1.44834 17.8554 1.56031C12.642 3.41746 8.12986 6.84039 4.93668 11.3606C1.74351 15.8808 0.0252887 21.2774 0.0172119 26.8117C0.0200003 28.4516 0.166423 30.0881 0.4548 31.7024C0.516672 32.0249 0.653835 32.3282 0.855122 32.5876C1.05641 32.8471 1.31613 33.0553 1.61312 33.1954C1.8872 33.3246 2.18537 33.3947 2.4883 33.4013C2.85043 33.3991 3.20558 33.3014 3.51792 33.1181L19.58 23.8516ZM16.4911 6.63118V20.8657L4.16143 27.9958C4.13569 27.5839 4.13569 27.1978 4.13569 26.8117C4.1436 22.6378 5.30072 18.5466 7.48017 14.9868C9.65962 11.427 12.7772 8.53617 16.4911 6.63118Z" fill="#C9CDFF"/>
<path d="M50.0309 13.529C50.0043 13.5003 49.9864 13.4646 49.9794 13.4261L49.8765 13.2974C47.5207 9.26383 44.1496 5.91764 40.0987 3.59187C36.0477 1.26609 31.4583 0.0418576 26.7872 0.0410156C26.2411 0.0410156 25.7173 0.25797 25.3311 0.644153C24.945 1.03033 24.728 1.55411 24.728 2.10025V25.6271L4.36728 37.3905C4.12996 37.5216 3.92127 37.6989 3.75348 37.9119C3.58568 38.1249 3.46218 38.3692 3.39022 38.6307C3.31827 38.8921 3.29933 39.1653 3.33451 39.4341C3.36969 39.703 3.45828 39.9621 3.59507 40.1962V40.2477L3.67229 40.3764C6.64157 45.4593 11.2035 49.4217 16.6519 51.6505C22.1003 53.8792 28.1314 54.25 33.8118 52.7053C39.4922 51.1606 44.5051 47.7867 48.0745 43.1057C51.644 38.4248 53.571 32.6978 53.5573 26.8111C53.5636 22.1516 52.3477 17.5718 50.0309 13.529Z" fill="#407BFF"/>
</svg>
