<svg width="144" height="148" viewBox="0 0 144 148" fill="none" xmlns="http://www.w3.org/2000/svg">
<path d="M60.3332 56.6626C61.286 56.1026 62.0758 55.3025 62.624 54.3419C63.1721 53.3814 63.4595 52.2938 63.4576 51.1875V-5.12783C63.4663 -6.13579 63.2318 -7.13095 62.7739 -8.02861C62.3159 -8.92628 61.6482 -9.69988 60.8276 -10.2836C60.0069 -10.8673 59.0575 -11.2438 58.0603 -11.3811C57.063 -11.5184 56.0474 -11.4125 55.0998 -11.0722C39.2797 -5.42904 25.5877 4.97198 15.8979 18.7072C6.20819 32.4425 0.994236 48.8407 0.969727 65.6574C0.978188 70.6404 1.42251 75.613 2.29759 80.5184C2.48534 81.4983 2.90157 82.4199 3.51238 83.2083C4.12318 83.9966 4.9113 84.6293 5.81254 85.0549C6.64422 85.4475 7.54902 85.6607 8.46827 85.6806C9.56717 85.6739 10.6449 85.3771 11.5927 84.8202L60.3332 56.6626ZM50.96 4.33627V47.5896L13.5454 69.2553C13.4673 68.0039 13.4673 66.8306 13.4673 65.6574C13.4913 52.9743 17.0026 40.5427 23.6162 29.7259C30.2297 18.9091 39.6902 10.1248 50.96 4.33627Z" fill="#EEEEEE"/>
<path d="M153.562 25.1526C153.48 25.065 153.426 24.9561 153.404 24.8388L153.089 24.4465C145.888 12.1528 135.582 1.95411 123.198 -5.13453C110.815 -12.2232 96.7848 -15.9545 82.5051 -15.957C80.8356 -15.957 79.2344 -15.2958 78.0538 -14.1188C76.8732 -12.9417 76.21 -11.3453 76.21 -9.68076V62.0257L13.9668 97.8789C13.2413 98.2786 12.6033 98.8189 12.0904 99.4681C11.5774 100.117 11.1998 100.862 10.9799 101.659C10.7599 102.456 10.702 103.288 10.8096 104.108C10.9171 104.927 11.1879 105.717 11.6061 106.43V106.587L11.8422 106.979C20.9193 122.471 34.8651 134.549 51.5211 141.341C68.1771 148.134 86.6144 149.264 103.979 144.556C121.344 139.848 136.669 129.565 147.581 115.298C158.493 101.031 164.384 83.5762 164.342 65.6345C164.361 51.4328 160.644 37.4744 153.562 25.1526Z" fill="#EEEEEE"/>
</svg>
