<svg width="45" height="44" viewBox="0 0 45 44" fill="none" xmlns="http://www.w3.org/2000/svg">
<rect x="2.58557" y="22.5352" width="11.2716" height="20.8091" rx="3.46819" fill="#90CC9D"/>
<rect x="17.3253" y="12.998" width="12.1387" height="30.3467" rx="3.46819" fill="#469B59"/>
<rect x="32.9323" y="1.72656" width="11.2716" height="41.6183" rx="3.46819" fill="#90CC9D"/>
<circle cx="8.65512" cy="7.79562" r="7.80343" fill="#434343"/>
<path fill-rule="evenodd" clip-rule="evenodd" d="M7.55432 4.56749L11.5177 5.5586C11.7609 5.61942 11.9022 5.86412 11.8332 6.10516L10.7099 10.0331C10.6409 10.2741 10.3879 10.4202 10.1447 10.3594C9.90148 10.2986 9.7602 10.0539 9.82914 9.81285L10.6512 6.93857L6.14093 9.54255C5.92749 9.66578 5.65455 9.59265 5.53132 9.3792C5.40809 9.16576 5.48122 8.89282 5.69467 8.76959L10.2049 6.16561L7.30468 5.44036C7.06147 5.37954 6.92019 5.13484 6.98912 4.8938C7.05806 4.65277 7.3111 4.50667 7.55432 4.56749Z" fill="white"/>
</svg>
