<svg width="24" height="25" viewBox="0 0 24 25" fill="none" xmlns="http://www.w3.org/2000/svg">
<path d="M10.486 17.2099C10.3547 17.2101 10.2247 17.1845 10.1034 17.1344C9.98204 17.0843 9.87181 17.0107 9.77899 16.9179L5.53699 12.6749C5.44141 12.5827 5.36516 12.4724 5.31266 12.3504C5.26017 12.2285 5.23249 12.0973 5.23125 11.9645C5.23 11.8317 5.25521 11.7 5.3054 11.5771C5.3556 11.4542 5.42977 11.3425 5.52359 11.2485C5.61742 11.1545 5.72902 11.0802 5.85188 11.0298C5.97474 10.9795 6.1064 10.9541 6.23918 10.9551C6.37196 10.9562 6.50319 10.9837 6.62523 11.036C6.74727 11.0883 6.85767 11.1644 6.94999 11.2599L10.485 14.7949L16.85 8.43187C17.0375 8.24423 17.2919 8.13877 17.5571 8.13867C17.8224 8.13858 18.0768 8.24387 18.2645 8.43137C18.4521 8.61888 18.5576 8.87325 18.5577 9.13852C18.5578 9.40379 18.4525 9.65823 18.265 9.84587L11.193 16.9179C11.1002 17.0107 10.9899 17.0843 10.8686 17.1344C10.7473 17.1845 10.6173 17.2101 10.486 17.2099Z" fill="#0267FF"/>
</svg>
