<svg width="61" height="62" viewBox="0 0 61 62" fill="none" xmlns="http://www.w3.org/2000/svg">
<rect x="0.376953" y="0.419922" width="60.6106" height="60.6106" rx="6.62928" fill="#F0F5FF"/>
<path d="M31.9062 39.9173C31.7287 39.7397 31.629 39.4988 31.629 39.2477C31.629 38.9965 31.7287 38.7557 31.9062 38.5781L38.813 31.6714H20.2644C20.0133 31.6714 19.7724 31.5716 19.5948 31.394C19.4172 31.2164 19.3174 30.9755 19.3174 30.7243C19.3174 30.4732 19.4172 30.2323 19.5948 30.0547C19.7724 29.8771 20.0133 29.7773 20.2644 29.7773H38.813L31.9062 22.8706C31.8183 22.7827 31.7486 22.6783 31.701 22.5634C31.6534 22.4485 31.6289 22.3253 31.6289 22.2009C31.6289 22.0766 31.6534 21.9534 31.701 21.8385C31.7486 21.7236 31.8184 21.6192 31.9063 21.5313C31.9943 21.4433 32.0987 21.3736 32.2136 21.326C32.3285 21.2784 32.4516 21.2539 32.576 21.2539C32.7004 21.2539 32.8235 21.2784 32.9384 21.326C33.0533 21.3736 33.1577 21.4434 33.2457 21.5313L41.769 30.0547C41.7721 30.0578 41.7747 30.0612 41.7777 30.0643C41.7964 30.0835 41.8145 30.1032 41.8316 30.1239C41.8411 30.1354 41.8494 30.1477 41.8582 30.1596C41.8678 30.1724 41.8778 30.185 41.8868 30.1984C41.896 30.2121 41.904 30.2265 41.9124 30.2406C41.9198 30.253 41.9276 30.2651 41.9344 30.2779C41.942 30.2921 41.9485 30.3068 41.9553 30.3213C41.9617 30.3348 41.9685 30.3481 41.9742 30.3619C41.98 30.3759 41.9847 30.3902 41.9898 30.4045C41.9951 30.4194 42.0009 30.4342 42.0055 30.4494C42.0098 30.4636 42.0129 30.478 42.0165 30.4923C42.0205 30.5079 42.0249 30.5234 42.028 30.5393C42.0313 30.5558 42.0332 30.5725 42.0356 30.5891C42.0376 30.6031 42.0403 30.6168 42.0416 30.6309C42.0447 30.662 42.0464 30.6931 42.0464 30.7243C42.0464 30.7555 42.0447 30.7867 42.0416 30.8178C42.0403 30.8319 42.0376 30.8456 42.0356 30.8596C42.0332 30.8762 42.0313 30.8928 42.028 30.9094C42.0249 30.9253 42.0205 30.9407 42.0165 30.9564C42.0129 30.9707 42.0098 30.9851 42.0055 30.9992C42.0009 31.0145 41.9951 31.0293 41.9898 31.0442C41.9847 31.0584 41.98 31.0728 41.9742 31.0868C41.9685 31.1006 41.9617 31.1139 41.9553 31.1274C41.9485 31.1419 41.942 31.1566 41.9344 31.1708C41.9276 31.1836 41.9198 31.1957 41.9124 31.208C41.904 31.2222 41.896 31.2365 41.8868 31.2503C41.8778 31.2636 41.8678 31.2762 41.8582 31.2891C41.8494 31.301 41.8411 31.3132 41.8316 31.3248C41.8142 31.3459 41.7958 31.3659 41.7767 31.3855C41.774 31.3882 41.7718 31.3913 41.769 31.394L33.2457 39.9173C33.1577 40.0053 33.0533 40.0751 32.9384 40.1227C32.8235 40.1703 32.7003 40.1948 32.5759 40.1948C32.4516 40.1948 32.3284 40.1703 32.2135 40.1227C32.0986 40.0751 31.9942 40.0053 31.9062 39.9173Z" fill="#3EBA59"/>
</svg>
