<svg width="51" height="52" viewBox="0 0 51 52" fill="none" xmlns="http://www.w3.org/2000/svg">
<circle cx="25.5624" cy="23.8938" r="16.4739" fill="#FFE1BC"/>
<path d="M46.1548 0.375H4.97004C3.87775 0.375 2.8302 0.80891 2.05784 1.58127C1.28547 2.35364 0.851563 3.40119 0.851562 4.49348V19.6031C0.851562 42.6151 20.3628 50.2601 24.2754 51.5471C25.1055 51.8569 26.0194 51.8569 26.8495 51.5471C30.762 50.2601 50.2733 42.6151 50.2733 19.6031V4.49348C50.2733 3.40119 49.8394 2.35364 49.067 1.58127C48.2947 0.80891 47.2471 0.375 46.1548 0.375ZM35.9873 23.8503L28.8829 26.167L33.2846 32.216C33.4435 32.4334 33.5576 32.6802 33.6204 32.942C33.6831 33.2039 33.6932 33.4756 33.6501 33.7414C33.607 34.0072 33.5116 34.2618 33.3693 34.4904C33.227 34.7191 33.0407 34.9171 32.8212 35.0732C32.4755 35.342 32.0494 35.487 31.6114 35.485C31.2859 35.482 30.9655 35.4038 30.6753 35.2564C30.385 35.1091 30.1328 34.8966 29.9383 34.6356L25.5624 28.5866L21.1865 34.6356C20.992 34.8966 20.7398 35.1091 20.4496 35.2564C20.1593 35.4038 19.8389 35.482 19.5134 35.485C19.0754 35.487 18.6494 35.342 18.3036 35.0732C18.0842 34.9171 17.8979 34.7191 17.7556 34.4904C17.6133 34.2618 17.5178 34.0072 17.4747 33.7414C17.4316 33.4756 17.4417 33.2039 17.5045 32.942C17.5672 32.6802 17.6814 32.4334 17.8403 32.216L22.2419 26.167L15.1375 23.8503C14.6199 23.6847 14.1887 23.3212 13.938 22.839C13.6873 22.3569 13.6373 21.7951 13.799 21.2763C13.9702 20.7567 14.3386 20.3253 14.8249 20.0749C15.3113 19.8245 15.8765 19.7752 16.3988 19.9378L23.5032 22.2544V14.7897C23.5032 14.2435 23.7201 13.7198 24.1063 13.3336C24.4925 12.9474 25.0163 12.7304 25.5624 12.7304C26.1086 12.7304 26.6323 12.9474 27.0185 13.3336C27.4047 13.7198 27.6217 14.2435 27.6217 14.7897V22.2544L34.726 19.9378C35.2483 19.7752 35.8136 19.8245 36.2999 20.0749C36.7862 20.3253 37.1547 20.7567 37.3258 21.2763C37.4875 21.7951 37.4376 22.3569 37.1869 22.839C36.9361 23.3212 36.5049 23.6847 35.9873 23.8503Z" fill="#FFB355"/>
</svg>
