<svg width="110" height="151" viewBox="0 0 110 151" fill="none" xmlns="http://www.w3.org/2000/svg">
<path d="M136.846 -2.78711H13.1243C9.84303 -2.78711 6.69613 -1.49195 4.37591 0.813451C2.05568 3.11885 0.752197 6.24565 0.752197 9.50597V54.6062C0.752197 123.294 59.3651 146.113 71.1187 149.954C73.6122 150.879 76.3577 150.879 78.8512 149.954C90.6048 146.113 149.218 123.294 149.218 54.6062V9.50597C149.218 6.24565 147.914 3.11885 145.594 0.813451C143.274 -1.49195 140.127 -2.78711 136.846 -2.78711ZM106.302 67.2835L84.96 74.1983L98.1827 92.2538C98.66 92.9027 99.0029 93.6393 99.1914 94.421C99.3799 95.2026 99.4103 96.0136 99.2808 96.807C99.1513 97.6004 98.8646 98.3604 98.4371 99.0427C98.0097 99.7251 97.4501 100.316 96.7908 100.782C95.7521 101.585 94.4723 102.017 93.1565 102.011C92.1787 102.003 91.2162 101.769 90.3443 101.329C89.4724 100.889 88.7146 100.255 88.1303 99.476L74.985 81.4205L61.8396 99.476C61.2553 100.255 60.4976 100.889 59.6256 101.329C58.7537 101.769 57.7912 102.003 56.8134 102.011C55.4976 102.017 54.2179 101.585 53.1791 100.782C52.5198 100.316 51.9602 99.7251 51.5328 99.0427C51.1054 98.3604 50.8186 97.6004 50.6891 96.807C50.5596 96.0136 50.59 95.2026 50.7785 94.421C50.967 93.6393 51.3099 92.9027 51.7872 92.2538L65.0099 74.1983L43.668 67.2835C42.113 66.7892 40.8178 65.7042 40.0646 64.2649C39.3113 62.8257 39.1613 61.149 39.6471 59.6003C40.1612 58.0495 41.268 56.7616 42.729 56.0143C44.1899 55.2669 45.888 55.1199 47.457 55.605L68.7989 62.5199V40.2387C68.7989 38.6085 69.4506 37.0451 70.6107 35.8924C71.7709 34.7397 73.3443 34.0921 74.985 34.0921C76.6256 34.0921 78.1991 34.7397 79.3592 35.8924C80.5193 37.0451 81.171 38.6085 81.171 40.2387V62.5199L102.513 55.605C104.082 55.1199 105.78 55.2669 107.241 56.0143C108.702 56.7616 109.809 58.0495 110.323 59.6003C110.809 61.149 110.659 62.8257 109.905 64.2649C109.152 65.7042 107.857 66.7892 106.302 67.2835Z" fill="#EEEEEE"/>
</svg>
