<svg width="26" height="28" viewBox="0 0 26 28" fill="none" xmlns="http://www.w3.org/2000/svg">
<path fill-rule="evenodd" clip-rule="evenodd" d="M0.111084 14.1379L0.112386 14.0028L0.11507 13.8676L0.119144 13.7323L0.1246 13.5971L0.131452 13.4619L0.139687 13.3267L0.149318 13.1915L0.160332 13.0563L0.172742 12.9212L0.186541 12.7862L0.201729 12.6513L0.2183 12.5164L0.236268 12.3816L0.255624 12.247L0.276363 12.1125L0.298492 11.9782L0.32201 11.844L0.346903 11.7101L0.373187 11.5763L0.400852 11.4427L0.429901 11.3093L0.460318 11.1761L0.492125 11.0433L0.525294 10.9106L0.559846 10.7783L0.59576 10.6461L0.63305 10.5144L0.671702 10.3829L0.711717 10.2518L0.753088 10.121L0.79582 9.99058L0.839909 9.86048L0.885346 9.73079L0.932126 9.60149L0.980254 9.47261L1.02972 9.34413L1.08052 9.21612L1.13266 9.08851L1.18612 8.96145L1.24091 8.83479L1.29701 8.7086L1.35444 8.58295L1.41317 8.45784L1.47321 8.3332L1.53455 8.2091L1.59718 8.08561L1.66111 7.96266L1.72632 7.84025L1.7928 7.71851L1.86057 7.59732L1.9296 7.47672L1.99989 7.35681L2.07144 7.2375L2.14424 7.11887L2.21829 7.0009L2.29357 6.88362L2.37009 6.76707L2.44783 6.65114L2.52679 6.53601L2.60696 6.42156L2.68833 6.30785L2.7709 6.19494L2.85466 6.08272L2.9396 5.97137L3.02572 5.86076L3.113 5.75092L3.20144 5.64193L3.29103 5.53376L3.38176 5.42643L3.47363 5.31994L3.56663 5.21431L3.66075 5.10957L3.75597 5.0057L3.8523 4.90272L3.94972 4.80065L4.04822 4.6995L4.1478 4.59927L4.24844 4.49998L4.35014 4.40164L4.45288 4.30425L4.55666 4.20785L4.66147 4.11241L4.7673 4.01798L4.87414 3.92454L4.98198 3.83211L5.0908 3.74071L5.2006 3.65034L5.31137 3.56101L5.4231 3.47273L5.53578 3.38551L5.64935 3.29937L5.76394 3.2143L5.8794 3.13034L5.99575 3.04747L6.11297 2.9657L6.23113 2.88506L6.3501 2.80554L6.46995 2.72716L6.59067 2.64992L6.71228 2.57384L6.83462 2.49893L6.95784 2.42518L7.0818 2.35261L7.20658 2.28124L7.33216 2.21105L7.45848 2.14208L7.58555 2.07431L7.71335 2.00777L7.8419 1.94245L7.97119 1.87837L8.10116 1.81553L8.23187 1.75394L8.36318 1.69361L8.49524 1.63455L8.6279 1.57676L8.76124 1.52025L8.89518 1.46502L9.02973 1.41109L9.16489 1.35845L9.30066 1.30712L9.43696 1.2571L9.57388 1.2084L9.71133 1.16103L9.84932 1.11497L9.98778 1.07027L10.1268 1.02689L10.2663 0.984867L10.4063 0.944198L10.5468 0.904885L10.6877 0.866927L10.8291 0.830338L10.9709 0.795126L11.113 0.761296L11.2557 0.728834L11.3987 0.69777L11.542 0.668087L11.6857 0.639801L11.8298 0.612918L11.9742 0.58743L12.1189 0.563353L12.2639 0.540685L12.4092 0.519426L12.5547 0.499591L12.7005 0.481172L12.8466 0.464176L12.9929 0.448596L13.1394 0.43446L13.2861 0.421746L13.433 0.410463L13.58 0.400623L14.3707 0.355469L14.4158 4.16518L14.4417 4.16489L14.5509 4.16473L14.6601 4.16565L14.7693 4.16764L14.8786 4.17071L14.9878 4.17485L15.0972 4.18005L15.2065 4.18635L15.3158 4.19372L15.4251 4.20216L15.5344 4.21168L15.6436 4.22228L15.7528 4.23396L15.8619 4.24672L15.9709 4.26055L16.0798 4.27546L16.1887 4.29145L16.2974 4.30852L16.4061 4.32666L16.5145 4.34587L16.6229 4.36617L16.7311 4.38753L16.8391 4.40998L16.947 4.43349L17.0546 4.45807L17.1621 4.48372L17.2694 4.51044L17.3764 4.53824L17.4832 4.56709L17.5897 4.59701L17.6961 4.62799L17.8021 4.66002L17.9079 4.69312L18.0133 4.72727L18.1185 4.76248L18.2234 4.79873L18.328 4.83603L18.4322 4.87437L18.5361 4.91377L18.6396 4.95419L18.7428 4.99567L18.8456 5.03817L18.948 5.0817L19.05 5.12626L19.1517 5.17184L19.2528 5.21845L19.3536 5.26606L19.4539 5.3147L19.5538 5.36435L19.6532 5.415L19.7522 5.46664L19.8507 5.51929L19.9487 5.57294L20.0461 5.62757L20.1431 5.68318L20.2395 5.73977L20.3354 5.79736L20.4308 5.8559L20.5256 5.91539L20.6199 5.97588L20.7135 6.03726L20.8066 6.09964L20.8991 6.16297L20.991 6.22718L21.0823 6.2924L21.173 6.3585L21.2629 6.42554L21.3524 6.49352L21.4411 6.56238L21.5291 6.63219L21.6165 6.7028L21.7032 6.77436L21.7892 6.84686L21.8745 6.92017L21.9592 6.99436L22.0431 7.06943L22.1262 7.14537L22.2086 7.22219L22.2903 7.29982L22.3712 7.37826L22.4513 7.45757L22.5307 7.5377L22.6093 7.6187L22.6871 7.70044L22.7641 7.78299L22.8403 7.86635L22.9156 7.95052L22.9901 8.03544L23.0638 8.12116L23.1367 8.20762L23.2087 8.29483L23.2799 8.38284L23.3501 8.47153L23.4195 8.56096L23.4881 8.65114L23.5557 8.74205L23.6224 8.83364L23.6882 8.92597L23.7531 9.01898L23.8171 9.11259L23.8802 9.20694L23.9423 9.30197L24.0035 9.39768L24.0636 9.49399L24.1229 9.59091L24.1812 9.6885L24.2385 9.7867L24.2948 9.8855L24.3502 9.98492L24.4046 10.0849L24.4579 10.1855L24.5103 10.2867L24.5616 10.3884L24.6119 10.4906L24.6612 10.5935L24.7095 10.6968L24.7567 10.8007L24.8029 10.9051L24.848 11.0099L24.8921 11.1154L24.9351 11.2212L24.977 11.3275L25.0179 11.4343L25.0577 11.5416L25.0964 11.6492L25.1341 11.7574L25.1706 11.8659L25.2061 11.9749L25.2404 12.0843L25.2737 12.194L25.3058 12.3041L25.3368 12.4146L25.3667 12.5255L25.3955 12.6367L25.4231 12.7482L25.4496 12.8601L25.475 12.9722L25.4992 13.0847L25.5223 13.1974L25.5442 13.3105L25.565 13.4238L25.5847 13.5374L25.6032 13.6512L25.6205 13.7652L25.6367 13.8796L25.6517 13.994L25.6655 14.1087L25.6782 14.2236L25.6897 14.3387L25.7 14.4539L25.7092 14.5693L25.7171 14.6848L25.7239 14.8005L25.7295 14.9162L25.7339 15.0321L25.7371 15.1481L25.7392 15.2641L25.74 15.3803L25.7396 15.4965L25.7381 15.6128L25.7353 15.7291L25.7314 15.8454L25.7263 15.9617L25.72 16.078L25.7125 16.1944L25.7038 16.3107L25.6938 16.427L25.6827 16.5433L25.6704 16.6595L25.6569 16.7756L25.6422 16.8916L25.6263 17.0076L25.6092 17.1234L25.5909 17.2392L25.5714 17.3548L25.5507 17.4702L25.5289 17.5856L25.5058 17.7008L25.4815 17.8158L25.456 17.9305L25.4294 18.0452L25.4016 18.1596L25.3725 18.2738L25.3423 18.3877L25.311 18.5014L25.2784 18.6148L25.2447 18.728L25.2097 18.841L25.1736 18.9535L25.1363 19.0659L25.0979 19.1779L25.0582 19.2896L25.0175 19.4009L24.9756 19.5118L24.9325 19.6225L24.8882 19.7327L24.8428 19.8426L24.7963 19.9521L24.7486 20.0612L24.6998 20.1698L24.6498 20.278L24.5987 20.3858L24.5465 20.4931L24.4931 20.6L24.4386 20.7064L24.383 20.8123L24.3263 20.9177L24.2685 21.0226L24.2096 21.1269L24.1496 21.2308L24.0885 21.3341L24.0263 21.4368L23.963 21.5391L23.8986 21.6407L23.8332 21.7417L23.7667 21.8421L23.6992 21.9419L23.6306 22.0412L23.5609 22.1398L23.4902 22.2377L23.4185 22.335L23.3457 22.4317L23.2719 22.5276L23.1971 22.6229L23.1213 22.7175L23.0445 22.8114L22.9667 22.9045L22.8878 22.997L22.808 23.0887L22.7272 23.1797L22.6455 23.2699L22.5628 23.3594L22.4792 23.4481L22.3945 23.5361L22.309 23.6231L22.2225 23.7095L22.1351 23.795L22.0468 23.8797L21.9576 23.9636L21.8674 24.0466L21.7764 24.1288L21.6845 24.2101L21.5917 24.2906L21.4981 24.3702L21.4036 24.4489L21.3082 24.5267L21.212 24.6036L21.115 24.6796L21.0171 24.7547L20.9184 24.8288L20.819 24.9021L20.7187 24.9744L20.6176 25.0457L20.5158 25.1161L20.4132 25.1855L20.3099 25.2539L20.2058 25.3213L20.1009 25.3878L19.9954 25.4532L19.8891 25.5177L19.7821 25.5811L19.6744 25.6436L19.566 25.7049L19.4569 25.7652L19.3473 25.8246L19.2368 25.8828L19.1258 25.94L19.0141 25.9962L18.9018 26.0512L18.7889 26.1052L18.6754 26.1581L18.5613 26.2099L18.4467 26.2606L18.3314 26.3102L18.2156 26.3587L18.0993 26.4061L17.9824 26.4524L17.865 26.4975L17.747 26.5415L17.6286 26.5843L17.5096 26.6261L17.3902 26.6666L17.2704 26.7061L17.15 26.7443L17.0292 26.7814L16.908 26.8174L16.7864 26.8521L16.6643 26.8857L16.5419 26.9181L16.419 26.9493L16.2959 26.9793L16.1723 27.0082L16.0483 27.0357L15.9241 27.0622L15.7995 27.0874L15.6746 27.1114L15.5495 27.1342L15.424 27.1557L15.2982 27.1761L15.1722 27.1953L15.0459 27.2131L14.9195 27.2298L14.7927 27.2452L14.6657 27.2594L14.5386 27.2723L14.4113 27.2841L14.2838 27.2945L14.1561 27.3038L14.0283 27.3117L13.9003 27.3185L13.7722 27.3239L13.6441 27.3281L13.5157 27.3311L13.3874 27.3328L13.2589 27.3332L13.1304 27.3324L13.0019 27.3303L12.8733 27.327L12.7446 27.3224L12.616 27.3165L12.4874 27.3094L12.3589 27.301L12.2302 27.2914L12.1018 27.2804L11.9733 27.2682L11.8449 27.2548L11.7166 27.2401L11.5884 27.2241L11.4602 27.2069L11.3323 27.1883L11.2044 27.1685L11.0767 27.1475L10.9492 27.1252L10.8218 27.1016L10.6947 27.0768L10.5677 27.0508L10.4409 27.0234L10.3143 26.9948L10.1881 26.965L10.062 26.9339L9.93626 26.9015L9.81074 26.8679L9.68556 26.8331L9.56066 26.7971L9.43602 26.7598L9.31179 26.7212L9.18789 26.6814L9.06433 26.6404L8.94111 26.5981L8.8183 26.5546L8.69588 26.51L8.57388 26.464L8.45228 26.4169L8.33115 26.3685L8.21042 26.319L8.09017 26.2682L7.97038 26.2162L7.85108 26.1631L7.73224 26.1087L7.61394 26.0532L7.49618 25.9964L7.37896 25.9385L7.26222 25.8794L7.14608 25.8192L7.03055 25.7577L6.91549 25.6952L6.8011 25.6315L6.68732 25.5666L6.57415 25.5006L6.46159 25.4334L6.3497 25.3652L6.23841 25.2957L6.1278 25.2252L6.01794 25.1535L5.90868 25.0808L5.80016 25.0069L5.69238 24.932L5.58528 24.8559L5.47893 24.7788L5.37332 24.7006L5.26847 24.6213L5.1644 24.541L5.0611 24.4596L4.95859 24.3772L4.85689 24.2937L4.756 24.2092L4.65594 24.1237L4.5567 24.0372L4.45832 23.9496L4.3608 23.861L4.26414 23.7715L4.16836 23.6809L4.07347 23.5895L3.97948 23.4969L3.88639 23.4035L3.79423 23.3092L3.703 23.2138L3.61271 23.1176L3.52336 23.0204L3.43498 22.9222L3.34757 22.8232L3.26113 22.7234L3.17569 22.6225L3.09124 22.5209L3.0078 22.4183L2.92538 22.3149L2.84399 22.2106L2.76363 22.1056L2.68431 21.9996L2.60605 21.8928L2.52885 21.7853L2.45272 21.6769L2.37768 21.5678L2.30372 21.4578L2.23086 21.3471L2.1591 21.2357L2.08845 21.1234L2.01893 21.0105L1.95054 20.8968L1.88329 20.7824L1.81719 20.6673L1.75223 20.5515L1.68843 20.435L1.62581 20.3178L1.56436 20.2L1.5041 20.0816L1.44501 19.9624L1.38714 19.8427L1.33047 19.7223L1.275 19.6014L1.22075 19.4798L1.16773 19.3577L1.11594 19.235L1.06539 19.1118L1.01607 18.9879L0.968013 18.8636L0.921213 18.7387L0.875668 18.6134L0.831391 18.4875L0.788381 18.3612L0.746653 18.2343L0.706214 18.107L0.667056 17.9793L0.629199 17.8512L0.592637 17.7225L0.557377 17.5935L0.523426 17.4642L0.490789 17.3344L0.459468 17.2042L0.429476 17.0737L0.400805 16.9428L0.373463 16.8116L0.347457 16.6801L0.322785 16.5483L0.299456 16.4162L0.277476 16.2838L0.256838 16.1512L0.237556 16.0182L0.219629 15.885L0.203065 15.7516L0.187856 15.618L0.17401 15.4842L0.161532 15.3503L0.150424 15.216L0.140685 15.0817L0.132322 14.9472L0.125335 14.8126L0.119724 14.6778L0.115488 14.543L0.112635 14.4081L0.111172 14.273L0.111084 14.1379ZM13.1805 4.24498L13.1498 1.64824L13.1206 1.65106L12.9865 1.66533L12.8528 1.68089L12.7191 1.69778L12.5859 1.71592L12.4529 1.73539L12.3201 1.75615L12.1876 1.7782L12.0553 1.80155L11.9236 1.82612L11.7918 1.85207L11.6609 1.87918L11.5298 1.90766L11.3993 1.93735L11.269 1.96836L11.1393 2.00056L11.01 2.03405L10.881 2.06879L10.7523 2.10479L10.6243 2.14199L10.4965 2.18047L10.3694 2.22015L10.2426 2.26109L10.1165 2.30316L9.99055 2.34656L9.8653 2.39112L9.74067 2.43687L9.61637 2.48385L9.49274 2.53199L9.36979 2.58128L9.24718 2.63185L9.12517 2.68356L9.00377 2.73645L8.88304 2.79045L8.76292 2.84563L8.64348 2.90191L8.52444 2.95944L8.40628 3.01803L8.28872 3.07775L8.17184 3.1386L8.05563 3.20057L7.94024 3.26361L7.82531 3.32781L7.71113 3.39312L7.59796 3.45936L7.48512 3.5269L7.37337 3.59534L7.26235 3.66484L7.15188 3.73548L7.04228 3.80715L6.93349 3.87987L6.82572 3.95345L6.71835 4.02832L6.61205 4.104L6.50657 4.18073L6.40183 4.25851L6.29803 4.33721L6.19518 4.41685L6.09293 4.49762L5.99184 4.57915L5.89148 4.66176L5.79206 4.74526L5.69353 4.82973L5.596 4.91502L5.49921 5.00138L5.40352 5.08851L5.30864 5.17665L5.21487 5.26553L5.12195 5.35537L5.03006 5.44602L4.93911 5.53757L4.84905 5.63006L4.76016 5.72319L4.67228 5.81712L4.58517 5.91215L4.49928 6.00779L4.41443 6.1041L4.33046 6.20142L4.2477 6.29935L4.16586 6.39815L4.08513 6.49763L4.00545 6.59792L3.92681 6.69889L3.84933 6.80053L3.77286 6.90291L3.69744 7.0061L3.62324 7.10976L3.55003 7.2143L3.47798 7.31938L3.40705 7.42513L3.33719 7.53156L3.2685 7.63859L3.20094 7.74617L3.13452 7.85441L3.06928 7.9632L3.00511 8.07266L2.9421 8.18273L2.88033 8.29321L2.81966 8.40429L2.76015 8.51598L2.70185 8.62814L2.6447 8.74084L2.58878 8.85394L2.53402 8.96758L2.48047 9.0817L2.42808 9.19636L2.37694 9.31135L2.32696 9.42688L2.2782 9.54282L2.23068 9.65909L2.18435 9.77584L2.13924 9.89299L2.09537 10.0105L2.05271 10.1284L2.01131 10.2465L1.97111 10.3652L1.93215 10.4841L1.89444 10.6033L1.85798 10.7228L1.82274 10.8427L1.78876 10.9627L1.75603 11.0831L1.72454 11.2037L1.69431 11.3246L1.66533 11.4457L1.63761 11.567L1.61115 11.6886L1.58595 11.8103L1.562 11.9322L1.53931 12.0542L1.51789 12.1765L1.49774 12.2989L1.47884 12.4213L1.46121 12.544L1.44485 12.6667L1.42975 12.7895L1.41592 12.9124L1.40335 13.0354L1.39206 13.1584L1.38202 13.2815L1.37325 13.4046L1.36575 13.5278L1.35951 13.6509L1.35454 13.774L1.35083 13.8971L1.34839 14.0202L1.34721 14.1432L1.34729 14.2662L1.34862 14.3891L1.35122 14.512L1.35507 14.6347L1.36018 14.7574L1.36654 14.8799L1.37415 15.0022L1.38301 15.1245L1.39312 15.2466L1.40448 15.3685L1.41707 15.4903L1.43091 15.6119L1.44598 15.7333L1.46229 15.8544L1.47984 15.9753L1.49861 16.0961L1.5186 16.2164L1.53983 16.3366L1.56227 16.4565L1.58592 16.5761L1.61079 16.6955L1.63686 16.8145L1.66414 16.9332L1.69262 17.0515L1.7223 17.1696L1.75317 17.2873L1.78522 17.4045L1.81847 17.5214L1.8529 17.638L1.88849 17.7541L1.92527 17.8698L1.96319 17.9851L2.00228 18.1L2.04253 18.2144L2.08393 18.3283L2.12646 18.4418L2.17016 18.5548L2.21496 18.6673L2.2609 18.7793L2.30797 18.8908L2.35614 19.0018L2.40544 19.1122L2.45583 19.2222L2.50732 19.3315L2.5599 19.4403L2.61358 19.5485L2.66832 19.6561L2.72414 19.7631L2.78103 19.8696L2.83898 19.9754L2.89797 20.0805L2.95801 20.1851L3.01909 20.289L3.0812 20.3922L3.14431 20.4948L3.20848 20.5967L3.27362 20.6979L3.33978 20.7984L3.40694 20.8982L3.47506 20.9973L3.54417 21.0957L3.61426 21.1934L3.6853 21.2903L3.75731 21.3865L3.83023 21.4818L3.90413 21.5765L3.97891 21.6703L4.05463 21.7633L4.13129 21.8557L4.20881 21.9471L4.28724 22.0378L4.36655 22.1276L4.44676 22.2166L4.52782 22.3048L4.60972 22.3921L4.69248 22.4786L4.77608 22.5643L4.86054 22.649L4.94578 22.7329L5.03187 22.8159L5.11873 22.898L5.20638 22.9792L5.29485 23.0596L5.38407 23.1389L5.47401 23.2174L5.56478 23.2949L5.6563 23.3716L5.74843 23.4472L5.84143 23.522L5.93505 23.5957L6.0294 23.6686L6.12443 23.7405L6.2202 23.8114L6.31658 23.8812L6.41363 23.9502L6.51129 24.0181L6.60969 24.0851L6.70863 24.1509L6.80832 24.2159L6.90847 24.2798L7.0093 24.3427L7.11074 24.4046L7.21265 24.4654L7.31523 24.5253L7.41828 24.584L7.52195 24.6417L7.62608 24.6984L7.73082 24.754L7.83597 24.8086L7.94165 24.8622L8.04788 24.9146L8.15458 24.9659L8.26168 25.0163L8.36925 25.0655L8.47723 25.1136L8.58575 25.1607L8.6946 25.2066L8.80393 25.2515L8.9136 25.2953L9.02366 25.3379L9.13414 25.3795L9.24488 25.42L9.35603 25.4593L9.46758 25.4975L9.57941 25.5347L9.69157 25.5707L9.80393 25.6056L9.91676 25.6394L10.0297 25.672L10.143 25.7035L10.2566 25.7339L10.3704 25.7632L10.4844 25.7913L10.5986 25.8183L10.7131 25.8442L10.8278 25.8689L10.9426 25.8925L11.0577 25.915L11.1728 25.9363L11.2882 25.9564L11.4036 25.9755L11.5192 25.9933L11.635 26.0101L11.7508 26.0256L11.8667 26.0401L11.9827 26.0534L12.0988 26.0656L12.2149 26.0766L12.3311 26.0865L12.4473 26.0952L12.5636 26.1028L12.6798 26.1093L12.796 26.1145L12.9122 26.1187L13.0284 26.1217L13.1447 26.1236L13.2607 26.1243L13.3768 26.1239L13.4928 26.1223L13.6087 26.1197L13.7245 26.1159L13.8402 26.1109L13.9558 26.1049L14.0712 26.0977L14.1865 26.0894L14.3017 26.0799L14.4167 26.0693L14.5315 26.0576L14.6462 26.0448L14.7606 26.0309L14.8748 26.0159L14.9888 25.9997L15.1026 25.9824L15.2161 25.9641L15.3294 25.9446L15.4424 25.924L15.5551 25.9023L15.6675 25.8796L15.7797 25.8557L15.8915 25.8309L16.003 25.8048L16.1142 25.7777L16.225 25.7496L16.3355 25.7203L16.4456 25.69L16.5554 25.6587L16.6647 25.6262L16.7737 25.5928L16.8822 25.5583L16.9904 25.5227L17.0981 25.4861L17.2053 25.4485L17.3122 25.4098L17.4185 25.3701L17.5244 25.3294L17.6298 25.2877L17.7347 25.245L17.8391 25.2013L17.9431 25.1565L18.0465 25.1108L18.1492 25.0641L18.2516 25.0165L18.3534 24.9678L18.4546 24.9182L18.5553 24.8675L18.6553 24.816L18.7548 24.7635L18.8537 24.7101L18.9519 24.6557L19.0496 24.6004L19.1465 24.5442L19.243 24.487L19.3387 24.429L19.4339 24.37L19.5283 24.3102L19.622 24.2494L19.7152 24.1878L19.8076 24.1252L19.8992 24.0619L19.9902 23.9976L20.0805 23.9326L20.1701 23.8667L20.259 23.7998L20.347 23.7323L20.4345 23.6638L20.521 23.5946L20.6068 23.5246L20.692 23.4537L20.7763 23.382L20.8597 23.3096L20.9424 23.2364L21.0243 23.1625L21.1055 23.0878L21.1858 23.0123L21.2652 22.9361L21.3439 22.8591L21.4217 22.7814L21.4987 22.7031L21.5748 22.6239L21.65 22.5442L21.7243 22.4638L21.798 22.3825L21.8705 22.3007L21.9424 22.2182L22.0132 22.1351L22.0832 22.0513L22.1523 21.9669L22.2204 21.8818L22.2877 21.7961L22.354 21.7099L22.4195 21.623L22.4839 21.5356L22.5475 21.4475L22.6102 21.3588L22.6717 21.2698L22.7325 21.18L22.7922 21.0898L22.851 20.999L22.9089 20.9076L22.9657 20.8159L23.0216 20.7236L23.0765 20.6306L23.1303 20.5375L23.1833 20.4437L23.2353 20.3494L23.2861 20.2548L23.3361 20.1596L23.3851 20.0639L23.4329 19.9682L23.4798 19.8717L23.5258 19.7749L23.5706 19.6778L23.6145 19.5802L23.6573 19.4823L23.699 19.3841L23.7398 19.2854L23.7796 19.1864L23.8182 19.0873L23.8558 18.9875L23.8924 18.8877L23.928 18.7874L23.9625 18.6869L23.996 18.586L24.0283 18.4852L24.0597 18.3836L24.0899 18.2822L24.1191 18.1804L24.1473 18.0785L24.1745 17.9762L24.2004 17.8739L24.2254 17.7712L24.2493 17.6684L24.2722 17.5655L24.294 17.4623L24.3146 17.3592L24.3342 17.2556L24.3528 17.1522L24.3702 17.0485L24.3866 16.9447L24.4019 16.8409L24.4162 16.7369L24.4294 16.6331L24.4415 16.5287L24.4525 16.4248L24.4625 16.3205L24.4713 16.2164L24.4792 16.112L24.4859 16.008L24.4916 15.9037L24.4962 15.7993L24.4997 15.6952L24.5022 15.5912L24.5035 15.4869L24.5038 15.3828L24.5031 15.2788L24.5013 15.1748L24.4984 15.0709L24.4944 14.9674L24.4894 14.8634L24.4833 14.76L24.4762 14.6565L24.468 14.5534L24.4588 14.4501L24.4485 14.3472L24.4372 14.2443L24.4248 14.1417L24.4114 14.0392L24.397 13.937L24.3814 13.8348L24.3648 13.733L24.3473 13.6316L24.3287 13.5301L24.309 13.4289L24.2884 13.3281L24.2666 13.2273L24.2441 13.1272L24.2202 13.027L24.1956 12.9274L24.1698 12.8278L24.1431 12.7288L24.1154 12.63L24.0866 12.5314L24.057 12.4334L24.0263 12.3358L23.9945 12.2382L23.9619 12.1413L23.9282 12.0445L23.8937 11.9484L23.8581 11.8524L23.8216 11.7571L23.784 11.6619L23.7456 11.5673L23.7063 11.4733L23.666 11.3797L23.6246 11.2862L23.5826 11.1936L23.5393 11.1011L23.4954 11.0094L23.4504 10.9181L23.4045 10.8271L23.3578 10.7369L23.3102 10.647L23.2615 10.5576L23.2123 10.469L23.1619 10.3807L23.1108 10.2931L23.0587 10.2059L23.0059 10.1195L22.952 10.0334L22.8975 9.94809L22.842 9.86318L22.7858 9.77901L22.7288 9.69558L22.6708 9.61249L22.612 9.53014L22.5525 9.4484L22.4922 9.3674L22.4311 9.28687L22.3692 9.20715L22.3065 9.12797L22.243 9.04953L22.1788 8.97177L22.1138 8.89461L22.0481 8.8182L21.9816 8.74246L21.9145 8.66746L21.8466 8.59313L21.7778 8.51942L21.7087 8.44671L21.6384 8.37441L21.5678 8.30312L21.4964 8.23237L21.4243 8.1625L21.3514 8.09317L21.2781 8.02491L21.2039 7.9572L21.1291 7.89029L21.0539 7.82427L20.978 7.75898L20.9012 7.6943L20.8239 7.63057L20.7462 7.56764L20.6677 7.50552L20.5887 7.44415L20.5093 7.38379L20.4289 7.3239L20.3483 7.26515L20.2671 7.20715L20.1852 7.14989L20.103 7.09357L20.0199 7.03793L19.9368 6.98344L19.8527 6.92955L19.7684 6.8766L19.6835 6.82447L19.5981 6.77321L19.5124 6.7229L19.4262 6.67353L19.3393 6.62477L19.2524 6.57715L19.1647 6.53028L19.0767 6.48435L18.9883 6.43936L18.8994 6.39519L18.8102 6.35189L18.7206 6.3096L18.6306 6.26812L18.5403 6.22765L18.4496 6.188L18.3557 6.14807L18.2673 6.11158L18.1754 6.07462L18.0836 6.03881L17.9911 6.00367L17.8985 5.96968L17.8056 5.9365L17.7125 5.90433L17.6189 5.87296L17.5253 5.84268L17.4313 5.81328L17.3371 5.78481L17.2428 5.75736L17.1481 5.73076L17.0531 5.70508L16.9582 5.68044L16.8631 5.65674L16.7674 5.63391L16.672 5.61214L16.5762 5.59123L16.4803 5.57133L16.3841 5.55234L16.2881 5.53435L16.1918 5.51728L16.0956 5.50121L15.9988 5.48603L15.9024 5.47187L15.8057 5.45863L15.709 5.44635L15.6122 5.43503L15.5154 5.42469L15.4185 5.41529L15.3216 5.40684L15.2246 5.39935L15.1276 5.39281L15.0308 5.38724L14.934 5.38262L14.8368 5.37894L14.7401 5.37623L14.6433 5.37446L14.5465 5.37365L14.4496 5.37379L14.4301 5.37401L14.4607 7.95187L14.5157 7.9516L14.5864 7.95201L14.6572 7.95309L14.728 7.95491L14.7989 7.9574L14.8697 7.96064L14.9406 7.96455L15.0116 7.96914L15.0825 7.97446L15.1535 7.98047L15.2244 7.98721L15.2953 7.99463L15.3663 8.00279L15.4372 8.01163L15.508 8.02114L15.5788 8.03146L15.6495 8.04238L15.7202 8.05405L15.7909 8.06646L15.8615 8.07954L15.9319 8.09337L16.0023 8.10787L16.0727 8.12305L16.1429 8.13896L16.213 8.15562L16.283 8.17295L16.3528 8.19096L16.4225 8.20971L16.4921 8.22914L16.5616 8.2493L16.6309 8.27014L16.7001 8.29166L16.769 8.31391L16.8378 8.33684L16.9064 8.36052L16.9748 8.38486L17.0431 8.40989L17.1111 8.43558L17.1789 8.46202L17.2465 8.48913L17.3139 8.51692L17.381 8.54545L17.4479 8.57459L17.5145 8.60446L17.5809 8.63495L17.647 8.66618L17.7129 8.69808L17.7784 8.73065L17.8437 8.7639L17.9087 8.79783L17.9734 8.83236L18.0378 8.86763L18.1019 8.90351L18.1656 8.94007L18.2291 8.9773L18.2922 9.0152L18.3549 9.05371L18.4173 9.0929L18.4794 9.13276L18.5411 9.17322L18.6024 9.2143L18.6634 9.25604L18.7239 9.29847L18.7841 9.34143L18.8438 9.38507L18.9032 9.42938L18.9622 9.47423L19.0207 9.51975L19.0788 9.56588L19.1365 9.61256L19.1937 9.6599L19.2505 9.70786L19.3069 9.75635L19.3628 9.80545L19.4183 9.85515L19.4732 9.90547L19.5277 9.95632L19.5817 10.0078L19.6352 10.0598L19.6882 10.1124L19.7407 10.1655L19.7927 10.2193L19.8442 10.2735L19.8952 10.3283L19.9456 10.3837L19.9955 10.4396L20.0449 10.496L20.0937 10.553L20.142 10.6105L20.1898 10.6685L20.2369 10.727L20.2835 10.786L20.3295 10.8456L20.375 10.9056L20.4198 10.9662L20.4641 11.0271L20.5078 11.0886L20.5508 11.1506L20.5933 11.2131L20.6351 11.276L20.6763 11.3393L20.7169 11.4032L20.7569 11.4675L20.7963 11.5322L20.835 11.5973L20.873 11.6629L20.9105 11.7289L20.9472 11.7953L20.9833 11.8622L21.0188 11.9294L21.0536 11.9971L21.0877 12.0651L21.1211 12.1336L21.1539 12.2024L21.1859 12.2715L21.2173 12.3411L21.248 12.411L21.278 12.4812L21.3073 12.5519L21.3359 12.6228L21.3637 12.6941L21.3908 12.7657L21.4173 12.8376L21.443 12.9098L21.468 12.9824L21.4923 13.0553L21.5157 13.1284L21.5385 13.2018L21.5606 13.2755L21.5819 13.3495L21.6025 13.4238L21.6222 13.4983L21.6413 13.573L21.6596 13.648L21.6771 13.7232L21.6939 13.7987L21.7099 13.8744L21.7251 13.9502L21.7396 14.0263L21.7533 14.1027L21.7662 14.1792L21.7784 14.2558L21.7897 14.3327L21.8003 14.4096L21.8101 14.4868L21.8191 14.5641L21.8273 14.6416L21.8347 14.7192L21.8413 14.7969L21.8471 14.8748L21.8522 14.9527L21.8564 15.0308L21.8598 15.1089L21.8625 15.1872L21.8643 15.2655L21.8653 15.344L21.8655 15.4225L21.8649 15.501L21.8635 15.5796L21.8612 15.6582L21.8582 15.7369L21.8544 15.8156L21.8497 15.8943L21.8442 15.973L21.838 16.0517L21.8308 16.1305L21.8229 16.2092L21.8142 16.2878L21.8047 16.3665L21.7943 16.4451L21.7831 16.5237L21.7711 16.6022L21.7583 16.6806L21.7446 16.759L21.7301 16.8373L21.7149 16.9155L21.6988 16.9936L21.6818 17.0716L21.6642 17.1495L21.6456 17.2273L21.6263 17.3049L21.6061 17.3825L21.5851 17.4599L21.5633 17.5371L21.5407 17.6141L21.5173 17.691L21.4931 17.7677L21.468 17.8443L21.4422 17.9206L21.4156 17.9967L21.3882 18.0727L21.3599 18.1483L21.3309 18.2238L21.301 18.2991L21.2704 18.3741L21.239 18.4489L21.2068 18.5233L21.1738 18.5976L21.14 18.6716L21.1054 18.7452L21.0701 18.8186L21.0339 18.8917L20.9969 18.9645L20.9592 19.037L20.9208 19.1091L20.8815 19.1809L20.8415 19.2524L20.8008 19.3235L20.7593 19.3943L20.717 19.4648L20.674 19.5348L20.6302 19.6045L20.5856 19.6738L20.5403 19.7427L20.4943 19.8112L20.4475 19.8793L20.4001 19.947L20.3518 20.0142L20.3029 20.0811L20.2532 20.1475L20.2029 20.2135L20.1517 20.279L20.0999 20.344L20.0474 20.4086L19.9942 20.4727L19.9403 20.5363L19.8857 20.5995L19.8304 20.6621L19.7744 20.7242L19.7177 20.7859L19.6604 20.847L19.6025 20.9076L19.5438 20.9676L19.4845 21.0272L19.4245 21.0861L19.3639 21.1446L19.3026 21.2025L19.2408 21.2597L19.1782 21.3165L19.115 21.3726L19.0513 21.4282L18.9869 21.4832L18.9219 21.5376L18.8563 21.5914L18.7902 21.6446L18.7233 21.6971L18.6559 21.749L18.588 21.8004L18.5195 21.851L18.4504 21.9011L18.3808 21.9505L18.3106 21.9992L18.2398 22.0473L18.1685 22.0947L18.0966 22.1414L18.0243 22.1875L17.9514 22.2329L17.878 22.2775L17.8041 22.3216L17.7297 22.3649L17.6548 22.4074L17.5794 22.4493L17.5035 22.4905L17.4272 22.531L17.3504 22.5707L17.2731 22.6097L17.1954 22.6479L17.1172 22.6855L17.0386 22.7223L16.9595 22.7583L16.8801 22.7936L16.8002 22.8281L16.7199 22.8618L16.6392 22.8948L16.5582 22.927L16.4767 22.9585L16.3949 22.9891L16.3127 23.019L16.2301 23.0481L16.1471 23.0764L16.0639 23.1039L15.9803 23.1305L15.8964 23.1564L15.8122 23.1815L15.7276 23.2057L15.6427 23.2292L15.5575 23.2518L15.4721 23.2736L15.3864 23.2945L15.3004 23.3147L15.2141 23.334L15.1276 23.3525L15.0408 23.3701L14.9538 23.3869L14.8666 23.4029L14.7791 23.418L14.6914 23.4322L14.6036 23.4455L14.5155 23.4581L14.4272 23.4698L14.3388 23.4806L14.2503 23.4905L14.1615 23.4996L14.0726 23.5079L13.9836 23.5152L13.8944 23.5217L13.8051 23.5273L13.7157 23.532L13.6262 23.5359L13.5366 23.5388L13.4469 23.5409L13.3571 23.5421L13.2672 23.5425L13.1773 23.5419L13.0874 23.5404L12.9974 23.5381L12.9073 23.5349L12.8173 23.5308L12.7272 23.5258L12.6371 23.5199L12.547 23.5132L12.457 23.5055L12.367 23.4969L12.2769 23.4875L12.1869 23.4772L12.097 23.466L12.0071 23.4538L11.9174 23.4408L11.8277 23.4269L11.738 23.4122L11.6485 23.3964L11.559 23.3799L11.4697 23.3625L11.3806 23.344L11.2915 23.3248L11.2026 23.3047L11.1138 23.2837L11.0252 23.2618L10.9368 23.239L10.8485 23.2153L10.7604 23.1907L10.6726 23.1653L10.5849 23.139L10.4975 23.1118L10.4103 23.0837L10.3233 23.0548L10.2365 23.025L10.1501 22.9943L10.0639 22.9627L9.97787 22.9303L9.89221 22.897L9.80683 22.8628L9.72172 22.8278L9.63694 22.7919L9.5525 22.7552L9.46839 22.7176L9.38456 22.6791L9.30113 22.6399L9.21804 22.5997L9.13529 22.5587L9.05287 22.5169L8.97092 22.4743L8.88932 22.4308L8.80811 22.3865L8.72731 22.3413L8.64692 22.2953L8.56693 22.2486L8.48741 22.201L8.4083 22.1526L8.32966 22.1034L8.25149 22.0534L8.1738 22.0026L8.09657 21.9509L8.01982 21.8985L7.94354 21.8454L7.8678 21.7914L7.79253 21.7366L7.71781 21.6811L7.64355 21.6248L7.5699 21.5678L7.49679 21.51L7.42422 21.4513L7.35219 21.3921L7.2807 21.332L7.20981 21.2712L7.13954 21.2096L7.0698 21.1474L7.00067 21.0844L6.93221 21.0207L6.8643 20.9563L6.79699 20.8912L6.73035 20.8253L6.66439 20.7588L6.59904 20.6916L6.53429 20.6237L6.47022 20.5551L6.40689 20.4859L6.34416 20.416L6.28212 20.3455L6.22081 20.2742L6.16011 20.2024L6.10022 20.1299L6.04093 20.0567L5.98246 19.983L5.92466 19.9086L5.8676 19.8336L5.81129 19.758L5.75564 19.6819L5.70081 19.6051L5.64679 19.5277L5.59344 19.4497L5.5409 19.3712L5.48914 19.2922L5.43816 19.2125L5.38796 19.1323L5.33857 19.0516L5.28997 18.9703L5.24218 18.8886L5.19519 18.8062L5.14903 18.7235L5.10369 18.6401L5.05919 18.5564L5.01551 18.4721L4.97268 18.3873L4.93069 18.302L4.88956 18.2163L4.84928 18.1302L4.80986 18.0435L4.77131 17.9565L4.73364 17.869L4.69684 17.7811L4.66092 17.6928L4.6259 17.6041L4.59176 17.515L4.55851 17.4255L4.52617 17.3356L4.49473 17.2453L4.4642 17.1547L4.43459 17.0638L4.40589 16.9724L4.37812 16.8808L4.35127 16.7888L4.32535 16.6966L4.30036 16.604L4.27632 16.511L4.25321 16.4179L4.23104 16.3244L4.20983 16.2307L4.18956 16.1367L4.17026 16.0424L4.1519 15.9479L4.13451 15.8532L4.11808 15.7582L4.10262 15.6631L4.08813 15.5677L4.07461 15.4721L4.06206 15.3764L4.05049 15.2804L4.03991 15.1843L4.03029 15.088L4.02167 14.9916L4.01403 14.895L4.00738 14.7984L4.00172 14.7015L3.99705 14.6046L3.99337 14.5076L3.9907 14.4105L3.98901 14.3133L3.98832 14.216L3.98864 14.1187L3.98995 14.0213L3.99227 13.9239L3.99558 13.8264L3.9999 13.7289L4.00523 13.6314L4.01156 13.5339L4.0189 13.4365L4.02723 13.3389L4.03658 13.2415L4.04694 13.1441L4.0583 13.0468L4.07067 12.9494L4.08404 12.8522L4.09842 12.755L4.11381 12.6579L4.1302 12.561L4.1476 12.4641L4.16601 12.3673L4.18542 12.2707L4.20582 12.1742L4.22725 12.0779L4.24966 11.9817L4.27308 11.8856L4.2975 11.7898L4.32292 11.6942L4.34933 11.5987L4.37674 11.5034L4.40514 11.4084L4.43454 11.3136L4.46493 11.2189L4.4963 11.1247L4.52866 11.0306L4.56201 10.9368L4.59634 10.8432L4.63165 10.7499L4.66793 10.657L4.7052 10.5643L4.74343 10.472L4.78264 10.38L4.82281 10.2883L4.86395 10.197L4.90604 10.106L4.9491 10.0153L4.9931 9.92509L5.03807 9.83526L5.08398 9.74576L5.13083 9.65673L5.17862 9.56804L5.22736 9.47983L5.27702 9.39201L5.32761 9.3046L5.37914 9.21774L5.43158 9.13127L5.48494 9.04528L5.53922 8.95976L5.59438 8.87471L5.6505 8.79021L5.70742 8.70617L5.76536 8.62267L5.8241 8.53965L5.88372 8.45716L5.94429 8.37529L6.00566 8.29388L6.06798 8.21308L6.13111 8.13282L6.19511 8.05317L6.25993 7.97413L6.32562 7.89562L6.39218 7.81772L6.45956 7.74043L6.52775 7.66382L6.59681 7.58781L6.66662 7.5124L6.7373 7.43767L6.80879 7.36355L6.88102 7.29017L6.95406 7.2174L7.02792 7.1453L7.10258 7.07395L7.17798 7.0032L7.25412 6.93326L7.33108 6.86392L7.40878 6.7954L7.48715 6.72755L7.56633 6.66045L7.64625 6.59408L7.72684 6.52846L7.80818 6.46358L7.89026 6.3995L7.97302 6.33617L8.05644 6.27365L8.14061 6.21187L8.22539 6.1509L8.31084 6.09074L8.39704 6.03139L8.48384 5.97285L8.57125 5.91518L8.6594 5.85826L8.74809 5.80221L8.83745 5.747L8.92742 5.69264L9.018 5.63913L9.10912 5.58648L9.20091 5.5347L9.29324 5.48378L9.38611 5.43376L9.47959 5.38462L9.57361 5.33637L9.66816 5.28902L9.76326 5.24257L9.8589 5.19703L9.95507 5.15241L10.0517 5.1087L10.1489 5.06592L10.2466 5.02408L10.3447 4.98318L10.4433 4.94321L10.5423 4.90419L10.6419 4.86613L10.7418 4.82902L10.8422 4.79288L10.9431 4.7577L11.0443 4.72349L11.1459 4.69026L11.2479 4.65801L11.3504 4.62675L11.4531 4.59647L11.5563 4.56719L11.6598 4.53891L11.7637 4.51162L11.8679 4.48535L11.9724 4.46008L12.0772 4.43584L12.1824 4.4126L12.2878 4.39038L12.3935 4.36919L12.4995 4.34903L12.6057 4.3299L12.7122 4.31179L12.819 4.29473L12.9259 4.27871L13.0331 4.26373L13.1405 4.24979L13.1805 4.24498ZM13.2259 8.06848L13.195 5.46229L13.107 5.47459L13.0123 5.48877L12.9176 5.5039L12.8236 5.51989L12.7293 5.53686L12.6356 5.5547L12.542 5.57346L12.4488 5.59309L12.3558 5.61365L12.263 5.63513L12.1705 5.65749L12.0784 5.68073L11.9863 5.7049L11.8979 5.72904L11.8037 5.75581L11.7127 5.78259L11.6221 5.81024L11.532 5.8387L11.4421 5.86811L11.3525 5.89839L11.2634 5.92948L11.1747 5.96138L11.0863 5.99423L10.9984 6.02782L10.9108 6.06235L10.8238 6.09762L10.7369 6.13384L10.6506 6.1708L10.5648 6.20857L10.4795 6.24715L10.3945 6.2866L10.3099 6.32686L10.2261 6.3678L10.1424 6.40969L10.0595 6.45224L9.97686 6.49575L9.89498 6.53979L9.81324 6.58491L9.7323 6.6305L9.65191 6.67697L9.57192 6.72425L9.49254 6.7722L9.41356 6.82103L9.33539 6.8704L9.25756 6.92065L9.18047 6.97157L9.10392 7.02316L9.02791 7.07557L8.95238 7.12871L8.87771 7.18233L8.80346 7.23689L8.72981 7.29206L8.65683 7.34791L8.58453 7.40436L8.51271 7.46162L8.44169 7.51942L8.37127 7.57789L8.3014 7.63718L8.23241 7.69686L8.16388 7.75736L8.09603 7.81847L8.02893 7.88011L7.96256 7.94236L7.89667 8.00535L7.83172 8.06875L7.76738 8.13282L7.70364 8.19757L7.64072 8.26279L7.57847 8.32868L7.51696 8.39505L7.45619 8.46195L7.3961 8.52947L7.33668 8.59758L7.27827 8.66604L7.2204 8.73517L7.16328 8.80484L7.10696 8.87492L7.05145 8.94546L6.99655 9.01668L6.94253 9.08824L6.88925 9.16034L6.83678 9.23291L6.78505 9.30595L6.7342 9.37933L6.68408 9.45325L6.63472 9.52764L6.58616 9.60244L6.53847 9.67757L6.4916 9.75318L6.44547 9.82932L6.40014 9.90567L6.3557 9.98249L6.31199 10.0597L6.26923 10.1371L6.22722 10.2151L6.18594 10.2935L6.14568 10.372L6.10615 10.451L6.06751 10.5303L6.02967 10.6099L5.99271 10.6898L5.95656 10.77L5.92129 10.8506L5.88682 10.9314L5.8533 11.0124L5.82059 11.0938L5.78869 11.1754L5.75767 11.2573L5.72759 11.3394L5.69825 11.4218L5.66992 11.5043L5.64234 11.5871L5.6157 11.6702L5.58987 11.7534L5.56498 11.8367L5.5409 11.9203L5.51777 12.004L5.49545 12.088L5.47403 12.172L5.45349 12.2562L5.43384 12.3406L5.41506 12.4251L5.39715 12.5097L5.38015 12.5944L5.36401 12.6792L5.34875 12.7642L5.33439 12.8491L5.3209 12.9343L5.30831 13.0193L5.29658 13.1046L5.28575 13.1898L5.27579 13.2751L5.26672 13.3604L5.25853 13.4458L5.25123 13.5312L5.24481 13.6165L5.23926 13.702L5.2346 13.7874L5.23081 13.8727L5.22791 13.958L5.22588 14.0433L5.22474 14.1285L5.22446 14.2138L5.22506 14.2989L5.22654 14.3839L5.22888 14.4689L5.23209 14.5537L5.23618 14.6386L5.24113 14.7233L5.24694 14.8078L5.25363 14.8923L5.26117 14.9766L5.26957 15.0608L5.27883 15.1448L5.28894 15.2287L5.29992 15.3125L5.31173 15.396L5.3244 15.4794L5.33791 15.5625L5.35227 15.6455L5.36747 15.7284L5.38351 15.8108L5.40038 15.8933L5.41808 15.9753L5.43662 16.0573L5.45596 16.1388L5.47615 16.2202L5.49716 16.3014L5.51898 16.3822L5.54158 16.4628L5.56505 16.5431L5.58926 16.6231L5.61435 16.7028L5.64018 16.7822L5.66682 16.8613L5.69427 16.94L5.72246 17.0184L5.75146 17.0965L5.78127 17.1743L5.81183 17.2517L5.84312 17.3287L5.87522 17.4054L5.90807 17.4816L5.94172 17.5575L5.97605 17.633L6.01119 17.7081L6.04707 17.7828L6.08363 17.8572L6.12099 17.931L6.15903 18.0045L6.19781 18.0776L6.23733 18.1501L6.27753 18.2223L6.31847 18.294L6.36008 18.3652L6.40244 18.436L6.44547 18.5063L6.48917 18.5761L6.53355 18.6455L6.57867 18.7144L6.62433 18.7826L6.6708 18.8506L6.71781 18.9179L6.76556 18.9847L6.81392 19.051L6.86295 19.1168L6.91259 19.182L6.9629 19.2467L7.01375 19.3109L7.06528 19.3745L7.11742 19.4375L7.17016 19.5L7.22351 19.5619L7.27746 19.6233L7.33196 19.684L7.38706 19.7443L7.4427 19.8038L7.49895 19.8628L7.55574 19.9212L7.61313 19.979L7.671 20.0362L7.72947 20.0928L7.78849 20.1488L7.84791 20.2041L7.908 20.2589L7.9685 20.3129L8.02953 20.3663L8.09111 20.4191L8.15316 20.4712L8.21568 20.5228L8.27867 20.5736L8.34214 20.6237L8.40608 20.6732L8.47049 20.7221L8.53537 20.7703L8.60059 20.8178L8.66628 20.8646L8.73244 20.9107L8.79901 20.9562L8.86605 21.001L8.93342 21.045L9.00121 21.0884L9.06939 21.1311L9.13792 21.173L9.20684 21.2143L9.27618 21.2548L9.34578 21.2946L9.41585 21.3337L9.48613 21.3721L9.55688 21.4098L9.6279 21.4468L9.69919 21.4829L9.77088 21.5185L9.84291 21.5532L9.91515 21.5872L9.98765 21.6205L10.0606 21.6531L10.1336 21.6848L10.207 21.7159L10.2806 21.7462L10.3545 21.7758L10.4286 21.8046L10.503 21.8326L10.5776 21.8599L10.6524 21.8865L10.7274 21.9123L10.8026 21.9374L10.878 21.9616L10.9537 21.9851L11.0295 22.0078L11.1054 22.0298L11.1815 22.0511L11.2578 22.0715L11.3342 22.0913L11.4107 22.1101L11.4874 22.1283L11.5642 22.1457L11.6412 22.1623L11.7182 22.1782L11.7953 22.1932L11.8726 22.2075L11.9498 22.2211L12.0272 22.2339L12.1047 22.2458L12.1822 22.2571L12.2597 22.2676L12.3373 22.2773L12.4149 22.2862L12.4925 22.2943L12.5702 22.3017L12.6479 22.3083L12.7256 22.3141L12.8033 22.3192L12.8809 22.3235L12.9586 22.327L13.0363 22.3298L13.1138 22.3318L13.1913 22.3331L13.2688 22.3335L13.3462 22.3333L13.4236 22.3322L13.5009 22.3304L13.5781 22.3279L13.6552 22.3246L13.7322 22.3204L13.8091 22.3156L13.8858 22.3101L13.9625 22.3037L14.039 22.2966L14.1154 22.2888L14.1917 22.2802L14.2677 22.2709L14.3437 22.2609L14.4194 22.2502L14.495 22.2386L14.5704 22.2264L14.6456 22.2134L14.7206 22.1996L14.7954 22.1852L14.87 22.1701L14.9445 22.1542L15.0185 22.1376L15.0925 22.1203L15.1661 22.1023L15.2395 22.0836L15.3127 22.0641L15.3856 22.044L15.4583 22.0231L15.5306 22.0016L15.6027 21.9794L15.6744 21.9565L15.746 21.9329L15.8171 21.9086L15.888 21.8837L15.9586 21.858L16.0288 21.8317L16.0987 21.8048L16.1682 21.7771L16.2375 21.7488L16.3063 21.7198L16.3748 21.6902L16.443 21.66L16.5107 21.6291L16.5781 21.5976L16.6452 21.5654L16.7117 21.5327L16.778 21.4992L16.8438 21.4652L16.9093 21.4304L16.9742 21.3952L17.0388 21.3594L17.103 21.3229L17.1666 21.2858L17.23 21.2481L17.2928 21.2098L17.3551 21.171L17.4172 21.1315L17.4786 21.0916L17.5396 21.051L17.6002 21.0098L17.6603 20.9681L17.7197 20.926L17.779 20.8831L17.8375 20.8398L17.8956 20.7959L17.9533 20.7515L18.0102 20.7066L18.067 20.6611L18.1231 20.6151L18.1784 20.5687L18.2336 20.5216L18.288 20.4741L18.3419 20.4263L18.3955 20.3776L18.4482 20.3288L18.5006 20.2794L18.5524 20.2295L18.6035 20.1791L18.6541 20.1283L18.7042 20.077L18.7537 20.0253L18.8026 19.9732L18.8509 19.9206L18.8987 19.8676L18.9458 19.8142L18.9925 19.7602L19.0384 19.706L19.0837 19.6514L19.1286 19.5962L19.1727 19.5409L19.2163 19.485L19.2592 19.4288L19.3016 19.3722L19.3433 19.3152L19.3843 19.2581L19.4248 19.2003L19.4646 19.1423L19.5038 19.084L19.5424 19.0252L19.5802 18.9664L19.6176 18.907L19.6542 18.8473L19.6902 18.7874L19.7255 18.7272L19.7603 18.6666L19.7942 18.6059L19.8277 18.5447L19.8604 18.4834L19.8923 18.4218L19.9238 18.3598L19.9545 18.2978L19.9846 18.2353L20.0139 18.1729L20.0427 18.1098L20.0707 18.0469L20.0981 17.9834L20.1248 17.92L20.1508 17.8564L20.1761 17.7924L20.2008 17.7283L20.2247 17.6641L20.2481 17.5996L20.2706 17.535L20.2926 17.4702L20.3138 17.4053L20.3344 17.3401L20.3543 17.2749L20.3734 17.2096L20.3919 17.1441L20.4096 17.0785L20.4268 17.0128L20.4432 16.9469L20.4589 16.8811L20.4739 16.8149L20.4882 16.7489L20.5019 16.6827L20.5148 16.6165L20.5271 16.5502L20.5386 16.4837L20.5494 16.4174L20.5596 16.3509L20.5691 16.2843L20.5778 16.2179L20.5859 16.1513L20.5934 16.0845L20.6 16.0182L20.6061 15.9514L20.6114 15.8848L20.616 15.8184L20.62 15.7518L20.6232 15.6853L20.6258 15.6188L20.6277 15.5522L20.6288 15.486L20.6294 15.4195L20.6292 15.3532L20.6284 15.2869L20.6268 15.2208L20.6246 15.1547L20.6217 15.0886L20.6181 15.0229L20.6139 14.9569L20.6089 14.8912L20.6034 14.8257L20.5971 14.7601L20.5902 14.6949L20.5826 14.6295L20.5743 14.5645L20.5654 14.4996L20.5559 14.4347L20.5456 14.3701L20.5347 14.3057L20.5232 14.2414L20.511 14.1773L20.4981 14.1132L20.4846 14.0495L20.4705 13.9861L20.4558 13.9227L20.4403 13.8594L20.4243 13.7967L20.4076 13.7337L20.3903 13.6714L20.3724 13.609L20.3539 13.5471L20.3347 13.4853L20.3149 13.4237L20.2945 13.3625L20.2735 13.3016L20.2518 13.2407L20.2297 13.1803L20.2068 13.1201L20.1834 13.0602L20.1594 13.0006L20.1348 12.9411L20.1096 12.8823L20.0838 12.8235L20.0575 12.7651L20.0306 12.7071L20.0031 12.6492L19.975 12.5917L19.9464 12.5347L19.9172 12.4779L19.8875 12.4215L19.8572 12.3656L19.8263 12.3097L19.795 12.2544L19.763 12.1994L19.7306 12.1448L19.6976 12.0905L19.6642 12.0367L19.63 11.9831L19.5956 11.9301L19.5605 11.8774L19.525 11.8251L19.4888 11.7731L19.4523 11.7217L19.4153 11.6707L19.3777 11.6199L19.3397 11.5697L19.3011 11.5199L19.2623 11.4706L19.2227 11.4216L19.1828 11.3731L19.1424 11.325L19.1016 11.2773L19.0604 11.2302L19.0186 11.1834L18.9765 11.1372L18.9339 11.0913L18.891 11.0462L18.8474 11.0012L18.8036 10.9569L18.7593 10.9128L18.7146 10.8695L18.6696 10.8266L18.6242 10.7841L18.5782 10.742L18.532 10.7006L18.4854 10.6597L18.4382 10.6191L18.3911 10.5793L18.3433 10.5397L18.2952 10.5008L18.2468 10.4624L18.1979 10.4244L18.1488 10.387L18.0995 10.3503L18.0496 10.3138L17.9994 10.2779L17.9491 10.2428L17.8982 10.2079L17.8474 10.1738L17.796 10.1401L17.7444 10.1069L17.6924 10.0743L17.6403 10.0423L17.5877 10.0107L17.535 9.97986L17.4819 9.94937L17.4288 9.91963L17.3752 9.89036L17.3214 9.86156L17.2674 9.83337L17.2132 9.80585L17.1587 9.77874L17.104 9.75223L17.0491 9.72633L16.9942 9.70104L16.9386 9.67616L16.8833 9.65201L16.8276 9.62841L16.7716 9.60527L16.7156 9.58281L16.6595 9.56096L16.6031 9.53965L16.5464 9.51881L16.4898 9.49871L16.4328 9.47908L16.3758 9.46006L16.3188 9.44165L16.2615 9.42385L16.2043 9.40658L16.1465 9.38985L16.089 9.3738L16.0313 9.35829L15.9735 9.34338L15.9157 9.32902L15.8575 9.31526L15.7995 9.30211L15.7415 9.28956L15.6833 9.27756L15.6249 9.26609L15.5668 9.25537L15.5083 9.24512L15.45 9.23547L15.3914 9.22637L15.3331 9.21794L15.2743 9.20998L15.216 9.20276L15.1575 9.19602L15.0989 9.18988L15.0405 9.18435L14.9818 9.17936L14.9235 9.17498L14.8648 9.1712L14.8064 9.16796L14.7481 9.16533L14.6895 9.16324L14.6313 9.16176L14.573 9.16088L14.5148 9.16054L14.475 9.16068L14.5051 11.707L14.5232 11.707L14.5566 11.7075L14.5901 11.7083L14.6237 11.7094L14.6573 11.711L14.691 11.7128L14.7246 11.7149L14.7583 11.7175L14.7921 11.7204L14.8258 11.7236L14.8596 11.7272L14.8934 11.7311L14.9273 11.7354L14.9611 11.7401L14.9949 11.7451L15.0288 11.7505L15.0626 11.7562L15.0964 11.7623L15.1303 11.7688L15.1641 11.7755L15.1979 11.7827L15.2317 11.7902L15.2654 11.7981L15.2991 11.8063L15.3328 11.8149L15.3665 11.8239L15.4001 11.8332L15.4337 11.8428L15.4672 11.8529L15.5006 11.8632L15.534 11.874L15.5674 11.8852L15.6006 11.8966L15.6339 11.9084L15.667 11.9206L15.7001 11.9332L15.733 11.9461L15.766 11.9594L15.7987 11.973L15.8314 11.9869L15.8641 12.0013L15.8966 12.016L15.929 12.031L15.9613 12.0465L15.9935 12.0622L16.0256 12.0783L16.0575 12.0948L16.0893 12.1116L16.121 12.1288L16.1526 12.1464L16.184 12.1642L16.2153 12.1825L16.2464 12.201L16.2774 12.22L16.3083 12.2392L16.339 12.2589L16.3694 12.2788L16.3998 12.2991L16.43 12.3198L16.46 12.3408L16.4898 12.3621L16.5195 12.3837L16.549 12.4057L16.5783 12.428L16.6073 12.4507L16.6363 12.4737L16.6649 12.497L16.6934 12.5206L16.7217 12.5446L16.7498 12.5689L16.7776 12.5935L16.8053 12.6185L16.8327 12.6438L16.8598 12.6693L16.8867 12.6952L16.9135 12.7215L16.94 12.748L16.9662 12.7748L16.9922 12.8019L17.0179 12.8294L17.0434 12.8572L17.0686 12.8852L17.0937 12.9136L17.1183 12.9422L17.1428 12.9712L17.167 13.0004L17.1908 13.0299L17.2145 13.0597L17.2378 13.0898L17.2609 13.1202L17.2837 13.1508L17.3061 13.1818L17.3282 13.2129L17.3502 13.2444L17.3717 13.2762L17.393 13.3082L17.414 13.3405L17.4347 13.3731L17.455 13.4058L17.475 13.4389L17.4947 13.4722L17.514 13.5057L17.5331 13.5395L17.5518 13.5736L17.5702 13.6078L17.5883 13.6424L17.606 13.6771L17.6234 13.712L17.6404 13.7472L17.657 13.7827L17.6733 13.8183L17.6893 13.8542L17.705 13.8903L17.7202 13.9266L17.7351 13.9631L17.7496 13.9997L17.7638 14.0366L17.7776 14.0737L17.791 14.111L17.8041 14.1485L17.8167 14.1862L17.829 14.224L17.8409 14.262L17.8524 14.3002L17.8635 14.3386L17.8743 14.3772L17.8847 14.4158L17.8946 14.4547L17.9041 14.4937L17.9133 14.5329L17.9221 14.5722L17.9304 14.6117L17.9384 14.6513L17.9459 14.6909L17.953 14.7308L17.9598 14.7708L17.9661 14.8109L17.972 14.8512L17.9775 14.8915L17.9825 14.932L17.9872 14.9726L17.9914 15.0132L17.9952 15.054L17.9986 15.0948L18.0015 15.1359L18.004 15.1769L18.0061 15.218L18.0077 15.2592L18.009 15.3005L18.0098 15.3418L18.0102 15.3832L18.01 15.4246L18.0096 15.4662L18.0086 15.5078L18.0072 15.5494L18.0054 15.5911L18.0031 15.6328L18.0004 15.6745L17.9972 15.7163L17.9936 15.7581L17.9895 15.7999L17.9851 15.8417L17.9801 15.8835L17.9747 15.9254L17.9689 15.9673L17.9626 16.0091L17.9559 16.0509L17.9487 16.0928L17.941 16.1346L17.9329 16.1764L17.9244 16.2181L17.9154 16.2599L17.906 16.3016L17.8961 16.3432L17.8857 16.3849L17.8749 16.4265L17.8637 16.4679L17.852 16.5094L17.8399 16.5508L17.8273 16.5921L17.8142 16.6334L17.8008 16.6745L17.7868 16.7157L17.7724 16.7567L17.7575 16.7975L17.7422 16.8384L17.7265 16.8791L17.7103 16.9198L17.6936 16.9602L17.6766 17.0006L17.659 17.0409L17.641 17.0811L17.6226 17.1211L17.6037 17.1609L17.5844 17.2007L17.5647 17.2403L17.5445 17.2798L17.5238 17.3191L17.5027 17.3582L17.4812 17.3972L17.4593 17.436L17.4369 17.4747L17.414 17.5132L17.3908 17.5514L17.3671 17.5896L17.343 17.6275L17.3185 17.6652L17.2934 17.7028L17.2681 17.7401L17.2422 17.7772L17.216 17.8141L17.1893 17.8508L17.1623 17.8873L17.1347 17.9235L17.1068 17.9595L17.0785 17.9954L17.0498 18.0309L17.0206 18.0662L16.9911 18.1012L16.9611 18.136L16.9307 18.1706L16.9 18.2048L16.8688 18.2389L16.8372 18.2726L16.8053 18.3061L16.773 18.3393L16.7403 18.3722L16.7071 18.4048L16.6737 18.4372L16.6398 18.4692L16.6055 18.5009L16.5709 18.5324L16.5359 18.5635L16.5006 18.5943L16.4648 18.6248L16.4287 18.655L16.3922 18.6848L16.3554 18.7144L16.3183 18.7435L16.2808 18.7724L16.2429 18.8009L16.2047 18.8291L16.1662 18.8569L16.1273 18.8843L16.0881 18.9115L16.0485 18.9382L16.0086 18.9647L15.9684 18.9906L15.9279 19.0163L15.887 19.0416L15.8459 19.0665L15.8044 19.091L15.7626 19.1151L15.7206 19.1389L15.6781 19.1622L15.6355 19.1852L15.5926 19.2077L15.5493 19.2299L15.5058 19.2516L15.462 19.273L15.4179 19.2939L15.3735 19.3144L15.3289 19.3345L15.284 19.3542L15.2389 19.3735L15.1935 19.3923L15.1478 19.4106L15.1019 19.4286L15.0558 19.4461L15.0094 19.4632L14.9628 19.4798L14.9159 19.496L14.8689 19.5117L14.8216 19.527L14.7741 19.5418L14.7264 19.5562L14.6785 19.5701L14.6304 19.5835L14.5821 19.5966L14.5336 19.609L14.4849 19.6211L14.436 19.6326L14.387 19.6438L14.3377 19.6544L14.2884 19.6645L14.2388 19.6742L14.1891 19.6834L14.1393 19.6921L14.0892 19.7003L14.0391 19.708L13.9888 19.7152L13.9384 19.7219L13.8878 19.7282L13.8372 19.7339L13.7864 19.7391L13.7355 19.7439L13.6845 19.7481L13.6334 19.7519L13.5821 19.7551L13.5308 19.7578L13.4794 19.76L13.428 19.7617L13.3764 19.7629L13.3248 19.7636L13.2731 19.7638L13.2214 19.7634L13.1696 19.7625L13.1177 19.7611L13.0659 19.7592L13.0139 19.7568L12.9619 19.7538L12.9099 19.7504L12.8579 19.7464L12.8059 19.7419L12.7539 19.7368L12.7019 19.7313L12.6498 19.7252L12.5978 19.7186L12.5457 19.7114L12.4937 19.7038L12.4417 19.6956L12.3898 19.6869L12.3379 19.6776L12.286 19.6678L12.2342 19.6576L12.1824 19.6467L12.1306 19.6354L12.079 19.6235L12.0274 19.6111L11.9758 19.5982L11.9243 19.5847L11.873 19.5707L11.8217 19.5562L11.7705 19.5411L11.7194 19.5255L11.6684 19.5094L11.6176 19.4928L11.5668 19.4757L11.5162 19.458L11.4657 19.4398L11.4153 19.4211L11.3651 19.4018L11.315 19.3821L11.2651 19.3618L11.2153 19.341L11.1658 19.3197L11.1163 19.2978L11.067 19.2755L11.018 19.2527L10.969 19.2293L10.9203 19.2054L10.8718 19.181L10.8236 19.1561L10.7755 19.1307L10.7276 19.1048L10.6799 19.0783L10.6325 19.0514L10.5852 19.024L10.5383 18.996L10.4915 18.9676L10.4451 18.9387L10.3988 18.9093L10.3528 18.8794L10.3071 18.849L10.2616 18.8181L10.2165 18.7868L10.1716 18.7549L10.1269 18.7226L10.0826 18.6898L10.0386 18.6565L9.99486 18.6228L9.95143 18.5885L9.90833 18.5539L9.86551 18.5187L9.82302 18.4831L9.78086 18.447L9.73905 18.4105L9.69757 18.3735L9.65643 18.3361L9.61562 18.2982L9.57516 18.2599L9.5351 18.2211L9.4953 18.1819L9.45598 18.1423L9.417 18.1022L9.37835 18.0617L9.34011 18.0208L9.30228 17.9794L9.26485 17.9376L9.22775 17.8955L9.19113 17.8529L9.15484 17.8099L9.11896 17.7665L9.08356 17.7226L9.04855 17.6784L9.01395 17.6339L8.97976 17.5889L8.94604 17.5435L8.91279 17.4978L8.87994 17.4516L8.8475 17.4051L8.81553 17.3582L8.78403 17.311L8.75301 17.2634L8.72246 17.2154L8.69231 17.1671L8.6627 17.1185L8.6335 17.0695L8.60484 17.0202L8.57664 16.9705L8.54892 16.9205L8.52168 16.8702L8.49497 16.8195L8.46873 16.7685L8.44297 16.7173L8.41774 16.6658L8.39306 16.6138L8.36885 16.5617L8.34517 16.5092L8.32204 16.4565L8.29938 16.4034L8.27726 16.3501L8.25568 16.2965L8.23463 16.2427L8.21413 16.1885L8.19423 16.1342L8.17481 16.0795L8.15592 16.0247L8.13758 15.9696L8.11984 15.9142L8.10264 15.8587L8.08598 15.8029L8.06987 15.7468L8.05435 15.6906L8.03945 15.6341L8.02502 15.5775L8.01126 15.5206L7.99804 15.4636L7.98536 15.4064L7.97329 15.349L7.96182 15.2914L7.95089 15.2336L7.94057 15.1757L7.93086 15.1176L7.92176 15.0594L7.91319 15.001L7.90523 14.9426L7.89795 14.8839L7.89121 14.8251L7.88507 14.7662L7.87954 14.7072L7.87461 14.648L7.8703 14.5888L7.86659 14.5295L7.86349 14.47L7.86099 14.4106L7.8591 14.3509L7.85789 14.2912L7.85728 14.2316L7.85721 14.1717L7.85782 14.1118L7.8591 14.052L7.86092 13.992L7.86342 13.932L7.86652 13.8719L7.87023 13.8119L7.87455 13.7518L7.87954 13.6917L7.88514 13.6316L7.89134 13.5715L7.89822 13.5115L7.90571 13.4514L7.9138 13.3913L7.92257 13.3313L7.93194 13.2713L7.94199 13.2113L7.95258 13.1514L7.96384 13.0915L7.97578 13.0317L7.98833 12.9719L8.00148 12.9122L8.01524 12.8526L8.02967 12.7931L8.04471 12.7336L8.06042 12.6743L8.07675 12.615L8.09367 12.5559L8.11121 12.4968L8.12942 12.4379L8.14824 12.3791L8.16766 12.3204L8.18776 12.262L8.20846 12.2036L8.22978 12.1454L8.2517 12.0873L8.27429 12.0294L8.29749 11.9717L8.3213 11.9141L8.34571 11.8568L8.37074 11.7996L8.39643 11.7426L8.42267 11.6858L8.44958 11.6292L8.47703 11.5729L8.50515 11.5167L8.53382 11.4608L8.56315 11.4052L8.59303 11.3497L8.62358 11.2946L8.65468 11.2396L8.68637 11.1849L8.71868 11.1305L8.75159 11.0764L8.78505 11.0225L8.81917 10.9689L8.85384 10.9156L8.88905 10.8626L8.92486 10.8099L8.96128 10.7575L8.99824 10.7054L9.03581 10.6537L9.07391 10.6022L9.11256 10.5511L9.15181 10.5004L9.1916 10.4499L9.232 10.3999L9.27294 10.3501L9.31435 10.3008L9.35637 10.2518L9.39893 10.2032L9.44202 10.1549L9.48566 10.1071L9.52984 10.0596L9.57455 10.0126L9.61981 9.9659L9.66553 9.91963L9.7118 9.87377L9.75861 9.82831L9.80589 9.78332L9.8537 9.73874L9.90199 9.69457L9.95076 9.65086L10.0001 9.60756L10.0499 9.56481L10.1001 9.52238L10.1509 9.4805L10.2021 9.43909L10.2539 9.39808L10.306 9.35762L10.3587 9.31762L10.4117 9.2781L10.4653 9.23905L10.5193 9.20054L10.5737 9.1625L10.6286 9.12493L10.684 9.08791L10.7397 9.05142L10.7959 9.01547L10.8526 8.97999L10.9095 8.94506L10.967 8.91066L11.0248 8.8768L11.0831 8.84349L11.1417 8.81071L11.2007 8.77847L11.2601 8.74684L11.3199 8.71575L11.38 8.68519L11.4405 8.65525L11.5014 8.62584L11.5627 8.59704L11.6243 8.56879L11.6862 8.54113L11.7484 8.51409L11.8111 8.48758L11.874 8.46168L11.9372 8.43646L12.0008 8.41177L12.0647 8.3877L12.1288 8.36423L12.1933 8.34143L12.2581 8.31917L12.3231 8.29759L12.3885 8.27662L12.454 8.25625L12.5199 8.23655L12.586 8.21747L12.6524 8.19906L12.719 8.18125L12.7859 8.16405L12.853 8.14753L12.9203 8.13168L12.9878 8.1165L13.0556 8.10193L13.1235 8.08804L13.1917 8.07482L13.2259 8.06848ZM14.0635 12.9652L13.2861 13.1509L13.2404 9.30015L13.2038 9.30838L13.1486 9.3214L13.0935 9.33495L13.0388 9.34898L12.9842 9.36355L12.9299 9.37866L12.8756 9.39437L12.8219 9.41043L12.768 9.42715L12.7148 9.44421L12.6614 9.46195L12.6084 9.48016L12.5557 9.49884L12.5031 9.518L12.4511 9.53763L12.3991 9.55786L12.3473 9.5785L12.2959 9.59961L12.2446 9.62132L12.194 9.64331L12.1433 9.66597L12.0931 9.68897L12.043 9.71258L11.9934 9.73652L11.9439 9.761L11.8949 9.78589L11.8461 9.81125L11.7977 9.83708L11.7496 9.86331L11.7018 9.89002L11.6543 9.9172L11.6074 9.94472L11.5604 9.97284L11.514 10.0012L11.468 10.0301L11.4223 10.0594L11.3768 10.0891L11.3318 10.1193L11.2872 10.1498L11.2429 10.1807L11.199 10.212L11.1554 10.2438L11.1122 10.2759L11.0695 10.3084L11.027 10.3414L10.9851 10.3745L10.9435 10.4082L10.9023 10.4423L10.8614 10.4767L10.8211 10.5114L10.7811 10.5465L10.7415 10.5819L10.7023 10.6177L10.6635 10.654L10.6252 10.6905L10.5873 10.7272L10.5497 10.7644L10.5127 10.8019L10.4761 10.8397L10.4399 10.8777L10.4041 10.9163L10.3688 10.955L10.3339 10.994L10.2994 11.0334L10.2655 11.0729L10.2319 11.1129L10.199 11.153L10.1662 11.1936L10.1341 11.2343L10.1024 11.2753L10.0711 11.3167L10.0404 11.3582L10.01 11.3999L9.98023 11.4419L9.95082 11.4843L9.92189 11.5268L9.8935 11.5696L9.86557 11.6125L9.83812 11.6557L9.81108 11.6992L9.78464 11.7427L9.75854 11.7867L9.73305 11.8306L9.70796 11.8749L9.68334 11.9194L9.65933 11.9639L9.63572 12.0087L9.61266 12.0537L9.59 12.099L9.56794 12.1442L9.54629 12.1897L9.52518 12.2353L9.50461 12.2811L9.48445 12.3271L9.46482 12.3732L9.44573 12.4193L9.42712 12.4657L9.40904 12.5122L9.39137 12.5588L9.37431 12.6054L9.35772 12.6523L9.3416 12.6992L9.32602 12.7462L9.31091 12.7933L9.29634 12.8406L9.28225 12.8879L9.26876 12.9351L9.25567 12.9826L9.24306 13.0302L9.23106 13.0777L9.21952 13.1253L9.20846 13.173L9.19794 13.2208L9.18796 13.2686L9.17845 13.3163L9.16941 13.3642L9.16091 13.4121L9.15296 13.4599L9.14547 13.5078L9.13846 13.5558L9.13198 13.6036L9.12605 13.6517L9.12058 13.6995L9.11559 13.7474L9.11114 13.7955L9.10716 13.8433L9.10372 13.8912L9.10075 13.939L9.09826 13.9868L9.0963 14.0346L9.09482 14.0822L9.09387 14.13L9.09333 14.1776L9.0934 14.2251L9.09387 14.2726L9.09489 14.3201L9.09637 14.3675L9.09833 14.4147L9.10075 14.4619L9.10372 14.509L9.10716 14.556L9.11107 14.603L9.11546 14.6498L9.12031 14.6966L9.12564 14.7431L9.13144 14.7897L9.13771 14.8359L9.14453 14.8823L9.15174 14.9283L9.15943 14.9743L9.16759 15.0203L9.17622 15.0659L9.18533 15.1115L9.19484 15.1568L9.20489 15.2021L9.21534 15.2472L9.22627 15.2922L9.2376 15.3368L9.24947 15.3816L9.26168 15.4259L9.27436 15.4702L9.28751 15.5141L9.30106 15.5581L9.31509 15.6017L9.32953 15.6451L9.34443 15.6884L9.35974 15.7315L9.37546 15.7742L9.39157 15.8169L9.40817 15.8593L9.42516 15.9015L9.44256 15.9434L9.4603 15.9851L9.47858 16.0267L9.49719 16.0679L9.51621 16.1089L9.53564 16.1497L9.5554 16.1901L9.5757 16.2305L9.5962 16.2705L9.61718 16.3102L9.63856 16.3497L9.66034 16.3889L9.68246 16.4279L9.70492 16.4666L9.72778 16.5049L9.75105 16.5431L9.77459 16.5809L9.79853 16.6184L9.82288 16.6557L9.8475 16.6927L9.87252 16.7294L9.89781 16.7656L9.92351 16.8018L9.94954 16.8375L9.97584 16.8729L10.0026 16.9082L10.0296 16.943L10.0569 16.9774L10.0846 17.0116L10.1126 17.0455L10.1407 17.079L10.1694 17.1122L10.1983 17.1452L10.2274 17.1777L10.257 17.2099L10.2867 17.2417L10.3168 17.2733L10.3471 17.3045L10.3777 17.3353L10.4086 17.3658L10.4398 17.3959L10.4712 17.4257L10.5029 17.4551L10.5349 17.4842L10.5671 17.5129L10.5996 17.5413L10.6323 17.5692L10.6652 17.5969L10.6984 17.6241L10.7318 17.6511L10.7656 17.6776L10.7993 17.7037L10.8335 17.7294L10.8678 17.7549L10.9023 17.7799L10.9371 17.8045L10.972 17.8288L11.0071 17.8526L11.0425 17.8761L11.078 17.8992L11.1136 17.9219L11.1496 17.9443L11.1857 17.9662L11.2219 17.9877L11.2584 18.0089L11.2949 18.0296L11.3315 18.05L11.3686 18.07L11.4056 18.0896L11.4428 18.1087L11.4801 18.1275L11.5176 18.1459L11.5551 18.1638L11.593 18.1814L11.6308 18.1986L11.6687 18.2154L11.7069 18.2318L11.7451 18.2477L11.7834 18.2633L11.8218 18.2785L11.8603 18.2932L11.899 18.3076L11.9376 18.3215L11.9765 18.3351L12.0153 18.3482L12.0542 18.3609L12.0933 18.3733L12.1324 18.3852L12.1715 18.3967L12.2107 18.4078L12.25 18.4184L12.2893 18.4288L12.3286 18.4386L12.368 18.4481L12.4074 18.4572L12.4469 18.4658L12.4864 18.4741L12.5259 18.4819L12.5654 18.4894L12.605 18.4964L12.6446 18.5031L12.6841 18.5093L12.7237 18.5152L12.7632 18.5206L12.8028 18.5255L12.8423 18.5302L12.8819 18.5344L12.9214 18.5382L12.9609 18.5417L13.0004 18.5447L13.0398 18.5473L13.0792 18.5496L13.1186 18.5514L13.1578 18.5529L13.1972 18.5539L13.2363 18.5545L13.2754 18.5548L13.3145 18.5547L13.3535 18.5542L13.3926 18.5533L13.4315 18.552L13.4702 18.5504L13.5089 18.5483L13.5477 18.5458L13.5861 18.543L13.6247 18.5398L13.663 18.5363L13.7013 18.5324L13.7394 18.528L13.7774 18.5233L13.8155 18.5183L13.8532 18.5128L13.8909 18.507L13.9286 18.5009L13.966 18.4943L14.0033 18.4874L14.0405 18.4802L14.0776 18.4725L14.1144 18.4646L14.1511 18.4563L14.1878 18.4476L14.2243 18.4385L14.2606 18.4292L14.2967 18.4195L14.3327 18.4095L14.3686 18.399L14.4042 18.3883L14.4396 18.3772L14.4751 18.3658L14.5101 18.354L14.5451 18.342L14.5798 18.3296L14.6143 18.3169L14.6488 18.3038L14.683 18.2904L14.7169 18.2767L14.7507 18.2628L14.7843 18.2484L14.8177 18.2338L14.8508 18.2189L14.8838 18.2036L14.9166 18.1881L14.949 18.1723L14.9814 18.1561L15.0133 18.1398L15.0452 18.123L15.0769 18.106L15.1082 18.0887L15.1393 18.0712L15.1703 18.0533L15.201 18.0352L15.2313 18.0167L15.2615 17.9981L15.2914 17.9791L15.3211 17.96L15.3506 17.9405L15.3797 17.9208L15.4086 17.9007L15.4373 17.8805L15.4656 17.8601L15.4937 17.8393L15.5216 17.8183L15.5492 17.7971L15.5765 17.7756L15.6036 17.7539L15.6303 17.7321L15.6568 17.7099L15.683 17.6875L15.7089 17.665L15.7346 17.6422L15.7599 17.6191L15.785 17.5959L15.8097 17.5725L15.8343 17.5488L15.8585 17.5249L15.8824 17.5009L15.906 17.4767L15.9293 17.4522L15.9523 17.4277L15.9751 17.4028L15.9974 17.3779L16.0196 17.3527L16.0414 17.3273L16.0628 17.3019L16.0842 17.2761L16.1049 17.2504L16.1256 17.2243L16.1459 17.1982L16.1658 17.1719L16.1855 17.1454L16.2047 17.1189L16.2238 17.0921L16.2425 17.0652L16.2609 17.0383L16.2789 17.011L16.2967 16.9838L16.3141 16.9564L16.3312 16.9289L16.348 16.9012L16.3645 16.8734L16.3806 16.8456L16.3964 16.8176L16.4119 16.7895L16.4271 16.7613L16.4419 16.7331L16.4564 16.7047L16.4707 16.6762L16.4846 16.6477L16.4981 16.619L16.5113 16.5903L16.5242 16.5615L16.5368 16.5327L16.549 16.5037L16.5609 16.4748L16.5726 16.4456L16.5838 16.4166L16.5948 16.3872L16.6053 16.3583L16.6156 16.3289L16.6256 16.2995L16.6352 16.2702L16.6445 16.2408L16.6535 16.2115L16.6622 16.1818L16.6704 16.1525L16.6785 16.1228L16.6861 16.0935L16.6934 16.0638L16.7005 16.0341L16.7071 16.0047L16.7135 15.9753L16.7195 15.9455L16.7253 15.916L16.7307 15.8862L16.7357 15.8568L16.7405 15.8273L16.745 15.7977L16.7491 15.7681L16.7529 15.7385L16.7564 15.7091L16.7595 15.6798L16.7624 15.6502L16.7649 15.6208L16.7672 15.5914L16.7691 15.5621L16.7707 15.5328L16.772 15.5036L16.7729 15.4746L16.7736 15.4453L16.774 15.4161L16.774 15.3871L16.7738 15.3582L16.7732 15.3293L16.7724 15.3006L16.7712 15.2716L16.7697 15.2432L16.768 15.2142L16.766 15.186L16.7636 15.1576L16.761 15.129L16.758 15.1007L16.7548 15.0727L16.7512 15.0443L16.7475 15.0165L16.7434 14.9886L16.739 14.961L16.7343 14.9331L16.7294 14.9055L16.7242 14.8781L16.7187 14.8508L16.7129 14.8234L16.7069 14.7963L16.7006 14.7693L16.694 14.7424L16.6872 14.7158L16.68 14.689L16.6727 14.6627L16.665 14.6361L16.6571 14.61L16.6489 14.5839L16.6405 14.558L16.6318 14.5322L16.6228 14.5064L16.6137 14.481L16.6043 14.4557L16.5946 14.4304L16.5847 14.4054L16.5745 14.3803L16.5642 14.3559L16.5534 14.3311L16.5426 14.3068L16.5315 14.2826L16.5202 14.2585L16.5086 14.2346L16.4968 14.2109L16.4848 14.1872L16.4726 14.1639L16.4602 14.1407L16.4475 14.1177L16.4347 14.0948L16.4215 14.0722L16.4083 14.0497L16.3948 14.0275L16.381 14.0053L16.3672 13.9835L16.3531 13.9618L16.3388 13.9403L16.3243 13.9189L16.3096 13.8978L16.2947 13.8769L16.2797 13.8562L16.2644 13.8357L16.249 13.8154L16.2335 13.7953L16.2176 13.7753L16.2017 13.7557L16.1856 13.7362L16.1693 13.7169L16.1529 13.6978L16.1364 13.679L16.1196 13.6604L16.1026 13.642L16.0856 13.6237L16.0684 13.6057L16.051 13.588L16.0334 13.5704L16.0158 13.5531L15.998 13.5361L15.9802 13.5192L15.9619 13.5025L15.9439 13.4861L15.9255 13.4698L15.9071 13.4539L15.8885 13.4381L15.8698 13.4227L15.851 13.4074L15.8321 13.3923L15.8131 13.3775L15.7939 13.3629L15.7747 13.3486L15.7554 13.3344L15.7359 13.3205L15.7164 13.3069L15.6968 13.2934L15.6771 13.2803L15.6572 13.2673L15.6373 13.2546L15.6174 13.2421L15.5972 13.2298L15.5771 13.2178L15.5569 13.2061L15.5366 13.1945L15.5162 13.1832L15.4958 13.1721L15.4754 13.1613L15.4548 13.1507L15.4343 13.1404L15.4136 13.1302L15.3929 13.1203L15.3721 13.1108L15.3514 13.1013L15.3305 13.0922L15.3096 13.0832L15.2888 13.0745L15.2677 13.0661L15.2467 13.0579L15.2257 13.0499L15.2047 13.0422L15.1836 13.0347L15.1625 13.0274L15.1414 13.0203L15.1204 13.0136L15.0992 13.007L15.078 13.0006L15.057 12.9946L15.0357 12.9887L15.0146 12.9831L14.9934 12.9777L14.9723 12.9725L14.9511 12.9676L14.93 12.9629L14.9088 12.9584L14.8877 12.9542L14.8666 12.9501L14.8456 12.9463L14.8244 12.9428L14.8035 12.9395L14.7823 12.9364L14.7615 12.9335L14.7405 12.9308L14.7196 12.9283L14.6988 12.9261L14.6779 12.9241L14.6571 12.9223L14.6363 12.9208L14.6156 12.9194L14.5949 12.9183L14.5743 12.9174L14.5538 12.9167L14.5333 12.9162L14.5128 12.9159L14.4924 12.9159L14.4721 12.9161L14.4518 12.9164L14.4316 12.9169L14.4115 12.9177L14.3915 12.9187L14.3714 12.9199L14.3516 12.9212L14.3317 12.9228L14.312 12.9246L14.2924 12.9266L14.2727 12.9287L14.2532 12.9311L14.2338 12.9337L14.2145 12.9364L14.1952 12.9394L14.1762 12.9425L14.1571 12.9458L14.1382 12.9493L14.1193 12.953L14.1006 12.9569L14.0819 12.9609L14.0635 12.9652Z" fill="#94A3B8"/>
</svg>
