<svg width="23" height="23" viewBox="0 0 23 23" fill="none" xmlns="http://www.w3.org/2000/svg">
<path d="M21.8102 7.92136L15.0105 6.88343L11.9638 0.386743C11.8975 0.275542 11.8054 0.183868 11.6961 0.120322C11.5869 0.0567747 11.4641 0.0234375 11.3392 0.0234375C11.2144 0.0234375 11.0916 0.0567747 10.9823 0.120322C10.8731 0.183868 10.781 0.275542 10.7147 0.386743L7.66791 6.8923L0.871065 7.92136C0.747935 7.93406 0.630813 7.98344 0.533464 8.0637C0.436115 8.14396 0.362585 8.25176 0.321516 8.37443C0.280448 8.49711 0.273547 8.62955 0.301625 8.7562C0.329703 8.88286 0.391593 8.99845 0.480021 9.08941L5.4173 14.1608L4.24979 21.3228C4.23485 21.4548 4.2549 21.5886 4.30774 21.7094C4.36057 21.8302 4.44414 21.9333 4.5492 22.0074C4.65426 22.0814 4.77675 22.1235 4.90313 22.129C5.02951 22.1344 5.15487 22.1031 5.26538 22.0384L11.3392 18.6792L17.4102 22.0414C17.5207 22.1061 17.6461 22.1374 17.7725 22.1319C17.8989 22.1264 18.0214 22.0844 18.1264 22.0103C18.2315 21.9363 18.315 21.8332 18.3679 21.7124C18.4207 21.5916 18.4408 21.4578 18.4258 21.3258L17.2611 14.1608L22.1984 9.08941C22.2868 8.99845 22.3487 8.88286 22.3768 8.7562C22.4049 8.62955 22.398 8.49711 22.3569 8.37443C22.3158 8.25176 22.2423 8.14396 22.145 8.0637C22.0476 7.98344 21.9305 7.93406 21.8074 7.92136H21.8102Z" fill="#3EBA59"/>
</svg>
