<svg width="22" height="23" viewBox="0 0 22 23" fill="none" xmlns="http://www.w3.org/2000/svg">
<path d="M0.490234 20.0341V14.2103C0.490234 13.3232 0.941463 12.4972 1.6878 12.0178L4.74671 10.0532C5.55983 9.53092 6.59519 9.50157 7.43658 9.97692L9.75304 11.2856C10.7126 11.8278 11.9095 11.7075 12.7421 10.9854L17.0229 7.27232C18.71 5.80891 21.3359 7.00734 21.3359 9.24074V20.0341C21.3359 21.4732 20.1693 22.6398 18.7302 22.6398H3.09595C1.65685 22.6398 0.490234 21.4732 0.490234 20.0341Z" fill="#959DFF"/>
<path d="M1.35938 8.74292L4.95869 6.62258C5.77487 6.14177 6.78769 6.14177 7.60386 6.62258L9.61185 7.80547C10.5651 8.36706 11.7692 8.26539 12.6148 7.55189L20.4679 0.925781" stroke="#7781FF" stroke-width="1.73714" stroke-linecap="round"/>
</svg>
