<svg width="141" height="141" viewBox="0 0 141 141" fill="none" xmlns="http://www.w3.org/2000/svg">
<rect x="0.488403" y="-9.76953" width="139.595" height="150.674" rx="10.4046" fill="#EEEEEE"/>
<path d="M126.725 65.6024C126.725 66.8196 126.24 67.987 125.375 68.8477C124.511 69.7085 123.339 70.192 122.117 70.192H71.4303C70.2083 70.192 69.0362 69.7085 68.1721 68.8477C67.3079 67.987 66.8225 66.8196 66.8225 65.6024C66.8225 64.3851 67.3079 63.2177 68.1721 62.357C69.0362 61.4962 70.2083 61.0127 71.4303 61.0127H122.117C123.339 61.0127 124.511 61.4962 125.375 62.357C126.24 63.2177 126.725 64.3851 126.725 65.6024ZM71.4303 33.4746H122.117C123.339 33.4746 124.511 32.9911 125.375 32.1303C126.24 31.2696 126.725 30.1022 126.725 28.8849C126.725 27.6677 126.24 26.5003 125.375 25.6396C124.511 24.7788 123.339 24.2953 122.117 24.2953H71.4303C70.2083 24.2953 69.0362 24.7788 68.1721 25.6396C67.3079 26.5003 66.8225 27.6677 66.8225 28.8849C66.8225 30.1022 67.3079 31.2696 68.1721 32.1303C69.0362 32.9911 70.2083 33.4746 71.4303 33.4746ZM122.117 97.7301H71.4303C70.2083 97.7301 69.0362 98.2136 68.1721 99.0744C67.3079 99.9351 66.8225 101.103 66.8225 102.32C66.8225 103.537 67.3079 104.704 68.1721 105.565C69.0362 106.426 70.2083 106.909 71.4303 106.909H122.117C123.339 106.909 124.511 106.426 125.375 105.565C126.24 104.704 126.725 103.537 126.725 102.32C126.725 101.103 126.24 99.9351 125.375 99.0744C124.511 98.2136 123.339 97.7301 122.117 97.7301ZM47.5845 16.3207L30.7082 31.8109L23.8539 25.5001C22.9478 24.7092 21.7667 24.3033 20.5637 24.3693C19.3607 24.4353 18.2315 24.968 17.4181 25.8533C16.6047 26.7385 16.1717 27.9059 16.2119 29.1053C16.2521 30.3046 16.7624 31.4406 17.6333 32.2698L27.5978 41.4492C28.4471 42.2238 29.5567 42.6536 30.7082 42.654C31.8775 42.6568 33.0062 42.2275 33.8761 41.4492L53.8052 23.0905C54.2666 22.6878 54.6427 22.1973 54.9113 21.6479C55.1799 21.0985 55.3356 20.5012 55.3694 19.891C55.4031 19.2809 55.3142 18.6701 55.1078 18.0946C54.9015 17.5192 54.5818 16.9905 54.1676 16.5397C53.7534 16.089 53.2529 15.7251 52.6957 15.4695C52.1384 15.2139 51.5355 15.0718 50.9223 15.0514C50.3091 15.031 49.698 15.1328 49.1249 15.3507C48.5517 15.5687 48.028 15.8985 47.5845 16.3207ZM47.5845 53.0381L30.7082 68.5283L23.8539 62.2175C23.4104 61.7952 22.8867 61.4654 22.3136 61.2475C21.7404 61.0295 21.1293 60.9277 20.5162 60.9481C19.903 60.9685 19.3001 61.1107 18.7428 61.3663C18.1855 61.6219 17.6851 61.9857 17.2709 62.4365C16.8567 62.8873 16.537 63.4159 16.3306 63.9914C16.1243 64.5669 16.0354 65.1776 16.0691 65.7878C16.1029 66.3979 16.2586 66.9952 16.5272 67.5447C16.7958 68.0941 17.1719 68.5845 17.6333 68.9872L27.5978 78.1666C28.4471 78.9412 29.5567 79.371 30.7082 79.3714C31.8775 79.3742 33.0062 78.9449 33.8761 78.1666L53.8052 59.8079C54.2666 59.4052 54.6427 58.9147 54.9113 58.3653C55.1799 57.8159 55.3356 57.2186 55.3694 56.6084C55.4031 55.9983 55.3142 55.3875 55.1078 54.812C54.9015 54.2366 54.5818 53.7079 54.1676 53.2572C53.7534 52.8064 53.2529 52.4425 52.6957 52.1869C52.1384 51.9314 51.5355 51.7892 50.9223 51.7688C50.3091 51.7484 49.698 51.8502 49.1249 52.0681C48.5517 52.2861 48.028 52.6159 47.5845 53.0381ZM47.5845 89.7555L30.7082 105.246L23.8539 98.9349C23.4104 98.5126 22.8867 98.1828 22.3136 97.9649C21.7404 97.7469 21.1293 97.6451 20.5162 97.6655C19.903 97.6859 19.3001 97.8281 18.7428 98.0837C18.1855 98.3393 17.6851 98.7031 17.2709 99.1539C16.8567 99.6047 16.537 100.133 16.3306 100.709C16.1243 101.284 16.0354 101.895 16.0691 102.505C16.1029 103.115 16.2586 103.713 16.5272 104.262C16.7958 104.811 17.1719 105.302 17.6333 105.705L27.5978 114.884C28.4471 115.659 29.5567 116.088 30.7082 116.089C31.8775 116.092 33.0062 115.662 33.8761 114.884L53.8052 96.5253C54.6761 95.6961 55.1864 94.5601 55.2266 93.3607C55.2668 92.1613 54.8338 90.994 54.0204 90.1087C53.2069 89.2235 52.0778 88.6908 50.8748 88.6248C49.6718 88.5587 48.4907 88.9647 47.5845 89.7555Z" fill="#F3F3F3"/>
</svg>
