<svg width="56" height="60" viewBox="0 0 56 60" fill="none" xmlns="http://www.w3.org/2000/svg">
<rect x="0.934387" y="0.0566406" width="54.624" height="58.9593" rx="10.4046" fill="#CDF1F9"/>
<path d="M50.3311 29.5494C50.3311 30.0257 50.1411 30.4825 49.803 30.8193C49.4649 31.1561 49.0062 31.3454 48.528 31.3454H28.6941C28.2159 31.3454 27.7573 31.1561 27.4191 30.8193C27.081 30.4825 26.891 30.0257 26.891 29.5494C26.891 29.0731 27.081 28.6163 27.4191 28.2795C27.7573 27.9427 28.2159 27.7534 28.6941 27.7534H48.528C49.0062 27.7534 49.4649 27.9427 49.803 28.2795C50.1411 28.6163 50.3311 29.0731 50.3311 29.5494ZM28.6941 16.9777H48.528C49.0062 16.9777 49.4649 16.7885 49.803 16.4516C50.1411 16.1148 50.3311 15.658 50.3311 15.1817C50.3311 14.7054 50.1411 14.2486 49.803 13.9118C49.4649 13.575 49.0062 13.3858 48.528 13.3858H28.6941C28.2159 13.3858 27.7573 13.575 27.4191 13.9118C27.081 14.2486 26.891 14.7054 26.891 15.1817C26.891 15.658 27.081 16.1148 27.4191 16.4516C27.7573 16.7885 28.2159 16.9777 28.6941 16.9777ZM48.528 42.1211H28.6941C28.2159 42.1211 27.7573 42.3103 27.4191 42.6471C27.081 42.9839 26.891 43.4408 26.891 43.9171C26.891 44.3934 27.081 44.8502 27.4191 45.187C27.7573 45.5238 28.2159 45.713 28.6941 45.713H48.528C49.0062 45.713 49.4649 45.5238 49.803 45.187C50.1411 44.8502 50.3311 44.3934 50.3311 43.9171C50.3311 43.4408 50.1411 42.9839 49.803 42.6471C49.4649 42.3103 49.0062 42.1211 48.528 42.1211ZM19.3631 10.2653L12.7593 16.3266L10.0772 13.8572C9.72264 13.5477 9.26047 13.3889 8.78974 13.4147C8.31901 13.4406 7.87715 13.649 7.55885 13.9954C7.24055 14.3418 7.07112 14.7986 7.08686 15.2679C7.1026 15.7372 7.30226 16.1818 7.64306 16.5062L11.5422 20.0982C11.8745 20.4012 12.3087 20.5694 12.7593 20.5696C13.2169 20.5707 13.6586 20.4027 13.9989 20.0982L21.7973 12.9143C21.9778 12.7567 22.125 12.5648 22.2301 12.3498C22.3352 12.1348 22.3961 11.9011 22.4094 11.6623C22.4226 11.4236 22.3878 11.1846 22.307 10.9594C22.2263 10.7342 22.1012 10.5274 21.9391 10.351C21.777 10.1746 21.5812 10.0322 21.3631 9.9322C21.1451 9.83219 20.9091 9.77656 20.6692 9.76858C20.4293 9.7606 20.1901 9.80042 19.9659 9.88571C19.7416 9.971 19.5367 10.1 19.3631 10.2653ZM19.3631 24.633L12.7593 30.6943L10.0772 28.2249C9.90368 28.0596 9.69876 27.9306 9.47448 27.8453C9.2502 27.76 9.01108 27.7202 8.77115 27.7282C8.53121 27.7362 8.29529 27.7918 8.07723 27.8918C7.85916 27.9918 7.66334 28.1342 7.50126 28.3106C7.33917 28.487 7.21408 28.6938 7.13333 28.919C7.05258 29.1442 7.01778 29.3832 7.03099 29.622C7.0442 29.8607 7.10514 30.0944 7.21025 30.3094C7.31535 30.5244 7.4625 30.7163 7.64306 30.8739L11.5422 34.4658C11.8745 34.7689 12.3087 34.9371 12.7593 34.9373C13.2169 34.9384 13.6586 34.7704 13.9989 34.4658L21.7973 27.282C21.9778 27.1244 22.125 26.9325 22.2301 26.7175C22.3352 26.5025 22.3961 26.2688 22.4094 26.03C22.4226 25.7913 22.3878 25.5523 22.307 25.3271C22.2263 25.1019 22.1012 24.8951 21.9391 24.7187C21.777 24.5423 21.5812 24.3999 21.3631 24.2999C21.1451 24.1999 20.9091 24.1442 20.6692 24.1363C20.4293 24.1283 20.1901 24.1681 19.9659 24.2534C19.7416 24.3387 19.5367 24.4677 19.3631 24.633ZM19.3631 39.0006L12.7593 45.062L10.0772 42.5926C9.90368 42.4273 9.69876 42.2983 9.47448 42.213C9.2502 42.1277 9.01108 42.0879 8.77115 42.0959C8.53121 42.1038 8.29529 42.1595 8.07723 42.2595C7.85916 42.3595 7.66334 42.5019 7.50126 42.6783C7.33917 42.8547 7.21408 43.0615 7.13333 43.2867C7.05258 43.5119 7.01778 43.7509 7.03099 43.9896C7.0442 44.2284 7.10514 44.4621 7.21025 44.6771C7.31535 44.8921 7.4625 45.084 7.64306 45.2416L11.5422 48.8335C11.8745 49.1366 12.3087 49.3048 12.7593 49.305C13.2169 49.3061 13.6586 49.1381 13.9989 48.8335L21.7973 41.6497C22.1381 41.3252 22.3377 40.8807 22.3535 40.4114C22.3692 39.942 22.1998 39.4853 21.8815 39.1389C21.5632 38.7925 21.1213 38.584 20.6506 38.5582C20.1799 38.5323 19.7177 38.6912 19.3631 39.0006Z" fill="#0A7CFF"/>
</svg>
