<svg width="54" height="55" viewBox="0 0 54 55" fill="none" xmlns="http://www.w3.org/2000/svg">
<circle cx="26.8957" cy="27.5367" r="26.8785" fill="#3EBA59"/>
<line x1="31.6646" y1="21.9002" x2="15.1907" y2="21.9002" stroke="#8AE79F" stroke-width="2.60114" stroke-linecap="round"/>
<line x1="21.2601" y1="34.9065" x2="37.734" y2="34.9065" stroke="#8AE79F" stroke-width="2.60114" stroke-linecap="round"/>
<path d="M38.3268 20.8246C38.706 21.1687 38.706 21.7648 38.3268 22.1089L31.3802 28.4113C30.823 28.9168 29.9305 28.5215 29.9305 27.7692L29.9305 15.1644C29.9305 14.4121 30.823 14.0167 31.3802 14.5222L38.3268 20.8246Z" fill="#8AE79F"/>
<path d="M14.598 35.9816C14.2187 35.6375 14.2187 35.0414 14.598 34.6973L21.5445 28.3949C22.1017 27.8894 22.9942 28.2847 22.9942 29.037L22.9942 41.6418C22.9942 42.3941 22.1017 42.7895 21.5445 42.284L14.598 35.9816Z" fill="#8AE79F"/>
</svg>
