<svg width="118" height="122" viewBox="0 0 118 122" fill="none" xmlns="http://www.w3.org/2000/svg">
<circle cx="73.8137" cy="48.3223" r="72.832" fill="#EEEEEE"/>
<line x1="86.7915" y1="32.9955" x2="42.0407" y2="32.9955" stroke="#F3F3F3" stroke-width="6.93638" stroke-linecap="round"/>
<line x1="58.4867" y1="68.3482" x2="103.238" y2="68.3482" stroke="#F3F3F3" stroke-width="6.93638" stroke-linecap="round"/>
<path d="M105.998 31.2332C106.377 31.5773 106.377 32.1734 105.998 32.5175L83.4864 52.9414C82.9292 53.4469 82.0367 53.0516 82.0367 52.2992L82.0367 11.4515C82.0367 10.6992 82.9292 10.3039 83.4864 10.8094L105.998 31.2332Z" fill="#F3F3F3"/>
<path d="M39.2803 70.1091C38.901 69.765 38.901 69.1689 39.2803 68.8248L61.7918 48.4009C62.3489 47.8954 63.2414 48.2907 63.2414 49.0431L63.2414 89.8908C63.2414 90.6431 62.3489 91.0384 61.7918 90.5329L39.2803 70.1091Z" fill="#F3F3F3"/>
</svg>
