<svg width="114" height="36" viewBox="0 0 114 36" fill="none" xmlns="http://www.w3.org/2000/svg">
<path d="M32.3873 16.958C32.4488 16.3604 32.4796 15.6748 32.4796 14.9014C32.4796 13.6709 32.4136 12.1416 32.2818 10.3135C33.9254 10.3662 36.7071 10.3926 40.627 10.3926C44.5469 10.3926 47.3199 10.3662 48.9459 10.3135C48.814 12.1416 48.7481 13.6709 48.7481 14.9014C48.7481 15.6748 48.7789 16.3604 48.8404 16.958H48.2208C47.9219 15.4551 47.5572 14.2686 47.1265 13.3984C46.6959 12.5195 46.1773 11.8911 45.5709 11.5132C44.9732 11.1265 44.2437 10.9331 43.3824 10.9331H42.7628V26.3579C42.7628 27.105 42.8375 27.6499 42.9869 27.9927C43.1451 28.3354 43.4175 28.5684 43.8043 28.6914C44.1998 28.8145 44.815 28.8804 45.65 28.8892V29.4297C43.3824 29.377 41.6729 29.3506 40.5215 29.3506C39.3878 29.3506 37.7398 29.377 35.5777 29.4297V28.8892C36.4214 28.8804 37.0367 28.8145 37.4234 28.6914C37.8189 28.5684 38.0914 28.3354 38.2408 27.9927C38.3902 27.6499 38.4649 27.105 38.4649 26.3579V10.9331H37.8716C37.0015 10.9331 36.2632 11.1221 35.6568 11.5C35.0591 11.8779 34.545 12.5063 34.1143 13.3853C33.6837 14.2554 33.3145 15.4463 33.0069 16.958H32.3873ZM57.0538 18.0391C57.0538 17.292 56.8736 16.7031 56.5132 16.2725C56.1617 15.8418 55.608 15.6265 54.8521 15.6265C54.5005 15.6265 54.149 15.6836 53.7974 15.7979C53.4459 15.9033 53.1558 16.0659 52.9273 16.2856C53.4283 16.4526 53.8194 16.7163 54.1006 17.0767C54.3819 17.4282 54.5225 17.8721 54.5225 18.4082C54.5225 18.7773 54.4302 19.1113 54.2457 19.4102C54.0699 19.7002 53.815 19.9331 53.481 20.1089C53.147 20.2759 52.7647 20.3594 52.334 20.3594C51.754 20.3594 51.2881 20.1616 50.9366 19.7661C50.5938 19.3706 50.4224 18.874 50.4224 18.2764C50.4224 17.3447 50.9234 16.5889 51.9254 16.0088C53.024 15.4023 54.3951 15.0991 56.0386 15.0991C57.8843 15.0991 59.1983 15.5034 59.9805 16.312C60.3585 16.6899 60.6133 17.1602 60.7452 17.7227C60.877 18.2852 60.9429 19.0718 60.9429 20.0825V27.4258C60.9429 27.8652 60.9825 28.1772 61.0616 28.3618C61.1495 28.5376 61.2989 28.6255 61.5098 28.6255C61.7999 28.6255 62.1339 28.4717 62.5118 28.1641L62.7886 28.6255C62.3755 28.9683 61.9273 29.2188 61.4439 29.377C60.9605 29.5352 60.3804 29.6143 59.7037 29.6143C58.7896 29.6143 58.1304 29.4121 57.7261 29.0078C57.3218 28.6035 57.1197 28.0762 57.1197 27.4258C56.6802 28.1553 56.1046 28.7046 55.3926 29.0737C54.6807 29.4341 53.9205 29.6143 53.1119 29.6143C52.0836 29.6143 51.2574 29.3462 50.6334 28.8101C50.0181 28.2651 49.7105 27.5093 49.7105 26.5425C49.7105 25.6021 50.0181 24.8242 50.6334 24.209C51.2486 23.5938 52.2022 23.0488 53.4942 22.5742C53.6348 22.5215 54.0919 22.3501 54.8653 22.0601C55.6387 21.7612 56.1968 21.458 56.5396 21.1504C56.8824 20.8428 57.0538 20.5044 57.0538 20.1353V18.0391ZM57.0538 21.2427C56.9395 21.436 56.7505 21.6382 56.4869 21.8491C56.232 22.0513 55.8629 22.3018 55.3795 22.6006C54.8082 22.9961 54.3599 23.4443 54.0347 23.9453C53.7095 24.4375 53.5469 25.0527 53.5469 25.791C53.5469 26.4941 53.7007 27.0215 54.0084 27.373C54.316 27.7158 54.7203 27.8872 55.2213 27.8872C55.9332 27.8872 56.544 27.5181 57.0538 26.7798V21.2427ZM69.1959 17.6831C69.5386 16.9185 70.0308 16.2988 70.6724 15.8242C71.3228 15.3408 72.0567 15.0991 72.8741 15.0991C73.419 15.0991 73.876 15.2178 74.2452 15.4551C74.6143 15.6924 74.8868 16 75.0626 16.3779C75.2383 16.7471 75.3262 17.147 75.3262 17.5776C75.3262 18.2456 75.1329 18.7905 74.7462 19.2124C74.3594 19.6343 73.8497 19.8452 73.2169 19.8452C72.6016 19.8452 72.1138 19.6914 71.7535 19.3838C71.4019 19.0674 71.2261 18.6455 71.2261 18.1182C71.2261 17.2568 71.6216 16.5537 72.4127 16.0088C72.2984 15.9824 72.1885 15.9692 72.0831 15.9692C71.96 15.9692 71.8194 15.9912 71.6612 16.0352C71.2042 16.1055 70.7867 16.3252 70.4088 16.6943C70.0308 17.0547 69.732 17.4897 69.5123 17.9995C69.3013 18.5093 69.1959 19.0059 69.1959 19.4893V26.6479C69.1959 27.4829 69.398 28.063 69.8023 28.3882C70.2066 28.7046 70.8526 28.8628 71.7403 28.8628V29.4297C69.4903 29.3594 68.0577 29.3242 67.4424 29.3242C66.8712 29.3242 65.5836 29.3594 63.5797 29.4297V28.8628C64.0103 28.8628 64.3487 28.8057 64.5948 28.6914C64.8497 28.5771 65.0298 28.3794 65.1353 28.0981C65.2496 27.8169 65.3067 27.4258 65.3067 26.9248V18.4082C65.3067 17.5732 65.1793 16.9712 64.9244 16.6021C64.6695 16.2241 64.2213 16.0352 63.5797 16.0352V15.4683C64.1509 15.521 64.709 15.5474 65.254 15.5474C66.8448 15.5474 68.1588 15.4243 69.1959 15.1782V17.6831ZM86.2291 25.9756C87.3101 25.9756 88.1846 26.2041 88.8526 26.6611C89.5294 27.1094 89.8677 27.8433 89.8677 28.8628C89.8677 29.7856 89.5777 30.6777 88.9976 31.5391C88.4175 32.4092 87.5386 33.1211 86.3609 33.6748C85.1832 34.2285 83.7462 34.5054 82.0499 34.5054C80.7315 34.5054 79.6241 34.3999 78.7276 34.189C77.8399 33.9868 77.1763 33.71 76.7369 33.3584C76.2974 33.0068 76.0777 32.6069 76.0777 32.1587C76.0777 31.6753 76.2579 31.3149 76.6182 31.0776C76.9874 30.8403 77.585 30.5898 78.4112 30.3262C79.2374 30.0625 79.8218 29.8076 80.1646 29.5615H79.5318C78.7847 29.5615 78.0948 29.3813 77.462 29.021C76.8292 28.6606 76.5128 28.0059 76.5128 27.0566C76.5128 26.5381 76.6182 26.0723 76.8292 25.6592C77.0489 25.2373 77.4048 24.8374 77.897 24.4595C78.398 24.0728 79.0704 23.6772 79.9141 23.2729C78.9913 22.9565 78.2706 22.4775 77.752 21.8359C77.2335 21.1855 76.9742 20.3682 76.9742 19.3838C76.9742 17.96 77.5015 16.8921 78.5562 16.1802C79.6197 15.4595 81.0259 15.0991 82.775 15.0991C83.4957 15.0991 84.1636 15.1606 84.7789 15.2837C84.7525 14.8267 84.7877 14.374 84.8843 13.9258C84.9722 13.1787 85.2271 12.5811 85.649 12.1328C86.0709 11.6758 86.6685 11.4473 87.442 11.4473C88.0132 11.4473 88.4835 11.6011 88.8526 11.9087C89.2305 12.2075 89.4195 12.603 89.4195 13.0952C89.4195 13.5522 89.2393 13.9302 88.879 14.229C88.5274 14.519 88.0836 14.6641 87.5474 14.6641C87.0025 14.6641 86.5762 14.5366 86.2686 14.2817C85.961 14.0269 85.7237 13.6489 85.5567 13.1479C85.3633 13.4731 85.2271 13.9346 85.148 14.5322C85.1392 14.6201 85.1348 14.752 85.1348 14.9277C85.1348 15.1211 85.1392 15.2661 85.148 15.3628C86.2203 15.6353 87.0596 16.1099 87.6661 16.7866C88.2725 17.4546 88.5757 18.3203 88.5757 19.3838C88.5757 20.3418 88.3253 21.1416 87.8243 21.7832C87.3321 22.4248 86.6509 22.9038 85.7808 23.2202C84.9107 23.5278 83.9088 23.6816 82.775 23.6816C81.9224 23.6816 81.1446 23.5938 80.4415 23.418C79.9229 23.7168 79.5362 23.9893 79.2813 24.2354C79.0352 24.4814 78.9122 24.7627 78.9122 25.0791C78.9122 25.6768 79.2725 25.9756 79.9932 25.9756H86.2291ZM82.775 15.5737C82.1861 15.5737 81.7379 15.8638 81.4302 16.4438C81.1226 17.0239 80.9688 18.0039 80.9688 19.3838C80.9688 20.7637 81.1226 21.7437 81.4302 22.3237C81.7379 22.9038 82.1861 23.1938 82.775 23.1938C83.3726 23.1938 83.8209 22.9038 84.1197 22.3237C84.4273 21.7437 84.5811 20.7637 84.5811 19.3838C84.5811 18.0039 84.4273 17.0239 84.1197 16.4438C83.8209 15.8638 83.3726 15.5737 82.775 15.5737ZM80.6788 29.5615C80.3799 29.8428 80.147 30.1899 79.98 30.603C79.8218 31.0161 79.7427 31.3896 79.7427 31.7236C79.7427 32.4707 80.024 33.042 80.5865 33.4375C81.1578 33.8418 81.8873 34.0439 82.775 34.0439C83.5045 34.0439 84.1812 33.9077 84.8052 33.6353C85.438 33.3716 85.939 32.9849 86.3082 32.4751C86.6861 31.9653 86.8751 31.3721 86.8751 30.6953C86.8751 30.3086 86.7608 30.0229 86.5323 29.8384C86.3038 29.6538 85.8951 29.5615 85.3062 29.5615H80.6788ZM95.3126 21.0845C95.2862 21.3481 95.273 21.77 95.273 22.3501C95.273 23.5454 95.44 24.5386 95.774 25.3296C96.108 26.1118 96.5386 26.6875 97.066 27.0566C97.6021 27.417 98.1734 27.5972 98.7798 27.5972C100.265 27.5972 101.456 26.8765 102.353 25.4351L102.827 25.5933C102.599 26.3315 102.243 27.0215 101.759 27.6631C101.285 28.2959 100.678 28.8145 99.94 29.2188C99.2105 29.6143 98.3755 29.812 97.4351 29.812C96.1959 29.812 95.106 29.5483 94.1656 29.021C93.2339 28.4937 92.5045 27.6938 91.9771 26.6216C91.4586 25.5405 91.1993 24.2002 91.1993 22.6006C91.1993 20.9658 91.4805 19.5903 92.043 18.4741C92.6055 17.3491 93.3834 16.5054 94.3765 15.9429C95.3697 15.3804 96.5167 15.0991 97.8174 15.0991C101.201 15.0991 102.893 17.0942 102.893 21.0845H95.3126ZM99.4918 20.5703C99.5181 19.1641 99.3731 17.9951 99.0567 17.0635C98.7491 16.1318 98.2789 15.666 97.6461 15.666C97.0045 15.666 96.4683 16.0659 96.0377 16.8657C95.6158 17.6567 95.3565 18.8916 95.2598 20.5703H99.4918ZM113.137 15.4946V16.0352H109.946V26.9248C109.946 27.4609 110.043 27.8433 110.236 28.0718C110.43 28.2915 110.729 28.4014 111.133 28.4014C111.898 28.4014 112.508 27.8608 112.965 26.7798L113.427 27.0303C112.75 28.8848 111.52 29.812 109.735 29.812C108.549 29.812 107.648 29.5044 107.033 28.8892C106.655 28.52 106.396 28.0542 106.255 27.4917C106.123 26.9204 106.057 26.1338 106.057 25.1318V16.0352H103.79V15.4946H106.057V11.9087C107.543 11.9087 108.839 11.6187 109.946 11.0386V15.4946H113.137Z" fill="#263238"/>
<rect x="0.62262" y="5.42969" width="26" height="26" rx="5" fill="#FFB6D3"/>
<circle cx="13.6226" cy="18.4297" r="5" fill="#FF5196"/>
<path d="M13.6226 12.8297V11.4297M13.6226 25.4297V24.0297M19.2226 18.4297H20.6226M6.62262 18.4297H8.02262M13.6226 13.3897C12.6258 13.3897 11.6514 13.6853 10.8225 14.2391C9.99372 14.7929 9.34773 15.58 8.96627 16.501C8.5848 17.4219 8.48499 18.4353 8.67946 19.4129C8.87393 20.3906 9.35394 21.2886 10.0588 21.9935C10.7637 22.6984 11.6617 23.1784 12.6394 23.3728C13.617 23.5673 14.6304 23.4675 15.5513 23.086C16.4723 22.7046 17.2594 22.0586 17.8132 21.2298C18.367 20.4009 18.6626 19.4265 18.6626 18.4297C18.6626 17.093 18.1316 15.8111 17.1864 14.8659C16.2413 13.9207 14.9593 13.3897 13.6226 13.3897Z" stroke="white" stroke-width="2" stroke-linecap="square" stroke-linejoin="round"/>
</svg>
