<svg width="59" height="60" viewBox="0 0 59 60" fill="none" xmlns="http://www.w3.org/2000/svg">
<rect x="0.665747" y="0.916968" width="57.5152" height="57.5152" rx="28.7576" stroke="white" stroke-opacity="0.25" stroke-width="1.17378"/>
<path d="M21.3241 28.6139C26.3655 26.4605 29.7271 25.0409 31.4092 24.355C36.2117 22.3966 37.2096 22.0564 37.86 22.045C38.0031 22.0427 38.323 22.0774 38.5302 22.2423C38.7051 22.3814 38.7532 22.5695 38.7763 22.7014C38.7993 22.8334 38.828 23.134 38.8052 23.3689C38.5449 26.0498 37.4188 32.5556 36.846 35.5583C36.6035 36.8288 36.1262 37.2548 35.6641 37.2965C34.6599 37.3871 33.8973 36.6458 32.9246 36.0207C31.4026 35.0425 30.5427 34.4336 29.0653 33.4791C27.358 32.376 28.4648 31.7697 29.4378 30.7789C29.6925 30.5196 34.1172 26.5738 34.2029 26.2158C34.2136 26.1711 34.2235 26.0042 34.1224 25.9161C34.0213 25.828 33.872 25.8581 33.7643 25.8821C33.6117 25.916 31.1802 27.4917 26.47 30.6089C25.7798 31.0736 25.1547 31.3 24.5946 31.2881C23.9771 31.275 22.7894 30.9458 21.9064 30.6644C20.8234 30.3193 19.9627 30.1368 20.0376 29.5506C20.0767 29.2453 20.5055 28.9331 21.3241 28.6139Z" fill="white"/>
</svg>
