<svg width="16" height="16" viewBox="0 0 16 16" fill="none" xmlns="http://www.w3.org/2000/svg">
<path d="M2 4.66602C2 4.13558 2.21071 3.62687 2.58579 3.2518C2.96086 2.87673 3.46957 2.66602 4 2.66602H12C12.5304 2.66602 13.0391 2.87673 13.4142 3.2518C13.7893 3.62687 14 4.13558 14 4.66602V11.3327C14 11.8631 13.7893 12.3718 13.4142 12.7469C13.0391 13.122 12.5304 13.3327 12 13.3327H4C3.46957 13.3327 2.96086 13.122 2.58579 12.7469C2.21071 12.3718 2 11.8631 2 11.3327V4.66602Z" stroke="#B9BEC7" stroke-linecap="round" stroke-linejoin="round"/>
<path d="M9.99935 5.33203H11.3327M9.99935 7.9987H11.3327M4.66602 10.6654H11.3327M4.66602 6.66536C4.66602 7.01899 4.80649 7.35812 5.05654 7.60817C5.30659 7.85822 5.64573 7.9987 5.99935 7.9987C6.35297 7.9987 6.69211 7.85822 6.94216 7.60817C7.19221 7.35812 7.33268 7.01899 7.33268 6.66536C7.33268 6.31174 7.19221 5.9726 6.94216 5.72256C6.69211 5.47251 6.35297 5.33203 5.99935 5.33203C5.64573 5.33203 5.30659 5.47251 5.05654 5.72256C4.80649 5.9726 4.66602 6.31174 4.66602 6.66536Z" stroke="#B9BEC7" stroke-width="2" stroke-linecap="round" stroke-linejoin="round"/>
</svg>
