<svg width="1031" height="497" viewBox="0 0 1031 497" fill="none" xmlns="http://www.w3.org/2000/svg">
<g opacity="0.15" clip-path="url(#clip0_138_11714)">
<path d="M41.3521 302.539L41.3521 483.121" stroke="#D83232" stroke-width="1.26085"/>
<rect x="36.5413" y="316.07" width="9.61277" height="78.7112" fill="#D83232" stroke="#D83232" stroke-width="1.26085"/>
<path d="M106.591 93.5781L106.591 270.291" stroke="#D83232" stroke-width="1.26085"/>
<rect x="101.782" y="118.718" width="9.61277" height="51.6239" fill="#D83232" stroke="#D83232" stroke-width="1.26085"/>
<path d="M139.211 57.4648L139.211 201.931" stroke="#D83232" stroke-width="1.26085"/>
<rect x="134.407" y="98.0757" width="9.61277" height="76.1315" fill="#D83232" stroke="#D83232" stroke-width="1.26085"/>
<path d="M155.524 145.172L155.524 259.97" stroke="#D83232" stroke-width="1.26085"/>
<rect x="150.715" y="170.31" width="9.61277" height="80.0011" fill="#D83232" stroke="#D83232" stroke-width="1.26085"/>
<path d="M171.834 250.945L171.834 368.324" stroke="#D83232" stroke-width="1.26085"/>
<rect x="167.026" y="254.15" width="9.61277" height="63.2327" fill="#D83232" stroke="#D83232" stroke-width="1.26085"/>
<path d="M204.453 165.807L204.453 203.213" stroke="#D83232" stroke-width="1.26085"/>
<rect x="199.649" y="188.371" width="9.61277" height="2.60877" fill="#D83232" stroke="#D83232" stroke-width="1.26085"/>
<path d="M220.763 176.135L220.763 222.57" stroke="#D83232" stroke-width="1.26085"/>
<rect x="215.957" y="183.214" width="9.61277" height="29.6961" fill="#D83232" stroke="#D83232" stroke-width="1.26085"/>
<path d="M253.387 299.961L253.387 392.832" stroke="#D83232" stroke-width="1.26085"/>
<rect x="248.577" y="301.877" width="9.61277" height="15.5075" fill="#D83232" stroke="#D83232" stroke-width="1.26085"/>
<path d="M287.367 262.549L287.367 306.404" stroke="#D83232" stroke-width="1.26085"/>
<rect x="282.558" y="281.24" width="9.61277" height="9.05812" fill="#D83232" stroke="#D83232" stroke-width="1.26085"/>
<path d="M303.674 283.191L303.674 321.888" stroke="#D83232" stroke-width="1.26085"/>
<rect x="298.872" y="285.109" width="9.61277" height="12.9277" fill="#D83232" stroke="#D83232" stroke-width="1.26085"/>
<path d="M385.228 125.826L385.228 199.349" stroke="#D83232" stroke-width="1.26085"/>
<rect x="380.423" y="131.615" width="9.61277" height="59.3631" fill="#D83232" stroke="#D83232" stroke-width="1.26085"/>
<path d="M401.539 178.711L401.539 212.248" stroke="#D83232" stroke-width="1.26085"/>
<rect x="396.732" y="185.789" width="9.61277" height="10.348" fill="#D83232" stroke="#D83232" stroke-width="1.26085"/>
<path d="M468.14 25.2168L468.14 85.8408" stroke="#D83232" stroke-width="1.26085"/>
<rect x="463.335" y="47.773" width="9.61277" height="34.8556" fill="#D83232" stroke="#D83232" stroke-width="1.26085"/>
<path d="M549.692 41.9863L549.692 229.018" stroke="#D83232" stroke-width="1.26085"/>
<rect x="544.887" y="46.4898" width="9.61277" height="179.321" fill="#D83232" stroke="#D83232" stroke-width="1.26085"/>
<path d="M484.452 60.0391L484.452 120.663" stroke="#D83232" stroke-width="1.26085"/>
<rect x="479.644" y="73.5738" width="9.61277" height="9.05812" fill="#D83232" stroke="#D83232" stroke-width="1.26085"/>
<path d="M599.984 88.4219L599.984 138.727" stroke="#D83232" stroke-width="1.26085"/>
<rect x="595.175" y="94.2085" width="9.61277" height="9.05812" fill="#D83232" stroke="#D83232" stroke-width="1.26085"/>
<path d="M616.293 83.2637L616.293 190.323" stroke="#D83232" stroke-width="1.26085"/>
<rect x="611.49" y="101.955" width="9.61277" height="85.1606" fill="#D83232" stroke="#D83232" stroke-width="1.26085"/>
<path d="M631.245 170.971L631.245 252.233" stroke="#D83232" stroke-width="1.26085"/>
<rect x="626.436" y="188.371" width="9.61277" height="60.653" fill="#D83232" stroke="#D83232" stroke-width="1.26085"/>
<path d="M647.555 244.496L647.555 342.526" stroke="#D83232" stroke-width="1.26085"/>
<rect x="642.749" y="247.709" width="9.61277" height="73.5517" fill="#D83232" stroke="#D83232" stroke-width="1.26085"/>
<path d="M681.535 263.848L681.535 352.849" stroke="#D83232" stroke-width="1.26085"/>
<rect x="676.727" y="308.332" width="9.61277" height="41.3049" fill="#D83232" stroke="#D83232" stroke-width="1.26085"/>
<path d="M697.846 341.234L697.846 430.236" stroke="#D83232" stroke-width="1.26085"/>
<rect x="693.04" y="344.447" width="9.61277" height="63.2327" fill="#D83232" stroke="#D83232" stroke-width="1.26085"/>
<path d="M730.469 378.639L730.469 459.901" stroke="#D83232" stroke-width="1.26085"/>
<rect x="725.658" y="385.724" width="9.61277" height="19.3771" fill="#D83232" stroke="#D83232" stroke-width="1.26085"/>
<path d="M746.777 365.742L746.777 432.816" stroke="#D83232" stroke-width="1.26085"/>
<rect x="741.97" y="402.494" width="9.61277" height="9.05812" fill="#D83232" stroke="#D83232" stroke-width="1.26085"/>
<path d="M779.396 343.816L779.396 443.137" stroke="#D83232" stroke-width="1.26085"/>
<rect x="774.594" y="365.082" width="9.61277" height="67.1024" fill="#D83232" stroke="#D83232" stroke-width="1.26085"/>
<path d="M813.378 359.295L813.378 414.759" stroke="#D83232" stroke-width="1.26085"/>
<rect x="808.569" y="371.537" width="9.61277" height="29.6961" fill="#D83232" stroke="#D83232" stroke-width="1.26085"/>
<path d="M828.328 392.832L828.328 467.645" stroke="#D83232" stroke-width="1.26085"/>
<rect x="823.522" y="396.046" width="9.61277" height="42.5948" fill="#D83232" stroke="#D83232" stroke-width="1.26085"/>
<path d="M844.639 419.916L844.639 476.67" stroke="#D83232" stroke-width="1.26085"/>
<rect x="839.832" y="439.898" width="9.61277" height="9.05812" fill="#D83232" stroke="#D83232" stroke-width="1.26085"/>
<path d="M878.619 365.742L878.619 430.236" stroke="#D83232" stroke-width="1.26085"/>
<rect x="873.813" y="385.724" width="9.61277" height="19.3771" fill="#D83232" stroke="#D83232" stroke-width="1.26085"/>
<path d="M943.861 182.584L943.861 306.412" stroke="#D83232" stroke-width="1.26085"/>
<rect x="939.054" y="199.984" width="9.61277" height="15.5075" fill="#D83232" stroke="#D83232" stroke-width="1.26085"/>
<path d="M976.481 156.783L976.481 271.582" stroke="#D83232" stroke-width="1.26085"/>
<rect x="971.677" y="216.753" width="9.61277" height="46.4644" fill="#D83232" stroke="#D83232" stroke-width="1.26085"/>
<path d="M238.433 207.084L238.433 307.694" stroke="#D83232" stroke-width="1.26085"/>
<rect x="233.627" y="209.013" width="9.61277" height="96.7694" fill="#D83232" stroke="#D83232" stroke-width="1.26085"/>
<path d="M7.36719 325.754C7.36719 387.712 7.36719 422.45 7.36719 484.408" stroke="#419E6A" stroke-width="1.26085"/>
<rect x="2.55987" y="419.255" width="9.61277" height="63.2327" fill="#419E6A" stroke="#419E6A" stroke-width="1.26085"/>
<path d="M23.677 297.379C23.677 360.345 23.677 395.647 23.677 458.613" stroke="#419E6A" stroke-width="1.26085"/>
<rect x="18.8714" y="316.07" width="9.61277" height="101.929" fill="#419E6A" stroke="#419E6A" stroke-width="1.26085"/>
<path d="M56.2998 281.9C56.2998 340.333 56.2998 373.093 56.2998 431.526" stroke="#419E6A" stroke-width="1.26085"/>
<rect x="51.4908" y="316.07" width="9.61277" height="89.0302" fill="#419E6A" stroke="#419E6A" stroke-width="1.26085"/>
<path d="M72.6096 217.406C72.6096 275.839 72.6096 308.599 72.6096 367.031" stroke="#419E6A" stroke-width="1.26085"/>
<rect x="67.8023" y="220.619" width="9.61277" height="96.7694" fill="#419E6A" stroke="#419E6A" stroke-width="1.26085"/>
<path d="M90.2778 74.2285C90.2778 154.825 90.2778 200.012 90.2778 280.608" stroke="#419E6A" stroke-width="1.26085"/>
<rect x="85.4705" y="116.136" width="9.61277" height="108.378" fill="#419E6A" stroke="#419E6A" stroke-width="1.26085"/>
<path d="M122.897 54.8828C122.897 113.315 122.897 146.076 122.897 204.508" stroke="#419E6A" stroke-width="1.26085"/>
<rect x="118.094" y="94.2085" width="9.61277" height="70.972" fill="#419E6A" stroke="#419E6A" stroke-width="1.26085"/>
<path d="M188.142 185.158C188.142 238.049 188.142 267.703 188.142 320.595" stroke="#419E6A" stroke-width="1.26085"/>
<rect x="183.336" y="196.109" width="9.61277" height="121.277" fill="#419E6A" stroke="#419E6A" stroke-width="1.26085"/>
<path d="M269.692 241.914C269.692 272.138 269.692 289.083 269.692 319.306" stroke="#419E6A" stroke-width="1.26085"/>
<rect x="264.888" y="286.398" width="9.61277" height="30.986" fill="#419E6A" stroke="#419E6A" stroke-width="1.26085"/>
<path d="M319.984 269.006C319.984 297.718 319.984 313.816 319.984 342.529" stroke="#419E6A" stroke-width="1.26085"/>
<rect x="315.178" y="270.919" width="9.61277" height="29.6961" fill="#419E6A" stroke="#419E6A" stroke-width="1.26085"/>
<path d="M336.292 190.32C336.292 228.1 336.292 249.281 336.292 287.061" stroke="#419E6A" stroke-width="1.26085"/>
<rect x="331.486" y="196.109" width="9.61277" height="83.8707" fill="#419E6A" stroke="#419E6A" stroke-width="1.26085"/>
<path d="M352.606 152.916C352.606 174.576 352.606 186.72 352.606 208.381" stroke="#419E6A" stroke-width="1.26085"/>
<rect x="347.797" y="154.832" width="9.61277" height="36.1454" fill="#419E6A" stroke="#419E6A" stroke-width="1.26085"/>
<path d="M368.915 110.348C368.915 138.053 368.915 153.586 368.915 181.291" stroke="#419E6A" stroke-width="1.26085"/>
<rect x="364.109" y="131.615" width="9.61277" height="20.667" fill="#419E6A" stroke="#419E6A" stroke-width="1.26085"/>
<path d="M417.849 125.826C417.849 151.516 417.849 165.92 417.849 191.61" stroke="#419E6A" stroke-width="1.26085"/>
<rect x="413.038" y="145.808" width="9.61277" height="41.3049" fill="#419E6A" stroke="#419E6A" stroke-width="1.26085"/>
<path d="M435.516 80.6816C435.516 110.401 435.516 127.064 435.516 156.784" stroke="#419E6A" stroke-width="1.26085"/>
<rect x="430.71" y="107.107" width="9.61277" height="42.5948" fill="#419E6A" stroke="#419E6A" stroke-width="1.26085"/>
<path d="M499.397 49.7246C499.397 76.4221 499.397 91.3903 499.397 118.088" stroke="#419E6A" stroke-width="1.26085"/>
<rect x="494.59" y="78.73" width="9.61277" height="1.31889" fill="#419E6A" stroke="#419E6A" stroke-width="1.26085"/>
<path d="M451.825 41.9785C451.825 78.2468 451.825 98.581 451.825 134.849" stroke="#419E6A" stroke-width="1.26085"/>
<rect x="447.02" y="43.9078" width="9.61277" height="61.9429" fill="#419E6A" stroke="#419E6A" stroke-width="1.26085"/>
<path d="M515.709 39.4043C515.709 60.5608 515.709 72.4224 515.709 93.5789" stroke="#419E6A" stroke-width="1.26085"/>
<rect x="510.903" y="63.2515" width="9.61277" height="16.7974" fill="#419E6A" stroke="#419E6A" stroke-width="1.26085"/>
<path d="M582.311 67.7852C582.311 87.4305 582.311 98.4448 582.311 118.09" stroke="#419E6A" stroke-width="1.26085"/>
<rect x="577.5" y="85.1851" width="9.61277" height="15.5075" fill="#419E6A" stroke="#419E6A" stroke-width="1.26085"/>
<path d="M663.861 285.768C663.861 308.435 663.861 321.144 663.861 343.812" stroke="#419E6A" stroke-width="1.26085"/>
<rect x="659.055" y="310.914" width="9.61277" height="12.9277" fill="#419E6A" stroke="#419E6A" stroke-width="1.26085"/>
<path d="M714.152 348.979C714.152 375.676 714.152 390.644 714.152 417.342" stroke="#419E6A" stroke-width="1.26085"/>
<rect x="709.347" y="388.298" width="9.61277" height="23.2467" fill="#419E6A" stroke="#419E6A" stroke-width="1.26085"/>
<path d="M763.083 336.074C763.083 368.816 763.083 387.174 763.083 419.916" stroke="#419E6A" stroke-width="1.26085"/>
<rect x="758.279" y="368.953" width="9.61277" height="49.0442" fill="#419E6A" stroke="#419E6A" stroke-width="1.26085"/>
<path d="M797.063 361.875C797.063 388.069 797.063 402.755 797.063 428.948" stroke="#419E6A" stroke-width="1.26085"/>
<rect x="792.256" y="377.984" width="9.61277" height="46.4644" fill="#419E6A" stroke="#419E6A" stroke-width="1.26085"/>
<path d="M860.947 358.008C860.947 395.284 860.947 416.183 860.947 453.458" stroke="#419E6A" stroke-width="1.26085"/>
<rect x="856.141" y="385.722" width="9.61277" height="52.9138" fill="#419E6A" stroke="#419E6A" stroke-width="1.26085"/>
<path d="M894.929 323.18C894.929 358.441 894.929 378.21 894.929 413.471" stroke="#419E6A" stroke-width="1.26085"/>
<rect x="890.123" y="354.765" width="9.61277" height="40.015" fill="#419E6A" stroke="#419E6A" stroke-width="1.26085"/>
<path d="M926.191 190.32C926.191 226.085 926.191 246.137 926.191 281.901" stroke="#419E6A" stroke-width="1.26085"/>
<rect x="921.384" y="196.115" width="9.61277" height="83.8707" fill="#419E6A" stroke="#419E6A" stroke-width="1.26085"/>
<path d="M992.792 208.381C992.792 238.101 992.792 254.763 992.792 284.483" stroke="#419E6A" stroke-width="1.26085"/>
<rect x="987.987" y="216.752" width="9.61277" height="38.7252" fill="#419E6A" stroke="#419E6A" stroke-width="1.26085"/>
<path d="M1010.46 182.582C1010.46 206.257 1010.46 219.531 1010.46 243.206" stroke="#419E6A" stroke-width="1.26085"/>
<rect x="1005.66" y="207.72" width="9.61277" height="14.2176" fill="#419E6A" stroke="#419E6A" stroke-width="1.26085"/>
<path d="M960.171 110.348C960.171 166.261 960.171 197.61 960.171 253.523" stroke="#419E6A" stroke-width="1.26085"/>
<rect x="955.365" y="216.752" width="9.61277" height="1.31889" fill="#419E6A" stroke="#419E6A" stroke-width="1.26085"/>
<path d="M909.881 275.453C909.881 309.707 909.881 328.911 909.881 363.164" stroke="#419E6A" stroke-width="1.26085"/>
<rect x="905.076" y="277.375" width="9.61277" height="83.8707" fill="#419E6A" stroke="#419E6A" stroke-width="1.26085"/>
<path d="M565.999 98.7422C565.999 148.611 565.999 176.571 565.999 226.439" stroke="#419E6A" stroke-width="1.26085"/>
<rect x="561.191" y="110.978" width="9.61277" height="110.958" fill="#419E6A" stroke="#419E6A" stroke-width="1.26085"/>
<path d="M532.019 40.6953C532.019 50.7698 532.019 56.4182 532.019 66.4927" stroke="#419E6A" stroke-width="1.26085"/>
<rect x="527.212" y="43.9078" width="9.61277" height="7.76825" fill="#419E6A" stroke="#419E6A" stroke-width="1.26085"/>
</g>
<defs>
<clipPath id="clip0_138_11714">
<rect width="1078" height="496.972" fill="white" transform="translate(-47)"/>
</clipPath>
</defs>
</svg>
