<svg width="1047" height="392" viewBox="0 0 1047 392" fill="none" xmlns="http://www.w3.org/2000/svg">
<g opacity="0.3" clip-path="url(#clip0_182_5319)">
<path d="M12.2622 110.746L12.2622 318.021" stroke="#D83232" stroke-width="0.710917"/>
<rect x="9.55321" y="155.469" width="5.42006" height="157.836" fill="#D83232" stroke="#D83232" stroke-width="0.710917"/>
<path d="M20.6929 278.75L20.6929 368.206" stroke="#D83232" stroke-width="0.710917"/>
<rect x="17.9824" y="314.014" width="5.42006" height="36.3804" fill="#D83232" stroke="#D83232" stroke-width="0.710917"/>
<path d="M49.8159 246.021L49.8159 347.841" stroke="#D83232" stroke-width="0.710917"/>
<rect x="47.1035" y="253.65" width="5.42006" height="44.3805" fill="#D83232" stroke="#D83232" stroke-width="0.710917"/>
<path d="M86.6006 128.199L86.6006 227.837" stroke="#D83232" stroke-width="0.710917"/>
<rect x="83.8891" y="142.377" width="5.42006" height="29.1076" fill="#D83232" stroke="#D83232" stroke-width="0.710917"/>
<path d="M104.993 107.838L104.993 189.293" stroke="#D83232" stroke-width="0.710917"/>
<rect x="102.284" y="130.736" width="5.42006" height="42.9259" fill="#D83232" stroke="#D83232" stroke-width="0.710917"/>
<path d="M114.191 157.291L114.191 222.019" stroke="#D83232" stroke-width="0.710917"/>
<rect x="111.479" y="171.465" width="5.42006" height="45.1078" fill="#D83232" stroke="#D83232" stroke-width="0.710917"/>
<path d="M123.387 216.932L123.387 283.114" stroke="#D83232" stroke-width="0.710917"/>
<rect x="120.676" y="218.738" width="5.42006" height="35.6531" fill="#D83232" stroke="#D83232" stroke-width="0.710917"/>
<path d="M141.779 168.928L141.779 190.019" stroke="#D83232" stroke-width="0.710917"/>
<rect x="139.071" y="181.648" width="5.42006" height="1.47093" fill="#D83232" stroke="#D83232" stroke-width="0.710917"/>
<path d="M150.976 174.748L150.976 200.93" stroke="#D83232" stroke-width="0.710917"/>
<rect x="148.265" y="178.742" width="5.42006" height="16.7438" fill="#D83232" stroke="#D83232" stroke-width="0.710917"/>
<path d="M169.37 244.568L169.37 296.933" stroke="#D83232" stroke-width="0.710917"/>
<rect x="166.658" y="245.648" width="5.42006" height="8.74374" fill="#D83232" stroke="#D83232" stroke-width="0.710917"/>
<path d="M188.529 223.473L188.529 248.2" stroke="#D83232" stroke-width="0.710917"/>
<rect x="185.818" y="234.012" width="5.42006" height="5.10733" fill="#D83232" stroke="#D83232" stroke-width="0.710917"/>
<path d="M197.724 235.111L197.724 256.93" stroke="#D83232" stroke-width="0.710917"/>
<rect x="195.016" y="236.195" width="5.42006" height="7.28917" fill="#D83232" stroke="#D83232" stroke-width="0.710917"/>
<path d="M243.707 146.385L243.707 187.84" stroke="#D83232" stroke-width="0.710917"/>
<rect x="240.998" y="149.646" width="5.42006" height="33.4713" fill="#D83232" stroke="#D83232" stroke-width="0.710917"/>
<path d="M252.904 176.203L252.904 195.112" stroke="#D83232" stroke-width="0.710917"/>
<rect x="250.194" y="180.195" width="5.42006" height="5.83461" fill="#D83232" stroke="#D83232" stroke-width="0.710917"/>
<path d="M290.456 89.6562L290.456 123.838" stroke="#D83232" stroke-width="0.710917"/>
<rect x="287.747" y="102.373" width="5.42006" height="19.653" fill="#D83232" stroke="#D83232" stroke-width="0.710917"/>
<path d="M336.439 99.1113L336.439 204.567" stroke="#D83232" stroke-width="0.710917"/>
<rect x="333.729" y="101.65" width="5.42006" height="101.108" fill="#D83232" stroke="#D83232" stroke-width="0.710917"/>
<path d="M299.653 109.291L299.653 143.473" stroke="#D83232" stroke-width="0.710917"/>
<rect x="296.943" y="116.922" width="5.42006" height="5.10733" fill="#D83232" stroke="#D83232" stroke-width="0.710917"/>
<path d="M364.795 125.293L364.795 153.657" stroke="#D83232" stroke-width="0.710917"/>
<rect x="362.084" y="128.555" width="5.42006" height="5.10733" fill="#D83232" stroke="#D83232" stroke-width="0.710917"/>
<path d="M373.99 122.383L373.99 182.747" stroke="#D83232" stroke-width="0.710917"/>
<rect x="371.283" y="132.926" width="5.42006" height="48.0169" fill="#D83232" stroke="#D83232" stroke-width="0.710917"/>
<path d="M382.422 171.84L382.422 217.659" stroke="#D83232" stroke-width="0.710917"/>
<rect x="379.709" y="181.648" width="5.42006" height="34.1986" fill="#D83232" stroke="#D83232" stroke-width="0.710917"/>
<path d="M391.617 213.295L391.617 268.568" stroke="#D83232" stroke-width="0.710917"/>
<rect x="388.907" y="215.105" width="5.42006" height="41.4714" fill="#D83232" stroke="#D83232" stroke-width="0.710917"/>
<path d="M410.775 224.205L410.775 274.387" stroke="#D83232" stroke-width="0.710917"/>
<rect x="408.066" y="249.287" width="5.42006" height="23.2894" fill="#D83232" stroke="#D83232" stroke-width="0.710917"/>
<path d="M419.974 267.84L419.974 318.022" stroke="#D83232" stroke-width="0.710917"/>
<rect x="417.264" y="269.652" width="5.42006" height="35.6531" fill="#D83232" stroke="#D83232" stroke-width="0.710917"/>
<path d="M438.367 288.93L438.367 334.748" stroke="#D83232" stroke-width="0.710917"/>
<rect x="435.655" y="292.924" width="5.42006" height="10.9256" fill="#D83232" stroke="#D83232" stroke-width="0.710917"/>
<path d="M447.562 281.656L447.563 319.475" stroke="#D83232" stroke-width="0.710917"/>
<rect x="444.853" y="302.381" width="5.42006" height="5.10733" fill="#D83232" stroke="#D83232" stroke-width="0.710917"/>
<path d="M465.955 269.297L465.955 325.298" stroke="#D83232" stroke-width="0.710917"/>
<rect x="463.247" y="281.285" width="5.42006" height="37.835" fill="#D83232" stroke="#D83232" stroke-width="0.710917"/>
<path d="M485.116 278.023L485.116 309.297" stroke="#D83232" stroke-width="0.710917"/>
<rect x="482.404" y="284.924" width="5.42006" height="16.7438" fill="#D83232" stroke="#D83232" stroke-width="0.710917"/>
<path d="M493.544 296.934L493.544 339.116" stroke="#D83232" stroke-width="0.710917"/>
<rect x="490.835" y="298.746" width="5.42006" height="24.0166" fill="#D83232" stroke="#D83232" stroke-width="0.710917"/>
<path d="M502.741 312.205L502.741 344.205" stroke="#D83232" stroke-width="0.710917"/>
<rect x="500.031" y="323.471" width="5.42006" height="5.10733" fill="#D83232" stroke="#D83232" stroke-width="0.710917"/>
<path d="M521.9 281.656L521.9 318.02" stroke="#D83232" stroke-width="0.710917"/>
<rect x="519.19" y="292.924" width="5.42006" height="10.9256" fill="#D83232" stroke="#D83232" stroke-width="0.710917"/>
<path d="M160.938 192.199L160.938 248.927" stroke="#D83232" stroke-width="0.710917"/>
<rect x="158.229" y="193.287" width="5.42006" height="54.5624" fill="#D83232" stroke="#D83232" stroke-width="0.710917"/>
<path d="M30.6548 259.107C30.6548 294.042 30.6548 313.628 30.6548 348.563" stroke="#419E6A" stroke-width="0.710917"/>
<rect x="27.9443" y="311.828" width="5.42006" height="35.6531" fill="#419E6A" stroke="#419E6A" stroke-width="0.710917"/>
<path d="M39.8511 243.109C39.8511 278.612 39.8511 298.517 39.8511 334.02" stroke="#419E6A" stroke-width="0.710917"/>
<rect x="37.1416" y="253.65" width="5.42006" height="57.4716" fill="#419E6A" stroke="#419E6A" stroke-width="0.710917"/>
<path d="M58.2451 234.385C58.2451 267.331 58.2451 285.803 58.2451 318.749" stroke="#419E6A" stroke-width="0.710917"/>
<rect x="55.5332" y="253.65" width="5.42006" height="50.1988" fill="#419E6A" stroke="#419E6A" stroke-width="0.710917"/>
<path d="M67.4414 198.02C67.4414 230.966 67.4414 249.438 67.4414 282.384" stroke="#419E6A" stroke-width="0.710917"/>
<rect x="64.7309" y="199.83" width="5.42006" height="54.5624" fill="#419E6A" stroke="#419E6A" stroke-width="0.710917"/>
<path d="M77.4033 117.289C77.4033 162.732 77.4033 188.211 77.4033 233.654" stroke="#419E6A" stroke-width="0.710917"/>
<rect x="74.6929" y="140.92" width="5.42006" height="61.108" fill="#419E6A" stroke="#419E6A" stroke-width="0.710917"/>
<path d="M95.7959 106.381C95.7959 139.327 95.7959 157.799 95.7959 190.745" stroke="#419E6A" stroke-width="0.710917"/>
<rect x="93.0869" y="128.555" width="5.42006" height="40.0168" fill="#419E6A" stroke="#419E6A" stroke-width="0.710917"/>
<path d="M132.583 179.838C132.583 209.66 132.583 226.38 132.583 256.202" stroke="#419E6A" stroke-width="0.710917"/>
<rect x="129.873" y="186.01" width="5.42006" height="68.3808" fill="#419E6A" stroke="#419E6A" stroke-width="0.710917"/>
<path d="M178.564 211.838C178.564 228.879 178.564 238.433 178.564 255.475" stroke="#419E6A" stroke-width="0.710917"/>
<rect x="175.856" y="236.92" width="5.42006" height="17.4711" fill="#419E6A" stroke="#419E6A" stroke-width="0.710917"/>
<path d="M206.92 227.111C206.92 243.301 206.92 252.377 206.92 268.566" stroke="#419E6A" stroke-width="0.710917"/>
<rect x="204.211" y="228.191" width="5.42006" height="16.7438" fill="#419E6A" stroke="#419E6A" stroke-width="0.710917"/>
<path d="M216.116 182.746C216.116 204.048 216.116 215.991 216.116 237.292" stroke="#419E6A" stroke-width="0.710917"/>
<rect x="213.406" y="186.01" width="5.42006" height="47.2896" fill="#419E6A" stroke="#419E6A" stroke-width="0.710917"/>
<path d="M225.314 161.658C225.314 173.871 225.314 180.718 225.314 192.931" stroke="#419E6A" stroke-width="0.710917"/>
<rect x="222.604" y="162.736" width="5.42006" height="20.3802" fill="#419E6A" stroke="#419E6A" stroke-width="0.710917"/>
<path d="M234.51 137.656C234.51 153.277 234.51 162.036 234.51 177.657" stroke="#419E6A" stroke-width="0.710917"/>
<rect x="231.8" y="149.645" width="5.42006" height="11.6529" fill="#419E6A" stroke="#419E6A" stroke-width="0.710917"/>
<path d="M262.101 146.383C262.101 160.868 262.101 168.989 262.101 183.474" stroke="#419E6A" stroke-width="0.710917"/>
<rect x="259.388" y="157.648" width="5.42006" height="23.2894" fill="#419E6A" stroke="#419E6A" stroke-width="0.710917"/>
<path d="M272.062 120.928C272.063 137.685 272.063 147.08 272.063 163.837" stroke="#419E6A" stroke-width="0.710917"/>
<rect x="269.353" y="135.828" width="5.42006" height="24.0166" fill="#419E6A" stroke="#419E6A" stroke-width="0.710917"/>
<path d="M308.081 103.475C308.081 118.528 308.081 126.967 308.081 142.021" stroke="#419E6A" stroke-width="0.710917"/>
<rect x="305.371" y="119.828" width="5.42006" height="0.743645" fill="#419E6A" stroke="#419E6A" stroke-width="0.710917"/>
<path d="M281.258 99.1055C281.258 119.555 281.258 131.02 281.258 151.47" stroke="#419E6A" stroke-width="0.710917"/>
<rect x="278.549" y="100.193" width="5.42006" height="34.9258" fill="#419E6A" stroke="#419E6A" stroke-width="0.710917"/>
<path d="M317.278 97.6543C317.278 109.583 317.278 116.271 317.278 128.2" stroke="#419E6A" stroke-width="0.710917"/>
<rect x="314.568" y="111.1" width="5.42006" height="9.47102" fill="#419E6A" stroke="#419E6A" stroke-width="0.710917"/>
<path d="M354.831 113.656C354.831 124.733 354.831 130.943 354.831 142.02" stroke="#419E6A" stroke-width="0.710917"/>
<rect x="352.119" y="123.467" width="5.42006" height="8.74374" fill="#419E6A" stroke="#419E6A" stroke-width="0.710917"/>
<path d="M400.812 236.564C400.813 249.345 400.813 256.511 400.813 269.292" stroke="#419E6A" stroke-width="0.710917"/>
<rect x="398.103" y="250.742" width="5.42006" height="7.28917" fill="#419E6A" stroke="#419E6A" stroke-width="0.710917"/>
<path d="M429.169 272.203C429.169 287.256 429.169 295.696 429.169 310.749" stroke="#419E6A" stroke-width="0.710917"/>
<rect x="426.458" y="294.375" width="5.42006" height="13.1074" fill="#419E6A" stroke="#419E6A" stroke-width="0.710917"/>
<path d="M456.758 264.928C456.758 283.389 456.758 293.74 456.758 312.201" stroke="#419E6A" stroke-width="0.710917"/>
<rect x="454.049" y="283.465" width="5.42006" height="27.653" fill="#419E6A" stroke="#419E6A" stroke-width="0.710917"/>
<path d="M475.916 279.475C475.916 294.244 475.916 302.524 475.916 317.293" stroke="#419E6A" stroke-width="0.710917"/>
<rect x="473.207" y="288.559" width="5.42006" height="26.1985" fill="#419E6A" stroke="#419E6A" stroke-width="0.710917"/>
<path d="M511.938 277.295C511.937 298.312 511.937 310.096 511.937 331.114" stroke="#419E6A" stroke-width="0.710917"/>
<rect x="509.228" y="292.922" width="5.42006" height="29.8349" fill="#419E6A" stroke="#419E6A" stroke-width="0.710917"/>
<path d="M345.634 131.111C345.634 159.229 345.634 174.994 345.634 203.112" stroke="#419E6A" stroke-width="0.710917"/>
<rect x="342.923" y="138.012" width="5.42006" height="62.5625" fill="#419E6A" stroke="#419E6A" stroke-width="0.710917"/>
<path d="M326.475 98.3828C326.475 104.063 326.475 107.248 326.475 112.928" stroke="#419E6A" stroke-width="0.710917"/>
<rect x="323.765" y="100.193" width="5.42006" height="4.38005" fill="#419E6A" stroke="#419E6A" stroke-width="0.710917"/>
<path d="M3.06445 126.748C3.06445 158.274 3.06446 175.95 3.06446 207.476" stroke="#419E6A" stroke-width="0.710917"/>
<rect x="0.35497" y="163.465" width="5.42006" height="37.1077" fill="#419E6A" stroke="#419E6A" stroke-width="0.710917"/>
</g>
<g opacity="0.3" clip-path="url(#clip1_182_5319)">
<path d="M533.323 35.7598L533.323 243.035" stroke="#D83232" stroke-width="0.710917"/>
<rect x="530.614" y="80.4824" width="5.42006" height="157.836" fill="#D83232" stroke="#D83232" stroke-width="0.710917"/>
<path d="M541.754 203.764L541.754 293.219" stroke="#D83232" stroke-width="0.710917"/>
<rect x="539.044" y="239.027" width="5.42006" height="36.3804" fill="#D83232" stroke="#D83232" stroke-width="0.710917"/>
<path d="M570.877 171.035L570.877 272.855" stroke="#D83232" stroke-width="0.710917"/>
<rect x="568.165" y="178.664" width="5.42006" height="44.3805" fill="#D83232" stroke="#D83232" stroke-width="0.710917"/>
<path d="M607.662 53.2129L607.662 152.85" stroke="#D83232" stroke-width="0.710917"/>
<rect x="604.95" y="67.3906" width="5.42006" height="29.1076" fill="#D83232" stroke="#D83232" stroke-width="0.710917"/>
<path d="M626.054 32.8516L626.054 114.307" stroke="#D83232" stroke-width="0.710917"/>
<rect x="623.345" y="55.75" width="5.42006" height="42.9259" fill="#D83232" stroke="#D83232" stroke-width="0.710917"/>
<path d="M635.252 82.3047L635.252 147.033" stroke="#D83232" stroke-width="0.710917"/>
<rect x="632.54" y="96.4785" width="5.42006" height="45.1078" fill="#D83232" stroke="#D83232" stroke-width="0.710917"/>
<path d="M644.448 141.945L644.448 208.128" stroke="#D83232" stroke-width="0.710917"/>
<rect x="641.737" y="143.752" width="5.42006" height="35.6531" fill="#D83232" stroke="#D83232" stroke-width="0.710917"/>
<path d="M662.84 93.9414L662.84 115.033" stroke="#D83232" stroke-width="0.710917"/>
<rect x="660.132" y="106.662" width="5.42006" height="1.47093" fill="#D83232" stroke="#D83232" stroke-width="0.710917"/>
<path d="M672.037 99.7617L672.037 125.944" stroke="#D83232" stroke-width="0.710917"/>
<rect x="669.327" y="103.756" width="5.42006" height="16.7438" fill="#D83232" stroke="#D83232" stroke-width="0.710917"/>
<path d="M690.432 169.582L690.432 221.946" stroke="#D83232" stroke-width="0.710917"/>
<rect x="687.719" y="170.662" width="5.42006" height="8.74374" fill="#D83232" stroke="#D83232" stroke-width="0.710917"/>
<path d="M709.591 148.486L709.591 173.214" stroke="#D83232" stroke-width="0.710917"/>
<rect x="706.879" y="159.025" width="5.42006" height="5.10733" fill="#D83232" stroke="#D83232" stroke-width="0.710917"/>
<path d="M718.784 160.125L718.784 181.943" stroke="#D83232" stroke-width="0.710917"/>
<rect x="716.076" y="161.209" width="5.42006" height="7.28917" fill="#D83232" stroke="#D83232" stroke-width="0.710917"/>
<path d="M764.769 71.3984L764.769 112.853" stroke="#D83232" stroke-width="0.710917"/>
<rect x="762.059" y="74.6601" width="5.42006" height="33.4713" fill="#D83232" stroke="#D83232" stroke-width="0.710917"/>
<path d="M773.965 101.217L773.965 120.126" stroke="#D83232" stroke-width="0.710917"/>
<rect x="771.254" y="105.209" width="5.42006" height="5.83461" fill="#D83232" stroke="#D83232" stroke-width="0.710917"/>
<path d="M811.517 14.6699L811.517 48.8521" stroke="#D83232" stroke-width="0.710917"/>
<rect x="808.809" y="27.3867" width="5.42006" height="19.653" fill="#D83232" stroke="#D83232" stroke-width="0.710917"/>
<path d="M857.5 24.125L857.5 129.581" stroke="#D83232" stroke-width="0.710917"/>
<rect x="854.79" y="26.6641" width="5.42006" height="101.108" fill="#D83232" stroke="#D83232" stroke-width="0.710917"/>
<path d="M820.714 34.3047L820.714 68.4869" stroke="#D83232" stroke-width="0.710917"/>
<rect x="818.005" y="41.9355" width="5.42006" height="5.10733" fill="#D83232" stroke="#D83232" stroke-width="0.710917"/>
<path d="M885.855 50.3066L885.855 78.6706" stroke="#D83232" stroke-width="0.710917"/>
<rect x="883.145" y="53.5683" width="5.42006" height="5.10733" fill="#D83232" stroke="#D83232" stroke-width="0.710917"/>
<path d="M895.052 47.3965L895.052 107.761" stroke="#D83232" stroke-width="0.710917"/>
<rect x="892.343" y="57.9394" width="5.42006" height="48.0169" fill="#D83232" stroke="#D83232" stroke-width="0.710917"/>
<path d="M903.481 96.8535L903.481 142.672" stroke="#D83232" stroke-width="0.710917"/>
<rect x="900.771" y="106.662" width="5.42006" height="34.1986" fill="#D83232" stroke="#D83232" stroke-width="0.710917"/>
<path d="M912.678 138.309L912.678 193.582" stroke="#D83232" stroke-width="0.710917"/>
<rect x="909.969" y="140.119" width="5.42006" height="41.4714" fill="#D83232" stroke="#D83232" stroke-width="0.710917"/>
<path d="M931.838 149.219L931.838 199.401" stroke="#D83232" stroke-width="0.710917"/>
<rect x="929.126" y="174.301" width="5.42006" height="23.2894" fill="#D83232" stroke="#D83232" stroke-width="0.710917"/>
<path d="M941.034 192.854L941.034 243.036" stroke="#D83232" stroke-width="0.710917"/>
<rect x="938.325" y="194.666" width="5.42006" height="35.6531" fill="#D83232" stroke="#D83232" stroke-width="0.710917"/>
<path d="M959.429 213.943L959.429 259.762" stroke="#D83232" stroke-width="0.710917"/>
<rect x="956.716" y="217.937" width="5.42006" height="10.9256" fill="#D83232" stroke="#D83232" stroke-width="0.710917"/>
<path d="M968.623 206.67L968.623 244.489" stroke="#D83232" stroke-width="0.710917"/>
<rect x="965.914" y="227.395" width="5.42006" height="5.10733" fill="#D83232" stroke="#D83232" stroke-width="0.710917"/>
<path d="M987.017 194.311L987.017 250.311" stroke="#D83232" stroke-width="0.710917"/>
<rect x="984.308" y="206.299" width="5.42006" height="37.835" fill="#D83232" stroke="#D83232" stroke-width="0.710917"/>
<path d="M1006.18 203.037L1006.18 234.31" stroke="#D83232" stroke-width="0.710917"/>
<rect x="1003.46" y="209.937" width="5.42006" height="16.7438" fill="#D83232" stroke="#D83232" stroke-width="0.710917"/>
<path d="M1014.61 221.947L1014.61 264.13" stroke="#D83232" stroke-width="0.710917"/>
<rect x="1011.9" y="223.76" width="5.42006" height="24.0166" fill="#D83232" stroke="#D83232" stroke-width="0.710917"/>
<path d="M1023.8 237.219L1023.8 269.219" stroke="#D83232" stroke-width="0.710917"/>
<rect x="1021.09" y="248.484" width="5.42006" height="5.10733" fill="#D83232" stroke="#D83232" stroke-width="0.710917"/>
<path d="M1042.96 206.67L1042.96 243.034" stroke="#D83232" stroke-width="0.710917"/>
<rect x="1040.25" y="217.937" width="5.42006" height="10.9256" fill="#D83232" stroke="#D83232" stroke-width="0.710917"/>
<path d="M681.999 117.213L681.999 173.941" stroke="#D83232" stroke-width="0.710917"/>
<rect x="679.29" y="118.301" width="5.42006" height="54.5624" fill="#D83232" stroke="#D83232" stroke-width="0.710917"/>
<path d="M551.716 184.123C551.716 219.058 551.716 238.644 551.716 273.579" stroke="#419E6A" stroke-width="0.710917"/>
<rect x="549.005" y="236.844" width="5.42006" height="35.6531" fill="#419E6A" stroke="#419E6A" stroke-width="0.710917"/>
<path d="M560.912 168.125C560.912 203.628 560.912 223.533 560.912 259.035" stroke="#419E6A" stroke-width="0.710917"/>
<rect x="558.202" y="178.666" width="5.42006" height="57.4716" fill="#419E6A" stroke="#419E6A" stroke-width="0.710917"/>
<path d="M579.306 159.4C579.306 192.347 579.306 210.819 579.306 243.765" stroke="#419E6A" stroke-width="0.710917"/>
<rect x="576.595" y="178.666" width="5.42006" height="50.1988" fill="#419E6A" stroke="#419E6A" stroke-width="0.710917"/>
<path d="M588.502 123.035C588.502 155.982 588.502 174.453 588.502 207.4" stroke="#419E6A" stroke-width="0.710917"/>
<rect x="585.792" y="124.844" width="5.42006" height="54.5624" fill="#419E6A" stroke="#419E6A" stroke-width="0.710917"/>
<path d="M598.464 42.3047C598.464 87.748 598.464 113.226 598.464 158.67" stroke="#419E6A" stroke-width="0.710917"/>
<rect x="595.754" y="65.9355" width="5.42006" height="61.108" fill="#419E6A" stroke="#419E6A" stroke-width="0.710917"/>
<path d="M616.856 31.3965C616.856 64.3429 616.856 82.8147 616.856 115.761" stroke="#419E6A" stroke-width="0.710917"/>
<rect x="614.147" y="53.5703" width="5.42006" height="40.0168" fill="#419E6A" stroke="#419E6A" stroke-width="0.710917"/>
<path d="M653.645 104.852C653.645 134.674 653.645 151.394 653.645 181.216" stroke="#419E6A" stroke-width="0.710917"/>
<rect x="650.935" y="111.025" width="5.42006" height="68.3808" fill="#419E6A" stroke="#419E6A" stroke-width="0.710917"/>
<path d="M699.625 136.854C699.625 153.895 699.625 163.449 699.625 180.49" stroke="#419E6A" stroke-width="0.710917"/>
<rect x="696.917" y="161.936" width="5.42006" height="17.4711" fill="#419E6A" stroke="#419E6A" stroke-width="0.710917"/>
<path d="M727.981 152.127C727.981 168.316 727.981 177.393 727.981 193.582" stroke="#419E6A" stroke-width="0.710917"/>
<rect x="725.27" y="153.207" width="5.42006" height="16.7438" fill="#419E6A" stroke="#419E6A" stroke-width="0.710917"/>
<path d="M737.176 107.762C737.176 129.063 737.176 141.006 737.176 162.308" stroke="#419E6A" stroke-width="0.710917"/>
<rect x="734.467" y="111.025" width="5.42006" height="47.2896" fill="#419E6A" stroke="#419E6A" stroke-width="0.710917"/>
<path d="M746.376 86.6738C746.376 98.8867 746.376 105.734 746.376 117.947" stroke="#419E6A" stroke-width="0.710917"/>
<rect x="743.664" y="87.7519" width="5.42006" height="20.3802" fill="#419E6A" stroke="#419E6A" stroke-width="0.710917"/>
<path d="M755.571 62.6719C755.571 78.293 755.571 87.0512 755.571 102.672" stroke="#419E6A" stroke-width="0.710917"/>
<rect x="752.86" y="74.6601" width="5.42006" height="11.6529" fill="#419E6A" stroke="#419E6A" stroke-width="0.710917"/>
<path d="M783.162 71.3984C783.162 85.8835 783.162 94.0047 783.162 108.49" stroke="#419E6A" stroke-width="0.710917"/>
<rect x="780.449" y="82.6641" width="5.42006" height="23.2894" fill="#419E6A" stroke="#419E6A" stroke-width="0.710917"/>
<path d="M793.123 45.9434C793.123 62.7006 793.123 72.0957 793.123 88.8529" stroke="#419E6A" stroke-width="0.710917"/>
<rect x="790.413" y="60.8437" width="5.42006" height="24.0166" fill="#419E6A" stroke="#419E6A" stroke-width="0.710917"/>
<path d="M829.143 28.4902C829.143 43.5433 829.143 51.983 829.143 67.0361" stroke="#419E6A" stroke-width="0.710917"/>
<rect x="826.432" y="44.8437" width="5.42006" height="0.743645" fill="#419E6A" stroke="#419E6A" stroke-width="0.710917"/>
<path d="M802.318 24.1211C802.318 44.5706 802.318 56.0358 802.318 76.4853" stroke="#419E6A" stroke-width="0.710917"/>
<rect x="799.61" y="25.209" width="5.42006" height="34.9258" fill="#419E6A" stroke="#419E6A" stroke-width="0.710917"/>
<path d="M838.34 22.6699C838.34 34.5988 838.34 41.2868 838.34 53.2157" stroke="#419E6A" stroke-width="0.710917"/>
<rect x="835.629" y="36.1152" width="5.42006" height="9.47102" fill="#419E6A" stroke="#419E6A" stroke-width="0.710917"/>
<path d="M875.893 38.6719C875.893 49.7487 875.893 55.959 875.893 67.0358" stroke="#419E6A" stroke-width="0.710917"/>
<rect x="873.18" y="48.4824" width="5.42006" height="8.74374" fill="#419E6A" stroke="#419E6A" stroke-width="0.710917"/>
<path d="M921.873 161.58C921.873 174.361 921.873 181.527 921.873 194.308" stroke="#419E6A" stroke-width="0.710917"/>
<rect x="919.163" y="175.758" width="5.42006" height="7.28917" fill="#419E6A" stroke="#419E6A" stroke-width="0.710917"/>
<path d="M950.229 197.219C950.229 212.272 950.229 220.712 950.229 235.765" stroke="#419E6A" stroke-width="0.710917"/>
<rect x="947.52" y="219.391" width="5.42006" height="13.1074" fill="#419E6A" stroke="#419E6A" stroke-width="0.710917"/>
<path d="M977.818 189.943C977.818 208.405 977.818 218.755 977.818 237.217" stroke="#419E6A" stroke-width="0.710917"/>
<rect x="975.109" y="208.48" width="5.42006" height="27.653" fill="#419E6A" stroke="#419E6A" stroke-width="0.710917"/>
<path d="M996.978 204.49C996.978 219.259 996.978 227.54 996.978 242.309" stroke="#419E6A" stroke-width="0.710917"/>
<rect x="994.268" y="213.574" width="5.42006" height="26.1985" fill="#419E6A" stroke="#419E6A" stroke-width="0.710917"/>
<path d="M1033 202.311C1033 223.328 1033 235.112 1033 256.129" stroke="#419E6A" stroke-width="0.710917"/>
<rect x="1030.29" y="217.937" width="5.42006" height="29.8349" fill="#419E6A" stroke="#419E6A" stroke-width="0.710917"/>
<path d="M866.694 56.127C866.694 84.245 866.694 100.01 866.694 128.128" stroke="#419E6A" stroke-width="0.710917"/>
<rect x="863.984" y="63.0273" width="5.42006" height="62.5625" fill="#419E6A" stroke="#419E6A" stroke-width="0.710917"/>
<path d="M847.535 23.3984C847.535 29.0789 847.535 32.2636 847.535 37.9441" stroke="#419E6A" stroke-width="0.710917"/>
<rect x="844.824" y="25.209" width="5.42006" height="4.38005" fill="#419E6A" stroke="#419E6A" stroke-width="0.710917"/>
<path d="M524.125 51.7637C524.125 83.29 524.125 100.966 524.125 132.492" stroke="#419E6A" stroke-width="0.710917"/>
<rect x="521.416" y="88.4805" width="5.42006" height="37.1077" fill="#419E6A" stroke="#419E6A" stroke-width="0.710917"/>
</g>
<defs>
<clipPath id="clip0_182_5319">
<rect width="525.939" height="315.827" fill="white" transform="translate(0 75.4395)"/>
</clipPath>
<clipPath id="clip1_182_5319">
<rect width="525.939" height="315.827" fill="white" transform="translate(521.061 0.453125)"/>
</clipPath>
</defs>
</svg>
