<svg width="419" height="497" viewBox="0 0 419 497" fill="none" xmlns="http://www.w3.org/2000/svg">
<g opacity="0.15" clip-path="url(#clip0_138_11848)">
<path d="M21.7476 62.6211L21.7475 430.235" stroke="#D83232" stroke-width="1.26085"/>
<rect x="16.9434" y="141.937" width="9.61277" height="279.931" fill="#D83232" stroke="#D83232" stroke-width="1.26085"/>
<path d="M36.7002 360.586L36.7002 519.24" stroke="#D83232" stroke-width="1.26085"/>
<rect x="31.8931" y="423.128" width="9.61277" height="64.5226" fill="#D83232" stroke="#D83232" stroke-width="1.26085"/>
<path d="M88.3521 302.539L88.3521 483.121" stroke="#D83232" stroke-width="1.26085"/>
<rect x="83.5411" y="316.07" width="9.61277" height="78.7112" fill="#D83232" stroke="#D83232" stroke-width="1.26085"/>
<path d="M153.591 93.5781L153.591 270.291" stroke="#D83232" stroke-width="1.26085"/>
<rect x="148.782" y="118.718" width="9.61277" height="51.6239" fill="#D83232" stroke="#D83232" stroke-width="1.26085"/>
<path d="M186.21 57.4648L186.21 201.931" stroke="#D83232" stroke-width="1.26085"/>
<rect x="181.407" y="98.0757" width="9.61277" height="76.1315" fill="#D83232" stroke="#D83232" stroke-width="1.26085"/>
<path d="M202.523 145.172L202.523 259.97" stroke="#D83232" stroke-width="1.26085"/>
<rect x="197.715" y="170.31" width="9.61277" height="80.0011" fill="#D83232" stroke="#D83232" stroke-width="1.26085"/>
<path d="M218.833 250.945L218.834 368.324" stroke="#D83232" stroke-width="1.26085"/>
<rect x="214.026" y="254.15" width="9.61277" height="63.2327" fill="#D83232" stroke="#D83232" stroke-width="1.26085"/>
<path d="M251.453 165.807L251.453 203.213" stroke="#D83232" stroke-width="1.26085"/>
<rect x="246.649" y="188.371" width="9.61277" height="2.60877" fill="#D83232" stroke="#D83232" stroke-width="1.26085"/>
<path d="M267.763 176.135L267.763 222.57" stroke="#D83232" stroke-width="1.26085"/>
<rect x="262.957" y="183.214" width="9.61277" height="29.6961" fill="#D83232" stroke="#D83232" stroke-width="1.26085"/>
<path d="M300.387 299.961L300.387 392.832" stroke="#D83232" stroke-width="1.26085"/>
<rect x="295.577" y="301.877" width="9.61277" height="15.5075" fill="#D83232" stroke="#D83232" stroke-width="1.26085"/>
<path d="M334.367 262.549L334.367 306.404" stroke="#D83232" stroke-width="1.26085"/>
<rect x="329.558" y="281.24" width="9.61277" height="9.05812" fill="#D83232" stroke="#D83232" stroke-width="1.26085"/>
<path d="M350.674 283.191L350.674 321.888" stroke="#D83232" stroke-width="1.26085"/>
<rect x="345.872" y="285.109" width="9.61277" height="12.9277" fill="#D83232" stroke="#D83232" stroke-width="1.26085"/>
<path d="M285.433 207.084L285.433 307.694" stroke="#D83232" stroke-width="1.26085"/>
<rect x="280.627" y="209.013" width="9.61277" height="96.7694" fill="#D83232" stroke="#D83232" stroke-width="1.26085"/>
<path d="M54.3667 325.754C54.3667 387.712 54.3667 422.45 54.3667 484.408" stroke="#419E6A" stroke-width="1.26085"/>
<rect x="49.5596" y="419.255" width="9.61277" height="63.2327" fill="#419E6A" stroke="#419E6A" stroke-width="1.26085"/>
<path d="M70.6768 297.379C70.6768 360.345 70.6768 395.647 70.6768 458.613" stroke="#419E6A" stroke-width="1.26085"/>
<rect x="65.8711" y="316.07" width="9.61277" height="101.929" fill="#419E6A" stroke="#419E6A" stroke-width="1.26085"/>
<path d="M103.3 281.9C103.3 340.333 103.3 373.093 103.3 431.526" stroke="#419E6A" stroke-width="1.26085"/>
<rect x="98.4908" y="316.07" width="9.61277" height="89.0302" fill="#419E6A" stroke="#419E6A" stroke-width="1.26085"/>
<path d="M119.609 217.406C119.609 275.839 119.609 308.599 119.609 367.031" stroke="#419E6A" stroke-width="1.26085"/>
<rect x="114.802" y="220.617" width="9.61277" height="96.7694" fill="#419E6A" stroke="#419E6A" stroke-width="1.26085"/>
<path d="M137.278 74.2285C137.278 154.825 137.278 200.012 137.278 280.608" stroke="#419E6A" stroke-width="1.26085"/>
<rect x="132.47" y="116.136" width="9.61277" height="108.378" fill="#419E6A" stroke="#419E6A" stroke-width="1.26085"/>
<path d="M169.897 54.8828C169.897 113.315 169.897 146.076 169.897 204.508" stroke="#419E6A" stroke-width="1.26085"/>
<rect x="165.093" y="94.2085" width="9.61277" height="70.972" fill="#419E6A" stroke="#419E6A" stroke-width="1.26085"/>
<path d="M235.142 185.156C235.142 238.048 235.142 267.702 235.142 320.593" stroke="#419E6A" stroke-width="1.26085"/>
<rect x="230.336" y="196.109" width="9.61277" height="121.277" fill="#419E6A" stroke="#419E6A" stroke-width="1.26085"/>
<path d="M316.692 241.914C316.692 272.138 316.692 289.083 316.692 319.306" stroke="#419E6A" stroke-width="1.26085"/>
<rect x="311.888" y="286.398" width="9.61277" height="30.986" fill="#419E6A" stroke="#419E6A" stroke-width="1.26085"/>
<path d="M366.983 269.006C366.983 297.718 366.983 313.816 366.983 342.529" stroke="#419E6A" stroke-width="1.26085"/>
<rect x="362.178" y="270.919" width="9.61277" height="29.6961" fill="#419E6A" stroke="#419E6A" stroke-width="1.26085"/>
<path d="M383.292 190.32C383.292 228.1 383.292 249.281 383.292 287.061" stroke="#419E6A" stroke-width="1.26085"/>
<rect x="378.486" y="196.109" width="9.61277" height="83.8707" fill="#419E6A" stroke="#419E6A" stroke-width="1.26085"/>
<path d="M399.606 152.916C399.606 174.576 399.606 186.72 399.606 208.381" stroke="#419E6A" stroke-width="1.26085"/>
<rect x="394.797" y="154.832" width="9.61277" height="36.1454" fill="#419E6A" stroke="#419E6A" stroke-width="1.26085"/>
<path d="M415.915 110.348C415.915 138.053 415.915 153.586 415.915 181.291" stroke="#419E6A" stroke-width="1.26085"/>
<rect x="411.108" y="131.615" width="9.61277" height="20.667" fill="#419E6A" stroke="#419E6A" stroke-width="1.26085"/>
<path d="M5.43408 91.0039C5.43408 146.918 5.43409 178.266 5.43409 234.18" stroke="#419E6A" stroke-width="1.26085"/>
<rect x="0.628472" y="156.123" width="9.61277" height="65.8125" fill="#419E6A" stroke="#419E6A" stroke-width="1.26085"/>
</g>
<defs>
<clipPath id="clip0_138_11848">
<rect width="1078" height="496.972" fill="white"/>
</clipPath>
</defs>
</svg>
