<svg width="202" height="153" viewBox="0 0 202 153" fill="none" xmlns="http://www.w3.org/2000/svg">
<path d="M201.958 2.08624C202.006 1.53602 201.598 1.05136 201.048 1.00373L192.082 0.227525C191.531 0.179894 191.047 0.587328 190.999 1.13755C190.952 1.68778 191.359 2.17244 191.909 2.22007L199.879 2.91003L199.189 10.8802C199.142 11.4304 199.549 11.9151 200.099 11.9627C200.65 12.0104 201.134 11.6029 201.182 11.0527L201.958 2.08624ZM3.92251 78.7781C5.94287 71.7987 9.07856 66.6161 13.1658 62.7081C17.258 58.7954 22.3542 56.1125 28.3651 54.2113C40.4455 50.3903 55.9861 49.784 74.0919 48.5602C110.208 46.1191 155.853 41.2274 201.605 2.76546L200.318 1.23454C155.071 39.2726 109.966 44.1309 73.9571 46.5648C56.0004 47.7785 40.1348 48.3909 27.762 52.3044C21.5464 54.2703 16.1543 57.0835 11.7836 61.2626C7.4079 65.4464 4.10606 70.9513 2.00138 78.2219L3.92251 78.7781ZM79.4618 152C79.6365 151.015 79.6364 151.015 79.636 151.015C79.6354 151.015 79.6346 151.015 79.6334 151.015C79.631 151.014 79.6272 151.014 79.622 151.013C79.6115 151.011 79.5955 151.008 79.574 151.004C79.531 150.996 79.4661 150.984 79.3801 150.968C79.2081 150.936 78.9515 150.887 78.6166 150.82C77.9467 150.687 76.9636 150.483 75.7165 150.204C73.2222 149.645 69.6735 148.783 65.4652 147.57C57.0429 145.144 46.0046 141.323 35.4933 135.742C24.9709 130.155 15.0541 122.844 8.78514 113.475C2.54444 104.148 -0.117295 92.7336 3.92251 78.7781L2.00138 78.2219C-2.20891 92.7664 0.566795 104.789 7.12292 114.587C13.6508 124.343 23.8902 131.845 34.5553 137.508C45.2314 143.177 56.4119 147.044 64.9115 149.492C69.1641 150.717 72.7522 151.589 75.2793 152.156C76.543 152.439 77.5418 152.645 78.2262 152.782C78.5684 152.85 78.832 152.9 79.0109 152.934C79.1003 152.951 79.1686 152.963 79.2149 152.972C79.238 152.976 79.2557 152.979 79.2677 152.981C79.2738 152.982 79.2784 152.983 79.2816 152.984C79.2832 152.984 79.2846 152.984 79.2854 152.984C79.2864 152.985 79.2871 152.985 79.4618 152Z" fill="#FFC759"/>
</svg>
