<svg width="350" height="540" viewBox="0 0 350 540" fill="none" xmlns="http://www.w3.org/2000/svg">
<path opacity="0.0833333" fill-rule="evenodd" clip-rule="evenodd" d="M302.329 423.392C292.763 440.602 268.683 446.316 249.414 447.257C231.188 448.147 217.782 432.76 200.405 428.369C182.436 423.829 161.369 430.779 145.866 421.092C129.248 410.709 118.651 392.683 113.011 373.762C107.107 353.956 98.5753 327.804 113.285 311.795C130.277 293.302 164.559 311.404 184.423 296.042C201.286 283.002 187.445 242.4 208.021 238.532C229.395 234.515 228.522 279.947 249.428 283.824C273.743 288.332 297.545 250.88 320.52 259.391C339.458 266.406 342.236 296.181 337.49 316.443C332.777 336.568 302.747 343.242 296.259 362.977C289.663 383.039 312.682 404.765 302.329 423.392Z" stroke="url(#paint0_linear_149_5357)" stroke-opacity="0.3" stroke-width="1.22938"/>
<path opacity="0.166667" fill-rule="evenodd" clip-rule="evenodd" d="M292.553 412.407C281.045 428.262 256.544 430.93 237.37 429.468C219.234 428.085 207.8 411.181 191.132 404.674C173.896 397.944 152.229 402.211 138.043 390.691C122.837 378.343 114.497 359.174 111.165 339.735C107.678 319.386 102.346 292.427 118.8 278.4C137.806 262.197 169.569 284.383 191.046 271.637C209.277 260.817 200.41 218.888 221.224 217.614C242.845 216.291 236.584 261.177 256.805 267.613C280.322 275.098 308.319 240.965 330.036 252.248C347.937 261.548 347.147 291.381 340.045 310.858C332.99 330.203 302.49 333.082 293.727 351.82C284.818 370.87 305.008 395.246 292.553 412.407Z" stroke="url(#paint1_linear_149_5357)" stroke-opacity="0.3" stroke-width="1.22938"/>
<path opacity="0.25" fill-rule="evenodd" clip-rule="evenodd" d="M284.42 400.477C271.156 414.762 246.617 414.367 227.836 410.54C210.071 406.92 200.78 388.75 185.076 380.234C168.837 371.427 146.91 372.968 134.256 359.792C120.694 345.67 114.73 325.639 113.75 305.962C112.725 285.364 110.662 257.986 128.598 246.127C149.316 232.427 178.077 258.353 200.825 248.386C220.137 239.926 216.361 197.274 237.089 198.594C258.622 199.964 247.089 243.669 266.313 252.555C288.672 262.89 320.413 232.537 340.539 246.412C357.129 257.849 352.797 287.315 343.457 305.735C334.181 324.031 303.686 323.101 292.792 340.583C281.717 358.356 298.776 385.016 284.42 400.477Z" stroke="url(#paint2_linear_149_5357)" stroke-opacity="0.3" stroke-width="1.22938"/>
<path opacity="0.333333" fill-rule="evenodd" clip-rule="evenodd" d="M278.026 387.816C263.216 400.34 239.018 396.913 220.919 390.795C203.799 385.008 196.789 365.843 182.29 355.456C167.297 344.716 145.449 343.531 134.52 328.902C122.806 313.221 119.304 292.622 120.685 272.99C122.131 252.44 123.361 225.038 142.498 215.497C164.603 204.476 189.924 233.74 213.589 226.671C233.679 220.67 235.04 177.912 255.362 181.784C276.473 185.807 259.862 227.715 277.794 238.904C298.651 251.917 333.634 225.747 351.863 241.994C366.889 255.386 359.091 284.067 347.664 301.177C336.315 318.171 306.297 313.476 293.447 329.463C280.384 345.716 294.055 374.261 278.026 387.816Z" stroke="url(#paint3_linear_149_5357)" stroke-opacity="0.3" stroke-width="1.22938"/>
<path opacity="0.416667" fill-rule="evenodd" clip-rule="evenodd" d="M273.436 374.644C257.309 385.243 233.825 378.862 216.685 370.563C200.473 362.714 195.847 342.837 182.774 330.748C169.256 318.246 147.822 314.379 138.784 298.52C129.096 281.521 128.106 260.656 131.823 241.351C135.714 221.142 140.213 194.111 160.254 187.004C183.404 178.794 204.901 210.944 229.118 206.847C249.676 203.369 256.145 161.121 275.749 167.465C296.114 174.056 274.687 213.584 291.055 226.893C310.092 242.371 347.774 220.72 363.828 239.083C377.061 254.219 365.923 281.71 352.589 297.276C339.344 312.736 310.264 304.381 295.658 318.657C280.81 333.17 290.889 363.172 273.436 374.644Z" stroke="url(#paint4_linear_149_5357)" stroke-opacity="0.3" stroke-width="1.22938"/>
<path opacity="0.5" fill-rule="evenodd" clip-rule="evenodd" d="M270.689 361.189C253.493 369.73 231.079 360.518 215.159 350.182C200.101 340.404 197.928 320.113 186.48 306.513C174.641 292.449 153.949 285.984 146.937 269.138C139.42 251.081 140.957 230.254 146.951 211.553C153.226 191.976 160.923 165.703 181.562 161.107C205.403 155.799 222.751 190.338 247.151 189.242C267.863 188.312 279.337 147.179 297.925 155.879C317.234 164.917 291.322 201.515 305.876 216.728C322.804 234.423 362.609 217.557 376.245 237.748C387.485 254.391 373.18 280.306 358.142 294.118C343.206 307.836 315.505 295.979 299.368 308.355C282.963 320.937 289.299 351.945 270.689 361.189Z" stroke="url(#paint5_linear_149_5357)" stroke-opacity="0.3" stroke-width="1.22938"/>
<path opacity="0.583333" fill-rule="evenodd" clip-rule="evenodd" d="M269.795 347.676C251.79 354.056 230.785 342.18 216.325 329.979C202.647 318.438 202.961 298.033 193.309 283.139C183.328 267.736 163.689 258.796 158.809 241.221C153.577 222.382 157.616 201.898 165.797 184.067C174.36 165.401 185.138 140.263 206.063 138.219C230.236 135.858 243.174 172.255 267.388 174.142C287.942 175.744 304.247 136.318 321.538 147.22C339.5 158.545 309.495 191.71 322.017 208.585C336.58 228.211 377.908 216.326 388.92 238.028C397.997 255.918 380.74 279.896 364.227 291.77C347.825 303.564 321.923 288.418 304.498 298.734C286.783 309.221 289.282 340.77 269.795 347.676Z" stroke="url(#paint6_linear_149_5357)" stroke-opacity="0.3" stroke-width="1.22938"/>
<path opacity="0.666667" fill-rule="evenodd" clip-rule="evenodd" d="M270.737 334.333C252.192 338.482 232.909 324.148 220.125 310.284C208.032 297.171 210.826 276.956 203.115 261.002C195.141 244.504 176.85 233.249 174.174 215.213C171.305 195.881 177.786 176.038 188.03 159.332C198.755 141.844 212.453 118.2 233.352 118.708C257.495 119.295 265.831 156.99 289.496 161.799C309.585 165.882 330.478 128.726 346.215 141.643C362.562 155.062 328.912 184.342 339.214 202.609C351.196 223.856 393.428 217.07 401.652 239.946C408.432 258.803 388.481 280.51 370.738 290.293C353.116 300.011 329.398 281.837 310.945 289.963C292.186 298.224 290.809 329.842 270.737 334.333Z" stroke="url(#paint7_linear_149_5357)" stroke-opacity="0.3" stroke-width="1.22938"/>
<path opacity="0.75" fill-rule="evenodd" clip-rule="evenodd" d="M273.471 321.383C254.658 323.265 237.382 306.715 226.462 291.415C216.133 276.944 221.366 257.219 215.71 240.457C209.86 223.122 193.185 209.748 192.752 191.526C192.289 171.994 201.115 153.084 213.273 137.74C225.999 121.678 242.415 99.8647 262.981 102.889C286.737 106.382 290.348 144.796 313.116 152.422C332.444 158.895 357.616 124.541 371.566 139.257C386.057 154.545 349.258 179.545 357.189 198.916C366.413 221.446 408.926 219.803 414.242 243.497C418.624 263.029 396.275 282.165 377.564 289.735C358.981 297.254 337.797 276.358 318.59 282.198C299.063 288.135 293.831 319.346 273.471 321.383Z" stroke="url(#paint8_linear_149_5357)" stroke-opacity="0.3" stroke-width="1.22938"/>
<path opacity="0.833333" fill-rule="evenodd" clip-rule="evenodd" d="M277.924 309.036C259.12 308.647 244.101 290.156 235.203 273.668C226.787 258.072 234.382 239.131 230.861 221.823C227.22 203.924 212.403 188.655 214.22 170.526C216.167 151.093 227.209 133.391 241.1 119.626C255.642 105.217 274.534 85.5452 294.466 91.0118C317.49 97.3266 316.326 135.87 337.866 146.166C356.151 154.906 385.231 123.842 397.192 140.115C409.616 157.02 370.208 177.409 375.653 197.578C381.986 221.035 424.161 224.504 426.492 248.648C428.414 268.551 403.993 284.855 384.589 290.122C365.316 295.353 346.975 272.082 327.293 275.572C307.284 279.12 298.277 309.457 277.924 309.036Z" stroke="url(#paint9_linear_149_5357)" stroke-opacity="0.3" stroke-width="1.22938"/>
<path opacity="0.916667" fill-rule="evenodd" clip-rule="evenodd" d="M284.002 297.495C265.477 294.865 252.929 274.735 246.18 257.323C239.796 240.853 249.64 222.977 248.302 205.393C246.919 187.21 234.173 170.3 238.208 152.539C242.534 133.502 255.629 117.266 271.052 105.275C287.197 92.7221 308.289 75.4703 327.3 83.2705C349.26 92.281 343.344 130.362 363.345 143.144C380.325 153.994 412.888 126.661 422.69 144.226C432.871 162.472 391.427 177.986 394.311 198.636C397.665 222.654 438.892 231.128 438.21 255.349C437.647 275.314 411.51 288.566 391.693 291.472C372.011 294.359 356.773 269.093 336.901 270.205C316.7 271.334 304.052 300.342 284.002 297.495Z" stroke="url(#paint10_linear_149_5357)" stroke-opacity="0.3" stroke-width="1.22938"/>
<path fill-rule="evenodd" clip-rule="evenodd" d="M291.583 286.947C273.602 282.136 263.699 260.694 259.19 242.635C254.924 225.554 266.871 209.009 267.73 191.423C268.62 173.238 258.121 154.964 264.314 137.842C270.951 119.49 285.906 104.957 302.636 94.9076C320.149 84.3878 343.133 69.7993 360.953 79.791C381.537 91.333 370.965 128.37 389.146 143.416C404.579 156.188 440.152 132.974 447.659 151.547C455.456 170.841 412.574 181.286 412.862 202.094C413.197 226.296 452.888 239.598 449.208 263.521C446.174 283.24 418.701 293.265 398.756 293.788C378.947 294.307 367.023 267.456 347.247 266.193C327.142 264.91 311.044 292.153 291.583 286.947Z" stroke="url(#paint11_linear_149_5357)" stroke-opacity="0.3" stroke-width="1.22938"/>
<defs>
<linearGradient id="paint0_linear_149_5357" x1="446.649" y1="366.149" x2="94.7358" y2="221.721" gradientUnits="userSpaceOnUse">
<stop stop-color="#FF3444"/>
<stop offset="1" stop-color="#3EBA59"/>
</linearGradient>
<linearGradient id="paint1_linear_149_5357" x1="442.125" y1="373.646" x2="110.37" y2="188.293" gradientUnits="userSpaceOnUse">
<stop stop-color="#FF3444"/>
<stop offset="1" stop-color="#3EBA59"/>
</linearGradient>
<linearGradient id="paint2_linear_149_5357" x1="436.901" y1="380.619" x2="130.036" y2="157.095" gradientUnits="userSpaceOnUse">
<stop stop-color="#FF3444"/>
<stop offset="1" stop-color="#3EBA59"/>
</linearGradient>
<linearGradient id="paint3_linear_149_5357" x1="431.048" y1="386.985" x2="153.434" y2="128.591" gradientUnits="userSpaceOnUse">
<stop stop-color="#FF3444"/>
<stop offset="1" stop-color="#3EBA59"/>
</linearGradient>
<linearGradient id="paint4_linear_149_5357" x1="424.646" y1="392.672" x2="180.212" y2="103.201" gradientUnits="userSpaceOnUse">
<stop stop-color="#FF3444"/>
<stop offset="1" stop-color="#3EBA59"/>
</linearGradient>
<linearGradient id="paint5_linear_149_5357" x1="417.783" y1="397.619" x2="209.97" y2="81.3035" gradientUnits="userSpaceOnUse">
<stop stop-color="#FF3444"/>
<stop offset="1" stop-color="#3EBA59"/>
</linearGradient>
<linearGradient id="paint6_linear_149_5357" x1="410.554" y1="401.771" x2="242.267" y2="63.2198" gradientUnits="userSpaceOnUse">
<stop stop-color="#FF3444"/>
<stop offset="1" stop-color="#3EBA59"/>
</linearGradient>
<linearGradient id="paint7_linear_149_5357" x1="403.06" y1="405.093" x2="276.625" y2="49.2214" gradientUnits="userSpaceOnUse">
<stop stop-color="#FF3444"/>
<stop offset="1" stop-color="#3EBA59"/>
</linearGradient>
<linearGradient id="paint8_linear_149_5357" x1="395.405" y1="407.559" x2="312.541" y2="39.5209" gradientUnits="userSpaceOnUse">
<stop stop-color="#FF3444"/>
<stop offset="1" stop-color="#3EBA59"/>
</linearGradient>
<linearGradient id="paint9_linear_149_5357" x1="387.698" y1="409.154" x2="349.491" y2="34.2626" gradientUnits="userSpaceOnUse">
<stop stop-color="#FF3444"/>
<stop offset="1" stop-color="#3EBA59"/>
</linearGradient>
<linearGradient id="paint10_linear_149_5357" x1="380.045" y1="409.879" x2="386.936" y2="33.5335" gradientUnits="userSpaceOnUse">
<stop stop-color="#FF3444"/>
<stop offset="1" stop-color="#3EBA59"/>
</linearGradient>
<linearGradient id="paint11_linear_149_5357" x1="372.553" y1="409.749" x2="424.333" y2="37.353" gradientUnits="userSpaceOnUse">
<stop stop-color="#FF3444"/>
<stop offset="1" stop-color="#3EBA59"/>
</linearGradient>
</defs>
</svg>
