<svg width="278" height="563" viewBox="0 0 278 563" fill="none" xmlns="http://www.w3.org/2000/svg">
<path opacity="0.0833333" fill-rule="evenodd" clip-rule="evenodd" d="M62.2319 441.387C52.246 459.353 27.1081 465.318 6.99271 466.301C-12.0342 467.23 -26.0289 451.167 -44.1686 446.583C-62.927 441.843 -84.9192 449.099 -101.104 438.986C-118.452 428.147 -129.514 409.329 -135.402 389.577C-141.565 368.901 -150.471 341.6 -135.116 324.888C-117.378 305.583 -81.5897 324.48 -60.8526 308.443C-43.2493 294.83 -57.698 252.445 -36.2186 248.408C-13.9061 244.214 -14.8165 291.642 7.00731 295.688C32.3901 300.395 57.2376 261.298 81.2214 270.182C100.992 277.505 103.891 308.588 98.9372 329.741C94.0168 350.75 62.6682 357.717 55.8953 378.318C49.0097 399.262 73.0396 421.942 62.2319 441.387Z" stroke="url(#paint0_linear_149_5371)" stroke-opacity="0.3" stroke-width="1.28338"/>
<path opacity="0.166667" fill-rule="evenodd" clip-rule="evenodd" d="M52.0262 429.921C40.0127 446.473 14.4359 449.257 -5.58024 447.731C-24.5133 446.288 -36.4489 428.641 -53.8491 421.848C-71.8428 414.823 -94.4611 419.277 -109.27 407.251C-125.144 394.361 -133.851 374.35 -137.328 354.057C-140.969 332.814 -146.535 304.671 -129.359 290.028C-109.517 273.113 -76.3591 296.274 -53.9392 282.968C-34.9073 271.673 -44.1642 227.902 -22.4358 226.572C0.135518 225.191 -6.40096 272.048 14.7077 278.767C39.2586 286.581 68.485 250.949 91.1556 262.727C109.843 272.436 109.018 303.579 101.604 323.912C94.24 344.107 62.4001 347.112 53.2519 366.673C43.9516 386.559 65.0284 412.006 52.0262 429.921Z" stroke="url(#paint1_linear_149_5371)" stroke-opacity="0.3" stroke-width="1.28338"/>
<path opacity="0.25" fill-rule="evenodd" clip-rule="evenodd" d="M43.5365 417.468C29.6898 432.381 4.07311 431.968 -15.5332 427.973C-34.0786 424.194 -43.7778 405.226 -60.1711 396.336C-77.1236 387.143 -100.014 388.751 -113.223 374.996C-127.381 360.253 -133.607 339.343 -134.63 318.802C-135.701 297.299 -137.854 268.719 -119.13 256.339C-97.5017 242.037 -67.478 269.102 -43.73 258.697C-23.5706 249.865 -27.5122 205.34 -5.87316 206.717C16.6052 208.148 4.56607 253.772 24.6344 263.049C47.9754 273.838 81.1098 242.152 102.12 256.636C119.439 268.575 114.917 299.335 105.167 318.565C95.483 337.664 63.6484 336.693 52.2763 354.943C40.715 373.497 58.5227 401.328 43.5365 417.468Z" stroke="url(#paint2_linear_149_5371)" stroke-opacity="0.3" stroke-width="1.28338"/>
<path opacity="0.333333" fill-rule="evenodd" clip-rule="evenodd" d="M36.8611 404.25C21.4004 417.324 -3.85981 413.746 -22.754 407.36C-40.6258 401.319 -47.9444 381.312 -63.0798 370.469C-78.7315 359.257 -101.539 358.02 -112.948 342.748C-125.176 326.379 -128.832 304.875 -127.39 284.381C-125.881 262.928 -124.597 234.323 -104.62 224.363C-81.5435 212.857 -55.1108 243.407 -30.4056 236.027C-9.43367 229.763 -8.01291 185.127 13.2022 189.169C35.2402 193.368 17.8991 237.118 36.6194 248.798C58.3925 262.383 94.9118 235.063 113.941 252.023C129.627 266.003 121.487 295.944 109.559 313.806C97.711 331.546 66.3741 326.646 52.9599 343.335C39.3225 360.301 53.5943 390.1 36.8611 404.25Z" stroke="url(#paint3_linear_149_5371)" stroke-opacity="0.3" stroke-width="1.28338"/>
<path opacity="0.416667" fill-rule="evenodd" clip-rule="evenodd" d="M32.0692 390.501C15.2347 401.565 -9.28112 394.904 -27.1738 386.241C-44.0984 378.047 -48.9275 357.297 -62.5743 344.677C-76.6867 331.626 -99.0614 327.589 -108.497 311.033C-118.611 293.288 -119.643 271.506 -115.763 251.353C-111.702 230.257 -107.005 202.038 -86.084 194.619C-61.9169 186.049 -39.4759 219.611 -14.1948 215.334C7.26589 211.703 14.0187 167.599 34.4843 174.222C55.7437 181.103 33.3757 222.367 50.4622 236.26C70.3351 252.419 109.673 229.816 126.431 248.985C140.246 264.787 128.619 293.485 114.699 309.735C100.873 325.874 70.5149 317.152 55.2679 332.055C39.7675 347.206 50.2893 378.525 32.0692 390.501Z" stroke="url(#paint4_linear_149_5371)" stroke-opacity="0.3" stroke-width="1.28338"/>
<path opacity="0.5" fill-rule="evenodd" clip-rule="evenodd" d="M29.2013 376.452C11.2506 385.368 -12.1477 375.752 -28.7669 364.961C-44.4868 354.755 -46.7547 333.572 -58.706 319.374C-71.065 304.693 -92.6658 297.944 -99.9861 280.358C-107.833 261.508 -106.228 239.766 -99.971 220.243C-93.4208 199.806 -85.3858 172.38 -63.8402 167.582C-38.9516 162.041 -20.8415 198.097 4.62954 196.953C26.2515 195.981 38.2295 153.042 57.6342 162.124C77.7915 171.559 50.7413 209.764 65.9347 225.646C83.6059 244.118 125.16 226.512 139.394 247.589C151.128 264.963 136.194 292.017 120.496 306.435C104.904 320.755 75.9868 308.378 59.141 321.298C42.015 334.432 48.6294 366.802 29.2013 376.452Z" stroke="url(#paint5_linear_149_5371)" stroke-opacity="0.3" stroke-width="1.28338"/>
<path opacity="0.583333" fill-rule="evenodd" clip-rule="evenodd" d="M28.2683 362.347C9.47259 369.007 -12.4552 356.61 -27.5503 343.873C-41.8286 331.825 -41.5017 310.524 -51.5774 294.975C-61.9968 278.896 -82.4977 269.563 -87.5927 251.216C-93.0539 231.55 -88.8377 210.166 -80.298 191.552C-71.3585 172.066 -60.1072 145.824 -38.2624 143.69C-13.0283 141.225 0.478571 179.221 25.7551 181.191C47.212 182.864 64.2333 141.706 82.2844 153.086C101.036 164.908 69.7124 199.53 82.7839 217.146C97.987 237.635 141.13 225.228 152.626 247.883C162.102 266.559 144.087 291.589 126.848 303.985C109.726 316.297 82.6857 300.486 64.4956 311.255C46.003 322.203 48.6109 355.138 28.2683 362.347Z" stroke="url(#paint6_linear_149_5371)" stroke-opacity="0.3" stroke-width="1.28338"/>
<path opacity="0.666667" fill-rule="evenodd" clip-rule="evenodd" d="M29.252 348.417C9.89189 352.749 -10.2381 337.785 -23.5838 323.312C-36.2073 309.623 -33.2904 288.52 -41.3402 271.865C-49.6645 254.643 -68.7596 242.893 -71.5532 224.065C-74.5476 203.883 -67.7824 183.17 -57.0878 165.73C-45.8925 147.473 -31.5928 122.791 -9.77493 123.321C15.4282 123.934 24.1302 163.285 48.8349 168.305C69.8064 172.567 91.6169 133.779 108.045 147.264C125.11 161.272 89.9816 191.838 100.736 210.908C113.244 233.087 157.331 226.003 165.917 249.884C172.995 269.57 152.168 292.23 133.645 302.443C115.249 312.587 90.489 293.615 71.2262 302.098C51.6431 310.723 50.2056 343.729 29.252 348.417Z" stroke="url(#paint7_linear_149_5371)" stroke-opacity="0.3" stroke-width="1.28338"/>
<path opacity="0.75" fill-rule="evenodd" clip-rule="evenodd" d="M32.1057 334.9C12.467 336.865 -5.5684 319.587 -16.968 303.616C-27.7507 288.508 -22.2872 267.917 -28.1925 250.419C-34.2992 232.323 -51.7068 218.361 -52.1581 199.339C-52.6418 178.949 -43.4278 159.209 -30.7364 143.191C-17.4508 126.422 -0.314245 103.651 21.1548 106.808C45.955 110.455 49.7243 150.556 73.4928 158.517C93.6695 165.275 119.947 129.411 134.509 144.774C149.637 160.733 111.222 186.832 119.501 207.053C129.13 230.573 173.511 228.858 179.061 253.593C183.635 273.982 160.304 293.959 140.771 301.861C121.372 309.711 99.2578 287.897 79.2066 293.994C58.822 300.191 53.3609 332.773 32.1057 334.9Z" stroke="url(#paint8_linear_149_5371)" stroke-opacity="0.3" stroke-width="1.28338"/>
<path opacity="0.833333" fill-rule="evenodd" clip-rule="evenodd" d="M36.755 322.01C17.1243 321.604 1.44554 302.3 -7.84274 285.088C-16.6284 268.807 -8.69954 249.034 -12.3754 230.965C-16.1767 212.281 -31.6439 196.341 -29.7477 177.415C-27.7152 157.129 -16.1882 138.65 -1.68638 124.28C13.4944 109.238 33.2161 88.7023 54.0232 94.409C78.0587 101.001 76.8433 141.237 99.3292 151.986C118.417 161.11 148.775 128.681 161.261 145.669C174.231 163.316 133.092 184.601 138.777 205.656C145.388 230.144 189.415 233.765 191.849 258.97C193.855 279.746 168.361 296.767 148.105 302.265C127.985 307.725 108.839 283.432 88.2922 287.076C67.4041 290.78 58.0013 322.449 36.755 322.01Z" stroke="url(#paint9_linear_149_5371)" stroke-opacity="0.3" stroke-width="1.28338"/>
<path opacity="0.916667" fill-rule="evenodd" clip-rule="evenodd" d="M43.0996 309.963C23.7606 307.217 10.6617 286.203 3.61603 268.026C-3.04839 250.833 7.22795 232.172 5.83154 213.816C4.38749 194.833 -8.91847 177.181 -4.70537 158.64C-0.189425 138.766 13.4808 121.818 29.5811 109.3C46.4351 96.1956 68.4535 78.186 88.299 86.3289C111.224 95.7352 105.048 135.489 125.928 148.832C143.653 160.158 177.647 131.625 187.879 149.962C198.508 169.009 155.243 185.205 158.254 206.762C161.755 231.834 204.793 240.681 204.08 265.965C203.493 286.807 176.208 300.642 155.521 303.676C134.974 306.689 119.067 280.314 98.3225 281.474C77.2333 282.653 64.0303 312.935 43.0996 309.963Z" stroke="url(#paint10_linear_149_5371)" stroke-opacity="0.3" stroke-width="1.28338"/>
<path fill-rule="evenodd" clip-rule="evenodd" d="M51.0141 298.949C32.2431 293.927 21.9054 271.543 17.1979 252.691C12.7451 234.859 25.2161 217.587 26.1137 199.23C27.0419 180.246 16.0826 161.168 22.5467 143.295C29.4755 124.136 45.0881 108.965 62.5523 98.4745C80.8342 87.4926 104.828 72.2634 123.43 82.6939C144.919 94.7429 133.883 133.406 152.862 149.113C168.973 162.447 206.108 138.213 213.945 157.602C222.085 177.743 177.319 188.647 177.62 210.369C177.97 235.634 219.404 249.521 215.562 274.494C212.396 295.079 183.715 305.545 162.895 306.09C142.215 306.632 129.767 278.601 109.123 277.284C88.1353 275.944 71.33 304.384 51.0141 298.949Z" stroke="url(#paint11_linear_149_5371)" stroke-opacity="0.3" stroke-width="1.28338"/>
<defs>
<linearGradient id="paint0_linear_149_5371" x1="212.891" y1="381.63" x2="-154.48" y2="230.858" gradientUnits="userSpaceOnUse">
<stop stop-color="#FF3444"/>
<stop offset="1" stop-color="#3EBA59"/>
</linearGradient>
<linearGradient id="paint1_linear_149_5371" x1="208.168" y1="389.457" x2="-138.159" y2="195.963" gradientUnits="userSpaceOnUse">
<stop stop-color="#FF3444"/>
<stop offset="1" stop-color="#3EBA59"/>
</linearGradient>
<linearGradient id="paint2_linear_149_5371" x1="202.714" y1="396.738" x2="-117.629" y2="163.396" gradientUnits="userSpaceOnUse">
<stop stop-color="#FF3444"/>
<stop offset="1" stop-color="#3EBA59"/>
</linearGradient>
<linearGradient id="paint3_linear_149_5371" x1="196.604" y1="403.383" x2="-93.2031" y2="133.639" gradientUnits="userSpaceOnUse">
<stop stop-color="#FF3444"/>
<stop offset="1" stop-color="#3EBA59"/>
</linearGradient>
<linearGradient id="paint4_linear_149_5371" x1="189.921" y1="409.32" x2="-65.2489" y2="107.135" gradientUnits="userSpaceOnUse">
<stop stop-color="#FF3444"/>
<stop offset="1" stop-color="#3EBA59"/>
</linearGradient>
<linearGradient id="paint5_linear_149_5371" x1="182.756" y1="414.482" x2="-34.184" y2="84.2732" gradientUnits="userSpaceOnUse">
<stop stop-color="#FF3444"/>
<stop offset="1" stop-color="#3EBA59"/>
</linearGradient>
<linearGradient id="paint6_linear_149_5371" x1="175.21" y1="418.818" x2="-0.469222" y2="65.3965" gradientUnits="userSpaceOnUse">
<stop stop-color="#FF3444"/>
<stop offset="1" stop-color="#3EBA59"/>
</linearGradient>
<linearGradient id="paint7_linear_149_5371" x1="167.387" y1="422.285" x2="35.3983" y2="50.7826" gradientUnits="userSpaceOnUse">
<stop stop-color="#FF3444"/>
<stop offset="1" stop-color="#3EBA59"/>
</linearGradient>
<linearGradient id="paint8_linear_149_5371" x1="159.396" y1="424.861" x2="72.8925" y2="40.6571" gradientUnits="userSpaceOnUse">
<stop stop-color="#FF3444"/>
<stop offset="1" stop-color="#3EBA59"/>
</linearGradient>
<linearGradient id="paint9_linear_149_5371" x1="151.35" y1="426.525" x2="111.465" y2="35.1672" gradientUnits="userSpaceOnUse">
<stop stop-color="#FF3444"/>
<stop offset="1" stop-color="#3EBA59"/>
</linearGradient>
<linearGradient id="paint10_linear_149_5371" x1="143.362" y1="427.284" x2="150.555" y2="34.4073" gradientUnits="userSpaceOnUse">
<stop stop-color="#FF3444"/>
<stop offset="1" stop-color="#3EBA59"/>
</linearGradient>
<linearGradient id="paint11_linear_149_5371" x1="135.541" y1="427.145" x2="189.595" y2="38.3919" gradientUnits="userSpaceOnUse">
<stop stop-color="#FF3444"/>
<stop offset="1" stop-color="#3EBA59"/>
</linearGradient>
</defs>
</svg>
