<svg width="116" height="64" viewBox="0 0 116 64" fill="none" xmlns="http://www.w3.org/2000/svg">
<path d="M31.3046 14.6797L2.37744 28.6797V35.6797H114.377V0.679688L66.1655 22.6797L31.3046 14.6797Z" fill="url(#paint0_linear_96_4273)"/>
<path d="M1.37744 28.6797L30.8212 14.4341L66.3046 22.2937L115.377 0.679688" stroke="#4C56CC" stroke-linecap="round"/>
<path d="M21.772 51.9092C21.772 53.8096 22.3052 55.2109 23.3716 56.1133C24.4448 57.0156 25.7847 57.4668 27.3911 57.4668C28.9907 57.4668 30.3237 57.0156 31.3901 56.1133C32.4565 55.2109 32.9897 53.8096 32.9897 51.9092V42.25H30.2725V52.063C30.2725 53.2319 30.0093 54.0693 29.4829 54.5752C28.9565 55.0742 28.2627 55.3237 27.4014 55.3237C26.5332 55.3237 25.8359 55.0742 25.3096 54.5752C24.79 54.0693 24.5303 53.2319 24.5303 52.063V42.25H21.772V51.9092ZM35.707 61.4761H38.3833V56.0518C38.6704 56.4619 39.0771 56.7866 39.6035 57.0259C40.1367 57.2651 40.752 57.3848 41.4492 57.3848C42.7822 57.3848 43.8555 56.896 44.6689 55.9185C45.4824 54.9341 45.8892 53.6421 45.8892 52.0425V51.7144C45.8892 50.1079 45.479 48.8193 44.6587 47.8486C43.8384 46.8711 42.7515 46.3823 41.3979 46.3823C40.7007 46.3823 40.0752 46.5259 39.5215 46.813C38.9678 47.0933 38.5679 47.4453 38.3218 47.8691H38.2705L38.209 46.5977H35.707V61.4761ZM38.3833 53.7754V49.9712C38.561 49.561 38.8481 49.2021 39.2446 48.8945C39.6479 48.5801 40.1401 48.4229 40.7212 48.4229C41.5552 48.4229 42.1704 48.7134 42.5669 49.2944C42.9634 49.8687 43.1616 50.6411 43.1616 51.6118V52.145C43.1616 53.1157 42.9634 53.895 42.5669 54.4829C42.1704 55.064 41.5586 55.3545 40.7314 55.3545C40.1641 55.3545 39.6719 55.1973 39.2549 54.8828C38.8447 54.5615 38.5542 54.1924 38.3833 53.7754ZM52.4312 53.0269C52.4312 54.4556 52.9507 55.5527 53.9897 56.3184C55.0356 57.084 56.396 57.4668 58.0708 57.4668C59.7524 57.4668 61.0957 57.0771 62.1006 56.2979C63.1123 55.5117 63.6182 54.4419 63.6182 53.0884C63.6182 51.7964 63.2251 50.7983 62.439 50.0942C61.6528 49.3833 60.4907 48.8091 58.9526 48.3716C57.5034 47.9683 56.5566 47.6128 56.1123 47.3052C55.668 46.9976 55.4458 46.5635 55.4458 46.0029C55.4458 45.415 55.6509 44.9502 56.061 44.6084C56.4712 44.2666 57.1104 44.0957 57.9785 44.0957C58.8467 44.0957 59.4995 44.3042 59.937 44.7212C60.3813 45.1313 60.6035 45.6816 60.6035 46.3721V46.5977H63.3208V46.3208C63.3208 45.0083 62.832 43.9556 61.8545 43.1626C60.8838 42.3628 59.5884 41.9629 57.9683 41.9629C56.3413 41.9629 55.0527 42.3525 54.1025 43.1318C53.1523 43.9043 52.6772 44.9229 52.6772 46.1875C52.6841 47.3906 53.0635 48.3306 53.8154 49.0073C54.5742 49.6841 55.7363 50.2446 57.3018 50.689C58.7441 51.0923 59.6978 51.4683 60.1626 51.8169C60.6274 52.1655 60.8599 52.6475 60.8599 53.2627C60.8599 53.8916 60.6172 54.3975 60.1318 54.7803C59.6533 55.1631 58.9629 55.3545 58.0605 55.3545C57.1582 55.3545 56.4541 55.1562 55.9482 54.7598C55.4424 54.3633 55.1895 53.7686 55.1895 52.9756V52.7192H52.4312V53.0269ZM65.6279 57.1797H68.3042V50.0327C68.5024 49.5542 68.7861 49.1748 69.1553 48.8945C69.5244 48.6143 69.9619 48.4741 70.4678 48.4741C71.0488 48.4741 71.5034 48.6313 71.8315 48.9458C72.1597 49.2603 72.3237 49.7866 72.3237 50.5249V57.1797H74.9897V50.3608C74.9897 48.9458 74.6685 47.9307 74.0259 47.3154C73.3901 46.6934 72.5698 46.3823 71.5649 46.3823C70.813 46.3823 70.1636 46.5293 69.6167 46.8232C69.0698 47.1172 68.6323 47.5 68.3042 47.9717V41.5835H65.6279V57.1797ZM76.9995 52.0425C76.9995 53.6831 77.4883 54.999 78.4658 55.9902C79.4502 56.9814 80.7422 57.4771 82.3418 57.4771C83.9414 57.4771 85.23 56.9814 86.2075 55.9902C87.1851 54.999 87.6738 53.6831 87.6738 52.0425V51.7144C87.6738 50.0806 87.1851 48.7681 86.2075 47.7769C85.23 46.7856 83.9414 46.29 82.3418 46.29C80.7422 46.29 79.4502 46.7856 78.4658 47.7769C77.4883 48.7681 76.9995 50.0806 76.9995 51.7144V52.0425ZM79.7271 51.6118C79.7271 50.6069 79.9526 49.8105 80.4038 49.2227C80.855 48.6348 81.501 48.3408 82.3418 48.3408C83.1758 48.3408 83.8184 48.6348 84.2695 49.2227C84.7207 49.8105 84.9463 50.6069 84.9463 51.6118V52.1553C84.9463 53.1602 84.7241 53.9565 84.2798 54.5444C83.8354 55.1323 83.1895 55.4263 82.3418 55.4263C81.4941 55.4263 80.8447 55.1323 80.3936 54.5444C79.9492 53.9565 79.7271 53.1602 79.7271 52.1553V51.6118ZM88.4326 48.5664H94.9028V46.5977H88.4326V48.5664ZM90.1245 54.1753C90.1245 55.3169 90.4014 56.1509 90.9551 56.6772C91.5088 57.2036 92.2539 57.4668 93.1904 57.4668C93.5527 57.4668 93.8809 57.436 94.1748 57.3745C94.4756 57.313 94.708 57.2446 94.8721 57.1694V55.2007C94.7148 55.2622 94.5508 55.3135 94.3799 55.3545C94.2158 55.3887 94.0518 55.4058 93.8877 55.4058C93.5254 55.4058 93.2485 55.3101 93.0571 55.1187C92.8726 54.9272 92.7803 54.5684 92.7803 54.042V43.8906H90.145V47.2847L90.1245 47.5615V54.1753Z" fill="#263238"/>
<defs>
<linearGradient id="paint0_linear_96_4273" x1="58.3774" y1="0.679688" x2="58.2089" y2="35.1807" gradientUnits="userSpaceOnUse">
<stop stop-color="#7782FF"/>
<stop offset="1" stop-color="#7782FF" stop-opacity="0"/>
</linearGradient>
</defs>
</svg>
