<svg width="21" height="29" viewBox="0 0 21 29" fill="none" xmlns="http://www.w3.org/2000/svg">
<path d="M0.097168 25.9013V20.0774C0.097168 19.1904 0.548397 18.3643 1.29473 17.885L4.35365 15.9203C5.16676 15.3981 6.20213 15.3688 7.04351 15.8441L9.35997 17.1528C10.3196 17.695 11.5165 17.5747 12.3491 16.8525L16.6298 13.1395C18.317 11.6761 20.9429 12.8745 20.9429 15.1079V25.9013C20.9429 27.3404 19.7763 28.507 18.3372 28.507H2.70288C1.26379 28.507 0.097168 27.3404 0.097168 25.9013Z" fill="#FF97C0"/>
<path d="M0.965942 14.6107L4.67908 12.6663C5.43617 12.2699 6.33953 12.2699 7.09661 12.6663L9.35304 13.8479C10.243 14.3139 11.3216 14.2268 12.1252 13.6241L20.0745 7.66211" stroke="#FF5196" stroke-width="1.73714" stroke-linecap="round"/>
<path d="M9.9434 10.5815V1.89575H10.4998V10.5815H9.9434ZM11.4193 4.76271C11.3921 4.48902 11.2757 4.2764 11.0698 4.12485C10.864 3.97331 10.5846 3.89753 10.2318 3.89753C9.99203 3.89753 9.78959 3.93146 9.62447 3.99932C9.45935 4.06491 9.33268 4.15652 9.24447 4.27414C9.15852 4.39176 9.11554 4.52521 9.11554 4.6745C9.11102 4.7989 9.13703 4.90747 9.19358 5.00021C9.25239 5.09295 9.33268 5.17325 9.43447 5.2411C9.53626 5.3067 9.65387 5.36438 9.78733 5.41414C9.92078 5.46164 10.0633 5.50235 10.2148 5.53628L10.8391 5.68557C11.1422 5.75343 11.4204 5.8439 11.6738 5.957C11.9271 6.07009 12.1465 6.2092 12.332 6.37432C12.5174 6.53944 12.6611 6.73396 12.7629 6.95789C12.8669 7.18182 12.9201 7.43855 12.9223 7.72807C12.9201 8.15331 12.8115 8.522 12.5966 8.83414C12.384 9.14402 12.0764 9.38491 11.6738 9.55682C11.2734 9.72646 10.7905 9.81128 10.225 9.81128C9.66405 9.81128 9.17548 9.72533 8.75929 9.55343C8.34536 9.38152 8.02191 9.12706 7.78893 8.79003C7.55822 8.45075 7.43721 8.03116 7.4259 7.53128H8.84751C8.86334 7.76426 8.93007 7.95878 9.04768 8.11485C9.16757 8.26866 9.32703 8.38515 9.52608 8.46432C9.72739 8.54122 9.95471 8.57968 10.208 8.57968C10.4569 8.57968 10.6729 8.54349 10.8561 8.4711C11.0416 8.39872 11.1852 8.29807 11.287 8.16914C11.3888 8.04021 11.4396 7.89206 11.4396 7.72468C11.4396 7.5686 11.3933 7.43741 11.3005 7.3311C11.2101 7.2248 11.0766 7.13432 10.9002 7.05968C10.726 6.98503 10.5123 6.91718 10.2589 6.8561L9.50233 6.6661C8.91649 6.5236 8.45393 6.30081 8.11465 5.99771C7.77536 5.69462 7.60685 5.28634 7.60911 4.77289C7.60685 4.35218 7.71882 3.98462 7.94501 3.67021C8.17346 3.35581 8.48673 3.11039 8.88483 2.93396C9.28292 2.75753 9.7353 2.66932 10.242 2.66932C10.7577 2.66932 11.2078 2.75753 11.5923 2.93396C11.9791 3.11039 12.2799 3.35581 12.4948 3.67021C12.7097 3.98462 12.8205 4.34878 12.8273 4.76271H11.4193Z" fill="#FF5196"/>
</svg>
