<svg width="82" height="80" viewBox="0 0 82 80" fill="none" xmlns="http://www.w3.org/2000/svg">
<g style="mix-blend-mode:multiply">
<path d="M41.0948 79.1252C63.0101 79.1252 80.7759 61.537 80.7759 39.8409C80.7759 18.1448 63.0101 0.556641 41.0948 0.556641C19.1796 0.556641 1.41376 18.1448 1.41376 39.8409C1.41376 61.537 19.1796 79.1252 41.0948 79.1252Z" fill="white"/>
<path d="M41.0948 79.6801C18.9075 79.6801 0.852295 61.8055 0.852295 39.8401C0.852295 17.8747 18.9075 0 41.0948 0C63.2821 0 81.3373 17.8747 81.3373 39.8401C81.3373 61.8055 63.2821 79.6801 41.0948 79.6801ZM41.0948 1.11161C19.5251 1.11161 1.97513 18.4861 1.97513 39.8401C1.97513 61.1941 19.5251 78.5685 41.0948 78.5685C62.6645 78.5685 80.2144 61.1941 80.2144 39.8401C80.2144 18.4861 62.6645 1.11161 41.0948 1.11161Z" fill="#263238"/>
<path d="M46.754 4.5465C47.0235 4.56873 47.2593 4.57984 47.4502 4.57984L47.4277 4.7577C47.1133 4.80217 46.8439 5.0356 46.6305 5.48025L43.9582 10.7715L43.8796 10.7604L43.8122 10.7493L42.1167 4.84663C42.0044 4.45757 41.8135 4.24636 41.5441 4.21301L41.5665 4.03516C41.8135 4.07962 42.1392 4.11297 42.5434 4.15743C43.0711 4.2019 43.4641 4.23525 43.7224 4.23525L43.6999 4.4131C43.4641 4.40199 43.2957 4.4131 43.1946 4.44645C43.0936 4.4798 43.0374 4.56873 43.0262 4.67989C43.015 4.77993 43.0374 4.92444 43.0936 5.11342L44.3399 9.62655L46.1926 5.93601C46.3498 5.63587 46.4284 5.39132 46.4509 5.21346C46.4733 5.02449 46.4172 4.87998 46.2937 4.77993C46.1702 4.67989 45.968 4.62431 45.6986 4.59096L45.721 4.4131C46.0466 4.46868 46.3947 4.51315 46.754 4.5465Z" fill="#263238"/>
<path d="M54.2998 6.89124C54.1875 6.89124 54.0977 6.9357 54.0303 7.02463C53.963 7.11356 53.8844 7.25807 53.8058 7.46928L52.2001 11.6934C52.1215 11.9046 52.0766 12.0713 52.0766 12.1825C52.0766 12.2937 52.1103 12.3826 52.1889 12.4493C52.2675 12.516 52.4134 12.5938 52.6155 12.6827L52.5482 12.8495C52.2899 12.7383 51.9306 12.5938 51.4703 12.4159C50.9762 12.227 50.6057 12.1047 50.3586 12.0269L50.426 11.8601C50.6394 11.9268 50.7965 11.9602 50.8976 11.9602C50.9987 11.9602 51.0997 11.9157 51.1671 11.8268C51.2345 11.7379 51.3131 11.5933 51.3917 11.3821L52.9973 7.15803C53.0759 6.94682 53.1208 6.78008 53.1208 6.66892C53.1208 6.55776 53.0871 6.46883 53.0085 6.40213C52.9299 6.33544 52.784 6.25762 52.5819 6.16869L52.6492 6.00195C52.885 6.102 53.2443 6.24651 53.7384 6.43548C54.1987 6.61334 54.5693 6.73562 54.8388 6.81343L54.7714 6.98017C54.5693 6.91347 54.4121 6.88012 54.2998 6.89124Z" fill="#263238"/>
<path d="M64.2928 12.7723C64.1805 12.7501 64.0683 12.7834 63.9672 12.8501C63.8661 12.9168 63.7426 13.0502 63.6079 13.2392L60.3517 17.6078L60.1832 17.4855L60.6211 10.4602L57.7355 14.3286C57.6007 14.5176 57.5109 14.6732 57.466 14.7955C57.4211 14.9177 57.4435 15.0289 57.4997 15.1401C57.5558 15.2512 57.6905 15.3735 57.8814 15.5291L57.7691 15.6736C57.6007 15.5291 57.3537 15.3401 57.0281 15.0956C56.7361 14.8844 56.5003 14.7176 56.3207 14.6176L56.433 14.4731C56.6126 14.5954 56.7586 14.6621 56.8709 14.6732C56.9832 14.6954 57.0954 14.6621 57.1965 14.5954C57.2975 14.5176 57.4211 14.3953 57.5558 14.2063L60.2057 10.6492C60.3404 10.4602 60.4303 10.3157 60.4639 10.2156C60.4976 10.1156 60.4864 10.0155 60.4303 9.92661C60.3741 9.83768 60.2618 9.72652 60.0822 9.58201L60.1945 9.4375C60.3404 9.57089 60.565 9.74875 60.8682 9.95996C61.0927 10.1267 61.2836 10.2601 61.4633 10.3601L61.104 16.2517L63.4395 13.1169C63.5742 12.928 63.6753 12.7723 63.7089 12.6501C63.7426 12.5278 63.7314 12.4166 63.6753 12.3055C63.6191 12.1943 63.4844 12.0609 63.2935 11.9164L63.4058 11.7719C63.5742 11.9164 63.8212 12.1054 64.1469 12.3499C64.4388 12.5611 64.6746 12.7279 64.8542 12.8279L64.742 12.9724C64.5511 12.8613 64.4051 12.7834 64.2928 12.7723Z" fill="#263238"/>
<path d="M68.0544 17.7864C68.3463 17.5752 68.6495 17.3418 68.9751 17.0527C69.2558 17.4751 69.7499 18.1755 70.4572 19.1648C71.1646 20.143 71.6699 20.8322 71.9731 21.2324C71.5913 21.4547 71.2657 21.6548 70.9737 21.8549C70.7267 22.0327 70.5246 22.1884 70.3786 22.3106L70.2551 22.1439C70.6144 21.8327 70.8615 21.577 71.0074 21.388C71.1534 21.199 71.2095 20.9989 71.1983 20.7877C71.1871 20.5765 71.0523 20.3209 70.839 20.0096L70.5471 19.6094L66.2915 22.6108C66.0894 22.7553 65.9434 22.8887 65.8761 22.9887C65.8087 23.0888 65.7862 23.211 65.8312 23.3444C65.8648 23.4667 65.9659 23.6446 66.1119 23.8669L65.9659 23.9781C65.7975 23.7113 65.5392 23.3333 65.2024 22.8776C64.8431 22.3773 64.5736 22.0216 64.3939 21.7993L64.5399 21.6881C64.7083 21.8993 64.8431 22.0439 64.9553 22.1217C65.0676 22.1995 65.1799 22.2217 65.3034 22.1884C65.4269 22.155 65.5954 22.0661 65.7975 21.9216L70.053 18.9202L69.7611 18.5201C69.5365 18.2088 69.3344 18.0198 69.1435 17.9309C68.9526 17.842 68.7393 17.8309 68.5147 17.9087C68.2902 17.9865 67.9645 18.131 67.5491 18.3644L67.4256 18.1977C67.594 18.1088 67.7961 17.9754 68.0544 17.7864Z" fill="#263238"/>
<path d="M70.2099 33.2149L70.0303 33.2705C69.9629 33.0259 69.8731 32.7147 69.7383 32.3367C69.5699 31.8476 69.4352 31.4808 69.3341 31.2362L69.5138 31.1807C69.5924 31.3919 69.6822 31.5475 69.7496 31.6253C69.8282 31.7031 69.9292 31.7253 70.0415 31.6809C70.1426 31.6475 70.2661 31.5697 70.412 31.4474L71.6584 30.4359L70.951 28.3572L69.9068 28.3127C69.5699 28.2905 69.3117 28.3127 69.132 28.3794C68.9524 28.4461 68.8401 28.5461 68.7952 28.6906C68.7615 28.8352 68.7839 29.0464 68.8625 29.302L68.6829 29.3576C68.5931 29.0241 68.4808 28.6906 68.3685 28.3572C68.2787 28.1015 68.2001 27.8903 68.1215 27.7236L68.3011 27.668C68.4583 27.9348 68.7952 28.0793 69.2892 28.0904L75.2627 28.3572L75.3076 28.4906L70.5468 32.4145C70.2549 32.6924 70.1426 32.9481 70.2099 33.2149ZM74.1062 28.4906L71.1643 28.3683L71.8268 30.3247L74.1062 28.4906Z" fill="#263238"/>
<path d="M71.0298 41.7182C71.1421 41.6737 71.1982 41.6181 71.1982 41.5403C71.1982 41.4958 71.187 41.4625 71.1645 41.4291C71.1421 41.3958 71.0972 41.3291 71.0298 41.2402C70.8614 41.029 70.7378 40.8066 70.648 40.5843C70.5582 40.362 70.5133 40.1063 70.5133 39.8284C70.502 39.2059 70.6256 38.6723 70.8726 38.2166C71.1308 37.7608 71.4901 37.4162 71.9842 37.1717C72.467 36.9271 73.0509 36.8048 73.7358 36.7937C74.4432 36.7826 75.0608 36.8938 75.5885 37.1383C76.1162 37.3829 76.5317 37.7164 76.8236 38.161C77.1156 38.6057 77.2728 39.1059 77.2728 39.6617C77.2728 39.9062 77.2503 40.1286 77.2054 40.3175C77.1605 40.5065 77.0931 40.6732 77.0145 40.8178C76.9359 40.9623 76.8349 41.129 76.7001 41.3069C76.644 41.3847 76.6103 41.4514 76.6103 41.4958C76.6103 41.607 76.8012 41.6848 77.1717 41.7182V41.9294C76.7787 41.9071 76.0713 41.9071 75.0608 41.9294V41.7182C75.3864 41.6626 75.6559 41.5959 75.8692 41.5292C76.0825 41.4625 76.2622 41.3624 76.4194 41.2402C76.6327 41.0623 76.8124 40.8289 76.9359 40.5399C77.0594 40.2508 77.1156 39.9618 77.1156 39.6506C77.1043 39.2504 76.9696 38.9058 76.7001 38.6056C76.4306 38.3055 76.0489 38.0832 75.566 37.9165C75.072 37.7608 74.5106 37.683 73.8593 37.6941C73.1183 37.7052 72.5232 37.7942 72.0516 37.9609C71.58 38.1277 71.2431 38.3722 71.0186 38.6946C70.794 39.0169 70.6929 39.4282 70.7042 39.9285C70.7154 40.2953 70.8164 40.6065 71.0073 40.8733C71.0859 40.9845 71.1533 41.0512 71.2319 41.0845C71.2993 41.1179 71.4003 41.129 71.5238 41.129L72.4109 41.1179C72.6691 41.1179 72.8488 41.0845 72.9723 41.0401C73.0846 40.9956 73.1744 40.9067 73.2081 40.7733C73.253 40.651 73.2755 40.4509 73.2755 40.1841H73.4551C73.4439 40.4843 73.4327 40.9067 73.4439 41.4736C73.4551 41.896 73.4663 42.2184 73.4888 42.4185H73.3091C73.2979 42.274 73.2642 42.1739 73.2305 42.1183C73.1969 42.0628 73.1183 42.0183 73.0172 41.9961C72.9161 41.9738 72.7477 41.9627 72.5119 41.9738L70.6929 42.0072V41.8293C70.794 41.7849 70.9175 41.7626 71.0298 41.7182Z" fill="#263238"/>
<path d="M69.694 51.1778C69.3684 51.0777 68.9866 50.9777 68.5487 50.8887C68.6947 50.4997 68.908 49.8438 69.2112 48.9101C69.5705 47.7985 69.8287 46.9536 69.9859 46.3867L70.1656 46.4423C70.1094 46.6535 70.087 46.8091 70.087 46.9203C70.0982 47.0315 70.1431 47.1093 70.233 47.176C70.3228 47.2427 70.48 47.3094 70.6933 47.3761L75.0387 48.7322C75.2633 48.7989 75.4205 48.8323 75.5328 48.8323C75.645 48.8323 75.7349 48.7878 75.8022 48.6989C75.8696 48.6099 75.937 48.4654 76.0156 48.2653L76.1952 48.3209C75.9931 48.8878 75.7236 49.7215 75.3643 50.8332C75.0948 51.678 74.904 52.2894 74.8141 52.6562C74.4436 52.5006 74.1067 52.3672 73.7924 52.2782C73.5678 52.2115 73.3769 52.156 73.2422 52.1337L73.3095 51.9336C73.7025 52.0115 74.0057 52.0448 74.2078 52.0448C74.4099 52.0448 74.5783 51.9781 74.7131 51.8447C74.8478 51.7224 74.9601 51.5001 75.0612 51.2L75.2857 50.4774C75.3531 50.2662 75.3868 50.1106 75.3756 50.0106C75.3643 49.9105 75.3306 49.8216 75.2408 49.7549C75.151 49.6882 75.005 49.6215 74.7804 49.5548L72.7144 48.9101L72.5348 49.4881C72.445 49.7771 72.4674 49.9994 72.6134 50.1551C72.7593 50.3107 72.9165 50.4219 73.0962 50.4997C73.2758 50.5775 73.3881 50.6331 73.433 50.6553L73.3657 50.8554C73.085 50.7442 72.8155 50.6442 72.546 50.5664L72.1306 50.4441C71.8386 50.3552 71.4119 50.2329 70.873 50.1106L70.9403 49.9105C70.9853 49.9216 71.1312 49.9439 71.3783 49.9994C71.6253 50.0439 71.8386 50.0217 72.007 49.9327C72.1755 49.8438 72.2878 49.6771 72.3664 49.4436L72.546 48.8656L70.4351 48.2098C70.2105 48.1431 70.0533 48.1097 69.941 48.1097C69.8287 48.1097 69.7389 48.1542 69.6828 48.2431C69.6154 48.332 69.548 48.4765 69.4807 48.6877L69.2785 49.3214C69.1663 49.6882 69.1214 49.9772 69.1663 50.1884C69.2 50.4107 69.3122 50.5886 69.5031 50.7442C69.694 50.8887 69.9859 51.0555 70.3789 51.2333L70.3116 51.4334C70.1768 51.3334 69.9635 51.2667 69.694 51.1778Z" fill="#263238"/>
<path d="M66.4935 64.8174C66.5384 64.7173 66.5272 64.6173 66.4822 64.5172C66.4373 64.4172 66.3251 64.2949 66.1566 64.1282L62.8555 61.0045C62.6871 60.8489 62.5523 60.7489 62.4513 60.7044C62.3502 60.6599 62.2492 60.6599 62.1481 60.7044C62.047 60.7489 61.9235 60.8489 61.7663 61.0045L61.6316 60.8823C61.8449 60.6933 62.1144 60.4154 62.4625 60.0708C62.8218 59.6928 63.0913 59.4038 63.2597 59.2148L63.3944 59.3371C63.2485 59.5039 63.1587 59.6373 63.1137 59.7262C63.0688 59.8262 63.08 59.9263 63.125 60.0263C63.1699 60.1264 63.2822 60.2486 63.4506 60.4154L66.7517 63.539C66.9202 63.6946 67.0549 63.7947 67.1559 63.8391C67.257 63.8836 67.3581 63.8836 67.4591 63.8391C67.5602 63.7947 67.6837 63.6946 67.8409 63.539L67.9756 63.6613C67.7847 63.828 67.504 64.1059 67.1447 64.4839C66.7966 64.8396 66.5384 65.1286 66.3587 65.3398L66.224 65.2175C66.3587 65.0508 66.4486 64.9174 66.4935 64.8174Z" fill="#263238"/>
<path d="M57.1403 71.5985C57.2077 71.4985 57.2189 71.3985 57.1965 71.2762C57.174 71.1539 57.0954 70.9983 56.9719 70.7871L54.1873 66.1072L54.3669 65.996L60.7222 69.1419L58.2632 65.0067C58.1396 64.8066 58.0386 64.6621 57.9375 64.5843C57.8365 64.5065 57.7242 64.4731 57.6007 64.4842C57.4772 64.4954 57.3087 64.5621 57.0954 64.6732L56.9943 64.5176C57.1965 64.4287 57.4659 64.273 57.814 64.0729C58.1284 63.884 58.3642 63.7395 58.5326 63.6172L58.6225 63.7728C58.4428 63.884 58.3193 63.9951 58.2632 64.0952C58.1958 64.1952 58.1846 64.2953 58.207 64.4175C58.2295 64.5398 58.3081 64.6954 58.4316 64.9067L60.6997 68.7195C60.812 68.9196 60.9131 69.053 61.0029 69.1197C61.0927 69.1863 61.1825 69.2197 61.2948 69.1975C61.3959 69.1752 61.5531 69.1197 61.744 69.0196L61.8338 69.1752C61.6541 69.2642 61.4071 69.3976 61.0815 69.5865C60.8457 69.7199 60.6436 69.8533 60.4751 69.9645L55.1417 67.33L57.1403 70.687C57.2638 70.8871 57.3649 71.0316 57.4659 71.1094C57.5558 71.1872 57.6681 71.2206 57.8028 71.2095C57.9375 71.1984 58.106 71.1317 58.3193 71.0205L58.4091 71.1761C58.207 71.2651 57.9375 71.4207 57.5895 71.6208C57.2751 71.8097 57.0393 71.9543 56.8708 72.0765L56.781 71.9209C56.9494 71.7986 57.0729 71.6875 57.1403 71.5985Z" fill="#263238"/>
<path d="M50.9649 73.0545C51.0435 73.3991 51.1445 73.7771 51.2793 74.1773C50.774 74.2662 49.9319 74.4441 48.7416 74.6886C47.5514 74.9443 46.7205 75.1332 46.2265 75.2555C46.1703 74.822 46.1142 74.4441 46.0356 74.0995C45.9682 73.7993 45.9121 73.5548 45.8447 73.3769L46.0468 73.3324C46.1928 73.7882 46.3275 74.1106 46.4511 74.3218C46.5746 74.533 46.7318 74.6664 46.9339 74.7331C47.136 74.7998 47.4279 74.7886 47.7985 74.7108L48.2813 74.6108L47.1809 69.553C47.1248 69.3084 47.0686 69.1306 46.99 69.0305C46.9114 68.9305 46.8216 68.8638 46.6869 68.8527C46.5521 68.8304 46.35 68.8527 46.0805 68.8971L46.0468 68.7193C46.3612 68.6748 46.8104 68.5859 47.3718 68.4636C47.9669 68.3302 48.416 68.2302 48.6967 68.1523L48.7304 68.3302C48.4609 68.3969 48.2813 68.4636 48.169 68.5303C48.0567 68.597 47.9893 68.697 47.9669 68.8193C47.9444 68.9416 47.9557 69.1306 48.0118 69.3751L49.1122 74.4329L49.595 74.3329C49.9655 74.2551 50.235 74.1439 50.3922 73.9994C50.5494 73.8549 50.6392 73.6659 50.6617 73.4325C50.6842 73.199 50.6729 72.8433 50.6168 72.3765L50.8189 72.332C50.8526 72.5098 50.8975 72.7544 50.9649 73.0545Z" fill="#263238"/>
<path d="M36.0644 69.9309C36.0981 69.5863 36.1093 69.1972 36.1093 68.7637C36.5248 68.8193 37.2209 68.8859 38.209 68.9749C39.3768 69.0749 40.2638 69.1527 40.8701 69.1861L40.8589 69.3639C40.6343 69.3528 40.4771 69.3639 40.3761 69.3973C40.275 69.4306 40.1964 69.4862 40.1515 69.5863C40.1066 69.6863 40.0729 69.853 40.0505 70.0754L39.6462 74.5774C39.6238 74.7997 39.635 74.9665 39.6575 75.0776C39.6799 75.1888 39.7473 75.2666 39.8484 75.311C39.9494 75.3555 40.1066 75.4 40.3199 75.4222L40.3087 75.6001C39.7136 75.5334 38.8266 75.4444 37.6588 75.3444C36.7606 75.2666 36.1205 75.2221 35.7388 75.1999C35.8174 74.8108 35.8735 74.4551 35.896 74.1327C35.9184 73.8993 35.9297 73.7103 35.9184 73.5658L36.1318 73.5881C36.143 73.9882 36.1654 74.2773 36.2216 74.4773C36.2665 74.6774 36.3676 74.8219 36.5248 74.922C36.6707 75.022 36.9178 75.0887 37.2321 75.111L37.9957 75.1777C38.2202 75.1999 38.3774 75.1888 38.4785 75.1665C38.5795 75.1443 38.6581 75.0776 38.7031 74.9776C38.748 74.8775 38.7817 74.7108 38.8041 74.4885L38.995 72.3542L38.3887 72.2986C38.0855 72.2764 37.8722 72.343 37.7486 72.5209C37.6364 72.6988 37.5465 72.8766 37.5129 73.0656C37.4679 73.2546 37.4455 73.3768 37.4343 73.4324L37.2209 73.4102C37.2658 73.1101 37.2995 72.8322 37.3332 72.5543L37.3669 72.1207C37.3893 71.8095 37.4118 71.3871 37.4343 70.8313L37.6476 70.8535C37.6476 70.898 37.6588 71.0425 37.6588 71.2981C37.67 71.5538 37.7262 71.7539 37.8609 71.8873C37.9844 72.0318 38.1753 72.1096 38.4224 72.1318L39.0287 72.1874L39.2196 70.0087C39.242 69.7864 39.2308 69.6196 39.2083 69.5084C39.1859 69.4084 39.1185 69.3306 39.0175 69.2861C38.9164 69.2417 38.7592 69.2083 38.5459 69.1861L37.8722 69.1305C37.4904 69.0972 37.1985 69.1194 36.9851 69.2083C36.783 69.2861 36.6258 69.4418 36.5135 69.653C36.4012 69.8642 36.3114 70.1865 36.2216 70.6089L36.0083 70.5867C36.0083 70.42 36.0307 70.1976 36.0644 69.9309Z" fill="#263238"/>
<path d="M27.2281 65.8076C27.3965 65.7743 27.5874 65.8076 27.7895 65.8965C28.0253 65.9966 28.1825 66.1411 28.2723 66.3301C28.3621 66.5302 28.3733 66.8081 28.3172 67.1749L28.1488 68.0864C28.0926 68.4088 28.059 68.6533 28.0477 68.8423C28.0365 69.0202 28.0814 69.1869 28.16 69.3314C28.2386 69.4759 28.3846 69.5871 28.5979 69.676L29.4064 70.0095L30.226 68.0753C30.3159 67.8641 30.3608 67.7085 30.372 67.5973C30.3832 67.4861 30.3383 67.3972 30.2597 67.3194C30.1811 67.2416 30.0464 67.1638 29.8443 67.0748L29.9116 66.9081C30.1699 67.0304 30.518 67.186 30.9783 67.375C31.4611 67.5751 31.8317 67.7196 32.0787 67.7974L32.0113 67.9641C31.798 67.8863 31.6408 67.853 31.5397 67.8418C31.4275 67.8418 31.3376 67.8752 31.2703 67.9641C31.1917 68.0419 31.1131 68.1864 31.0232 68.3977L29.2604 72.5662C29.1706 72.7774 29.1256 72.933 29.1144 73.0442C29.1032 73.1553 29.1481 73.2443 29.2267 73.3221C29.3053 73.3999 29.44 73.4777 29.6422 73.5778L29.5748 73.7445C29.339 73.6333 29.0021 73.4777 28.553 73.2887C28.3284 73.1998 28.0926 73.0998 27.8232 72.9886C27.5537 72.8774 27.374 72.8107 27.273 72.7663C26.8351 72.5773 26.487 72.3661 26.2287 72.1104C25.9705 71.8548 25.8245 71.588 25.7571 71.299C25.6898 71.0099 25.7235 70.732 25.847 70.4541C25.9368 70.2318 26.0828 70.0317 26.2849 69.8539C26.487 69.676 26.7452 69.5426 27.0596 69.4759C27.374 69.4092 27.7558 69.4203 28.1712 69.5204L28.0702 69.4648C27.8344 69.3203 27.6547 69.1758 27.5424 69.0202C27.4302 68.8756 27.3516 68.7089 27.3291 68.531C27.2954 68.3532 27.3067 68.1309 27.3516 67.8641L27.5088 66.9192C27.5424 66.7302 27.5649 66.5857 27.5649 66.4746C27.5649 66.3634 27.5537 66.2745 27.52 66.2078C27.4863 66.1411 27.4302 66.0855 27.3516 66.0633C27.2617 66.0188 27.1719 66.0188 27.0933 66.041C27.0147 66.0633 26.9024 66.1189 26.7565 66.1967L26.6666 66.0522C26.8687 65.9299 27.0596 65.841 27.2281 65.8076ZM27.7895 69.7649C27.52 69.7983 27.3067 69.8983 27.1382 70.0651C26.9698 70.2318 26.8238 70.4541 26.7003 70.7431C26.5094 71.1989 26.4645 71.5991 26.588 71.9215C26.7115 72.2438 27.0147 72.5106 27.52 72.7218C27.6996 72.7996 27.8344 72.833 27.9467 72.8219C28.0477 72.8219 28.1376 72.7774 28.2161 72.6885C28.2947 72.5995 28.3733 72.455 28.4519 72.2549L29.3278 70.1873L28.7551 69.9539C28.3846 69.7983 28.059 69.7316 27.7895 69.7649Z" fill="#263238"/>
<path d="M18.4696 67.3194C18.5707 67.3527 18.6717 67.3305 18.7616 67.2749C18.8514 67.2193 18.9749 67.0971 19.1209 66.9192L21.9392 63.362C22.0852 63.1842 22.175 63.0397 22.2087 62.9396C22.2424 62.8396 22.2311 62.7395 22.175 62.6506C22.1188 62.5617 22.0066 62.4394 21.8381 62.2949L21.9504 62.1504C22.1638 62.3394 22.4557 62.5839 22.8487 62.8841C23.2641 63.2064 23.5785 63.4399 23.7919 63.5844L23.6796 63.7289C23.4999 63.5955 23.354 63.5177 23.2529 63.4954C23.1519 63.4621 23.0508 63.4732 22.961 63.5399C22.8711 63.5955 22.7476 63.7178 22.6017 63.8956L19.7833 67.4528C19.6374 67.6306 19.5476 67.7751 19.5139 67.8752C19.4802 67.9752 19.4914 68.0753 19.5475 68.1642C19.6037 68.2531 19.716 68.3754 19.8844 68.5199L19.7721 68.6644C19.5812 68.4977 19.2781 68.2531 18.8626 67.9196C18.4696 67.6195 18.1552 67.3861 17.9307 67.2304L18.0429 67.0859C18.2338 67.2082 18.3686 67.286 18.4696 67.3194Z" fill="#263238"/>
<path d="M11.2164 59.4053C11.1715 58.905 11.2838 58.4048 11.542 57.9268C11.8115 57.4377 12.2157 57.0042 12.7771 56.5929C13.3273 56.2038 13.8775 55.9482 14.4502 55.8481C15.0228 55.7481 15.5505 55.7814 16.0446 55.9704C16.5386 56.1594 16.9541 56.4817 17.2797 56.9375C17.6278 57.4044 17.8187 57.8935 17.8636 58.3937C17.9085 58.8939 17.7962 59.3942 17.538 59.8721C17.2685 60.3613 16.8643 60.7948 16.3028 61.2061C15.7526 61.5951 15.2025 61.8508 14.6298 61.9509C14.0684 62.0509 13.5294 62.0176 13.0354 61.8286C12.5413 61.6396 12.1259 61.3172 11.8003 60.8726C11.4522 60.3946 11.2613 59.9055 11.2164 59.4053ZM12.9006 61.3839C13.2936 61.4617 13.7428 61.4284 14.2368 61.2728C14.7309 61.1171 15.2249 60.8615 15.7414 60.4835C16.2579 60.1167 16.6621 59.7165 16.9429 59.2941C17.2348 58.8717 17.392 58.4493 17.4144 58.0491C17.4481 57.6489 17.3471 57.2932 17.1337 56.9931C16.8979 56.6818 16.5948 56.4817 16.1906 56.4039C15.7976 56.3261 15.3484 56.3595 14.8544 56.5151C14.3603 56.6707 13.8663 56.9264 13.3498 57.2932C12.8333 57.66 12.429 58.0602 12.1483 58.4938C11.8564 58.9162 11.6992 59.3275 11.6655 59.7388C11.6318 60.1389 11.7329 60.4946 11.9462 60.7948C12.182 61.106 12.4964 61.3061 12.9006 61.3839Z" fill="#263238"/>
<path d="M12.0808 46.0207C12.2156 46.1207 12.3166 46.2875 12.384 46.5098C12.4626 46.7432 12.4513 46.9656 12.3615 47.1545C12.2717 47.3546 12.0584 47.5436 11.7327 47.7326L10.9131 48.1883C10.6324 48.3551 10.419 48.4885 10.273 48.5996C10.1271 48.7108 10.026 48.8442 9.96988 48.9998C9.91373 49.1554 9.91373 49.3333 9.9811 49.5556L10.2394 50.3893L12.2605 49.7668C12.485 49.7001 12.631 49.6334 12.7208 49.5667C12.8107 49.5 12.8556 49.4111 12.8668 49.3111C12.878 49.211 12.8443 49.0443 12.7882 48.8331L12.9679 48.7775C13.0352 49.0443 13.1363 49.4222 13.2935 49.8891C13.4507 50.3893 13.5742 50.7561 13.664 50.9896L13.4844 51.0452C13.4058 50.834 13.3384 50.6894 13.271 50.6116C13.2036 50.5338 13.1138 50.4782 13.0015 50.4782C12.8893 50.4782 12.7208 50.5005 12.5075 50.5783L8.15088 51.9122C7.92631 51.9789 7.78034 52.0456 7.69052 52.1123C7.60069 52.179 7.55578 52.2679 7.54455 52.368C7.53332 52.4791 7.567 52.6348 7.62315 52.846L7.44349 52.9016C7.38735 52.657 7.2863 52.3013 7.14033 51.8344C7.07296 51.6121 6.98313 51.3564 6.8933 51.0896C6.80348 50.8228 6.73611 50.6339 6.70242 50.5338C6.55645 50.0781 6.51154 49.6779 6.54522 49.3222C6.57891 48.9665 6.69119 48.6774 6.87085 48.444C7.0505 48.2106 7.2863 48.0549 7.57823 47.966C7.8028 47.8993 8.04982 47.8771 8.31931 47.9104C8.58879 47.9438 8.84704 48.0549 9.11652 48.255C9.386 48.4551 9.61057 48.7441 9.80145 49.1332L9.79022 49.022C9.75654 48.7441 9.74531 48.5218 9.79022 48.3328C9.83514 48.1439 9.91373 47.9882 10.026 47.8548C10.1495 47.7215 10.3292 47.5769 10.565 47.4436L11.3959 46.9544C11.5643 46.8655 11.699 46.7766 11.7776 46.7099C11.8562 46.6432 11.9236 46.5765 11.9573 46.5098C11.991 46.4431 11.991 46.3653 11.9685 46.2875C11.9348 46.1874 11.8899 46.1207 11.8226 46.0763C11.7552 46.0318 11.6429 45.9762 11.4857 45.9206L11.5418 45.7539C11.7664 45.8317 11.9573 45.9206 12.0808 46.0207ZM9.39723 48.9998C9.20635 48.8219 8.98178 48.7219 8.74598 48.6997C8.51019 48.6774 8.24071 48.7108 7.93754 48.8108C7.45472 48.9553 7.1291 49.1888 6.94944 49.4889C6.76979 49.789 6.76979 50.2003 6.92699 50.7006C6.98313 50.8784 7.0505 51.0118 7.11787 51.0896C7.18524 51.1674 7.2863 51.2119 7.39858 51.2119C7.51086 51.2119 7.67929 51.1786 7.8814 51.123L10.0372 50.456L9.85759 49.8669C9.74531 49.4667 9.58811 49.1777 9.39723 48.9998Z" fill="#263238"/>
<path d="M11.2163 35.4721C11.6429 35.2831 11.9012 34.9274 12.0135 34.3938C12.0472 34.1937 12.0472 33.9936 11.991 33.8046C11.9349 33.6157 11.8338 33.4489 11.6766 33.3044C11.5194 33.1599 11.3061 33.0599 11.0254 33.0154C10.7896 32.9709 10.5762 32.9932 10.3741 33.071C10.172 33.1488 9.9699 33.2711 9.77902 33.4378C9.58814 33.6046 9.36357 33.8269 9.11655 34.1048C8.83584 34.416 8.58881 34.6717 8.37548 34.8496C8.16214 35.0385 7.92634 35.1719 7.66809 35.272C7.40984 35.372 7.1179 35.3831 6.79228 35.3276C6.45542 35.2609 6.17471 35.1386 5.9726 34.9385C5.77049 34.7384 5.62452 34.505 5.55715 34.2271C5.48978 33.9492 5.48978 33.6601 5.54593 33.3489C5.57961 33.1599 5.62452 33.0154 5.68067 32.882C5.73681 32.7486 5.79295 32.6486 5.86032 32.5708C5.92769 32.4929 5.99506 32.404 6.08489 32.3151C6.19717 32.1928 6.25331 32.1039 6.27577 32.0372C6.287 31.9816 6.26454 31.9371 6.2084 31.8927C6.15226 31.8482 6.0512 31.8149 5.91646 31.7704L5.95015 31.5703C6.29823 31.6592 6.90456 31.7926 7.7916 31.9594L7.75792 32.1595C7.44352 32.1261 7.15158 32.1372 6.85965 32.2039C6.57894 32.2595 6.33191 32.3818 6.1298 32.5708C5.92769 32.7486 5.79295 33.0043 5.73681 33.3155C5.69189 33.5267 5.70312 33.7157 5.75926 33.9047C5.81541 34.0937 5.91646 34.2382 6.0512 34.3605C6.19717 34.4827 6.3656 34.5605 6.56771 34.605C6.89333 34.6606 7.17404 34.6161 7.40984 34.4605C7.64563 34.3049 7.8702 34.1048 8.08354 33.8713C8.29688 33.6379 8.43162 33.4823 8.51022 33.4045C8.82461 33.071 9.08286 32.8153 9.2962 32.6263C9.50954 32.4374 9.74534 32.304 10.0036 32.215C10.2618 32.1261 10.5426 32.115 10.8457 32.1706C11.2163 32.2373 11.5194 32.3818 11.744 32.593C11.9686 32.8153 12.1145 33.071 12.1931 33.3822C12.2717 33.6935 12.2717 34.027 12.2044 34.3827C12.1482 34.6717 12.0808 34.894 11.9798 35.0719C11.89 35.2497 11.7664 35.4054 11.6317 35.5499C11.5194 35.6722 11.4633 35.7611 11.4408 35.8278C11.4296 35.8834 11.452 35.9278 11.5082 35.9723C11.5643 36.0167 11.6654 36.0612 11.8001 36.0946L11.7664 36.2947C11.4408 36.2057 10.7222 36.0612 9.6106 35.8611L9.64428 35.661C10.2731 35.7166 10.7896 35.661 11.2163 35.4721Z" fill="#263238"/>
<path d="M8.99309 26.1006C8.67869 25.9339 8.31938 25.7783 7.91516 25.6227C8.16219 25.1891 8.57764 24.4332 9.13905 23.355C9.70047 22.2878 10.0935 21.5319 10.3068 21.0762C10.6773 21.3096 11.0142 21.5097 11.3174 21.6653C11.5868 21.8098 11.8226 21.9099 12.0023 21.9877L11.9012 22.1767C11.4521 21.9988 11.1152 21.8876 10.8795 21.8543C10.6437 21.8098 10.4303 21.8543 10.2507 21.9655C10.071 22.0766 9.89135 22.2989 9.72293 22.6324L9.49836 23.0771L14.1357 25.467C14.3602 25.5893 14.5399 25.6449 14.6634 25.656C14.7869 25.6671 14.8992 25.6338 15.0003 25.5448C15.1013 25.4559 15.2136 25.2892 15.3483 25.0557L15.5168 25.1447C15.3483 25.4226 15.135 25.8116 14.8655 26.323C14.5848 26.8565 14.3827 27.2678 14.2592 27.5235L14.0908 27.4346C14.2031 27.19 14.2816 27.001 14.2929 26.8788C14.3153 26.7454 14.2816 26.6342 14.1918 26.5342C14.102 26.4341 13.956 26.3341 13.7315 26.2118L9.09414 23.8107L8.85834 24.2443C8.67869 24.5777 8.60009 24.8445 8.61132 25.0557C8.62255 25.2669 8.71238 25.4559 8.8808 25.6227C9.04923 25.7894 9.32994 26.0117 9.73416 26.2674L9.6331 26.4564C9.48713 26.3674 9.26257 26.2452 8.99309 26.1006Z" fill="#263238"/>
<path d="M16.9201 13.3283C17.111 13.1394 17.2682 12.9615 17.3805 12.8281L17.5152 12.9615C17.4478 13.0616 17.4141 13.2061 17.4254 13.3728C17.4366 13.5396 17.4815 13.773 17.5713 14.0509L18.5931 17.0634L19.7833 18.2305C19.9518 18.3862 20.0753 18.4973 20.1763 18.5418C20.2774 18.5863 20.3784 18.5863 20.4795 18.5418C20.5805 18.4973 20.7041 18.3973 20.8725 18.2528L21.0072 18.3862C20.7939 18.5751 20.5132 18.8419 20.1651 19.1865C19.7946 19.5534 19.5251 19.8424 19.3566 20.0314L19.2219 19.898C19.3679 19.7312 19.4689 19.6089 19.5138 19.5089C19.5588 19.4088 19.5588 19.3088 19.5026 19.2088C19.4577 19.1087 19.3454 18.9753 19.1882 18.8197L18.2001 17.8526L14.4498 16.7632C14.2253 16.6965 14.0569 16.6743 13.9446 16.6854C13.8323 16.6965 13.7537 16.7299 13.6975 16.7855L13.5628 16.6521C13.7425 16.4964 13.9446 16.3186 14.1467 16.1074C14.5621 15.685 14.8653 15.3848 15.0337 15.1847L15.1685 15.3181C14.8653 15.6183 14.7979 15.8517 14.9664 16.0184C15.0337 16.0851 15.1235 16.1296 15.2583 16.1741L18.4135 17.1412L17.5826 14.6845C17.4591 14.3288 17.3355 14.0842 17.2008 13.962C17.0773 13.8397 16.9425 13.8063 16.7966 13.8508C16.6506 13.8953 16.4822 14.0064 16.2801 14.1954L16.1453 14.062C16.4148 13.8175 16.6618 13.5729 16.9201 13.3283Z" fill="#263238"/>
<path d="M23.7136 8.84894C23.6462 8.92675 23.6125 9.0268 23.635 9.13796C23.6575 9.24912 23.7136 9.40475 23.8259 9.60484L25.993 13.5844C26.1052 13.7845 26.1951 13.9179 26.2849 13.9957C26.3635 14.0735 26.4646 14.0957 26.5656 14.0846C26.6667 14.0735 26.8239 14.0068 27.0147 13.9068L27.6098 13.5844C27.9467 13.4065 28.1825 13.2176 28.306 13.0286C28.4295 12.8396 28.4744 12.6284 28.4407 12.3727C28.4071 12.1171 28.306 11.7947 28.1264 11.3723L28.3172 11.2722C28.3958 11.4501 28.5081 11.6724 28.6541 11.9392C28.8225 12.2393 29.0246 12.5728 29.2716 12.9397C28.9011 13.1175 28.2723 13.4399 27.4077 13.9068C26.3747 14.4626 25.5887 14.885 25.0722 15.1851L24.9824 15.0295C25.1733 14.9183 25.308 14.8183 25.3754 14.7405C25.4428 14.6627 25.4765 14.5626 25.454 14.4514C25.4315 14.3403 25.3754 14.1847 25.2631 13.9846L23.0736 10.005C22.9613 9.80492 22.8715 9.67153 22.7816 9.59372C22.703 9.51591 22.602 9.49367 22.5009 9.50479C22.3887 9.51591 22.2427 9.57149 22.0406 9.67153L21.962 9.50479C22.1978 9.40475 22.5459 9.22689 23.0062 8.97122C23.4441 8.73778 23.781 8.54881 24.0168 8.4043L24.1066 8.55992C23.9157 8.67108 23.7922 8.77113 23.7136 8.84894Z" fill="#263238"/>
<path d="M37.3898 9.56081C37.4572 9.89429 37.5582 10.2722 37.6818 10.6947C37.2663 10.7613 36.5814 10.8836 35.6157 11.0726C34.4592 11.2949 33.5946 11.4728 32.9995 11.6062L32.9658 11.4283C33.1792 11.3727 33.3364 11.3283 33.4262 11.2616C33.516 11.206 33.5722 11.1171 33.5834 11.017C33.5946 10.9059 33.5834 10.7391 33.5385 10.5168L32.6627 6.08148C32.6178 5.85915 32.5728 5.70353 32.5055 5.60348C32.4381 5.50344 32.3707 5.44786 32.2584 5.43674C32.1574 5.41451 31.989 5.42563 31.7756 5.45897L31.7419 5.28112C32.337 5.18107 33.2129 5.02545 34.3582 4.80313C35.2452 4.62527 35.874 4.50299 36.2333 4.41406C36.267 4.81424 36.3231 5.16996 36.3793 5.48121C36.4242 5.71464 36.4691 5.8925 36.514 6.0259L36.3119 6.07036C36.1884 5.69241 36.0761 5.41451 35.975 5.23665C35.874 5.0588 35.728 4.94763 35.5596 4.89205C35.3799 4.83647 35.1441 4.83647 34.8185 4.90317L34.0662 5.04768C33.8529 5.09214 33.6957 5.13661 33.6059 5.19219C33.516 5.24777 33.4599 5.32558 33.4374 5.43674C33.4262 5.5479 33.4374 5.71465 33.4823 5.93697L33.8978 8.04902L34.4929 7.92675C34.7961 7.87117 34.9757 7.73777 35.0431 7.53768C35.1105 7.33759 35.1329 7.14862 35.1217 6.95965C35.1105 6.77067 35.0992 6.6484 35.0992 6.59282L35.3013 6.54835C35.335 6.84849 35.3799 7.12639 35.4361 7.39317L35.5259 7.81559C35.582 8.11572 35.6831 8.53813 35.8291 9.0717L35.627 9.11617C35.6157 9.0717 35.5708 8.93831 35.4922 8.69376C35.4136 8.4492 35.3013 8.28246 35.1329 8.18242C34.9645 8.08237 34.7736 8.06014 34.5266 8.1046L33.9315 8.21576L34.3582 10.3612C34.4031 10.5835 34.448 10.7391 34.5041 10.8392C34.5603 10.9281 34.6389 10.9837 34.7511 11.0059C34.8522 11.017 35.0206 11.0059 35.234 10.9614L35.8964 10.828C36.267 10.7502 36.5477 10.6502 36.7273 10.5168C36.907 10.3834 37.0081 10.1944 37.053 9.96099C37.0979 9.72755 37.0979 9.39407 37.0642 8.96054L37.2663 8.91608C37.3 9.08282 37.3337 9.29403 37.3898 9.56081Z" fill="#263238"/>
<path d="M29.8218 52.0116C29.3052 51.3224 28.8561 50.5665 28.4631 49.7328C28.0701 48.899 27.7557 48.0542 27.5199 47.1872C27.0034 43.3743 26.9922 39.6727 27.475 36.0822C27.9578 32.4917 28.7438 28.9568 29.8218 25.4663C30.0014 25.0773 30.3944 24.8883 31.0007 24.8883C31.6071 24.8883 32.2022 25.0217 32.8085 25.2885C33.4148 25.5553 33.9089 25.911 34.3019 26.3556C34.6949 26.8003 34.7847 27.2671 34.5714 27.7451C34.2345 28.4566 33.9089 29.4237 33.5833 30.6242C33.2576 31.8358 32.932 33.1698 32.6401 34.626C32.3369 36.0822 32.0787 37.6162 31.8541 39.2058C31.6295 40.7954 31.4611 42.3294 31.36 43.7856C31.259 45.2418 31.2365 46.5647 31.2927 47.743C31.3488 48.9213 31.5285 49.855 31.8316 50.5331C33.2464 48.6545 34.5377 46.7092 35.7166 44.6972C36.8956 42.6852 37.996 40.6509 39.029 38.5722C40.062 36.5046 41.0501 34.4148 41.9821 32.2916C42.914 30.1795 43.8348 28.0897 44.733 26.0332C45.1822 24.9883 45.6313 23.8878 46.0692 22.7318C46.5071 21.5646 47.0798 20.5752 47.8096 19.7415C48.1128 19.4748 48.3486 19.3858 48.5058 19.4748C48.6742 19.5637 48.7865 19.7304 48.8426 19.9861C48.8988 20.2418 48.9324 20.5086 48.9324 20.7865C48.9324 21.0644 48.9324 21.2867 48.9324 21.4312C48.7191 22.7985 48.5395 24.1546 48.3935 25.4997C48.2475 26.8447 47.9219 28.1342 47.4503 29.3903C46.6643 31.3579 45.8671 33.3032 45.0362 35.2485C44.2053 37.1827 43.3183 39.0947 42.3751 40.9733C41.4319 42.8519 40.3989 44.6749 39.3097 46.4424C38.2093 48.221 37.0191 49.9106 35.7166 51.5113C34.6949 52.7897 33.6731 53.4678 32.6738 53.5456C31.6295 53.6345 30.6976 53.112 29.8218 52.0116Z" fill="#FF5196" stroke="white" stroke-miterlimit="10"/>
<path d="M48.4161 46.9645C47.8098 46.1308 47.2146 45.286 46.6308 44.4189C46.0469 43.5519 45.755 42.607 45.755 41.5621C45.755 40.406 46.0918 39.3055 46.7655 38.2717C47.4392 37.249 48.214 36.4153 49.0898 35.7928C49.4491 35.5594 49.8196 35.3593 50.1902 35.2148C50.5607 35.0703 50.9649 35.0814 51.3916 35.2593C51.5713 35.3482 51.7621 35.4149 51.953 35.4593C52.1439 35.5038 52.3236 35.5594 52.4695 35.615C52.6155 35.6705 52.7839 35.7595 52.9636 35.8818C53.1432 36.004 53.2331 36.1597 53.2331 36.3709C53.2331 37.2046 53.2555 37.8826 53.3004 38.4051C53.3453 38.9276 53.4127 39.3722 53.5025 39.7502C53.5924 40.1281 53.6822 40.4505 53.772 40.7284C53.8618 41.0174 53.9517 41.3175 54.0415 41.6399C54.0976 41.94 54.0864 42.1957 53.9966 42.3958C53.9068 42.607 53.6822 42.6292 53.3229 42.4847C52.6604 42.2513 52.1664 41.7733 51.852 41.0507C51.5376 40.3282 51.3018 39.6835 51.1558 39.0832C51.1221 38.9609 51.0548 38.7608 50.9312 38.4607C50.8077 38.1606 50.7404 37.9493 50.7067 37.8382C50.4709 37.7826 50.1789 37.8604 49.8533 38.0827C49.5277 38.3051 49.2245 38.6163 48.9775 38.9943C48.7193 39.3833 48.5508 39.828 48.4835 40.3393C48.4049 40.8506 48.5059 41.3509 48.7754 41.8622C48.8989 42.0401 49.0673 42.2624 49.2919 42.5069C49.5165 42.7626 49.741 43.0183 49.9656 43.2851C50.1902 43.5519 50.4147 43.8186 50.6393 44.0632C50.8639 44.3077 51.0548 44.519 51.2007 44.6635C51.3804 44.8413 51.5039 44.9414 51.56 44.9525C51.6162 44.9636 51.7734 44.9303 52.0092 44.8413C52.3123 44.6968 52.7727 44.4967 53.3903 44.2633C54.0078 44.0298 54.6591 43.7853 55.3328 43.5519C56.0065 43.3184 56.6577 43.1183 57.2753 42.9516C57.8928 42.7848 58.3644 42.707 58.7013 42.707C58.9146 42.707 59.0606 42.7848 59.1504 42.9294C59.2402 43.0183 59.229 43.1406 59.1055 43.2851C58.982 43.4296 58.8248 43.5852 58.6339 43.7297C58.443 43.8742 58.2297 44.0076 58.0276 44.1299C57.8142 44.2522 57.6795 44.3189 57.6234 44.3522C57.1068 44.6524 56.4668 44.9858 55.6808 45.3638C54.8949 45.7306 54.2212 46.0974 53.6485 46.4532C53.5924 46.5087 53.4801 46.5754 53.3117 46.631C53.1432 46.6866 53.0197 46.7533 52.9299 46.8089C53.2892 47.6092 53.5475 48.3095 53.6934 48.8876C53.8394 49.4656 53.8955 50.0214 53.8506 50.5661C53.8057 51.0997 53.6934 51.6444 53.5138 52.2002C53.3341 52.756 53.0871 53.3896 52.7951 54.101C52.3685 54.7902 51.9418 55.4461 51.5039 56.0686C51.066 56.6911 50.5832 57.258 50.033 57.7693C49.494 58.2807 48.8989 58.6809 48.2701 58.9699C47.6413 59.27 46.9452 59.4145 46.1929 59.4145C45.7662 59.4145 45.362 59.3589 44.969 59.2589C44.576 59.1588 44.2504 58.9365 43.9809 58.6142C43.2847 57.8694 42.903 57.0579 42.8131 56.1797C42.7233 55.3016 42.8019 54.4345 43.0377 53.5675C43.2173 53.0339 43.4419 52.5448 43.7114 52.089C44.3739 50.9552 45.1037 49.9992 45.9009 49.2099C46.7094 48.4318 47.5403 47.6759 48.4161 46.9645ZM49.9544 48.9765C49.6175 49.31 49.1684 49.7769 48.5957 50.3883C48.0231 50.9996 47.4954 51.6666 46.9901 52.378C46.496 53.0895 46.0918 53.8009 45.7774 54.5012C45.463 55.2015 45.3844 55.8018 45.5304 56.3131C46.1367 56.0463 46.7543 55.6017 47.3831 54.9903C48.0119 54.3789 48.5733 53.712 49.0561 52.9783C49.5389 52.2446 49.8758 51.5221 50.0667 50.8107C50.2575 50.0881 50.2239 49.4767 49.9544 48.9765Z" fill="#FF5196" stroke="white" stroke-miterlimit="10"/>
<path d="M41.0948 65.062C27.0481 65.062 15.6176 53.7458 15.6176 39.8396C15.6176 25.9334 27.0481 14.6172 41.0948 14.6172C55.1415 14.6172 66.572 25.9334 66.572 39.8396C66.572 53.7458 55.1415 65.062 41.0948 65.062ZM41.0948 15.7288C27.6657 15.7288 16.7405 26.5448 16.7405 39.8396C16.7405 53.1344 27.6657 63.9504 41.0948 63.9504C54.5239 63.9504 65.4491 53.1344 65.4491 39.8396C65.4491 26.5448 54.5239 15.7288 41.0948 15.7288Z" fill="#263238"/>
</g>
</svg>
