<svg width="60" height="60" viewBox="0 0 60 60" fill="none" xmlns="http://www.w3.org/2000/svg">
<rect x="1.0925" y="0.916968" width="57.5152" height="57.5152" rx="28.7576" stroke="white" stroke-opacity="0.25" stroke-width="1.17378"/>
<path fill-rule="evenodd" clip-rule="evenodd" d="M37.245 22.1485C35.2642 20.1677 32.6232 19.1113 29.8501 19.1113C24.0399 19.1113 19.2861 23.8651 19.2861 29.6753C19.2861 31.524 19.8143 33.3727 20.7387 34.9573L19.2861 40.2394L24.8323 38.7868C26.4169 39.5791 28.1335 40.1073 29.8501 40.1073C35.6604 40.1073 40.4142 35.3535 40.4142 29.5433C40.4142 26.7702 39.2257 24.1292 37.245 22.1485ZM29.8501 38.3906C28.2655 38.3906 26.6809 37.9945 25.3604 37.2022L25.0963 37.0701L21.7951 37.9945L22.7194 34.8253L22.4553 34.4291C21.531 32.9766 21.1348 31.392 21.1348 29.8074C21.1348 25.0536 25.0963 21.0921 29.8501 21.0921C32.227 21.0921 34.3399 22.0164 36.0565 23.601C37.7732 25.3177 38.5655 27.4305 38.5655 29.8074C38.5655 34.4291 34.736 38.3906 29.8501 38.3906ZM34.604 31.7881C34.3399 31.6561 33.0194 30.9958 32.7553 30.9958C32.4912 30.8638 32.3591 30.8638 32.227 31.1279C32.095 31.392 31.5668 31.9202 31.4348 32.1843C31.3027 32.3163 31.1706 32.3163 30.9065 32.3163C30.6424 32.1843 29.8502 31.9202 28.7938 30.9958C28.0015 30.3356 27.4732 29.4112 27.3412 29.1471C27.2091 28.883 27.3412 28.751 27.4733 28.6189C27.6053 28.4869 27.7373 28.3548 27.8694 28.2228C28.0014 28.0907 28.0015 27.9587 28.1335 27.8266C28.2656 27.6946 28.1335 27.5625 28.1335 27.4305C28.1335 27.2984 27.6053 25.9779 27.3412 25.4497C27.2091 25.0536 26.9451 25.0536 26.813 25.0536C26.681 25.0536 26.5489 25.0536 26.2848 25.0536C26.1527 25.0536 25.8886 25.0536 25.6245 25.3177C25.3604 25.5818 24.7002 26.242 24.7002 27.5625C24.7002 28.883 25.6245 30.0715 25.7566 30.3356C25.8886 30.4676 27.6053 33.2407 30.2463 34.2971C32.4911 35.2214 32.8873 34.9573 33.4155 34.9573C33.9437 34.9573 35.0001 34.2971 35.1322 33.7689C35.3962 33.1086 35.3963 32.5804 35.2642 32.5804C35.1322 31.9202 34.8681 31.9202 34.604 31.7881Z" fill="white"/>
</svg>
