<svg width="59" height="60" viewBox="0 0 59 60" fill="none" xmlns="http://www.w3.org/2000/svg">
<rect x="0.867163" y="0.916968" width="57.5152" height="57.5152" rx="28.7576" stroke="white" stroke-opacity="0.25" stroke-width="1.17378"/>
<path d="M41.8907 23.1358C41.5679 21.962 40.761 21.1236 39.6312 20.7882C37.6945 20.2852 29.4633 20.2852 29.4633 20.2852C29.4633 20.2852 21.3936 20.2852 19.2955 20.7882C18.1657 21.1236 17.3587 21.962 17.0359 23.1358C16.7131 25.3156 16.7131 29.6754 16.7131 29.6754C16.7131 29.6754 16.7131 34.0351 17.1973 36.215C17.5201 37.3888 18.3271 38.2272 19.4568 38.5626C21.3936 39.0656 29.6247 39.0656 29.6247 39.0656C29.6247 39.0656 37.6944 39.0656 39.7925 38.5626C40.9223 38.2272 41.7293 37.3888 42.0521 36.215C42.5363 34.0351 42.5363 29.6754 42.5363 29.6754C42.5363 29.6754 42.5363 25.3156 41.8907 23.1358ZM27.0424 33.6998V25.651L33.821 29.6754L27.0424 33.6998Z" fill="white"/>
</svg>
